<?xml version="1.0" encoding="UTF-8" standalone="no"?>
<!DOCTYPE svg PUBLIC "-//W3C//DTD SVG 1.1//EN"
 "http://www.w3.org/Graphics/SVG/1.1/DTD/svg11.dtd">
<!-- Generated by graphviz version 2.50.0 (20211204.2007)
 -->
<!-- Title: g Pages: 1 -->
<svg width="2506pt" height="904pt"
 viewBox="0.00 0.00 2506.00 904.00" xmlns="http://www.w3.org/2000/svg" xmlns:xlink="http://www.w3.org/1999/xlink">
<g id="graph0" class="graph" transform="scale(1 1) rotate(0) translate(4 900)">
<title>g</title>
<polygon fill="white" stroke="transparent" points="-4,4 -4,-900 2502,-900 2502,4 -4,4"/>
<!-- mir&#45;library -->
<g id="node1" class="node">
<title>mir&#45;library</title>
<polygon fill="darkgoldenrod" stroke="transparent" points="706,-856 706,-880 957,-880 957,-856 706,-856"/>
<polygon fill="none" stroke="black" points="706,-856 706,-880 957,-880 957,-856 706,-856"/>
<text text-anchor="start" x="788.5" y="-864.2" font-family="Times,serif" font-size="16.00">MIR libraries</text>
<polygon fill="#ffb90f" stroke="transparent" points="706,-830 706,-854 957,-854 957,-830 706,-830"/>
<polygon fill="none" stroke="black" points="706,-830 706,-854 957,-854 957,-830 706,-830"/>
<text text-anchor="start" x="710" y="-838.2" font-family="Times,serif" font-size="16.00">Semi&#45;stable libraries to represent MIR</text>
<polygon fill="cornsilk" stroke="transparent" points="706,-804 706,-828 801,-828 801,-804 706,-804"/>
<polygon fill="none" stroke="black" points="706,-804 706,-828 801,-828 801,-804 706,-804"/>
<polygon fill="cornsilk" stroke="transparent" points="803,-804 803,-828 957,-828 957,-804 803,-804"/>
<polygon fill="none" stroke="black" points="803,-804 803,-828 957,-828 957,-804 803,-804"/>
<text text-anchor="start" x="864.5" y="-812.2" font-family="Times,serif" font-size="16.00">MIR</text>
<polygon fill="cornsilk" stroke="transparent" points="706,-778 706,-802 801,-802 801,-778 706,-778"/>
<polygon fill="none" stroke="black" points="706,-778 706,-802 801,-802 801,-778 706,-778"/>
<polygon fill="cornsilk" stroke="transparent" points="803,-778 803,-802 957,-802 957,-778 803,-778"/>
<polygon fill="none" stroke="black" points="803,-778 803,-802 957,-802 957,-778 803,-778"/>
<text text-anchor="start" x="860.5" y="-786.2" font-family="Times,serif" font-size="16.00">Chalk</text>
<polygon fill="cornsilk" stroke="transparent" points="706,-752 706,-776 801,-776 801,-752 706,-752"/>
<polygon fill="none" stroke="black" points="706,-752 706,-776 801,-776 801,-752 706,-752"/>
<polygon fill="cornsilk" stroke="transparent" points="803,-752 803,-776 957,-776 957,-752 803,-752"/>
<polygon fill="none" stroke="black" points="803,-752 803,-776 957,-776 957,-752 803,-752"/>
<text text-anchor="start" x="851" y="-760.2" font-family="Times,serif" font-size="16.00">Polonius</text>
<polygon fill="cornsilk" stroke="transparent" points="706,-726 706,-750 801,-750 801,-726 706,-726"/>
<polygon fill="none" stroke="black" points="706,-726 706,-750 801,-750 801,-726 706,-726"/>
<polygon fill="cornsilk" stroke="transparent" points="803,-726 803,-750 957,-750 957,-726 803,-726"/>
<polygon fill="none" stroke="black" points="803,-726 803,-750 957,-750 957,-726 803,-726"/>
<text text-anchor="start" x="871.5" y="-734.2" font-family="Times,serif" font-size="16.00">Ty</text>
<polygon fill="none" stroke="black" points="702.5,-723 702.5,-883 959.5,-883 959.5,-723 702.5,-723"/>
</g>
<!-- compiler&#45;architecture -->
<g id="node2" class="node">
<title>compiler&#45;architecture</title>
<polygon fill="darkgoldenrod" stroke="transparent" points="665,-586 665,-610 997,-610 997,-586 665,-586"/>
<polygon fill="none" stroke="black" points="665,-586 665,-610 997,-610 997,-586 665,-586"/>
<text text-anchor="start" x="727.5" y="-594.2" font-family="Times,serif" font-size="16.00">Extensible compiler architecture</text>
<polygon fill="#ffb90f" stroke="transparent" points="665,-560 665,-584 997,-584 997,-560 665,-560"/>
<polygon fill="none" stroke="black" points="665,-560 665,-584 997,-584 997,-560 665,-560"/>
<text text-anchor="start" x="712" y="-568.2" font-family="Times,serif" font-size="16.00">Rust libraries can export custom lints</text>
<polygon fill="#ffb90f" stroke="transparent" points="665,-534 665,-558 997,-558 997,-534 665,-534"/>
<polygon fill="none" stroke="black" points="665,-534 665,-558 997,-558 997,-534 665,-534"/>
<text text-anchor="start" x="669" y="-542.2" font-family="Times,serif" font-size="16.00">Procedural macros have access to type information</text>
<polygon fill="cornsilk" stroke="transparent" points="665,-526 665,-532 830,-532 830,-526 665,-526"/>
<polygon fill="none" stroke="black" points="665,-526 665,-532 830,-532 830,-526 665,-526"/>
<polygon fill="cornsilk" stroke="transparent" points="832,-526 832,-532 997,-532 997,-526 832,-526"/>
<polygon fill="none" stroke="black" points="832,-526 832,-532 997,-532 997,-526 832,-526"/>
<polygon fill="none" stroke="black" points="662,-523 662,-613 1000,-613 1000,-523 662,-523"/>
</g>
<!-- mir&#45;library&#45;&gt;compiler&#45;architecture -->
<g id="edge1" class="edge">
<title>mir&#45;library&#45;&gt;compiler&#45;architecture</title>
<path fill="none" stroke="black" d="M831,-722.79C831,-689.98 831,-652.77 831,-623.16"/>
<polygon fill="black" stroke="black" points="834.5,-623.03 831,-613.03 827.5,-623.03 834.5,-623.03"/>
</g>
<!-- async&#45;fundamentals -->
<g id="node3" class="node">
<title>async&#45;fundamentals</title>
<polygon fill="darkgoldenrod" stroke="transparent" points="1022,-647 1022,-671 1315,-671 1315,-647 1022,-647"/>
<polygon fill="none" stroke="black" points="1022,-647 1022,-671 1315,-671 1315,-647 1022,-647"/>
<text text-anchor="start" x="1103" y="-655.2" font-family="Times,serif" font-size="16.00">Async fundamentals</text>
<polygon fill="#ffb90f" stroke="transparent" points="1022,-621 1022,-645 1315,-645 1315,-621 1022,-621"/>
<polygon fill="none" stroke="black" points="1022,-621 1022,-645 1315,-645 1315,-621 1022,-621"/>
<text text-anchor="start" x="1070.5" y="-629.2" font-family="Times,serif" font-size="16.00">Async fn available everywhere</text>
<polygon fill="cornsilk" stroke="transparent" points="1022,-595 1022,-619 1028,-619 1028,-595 1022,-595"/>
<polygon fill="none" stroke="black" points="1022,-595 1022,-619 1028,-619 1028,-595 1022,-595"/>
<polygon fill="cornsilk" stroke="transparent" points="1030,-595 1030,-619 1315,-619 1315,-595 1030,-595"/>
<polygon fill="none" stroke="black" points="1030,-595 1030,-619 1315,-619 1315,-595 1030,-595"/>
<text text-anchor="start" x="1084" y="-603.2" font-family="Times,serif" font-size="16.00">Type alias impl trait (TAIT)</text>
<polygon fill="cornsilk" stroke="transparent" points="1022,-569 1022,-593 1028,-593 1028,-569 1022,-569"/>
<polygon fill="none" stroke="black" points="1022,-569 1022,-593 1028,-593 1028,-569 1022,-569"/>
<polygon fill="cornsilk" stroke="transparent" points="1030,-569 1030,-593 1315,-593 1315,-569 1030,-569"/>
<polygon fill="none" stroke="black" points="1030,-569 1030,-593 1315,-593 1315,-569 1030,-569"/>
<text text-anchor="start" x="1033" y="-577.2" font-family="Times,serif" font-size="16.00">Return position impl trait in traits (RPITIT)</text>
<polygon fill="cornsilk" stroke="transparent" points="1022,-543 1022,-567 1028,-567 1028,-543 1022,-543"/>
<polygon fill="none" stroke="black" points="1022,-543 1022,-567 1028,-567 1028,-543 1022,-543"/>
<polygon fill="cornsilk" stroke="transparent" points="1030,-543 1030,-567 1315,-567 1315,-543 1030,-543"/>
<polygon fill="none" stroke="black" points="1030,-543 1030,-567 1315,-567 1315,-543 1030,-543"/>
<text text-anchor="start" x="1094.5" y="-551.2" font-family="Times,serif" font-size="16.00">Generic associated types</text>
<polygon fill="cornsilk" stroke="transparent" points="1022,-517 1022,-541 1028,-541 1028,-517 1022,-517"/>
<polygon fill="none" stroke="black" points="1022,-517 1022,-541 1028,-541 1028,-517 1022,-517"/>
<polygon fill="cornsilk" stroke="transparent" points="1030,-517 1030,-541 1315,-541 1315,-517 1030,-517"/>
<polygon fill="none" stroke="black" points="1030,-517 1030,-541 1315,-541 1315,-517 1030,-517"/>
<text text-anchor="start" x="1099" y="-525.2" font-family="Times,serif" font-size="16.00">Async fn in static traits</text>
<polygon fill="cornsilk" stroke="transparent" points="1022,-491 1022,-515 1028,-515 1028,-491 1022,-491"/>
<polygon fill="none" stroke="black" points="1022,-491 1022,-515 1028,-515 1028,-491 1022,-491"/>
<polygon fill="cornsilk" stroke="transparent" points="1030,-491 1030,-515 1315,-515 1315,-491 1030,-491"/>
<polygon fill="none" stroke="black" points="1030,-491 1030,-515 1315,-515 1315,-491 1030,-491"/>
<text text-anchor="start" x="1101.5" y="-499.2" font-family="Times,serif" font-size="16.00">Empowered dyn traits</text>
<polygon fill="cornsilk" stroke="transparent" points="1022,-465 1022,-489 1028,-489 1028,-465 1022,-465"/>
<polygon fill="none" stroke="black" points="1022,-465 1022,-489 1028,-489 1028,-465 1022,-465"/>
<polygon fill="cornsilk" stroke="transparent" points="1030,-465 1030,-489 1315,-489 1315,-465 1030,-465"/>
<polygon fill="none" stroke="black" points="1030,-465 1030,-489 1315,-489 1315,-465 1030,-465"/>
<text text-anchor="start" x="1135" y="-473.2" font-family="Times,serif" font-size="16.00">Async drop</text>
<polygon fill="none" stroke="black" points="1018.5,-462 1018.5,-674 1317.5,-674 1317.5,-462 1018.5,-462"/>
</g>
<!-- mir&#45;library&#45;&gt;async&#45;fundamentals -->
<g id="edge2" class="edge">
<title>mir&#45;library&#45;&gt;async&#45;fundamentals</title>
<path fill="none" stroke="black" d="M945.56,-722.79C966.29,-708.46 988.23,-693.29 1009.95,-678.28"/>
<polygon fill="black" stroke="black" points="1012.02,-681.1 1018.25,-672.53 1008.04,-675.34 1012.02,-681.1"/>
</g>
<!-- patina -->
<g id="node20" class="node">
<title>patina</title>
<polygon fill="darkgoldenrod" stroke="transparent" points="3,-560 3,-584 249,-584 249,-560 3,-560"/>
<polygon fill="none" stroke="black" points="3,-560 3,-584 249,-584 249,-560 3,-560"/>
<text text-anchor="start" x="7" y="-568.2" font-family="Times,serif" font-size="16.00">Formalized Rust semantics for Patina</text>
<polygon fill="#ffb90f" stroke="transparent" points="3,-552 3,-558 249,-558 249,-552 3,-552"/>
<polygon fill="none" stroke="black" points="3,-552 3,-558 249,-558 249,-552 3,-552"/>
<polygon fill="none" stroke="black" points="0,-549 0,-587 252,-587 252,-549 0,-549"/>
</g>
<!-- mir&#45;library&#45;&gt;patina -->
<g id="edge21" class="edge">
<title>mir&#45;library&#45;&gt;patina</title>
<path fill="none" stroke="black" d="M702.38,-789.43C583.29,-774.08 403.63,-741.31 261,-674 218.41,-653.9 176.78,-618.41 151.26,-594.31"/>
<polygon fill="black" stroke="black" points="153.52,-591.62 143.88,-587.22 148.67,-596.67 153.52,-591.62"/>
</g>
<!-- async&#45;portability -->
<g id="node5" class="node">
<title>async&#45;portability</title>
<polygon fill="darkgoldenrod" stroke="transparent" points="465,-399 465,-423 954,-423 954,-399 465,-399"/>
<polygon fill="none" stroke="black" points="465,-399 465,-423 954,-423 954,-399 465,-399"/>
<text text-anchor="start" x="653.5" y="-407.2" font-family="Times,serif" font-size="16.00">Async portability</text>
<polygon fill="#ffb90f" stroke="transparent" points="465,-373 465,-397 954,-397 954,-373 465,-373"/>
<polygon fill="none" stroke="black" points="465,-373 465,-397 954,-397 954,-373 465,-373"/>
<text text-anchor="start" x="558" y="-381.2" font-family="Times,serif" font-size="16.00">Can use library without thinking about runtime</text>
<polygon fill="#ffb90f" stroke="transparent" points="465,-347 465,-371 954,-371 954,-347 465,-347"/>
<polygon fill="none" stroke="black" points="465,-347 465,-371 954,-371 954,-347 465,-347"/>
<text text-anchor="start" x="509.5" y="-355.2" font-family="Times,serif" font-size="16.00">Can get started with async rust without thinking about runtime</text>
<polygon fill="#ffb90f" stroke="transparent" points="465,-321 465,-345 954,-345 954,-321 465,-321"/>
<polygon fill="none" stroke="black" points="465,-321 465,-345 954,-345 954,-321 465,-321"/>
<text text-anchor="start" x="574.5" y="-329.2" font-family="Times,serif" font-size="16.00">Can easily change to a specialized runtime</text>
<polygon fill="#ffb90f" stroke="transparent" points="465,-295 465,-319 954,-319 954,-295 465,-295"/>
<polygon fill="none" stroke="black" points="465,-295 465,-319 954,-319 954,-295 465,-295"/>
<text text-anchor="start" x="469" y="-303.2" font-family="Times,serif" font-size="16.00">Can create a specialized or experimental runtime that works with most code</text>
<polygon fill="cornsilk" stroke="transparent" points="465,-269 465,-293 680,-293 680,-269 465,-269"/>
<polygon fill="none" stroke="black" points="465,-269 465,-293 680,-293 680,-269 465,-269"/>
<polygon fill="cornsilk" stroke="transparent" points="682,-269 682,-293 954,-293 954,-269 682,-269"/>
<polygon fill="none" stroke="black" points="682,-269 682,-293 954,-293 954,-269 682,-269"/>
<text text-anchor="start" x="789.5" y="-277.2" font-family="Times,serif" font-size="16.00">I/O traits</text>
<polygon fill="none" stroke="black" points="461.5,-266 461.5,-426 956.5,-426 956.5,-266 461.5,-266"/>
</g>
<!-- async&#45;fundamentals&#45;&gt;async&#45;portability -->
<g id="edge5" class="edge">
<title>async&#45;fundamentals&#45;&gt;async&#45;portability</title>
<path fill="none" stroke="black" d="M1018.3,-466.9C1015.19,-465.22 1012.09,-463.59 1009,-462 987.32,-450.86 964.3,-440.17 941.03,-430.1"/>
<polygon fill="black" stroke="black" points="942.33,-426.84 931.76,-426.12 939.57,-433.28 942.33,-426.84"/>
</g>
<!-- comparable&#45;learning&#45;curve -->
<g id="node7" class="node">
<title>comparable&#45;learning&#45;curve</title>
<polygon fill="darkgoldenrod" stroke="transparent" points="987,-347 987,-371 1330,-371 1330,-347 987,-347"/>
<polygon fill="none" stroke="black" points="987,-347 987,-371 1330,-371 1330,-347 987,-347"/>
<text text-anchor="start" x="1026" y="-355.2" font-family="Times,serif" font-size="16.00">Rust learning curve is comparable to Java</text>
<polygon fill="#ffb90f" stroke="transparent" points="987,-321 987,-345 1330,-345 1330,-321 987,-321"/>
<polygon fill="none" stroke="black" points="987,-321 987,-345 1330,-345 1330,-321 987,-321"/>
<text text-anchor="start" x="991" y="-329.2" font-family="Times,serif" font-size="16.00">Time to be highly productive is measured in months</text>
<polygon fill="none" stroke="black" points="983.5,-318 983.5,-374 1332.5,-374 1332.5,-318 983.5,-318"/>
</g>
<!-- async&#45;fundamentals&#45;&gt;comparable&#45;learning&#45;curve -->
<g id="edge7" class="edge">
<title>async&#45;fundamentals&#45;&gt;comparable&#45;learning&#45;curve</title>
<path fill="none" stroke="black" d="M1163.22,-461.83C1161.95,-433.92 1160.66,-405.59 1159.68,-384.06"/>
<polygon fill="black" stroke="black" points="1163.18,-383.89 1159.23,-374.06 1156.19,-384.21 1163.18,-383.89"/>
</g>
<!-- empowered&#45;dyn -->
<g id="node4" class="node">
<title>empowered&#45;dyn</title>
<polygon fill="darkgoldenrod" stroke="transparent" points="1051,-869 1051,-893 1285,-893 1285,-869 1051,-869"/>
<polygon fill="none" stroke="black" points="1051,-869 1051,-893 1285,-893 1285,-869 1051,-869"/>
<text text-anchor="start" x="1097" y="-877.2" font-family="Times,serif" font-size="16.00">Empowered dyn traits</text>
<polygon fill="#ffb90f" stroke="transparent" points="1051,-843 1051,-867 1285,-867 1285,-843 1051,-843"/>
<polygon fill="none" stroke="black" points="1051,-843 1051,-867 1285,-867 1285,-843 1051,-843"/>
<text text-anchor="start" x="1055" y="-851.2" font-family="Times,serif" font-size="16.00">Dyn trait is available for most traits</text>
<polygon fill="cornsilk" stroke="transparent" points="1051,-817 1051,-841 1089,-841 1089,-817 1051,-817"/>
<polygon fill="none" stroke="black" points="1051,-817 1051,-841 1089,-841 1089,-817 1051,-817"/>
<polygon fill="cornsilk" stroke="transparent" points="1091,-817 1091,-841 1285,-841 1285,-817 1091,-817"/>
<polygon fill="none" stroke="black" points="1091,-817 1091,-841 1285,-841 1285,-817 1091,-817"/>
<text text-anchor="start" x="1112.5" y="-825.2" font-family="Times,serif" font-size="16.00">APIT, RPIT in dyn trait</text>
<polygon fill="cornsilk" stroke="transparent" points="1051,-791 1051,-815 1089,-815 1089,-791 1051,-791"/>
<polygon fill="none" stroke="black" points="1051,-791 1051,-815 1089,-815 1089,-791 1051,-791"/>
<polygon fill="cornsilk" stroke="transparent" points="1091,-791 1091,-815 1285,-815 1285,-791 1091,-791"/>
<polygon fill="none" stroke="black" points="1091,-791 1091,-815 1285,-815 1285,-791 1091,-791"/>
<text text-anchor="start" x="1122" y="-799.2" font-family="Times,serif" font-size="16.00">`fn(self)` in dyn trait</text>
<polygon fill="cornsilk" stroke="transparent" points="1051,-765 1051,-789 1089,-789 1089,-765 1051,-765"/>
<polygon fill="none" stroke="black" points="1051,-765 1051,-789 1089,-789 1089,-765 1051,-765"/>
<polygon fill="cornsilk" stroke="transparent" points="1091,-765 1091,-789 1285,-789 1285,-765 1091,-765"/>
<polygon fill="none" stroke="black" points="1091,-765 1091,-789 1285,-789 1285,-765 1091,-765"/>
<text text-anchor="start" x="1133.5" y="-773.2" font-family="Times,serif" font-size="16.00">clone in dyn trait</text>
<polygon fill="cornsilk" stroke="transparent" points="1051,-739 1051,-763 1089,-763 1089,-739 1051,-739"/>
<polygon fill="none" stroke="black" points="1051,-739 1051,-763 1089,-763 1089,-739 1051,-739"/>
<polygon fill="cornsilk" stroke="transparent" points="1091,-739 1091,-763 1285,-763 1285,-739 1091,-739"/>
<polygon fill="none" stroke="black" points="1091,-739 1091,-763 1285,-763 1285,-739 1091,-739"/>
<text text-anchor="start" x="1118.5" y="-747.2" font-family="Times,serif" font-size="16.00">Async fn in dyn traits</text>
<polygon fill="cornsilk" stroke="transparent" points="1051,-713 1051,-737 1089,-737 1089,-713 1051,-713"/>
<polygon fill="none" stroke="black" points="1051,-713 1051,-737 1089,-737 1089,-713 1051,-713"/>
<polygon fill="cornsilk" stroke="transparent" points="1091,-713 1091,-737 1285,-737 1285,-713 1091,-713"/>
<polygon fill="none" stroke="black" points="1091,-713 1091,-737 1285,-737 1285,-713 1091,-713"/>
<text text-anchor="start" x="1110.5" y="-721.2" font-family="Times,serif" font-size="16.00">Async drop in dyn traits</text>
<polygon fill="none" stroke="black" points="1048,-710 1048,-896 1288,-896 1288,-710 1048,-710"/>
</g>
<!-- empowered&#45;dyn&#45;&gt;async&#45;fundamentals -->
<g id="edge3" class="edge">
<title>empowered&#45;dyn&#45;&gt;async&#45;fundamentals</title>
<path fill="none" stroke="black" d="M1168,-709.91C1168,-701.5 1168,-692.91 1168,-684.33"/>
<polygon fill="black" stroke="black" points="1171.5,-684.27 1168,-674.27 1164.5,-684.27 1171.5,-684.27"/>
</g>
<!-- threaded&#45;contexts -->
<g id="node6" class="node">
<title>threaded&#45;contexts</title>
<polygon fill="darkgoldenrod" stroke="transparent" points="274,-569 274,-593 641,-593 641,-569 274,-569"/>
<polygon fill="none" stroke="black" points="274,-569 274,-593 641,-593 641,-569 274,-569"/>
<text text-anchor="start" x="398.5" y="-577.2" font-family="Times,serif" font-size="16.00">Threaded contexts</text>
<polygon fill="#ffb90f" stroke="transparent" points="274,-543 274,-567 641,-567 641,-543 274,-543"/>
<polygon fill="none" stroke="black" points="274,-543 274,-567 641,-567 641,-543 274,-543"/>
<text text-anchor="start" x="278" y="-551.2" font-family="Times,serif" font-size="16.00">Can easily thread context information where it is needed</text>
<polygon fill="none" stroke="black" points="270.5,-540 270.5,-596 643.5,-596 643.5,-540 270.5,-540"/>
</g>
<!-- threaded&#45;contexts&#45;&gt;async&#45;portability -->
<g id="edge4" class="edge">
<title>threaded&#45;contexts&#45;&gt;async&#45;portability</title>
<path fill="none" stroke="black" d="M488.15,-539.8C518.71,-513.12 566.94,-471.02 610.54,-432.96"/>
<polygon fill="black" stroke="black" points="613.11,-435.36 618.34,-426.15 608.51,-430.09 613.11,-435.36"/>
</g>
<!-- building&#45;internet&#45;services -->
<g id="node16" class="node">
<title>building&#45;internet&#45;services</title>
<polygon fill="darkgoldenrod" stroke="transparent" points="559,-85 559,-109 912,-109 912,-85 559,-85"/>
<polygon fill="none" stroke="black" points="559,-85 559,-109 912,-109 912,-85 559,-85"/>
<text text-anchor="start" x="563" y="-93.2" font-family="Times,serif" font-size="16.00">Rust a common choice for building internet platforms</text>
<polygon fill="#ffb90f" stroke="transparent" points="559,-77 559,-83 912,-83 912,-77 559,-77"/>
<polygon fill="none" stroke="black" points="559,-77 559,-83 912,-83 912,-77 559,-77"/>
<polygon fill="none" stroke="black" points="555.5,-74 555.5,-112 914.5,-112 914.5,-74 555.5,-74"/>
</g>
<!-- comparable&#45;learning&#45;curve&#45;&gt;building&#45;internet&#45;services -->
<g id="edge15" class="edge">
<title>comparable&#45;learning&#45;curve&#45;&gt;building&#45;internet&#45;services</title>
<path fill="none" stroke="black" d="M1091.29,-317.9C1017.37,-287.67 906.13,-241.49 888,-230 837.57,-198.05 787.44,-149.47 758.93,-119.84"/>
<polygon fill="black" stroke="black" points="761.26,-117.21 751.83,-112.38 756.19,-122.03 761.26,-117.21"/>
</g>
<!-- well&#45;integrated&#45;into&#45;internet&#45;services -->
<g id="node17" class="node">
<title>well&#45;integrated&#45;into&#45;internet&#45;services</title>
<polygon fill="darkgoldenrod" stroke="transparent" points="920,-203 920,-227 1397,-227 1397,-203 920,-203"/>
<polygon fill="none" stroke="black" points="920,-203 920,-227 1397,-227 1397,-203 920,-203"/>
<text text-anchor="start" x="1019.5" y="-211.2" font-family="Times,serif" font-size="16.00">Rust is well integrated into internet services</text>
<polygon fill="#ffb90f" stroke="transparent" points="920,-177 920,-201 1397,-201 1397,-177 920,-177"/>
<polygon fill="none" stroke="black" points="920,-177 920,-201 1397,-201 1397,-177 920,-177"/>
<text text-anchor="start" x="924" y="-185.2" font-family="Times,serif" font-size="16.00">SDKs for interacting with web services are readily available and complete</text>
<polygon fill="#ffb90f" stroke="transparent" points="920,-151 920,-175 1397,-175 1397,-151 920,-151"/>
<polygon fill="none" stroke="black" points="920,-151 920,-175 1397,-175 1397,-151 920,-151"/>
<text text-anchor="start" x="968" y="-159.2" font-family="Times,serif" font-size="16.00">FaaS platforms have first&#45;class, convenient support for Rust</text>
<polygon fill="none" stroke="black" points="916.5,-148 916.5,-230 1399.5,-230 1399.5,-148 916.5,-148"/>
</g>
<!-- comparable&#45;learning&#45;curve&#45;&gt;well&#45;integrated&#45;into&#45;internet&#45;services -->
<g id="edge16" class="edge">
<title>comparable&#45;learning&#45;curve&#45;&gt;well&#45;integrated&#45;into&#45;internet&#45;services</title>
<path fill="none" stroke="black" d="M1158,-317.65C1158,-296.33 1158,-266.16 1158,-240.5"/>
<polygon fill="black" stroke="black" points="1161.5,-240.18 1158,-230.18 1154.5,-240.18 1161.5,-240.18"/>
</g>
<!-- using&#45;internet&#45;services -->
<g id="node18" class="node">
<title>using&#45;internet&#45;services</title>
<polygon fill="darkgoldenrod" stroke="transparent" points="936,-85 936,-109 1344,-109 1344,-85 936,-85"/>
<polygon fill="none" stroke="black" points="936,-85 936,-109 1344,-109 1344,-85 936,-85"/>
<text text-anchor="start" x="940" y="-93.2" font-family="Times,serif" font-size="16.00">Rust a common choice for code that runs on internet platforms</text>
<polygon fill="#ffb90f" stroke="transparent" points="936,-77 936,-83 1344,-83 1344,-77 936,-77"/>
<polygon fill="none" stroke="black" points="936,-77 936,-83 1344,-83 1344,-77 936,-77"/>
<polygon fill="none" stroke="black" points="933,-74 933,-112 1347,-112 1347,-74 933,-74"/>
</g>
<!-- comparable&#45;learning&#45;curve&#45;&gt;using&#45;internet&#45;services -->
<g id="edge17" class="edge">
<title>comparable&#45;learning&#45;curve&#45;&gt;using&#45;internet&#45;services</title>
<path fill="none" stroke="black" d="M1089.13,-317.92C1018.56,-289.47 917.66,-246.61 907,-230 887.32,-199.33 884.32,-176.53 907,-148 918.65,-133.34 951.01,-122.31 988.04,-114.17"/>
<polygon fill="black" stroke="black" points="989.01,-117.54 998.07,-112.05 987.57,-110.69 989.01,-117.54"/>
</g>
<!-- quality&#45;debugger -->
<g id="node8" class="node">
<title>quality&#45;debugger</title>
<polygon fill="darkgoldenrod" stroke="transparent" points="1365,-595 1365,-619 1730,-619 1730,-595 1365,-595"/>
<polygon fill="none" stroke="black" points="1365,-595 1365,-619 1730,-619 1730,-595 1365,-595"/>
<text text-anchor="start" x="1475" y="-603.2" font-family="Times,serif" font-size="16.00">Quality Rust debugger</text>
<polygon fill="cornsilk" stroke="transparent" points="1365,-569 1365,-593 1371,-593 1371,-569 1365,-569"/>
<polygon fill="none" stroke="black" points="1365,-569 1365,-593 1371,-593 1371,-569 1365,-569"/>
<polygon fill="cornsilk" stroke="transparent" points="1373,-569 1373,-593 1730,-593 1730,-569 1373,-569"/>
<polygon fill="none" stroke="black" points="1373,-569 1373,-593 1730,-593 1730,-569 1373,-569"/>
<text text-anchor="start" x="1488" y="-577.2" font-family="Times,serif" font-size="16.00">Accurate debuginfo</text>
<polygon fill="cornsilk" stroke="transparent" points="1365,-543 1365,-567 1371,-567 1371,-543 1365,-543"/>
<polygon fill="none" stroke="black" points="1365,-543 1365,-567 1371,-567 1371,-543 1365,-543"/>
<polygon fill="cornsilk" stroke="transparent" points="1373,-543 1373,-567 1730,-567 1730,-543 1373,-543"/>
<polygon fill="none" stroke="black" points="1373,-543 1373,-567 1730,-567 1730,-543 1373,-543"/>
<text text-anchor="start" x="1376" y="-551.2" font-family="Times,serif" font-size="16.00">Debuggers understand Rust collections and other types</text>
<polygon fill="cornsilk" stroke="transparent" points="1365,-517 1365,-541 1371,-541 1371,-517 1365,-517"/>
<polygon fill="none" stroke="black" points="1365,-517 1365,-541 1371,-541 1371,-517 1365,-517"/>
<polygon fill="cornsilk" stroke="transparent" points="1373,-517 1373,-541 1730,-541 1730,-517 1373,-517"/>
<polygon fill="none" stroke="black" points="1373,-517 1373,-541 1730,-541 1730,-517 1373,-517"/>
<text text-anchor="start" x="1413.5" y="-525.2" font-family="Times,serif" font-size="16.00">Debuggers understand async Rust concepts</text>
<polygon fill="none" stroke="black" points="1361.5,-514 1361.5,-622 1732.5,-622 1732.5,-514 1361.5,-514"/>
</g>
<!-- quality&#45;debugger&#45;&gt;comparable&#45;learning&#45;curve -->
<g id="edge6" class="edge">
<title>quality&#45;debugger&#45;&gt;comparable&#45;learning&#45;curve</title>
<path fill="none" stroke="black" d="M1452.83,-513.74C1378.47,-471.69 1277.15,-414.39 1214.73,-379.09"/>
<polygon fill="black" stroke="black" points="1216.24,-375.92 1205.81,-374.04 1212.8,-382.01 1216.24,-375.92"/>
</g>
<!-- correctness&#45;in&#45;dev -->
<g id="node9" class="node">
<title>correctness&#45;in&#45;dev</title>
<polygon fill="darkgoldenrod" stroke="transparent" points="1384,-334 1384,-358 1762,-358 1762,-334 1384,-334"/>
<polygon fill="none" stroke="black" points="1384,-334 1384,-358 1762,-358 1762,-334 1384,-334"/>
<text text-anchor="start" x="1387.5" y="-342.2" font-family="Times,serif" font-size="16.00">Able to fix correctness problems that arise in development</text>
<polygon fill="none" stroke="black" points="1381,-331 1381,-361 1765,-361 1765,-331 1381,-331"/>
</g>
<!-- quality&#45;debugger&#45;&gt;correctness&#45;in&#45;dev -->
<g id="edge8" class="edge">
<title>quality&#45;debugger&#45;&gt;correctness&#45;in&#45;dev</title>
<path fill="none" stroke="black" d="M1553.29,-513.74C1558.49,-469.8 1565.65,-409.21 1569.75,-374.46"/>
<polygon fill="black" stroke="black" points="1573.28,-374.49 1570.97,-364.15 1566.32,-373.67 1573.28,-374.49"/>
</g>
<!-- correctness&#45;in&#45;prod -->
<g id="node10" class="node">
<title>correctness&#45;in&#45;prod</title>
<polygon fill="darkgoldenrod" stroke="transparent" points="1421,-177 1421,-201 1785,-201 1785,-177 1421,-177"/>
<polygon fill="none" stroke="black" points="1421,-177 1421,-201 1785,-201 1785,-177 1421,-177"/>
<text text-anchor="start" x="1424" y="-185.2" font-family="Times,serif" font-size="16.00">Able to fix correctness problems that arise in production</text>
<polygon fill="none" stroke="black" points="1418,-174 1418,-204 1788,-204 1788,-174 1418,-174"/>
</g>
<!-- correctness&#45;in&#45;dev&#45;&gt;correctness&#45;in&#45;prod -->
<g id="edge9" class="edge">
<title>correctness&#45;in&#45;dev&#45;&gt;correctness&#45;in&#45;prod</title>
<path fill="none" stroke="black" d="M1576.33,-327.82C1581.51,-301.05 1591.55,-249.16 1597.73,-217.25"/>
<polygon fill="black" stroke="black" points="1601.2,-217.74 1599.66,-207.26 1594.32,-216.41 1601.2,-217.74"/>
</g>
<!-- observability&#45;in&#45;dev -->
<g id="node11" class="node">
<title>observability&#45;in&#45;dev</title>
<polygon fill="darkgoldenrod" stroke="transparent" points="1924,-569 1924,-593 2215,-593 2215,-569 1924,-569"/>
<polygon fill="none" stroke="black" points="1924,-569 1924,-593 2215,-593 2215,-569 1924,-569"/>
<text text-anchor="start" x="1928" y="-577.2" font-family="Times,serif" font-size="16.00">Observability into Rust during development</text>
<polygon fill="cornsilk" stroke="transparent" points="1924,-543 1924,-567 2023,-567 2023,-543 1924,-543"/>
<polygon fill="none" stroke="black" points="1924,-543 1924,-567 2023,-567 2023,-543 1924,-543"/>
<polygon fill="cornsilk" stroke="transparent" points="2025,-543 2025,-567 2215,-567 2215,-543 2025,-543"/>
<polygon fill="none" stroke="black" points="2025,-543 2025,-567 2215,-567 2215,-543 2025,-543"/>
<text text-anchor="start" x="2074.5" y="-551.2" font-family="Times,serif" font-size="16.00">Tokio console</text>
<polygon fill="none" stroke="black" points="1920.5,-540 1920.5,-596 2217.5,-596 2217.5,-540 1920.5,-540"/>
</g>
<!-- performance&#45;in&#45;dev -->
<g id="node12" class="node">
<title>performance&#45;in&#45;dev</title>
<polygon fill="darkgoldenrod" stroke="transparent" points="2101,-334 2101,-358 2489,-358 2489,-334 2101,-334"/>
<polygon fill="none" stroke="black" points="2101,-334 2101,-358 2489,-358 2489,-334 2101,-334"/>
<text text-anchor="start" x="2104.5" y="-342.2" font-family="Times,serif" font-size="16.00">Able to fix performance problems that arise in development</text>
<polygon fill="none" stroke="black" points="2098,-331 2098,-361 2492,-361 2492,-331 2098,-331"/>
</g>
<!-- observability&#45;in&#45;dev&#45;&gt;performance&#45;in&#45;dev -->
<g id="edge11" class="edge">
<title>observability&#45;in&#45;dev&#45;&gt;performance&#45;in&#45;dev</title>
<path fill="none" stroke="black" d="M2097.17,-539.58C2141.72,-496.21 2227.75,-412.46 2270.15,-371.19"/>
<polygon fill="black" stroke="black" points="2272.81,-373.48 2277.54,-364 2267.93,-368.47 2272.81,-373.48"/>
</g>
<!-- observability&#45;in&#45;prod -->
<g id="node14" class="node">
<title>observability&#45;in&#45;prod</title>
<polygon fill="darkgoldenrod" stroke="transparent" points="1829,-334 1829,-358 2077,-358 2077,-334 1829,-334"/>
<polygon fill="none" stroke="black" points="1829,-334 1829,-358 2077,-358 2077,-334 1829,-334"/>
<text text-anchor="start" x="1832.5" y="-342.2" font-family="Times,serif" font-size="16.00">Observability into Rust in production</text>
<polygon fill="none" stroke="black" points="1826,-331 1826,-361 2080,-361 2080,-331 1826,-331"/>
</g>
<!-- observability&#45;in&#45;dev&#45;&gt;observability&#45;in&#45;prod -->
<g id="edge13" class="edge">
<title>observability&#45;in&#45;dev&#45;&gt;observability&#45;in&#45;prod</title>
<path fill="none" stroke="black" d="M2054.54,-539.58C2032.01,-496.84 1988.79,-414.89 1966.72,-373.02"/>
<polygon fill="black" stroke="black" points="1969.72,-371.21 1961.96,-364 1963.53,-374.48 1969.72,-371.21"/>
</g>
<!-- performance&#45;in&#45;prod -->
<g id="node13" class="node">
<title>performance&#45;in&#45;prod</title>
<polygon fill="darkgoldenrod" stroke="transparent" points="2121,-177 2121,-201 2495,-201 2495,-177 2121,-177"/>
<polygon fill="none" stroke="black" points="2121,-177 2121,-201 2495,-201 2495,-177 2121,-177"/>
<text text-anchor="start" x="2124" y="-185.2" font-family="Times,serif" font-size="16.00">Able to fix performance problems that arise in production</text>
<polygon fill="none" stroke="black" points="2118,-174 2118,-204 2498,-204 2498,-174 2118,-174"/>
</g>
<!-- observability&#45;in&#45;prod&#45;&gt;correctness&#45;in&#45;prod -->
<g id="edge10" class="edge">
<title>observability&#45;in&#45;prod&#45;&gt;correctness&#45;in&#45;prod</title>
<path fill="none" stroke="black" d="M1914.54,-327.97C1850.26,-299.5 1721.16,-242.33 1651.01,-211.26"/>
<polygon fill="black" stroke="black" points="1652.08,-207.91 1641.52,-207.06 1649.25,-214.31 1652.08,-207.91"/>
</g>
<!-- observability&#45;in&#45;prod&#45;&gt;performance&#45;in&#45;prod -->
<g id="edge12" class="edge">
<title>observability&#45;in&#45;prod&#45;&gt;performance&#45;in&#45;prod</title>
<path fill="none" stroke="black" d="M1979.28,-327.69C2006.09,-310.52 2049.29,-284.22 2089,-266 2137.97,-243.53 2195.61,-223.78 2239.47,-210.05"/>
<polygon fill="black" stroke="black" points="2240.66,-213.34 2249.17,-207.04 2238.58,-206.66 2240.66,-213.34"/>
</g>
<!-- async&#45;observability&#45;in&#45;prod -->
<g id="node15" class="node">
<title>async&#45;observability&#45;in&#45;prod</title>
<polygon fill="darkgoldenrod" stroke="transparent" points="1809,-181 1809,-205 2097,-205 2097,-181 1809,-181"/>
<polygon fill="none" stroke="black" points="1809,-181 1809,-205 2097,-205 2097,-181 1809,-181"/>
<text text-anchor="start" x="1813" y="-189.2" font-family="Times,serif" font-size="16.00">Observability into async Rust in production</text>
<polygon fill="#ffb90f" stroke="transparent" points="1809,-173 1809,-179 2097,-179 2097,-173 1809,-173"/>
<polygon fill="none" stroke="black" points="1809,-173 1809,-179 2097,-179 2097,-173 1809,-173"/>
<polygon fill="none" stroke="black" points="1806,-170 1806,-208 2100,-208 2100,-170 1806,-170"/>
</g>
<!-- observability&#45;in&#45;prod&#45;&gt;async&#45;observability&#45;in&#45;prod -->
<g id="edge14" class="edge">
<title>observability&#45;in&#45;prod&#45;&gt;async&#45;observability&#45;in&#45;prod</title>
<path fill="none" stroke="black" d="M1953,-327.82C1953,-301.34 1953,-250.25 1953,-218.27"/>
<polygon fill="black" stroke="black" points="1956.5,-218.21 1953,-208.21 1949.5,-218.21 1956.5,-218.21"/>
</g>
<!-- reduced&#45;operating&#45;costs -->
<g id="node19" class="node">
<title>reduced&#45;operating&#45;costs</title>
<polygon fill="darkgoldenrod" stroke="transparent" points="860,-11 860,-35 1166,-35 1166,-11 860,-11"/>
<polygon fill="none" stroke="black" points="860,-11 860,-35 1166,-35 1166,-11 860,-11"/>
<text text-anchor="start" x="864" y="-19.2" font-family="Times,serif" font-size="16.00">Operating costs and carbon impact are reduced</text>
<polygon fill="#ffb90f" stroke="transparent" points="860,-3 860,-9 1166,-9 1166,-3 860,-3"/>
<polygon fill="none" stroke="black" points="860,-3 860,-9 1166,-9 1166,-3 860,-3"/>
<polygon fill="none" stroke="black" points="857,0 857,-38 1169,-38 1169,0 857,0"/>
</g>
<!-- building&#45;internet&#45;services&#45;&gt;reduced&#45;operating&#45;costs -->
<g id="edge20" class="edge">
<title>building&#45;internet&#45;services&#45;&gt;reduced&#45;operating&#45;costs</title>
<path fill="none" stroke="black" d="M804.79,-73.92C843.87,-63.8 892.75,-51.14 933.32,-40.64"/>
<polygon fill="black" stroke="black" points="934.38,-43.98 943.18,-38.08 932.62,-37.2 934.38,-43.98"/>
</g>
<!-- reduced&#45;vulnerabilities -->
<g id="node25" class="node">
<title>reduced&#45;vulnerabilities</title>
<polygon fill="darkgoldenrod" stroke="transparent" points="388,-11 388,-35 745,-35 745,-11 388,-11"/>
<polygon fill="none" stroke="black" points="388,-11 388,-35 745,-35 745,-11 388,-11"/>
<text text-anchor="start" x="392" y="-19.2" font-family="Times,serif" font-size="16.00">Reduced rate of vulnerabilities and high priority errors</text>
<polygon fill="#ffb90f" stroke="transparent" points="388,-3 388,-9 745,-9 745,-3 388,-3"/>
<polygon fill="none" stroke="black" points="388,-3 388,-9 745,-9 745,-3 388,-3"/>
<polygon fill="none" stroke="black" points="384.5,0 384.5,-38 747.5,-38 747.5,0 384.5,0"/>
</g>
<!-- building&#45;internet&#45;services&#45;&gt;reduced&#45;vulnerabilities -->
<g id="edge27" class="edge">
<title>building&#45;internet&#45;services&#45;&gt;reduced&#45;vulnerabilities</title>
<path fill="none" stroke="black" d="M692.35,-73.83C669.65,-64.16 641.55,-52.19 617.63,-41.99"/>
<polygon fill="black" stroke="black" points="618.91,-38.74 608.34,-38.04 616.17,-45.18 618.91,-38.74"/>
</g>
<!-- well&#45;integrated&#45;into&#45;internet&#45;services&#45;&gt;using&#45;internet&#45;services -->
<g id="edge18" class="edge">
<title>well&#45;integrated&#45;into&#45;internet&#45;services&#45;&gt;using&#45;internet&#45;services</title>
<path fill="none" stroke="black" d="M1150.31,-147.86C1148.67,-139.26 1146.96,-130.34 1145.42,-122.3"/>
<polygon fill="black" stroke="black" points="1148.83,-121.49 1143.51,-112.32 1141.95,-122.8 1148.83,-121.49"/>
</g>
<!-- using&#45;internet&#45;services&#45;&gt;reduced&#45;operating&#45;costs -->
<g id="edge19" class="edge">
<title>using&#45;internet&#45;services&#45;&gt;reduced&#45;operating&#45;costs</title>
<path fill="none" stroke="black" d="M1107.95,-73.83C1091.56,-64.54 1071.42,-53.12 1053.92,-43.2"/>
<polygon fill="black" stroke="black" points="1055.46,-40.05 1045.04,-38.16 1052.01,-46.14 1055.46,-40.05"/>
</g>
<!-- ucg -->
<g id="node21" class="node">
<title>ucg</title>
<polygon fill="darkgoldenrod" stroke="transparent" points="269,-338 269,-362 422,-362 422,-338 269,-338"/>
<polygon fill="none" stroke="black" points="269,-338 269,-362 422,-362 422,-338 269,-338"/>
<text text-anchor="start" x="273" y="-346.2" font-family="Times,serif" font-size="16.00">unsafe code guidelines</text>
<polygon fill="#ffb90f" stroke="transparent" points="269,-330 269,-336 422,-336 422,-330 269,-330"/>
<polygon fill="none" stroke="black" points="269,-330 269,-336 422,-336 422,-330 269,-330"/>
<polygon fill="none" stroke="black" points="265.5,-327 265.5,-365 424.5,-365 424.5,-327 265.5,-327"/>
</g>
<!-- patina&#45;&gt;ucg -->
<g id="edge22" class="edge">
<title>patina&#45;&gt;ucg</title>
<path fill="none" stroke="black" d="M143.92,-549C182.74,-510 274.71,-417.61 319.54,-372.57"/>
<polygon fill="black" stroke="black" points="322.26,-374.81 326.83,-365.25 317.3,-369.87 322.26,-374.81"/>
</g>
<!-- formal&#45;methods&#45;tooling -->
<g id="node22" class="node">
<title>formal&#45;methods&#45;tooling</title>
<polygon fill="darkgoldenrod" stroke="transparent" points="46,-338 46,-362 206,-362 206,-338 46,-338"/>
<polygon fill="none" stroke="black" points="46,-338 46,-362 206,-362 206,-338 46,-338"/>
<text text-anchor="start" x="50" y="-346.2" font-family="Times,serif" font-size="16.00">formal methods tooling</text>
<polygon fill="#ffb90f" stroke="transparent" points="46,-330 46,-336 206,-336 206,-330 46,-330"/>
<polygon fill="none" stroke="black" points="46,-330 46,-336 206,-336 206,-330 46,-330"/>
<polygon fill="none" stroke="black" points="43,-327 43,-365 209,-365 209,-327 43,-327"/>
</g>
<!-- patina&#45;&gt;formal&#45;methods&#45;tooling -->
<g id="edge23" class="edge">
<title>patina&#45;&gt;formal&#45;methods&#45;tooling</title>
<path fill="none" stroke="black" d="M126,-549C126,-510.8 126,-421.41 126,-375.43"/>
<polygon fill="black" stroke="black" points="129.5,-375.25 126,-365.25 122.5,-375.25 129.5,-375.25"/>
</g>
<!-- crabcake -->
<g id="node23" class="node">
<title>crabcake</title>
<polygon fill="darkgoldenrod" stroke="transparent" points="251,-181 251,-205 476,-205 476,-181 251,-181"/>
<polygon fill="none" stroke="black" points="251,-181 251,-205 476,-205 476,-181 251,-181"/>
<text text-anchor="start" x="255" y="-189.2" font-family="Times,serif" font-size="16.00">crabcake: dynamic validation tool</text>
<polygon fill="#ffb90f" stroke="transparent" points="251,-173 251,-179 476,-179 476,-173 251,-173"/>
<polygon fill="none" stroke="black" points="251,-173 251,-179 476,-179 476,-173 251,-173"/>
<polygon fill="none" stroke="black" points="247.5,-170 247.5,-208 478.5,-208 478.5,-170 247.5,-170"/>
</g>
<!-- ucg&#45;&gt;crabcake -->
<g id="edge24" class="edge">
<title>ucg&#45;&gt;crabcake</title>
<path fill="none" stroke="black" d="M347.1,-326.92C350.2,-300.23 356.03,-250.04 359.7,-218.41"/>
<polygon fill="black" stroke="black" points="363.18,-218.79 360.86,-208.45 356.23,-217.98 363.18,-218.79"/>
</g>
<!-- crates&#45;io&#45;validation -->
<g id="node24" class="node">
<title>crates&#45;io&#45;validation</title>
<polygon fill="darkgoldenrod" stroke="transparent" points="370,-85 370,-109 499,-109 499,-85 370,-85"/>
<polygon fill="none" stroke="black" points="370,-85 370,-109 499,-109 499,-85 370,-85"/>
<text text-anchor="start" x="374" y="-93.2" font-family="Times,serif" font-size="16.00">crates.io validation</text>
<polygon fill="#ffb90f" stroke="transparent" points="370,-77 370,-83 499,-83 499,-77 370,-77"/>
<polygon fill="none" stroke="black" points="370,-77 370,-83 499,-83 499,-77 370,-77"/>
<polygon fill="none" stroke="black" points="366.5,-74 366.5,-112 501.5,-112 501.5,-74 366.5,-74"/>
</g>
<!-- crabcake&#45;&gt;crates&#45;io&#45;validation -->
<g id="edge25" class="edge">
<title>crabcake&#45;&gt;crates&#45;io&#45;validation</title>
<path fill="none" stroke="black" d="M376.69,-169.88C387.3,-155.83 402.15,-136.17 414.07,-120.38"/>
<polygon fill="black" stroke="black" points="417.12,-122.16 420.35,-112.07 411.53,-117.94 417.12,-122.16"/>
</g>
<!-- crates&#45;io&#45;validation&#45;&gt;reduced&#45;vulnerabilities -->
<g id="edge26" class="edge">
<title>crates&#45;io&#45;validation&#45;&gt;reduced&#45;vulnerabilities</title>
<path fill="none" stroke="black" d="M467.31,-73.83C484.43,-64.49 505.47,-53.02 523.72,-43.06"/>
<polygon fill="black" stroke="black" points="525.6,-46.02 532.7,-38.16 522.25,-39.88 525.6,-46.02"/>
</g>
</g>
</svg>
