<?xml version="1.0" encoding="UTF-8" standalone="no"?>
<!DOCTYPE svg PUBLIC "-//W3C//DTD SVG 1.1//EN"
 "http://www.w3.org/Graphics/SVG/1.1/DTD/svg11.dtd">
<!-- Generated by graphviz version 2.43.0 (0)
 -->
<!-- Title: g Pages: 1 -->
<svg width="1601pt" height="1256pt"
 viewBox="0.00 0.00 1601.00 1256.00" xmlns="http://www.w3.org/2000/svg" xmlns:xlink="http://www.w3.org/1999/xlink">
<g id="graph0" class="graph" transform="scale(1 1) rotate(0) translate(4 1252)">
<title>g</title>
<polygon fill="white" stroke="transparent" points="-4,4 -4,-1252 1597,-1252 1597,4 -4,4"/>
<!-- fundamentals -->
<g id="node1" class="node">
<title>fundamentals</title>
<polygon fill="darkgoldenrod" stroke="transparent" points="716.5,-1221 716.5,-1245 1106.5,-1245 1106.5,-1221 716.5,-1221"/>
<polygon fill="none" stroke="black" points="716.5,-1221 716.5,-1245 1106.5,-1245 1106.5,-1221 716.5,-1221"/>
<text text-anchor="start" x="833.5" y="-1229.2" font-family="Times,serif" font-size="16.00">Rust fundamentals</text>
<polygon fill="#ffb90f" stroke="transparent" points="716.5,-1195 716.5,-1219 1106.5,-1219 1106.5,-1195 716.5,-1195"/>
<polygon fill="none" stroke="black" points="716.5,-1195 716.5,-1219 1106.5,-1219 1106.5,-1195 716.5,-1195"/>
<text text-anchor="start" x="769.5" y="-1203.2" font-family="Times,serif" font-size="16.00">Easy to contribute to the compiler</text>
<polygon fill="#ffb90f" stroke="transparent" points="716.5,-1169 716.5,-1193 1106.5,-1193 1106.5,-1169 716.5,-1169"/>
<polygon fill="none" stroke="black" points="716.5,-1169 716.5,-1193 1106.5,-1193 1106.5,-1169 716.5,-1169"/>
<text text-anchor="start" x="757.5" y="-1177.2" font-family="Times,serif" font-size="16.00">Language semantics well understood</text>
<polygon fill="#ffb90f" stroke="transparent" points="716.5,-1143 716.5,-1167 1106.5,-1167 1106.5,-1143 716.5,-1143"/>
<polygon fill="none" stroke="black" points="716.5,-1143 716.5,-1167 1106.5,-1167 1106.5,-1143 716.5,-1143"/>
<text text-anchor="start" x="720.5" y="-1151.2" font-family="Times,serif" font-size="16.00">Extending language possible by mere humans</text>
<polygon fill="cornsilk" stroke="transparent" points="716.5,-1117 716.5,-1141 771.5,-1141 771.5,-1117 716.5,-1117"/>
<polygon fill="none" stroke="black" points="716.5,-1117 716.5,-1141 771.5,-1141 771.5,-1117 716.5,-1117"/>
<polygon fill="cornsilk" stroke="transparent" points="773.5,-1117 773.5,-1141 1106.5,-1141 1106.5,-1117 773.5,-1117"/>
<polygon fill="none" stroke="black" points="773.5,-1117 773.5,-1141 1106.5,-1141 1106.5,-1117 773.5,-1117"/>
<text text-anchor="start" x="836" y="-1125.2" font-family="Times,serif" font-size="16.00">Compiler library&#45;ification</text>
<polygon fill="cornsilk" stroke="transparent" points="716.5,-1091 716.5,-1115 771.5,-1115 771.5,-1091 716.5,-1091"/>
<polygon fill="none" stroke="black" points="716.5,-1091 716.5,-1115 771.5,-1115 771.5,-1091 716.5,-1091"/>
<polygon fill="cornsilk" stroke="transparent" points="773.5,-1091 773.5,-1115 1106.5,-1115 1106.5,-1091 773.5,-1091"/>
<polygon fill="none" stroke="black" points="773.5,-1091 773.5,-1115 1106.5,-1115 1106.5,-1091 773.5,-1091"/>
<text text-anchor="start" x="801.5" y="-1099.2" font-family="Times,serif" font-size="16.00">Core Rust semantics documented</text>
<polygon fill="cornsilk" stroke="transparent" points="716.5,-1065 716.5,-1089 771.5,-1089 771.5,-1065 716.5,-1065"/>
<polygon fill="none" stroke="black" points="716.5,-1065 716.5,-1089 771.5,-1089 771.5,-1065 716.5,-1065"/>
<polygon fill="cornsilk" stroke="transparent" points="773.5,-1065 773.5,-1089 1106.5,-1089 1106.5,-1065 773.5,-1065"/>
<polygon fill="none" stroke="black" points="773.5,-1065 773.5,-1089 1106.5,-1089 1106.5,-1065 773.5,-1065"/>
<text text-anchor="start" x="861.5" y="-1073.2" font-family="Times,serif" font-size="16.00">Proof of soundness</text>
<polygon fill="cornsilk" stroke="transparent" points="716.5,-1039 716.5,-1063 771.5,-1063 771.5,-1039 716.5,-1039"/>
<polygon fill="none" stroke="black" points="716.5,-1039 716.5,-1063 771.5,-1063 771.5,-1039 716.5,-1039"/>
<polygon fill="cornsilk" stroke="transparent" points="773.5,-1039 773.5,-1063 1106.5,-1063 1106.5,-1039 773.5,-1039"/>
<polygon fill="none" stroke="black" points="773.5,-1039 773.5,-1063 1106.5,-1063 1106.5,-1039 773.5,-1039"/>
<text text-anchor="start" x="843.5" y="-1047.2" font-family="Times,serif" font-size="16.00">Unsafe code guidelines</text>
<polygon fill="none" stroke="black" points="713.5,-1036 713.5,-1248 1109.5,-1248 1109.5,-1036 713.5,-1036"/>
</g>
<!-- core&#45;lang -->
<g id="node2" class="node">
<title>core&#45;lang</title>
<polygon fill="darkgoldenrod" stroke="transparent" points="107.5,-973 107.5,-997 599.5,-997 599.5,-973 107.5,-973"/>
<polygon fill="none" stroke="black" points="107.5,-973 107.5,-997 599.5,-997 599.5,-973 107.5,-973"/>
<text text-anchor="start" x="231.5" y="-981.2" font-family="Times,serif" font-size="16.00">Core language improvements</text>
<polygon fill="#ffb90f" stroke="transparent" points="107.5,-947 107.5,-971 599.5,-971 599.5,-947 107.5,-947"/>
<polygon fill="none" stroke="black" points="107.5,-947 107.5,-971 599.5,-971 599.5,-947 107.5,-947"/>
<text text-anchor="start" x="211.5" y="-955.2" font-family="Times,serif" font-size="16.00">Easy to contribute to the compiler</text>
<polygon fill="cornsilk" stroke="transparent" points="107.5,-921 107.5,-945 113.5,-945 113.5,-921 107.5,-921"/>
<polygon fill="none" stroke="black" points="107.5,-921 107.5,-945 113.5,-945 113.5,-921 107.5,-921"/>
<polygon fill="cornsilk" stroke="transparent" points="115.5,-921 115.5,-945 599.5,-945 599.5,-921 115.5,-921"/>
<polygon fill="none" stroke="black" points="115.5,-921 115.5,-945 599.5,-945 599.5,-921 115.5,-921"/>
<text text-anchor="start" x="118.5" y="-929.2" font-family="Times,serif" font-size="16.00">Dynamic dispatch (dyn trait) more powerful, easier to use</text>
<polygon fill="cornsilk" stroke="transparent" points="107.5,-895 107.5,-919 113.5,-919 113.5,-895 107.5,-895"/>
<polygon fill="none" stroke="black" points="107.5,-895 107.5,-919 113.5,-919 113.5,-895 107.5,-895"/>
<polygon fill="cornsilk" stroke="transparent" points="115.5,-895 115.5,-919 599.5,-919 599.5,-895 115.5,-895"/>
<polygon fill="none" stroke="black" points="115.5,-895 115.5,-919 599.5,-919 599.5,-895 115.5,-895"/>
<text text-anchor="start" x="299" y="-903.2" font-family="Times,serif" font-size="16.00">Specialization</text>
<polygon fill="cornsilk" stroke="transparent" points="107.5,-869 107.5,-893 113.5,-893 113.5,-869 107.5,-869"/>
<polygon fill="none" stroke="black" points="107.5,-869 107.5,-893 113.5,-893 113.5,-869 107.5,-869"/>
<polygon fill="cornsilk" stroke="transparent" points="115.5,-869 115.5,-893 599.5,-893 599.5,-869 115.5,-869"/>
<polygon fill="none" stroke="black" points="115.5,-869 115.5,-893 599.5,-893 599.5,-869 115.5,-869"/>
<text text-anchor="start" x="293.5" y="-877.2" font-family="Times,serif" font-size="16.00">Implied bounds</text>
<polygon fill="cornsilk" stroke="transparent" points="107.5,-843 107.5,-867 113.5,-867 113.5,-843 107.5,-843"/>
<polygon fill="none" stroke="black" points="107.5,-843 107.5,-867 113.5,-867 113.5,-843 107.5,-843"/>
<polygon fill="cornsilk" stroke="transparent" points="115.5,-843 115.5,-867 599.5,-867 599.5,-843 115.5,-843"/>
<polygon fill="none" stroke="black" points="115.5,-843 115.5,-867 599.5,-867 599.5,-843 115.5,-843"/>
<text text-anchor="start" x="225" y="-851.2" font-family="Times,serif" font-size="16.00">Generic associated types (GATs)</text>
<polygon fill="cornsilk" stroke="transparent" points="107.5,-817 107.5,-841 113.5,-841 113.5,-817 107.5,-817"/>
<polygon fill="none" stroke="black" points="107.5,-817 107.5,-841 113.5,-841 113.5,-817 107.5,-817"/>
<polygon fill="cornsilk" stroke="transparent" points="115.5,-817 115.5,-841 599.5,-841 599.5,-817 115.5,-817"/>
<polygon fill="none" stroke="black" points="115.5,-817 115.5,-841 599.5,-841 599.5,-817 115.5,-817"/>
<text text-anchor="start" x="318" y="-825.2" font-family="Times,serif" font-size="16.00">Impl trait</text>
<polygon fill="cornsilk" stroke="transparent" points="107.5,-791 107.5,-815 113.5,-815 113.5,-791 107.5,-791"/>
<polygon fill="none" stroke="black" points="107.5,-791 107.5,-815 113.5,-815 113.5,-791 107.5,-791"/>
<polygon fill="cornsilk" stroke="transparent" points="115.5,-791 115.5,-815 599.5,-815 599.5,-791 115.5,-791"/>
<polygon fill="none" stroke="black" points="115.5,-791 115.5,-815 599.5,-815 599.5,-791 115.5,-791"/>
<text text-anchor="start" x="227.5" y="-799.2" font-family="Times,serif" font-size="16.00">Threaded contexts, capabilities</text>
<polygon fill="none" stroke="black" points="104.5,-788 104.5,-1000 602.5,-1000 602.5,-788 104.5,-788"/>
</g>
<!-- fundamentals&#45;&gt;core&#45;lang -->
<g id="edge1" class="edge">
<title>fundamentals&#45;&gt;core&#45;lang</title>
<path fill="none" stroke="black" d="M713.2,-1053.58C676.96,-1037.6 638.73,-1020.75 601.26,-1004.23"/>
<polygon fill="black" stroke="black" points="602.31,-1000.87 591.75,-1000.04 599.49,-1007.27 602.31,-1000.87"/>
</g>
<!-- dev&#45;tooling -->
<g id="node5" class="node">
<title>dev&#45;tooling</title>
<polygon fill="darkgoldenrod" stroke="transparent" points="648.5,-960 648.5,-984 1174.5,-984 1174.5,-960 648.5,-960"/>
<polygon fill="none" stroke="black" points="648.5,-960 648.5,-984 1174.5,-984 1174.5,-960 648.5,-960"/>
<text text-anchor="start" x="837.5" y="-968.2" font-family="Times,serif" font-size="16.00">Developer tooling</text>
<polygon fill="#ffb90f" stroke="transparent" points="648.5,-934 648.5,-958 1174.5,-958 1174.5,-934 648.5,-934"/>
<polygon fill="none" stroke="black" points="648.5,-934 648.5,-958 1174.5,-958 1174.5,-934 648.5,-934"/>
<text text-anchor="start" x="657" y="-942.2" font-family="Times,serif" font-size="16.00">Able to fix correctness problems in development environment</text>
<polygon fill="#ffb90f" stroke="transparent" points="648.5,-908 648.5,-932 1174.5,-932 1174.5,-908 648.5,-908"/>
<polygon fill="none" stroke="black" points="648.5,-908 648.5,-932 1174.5,-932 1174.5,-908 648.5,-908"/>
<text text-anchor="start" x="652.5" y="-916.2" font-family="Times,serif" font-size="16.00">Able to fix performance problems in development environment</text>
<polygon fill="cornsilk" stroke="transparent" points="648.5,-882 648.5,-906 711.5,-906 711.5,-882 648.5,-882"/>
<polygon fill="none" stroke="black" points="648.5,-882 648.5,-906 711.5,-906 711.5,-882 648.5,-882"/>
<polygon fill="cornsilk" stroke="transparent" points="713.5,-882 713.5,-906 1174.5,-906 1174.5,-882 713.5,-882"/>
<polygon fill="none" stroke="black" points="713.5,-882 713.5,-906 1174.5,-906 1174.5,-882 713.5,-882"/>
<text text-anchor="start" x="850.5" y="-890.2" font-family="Times,serif" font-size="16.00">Quality Rust debugger</text>
<polygon fill="cornsilk" stroke="transparent" points="648.5,-856 648.5,-880 711.5,-880 711.5,-856 648.5,-856"/>
<polygon fill="none" stroke="black" points="648.5,-856 648.5,-880 711.5,-880 711.5,-856 648.5,-856"/>
<polygon fill="cornsilk" stroke="transparent" points="713.5,-856 713.5,-880 1174.5,-880 1174.5,-856 713.5,-856"/>
<polygon fill="none" stroke="black" points="713.5,-856 713.5,-880 1174.5,-880 1174.5,-856 713.5,-856"/>
<text text-anchor="start" x="781.5" y="-864.2" font-family="Times,serif" font-size="16.00">Rust well integrated into common IDEs</text>
<polygon fill="cornsilk" stroke="transparent" points="648.5,-830 648.5,-854 711.5,-854 711.5,-830 648.5,-830"/>
<polygon fill="none" stroke="black" points="648.5,-830 648.5,-854 711.5,-854 711.5,-830 648.5,-830"/>
<polygon fill="cornsilk" stroke="transparent" points="713.5,-830 713.5,-854 1174.5,-854 1174.5,-830 713.5,-830"/>
<polygon fill="none" stroke="black" points="713.5,-830 713.5,-854 1174.5,-854 1174.5,-830 713.5,-830"/>
<text text-anchor="start" x="745" y="-838.2" font-family="Times,serif" font-size="16.00">Async runtime observability (e.g., tokio console)</text>
<polygon fill="cornsilk" stroke="transparent" points="648.5,-804 648.5,-828 711.5,-828 711.5,-804 648.5,-804"/>
<polygon fill="none" stroke="black" points="648.5,-804 648.5,-828 711.5,-828 711.5,-804 648.5,-804"/>
<polygon fill="cornsilk" stroke="transparent" points="713.5,-804 713.5,-828 1174.5,-828 1174.5,-804 713.5,-804"/>
<polygon fill="none" stroke="black" points="713.5,-804 713.5,-828 1174.5,-828 1174.5,-804 713.5,-804"/>
<text text-anchor="start" x="793.5" y="-812.2" font-family="Times,serif" font-size="16.00">Profilers for CPU and memory usage</text>
<polygon fill="none" stroke="black" points="645.5,-801 645.5,-987 1177.5,-987 1177.5,-801 645.5,-801"/>
</g>
<!-- fundamentals&#45;&gt;dev&#45;tooling -->
<g id="edge5" class="edge">
<title>fundamentals&#45;&gt;dev&#45;tooling</title>
<path fill="none" stroke="black" d="M911.5,-1035.96C911.5,-1023.18 911.5,-1010.14 911.5,-997.4"/>
<polygon fill="black" stroke="black" points="915,-997.26 911.5,-987.26 908,-997.26 915,-997.26"/>
</g>
<!-- high&#45;assurance -->
<g id="node11" class="node">
<title>high&#45;assurance</title>
<polygon fill="darkgoldenrod" stroke="transparent" points="921.5,-425 921.5,-449 1590.5,-449 1590.5,-425 921.5,-425"/>
<polygon fill="none" stroke="black" points="921.5,-425 921.5,-449 1590.5,-449 1590.5,-425 921.5,-425"/>
<text text-anchor="start" x="1170" y="-433.2" font-family="Times,serif" font-size="16.00">High assurance Rust</text>
<polygon fill="#ffb90f" stroke="transparent" points="921.5,-399 921.5,-423 1590.5,-423 1590.5,-399 921.5,-399"/>
<polygon fill="none" stroke="black" points="921.5,-399 921.5,-423 1590.5,-423 1590.5,-399 921.5,-399"/>
<text text-anchor="start" x="925.5" y="-407.2" font-family="Times,serif" font-size="16.00">Developers extending Rust with unsafe Rust can prove these extensions correct</text>
<polygon fill="#ffb90f" stroke="transparent" points="921.5,-373 921.5,-397 1590.5,-397 1590.5,-373 921.5,-373"/>
<polygon fill="none" stroke="black" points="921.5,-373 921.5,-397 1590.5,-397 1590.5,-373 921.5,-373"/>
<text text-anchor="start" x="970" y="-381.2" font-family="Times,serif" font-size="16.00">Developers can prove their Rust code meets functional specifications</text>
<polygon fill="#ffb90f" stroke="transparent" points="921.5,-347 921.5,-371 1590.5,-371 1590.5,-347 921.5,-347"/>
<polygon fill="none" stroke="black" points="921.5,-347 921.5,-371 1590.5,-371 1590.5,-347 921.5,-347"/>
<text text-anchor="start" x="1018.5" y="-355.2" font-family="Times,serif" font-size="16.00">Developers can prove their Rust code meets specification</text>
<polygon fill="cornsilk" stroke="transparent" points="921.5,-321 921.5,-345 1073.5,-345 1073.5,-321 921.5,-321"/>
<polygon fill="none" stroke="black" points="921.5,-321 921.5,-345 1073.5,-345 1073.5,-321 921.5,-321"/>
<polygon fill="cornsilk" stroke="transparent" points="1075.5,-321 1075.5,-345 1590.5,-345 1590.5,-321 1075.5,-321"/>
<polygon fill="none" stroke="black" points="1075.5,-321 1075.5,-345 1590.5,-345 1590.5,-321 1075.5,-321"/>
<text text-anchor="start" x="1151.5" y="-329.2" font-family="Times,serif" font-size="16.00">Sanitizer / dynamic checker for unsafe code</text>
<polygon fill="cornsilk" stroke="transparent" points="921.5,-295 921.5,-319 1073.5,-319 1073.5,-295 921.5,-295"/>
<polygon fill="none" stroke="black" points="921.5,-295 921.5,-319 1073.5,-319 1073.5,-295 921.5,-295"/>
<polygon fill="cornsilk" stroke="transparent" points="1075.5,-295 1075.5,-319 1590.5,-319 1590.5,-295 1075.5,-295"/>
<polygon fill="none" stroke="black" points="1075.5,-295 1075.5,-319 1590.5,-319 1590.5,-295 1075.5,-295"/>
<text text-anchor="start" x="1214" y="-303.2" font-family="Times,serif" font-size="16.00">Model checker for Rust code</text>
<polygon fill="cornsilk" stroke="transparent" points="921.5,-269 921.5,-293 1073.5,-293 1073.5,-269 921.5,-269"/>
<polygon fill="none" stroke="black" points="921.5,-269 921.5,-293 1073.5,-293 1073.5,-269 921.5,-269"/>
<polygon fill="cornsilk" stroke="transparent" points="1075.5,-269 1075.5,-293 1590.5,-293 1590.5,-269 1075.5,-269"/>
<polygon fill="none" stroke="black" points="1075.5,-269 1075.5,-293 1590.5,-293 1590.5,-269 1075.5,-269"/>
<text text-anchor="start" x="1206.5" y="-277.2" font-family="Times,serif" font-size="16.00">Packages on crates.io checked</text>
<polygon fill="none" stroke="black" points="918,-266 918,-452 1593,-452 1593,-266 918,-266"/>
</g>
<!-- fundamentals&#45;&gt;high&#45;assurance -->
<g id="edge13" class="edge">
<title>fundamentals&#45;&gt;high&#45;assurance</title>
<path fill="none" stroke="black" d="M1109.53,-1065.08C1138.36,-1047.22 1165.38,-1025.7 1186.5,-1000 1311.88,-847.44 1297.05,-600.57 1275.83,-462.26"/>
<polygon fill="black" stroke="black" points="1279.24,-461.42 1274.23,-452.09 1272.33,-462.51 1279.24,-461.42"/>
</g>
<!-- async&#45;lang -->
<g id="node3" class="node">
<title>async&#45;lang</title>
<polygon fill="darkgoldenrod" stroke="transparent" points="43.5,-725 43.5,-749 613.5,-749 613.5,-725 43.5,-725"/>
<polygon fill="none" stroke="black" points="43.5,-725 43.5,-749 613.5,-749 613.5,-725 43.5,-725"/>
<text text-anchor="start" x="257.5" y="-733.2" font-family="Times,serif" font-size="16.00">Async I/O in Rust</text>
<polygon fill="#ffb90f" stroke="transparent" points="43.5,-699 43.5,-723 613.5,-723 613.5,-699 43.5,-699"/>
<polygon fill="none" stroke="black" points="43.5,-699 43.5,-723 613.5,-723 613.5,-699 43.5,-699"/>
<text text-anchor="start" x="106" y="-707.2" font-family="Times,serif" font-size="16.00">Using Async I/O comparable in complexity to Sync I/O</text>
<polygon fill="#ffb90f" stroke="transparent" points="43.5,-673 43.5,-697 613.5,-697 613.5,-673 43.5,-673"/>
<polygon fill="none" stroke="black" points="43.5,-673 43.5,-697 613.5,-697 613.5,-673 43.5,-673"/>
<text text-anchor="start" x="47.5" y="-681.2" font-family="Times,serif" font-size="16.00">Can author and use async libraries without thinking about runtimes</text>
<polygon fill="#ffb90f" stroke="transparent" points="43.5,-647 43.5,-671 613.5,-671 613.5,-647 43.5,-647"/>
<polygon fill="none" stroke="black" points="43.5,-647 43.5,-671 613.5,-671 613.5,-647 43.5,-647"/>
<text text-anchor="start" x="102.5" y="-655.2" font-family="Times,serif" font-size="16.00">Access to a wide variety of useful libraries on crates.io</text>
<polygon fill="#ffb90f" stroke="transparent" points="43.5,-621 43.5,-645 613.5,-645 613.5,-621 43.5,-621"/>
<polygon fill="none" stroke="black" points="43.5,-621 43.5,-645 613.5,-645 613.5,-621 43.5,-621"/>
<text text-anchor="start" x="89.5" y="-629.2" font-family="Times,serif" font-size="16.00">Easy to create and experiment with a specialized runtime</text>
<polygon fill="#ffb90f" stroke="transparent" points="43.5,-595 43.5,-619 613.5,-619 613.5,-595 43.5,-595"/>
<polygon fill="none" stroke="black" points="43.5,-595 43.5,-619 613.5,-619 613.5,-595 43.5,-595"/>
<text text-anchor="start" x="65.5" y="-603.2" font-family="Times,serif" font-size="16.00">Full support for io&#45;uring and other high performance primitives</text>
<polygon fill="cornsilk" stroke="transparent" points="43.5,-569 43.5,-593 128.5,-593 128.5,-569 43.5,-569"/>
<polygon fill="none" stroke="black" points="43.5,-569 43.5,-593 128.5,-593 128.5,-569 43.5,-569"/>
<polygon fill="cornsilk" stroke="transparent" points="130.5,-569 130.5,-593 613.5,-593 613.5,-569 130.5,-569"/>
<polygon fill="none" stroke="black" points="130.5,-569 130.5,-593 613.5,-593 613.5,-569 130.5,-569"/>
<text text-anchor="start" x="251.5" y="-577.2" font-family="Times,serif" font-size="16.00">Can use async fn everywhere</text>
<polygon fill="cornsilk" stroke="transparent" points="43.5,-543 43.5,-567 128.5,-567 128.5,-543 43.5,-543"/>
<polygon fill="none" stroke="black" points="43.5,-543 43.5,-567 128.5,-567 128.5,-543 43.5,-543"/>
<polygon fill="cornsilk" stroke="transparent" points="130.5,-543 130.5,-567 613.5,-567 613.5,-543 130.5,-543"/>
<polygon fill="none" stroke="black" points="130.5,-543 130.5,-567 613.5,-567 613.5,-543 130.5,-543"/>
<text text-anchor="start" x="173.5" y="-551.2" font-family="Times,serif" font-size="16.00">Async resource cleanup works well (async drop)</text>
<polygon fill="cornsilk" stroke="transparent" points="43.5,-517 43.5,-541 128.5,-541 128.5,-517 43.5,-517"/>
<polygon fill="none" stroke="black" points="43.5,-517 43.5,-541 128.5,-541 128.5,-517 43.5,-517"/>
<polygon fill="cornsilk" stroke="transparent" points="130.5,-517 130.5,-541 613.5,-541 613.5,-517 130.5,-517"/>
<polygon fill="none" stroke="black" points="130.5,-517 130.5,-541 613.5,-541 613.5,-517 130.5,-517"/>
<text text-anchor="start" x="208" y="-525.2" font-family="Times,serif" font-size="16.00">Easy interoperability between runtimes</text>
<polygon fill="cornsilk" stroke="transparent" points="43.5,-491 43.5,-515 128.5,-515 128.5,-491 43.5,-491"/>
<polygon fill="none" stroke="black" points="43.5,-491 43.5,-515 128.5,-515 128.5,-491 43.5,-491"/>
<polygon fill="cornsilk" stroke="transparent" points="130.5,-491 130.5,-515 613.5,-515 613.5,-491 130.5,-491"/>
<polygon fill="none" stroke="black" points="130.5,-491 130.5,-515 613.5,-515 613.5,-491 130.5,-491"/>
<text text-anchor="start" x="198.5" y="-499.2" font-family="Times,serif" font-size="16.00">I/O Uring support in tokio, other runtimes</text>
<polygon fill="none" stroke="black" points="40.5,-488 40.5,-752 616.5,-752 616.5,-488 40.5,-488"/>
</g>
<!-- core&#45;lang&#45;&gt;async&#45;lang -->
<g id="edge2" class="edge">
<title>core&#45;lang&#45;&gt;async&#45;lang</title>
<path fill="none" stroke="black" d="M343.83,-787.84C343.06,-779.46 342.28,-770.91 341.49,-762.34"/>
<polygon fill="black" stroke="black" points="344.97,-761.9 340.56,-752.27 337.99,-762.54 344.97,-761.9"/>
</g>
<!-- onboarding&#45;time -->
<g id="node4" class="node">
<title>onboarding&#45;time</title>
<polygon fill="darkgoldenrod" stroke="transparent" points="412.5,-425 412.5,-449 877.5,-449 877.5,-425 412.5,-425"/>
<polygon fill="none" stroke="black" points="412.5,-425 412.5,-449 877.5,-449 877.5,-425 412.5,-425"/>
<text text-anchor="start" x="488" y="-433.2" font-family="Times,serif" font-size="16.00">Smooth onboarding of Rust engineers</text>
<polygon fill="#ffb90f" stroke="transparent" points="412.5,-399 412.5,-423 877.5,-423 877.5,-399 412.5,-399"/>
<polygon fill="none" stroke="black" points="412.5,-399 412.5,-423 877.5,-423 877.5,-399 412.5,-399"/>
<text text-anchor="start" x="430" y="-407.2" font-family="Times,serif" font-size="16.00">Time to be highly productive is measured in months</text>
<polygon fill="#ffb90f" stroke="transparent" points="412.5,-373 412.5,-397 877.5,-397 877.5,-373 412.5,-373"/>
<polygon fill="none" stroke="black" points="412.5,-373 412.5,-397 877.5,-397 877.5,-373 412.5,-373"/>
<text text-anchor="start" x="416.5" y="-381.2" font-family="Times,serif" font-size="16.00">Well understood transition paths from major languages</text>
<polygon fill="cornsilk" stroke="transparent" points="412.5,-347 412.5,-371 502.5,-371 502.5,-347 412.5,-347"/>
<polygon fill="none" stroke="black" points="412.5,-347 412.5,-371 502.5,-371 502.5,-347 412.5,-347"/>
<polygon fill="cornsilk" stroke="transparent" points="504.5,-347 504.5,-371 877.5,-371 877.5,-347 504.5,-347"/>
<polygon fill="none" stroke="black" points="504.5,-347 504.5,-371 877.5,-371 877.5,-347 504.5,-347"/>
<text text-anchor="start" x="570.5" y="-355.2" font-family="Times,serif" font-size="16.00">Can use async fn everywhere</text>
<polygon fill="cornsilk" stroke="transparent" points="412.5,-321 412.5,-345 502.5,-345 502.5,-321 412.5,-321"/>
<polygon fill="none" stroke="black" points="412.5,-321 412.5,-345 502.5,-345 502.5,-321 412.5,-321"/>
<polygon fill="cornsilk" stroke="transparent" points="504.5,-321 504.5,-345 877.5,-345 877.5,-321 504.5,-321"/>
<polygon fill="none" stroke="black" points="504.5,-321 504.5,-345 877.5,-345 877.5,-321 504.5,-321"/>
<text text-anchor="start" x="609" y="-329.2" font-family="Times,serif" font-size="16.00">Java transition path</text>
<polygon fill="cornsilk" stroke="transparent" points="412.5,-295 412.5,-319 502.5,-319 502.5,-295 412.5,-295"/>
<polygon fill="none" stroke="black" points="412.5,-295 412.5,-319 502.5,-319 502.5,-295 412.5,-295"/>
<polygon fill="cornsilk" stroke="transparent" points="504.5,-295 504.5,-319 877.5,-319 877.5,-295 504.5,-295"/>
<polygon fill="none" stroke="black" points="504.5,-295 504.5,-319 877.5,-319 877.5,-295 504.5,-295"/>
<text text-anchor="start" x="607" y="-303.2" font-family="Times,serif" font-size="16.00">C++ transition path</text>
<polygon fill="cornsilk" stroke="transparent" points="412.5,-269 412.5,-293 502.5,-293 502.5,-269 412.5,-269"/>
<polygon fill="none" stroke="black" points="412.5,-269 412.5,-293 502.5,-293 502.5,-269 412.5,-269"/>
<polygon fill="cornsilk" stroke="transparent" points="504.5,-269 504.5,-293 877.5,-293 877.5,-269 504.5,-269"/>
<polygon fill="none" stroke="black" points="504.5,-269 504.5,-293 877.5,-293 877.5,-269 504.5,-269"/>
<text text-anchor="start" x="550" y="-277.2" font-family="Times,serif" font-size="16.00">Dynamic language transition path</text>
<polygon fill="none" stroke="black" points="409,-266 409,-452 880,-452 880,-266 409,-266"/>
</g>
<!-- async&#45;lang&#45;&gt;onboarding&#45;time -->
<g id="edge4" class="edge">
<title>async&#45;lang&#45;&gt;onboarding&#45;time</title>
<path fill="none" stroke="black" d="M488.35,-487.98C500.29,-478.2 512.22,-468.42 523.86,-458.88"/>
<polygon fill="black" stroke="black" points="526.35,-461.36 531.87,-452.32 521.91,-455.95 526.35,-461.36"/>
</g>
<!-- building&#45;internet&#45;services -->
<g id="node7" class="node">
<title>building&#45;internet&#45;services</title>
<polygon fill="darkgoldenrod" stroke="transparent" points="702.5,-181 702.5,-205 1154.5,-205 1154.5,-181 702.5,-181"/>
<polygon fill="none" stroke="black" points="702.5,-181 702.5,-205 1154.5,-205 1154.5,-181 702.5,-181"/>
<text text-anchor="start" x="706.5" y="-189.2" font-family="Times,serif" font-size="16.00">Rust a common choice for building internet platforms</text>
<polygon fill="#ffb90f" stroke="transparent" points="702.5,-173 702.5,-179 1154.5,-179 1154.5,-173 702.5,-173"/>
<polygon fill="none" stroke="black" points="702.5,-173 702.5,-179 1154.5,-179 1154.5,-173 702.5,-173"/>
<polygon fill="none" stroke="black" points="699.5,-170 699.5,-208 1157.5,-208 1157.5,-170 699.5,-170"/>
</g>
<!-- onboarding&#45;time&#45;&gt;building&#45;internet&#45;services -->
<g id="edge7" class="edge">
<title>onboarding&#45;time&#45;&gt;building&#45;internet&#45;services</title>
<path fill="none" stroke="black" d="M800.21,-265.89C833.32,-246.31 865.42,-227.31 889.23,-213.23"/>
<polygon fill="black" stroke="black" points="891.11,-216.18 897.94,-208.08 887.55,-210.16 891.11,-216.18"/>
</g>
<!-- well&#45;integrated&#45;into&#45;internet&#45;services -->
<g id="node8" class="node">
<title>well&#45;integrated&#45;into&#45;internet&#45;services</title>
<polygon fill="darkgoldenrod" stroke="transparent" points="3.5,-203 3.5,-227 624.5,-227 624.5,-203 3.5,-203"/>
<polygon fill="none" stroke="black" points="3.5,-203 3.5,-227 624.5,-227 624.5,-203 3.5,-203"/>
<text text-anchor="start" x="129" y="-211.2" font-family="Times,serif" font-size="16.00">Rust is well integrated into internet services</text>
<polygon fill="#ffb90f" stroke="transparent" points="3.5,-177 3.5,-201 624.5,-201 624.5,-177 3.5,-177"/>
<polygon fill="none" stroke="black" points="3.5,-177 3.5,-201 624.5,-201 624.5,-177 3.5,-177"/>
<text text-anchor="start" x="7.5" y="-185.2" font-family="Times,serif" font-size="16.00">SDKs for interacting with web services are readily available and complete</text>
<polygon fill="#ffb90f" stroke="transparent" points="3.5,-151 3.5,-175 624.5,-175 624.5,-151 3.5,-151"/>
<polygon fill="none" stroke="black" points="3.5,-151 3.5,-175 624.5,-175 624.5,-151 3.5,-151"/>
<text text-anchor="start" x="66.5" y="-159.2" font-family="Times,serif" font-size="16.00">FaaS platforms have first&#45;class, convenient support for Rust</text>
<polygon fill="none" stroke="black" points="0,-148 0,-230 627,-230 627,-148 0,-148"/>
</g>
<!-- onboarding&#45;time&#45;&gt;well&#45;integrated&#45;into&#45;internet&#45;services -->
<g id="edge8" class="edge">
<title>onboarding&#45;time&#45;&gt;well&#45;integrated&#45;into&#45;internet&#45;services</title>
<path fill="none" stroke="black" d="M463.02,-265.89C441.7,-255.07 420.74,-244.43 401.57,-234.7"/>
<polygon fill="black" stroke="black" points="403.1,-231.55 392.6,-230.15 399.94,-237.8 403.1,-231.55"/>
</g>
<!-- using&#45;internet&#45;services -->
<g id="node9" class="node">
<title>using&#45;internet&#45;services</title>
<polygon fill="darkgoldenrod" stroke="transparent" points="368.5,-85 368.5,-109 897.5,-109 897.5,-85 368.5,-85"/>
<polygon fill="none" stroke="black" points="368.5,-85 368.5,-109 897.5,-109 897.5,-85 368.5,-85"/>
<text text-anchor="start" x="372.5" y="-93.2" font-family="Times,serif" font-size="16.00">Rust a common choice for code that runs on internet platforms</text>
<polygon fill="#ffb90f" stroke="transparent" points="368.5,-77 368.5,-83 897.5,-83 897.5,-77 368.5,-77"/>
<polygon fill="none" stroke="black" points="368.5,-77 368.5,-83 897.5,-83 897.5,-77 368.5,-77"/>
<polygon fill="none" stroke="black" points="365,-74 365,-112 900,-112 900,-74 365,-74"/>
</g>
<!-- onboarding&#45;time&#45;&gt;using&#45;internet&#45;services -->
<g id="edge9" class="edge">
<title>onboarding&#45;time&#45;&gt;using&#45;internet&#45;services</title>
<path fill="none" stroke="black" d="M640.81,-265.99C639.27,-229.28 637.4,-186.63 635.5,-148 635.1,-139.78 634.62,-130.87 634.16,-122.69"/>
<polygon fill="black" stroke="black" points="637.64,-122.28 633.59,-112.49 630.66,-122.67 637.64,-122.28"/>
</g>
<!-- dev&#45;tooling&#45;&gt;onboarding&#45;time -->
<g id="edge3" class="edge">
<title>dev&#45;tooling&#45;&gt;onboarding&#45;time</title>
<path fill="none" stroke="black" d="M705.87,-800.77C689.39,-786.54 674.78,-770.35 663.5,-752 634.74,-705.21 634.67,-561.89 638.56,-462.18"/>
<polygon fill="black" stroke="black" points="642.06,-462.2 638.97,-452.07 635.06,-461.92 642.06,-462.2"/>
</g>
<!-- prod&#45;tooling -->
<g id="node6" class="node">
<title>prod&#45;tooling</title>
<polygon fill="darkgoldenrod" stroke="transparent" points="675.5,-638 675.5,-662 1245.5,-662 1245.5,-638 675.5,-638"/>
<polygon fill="none" stroke="black" points="675.5,-638 675.5,-662 1245.5,-662 1245.5,-638 675.5,-638"/>
<text text-anchor="start" x="883.5" y="-646.2" font-family="Times,serif" font-size="16.00">Production tooling</text>
<polygon fill="#ffb90f" stroke="transparent" points="675.5,-612 675.5,-636 1245.5,-636 1245.5,-612 675.5,-612"/>
<polygon fill="none" stroke="black" points="675.5,-612 675.5,-636 1245.5,-636 1245.5,-612 675.5,-612"/>
<text text-anchor="start" x="684" y="-620.2" font-family="Times,serif" font-size="16.00">Able to troubleshoot correctness problems that arise in production</text>
<polygon fill="#ffb90f" stroke="transparent" points="675.5,-586 675.5,-610 1245.5,-610 1245.5,-586 675.5,-586"/>
<polygon fill="none" stroke="black" points="675.5,-586 675.5,-610 1245.5,-610 1245.5,-586 675.5,-586"/>
<text text-anchor="start" x="679.5" y="-594.2" font-family="Times,serif" font-size="16.00">Able to troubleshoot performance problems that arise in production</text>
<polygon fill="cornsilk" stroke="transparent" points="675.5,-578 675.5,-584 959.5,-584 959.5,-578 675.5,-578"/>
<polygon fill="none" stroke="black" points="675.5,-578 675.5,-584 959.5,-584 959.5,-578 675.5,-578"/>
<polygon fill="cornsilk" stroke="transparent" points="961.5,-578 961.5,-584 1245.5,-584 1245.5,-578 961.5,-578"/>
<polygon fill="none" stroke="black" points="961.5,-578 961.5,-584 1245.5,-584 1245.5,-578 961.5,-578"/>
<polygon fill="none" stroke="black" points="672.5,-575 672.5,-665 1248.5,-665 1248.5,-575 672.5,-575"/>
</g>
<!-- dev&#45;tooling&#45;&gt;prod&#45;tooling -->
<g id="edge6" class="edge">
<title>dev&#45;tooling&#45;&gt;prod&#45;tooling</title>
<path fill="none" stroke="black" d="M928.09,-800.91C935.59,-759.25 944.21,-711.43 950.67,-675.57"/>
<polygon fill="black" stroke="black" points="954.19,-675.78 952.52,-665.32 947.3,-674.54 954.19,-675.78"/>
</g>
<!-- reduced&#45;operating&#45;costs -->
<g id="node10" class="node">
<title>reduced&#45;operating&#45;costs</title>
<polygon fill="darkgoldenrod" stroke="transparent" points="578.5,-11 578.5,-35 982.5,-35 982.5,-11 578.5,-11"/>
<polygon fill="none" stroke="black" points="578.5,-11 578.5,-35 982.5,-35 982.5,-11 578.5,-11"/>
<text text-anchor="start" x="582.5" y="-19.2" font-family="Times,serif" font-size="16.00">Operating costs and carbon impact are reduced</text>
<polygon fill="#ffb90f" stroke="transparent" points="578.5,-3 578.5,-9 982.5,-9 982.5,-3 578.5,-3"/>
<polygon fill="none" stroke="black" points="578.5,-3 578.5,-9 982.5,-9 982.5,-3 578.5,-3"/>
<polygon fill="none" stroke="black" points="575.5,0 575.5,-38 985.5,-38 985.5,0 575.5,0"/>
</g>
<!-- building&#45;internet&#45;services&#45;&gt;reduced&#45;operating&#45;costs -->
<g id="edge12" class="edge">
<title>building&#45;internet&#45;services&#45;&gt;reduced&#45;operating&#45;costs</title>
<path fill="none" stroke="black" d="M930.52,-169.67C932.18,-145.19 931.42,-101.69 909.5,-74 898.6,-60.24 883.57,-49.94 867.6,-42.25"/>
<polygon fill="black" stroke="black" points="868.68,-38.9 858.12,-38.02 865.83,-45.29 868.68,-38.9"/>
</g>
<!-- reduced&#45;vulnerabilities -->
<g id="node12" class="node">
<title>reduced&#45;vulnerabilities</title>
<polygon fill="darkgoldenrod" stroke="transparent" points="995.5,-85 995.5,-109 1460.5,-109 1460.5,-85 995.5,-85"/>
<polygon fill="none" stroke="black" points="995.5,-85 995.5,-109 1460.5,-109 1460.5,-85 995.5,-85"/>
<text text-anchor="start" x="999.5" y="-93.2" font-family="Times,serif" font-size="16.00">Reduced rate of vulnerabilities and high priority errors</text>
<polygon fill="#ffb90f" stroke="transparent" points="995.5,-77 995.5,-83 1460.5,-83 1460.5,-77 995.5,-77"/>
<polygon fill="none" stroke="black" points="995.5,-77 995.5,-83 1460.5,-83 1460.5,-77 995.5,-77"/>
<polygon fill="none" stroke="black" points="992,-74 992,-112 1463,-112 1463,-74 992,-74"/>
</g>
<!-- building&#45;internet&#45;services&#45;&gt;reduced&#45;vulnerabilities -->
<g id="edge15" class="edge">
<title>building&#45;internet&#45;services&#45;&gt;reduced&#45;vulnerabilities</title>
<path fill="none" stroke="black" d="M985.8,-169.99C1035.68,-154.3 1108.04,-131.56 1160.57,-115.04"/>
<polygon fill="black" stroke="black" points="1161.65,-118.37 1170.14,-112.03 1159.55,-111.69 1161.65,-118.37"/>
</g>
<!-- well&#45;integrated&#45;into&#45;internet&#45;services&#45;&gt;using&#45;internet&#45;services -->
<g id="edge10" class="edge">
<title>well&#45;integrated&#45;into&#45;internet&#45;services&#45;&gt;using&#45;internet&#45;services</title>
<path fill="none" stroke="black" d="M449.25,-148C487.82,-136.63 528.29,-124.71 561.36,-114.96"/>
<polygon fill="black" stroke="black" points="562.77,-118.2 571.37,-112.01 560.79,-111.48 562.77,-118.2"/>
</g>
<!-- using&#45;internet&#45;services&#45;&gt;reduced&#45;operating&#45;costs -->
<g id="edge11" class="edge">
<title>using&#45;internet&#45;services&#45;&gt;reduced&#45;operating&#45;costs</title>
<path fill="none" stroke="black" d="M669.85,-73.83C689.38,-64.33 713.46,-52.61 734.17,-42.54"/>
<polygon fill="black" stroke="black" points="735.96,-45.56 743.42,-38.04 732.9,-39.27 735.96,-45.56"/>
</g>
<!-- high&#45;assurance&#45;&gt;reduced&#45;vulnerabilities -->
<g id="edge14" class="edge">
<title>high&#45;assurance&#45;&gt;reduced&#45;vulnerabilities</title>
<path fill="none" stroke="black" d="M1245.71,-265.67C1240.36,-215.22 1234.1,-156.25 1230.49,-122.2"/>
<polygon fill="black" stroke="black" points="1233.95,-121.64 1229.42,-112.07 1226.99,-122.38 1233.95,-121.64"/>
</g>
</g>
</svg>
