<?xml version="1.0" encoding="UTF-8" standalone="no"?>
<!DOCTYPE svg PUBLIC "-//W3C//DTD SVG 1.1//EN"
 "http://www.w3.org/Graphics/SVG/1.1/DTD/svg11.dtd">
<!-- Generated by graphviz version 2.43.0 (0)
 -->
<!-- Title: g Pages: 1 -->
<svg width="1858pt" height="1604pt"
 viewBox="0.00 0.00 1857.50 1604.00" xmlns="http://www.w3.org/2000/svg" xmlns:xlink="http://www.w3.org/1999/xlink">
<g id="graph0" class="graph" transform="scale(1 1) rotate(0) translate(4 1600)">
<title>g</title>
<polygon fill="white" stroke="transparent" points="-4,4 -4,-1600 1853.5,-1600 1853.5,4 -4,4"/>
<!-- fundamentals -->
<g id="node1" class="node">
<title>fundamentals</title>
<polygon fill="darkgoldenrod" stroke="transparent" points="864,-1569 864,-1593 1254,-1593 1254,-1569 864,-1569"/>
<polygon fill="none" stroke="black" points="864,-1569 864,-1593 1254,-1593 1254,-1569 864,-1569"/>
<text text-anchor="start" x="963.5" y="-1577.2" font-family="Times,serif" font-size="16.00">Rust fundamenta, stals</text>
<polygon fill="#ffb90f" stroke="transparent" points="864,-1543 864,-1567 1254,-1567 1254,-1543 864,-1543"/>
<polygon fill="none" stroke="black" points="864,-1543 864,-1567 1254,-1567 1254,-1543 864,-1543"/>
<text text-anchor="start" x="917" y="-1551.2" font-family="Times,serif" font-size="16.00">Easy to contribute to the compiler</text>
<polygon fill="#ffb90f" stroke="transparent" points="864,-1517 864,-1541 1254,-1541 1254,-1517 864,-1517"/>
<polygon fill="none" stroke="black" points="864,-1517 864,-1541 1254,-1541 1254,-1517 864,-1517"/>
<text text-anchor="start" x="905" y="-1525.2" font-family="Times,serif" font-size="16.00">Language semantics well understood</text>
<polygon fill="#ffb90f" stroke="transparent" points="864,-1491 864,-1515 1254,-1515 1254,-1491 864,-1491"/>
<polygon fill="none" stroke="black" points="864,-1491 864,-1515 1254,-1515 1254,-1491 864,-1491"/>
<text text-anchor="start" x="868" y="-1499.2" font-family="Times,serif" font-size="16.00">Extending language possible by mere humans</text>
<polygon fill="cornsilk" stroke="transparent" points="864,-1465 864,-1489 917,-1489 917,-1465 864,-1465"/>
<polygon fill="none" stroke="black" points="864,-1465 864,-1489 917,-1489 917,-1465 864,-1465"/>
<text text-anchor="start" x="867.5" y="-1473.2" font-family="Times,serif" font-size="16.00">▮▮▮▯▯</text>
<polygon fill="cornsilk" stroke="transparent" points="919,-1465 919,-1489 1254,-1489 1254,-1465 919,-1465"/>
<polygon fill="none" stroke="black" points="919,-1465 919,-1489 1254,-1489 1254,-1465 919,-1465"/>
<text text-anchor="start" x="922.5" y="-1473.2" font-family="Times,serif" font-size="16.00">Compiler libraries for MIR, types, traits</text>
<polygon fill="cornsilk" stroke="transparent" points="864,-1439 864,-1463 917,-1463 917,-1439 864,-1439"/>
<polygon fill="none" stroke="black" points="864,-1439 864,-1463 917,-1463 917,-1439 864,-1439"/>
<text text-anchor="start" x="867.5" y="-1447.2" font-family="Times,serif" font-size="16.00">▮▯▯▯▯</text>
<polygon fill="cornsilk" stroke="transparent" points="919,-1439 919,-1463 1254,-1463 1254,-1439 919,-1439"/>
<polygon fill="none" stroke="black" points="919,-1439 919,-1463 1254,-1463 1254,-1439 919,-1439"/>
<text text-anchor="start" x="948" y="-1447.2" font-family="Times,serif" font-size="16.00">Core Rust semantics documented</text>
<polygon fill="cornsilk" stroke="transparent" points="864,-1413 864,-1437 917,-1437 917,-1413 864,-1413"/>
<polygon fill="none" stroke="black" points="864,-1413 864,-1437 917,-1437 917,-1413 864,-1413"/>
<text text-anchor="start" x="867.5" y="-1421.2" font-family="Times,serif" font-size="16.00">▮▯▯▯▯</text>
<polygon fill="cornsilk" stroke="transparent" points="919,-1413 919,-1437 1254,-1437 1254,-1413 919,-1413"/>
<polygon fill="none" stroke="black" points="919,-1413 919,-1437 1254,-1437 1254,-1413 919,-1413"/>
<text text-anchor="start" x="1008" y="-1421.2" font-family="Times,serif" font-size="16.00">Proof of soundness</text>
<polygon fill="cornsilk" stroke="transparent" points="864,-1387 864,-1411 917,-1411 917,-1387 864,-1387"/>
<polygon fill="none" stroke="black" points="864,-1387 864,-1411 917,-1411 917,-1387 864,-1387"/>
<text text-anchor="start" x="867.5" y="-1395.2" font-family="Times,serif" font-size="16.00">▮▮▯▯▯</text>
<polygon fill="cornsilk" stroke="transparent" points="919,-1387 919,-1411 1254,-1411 1254,-1387 919,-1387"/>
<polygon fill="none" stroke="black" points="919,-1387 919,-1411 1254,-1411 1254,-1387 919,-1387"/>
<text text-anchor="start" x="990" y="-1395.2" font-family="Times,serif" font-size="16.00">Unsafe code guidelines</text>
<polygon fill="none" stroke="black" points="861,-1384 861,-1596 1257,-1596 1257,-1384 861,-1384"/>
</g>
<!-- core&#45;lang -->
<g id="node2" class="node">
<title>core&#45;lang</title>
<polygon fill="darkgoldenrod" stroke="transparent" points="790,-1321 790,-1345 1328,-1345 1328,-1321 790,-1321"/>
<polygon fill="none" stroke="black" points="790,-1321 790,-1345 1328,-1345 1328,-1321 790,-1321"/>
<text text-anchor="start" x="937" y="-1329.2" font-family="Times,serif" font-size="16.00">Core language improvements</text>
<polygon fill="#ffb90f" stroke="transparent" points="790,-1295 790,-1319 1328,-1319 1328,-1295 790,-1295"/>
<polygon fill="none" stroke="black" points="790,-1295 790,-1319 1328,-1319 1328,-1295 790,-1295"/>
<text text-anchor="start" x="917" y="-1303.2" font-family="Times,serif" font-size="16.00">Easy to contribute to the compiler</text>
<polygon fill="cornsilk" stroke="transparent" points="790,-1269 790,-1293 842,-1293 842,-1269 790,-1269"/>
<polygon fill="none" stroke="black" points="790,-1269 790,-1293 842,-1293 842,-1269 790,-1269"/>
<text text-anchor="start" x="793" y="-1277.2" font-family="Times,serif" font-size="16.00">▮▮▯▯▯</text>
<polygon fill="cornsilk" stroke="transparent" points="844,-1269 844,-1293 1328,-1293 1328,-1269 844,-1269"/>
<polygon fill="none" stroke="black" points="844,-1269 844,-1293 1328,-1293 1328,-1269 844,-1269"/>
<text text-anchor="start" x="847" y="-1277.2" font-family="Times,serif" font-size="16.00">Dynamic dispatch (dyn trait) more powerful, easier to use</text>
<polygon fill="cornsilk" stroke="transparent" points="790,-1243 790,-1267 842,-1267 842,-1243 790,-1243"/>
<polygon fill="none" stroke="black" points="790,-1243 790,-1267 842,-1267 842,-1243 790,-1243"/>
<text text-anchor="start" x="793" y="-1251.2" font-family="Times,serif" font-size="16.00">▮▮▯▯▯</text>
<polygon fill="cornsilk" stroke="transparent" points="844,-1243 844,-1267 1328,-1267 1328,-1243 844,-1243"/>
<polygon fill="none" stroke="black" points="844,-1243 844,-1267 1328,-1267 1328,-1243 844,-1243"/>
<text text-anchor="start" x="1027.5" y="-1251.2" font-family="Times,serif" font-size="16.00">Specialization</text>
<polygon fill="cornsilk" stroke="transparent" points="790,-1217 790,-1241 842,-1241 842,-1217 790,-1217"/>
<polygon fill="none" stroke="black" points="790,-1217 790,-1241 842,-1241 842,-1217 790,-1217"/>
<text text-anchor="start" x="793" y="-1225.2" font-family="Times,serif" font-size="16.00">▮▮▯▯▯</text>
<polygon fill="cornsilk" stroke="transparent" points="844,-1217 844,-1241 1328,-1241 1328,-1217 844,-1217"/>
<polygon fill="none" stroke="black" points="844,-1217 844,-1241 1328,-1241 1328,-1217 844,-1217"/>
<text text-anchor="start" x="1022" y="-1225.2" font-family="Times,serif" font-size="16.00">Implied bounds</text>
<polygon fill="cornsilk" stroke="transparent" points="790,-1191 790,-1215 842,-1215 842,-1191 790,-1191"/>
<polygon fill="none" stroke="black" points="790,-1191 790,-1215 842,-1215 842,-1191 790,-1191"/>
<text text-anchor="start" x="793" y="-1199.2" font-family="Times,serif" font-size="16.00">▮▮▮▯▯</text>
<polygon fill="cornsilk" stroke="transparent" points="844,-1191 844,-1215 1328,-1215 1328,-1191 844,-1191"/>
<polygon fill="none" stroke="black" points="844,-1191 844,-1215 1328,-1215 1328,-1191 844,-1191"/>
<text text-anchor="start" x="953.5" y="-1199.2" font-family="Times,serif" font-size="16.00">Generic associated types (GATs)</text>
<polygon fill="cornsilk" stroke="transparent" points="790,-1165 790,-1189 842,-1189 842,-1165 790,-1165"/>
<polygon fill="none" stroke="black" points="790,-1165 790,-1189 842,-1189 842,-1165 790,-1165"/>
<text text-anchor="start" x="793" y="-1173.2" font-family="Times,serif" font-size="16.00">▮▮▮▮▯</text>
<polygon fill="cornsilk" stroke="transparent" points="844,-1165 844,-1189 1328,-1189 1328,-1165 844,-1165"/>
<polygon fill="none" stroke="black" points="844,-1165 844,-1189 1328,-1189 1328,-1165 844,-1165"/>
<text text-anchor="start" x="1046.5" y="-1173.2" font-family="Times,serif" font-size="16.00">Impl trait</text>
<polygon fill="cornsilk" stroke="transparent" points="790,-1139 790,-1163 842,-1163 842,-1139 790,-1139"/>
<polygon fill="none" stroke="black" points="790,-1139 790,-1163 842,-1163 842,-1139 790,-1139"/>
<text text-anchor="start" x="793" y="-1147.2" font-family="Times,serif" font-size="16.00">▮▮▯▯▯</text>
<polygon fill="cornsilk" stroke="transparent" points="844,-1139 844,-1163 1328,-1163 1328,-1139 844,-1139"/>
<polygon fill="none" stroke="black" points="844,-1139 844,-1163 1328,-1163 1328,-1139 844,-1139"/>
<text text-anchor="start" x="956" y="-1147.2" font-family="Times,serif" font-size="16.00">Threaded contexts, capabilities</text>
<polygon fill="none" stroke="black" points="787,-1136 787,-1348 1331,-1348 1331,-1136 787,-1136"/>
</g>
<!-- fundamentals&#45;&gt;core&#45;lang -->
<g id="edge1" class="edge">
<title>fundamentals&#45;&gt;core&#45;lang</title>
<path fill="none" stroke="black" d="M1059,-1383.96C1059,-1375.42 1059,-1366.76 1059,-1358.15"/>
<polygon fill="black" stroke="black" points="1062.5,-1358.08 1059,-1348.08 1055.5,-1358.08 1062.5,-1358.08"/>
</g>
<!-- dev&#45;tooling -->
<g id="node6" class="node">
<title>dev&#45;tooling</title>
<polygon fill="darkgoldenrod" stroke="transparent" points="307,-812 307,-836 833,-836 833,-812 307,-812"/>
<polygon fill="none" stroke="black" points="307,-812 307,-836 833,-836 833,-812 307,-812"/>
<text text-anchor="start" x="496" y="-820.2" font-family="Times,serif" font-size="16.00">Developer tooling</text>
<polygon fill="#ffb90f" stroke="transparent" points="307,-786 307,-810 833,-810 833,-786 307,-786"/>
<polygon fill="none" stroke="black" points="307,-786 307,-810 833,-810 833,-786 307,-786"/>
<text text-anchor="start" x="337" y="-794.2" font-family="Times,serif" font-size="16.00">Able to understand programs in terms of async behavior</text>
<polygon fill="#ffb90f" stroke="transparent" points="307,-760 307,-784 833,-784 833,-760 307,-760"/>
<polygon fill="none" stroke="black" points="307,-760 307,-784 833,-784 833,-760 307,-760"/>
<text text-anchor="start" x="315.5" y="-768.2" font-family="Times,serif" font-size="16.00">Able to fix correctness problems in development environment</text>
<polygon fill="#ffb90f" stroke="transparent" points="307,-734 307,-758 833,-758 833,-734 307,-734"/>
<polygon fill="none" stroke="black" points="307,-734 307,-758 833,-758 833,-734 307,-734"/>
<text text-anchor="start" x="311" y="-742.2" font-family="Times,serif" font-size="16.00">Able to fix performance problems in development environment</text>
<polygon fill="cornsilk" stroke="transparent" points="307,-708 307,-732 393,-732 393,-708 307,-708"/>
<polygon fill="none" stroke="black" points="307,-708 307,-732 393,-732 393,-708 307,-708"/>
<text text-anchor="start" x="327" y="-716.2" font-family="Times,serif" font-size="16.00">▮▮▯▯▯</text>
<polygon fill="cornsilk" stroke="transparent" points="395,-708 395,-732 833,-732 833,-708 395,-708"/>
<polygon fill="none" stroke="black" points="395,-708 395,-732 833,-732 833,-708 395,-708"/>
<text text-anchor="start" x="520.5" y="-716.2" font-family="Times,serif" font-size="16.00">Quality Rust debugger</text>
<polygon fill="cornsilk" stroke="transparent" points="307,-682 307,-706 393,-706 393,-682 307,-682"/>
<polygon fill="none" stroke="black" points="307,-682 307,-706 393,-706 393,-682 307,-682"/>
<text text-anchor="start" x="327" y="-690.2" font-family="Times,serif" font-size="16.00">▮▮▮▮▯</text>
<polygon fill="cornsilk" stroke="transparent" points="395,-682 395,-706 833,-706 833,-682 395,-682"/>
<polygon fill="none" stroke="black" points="395,-682 395,-706 833,-706 833,-682 395,-682"/>
<text text-anchor="start" x="451.5" y="-690.2" font-family="Times,serif" font-size="16.00">Rust well integrated into common IDEs</text>
<polygon fill="cornsilk" stroke="transparent" points="307,-656 307,-680 393,-680 393,-656 307,-656"/>
<polygon fill="none" stroke="black" points="307,-656 307,-680 393,-680 393,-656 307,-656"/>
<text text-anchor="start" x="327" y="-664.2" font-family="Times,serif" font-size="16.00">▮▮▮▯▯</text>
<polygon fill="cornsilk" stroke="transparent" points="395,-656 395,-680 833,-680 833,-656 395,-656"/>
<polygon fill="none" stroke="black" points="395,-656 395,-680 833,-680 833,-656 395,-656"/>
<text text-anchor="start" x="415" y="-664.2" font-family="Times,serif" font-size="16.00">Async runtime observability (e.g., tokio console)</text>
<polygon fill="cornsilk" stroke="transparent" points="307,-630 307,-654 393,-654 393,-630 307,-630"/>
<polygon fill="none" stroke="black" points="307,-630 307,-654 393,-654 393,-630 307,-630"/>
<text text-anchor="start" x="327" y="-638.2" font-family="Times,serif" font-size="16.00">▮▮▯▯▯</text>
<polygon fill="cornsilk" stroke="transparent" points="395,-630 395,-654 833,-654 833,-630 395,-630"/>
<polygon fill="none" stroke="black" points="395,-630 395,-654 833,-654 833,-630 395,-630"/>
<text text-anchor="start" x="463.5" y="-638.2" font-family="Times,serif" font-size="16.00">Profilers for CPU and memory usage</text>
<polygon fill="none" stroke="black" points="304,-627 304,-839 836,-839 836,-627 304,-627"/>
</g>
<!-- fundamentals&#45;&gt;dev&#45;tooling -->
<g id="edge6" class="edge">
<title>fundamentals&#45;&gt;dev&#45;tooling</title>
<path fill="none" stroke="black" d="M860.97,-1414.71C830.19,-1396.51 801.02,-1374.45 778,-1348 653.2,-1204.61 602.54,-983.16 582.51,-849.07"/>
<polygon fill="black" stroke="black" points="585.97,-848.56 581.06,-839.17 579.05,-849.57 585.97,-848.56"/>
</g>
<!-- high&#45;assurance -->
<g id="node8" class="node">
<title>high&#45;assurance</title>
<polygon fill="darkgoldenrod" stroke="transparent" points="1178,-538 1178,-562 1847,-562 1847,-538 1178,-538"/>
<polygon fill="none" stroke="black" points="1178,-538 1178,-562 1847,-562 1847,-538 1178,-538"/>
<text text-anchor="start" x="1426.5" y="-546.2" font-family="Times,serif" font-size="16.00">High assurance Rust</text>
<polygon fill="#ffb90f" stroke="transparent" points="1178,-512 1178,-536 1847,-536 1847,-512 1178,-512"/>
<polygon fill="none" stroke="black" points="1178,-512 1178,-536 1847,-536 1847,-512 1178,-512"/>
<text text-anchor="start" x="1182" y="-520.2" font-family="Times,serif" font-size="16.00">Developers extending Rust with unsafe Rust can prove these extensions correct</text>
<polygon fill="#ffb90f" stroke="transparent" points="1178,-486 1178,-510 1847,-510 1847,-486 1178,-486"/>
<polygon fill="none" stroke="black" points="1178,-486 1178,-510 1847,-510 1847,-486 1178,-486"/>
<text text-anchor="start" x="1226.5" y="-494.2" font-family="Times,serif" font-size="16.00">Developers can prove their Rust code meets functional specifications</text>
<polygon fill="#ffb90f" stroke="transparent" points="1178,-460 1178,-484 1847,-484 1847,-460 1178,-460"/>
<polygon fill="none" stroke="black" points="1178,-460 1178,-484 1847,-484 1847,-460 1178,-460"/>
<text text-anchor="start" x="1275" y="-468.2" font-family="Times,serif" font-size="16.00">Developers can prove their Rust code meets specification</text>
<polygon fill="cornsilk" stroke="transparent" points="1178,-434 1178,-458 1353,-458 1353,-434 1178,-434"/>
<polygon fill="none" stroke="black" points="1178,-434 1178,-458 1353,-458 1353,-434 1178,-434"/>
<text text-anchor="start" x="1242.5" y="-442.2" font-family="Times,serif" font-size="16.00">▮▯▯▯▯</text>
<polygon fill="cornsilk" stroke="transparent" points="1355,-434 1355,-458 1847,-458 1847,-434 1355,-434"/>
<polygon fill="none" stroke="black" points="1355,-434 1355,-458 1847,-458 1847,-434 1355,-434"/>
<text text-anchor="start" x="1419.5" y="-442.2" font-family="Times,serif" font-size="16.00">Sanitizer / dynamic checker for unsafe code</text>
<polygon fill="cornsilk" stroke="transparent" points="1178,-408 1178,-432 1353,-432 1353,-408 1178,-408"/>
<polygon fill="none" stroke="black" points="1178,-408 1178,-432 1353,-432 1353,-408 1178,-408"/>
<text text-anchor="start" x="1242.5" y="-416.2" font-family="Times,serif" font-size="16.00">▮▯▯▯▯</text>
<polygon fill="cornsilk" stroke="transparent" points="1355,-408 1355,-432 1847,-432 1847,-408 1355,-408"/>
<polygon fill="none" stroke="black" points="1355,-408 1355,-432 1847,-432 1847,-408 1355,-408"/>
<text text-anchor="start" x="1482" y="-416.2" font-family="Times,serif" font-size="16.00">Model checker for Rust code</text>
<polygon fill="cornsilk" stroke="transparent" points="1178,-382 1178,-406 1353,-406 1353,-382 1178,-382"/>
<polygon fill="none" stroke="black" points="1178,-382 1178,-406 1353,-406 1353,-382 1178,-382"/>
<text text-anchor="start" x="1242.5" y="-390.2" font-family="Times,serif" font-size="16.00">▮▯▯▯▯</text>
<polygon fill="cornsilk" stroke="transparent" points="1355,-382 1355,-406 1847,-406 1847,-382 1355,-382"/>
<polygon fill="none" stroke="black" points="1355,-382 1355,-406 1847,-406 1847,-382 1355,-382"/>
<text text-anchor="start" x="1474.5" y="-390.2" font-family="Times,serif" font-size="16.00">Packages on crates.io checked</text>
<polygon fill="none" stroke="black" points="1174.5,-379 1174.5,-565 1849.5,-565 1849.5,-379 1174.5,-379"/>
</g>
<!-- fundamentals&#45;&gt;high&#45;assurance -->
<g id="edge8" class="edge">
<title>fundamentals&#45;&gt;high&#45;assurance</title>
<path fill="none" stroke="black" d="M1257.22,-1418.89C1288.74,-1400.12 1318.12,-1376.79 1340,-1348 1516.56,-1115.7 1526.38,-751.2 1519.27,-575.05"/>
<polygon fill="black" stroke="black" points="1522.76,-574.85 1518.84,-565.01 1515.77,-575.15 1522.76,-574.85"/>
</g>
<!-- async&#45;lang -->
<g id="node3" class="node">
<title>async&#45;lang</title>
<polygon fill="darkgoldenrod" stroke="transparent" points="774,-1073 774,-1097 1344,-1097 1344,-1073 774,-1073"/>
<polygon fill="none" stroke="black" points="774,-1073 774,-1097 1344,-1097 1344,-1073 774,-1073"/>
<text text-anchor="start" x="958.5" y="-1081.2" font-family="Times,serif" font-size="16.00">Async I/O Fundamentals</text>
<polygon fill="#ffb90f" stroke="transparent" points="774,-1047 774,-1071 1344,-1071 1344,-1047 774,-1047"/>
<polygon fill="none" stroke="black" points="774,-1047 774,-1071 1344,-1071 1344,-1047 774,-1047"/>
<text text-anchor="start" x="836.5" y="-1055.2" font-family="Times,serif" font-size="16.00">Using Async I/O comparable in complexity to Sync I/O</text>
<polygon fill="#ffb90f" stroke="transparent" points="774,-1021 774,-1045 1344,-1045 1344,-1021 774,-1021"/>
<polygon fill="none" stroke="black" points="774,-1021 774,-1045 1344,-1045 1344,-1021 774,-1021"/>
<text text-anchor="start" x="778" y="-1029.2" font-family="Times,serif" font-size="16.00">Can author and use async libraries without thinking about runtimes</text>
<polygon fill="#ffb90f" stroke="transparent" points="774,-995 774,-1019 1344,-1019 1344,-995 774,-995"/>
<polygon fill="none" stroke="black" points="774,-995 774,-1019 1344,-1019 1344,-995 774,-995"/>
<text text-anchor="start" x="833" y="-1003.2" font-family="Times,serif" font-size="16.00">Access to a wide variety of useful libraries on crates.io</text>
<polygon fill="#ffb90f" stroke="transparent" points="774,-969 774,-993 1344,-993 1344,-969 774,-969"/>
<polygon fill="none" stroke="black" points="774,-969 774,-993 1344,-993 1344,-969 774,-969"/>
<text text-anchor="start" x="820" y="-977.2" font-family="Times,serif" font-size="16.00">Easy to create and experiment with a specialized runtime</text>
<polygon fill="cornsilk" stroke="transparent" points="774,-943 774,-967 882,-967 882,-943 774,-943"/>
<polygon fill="none" stroke="black" points="774,-943 774,-967 882,-967 882,-943 774,-943"/>
<text text-anchor="start" x="805" y="-951.2" font-family="Times,serif" font-size="16.00">▮▮▮▯▯</text>
<polygon fill="cornsilk" stroke="transparent" points="884,-943 884,-967 1344,-967 1344,-943 884,-943"/>
<polygon fill="none" stroke="black" points="884,-943 884,-967 1344,-967 1344,-943 884,-943"/>
<text text-anchor="start" x="993.5" y="-951.2" font-family="Times,serif" font-size="16.00">Can use async fn everywhere</text>
<polygon fill="cornsilk" stroke="transparent" points="774,-917 774,-941 882,-941 882,-917 774,-917"/>
<polygon fill="none" stroke="black" points="774,-917 774,-941 882,-941 882,-917 774,-917"/>
<text text-anchor="start" x="805" y="-925.2" font-family="Times,serif" font-size="16.00">▮▮▯▯▯</text>
<polygon fill="cornsilk" stroke="transparent" points="884,-917 884,-941 1344,-941 1344,-917 884,-917"/>
<polygon fill="none" stroke="black" points="884,-917 884,-941 1344,-941 1344,-917 884,-917"/>
<text text-anchor="start" x="915.5" y="-925.2" font-family="Times,serif" font-size="16.00">Async resource cleanup works well (async drop)</text>
<polygon fill="cornsilk" stroke="transparent" points="774,-891 774,-915 882,-915 882,-891 774,-891"/>
<polygon fill="none" stroke="black" points="774,-891 774,-915 882,-915 882,-891 774,-891"/>
<text text-anchor="start" x="805" y="-899.2" font-family="Times,serif" font-size="16.00">▮▯▯▯▯</text>
<polygon fill="cornsilk" stroke="transparent" points="884,-891 884,-915 1344,-915 1344,-891 884,-891"/>
<polygon fill="none" stroke="black" points="884,-891 884,-915 1344,-915 1344,-891 884,-891"/>
<text text-anchor="start" x="950" y="-899.2" font-family="Times,serif" font-size="16.00">Easy interoperability between runtimes</text>
<polygon fill="none" stroke="black" points="771,-888 771,-1100 1347,-1100 1347,-888 771,-888"/>
</g>
<!-- core&#45;lang&#45;&gt;async&#45;lang -->
<g id="edge2" class="edge">
<title>core&#45;lang&#45;&gt;async&#45;lang</title>
<path fill="none" stroke="black" d="M1059,-1135.96C1059,-1127.42 1059,-1118.76 1059,-1110.15"/>
<polygon fill="black" stroke="black" points="1062.5,-1110.08 1059,-1100.08 1055.5,-1110.08 1062.5,-1110.08"/>
</g>
<!-- async&#45;stack -->
<g id="node4" class="node">
<title>async&#45;stack</title>
<polygon fill="darkgoldenrod" stroke="transparent" points="857,-825 857,-849 1261,-849 1261,-825 857,-825"/>
<polygon fill="none" stroke="black" points="857,-825 857,-849 1261,-849 1261,-825 857,-825"/>
<text text-anchor="start" x="1010.5" y="-833.2" font-family="Times,serif" font-size="16.00">Async stack</text>
<polygon fill="#ffb90f" stroke="transparent" points="857,-799 857,-823 1261,-823 1261,-799 857,-799"/>
<polygon fill="none" stroke="black" points="857,-799 857,-823 1261,-823 1261,-799 857,-799"/>
<text text-anchor="start" x="884.5" y="-807.2" font-family="Times,serif" font-size="16.00">Can quickly stand up an async application</text>
<polygon fill="#ffb90f" stroke="transparent" points="857,-773 857,-797 1261,-797 1261,-773 857,-773"/>
<polygon fill="none" stroke="black" points="857,-773 857,-797 1261,-797 1261,-773 857,-773"/>
<text text-anchor="start" x="905.5" y="-781.2" font-family="Times,serif" font-size="16.00">Devs able to focus on &#39;business logic&#39;</text>
<polygon fill="cornsilk" stroke="transparent" points="857,-747 857,-771 909,-771 909,-747 857,-747"/>
<polygon fill="none" stroke="black" points="857,-747 857,-771 909,-771 909,-747 857,-747"/>
<text text-anchor="start" x="860" y="-755.2" font-family="Times,serif" font-size="16.00">▮▮▮▯▯</text>
<polygon fill="cornsilk" stroke="transparent" points="911,-747 911,-771 1261,-771 1261,-747 911,-747"/>
<polygon fill="none" stroke="black" points="911,-747 911,-771 1261,-771 1261,-747 911,-747"/>
<text text-anchor="start" x="965" y="-755.2" font-family="Times,serif" font-size="16.00">High&#45;performance runtime(s)</text>
<polygon fill="cornsilk" stroke="transparent" points="857,-721 857,-745 909,-745 909,-721 857,-721"/>
<polygon fill="none" stroke="black" points="857,-721 857,-745 909,-745 909,-721 857,-721"/>
<text text-anchor="start" x="860" y="-729.2" font-family="Times,serif" font-size="16.00">▮▮▮▯▯</text>
<polygon fill="cornsilk" stroke="transparent" points="911,-721 911,-745 1261,-745 1261,-721 911,-721"/>
<polygon fill="none" stroke="black" points="911,-721 911,-745 1261,-745 1261,-721 911,-721"/>
<text text-anchor="start" x="1052" y="-729.2" font-family="Times,serif" font-size="16.00">Logging</text>
<polygon fill="cornsilk" stroke="transparent" points="857,-695 857,-719 909,-719 909,-695 857,-695"/>
<polygon fill="none" stroke="black" points="857,-695 857,-719 909,-719 909,-695 857,-695"/>
<text text-anchor="start" x="860" y="-703.2" font-family="Times,serif" font-size="16.00">▮▯▯▯▯</text>
<polygon fill="cornsilk" stroke="transparent" points="911,-695 911,-719 1261,-719 1261,-695 911,-695"/>
<polygon fill="none" stroke="black" points="911,-695 911,-719 1261,-719 1261,-695 911,-695"/>
<text text-anchor="start" x="1055.5" y="-703.2" font-family="Times,serif" font-size="16.00">Testing</text>
<polygon fill="cornsilk" stroke="transparent" points="857,-669 857,-693 909,-693 909,-669 857,-669"/>
<polygon fill="none" stroke="black" points="857,-669 857,-693 909,-693 909,-669 857,-669"/>
<text text-anchor="start" x="860" y="-677.2" font-family="Times,serif" font-size="16.00">▮▮▯▯▯</text>
<polygon fill="cornsilk" stroke="transparent" points="911,-669 911,-693 1261,-693 1261,-669 911,-669"/>
<polygon fill="none" stroke="black" points="911,-669 911,-693 1261,-693 1261,-669 911,-669"/>
<text text-anchor="start" x="993" y="-677.2" font-family="Times,serif" font-size="16.00">Persistence / database</text>
<polygon fill="cornsilk" stroke="transparent" points="857,-643 857,-667 909,-667 909,-643 857,-643"/>
<polygon fill="none" stroke="black" points="857,-643 857,-667 909,-667 909,-643 857,-643"/>
<text text-anchor="start" x="860" y="-651.2" font-family="Times,serif" font-size="16.00">▮▮▯▯▯</text>
<polygon fill="cornsilk" stroke="transparent" points="911,-643 911,-667 1261,-667 1261,-643 911,-643"/>
<polygon fill="none" stroke="black" points="911,-643 911,-667 1261,-667 1261,-643 911,-643"/>
<text text-anchor="start" x="1036.5" y="-651.2" font-family="Times,serif" font-size="16.00">Middleware</text>
<polygon fill="cornsilk" stroke="transparent" points="857,-617 857,-641 909,-641 909,-617 857,-617"/>
<polygon fill="none" stroke="black" points="857,-617 857,-641 909,-641 909,-617 857,-617"/>
<text text-anchor="start" x="860" y="-625.2" font-family="Times,serif" font-size="16.00">▮▮▮▯▯</text>
<polygon fill="cornsilk" stroke="transparent" points="911,-617 911,-641 1261,-641 1261,-617 911,-617"/>
<polygon fill="none" stroke="black" points="911,-617 911,-641 1261,-641 1261,-617 911,-617"/>
<text text-anchor="start" x="914" y="-625.2" font-family="Times,serif" font-size="16.00">I/O uring support in tokio, other runtimes</text>
<polygon fill="none" stroke="black" points="854,-614 854,-852 1264,-852 1264,-614 854,-614"/>
</g>
<!-- async&#45;lang&#45;&gt;async&#45;stack -->
<g id="edge3" class="edge">
<title>async&#45;lang&#45;&gt;async&#45;stack</title>
<path fill="none" stroke="black" d="M1059,-887.65C1059,-879.39 1059,-870.99 1059,-862.6"/>
<polygon fill="black" stroke="black" points="1062.5,-862.37 1059,-852.37 1055.5,-862.37 1062.5,-862.37"/>
</g>
<!-- onboarding&#45;time -->
<g id="node5" class="node">
<title>onboarding&#45;time</title>
<polygon fill="darkgoldenrod" stroke="transparent" points="715,-551 715,-575 1153,-575 1153,-551 715,-551"/>
<polygon fill="none" stroke="black" points="715,-551 715,-575 1153,-575 1153,-551 715,-551"/>
<text text-anchor="start" x="777" y="-559.2" font-family="Times,serif" font-size="16.00">Smooth onboarding of Rust engineers</text>
<polygon fill="#ffb90f" stroke="transparent" points="715,-525 715,-549 1153,-549 1153,-525 715,-525"/>
<polygon fill="none" stroke="black" points="715,-525 715,-549 1153,-549 1153,-525 715,-525"/>
<text text-anchor="start" x="719" y="-533.2" font-family="Times,serif" font-size="16.00">Time to be highly productive is measured in months</text>
<polygon fill="#ffb90f" stroke="transparent" points="715,-499 715,-523 1153,-523 1153,-499 715,-499"/>
<polygon fill="none" stroke="black" points="715,-499 715,-523 1153,-523 1153,-499 715,-499"/>
<text text-anchor="start" x="725.5" y="-507.2" font-family="Times,serif" font-size="16.00">Clear transition paths from other major languages</text>
<polygon fill="cornsilk" stroke="transparent" points="715,-473 715,-497 802,-497 802,-473 715,-473"/>
<polygon fill="none" stroke="black" points="715,-473 715,-497 802,-497 802,-473 715,-473"/>
<text text-anchor="start" x="735.5" y="-481.2" font-family="Times,serif" font-size="16.00">▮▮▮▮▮</text>
<polygon fill="cornsilk" stroke="transparent" points="804,-473 804,-497 1153,-497 1153,-473 804,-473"/>
<polygon fill="none" stroke="black" points="804,-473 804,-497 1153,-497 1153,-473 804,-473"/>
<text text-anchor="start" x="841.5" y="-481.2" font-family="Times,serif" font-size="16.00">Rust beginner learning materials</text>
<polygon fill="cornsilk" stroke="transparent" points="715,-447 715,-471 802,-471 802,-447 715,-447"/>
<polygon fill="none" stroke="black" points="715,-447 715,-471 802,-471 802,-447 715,-447"/>
<text text-anchor="start" x="735.5" y="-455.2" font-family="Times,serif" font-size="16.00">▮▮▮▯▯</text>
<polygon fill="cornsilk" stroke="transparent" points="804,-447 804,-471 1153,-471 1153,-447 804,-447"/>
<polygon fill="none" stroke="black" points="804,-447 804,-471 1153,-471 1153,-447 804,-447"/>
<text text-anchor="start" x="825" y="-455.2" font-family="Times,serif" font-size="16.00">Rust intermediate learning materials</text>
<polygon fill="cornsilk" stroke="transparent" points="715,-421 715,-445 802,-445 802,-421 715,-421"/>
<polygon fill="none" stroke="black" points="715,-421 715,-445 802,-445 802,-421 715,-421"/>
<text text-anchor="start" x="735.5" y="-429.2" font-family="Times,serif" font-size="16.00">▯▯▯▯▯</text>
<polygon fill="cornsilk" stroke="transparent" points="804,-421 804,-445 1153,-445 1153,-421 804,-421"/>
<polygon fill="none" stroke="black" points="804,-421 804,-445 1153,-445 1153,-421 804,-421"/>
<text text-anchor="start" x="896.5" y="-429.2" font-family="Times,serif" font-size="16.00">Java transition path</text>
<polygon fill="cornsilk" stroke="transparent" points="715,-395 715,-419 802,-419 802,-395 715,-395"/>
<polygon fill="none" stroke="black" points="715,-395 715,-419 802,-419 802,-395 715,-395"/>
<text text-anchor="start" x="735.5" y="-403.2" font-family="Times,serif" font-size="16.00">▮▮▯▯▯</text>
<polygon fill="cornsilk" stroke="transparent" points="804,-395 804,-419 1153,-419 1153,-395 804,-395"/>
<polygon fill="none" stroke="black" points="804,-395 804,-419 1153,-419 1153,-395 804,-395"/>
<text text-anchor="start" x="894.5" y="-403.2" font-family="Times,serif" font-size="16.00">C++ transition path</text>
<polygon fill="cornsilk" stroke="transparent" points="715,-369 715,-393 802,-393 802,-369 715,-369"/>
<polygon fill="none" stroke="black" points="715,-369 715,-393 802,-393 802,-369 715,-369"/>
<text text-anchor="start" x="735.5" y="-377.2" font-family="Times,serif" font-size="16.00">▮▮▯▯▯</text>
<polygon fill="cornsilk" stroke="transparent" points="804,-369 804,-393 1153,-393 1153,-369 804,-369"/>
<polygon fill="none" stroke="black" points="804,-369 804,-393 1153,-393 1153,-369 804,-369"/>
<text text-anchor="start" x="837.5" y="-377.2" font-family="Times,serif" font-size="16.00">Dynamic language transition path</text>
<polygon fill="none" stroke="black" points="712,-366 712,-578 1156,-578 1156,-366 712,-366"/>
</g>
<!-- async&#45;stack&#45;&gt;onboarding&#45;time -->
<g id="edge5" class="edge">
<title>async&#45;stack&#45;&gt;onboarding&#45;time</title>
<path fill="none" stroke="black" d="M1001.99,-613.87C997.73,-605.06 993.45,-596.17 989.2,-587.38"/>
<polygon fill="black" stroke="black" points="992.3,-585.75 984.8,-578.26 986,-588.79 992.3,-585.75"/>
</g>
<!-- well&#45;integrated&#45;into&#45;internet&#45;services -->
<g id="node9" class="node">
<title>well&#45;integrated&#45;into&#45;internet&#45;services</title>
<polygon fill="darkgoldenrod" stroke="transparent" points="635,-303 635,-327 1256,-327 1256,-303 635,-303"/>
<polygon fill="none" stroke="black" points="635,-303 635,-327 1256,-327 1256,-303 635,-303"/>
<text text-anchor="start" x="760.5" y="-311.2" font-family="Times,serif" font-size="16.00">Rust is well integrated into internet services</text>
<polygon fill="#ffb90f" stroke="transparent" points="635,-277 635,-301 1256,-301 1256,-277 635,-277"/>
<polygon fill="none" stroke="black" points="635,-277 635,-301 1256,-301 1256,-277 635,-277"/>
<text text-anchor="start" x="639" y="-285.2" font-family="Times,serif" font-size="16.00">SDKs for interacting with web services are readily available and complete</text>
<polygon fill="#ffb90f" stroke="transparent" points="635,-251 635,-275 1256,-275 1256,-251 635,-251"/>
<polygon fill="none" stroke="black" points="635,-251 635,-275 1256,-275 1256,-251 635,-251"/>
<text text-anchor="start" x="698" y="-259.2" font-family="Times,serif" font-size="16.00">FaaS platforms have first&#45;class, convenient support for Rust</text>
<polygon fill="cornsilk" stroke="transparent" points="635,-225 635,-249 874,-249 874,-225 635,-225"/>
<polygon fill="none" stroke="black" points="635,-225 635,-249 874,-249 874,-225 635,-225"/>
<text text-anchor="start" x="731.5" y="-233.2" font-family="Times,serif" font-size="16.00">▮▮▯▯▯</text>
<polygon fill="cornsilk" stroke="transparent" points="876,-225 876,-249 1256,-249 1256,-225 876,-225"/>
<polygon fill="none" stroke="black" points="876,-225 876,-249 1256,-249 1256,-225 876,-225"/>
<text text-anchor="start" x="956" y="-233.2" font-family="Times,serif" font-size="16.00">First&#45;class support in AWS</text>
<polygon fill="cornsilk" stroke="transparent" points="635,-199 635,-223 874,-223 874,-199 635,-199"/>
<polygon fill="none" stroke="black" points="635,-199 635,-223 874,-223 874,-199 635,-199"/>
<text text-anchor="start" x="710.5" y="-207.2" font-family="Times,serif" font-size="16.00">(not sure!)</text>
<polygon fill="cornsilk" stroke="transparent" points="876,-199 876,-223 1256,-223 1256,-199 876,-199"/>
<polygon fill="none" stroke="black" points="876,-199 876,-223 1256,-223 1256,-199 876,-199"/>
<text text-anchor="start" x="952" y="-207.2" font-family="Times,serif" font-size="16.00">First&#45;class support in Azure</text>
<polygon fill="cornsilk" stroke="transparent" points="635,-173 635,-197 874,-197 874,-173 635,-173"/>
<polygon fill="none" stroke="black" points="635,-173 635,-197 874,-197 874,-173 635,-173"/>
<text text-anchor="start" x="710.5" y="-181.2" font-family="Times,serif" font-size="16.00">(not sure!)</text>
<polygon fill="cornsilk" stroke="transparent" points="876,-173 876,-197 1256,-197 1256,-173 876,-173"/>
<polygon fill="none" stroke="black" points="876,-173 876,-197 1256,-197 1256,-173 876,-173"/>
<text text-anchor="start" x="958" y="-181.2" font-family="Times,serif" font-size="16.00">First&#45;class support in GCP</text>
<polygon fill="none" stroke="black" points="631.5,-170 631.5,-330 1258.5,-330 1258.5,-170 631.5,-170"/>
</g>
<!-- onboarding&#45;time&#45;&gt;well&#45;integrated&#45;into&#45;internet&#45;services -->
<g id="edge9" class="edge">
<title>onboarding&#45;time&#45;&gt;well&#45;integrated&#45;into&#45;internet&#45;services</title>
<path fill="none" stroke="black" d="M939.26,-365.83C939.69,-357.27 940.12,-348.67 940.54,-340.24"/>
<polygon fill="black" stroke="black" points="944.04,-340.22 941.05,-330.05 937.05,-339.87 944.04,-340.22"/>
</g>
<!-- goal&#45;internet&#45;services -->
<g id="node10" class="node">
<title>goal&#45;internet&#45;services</title>
<polygon fill="darkgoldenrod" stroke="transparent" points="490,-107 490,-131 1059,-131 1059,-107 490,-107"/>
<polygon fill="none" stroke="black" points="490,-107 490,-131 1059,-131 1059,-107 490,-107"/>
<text text-anchor="start" x="583" y="-115.2" font-family="Times,serif" font-size="16.00">🎯 Rust a common choice for internet services</text>
<polygon fill="#ffb90f" stroke="transparent" points="490,-81 490,-105 1059,-105 1059,-81 490,-81"/>
<polygon fill="none" stroke="black" points="490,-81 490,-105 1059,-105 1059,-81 490,-81"/>
<text text-anchor="start" x="576.5" y="-89.2" font-family="Times,serif" font-size="16.00">Operating costs and carbon impact are reduced</text>
<polygon fill="#ffb90f" stroke="transparent" points="490,-55 490,-79 1059,-79 1059,-55 490,-55"/>
<polygon fill="none" stroke="black" points="490,-55 490,-79 1059,-79 1059,-55 490,-55"/>
<text text-anchor="start" x="536.5" y="-63.2" font-family="Times,serif" font-size="16.00">Rate of vulnerabilities and high priority errors is reduced</text>
<polygon fill="cornsilk" stroke="transparent" points="490,-29 490,-53 542,-53 542,-29 490,-29"/>
<polygon fill="none" stroke="black" points="490,-29 490,-53 542,-53 542,-29 490,-29"/>
<text text-anchor="start" x="493" y="-37.2" font-family="Times,serif" font-size="16.00">▮▮▯▯▯</text>
<polygon fill="cornsilk" stroke="transparent" points="544,-29 544,-53 1059,-53 1059,-29 544,-29"/>
<polygon fill="none" stroke="black" points="544,-29 544,-53 1059,-53 1059,-29 544,-29"/>
<text text-anchor="start" x="585.5" y="-37.2" font-family="Times,serif" font-size="16.00">Rust a common choice for building internet services</text>
<polygon fill="cornsilk" stroke="transparent" points="490,-3 490,-27 542,-27 542,-3 490,-3"/>
<polygon fill="none" stroke="black" points="490,-3 490,-27 542,-27 542,-3 490,-3"/>
<text text-anchor="start" x="493" y="-11.2" font-family="Times,serif" font-size="16.00">▯▯▯▯▯</text>
<polygon fill="cornsilk" stroke="transparent" points="544,-3 544,-27 1059,-27 1059,-3 544,-3"/>
<polygon fill="none" stroke="black" points="544,-3 544,-27 1059,-27 1059,-3 544,-3"/>
<text text-anchor="start" x="547" y="-11.2" font-family="Times,serif" font-size="16.00">Rust a common choice for code that runs on internet services</text>
<polygon fill="none" stroke="black" points="486.5,0 486.5,-134 1061.5,-134 1061.5,0 486.5,0"/>
</g>
<!-- onboarding&#45;time&#45;&gt;goal&#45;internet&#45;services -->
<g id="edge10" class="edge">
<title>onboarding&#45;time&#45;&gt;goal&#45;internet&#45;services</title>
<path fill="none" stroke="black" d="M711.81,-409.51C676.21,-389.83 643.92,-363.96 622,-330 583.44,-270.25 588.54,-232.75 622,-170 627.55,-159.59 634.68,-150.06 642.83,-141.37"/>
<polygon fill="black" stroke="black" points="645.32,-143.82 649.89,-134.26 640.36,-138.89 645.32,-143.82"/>
</g>
<!-- goal&#45;embedded -->
<g id="node11" class="node">
<title>goal&#45;embedded</title>
<polygon fill="darkgoldenrod" stroke="transparent" points="1280,-251 1280,-275 1724,-275 1724,-251 1280,-251"/>
<polygon fill="none" stroke="black" points="1280,-251 1280,-275 1724,-275 1724,-251 1280,-251"/>
<text text-anchor="start" x="1284" y="-259.2" font-family="Times,serif" font-size="16.00">🎯 Rust a common choice for embedded applications</text>
<polygon fill="#ffb90f" stroke="transparent" points="1280,-225 1280,-249 1724,-249 1724,-225 1280,-225"/>
<polygon fill="none" stroke="black" points="1280,-225 1280,-249 1724,-249 1724,-225 1280,-225"/>
<text text-anchor="start" x="1497.5" y="-233.2" font-family="Times,serif" font-size="16.00">?</text>
<polygon fill="none" stroke="black" points="1277,-222 1277,-278 1727,-278 1727,-222 1277,-222"/>
</g>
<!-- onboarding&#45;time&#45;&gt;goal&#45;embedded -->
<g id="edge14" class="edge">
<title>onboarding&#45;time&#45;&gt;goal&#45;embedded</title>
<path fill="none" stroke="black" d="M1156.05,-369.58C1159.05,-368.37 1162.03,-367.18 1165,-366 1188.55,-356.65 1320.15,-312.11 1411.75,-281.29"/>
<polygon fill="black" stroke="black" points="1412.96,-284.58 1421.32,-278.07 1410.73,-277.94 1412.96,-284.58"/>
</g>
<!-- dev&#45;tooling&#45;&gt;onboarding&#45;time -->
<g id="edge4" class="edge">
<title>dev&#45;tooling&#45;&gt;onboarding&#45;time</title>
<path fill="none" stroke="black" d="M717.79,-626.84C737.61,-612.74 757.99,-598.24 777.95,-584.04"/>
<polygon fill="black" stroke="black" points="780.05,-586.84 786.17,-578.19 775.99,-581.13 780.05,-586.84"/>
</g>
<!-- prod&#45;tooling -->
<g id="node7" class="node">
<title>prod&#45;tooling</title>
<polygon fill="darkgoldenrod" stroke="transparent" points="3,-277 3,-301 573,-301 573,-277 3,-277"/>
<polygon fill="none" stroke="black" points="3,-277 3,-301 573,-301 573,-277 3,-277"/>
<text text-anchor="start" x="211" y="-285.2" font-family="Times,serif" font-size="16.00">Production tooling</text>
<polygon fill="#ffb90f" stroke="transparent" points="3,-251 3,-275 573,-275 573,-251 3,-251"/>
<polygon fill="none" stroke="black" points="3,-251 3,-275 573,-275 573,-251 3,-251"/>
<text text-anchor="start" x="11.5" y="-259.2" font-family="Times,serif" font-size="16.00">Able to troubleshoot correctness problems that arise in production</text>
<polygon fill="#ffb90f" stroke="transparent" points="3,-225 3,-249 573,-249 573,-225 3,-225"/>
<polygon fill="none" stroke="black" points="3,-225 3,-249 573,-249 573,-225 3,-225"/>
<text text-anchor="start" x="7" y="-233.2" font-family="Times,serif" font-size="16.00">Able to troubleshoot performance problems that arise in production</text>
<polygon fill="cornsilk" stroke="transparent" points="3,-199 3,-223 310,-223 310,-199 3,-199"/>
<polygon fill="none" stroke="black" points="3,-199 3,-223 310,-223 310,-199 3,-199"/>
<text text-anchor="start" x="133.5" y="-207.2" font-family="Times,serif" font-size="16.00">▯▯▯▯▯</text>
<polygon fill="cornsilk" stroke="transparent" points="312,-199 312,-223 573,-223 573,-199 312,-199"/>
<polygon fill="none" stroke="black" points="312,-199 312,-223 573,-223 573,-199 312,-199"/>
<polygon fill="none" stroke="black" points="0,-196 0,-304 576,-304 576,-196 0,-196"/>
</g>
<!-- dev&#45;tooling&#45;&gt;prod&#45;tooling -->
<g id="edge7" class="edge">
<title>dev&#45;tooling&#45;&gt;prod&#45;tooling</title>
<path fill="none" stroke="black" d="M508.29,-626.74C452.02,-530.77 370.79,-392.22 324.31,-312.94"/>
<polygon fill="black" stroke="black" points="327.18,-310.9 319.1,-304.04 321.14,-314.44 327.18,-310.9"/>
</g>
<!-- prod&#45;tooling&#45;&gt;goal&#45;internet&#45;services -->
<g id="edge12" class="edge">
<title>prod&#45;tooling&#45;&gt;goal&#45;internet&#45;services</title>
<path fill="none" stroke="black" d="M430.53,-195.92C479.44,-177.7 534.95,-157.03 586.86,-137.7"/>
<polygon fill="black" stroke="black" points="588.35,-140.87 596.5,-134.1 585.91,-134.31 588.35,-140.87"/>
</g>
<!-- high&#45;assurance&#45;&gt;goal&#45;internet&#45;services -->
<g id="edge13" class="edge">
<title>high&#45;assurance&#45;&gt;goal&#45;internet&#45;services</title>
<path fill="none" stroke="black" d="M1696.79,-378.9C1712.3,-364.55 1725.89,-348.3 1736,-330 1770.37,-267.75 1783.56,-222.87 1736,-170 1691.76,-120.82 1337.67,-93.55 1071.83,-79.84"/>
<polygon fill="black" stroke="black" points="1071.79,-76.33 1061.62,-79.31 1071.43,-83.32 1071.79,-76.33"/>
</g>
<!-- high&#45;assurance&#45;&gt;goal&#45;embedded -->
<g id="edge15" class="edge">
<title>high&#45;assurance&#45;&gt;goal&#45;embedded</title>
<path fill="none" stroke="black" d="M1507.82,-378.97C1506.37,-347.24 1504.84,-313.46 1503.71,-288.58"/>
<polygon fill="black" stroke="black" points="1507.2,-288.32 1503.25,-278.49 1500.21,-288.64 1507.2,-288.32"/>
</g>
<!-- well&#45;integrated&#45;into&#45;internet&#45;services&#45;&gt;goal&#45;internet&#45;services -->
<g id="edge11" class="edge">
<title>well&#45;integrated&#45;into&#45;internet&#45;services&#45;&gt;goal&#45;internet&#45;services</title>
<path fill="none" stroke="black" d="M870.25,-169.87C861.38,-160.49 852.36,-150.94 843.57,-141.64"/>
<polygon fill="black" stroke="black" points="845.99,-139.11 836.58,-134.24 840.91,-143.91 845.99,-139.11"/>
</g>
</g>
</svg>
