<?xml version="1.0" encoding="UTF-8" standalone="no"?>
<!DOCTYPE svg PUBLIC "-//W3C//DTD SVG 1.1//EN"
 "http://www.w3.org/Graphics/SVG/1.1/DTD/svg11.dtd">
<!-- Generated by graphviz version 2.43.0 (0)
 -->
<!-- Title: g Pages: 1 -->
<svg width="1858pt" height="1382pt"
 viewBox="0.00 0.00 1857.50 1382.00" xmlns="http://www.w3.org/2000/svg" xmlns:xlink="http://www.w3.org/1999/xlink">
<g id="graph0" class="graph" transform="scale(1 1) rotate(0) translate(4 1378)">
<title>g</title>
<polygon fill="white" stroke="transparent" points="-4,4 -4,-1378 1853.5,-1378 1853.5,4 -4,4"/>
<!-- fundamentals -->
<g id="node1" class="node">
<title>fundamentals</title>
<polygon fill="darkgoldenrod" stroke="transparent" points="874,-1347 874,-1371 1264,-1371 1264,-1347 874,-1347"/>
<polygon fill="none" stroke="black" points="874,-1347 874,-1371 1264,-1371 1264,-1347 874,-1347"/>
<text text-anchor="start" x="973.5" y="-1355.2" font-family="Times,serif" font-size="16.00">Rust fundamenta, stals</text>
<polygon fill="#ffb90f" stroke="transparent" points="874,-1321 874,-1345 1264,-1345 1264,-1321 874,-1321"/>
<polygon fill="none" stroke="black" points="874,-1321 874,-1345 1264,-1345 1264,-1321 874,-1321"/>
<text text-anchor="start" x="927" y="-1329.2" font-family="Times,serif" font-size="16.00">Easy to contribute to the compiler</text>
<polygon fill="#ffb90f" stroke="transparent" points="874,-1295 874,-1319 1264,-1319 1264,-1295 874,-1295"/>
<polygon fill="none" stroke="black" points="874,-1295 874,-1319 1264,-1319 1264,-1295 874,-1295"/>
<text text-anchor="start" x="915" y="-1303.2" font-family="Times,serif" font-size="16.00">Language semantics well understood</text>
<polygon fill="#ffb90f" stroke="transparent" points="874,-1269 874,-1293 1264,-1293 1264,-1269 874,-1269"/>
<polygon fill="none" stroke="black" points="874,-1269 874,-1293 1264,-1293 1264,-1269 874,-1269"/>
<text text-anchor="start" x="878" y="-1277.2" font-family="Times,serif" font-size="16.00">Extending language possible by mere humans</text>
<polygon fill="cornsilk" stroke="transparent" points="874,-1243 874,-1267 927,-1267 927,-1243 874,-1243"/>
<polygon fill="none" stroke="black" points="874,-1243 874,-1267 927,-1267 927,-1243 874,-1243"/>
<text text-anchor="start" x="877.5" y="-1251.2" font-family="Times,serif" font-size="16.00">▮▮▮▯▯</text>
<polygon fill="cornsilk" stroke="transparent" points="929,-1243 929,-1267 1264,-1267 1264,-1243 929,-1243"/>
<polygon fill="none" stroke="black" points="929,-1243 929,-1267 1264,-1267 1264,-1243 929,-1243"/>
<text text-anchor="start" x="932.5" y="-1251.2" font-family="Times,serif" font-size="16.00">Compiler libraries for MIR, types, traits</text>
<polygon fill="cornsilk" stroke="transparent" points="874,-1217 874,-1241 927,-1241 927,-1217 874,-1217"/>
<polygon fill="none" stroke="black" points="874,-1217 874,-1241 927,-1241 927,-1217 874,-1217"/>
<text text-anchor="start" x="877.5" y="-1225.2" font-family="Times,serif" font-size="16.00">▮▯▯▯▯</text>
<polygon fill="cornsilk" stroke="transparent" points="929,-1217 929,-1241 1264,-1241 1264,-1217 929,-1217"/>
<polygon fill="none" stroke="black" points="929,-1217 929,-1241 1264,-1241 1264,-1217 929,-1217"/>
<text text-anchor="start" x="958" y="-1225.2" font-family="Times,serif" font-size="16.00">Core Rust semantics documented</text>
<polygon fill="cornsilk" stroke="transparent" points="874,-1191 874,-1215 927,-1215 927,-1191 874,-1191"/>
<polygon fill="none" stroke="black" points="874,-1191 874,-1215 927,-1215 927,-1191 874,-1191"/>
<text text-anchor="start" x="877.5" y="-1199.2" font-family="Times,serif" font-size="16.00">▮▯▯▯▯</text>
<polygon fill="cornsilk" stroke="transparent" points="929,-1191 929,-1215 1264,-1215 1264,-1191 929,-1191"/>
<polygon fill="none" stroke="black" points="929,-1191 929,-1215 1264,-1215 1264,-1191 929,-1191"/>
<text text-anchor="start" x="1018" y="-1199.2" font-family="Times,serif" font-size="16.00">Proof of soundness</text>
<polygon fill="cornsilk" stroke="transparent" points="874,-1165 874,-1189 927,-1189 927,-1165 874,-1165"/>
<polygon fill="none" stroke="black" points="874,-1165 874,-1189 927,-1189 927,-1165 874,-1165"/>
<text text-anchor="start" x="877.5" y="-1173.2" font-family="Times,serif" font-size="16.00">▮▮▯▯▯</text>
<polygon fill="cornsilk" stroke="transparent" points="929,-1165 929,-1189 1264,-1189 1264,-1165 929,-1165"/>
<polygon fill="none" stroke="black" points="929,-1165 929,-1189 1264,-1189 1264,-1165 929,-1165"/>
<text text-anchor="start" x="1000" y="-1173.2" font-family="Times,serif" font-size="16.00">Unsafe code guidelines</text>
<polygon fill="none" stroke="black" points="871,-1162 871,-1374 1267,-1374 1267,-1162 871,-1162"/>
</g>
<!-- core&#45;lang -->
<g id="node2" class="node">
<title>core&#45;lang</title>
<polygon fill="darkgoldenrod" stroke="transparent" points="800,-1099 800,-1123 1338,-1123 1338,-1099 800,-1099"/>
<polygon fill="none" stroke="black" points="800,-1099 800,-1123 1338,-1123 1338,-1099 800,-1099"/>
<text text-anchor="start" x="947" y="-1107.2" font-family="Times,serif" font-size="16.00">Core language improvements</text>
<polygon fill="#ffb90f" stroke="transparent" points="800,-1073 800,-1097 1338,-1097 1338,-1073 800,-1073"/>
<polygon fill="none" stroke="black" points="800,-1073 800,-1097 1338,-1097 1338,-1073 800,-1073"/>
<text text-anchor="start" x="927" y="-1081.2" font-family="Times,serif" font-size="16.00">Easy to contribute to the compiler</text>
<polygon fill="cornsilk" stroke="transparent" points="800,-1047 800,-1071 852,-1071 852,-1047 800,-1047"/>
<polygon fill="none" stroke="black" points="800,-1047 800,-1071 852,-1071 852,-1047 800,-1047"/>
<text text-anchor="start" x="803" y="-1055.2" font-family="Times,serif" font-size="16.00">▮▮▯▯▯</text>
<polygon fill="cornsilk" stroke="transparent" points="854,-1047 854,-1071 1338,-1071 1338,-1047 854,-1047"/>
<polygon fill="none" stroke="black" points="854,-1047 854,-1071 1338,-1071 1338,-1047 854,-1047"/>
<text text-anchor="start" x="857" y="-1055.2" font-family="Times,serif" font-size="16.00">Dynamic dispatch (dyn trait) more powerful, easier to use</text>
<polygon fill="cornsilk" stroke="transparent" points="800,-1021 800,-1045 852,-1045 852,-1021 800,-1021"/>
<polygon fill="none" stroke="black" points="800,-1021 800,-1045 852,-1045 852,-1021 800,-1021"/>
<text text-anchor="start" x="803" y="-1029.2" font-family="Times,serif" font-size="16.00">▮▮▯▯▯</text>
<polygon fill="cornsilk" stroke="transparent" points="854,-1021 854,-1045 1338,-1045 1338,-1021 854,-1021"/>
<polygon fill="none" stroke="black" points="854,-1021 854,-1045 1338,-1045 1338,-1021 854,-1021"/>
<text text-anchor="start" x="1037.5" y="-1029.2" font-family="Times,serif" font-size="16.00">Specialization</text>
<polygon fill="cornsilk" stroke="transparent" points="800,-995 800,-1019 852,-1019 852,-995 800,-995"/>
<polygon fill="none" stroke="black" points="800,-995 800,-1019 852,-1019 852,-995 800,-995"/>
<text text-anchor="start" x="803" y="-1003.2" font-family="Times,serif" font-size="16.00">▮▮▯▯▯</text>
<polygon fill="cornsilk" stroke="transparent" points="854,-995 854,-1019 1338,-1019 1338,-995 854,-995"/>
<polygon fill="none" stroke="black" points="854,-995 854,-1019 1338,-1019 1338,-995 854,-995"/>
<text text-anchor="start" x="1032" y="-1003.2" font-family="Times,serif" font-size="16.00">Implied bounds</text>
<polygon fill="cornsilk" stroke="transparent" points="800,-969 800,-993 852,-993 852,-969 800,-969"/>
<polygon fill="none" stroke="black" points="800,-969 800,-993 852,-993 852,-969 800,-969"/>
<text text-anchor="start" x="803" y="-977.2" font-family="Times,serif" font-size="16.00">▮▮▮▯▯</text>
<polygon fill="cornsilk" stroke="transparent" points="854,-969 854,-993 1338,-993 1338,-969 854,-969"/>
<polygon fill="none" stroke="black" points="854,-969 854,-993 1338,-993 1338,-969 854,-969"/>
<text text-anchor="start" x="963.5" y="-977.2" font-family="Times,serif" font-size="16.00">Generic associated types (GATs)</text>
<polygon fill="cornsilk" stroke="transparent" points="800,-943 800,-967 852,-967 852,-943 800,-943"/>
<polygon fill="none" stroke="black" points="800,-943 800,-967 852,-967 852,-943 800,-943"/>
<text text-anchor="start" x="803" y="-951.2" font-family="Times,serif" font-size="16.00">▮▮▮▮▯</text>
<polygon fill="cornsilk" stroke="transparent" points="854,-943 854,-967 1338,-967 1338,-943 854,-943"/>
<polygon fill="none" stroke="black" points="854,-943 854,-967 1338,-967 1338,-943 854,-943"/>
<text text-anchor="start" x="1056.5" y="-951.2" font-family="Times,serif" font-size="16.00">Impl trait</text>
<polygon fill="cornsilk" stroke="transparent" points="800,-917 800,-941 852,-941 852,-917 800,-917"/>
<polygon fill="none" stroke="black" points="800,-917 800,-941 852,-941 852,-917 800,-917"/>
<text text-anchor="start" x="803" y="-925.2" font-family="Times,serif" font-size="16.00">▮▮▯▯▯</text>
<polygon fill="cornsilk" stroke="transparent" points="854,-917 854,-941 1338,-941 1338,-917 854,-917"/>
<polygon fill="none" stroke="black" points="854,-917 854,-941 1338,-941 1338,-917 854,-917"/>
<text text-anchor="start" x="966" y="-925.2" font-family="Times,serif" font-size="16.00">Threaded contexts, capabilities</text>
<polygon fill="none" stroke="black" points="797,-914 797,-1126 1341,-1126 1341,-914 797,-914"/>
</g>
<!-- fundamentals&#45;&gt;core&#45;lang -->
<g id="edge1" class="edge">
<title>fundamentals&#45;&gt;core&#45;lang</title>
<path fill="none" stroke="black" d="M1069,-1161.96C1069,-1153.42 1069,-1144.76 1069,-1136.15"/>
<polygon fill="black" stroke="black" points="1072.5,-1136.08 1069,-1126.08 1065.5,-1136.08 1072.5,-1136.08"/>
</g>
<!-- dev&#45;tooling -->
<g id="node5" class="node">
<title>dev&#45;tooling</title>
<polygon fill="darkgoldenrod" stroke="transparent" points="234,-825 234,-849 760,-849 760,-825 234,-825"/>
<polygon fill="none" stroke="black" points="234,-825 234,-849 760,-849 760,-825 234,-825"/>
<text text-anchor="start" x="423" y="-833.2" font-family="Times,serif" font-size="16.00">Developer tooling</text>
<polygon fill="#ffb90f" stroke="transparent" points="234,-799 234,-823 760,-823 760,-799 234,-799"/>
<polygon fill="none" stroke="black" points="234,-799 234,-823 760,-823 760,-799 234,-799"/>
<text text-anchor="start" x="264" y="-807.2" font-family="Times,serif" font-size="16.00">Able to understand programs in terms of async behavior</text>
<polygon fill="#ffb90f" stroke="transparent" points="234,-773 234,-797 760,-797 760,-773 234,-773"/>
<polygon fill="none" stroke="black" points="234,-773 234,-797 760,-797 760,-773 234,-773"/>
<text text-anchor="start" x="242.5" y="-781.2" font-family="Times,serif" font-size="16.00">Able to fix correctness problems in development environment</text>
<polygon fill="#ffb90f" stroke="transparent" points="234,-747 234,-771 760,-771 760,-747 234,-747"/>
<polygon fill="none" stroke="black" points="234,-747 234,-771 760,-771 760,-747 234,-747"/>
<text text-anchor="start" x="238" y="-755.2" font-family="Times,serif" font-size="16.00">Able to fix performance problems in development environment</text>
<polygon fill="cornsilk" stroke="transparent" points="234,-721 234,-745 320,-745 320,-721 234,-721"/>
<polygon fill="none" stroke="black" points="234,-721 234,-745 320,-745 320,-721 234,-721"/>
<text text-anchor="start" x="254" y="-729.2" font-family="Times,serif" font-size="16.00">▮▮▯▯▯</text>
<polygon fill="cornsilk" stroke="transparent" points="322,-721 322,-745 760,-745 760,-721 322,-721"/>
<polygon fill="none" stroke="black" points="322,-721 322,-745 760,-745 760,-721 322,-721"/>
<text text-anchor="start" x="447.5" y="-729.2" font-family="Times,serif" font-size="16.00">Quality Rust debugger</text>
<polygon fill="cornsilk" stroke="transparent" points="234,-695 234,-719 320,-719 320,-695 234,-695"/>
<polygon fill="none" stroke="black" points="234,-695 234,-719 320,-719 320,-695 234,-695"/>
<text text-anchor="start" x="254" y="-703.2" font-family="Times,serif" font-size="16.00">▮▮▮▮▯</text>
<polygon fill="cornsilk" stroke="transparent" points="322,-695 322,-719 760,-719 760,-695 322,-695"/>
<polygon fill="none" stroke="black" points="322,-695 322,-719 760,-719 760,-695 322,-695"/>
<text text-anchor="start" x="378.5" y="-703.2" font-family="Times,serif" font-size="16.00">Rust well integrated into common IDEs</text>
<polygon fill="cornsilk" stroke="transparent" points="234,-669 234,-693 320,-693 320,-669 234,-669"/>
<polygon fill="none" stroke="black" points="234,-669 234,-693 320,-693 320,-669 234,-669"/>
<text text-anchor="start" x="254" y="-677.2" font-family="Times,serif" font-size="16.00">▮▮▮▯▯</text>
<polygon fill="cornsilk" stroke="transparent" points="322,-669 322,-693 760,-693 760,-669 322,-669"/>
<polygon fill="none" stroke="black" points="322,-669 322,-693 760,-693 760,-669 322,-669"/>
<text text-anchor="start" x="342" y="-677.2" font-family="Times,serif" font-size="16.00">Async runtime observability (e.g., tokio console)</text>
<polygon fill="cornsilk" stroke="transparent" points="234,-643 234,-667 320,-667 320,-643 234,-643"/>
<polygon fill="none" stroke="black" points="234,-643 234,-667 320,-667 320,-643 234,-643"/>
<text text-anchor="start" x="254" y="-651.2" font-family="Times,serif" font-size="16.00">▮▮▯▯▯</text>
<polygon fill="cornsilk" stroke="transparent" points="322,-643 322,-667 760,-667 760,-643 322,-643"/>
<polygon fill="none" stroke="black" points="322,-643 322,-667 760,-667 760,-643 322,-643"/>
<text text-anchor="start" x="390.5" y="-651.2" font-family="Times,serif" font-size="16.00">Profilers for CPU and memory usage</text>
<polygon fill="none" stroke="black" points="231,-640 231,-852 763,-852 763,-640 231,-640"/>
</g>
<!-- fundamentals&#45;&gt;dev&#45;tooling -->
<g id="edge5" class="edge">
<title>fundamentals&#45;&gt;dev&#45;tooling</title>
<path fill="none" stroke="black" d="M870.73,-1181.87C841.61,-1165.37 813.04,-1146.69 788,-1126 697.3,-1051.06 617.77,-942.82 564.89,-861.19"/>
<polygon fill="black" stroke="black" points="567.57,-858.89 559.21,-852.37 561.68,-862.68 567.57,-858.89"/>
</g>
<!-- high&#45;assurance -->
<g id="node7" class="node">
<title>high&#45;assurance</title>
<polygon fill="darkgoldenrod" stroke="transparent" points="1178,-538 1178,-562 1847,-562 1847,-538 1178,-538"/>
<polygon fill="none" stroke="black" points="1178,-538 1178,-562 1847,-562 1847,-538 1178,-538"/>
<text text-anchor="start" x="1426.5" y="-546.2" font-family="Times,serif" font-size="16.00">High assurance Rust</text>
<polygon fill="#ffb90f" stroke="transparent" points="1178,-512 1178,-536 1847,-536 1847,-512 1178,-512"/>
<polygon fill="none" stroke="black" points="1178,-512 1178,-536 1847,-536 1847,-512 1178,-512"/>
<text text-anchor="start" x="1182" y="-520.2" font-family="Times,serif" font-size="16.00">Developers extending Rust with unsafe Rust can prove these extensions correct</text>
<polygon fill="#ffb90f" stroke="transparent" points="1178,-486 1178,-510 1847,-510 1847,-486 1178,-486"/>
<polygon fill="none" stroke="black" points="1178,-486 1178,-510 1847,-510 1847,-486 1178,-486"/>
<text text-anchor="start" x="1226.5" y="-494.2" font-family="Times,serif" font-size="16.00">Developers can prove their Rust code meets functional specifications</text>
<polygon fill="#ffb90f" stroke="transparent" points="1178,-460 1178,-484 1847,-484 1847,-460 1178,-460"/>
<polygon fill="none" stroke="black" points="1178,-460 1178,-484 1847,-484 1847,-460 1178,-460"/>
<text text-anchor="start" x="1275" y="-468.2" font-family="Times,serif" font-size="16.00">Developers can prove their Rust code meets specification</text>
<polygon fill="cornsilk" stroke="transparent" points="1178,-434 1178,-458 1353,-458 1353,-434 1178,-434"/>
<polygon fill="none" stroke="black" points="1178,-434 1178,-458 1353,-458 1353,-434 1178,-434"/>
<text text-anchor="start" x="1242.5" y="-442.2" font-family="Times,serif" font-size="16.00">▮▯▯▯▯</text>
<polygon fill="cornsilk" stroke="transparent" points="1355,-434 1355,-458 1847,-458 1847,-434 1355,-434"/>
<polygon fill="none" stroke="black" points="1355,-434 1355,-458 1847,-458 1847,-434 1355,-434"/>
<text text-anchor="start" x="1419.5" y="-442.2" font-family="Times,serif" font-size="16.00">Sanitizer / dynamic checker for unsafe code</text>
<polygon fill="cornsilk" stroke="transparent" points="1178,-408 1178,-432 1353,-432 1353,-408 1178,-408"/>
<polygon fill="none" stroke="black" points="1178,-408 1178,-432 1353,-432 1353,-408 1178,-408"/>
<text text-anchor="start" x="1242.5" y="-416.2" font-family="Times,serif" font-size="16.00">▮▯▯▯▯</text>
<polygon fill="cornsilk" stroke="transparent" points="1355,-408 1355,-432 1847,-432 1847,-408 1355,-408"/>
<polygon fill="none" stroke="black" points="1355,-408 1355,-432 1847,-432 1847,-408 1355,-408"/>
<text text-anchor="start" x="1482" y="-416.2" font-family="Times,serif" font-size="16.00">Model checker for Rust code</text>
<polygon fill="cornsilk" stroke="transparent" points="1178,-382 1178,-406 1353,-406 1353,-382 1178,-382"/>
<polygon fill="none" stroke="black" points="1178,-382 1178,-406 1353,-406 1353,-382 1178,-382"/>
<text text-anchor="start" x="1242.5" y="-390.2" font-family="Times,serif" font-size="16.00">▮▯▯▯▯</text>
<polygon fill="cornsilk" stroke="transparent" points="1355,-382 1355,-406 1847,-406 1847,-382 1355,-382"/>
<polygon fill="none" stroke="black" points="1355,-382 1355,-406 1847,-406 1847,-382 1355,-382"/>
<text text-anchor="start" x="1474.5" y="-390.2" font-family="Times,serif" font-size="16.00">Packages on crates.io checked</text>
<polygon fill="none" stroke="black" points="1174.5,-379 1174.5,-565 1849.5,-565 1849.5,-379 1174.5,-379"/>
</g>
<!-- fundamentals&#45;&gt;high&#45;assurance -->
<g id="edge7" class="edge">
<title>fundamentals&#45;&gt;high&#45;assurance</title>
<path fill="none" stroke="black" d="M1267.14,-1195.36C1298.38,-1176.79 1327.67,-1153.92 1350,-1126 1478.98,-964.68 1507.07,-714.67 1512.11,-575.46"/>
<polygon fill="black" stroke="black" points="1515.62,-575.33 1512.45,-565.22 1508.62,-575.1 1515.62,-575.33"/>
</g>
<!-- async&#45;lang -->
<g id="node3" class="node">
<title>async&#45;lang</title>
<polygon fill="darkgoldenrod" stroke="transparent" points="784,-851 784,-875 1354,-875 1354,-851 784,-851"/>
<polygon fill="none" stroke="black" points="784,-851 784,-875 1354,-875 1354,-851 784,-851"/>
<text text-anchor="start" x="998" y="-859.2" font-family="Times,serif" font-size="16.00">Async I/O in Rust</text>
<polygon fill="#ffb90f" stroke="transparent" points="784,-825 784,-849 1354,-849 1354,-825 784,-825"/>
<polygon fill="none" stroke="black" points="784,-825 784,-849 1354,-849 1354,-825 784,-825"/>
<text text-anchor="start" x="846.5" y="-833.2" font-family="Times,serif" font-size="16.00">Using Async I/O comparable in complexity to Sync I/O</text>
<polygon fill="#ffb90f" stroke="transparent" points="784,-799 784,-823 1354,-823 1354,-799 784,-799"/>
<polygon fill="none" stroke="black" points="784,-799 784,-823 1354,-823 1354,-799 784,-799"/>
<text text-anchor="start" x="788" y="-807.2" font-family="Times,serif" font-size="16.00">Can author and use async libraries without thinking about runtimes</text>
<polygon fill="#ffb90f" stroke="transparent" points="784,-773 784,-797 1354,-797 1354,-773 784,-773"/>
<polygon fill="none" stroke="black" points="784,-773 784,-797 1354,-797 1354,-773 784,-773"/>
<text text-anchor="start" x="843" y="-781.2" font-family="Times,serif" font-size="16.00">Access to a wide variety of useful libraries on crates.io</text>
<polygon fill="#ffb90f" stroke="transparent" points="784,-747 784,-771 1354,-771 1354,-747 784,-747"/>
<polygon fill="none" stroke="black" points="784,-747 784,-771 1354,-771 1354,-747 784,-747"/>
<text text-anchor="start" x="830" y="-755.2" font-family="Times,serif" font-size="16.00">Easy to create and experiment with a specialized runtime</text>
<polygon fill="#ffb90f" stroke="transparent" points="784,-721 784,-745 1354,-745 1354,-721 784,-721"/>
<polygon fill="none" stroke="black" points="784,-721 784,-745 1354,-745 1354,-721 784,-721"/>
<text text-anchor="start" x="806" y="-729.2" font-family="Times,serif" font-size="16.00">Full support for io&#45;uring and other high performance primitives</text>
<polygon fill="cornsilk" stroke="transparent" points="784,-695 784,-719 892,-719 892,-695 784,-695"/>
<polygon fill="none" stroke="black" points="784,-695 784,-719 892,-719 892,-695 784,-695"/>
<text text-anchor="start" x="815" y="-703.2" font-family="Times,serif" font-size="16.00">▮▮▮▯▯</text>
<polygon fill="cornsilk" stroke="transparent" points="894,-695 894,-719 1354,-719 1354,-695 894,-695"/>
<polygon fill="none" stroke="black" points="894,-695 894,-719 1354,-719 1354,-695 894,-695"/>
<text text-anchor="start" x="1003.5" y="-703.2" font-family="Times,serif" font-size="16.00">Can use async fn everywhere</text>
<polygon fill="cornsilk" stroke="transparent" points="784,-669 784,-693 892,-693 892,-669 784,-669"/>
<polygon fill="none" stroke="black" points="784,-669 784,-693 892,-693 892,-669 784,-669"/>
<text text-anchor="start" x="815" y="-677.2" font-family="Times,serif" font-size="16.00">▮▮▯▯▯</text>
<polygon fill="cornsilk" stroke="transparent" points="894,-669 894,-693 1354,-693 1354,-669 894,-669"/>
<polygon fill="none" stroke="black" points="894,-669 894,-693 1354,-693 1354,-669 894,-669"/>
<text text-anchor="start" x="925.5" y="-677.2" font-family="Times,serif" font-size="16.00">Async resource cleanup works well (async drop)</text>
<polygon fill="cornsilk" stroke="transparent" points="784,-643 784,-667 892,-667 892,-643 784,-643"/>
<polygon fill="none" stroke="black" points="784,-643 784,-667 892,-667 892,-643 784,-643"/>
<text text-anchor="start" x="815" y="-651.2" font-family="Times,serif" font-size="16.00">▮▯▯▯▯</text>
<polygon fill="cornsilk" stroke="transparent" points="894,-643 894,-667 1354,-667 1354,-643 894,-643"/>
<polygon fill="none" stroke="black" points="894,-643 894,-667 1354,-667 1354,-643 894,-643"/>
<text text-anchor="start" x="960" y="-651.2" font-family="Times,serif" font-size="16.00">Easy interoperability between runtimes</text>
<polygon fill="cornsilk" stroke="transparent" points="784,-617 784,-641 892,-641 892,-617 784,-617"/>
<polygon fill="none" stroke="black" points="784,-617 784,-641 892,-641 892,-617 784,-617"/>
<text text-anchor="start" x="815" y="-625.2" font-family="Times,serif" font-size="16.00">▮▮▮▯▯</text>
<polygon fill="cornsilk" stroke="transparent" points="894,-617 894,-641 1354,-641 1354,-617 894,-617"/>
<polygon fill="none" stroke="black" points="894,-617 894,-641 1354,-641 1354,-617 894,-617"/>
<text text-anchor="start" x="952" y="-625.2" font-family="Times,serif" font-size="16.00">I/O uring support in tokio, other runtimes</text>
<polygon fill="none" stroke="black" points="781,-614 781,-878 1357,-878 1357,-614 781,-614"/>
</g>
<!-- core&#45;lang&#45;&gt;async&#45;lang -->
<g id="edge2" class="edge">
<title>core&#45;lang&#45;&gt;async&#45;lang</title>
<path fill="none" stroke="black" d="M1069,-913.84C1069,-905.46 1069,-896.91 1069,-888.34"/>
<polygon fill="black" stroke="black" points="1072.5,-888.27 1069,-878.27 1065.5,-888.27 1072.5,-888.27"/>
</g>
<!-- onboarding&#45;time -->
<g id="node4" class="node">
<title>onboarding&#45;time</title>
<polygon fill="darkgoldenrod" stroke="transparent" points="715,-551 715,-575 1153,-575 1153,-551 715,-551"/>
<polygon fill="none" stroke="black" points="715,-551 715,-575 1153,-575 1153,-551 715,-551"/>
<text text-anchor="start" x="777" y="-559.2" font-family="Times,serif" font-size="16.00">Smooth onboarding of Rust engineers</text>
<polygon fill="#ffb90f" stroke="transparent" points="715,-525 715,-549 1153,-549 1153,-525 715,-525"/>
<polygon fill="none" stroke="black" points="715,-525 715,-549 1153,-549 1153,-525 715,-525"/>
<text text-anchor="start" x="719" y="-533.2" font-family="Times,serif" font-size="16.00">Time to be highly productive is measured in months</text>
<polygon fill="#ffb90f" stroke="transparent" points="715,-499 715,-523 1153,-523 1153,-499 715,-499"/>
<polygon fill="none" stroke="black" points="715,-499 715,-523 1153,-523 1153,-499 715,-499"/>
<text text-anchor="start" x="725.5" y="-507.2" font-family="Times,serif" font-size="16.00">Clear transition paths from other major languages</text>
<polygon fill="cornsilk" stroke="transparent" points="715,-473 715,-497 802,-497 802,-473 715,-473"/>
<polygon fill="none" stroke="black" points="715,-473 715,-497 802,-497 802,-473 715,-473"/>
<text text-anchor="start" x="735.5" y="-481.2" font-family="Times,serif" font-size="16.00">▮▮▮▮▮</text>
<polygon fill="cornsilk" stroke="transparent" points="804,-473 804,-497 1153,-497 1153,-473 804,-473"/>
<polygon fill="none" stroke="black" points="804,-473 804,-497 1153,-497 1153,-473 804,-473"/>
<text text-anchor="start" x="841.5" y="-481.2" font-family="Times,serif" font-size="16.00">Rust beginner learning materials</text>
<polygon fill="cornsilk" stroke="transparent" points="715,-447 715,-471 802,-471 802,-447 715,-447"/>
<polygon fill="none" stroke="black" points="715,-447 715,-471 802,-471 802,-447 715,-447"/>
<text text-anchor="start" x="735.5" y="-455.2" font-family="Times,serif" font-size="16.00">▮▮▮▯▯</text>
<polygon fill="cornsilk" stroke="transparent" points="804,-447 804,-471 1153,-471 1153,-447 804,-447"/>
<polygon fill="none" stroke="black" points="804,-447 804,-471 1153,-471 1153,-447 804,-447"/>
<text text-anchor="start" x="825" y="-455.2" font-family="Times,serif" font-size="16.00">Rust intermediate learning materials</text>
<polygon fill="cornsilk" stroke="transparent" points="715,-421 715,-445 802,-445 802,-421 715,-421"/>
<polygon fill="none" stroke="black" points="715,-421 715,-445 802,-445 802,-421 715,-421"/>
<text text-anchor="start" x="735.5" y="-429.2" font-family="Times,serif" font-size="16.00">▯▯▯▯▯</text>
<polygon fill="cornsilk" stroke="transparent" points="804,-421 804,-445 1153,-445 1153,-421 804,-421"/>
<polygon fill="none" stroke="black" points="804,-421 804,-445 1153,-445 1153,-421 804,-421"/>
<text text-anchor="start" x="896.5" y="-429.2" font-family="Times,serif" font-size="16.00">Java transition path</text>
<polygon fill="cornsilk" stroke="transparent" points="715,-395 715,-419 802,-419 802,-395 715,-395"/>
<polygon fill="none" stroke="black" points="715,-395 715,-419 802,-419 802,-395 715,-395"/>
<text text-anchor="start" x="735.5" y="-403.2" font-family="Times,serif" font-size="16.00">▮▮▯▯▯</text>
<polygon fill="cornsilk" stroke="transparent" points="804,-395 804,-419 1153,-419 1153,-395 804,-395"/>
<polygon fill="none" stroke="black" points="804,-395 804,-419 1153,-419 1153,-395 804,-395"/>
<text text-anchor="start" x="894.5" y="-403.2" font-family="Times,serif" font-size="16.00">C++ transition path</text>
<polygon fill="cornsilk" stroke="transparent" points="715,-369 715,-393 802,-393 802,-369 715,-369"/>
<polygon fill="none" stroke="black" points="715,-369 715,-393 802,-393 802,-369 715,-369"/>
<text text-anchor="start" x="735.5" y="-377.2" font-family="Times,serif" font-size="16.00">▮▮▯▯▯</text>
<polygon fill="cornsilk" stroke="transparent" points="804,-369 804,-393 1153,-393 1153,-369 804,-369"/>
<polygon fill="none" stroke="black" points="804,-369 804,-393 1153,-393 1153,-369 804,-369"/>
<text text-anchor="start" x="837.5" y="-377.2" font-family="Times,serif" font-size="16.00">Dynamic language transition path</text>
<polygon fill="none" stroke="black" points="712,-366 712,-578 1156,-578 1156,-366 712,-366"/>
</g>
<!-- async&#45;lang&#45;&gt;onboarding&#45;time -->
<g id="edge4" class="edge">
<title>async&#45;lang&#45;&gt;onboarding&#45;time</title>
<path fill="none" stroke="black" d="M1003.87,-613.78C999.47,-604.91 995.05,-596.01 990.7,-587.23"/>
<polygon fill="black" stroke="black" points="993.76,-585.54 986.18,-578.14 987.49,-588.65 993.76,-585.54"/>
</g>
<!-- well&#45;integrated&#45;into&#45;internet&#45;services -->
<g id="node8" class="node">
<title>well&#45;integrated&#45;into&#45;internet&#45;services</title>
<polygon fill="darkgoldenrod" stroke="transparent" points="635,-303 635,-327 1256,-327 1256,-303 635,-303"/>
<polygon fill="none" stroke="black" points="635,-303 635,-327 1256,-327 1256,-303 635,-303"/>
<text text-anchor="start" x="760.5" y="-311.2" font-family="Times,serif" font-size="16.00">Rust is well integrated into internet services</text>
<polygon fill="#ffb90f" stroke="transparent" points="635,-277 635,-301 1256,-301 1256,-277 635,-277"/>
<polygon fill="none" stroke="black" points="635,-277 635,-301 1256,-301 1256,-277 635,-277"/>
<text text-anchor="start" x="639" y="-285.2" font-family="Times,serif" font-size="16.00">SDKs for interacting with web services are readily available and complete</text>
<polygon fill="#ffb90f" stroke="transparent" points="635,-251 635,-275 1256,-275 1256,-251 635,-251"/>
<polygon fill="none" stroke="black" points="635,-251 635,-275 1256,-275 1256,-251 635,-251"/>
<text text-anchor="start" x="698" y="-259.2" font-family="Times,serif" font-size="16.00">FaaS platforms have first&#45;class, convenient support for Rust</text>
<polygon fill="cornsilk" stroke="transparent" points="635,-225 635,-249 853,-249 853,-225 635,-225"/>
<polygon fill="none" stroke="black" points="635,-225 635,-249 853,-249 853,-225 635,-225"/>
<text text-anchor="start" x="721" y="-233.2" font-family="Times,serif" font-size="16.00">▮▮▯▯▯</text>
<polygon fill="cornsilk" stroke="transparent" points="855,-225 855,-249 1256,-249 1256,-225 855,-225"/>
<polygon fill="none" stroke="black" points="855,-225 855,-249 1256,-249 1256,-225 855,-225"/>
<text text-anchor="start" x="945.5" y="-233.2" font-family="Times,serif" font-size="16.00">First&#45;class support in AWS</text>
<polygon fill="cornsilk" stroke="transparent" points="635,-199 635,-223 853,-223 853,-199 635,-199"/>
<polygon fill="none" stroke="black" points="635,-199 635,-223 853,-223 853,-199 635,-199"/>
<text text-anchor="start" x="739.5" y="-207.2" font-family="Times,serif" font-size="16.00">?</text>
<polygon fill="cornsilk" stroke="transparent" points="855,-199 855,-223 1256,-223 1256,-199 855,-199"/>
<polygon fill="none" stroke="black" points="855,-199 855,-223 1256,-223 1256,-199 855,-199"/>
<text text-anchor="start" x="941.5" y="-207.2" font-family="Times,serif" font-size="16.00">First&#45;class support in Azure</text>
<polygon fill="cornsilk" stroke="transparent" points="635,-173 635,-197 853,-197 853,-173 635,-173"/>
<polygon fill="none" stroke="black" points="635,-173 635,-197 853,-197 853,-173 635,-173"/>
<text text-anchor="start" x="739.5" y="-181.2" font-family="Times,serif" font-size="16.00">?</text>
<polygon fill="cornsilk" stroke="transparent" points="855,-173 855,-197 1256,-197 1256,-173 855,-173"/>
<polygon fill="none" stroke="black" points="855,-173 855,-197 1256,-197 1256,-173 855,-173"/>
<text text-anchor="start" x="947.5" y="-181.2" font-family="Times,serif" font-size="16.00">First&#45;class support in GCP</text>
<polygon fill="none" stroke="black" points="631.5,-170 631.5,-330 1258.5,-330 1258.5,-170 631.5,-170"/>
</g>
<!-- onboarding&#45;time&#45;&gt;well&#45;integrated&#45;into&#45;internet&#45;services -->
<g id="edge8" class="edge">
<title>onboarding&#45;time&#45;&gt;well&#45;integrated&#45;into&#45;internet&#45;services</title>
<path fill="none" stroke="black" d="M939.26,-365.83C939.69,-357.27 940.12,-348.67 940.54,-340.24"/>
<polygon fill="black" stroke="black" points="944.04,-340.22 941.05,-330.05 937.05,-339.87 944.04,-340.22"/>
</g>
<!-- goal&#45;internet&#45;services -->
<g id="node9" class="node">
<title>goal&#45;internet&#45;services</title>
<polygon fill="#a3a3a3" stroke="transparent" points="490,-107 490,-131 1059,-131 1059,-107 490,-107"/>
<polygon fill="none" stroke="black" points="490,-107 490,-131 1059,-131 1059,-107 490,-107"/>
<text text-anchor="start" x="583" y="-115.2" font-family="Times,serif" font-size="16.00">🎯 Rust a common choice for internet services</text>
<polygon fill="#d6d6d6" stroke="transparent" points="490,-81 490,-105 1059,-105 1059,-81 490,-81"/>
<polygon fill="none" stroke="black" points="490,-81 490,-105 1059,-105 1059,-81 490,-81"/>
<text text-anchor="start" x="576.5" y="-89.2" font-family="Times,serif" font-size="16.00">Operating costs and carbon impact are reduced</text>
<polygon fill="#d6d6d6" stroke="transparent" points="490,-55 490,-79 1059,-79 1059,-55 490,-55"/>
<polygon fill="none" stroke="black" points="490,-55 490,-79 1059,-79 1059,-55 490,-55"/>
<text text-anchor="start" x="536.5" y="-63.2" font-family="Times,serif" font-size="16.00">Rate of vulnerabilities and high priority errors is reduced</text>
<polygon fill="cornsilk" stroke="transparent" points="490,-29 490,-53 542,-53 542,-29 490,-29"/>
<polygon fill="none" stroke="black" points="490,-29 490,-53 542,-53 542,-29 490,-29"/>
<text text-anchor="start" x="493" y="-37.2" font-family="Times,serif" font-size="16.00">▮▮▯▯▯</text>
<polygon fill="cornsilk" stroke="transparent" points="544,-29 544,-53 1059,-53 1059,-29 544,-29"/>
<polygon fill="none" stroke="black" points="544,-29 544,-53 1059,-53 1059,-29 544,-29"/>
<text text-anchor="start" x="585.5" y="-37.2" font-family="Times,serif" font-size="16.00">Rust a common choice for building internet services</text>
<polygon fill="cornsilk" stroke="transparent" points="490,-3 490,-27 542,-27 542,-3 490,-3"/>
<polygon fill="none" stroke="black" points="490,-3 490,-27 542,-27 542,-3 490,-3"/>
<text text-anchor="start" x="493" y="-11.2" font-family="Times,serif" font-size="16.00">▯▯▯▯▯</text>
<polygon fill="cornsilk" stroke="transparent" points="544,-3 544,-27 1059,-27 1059,-3 544,-3"/>
<polygon fill="none" stroke="black" points="544,-3 544,-27 1059,-27 1059,-3 544,-3"/>
<text text-anchor="start" x="547" y="-11.2" font-family="Times,serif" font-size="16.00">Rust a common choice for code that runs on internet services</text>
<polygon fill="none" stroke="black" points="486.5,0 486.5,-134 1061.5,-134 1061.5,0 486.5,0"/>
</g>
<!-- onboarding&#45;time&#45;&gt;goal&#45;internet&#45;services -->
<g id="edge9" class="edge">
<title>onboarding&#45;time&#45;&gt;goal&#45;internet&#45;services</title>
<path fill="none" stroke="black" d="M711.81,-409.51C676.21,-389.83 643.92,-363.96 622,-330 583.44,-270.25 588.54,-232.75 622,-170 627.55,-159.59 634.68,-150.06 642.83,-141.37"/>
<polygon fill="black" stroke="black" points="645.32,-143.82 649.89,-134.26 640.36,-138.89 645.32,-143.82"/>
</g>
<!-- goal&#45;embedded -->
<g id="node10" class="node">
<title>goal&#45;embedded</title>
<polygon fill="#a3a3a3" stroke="transparent" points="1280,-251 1280,-275 1724,-275 1724,-251 1280,-251"/>
<polygon fill="none" stroke="black" points="1280,-251 1280,-275 1724,-275 1724,-251 1280,-251"/>
<text text-anchor="start" x="1284" y="-259.2" font-family="Times,serif" font-size="16.00">🎯 Rust a common choice for embedded applications</text>
<polygon fill="#d6d6d6" stroke="transparent" points="1280,-225 1280,-249 1724,-249 1724,-225 1280,-225"/>
<polygon fill="none" stroke="black" points="1280,-225 1280,-249 1724,-249 1724,-225 1280,-225"/>
<text text-anchor="start" x="1497.5" y="-233.2" font-family="Times,serif" font-size="16.00">?</text>
<polygon fill="none" stroke="black" points="1277,-222 1277,-278 1727,-278 1727,-222 1277,-222"/>
</g>
<!-- onboarding&#45;time&#45;&gt;goal&#45;embedded -->
<g id="edge13" class="edge">
<title>onboarding&#45;time&#45;&gt;goal&#45;embedded</title>
<path fill="none" stroke="black" d="M1156.05,-369.58C1159.05,-368.37 1162.03,-367.18 1165,-366 1188.55,-356.65 1320.15,-312.11 1411.75,-281.29"/>
<polygon fill="black" stroke="black" points="1412.96,-284.58 1421.32,-278.07 1410.73,-277.94 1412.96,-284.58"/>
</g>
<!-- dev&#45;tooling&#45;&gt;onboarding&#45;time -->
<g id="edge3" class="edge">
<title>dev&#45;tooling&#45;&gt;onboarding&#45;time</title>
<path fill="none" stroke="black" d="M665.96,-639.84C695.58,-621.4 726.48,-602.17 756.33,-583.59"/>
<polygon fill="black" stroke="black" points="758.49,-586.36 765.13,-578.11 754.79,-580.42 758.49,-586.36"/>
</g>
<!-- prod&#45;tooling -->
<g id="node6" class="node">
<title>prod&#45;tooling</title>
<polygon fill="darkgoldenrod" stroke="transparent" points="3,-277 3,-301 573,-301 573,-277 3,-277"/>
<polygon fill="none" stroke="black" points="3,-277 3,-301 573,-301 573,-277 3,-277"/>
<text text-anchor="start" x="211" y="-285.2" font-family="Times,serif" font-size="16.00">Production tooling</text>
<polygon fill="#ffb90f" stroke="transparent" points="3,-251 3,-275 573,-275 573,-251 3,-251"/>
<polygon fill="none" stroke="black" points="3,-251 3,-275 573,-275 573,-251 3,-251"/>
<text text-anchor="start" x="11.5" y="-259.2" font-family="Times,serif" font-size="16.00">Able to troubleshoot correctness problems that arise in production</text>
<polygon fill="#ffb90f" stroke="transparent" points="3,-225 3,-249 573,-249 573,-225 3,-225"/>
<polygon fill="none" stroke="black" points="3,-225 3,-249 573,-249 573,-225 3,-225"/>
<text text-anchor="start" x="7" y="-233.2" font-family="Times,serif" font-size="16.00">Able to troubleshoot performance problems that arise in production</text>
<polygon fill="cornsilk" stroke="transparent" points="3,-199 3,-223 310,-223 310,-199 3,-199"/>
<polygon fill="none" stroke="black" points="3,-199 3,-223 310,-223 310,-199 3,-199"/>
<text text-anchor="start" x="133.5" y="-207.2" font-family="Times,serif" font-size="16.00">▯▯▯▯▯</text>
<polygon fill="cornsilk" stroke="transparent" points="312,-199 312,-223 573,-223 573,-199 312,-199"/>
<polygon fill="none" stroke="black" points="312,-199 312,-223 573,-223 573,-199 312,-199"/>
<polygon fill="none" stroke="black" points="0,-196 0,-304 576,-304 576,-196 0,-196"/>
</g>
<!-- dev&#45;tooling&#45;&gt;prod&#45;tooling -->
<g id="edge6" class="edge">
<title>dev&#45;tooling&#45;&gt;prod&#45;tooling</title>
<path fill="none" stroke="black" d="M452.55,-639.93C410.68,-540.98 349.35,-396.02 314.61,-313.88"/>
<polygon fill="black" stroke="black" points="317.62,-312.03 310.5,-304.19 311.18,-314.76 317.62,-312.03"/>
</g>
<!-- prod&#45;tooling&#45;&gt;goal&#45;internet&#45;services -->
<g id="edge11" class="edge">
<title>prod&#45;tooling&#45;&gt;goal&#45;internet&#45;services</title>
<path fill="none" stroke="black" d="M430.53,-195.92C479.44,-177.7 534.95,-157.03 586.86,-137.7"/>
<polygon fill="black" stroke="black" points="588.35,-140.87 596.5,-134.1 585.91,-134.31 588.35,-140.87"/>
</g>
<!-- high&#45;assurance&#45;&gt;goal&#45;internet&#45;services -->
<g id="edge12" class="edge">
<title>high&#45;assurance&#45;&gt;goal&#45;internet&#45;services</title>
<path fill="none" stroke="black" d="M1696.79,-378.9C1712.3,-364.55 1725.89,-348.3 1736,-330 1770.37,-267.75 1783.56,-222.87 1736,-170 1691.76,-120.82 1337.67,-93.55 1071.83,-79.84"/>
<polygon fill="black" stroke="black" points="1071.79,-76.33 1061.62,-79.31 1071.43,-83.32 1071.79,-76.33"/>
</g>
<!-- high&#45;assurance&#45;&gt;goal&#45;embedded -->
<g id="edge14" class="edge">
<title>high&#45;assurance&#45;&gt;goal&#45;embedded</title>
<path fill="none" stroke="black" d="M1507.82,-378.97C1506.37,-347.24 1504.84,-313.46 1503.71,-288.58"/>
<polygon fill="black" stroke="black" points="1507.2,-288.32 1503.25,-278.49 1500.21,-288.64 1507.2,-288.32"/>
</g>
<!-- well&#45;integrated&#45;into&#45;internet&#45;services&#45;&gt;goal&#45;internet&#45;services -->
<g id="edge10" class="edge">
<title>well&#45;integrated&#45;into&#45;internet&#45;services&#45;&gt;goal&#45;internet&#45;services</title>
<path fill="none" stroke="black" d="M870.25,-169.87C861.38,-160.49 852.36,-150.94 843.57,-141.64"/>
<polygon fill="black" stroke="black" points="845.99,-139.11 836.58,-134.24 840.91,-143.91 845.99,-139.11"/>
</g>
</g>
</svg>
