<?xml version="1.0" encoding="UTF-8" standalone="no"?>
<!DOCTYPE svg PUBLIC "-//W3C//DTD SVG 1.1//EN"
 "http://www.w3.org/Graphics/SVG/1.1/DTD/svg11.dtd">
<!-- Generated by graphviz version 2.50.0 (20211204.2007)
 -->
<!-- Title: g Pages: 1 -->
<svg width="1176pt" height="978pt"
 viewBox="0.00 0.00 1175.50 978.00" xmlns="http://www.w3.org/2000/svg" xmlns:xlink="http://www.w3.org/1999/xlink">
<g id="graph0" class="graph" transform="scale(1 1) rotate(0) translate(4 974)">
<title>g</title>
<polygon fill="white" stroke="transparent" points="-4,4 -4,-974 1171.5,-974 1171.5,4 -4,4"/>
<!-- goal&#45;high&#45;assurance -->
<g id="node1" class="node">
<title>goal&#45;high&#45;assurance</title>
<polygon fill="darkgoldenrod" stroke="transparent" points="553.5,-943 553.5,-967 999.5,-967 999.5,-943 553.5,-943"/>
<polygon fill="none" stroke="black" points="553.5,-943 553.5,-967 999.5,-967 999.5,-943 553.5,-943"/>
<text text-anchor="start" x="602" y="-951.2" font-family="Times,serif" font-size="16.00">🎯 Rust has strong support for formal methods tooling</text>
<polygon fill="#ffb90f" stroke="transparent" points="553.5,-917 553.5,-941 999.5,-941 999.5,-917 553.5,-917"/>
<polygon fill="none" stroke="black" points="553.5,-917 553.5,-941 999.5,-941 999.5,-917 553.5,-917"/>
<text text-anchor="start" x="573" y="-925.2" font-family="Times,serif" font-size="16.00">Able to detect many more bugs during development (&#39;shift left&#39;)</text>
<polygon fill="#ffb90f" stroke="transparent" points="553.5,-891 553.5,-915 999.5,-915 999.5,-891 553.5,-891"/>
<polygon fill="none" stroke="black" points="553.5,-891 553.5,-915 999.5,-915 999.5,-891 553.5,-891"/>
<text text-anchor="start" x="557.5" y="-899.2" font-family="Times,serif" font-size="16.00">Able to evolve services while retaining strong correctness guarantees</text>
<polygon fill="none" stroke="black" points="550.5,-888 550.5,-970 1002.5,-970 1002.5,-888 550.5,-888"/>
</g>
<!-- safe&#45;rust -->
<g id="node2" class="node">
<title>safe&#45;rust</title>
<polygon fill="darkgoldenrod" stroke="transparent" points="414.5,-825 414.5,-849 877.5,-849 877.5,-825 414.5,-825"/>
<polygon fill="none" stroke="black" points="414.5,-825 414.5,-849 877.5,-849 877.5,-825 414.5,-825"/>
<text text-anchor="start" x="588.5" y="-833.2" font-family="Times,serif" font-size="16.00">Safe Rust security</text>
<polygon fill="#ffb90f" stroke="transparent" points="414.5,-799 414.5,-823 877.5,-823 877.5,-799 414.5,-799"/>
<polygon fill="none" stroke="black" points="414.5,-799 414.5,-823 877.5,-823 877.5,-799 414.5,-799"/>
<text text-anchor="start" x="479" y="-807.2" font-family="Times,serif" font-size="16.00">MIR has a formal model that has been proven sound</text>
<polygon fill="#ffb90f" stroke="transparent" points="414.5,-773 414.5,-797 877.5,-797 877.5,-773 414.5,-773"/>
<polygon fill="none" stroke="black" points="414.5,-773 414.5,-797 877.5,-797 877.5,-773 414.5,-773"/>
<text text-anchor="start" x="418.5" y="-781.2" font-family="Times,serif" font-size="16.00">We have high confidence that Rust&#39;s MIR toolchain matches this model</text>
<polygon fill="cornsilk" stroke="transparent" points="414.5,-747 414.5,-771 493.5,-771 493.5,-747 414.5,-747"/>
<polygon fill="none" stroke="black" points="414.5,-747 414.5,-771 493.5,-771 493.5,-747 414.5,-747"/>
<text text-anchor="start" x="429.5" y="-755.2" font-family="Times,serif" font-size="16.00">▯▯▯▯▯</text>
<polygon fill="cornsilk" stroke="transparent" points="495.5,-747 495.5,-771 877.5,-771 877.5,-747 495.5,-747"/>
<polygon fill="none" stroke="black" points="495.5,-747 495.5,-771 877.5,-771 877.5,-747 495.5,-747"/>
<text text-anchor="start" x="578.5" y="-755.2" font-family="Times,serif" font-size="16.00">Soundness conformance test suite</text>
<polygon fill="cornsilk" stroke="transparent" points="414.5,-721 414.5,-745 493.5,-745 493.5,-721 414.5,-721"/>
<polygon fill="none" stroke="black" points="414.5,-721 414.5,-745 493.5,-745 493.5,-721 414.5,-721"/>
<text text-anchor="start" x="429.5" y="-729.2" font-family="Times,serif" font-size="16.00">▯▯▯▯▯</text>
<polygon fill="cornsilk" stroke="transparent" points="495.5,-721 495.5,-745 877.5,-745 877.5,-721 495.5,-721"/>
<polygon fill="none" stroke="black" points="495.5,-721 495.5,-745 877.5,-745 877.5,-721 495.5,-721"/>
<text text-anchor="start" x="614" y="-729.2" font-family="Times,serif" font-size="16.00">Develop formal model</text>
<polygon fill="cornsilk" stroke="transparent" points="414.5,-695 414.5,-719 493.5,-719 493.5,-695 414.5,-695"/>
<polygon fill="none" stroke="black" points="414.5,-695 414.5,-719 493.5,-719 493.5,-695 414.5,-695"/>
<text text-anchor="start" x="429.5" y="-703.2" font-family="Times,serif" font-size="16.00">▯▯▯▯▯</text>
<polygon fill="cornsilk" stroke="transparent" points="495.5,-695 495.5,-719 877.5,-719 877.5,-695 495.5,-695"/>
<polygon fill="none" stroke="black" points="495.5,-695 495.5,-719 877.5,-719 877.5,-695 495.5,-695"/>
<text text-anchor="start" x="510.5" y="-703.2" font-family="Times,serif" font-size="16.00">Rearchitect core parts of compiler for clarity, flexibility</text>
<polygon fill="cornsilk" stroke="transparent" points="414.5,-669 414.5,-693 493.5,-693 493.5,-669 414.5,-669"/>
<polygon fill="none" stroke="black" points="414.5,-669 414.5,-693 493.5,-693 493.5,-669 414.5,-669"/>
<text text-anchor="start" x="429.5" y="-677.2" font-family="Times,serif" font-size="16.00">▯▯▯▯▯</text>
<polygon fill="cornsilk" stroke="transparent" points="495.5,-669 495.5,-693 877.5,-693 877.5,-669 495.5,-669"/>
<polygon fill="none" stroke="black" points="495.5,-669 495.5,-693 877.5,-693 877.5,-669 495.5,-669"/>
<text text-anchor="start" x="588.5" y="-677.2" font-family="Times,serif" font-size="16.00">Fixing known soundness bugs</text>
<polygon fill="none" stroke="black" points="411,-666 411,-852 880,-852 880,-666 411,-666"/>
</g>
<!-- goal&#45;high&#45;assurance&#45;&gt;safe&#45;rust -->
<g id="edge1" class="edge">
<title>goal&#45;high&#45;assurance&#45;&gt;safe&#45;rust</title>
<path fill="none" stroke="black" d="M745.12,-887.76C738.5,-879.27 731.23,-869.94 723.73,-860.32"/>
<polygon fill="black" stroke="black" points="726.29,-857.92 717.38,-852.19 720.77,-862.22 726.29,-857.92"/>
</g>
<!-- formal&#45;methods&#45;tooling -->
<g id="node4" class="node">
<title>formal&#45;methods&#45;tooling</title>
<polygon fill="darkgoldenrod" stroke="transparent" points="652.5,-590 652.5,-614 1164.5,-614 1164.5,-590 652.5,-590"/>
<polygon fill="none" stroke="black" points="652.5,-590 652.5,-614 1164.5,-614 1164.5,-590 652.5,-590"/>
<text text-anchor="start" x="819.5" y="-598.2" font-family="Times,serif" font-size="16.00">Tooling for formal methods</text>
<polygon fill="#ffb90f" stroke="transparent" points="652.5,-564 652.5,-588 1164.5,-588 1164.5,-564 652.5,-564"/>
<polygon fill="none" stroke="black" points="652.5,-564 652.5,-588 1164.5,-588 1164.5,-564 652.5,-564"/>
<text text-anchor="start" x="656.5" y="-572.2" font-family="Times,serif" font-size="16.00">Developers extending Rust with unsafe Rust can prove these extensions correct</text>
<polygon fill="#ffb90f" stroke="transparent" points="652.5,-538 652.5,-562 1164.5,-562 1164.5,-538 652.5,-538"/>
<polygon fill="none" stroke="black" points="652.5,-538 652.5,-562 1164.5,-562 1164.5,-538 652.5,-538"/>
<text text-anchor="start" x="689.5" y="-546.2" font-family="Times,serif" font-size="16.00">Developers can prove their Rust code meets functional specifications</text>
<polygon fill="#ffb90f" stroke="transparent" points="652.5,-512 652.5,-536 1164.5,-536 1164.5,-512 652.5,-512"/>
<polygon fill="none" stroke="black" points="652.5,-512 652.5,-536 1164.5,-536 1164.5,-512 652.5,-512"/>
<text text-anchor="start" x="727" y="-520.2" font-family="Times,serif" font-size="16.00">Developers can prove their Rust code meets specification</text>
<polygon fill="cornsilk" stroke="transparent" points="652.5,-486 652.5,-510 792.5,-510 792.5,-486 652.5,-486"/>
<polygon fill="none" stroke="black" points="652.5,-486 652.5,-510 792.5,-510 792.5,-486 652.5,-486"/>
<text text-anchor="start" x="698" y="-494.2" font-family="Times,serif" font-size="16.00">▮▯▯▯▯</text>
<polygon fill="cornsilk" stroke="transparent" points="794.5,-486 794.5,-510 1164.5,-510 1164.5,-486 794.5,-486"/>
<polygon fill="none" stroke="black" points="794.5,-486 794.5,-510 1164.5,-510 1164.5,-486 794.5,-486"/>
<text text-anchor="start" x="840.5" y="-494.2" font-family="Times,serif" font-size="16.00">Sanitizer / dynamic checker for unsafe code</text>
<polygon fill="cornsilk" stroke="transparent" points="652.5,-460 652.5,-484 792.5,-484 792.5,-460 652.5,-460"/>
<polygon fill="none" stroke="black" points="652.5,-460 652.5,-484 792.5,-484 792.5,-460 652.5,-460"/>
<text text-anchor="start" x="698" y="-468.2" font-family="Times,serif" font-size="16.00">▮▯▯▯▯</text>
<polygon fill="cornsilk" stroke="transparent" points="794.5,-460 794.5,-484 1164.5,-484 1164.5,-460 794.5,-460"/>
<polygon fill="none" stroke="black" points="794.5,-460 794.5,-484 1164.5,-484 1164.5,-460 794.5,-460"/>
<text text-anchor="start" x="887.5" y="-468.2" font-family="Times,serif" font-size="16.00">Model checker for Rust code</text>
<polygon fill="cornsilk" stroke="transparent" points="652.5,-434 652.5,-458 792.5,-458 792.5,-434 652.5,-434"/>
<polygon fill="none" stroke="black" points="652.5,-434 652.5,-458 792.5,-458 792.5,-434 652.5,-434"/>
<text text-anchor="start" x="698" y="-442.2" font-family="Times,serif" font-size="16.00">▯▯▯▯▯</text>
<polygon fill="cornsilk" stroke="transparent" points="794.5,-434 794.5,-458 1164.5,-458 1164.5,-434 794.5,-434"/>
<polygon fill="none" stroke="black" points="794.5,-434 794.5,-458 1164.5,-458 1164.5,-434 794.5,-434"/>
<text text-anchor="start" x="866.5" y="-442.2" font-family="Times,serif" font-size="16.00">Rust standard library proven sound</text>
<polygon fill="cornsilk" stroke="transparent" points="652.5,-408 652.5,-432 792.5,-432 792.5,-408 652.5,-408"/>
<polygon fill="none" stroke="black" points="652.5,-408 652.5,-432 792.5,-432 792.5,-408 652.5,-408"/>
<text text-anchor="start" x="698" y="-416.2" font-family="Times,serif" font-size="16.00">▮▯▯▯▯</text>
<polygon fill="cornsilk" stroke="transparent" points="794.5,-408 794.5,-432 1164.5,-432 1164.5,-408 794.5,-408"/>
<polygon fill="none" stroke="black" points="794.5,-408 794.5,-432 1164.5,-432 1164.5,-408 794.5,-408"/>
<text text-anchor="start" x="884" y="-416.2" font-family="Times,serif" font-size="16.00">Packages on crates.io checked</text>
<polygon fill="none" stroke="black" points="649.5,-405 649.5,-617 1167.5,-617 1167.5,-405 649.5,-405"/>
</g>
<!-- goal&#45;high&#45;assurance&#45;&gt;formal&#45;methods&#45;tooling -->
<g id="edge2" class="edge">
<title>goal&#45;high&#45;assurance&#45;&gt;formal&#45;methods&#45;tooling</title>
<path fill="none" stroke="black" d="M855.94,-887.94C868.83,-877.94 880.55,-866 888.5,-852 926.85,-784.5 931.12,-696.81 926.19,-627.39"/>
<polygon fill="black" stroke="black" points="929.67,-626.98 925.4,-617.28 922.69,-627.53 929.67,-626.98"/>
</g>
<!-- unsafe&#45;rust -->
<g id="node3" class="node">
<title>unsafe&#45;rust</title>
<polygon fill="darkgoldenrod" stroke="transparent" points="3.5,-603 3.5,-627 628.5,-627 628.5,-603 3.5,-603"/>
<polygon fill="none" stroke="black" points="3.5,-603 3.5,-627 628.5,-627 628.5,-603 3.5,-603"/>
<text text-anchor="start" x="250" y="-611.2" font-family="Times,serif" font-size="16.00">Unsafe Rust security</text>
<polygon fill="#ffb90f" stroke="transparent" points="3.5,-577 3.5,-601 628.5,-601 628.5,-577 3.5,-577"/>
<polygon fill="none" stroke="black" points="3.5,-577 3.5,-601 628.5,-601 628.5,-577 3.5,-577"/>
<text text-anchor="start" x="7.5" y="-585.2" font-family="Times,serif" font-size="16.00">The soundness rules for unsafe code are understood and followed by authors of unsafe Rust code</text>
<polygon fill="#ffb90f" stroke="transparent" points="3.5,-551 3.5,-575 628.5,-575 628.5,-551 3.5,-551"/>
<polygon fill="none" stroke="black" points="3.5,-551 3.5,-575 628.5,-575 628.5,-551 3.5,-551"/>
<text text-anchor="start" x="51" y="-559.2" font-family="Times,serif" font-size="16.00">Tooling to dynamically test soundness of unsafe code is accessible and widely used</text>
<polygon fill="#ffb90f" stroke="transparent" points="3.5,-525 3.5,-549 628.5,-549 628.5,-525 3.5,-525"/>
<polygon fill="none" stroke="black" points="3.5,-525 3.5,-549 628.5,-549 628.5,-525 3.5,-525"/>
<text text-anchor="start" x="111.5" y="-533.2" font-family="Times,serif" font-size="16.00">Tooling to statically prove soundness of unsafe code is available</text>
<polygon fill="#ffb90f" stroke="transparent" points="3.5,-499 3.5,-523 628.5,-523 628.5,-499 3.5,-499"/>
<polygon fill="none" stroke="black" points="3.5,-499 3.5,-523 628.5,-523 628.5,-499 3.5,-499"/>
<text text-anchor="start" x="176" y="-507.2" font-family="Times,serif" font-size="16.00">Core Rust crates that have soundness proofs</text>
<polygon fill="cornsilk" stroke="transparent" points="3.5,-473 3.5,-497 200.5,-497 200.5,-473 3.5,-473"/>
<polygon fill="none" stroke="black" points="3.5,-473 3.5,-497 200.5,-497 200.5,-473 3.5,-473"/>
<text text-anchor="start" x="77.5" y="-481.2" font-family="Times,serif" font-size="16.00">▯▯▯▯▯</text>
<polygon fill="cornsilk" stroke="transparent" points="202.5,-473 202.5,-497 628.5,-497 628.5,-473 202.5,-473"/>
<polygon fill="none" stroke="black" points="202.5,-473 202.5,-497 628.5,-497 628.5,-473 202.5,-473"/>
<text text-anchor="start" x="341.5" y="-481.2" font-family="Times,serif" font-size="16.00">Unsafe code guidelines</text>
<polygon fill="cornsilk" stroke="transparent" points="3.5,-447 3.5,-471 200.5,-471 200.5,-447 3.5,-447"/>
<polygon fill="none" stroke="black" points="3.5,-447 3.5,-471 200.5,-471 200.5,-447 3.5,-447"/>
<text text-anchor="start" x="77.5" y="-455.2" font-family="Times,serif" font-size="16.00">▯▯▯▯▯</text>
<polygon fill="cornsilk" stroke="transparent" points="202.5,-447 202.5,-471 628.5,-471 628.5,-447 202.5,-447"/>
<polygon fill="none" stroke="black" points="202.5,-447 202.5,-471 628.5,-471 628.5,-447 202.5,-447"/>
<text text-anchor="start" x="277" y="-455.2" font-family="Times,serif" font-size="16.00">Sanitizers and other dynamic testers for UB</text>
<polygon fill="cornsilk" stroke="transparent" points="3.5,-421 3.5,-445 200.5,-445 200.5,-421 3.5,-421"/>
<polygon fill="none" stroke="black" points="3.5,-421 3.5,-445 200.5,-445 200.5,-421 3.5,-421"/>
<text text-anchor="start" x="77.5" y="-429.2" font-family="Times,serif" font-size="16.00">▯▯▯▯▯</text>
<polygon fill="cornsilk" stroke="transparent" points="202.5,-421 202.5,-445 628.5,-445 628.5,-421 202.5,-421"/>
<polygon fill="none" stroke="black" points="202.5,-421 202.5,-445 628.5,-445 628.5,-421 202.5,-421"/>
<text text-anchor="start" x="281" y="-429.2" font-family="Times,serif" font-size="16.00">Model checkers and Rust theorem provers</text>
<polygon fill="cornsilk" stroke="transparent" points="3.5,-395 3.5,-419 200.5,-419 200.5,-395 3.5,-395"/>
<polygon fill="none" stroke="black" points="3.5,-395 3.5,-419 200.5,-419 200.5,-395 3.5,-395"/>
<text text-anchor="start" x="77.5" y="-403.2" font-family="Times,serif" font-size="16.00">▯▯▯▯▯</text>
<polygon fill="cornsilk" stroke="transparent" points="202.5,-395 202.5,-419 628.5,-419 628.5,-395 202.5,-395"/>
<polygon fill="none" stroke="black" points="202.5,-395 202.5,-419 628.5,-419 628.5,-395 202.5,-395"/>
<text text-anchor="start" x="285.5" y="-403.2" font-family="Times,serif" font-size="16.00">Standard library specification and proofs</text>
<polygon fill="none" stroke="black" points="0,-392 0,-630 631,-630 631,-392 0,-392"/>
</g>
<!-- safe&#45;rust&#45;&gt;unsafe&#45;rust -->
<g id="edge3" class="edge">
<title>safe&#45;rust&#45;&gt;unsafe&#45;rust</title>
<path fill="none" stroke="black" d="M521.68,-665.7C508.73,-656.05 495.42,-646.12 482.1,-636.19"/>
<polygon fill="black" stroke="black" points="483.91,-633.18 473.8,-630.01 479.73,-638.79 483.91,-633.18"/>
</g>
<!-- safe&#45;rust&#45;&gt;formal&#45;methods&#45;tooling -->
<g id="edge4" class="edge">
<title>safe&#45;rust&#45;&gt;formal&#45;methods&#45;tooling</title>
<path fill="none" stroke="black" d="M744.18,-665.7C758.58,-652.23 773.54,-638.24 788.3,-624.43"/>
<polygon fill="black" stroke="black" points="791.09,-626.61 796,-617.22 786.31,-621.5 791.09,-626.61"/>
</g>
<!-- semi&#45;stable&#45;apis -->
<g id="node6" class="node">
<title>semi&#45;stable&#45;apis</title>
<polygon fill="darkgoldenrod" stroke="transparent" points="702.5,-329 702.5,-353 1114.5,-353 1114.5,-329 702.5,-329"/>
<polygon fill="none" stroke="black" points="702.5,-329 702.5,-353 1114.5,-353 1114.5,-329 702.5,-329"/>
<text text-anchor="start" x="741.5" y="-337.2" font-family="Times,serif" font-size="16.00">Compiler offers semi&#45;stable APIs that others can use</text>
<polygon fill="cornsilk" stroke="transparent" points="702.5,-303 702.5,-327 757.5,-327 757.5,-303 702.5,-303"/>
<polygon fill="none" stroke="black" points="702.5,-303 702.5,-327 757.5,-327 757.5,-303 702.5,-303"/>
<text text-anchor="start" x="705.5" y="-311.2" font-family="Times,serif" font-size="16.00">▯▯▯▯▯</text>
<polygon fill="cornsilk" stroke="transparent" points="759.5,-303 759.5,-327 1114.5,-327 1114.5,-303 759.5,-303"/>
<polygon fill="none" stroke="black" points="759.5,-303 759.5,-327 1114.5,-327 1114.5,-303 759.5,-303"/>
<text text-anchor="start" x="810" y="-311.2" font-family="Times,serif" font-size="16.00">Shared crate for representing Rust types</text>
<polygon fill="cornsilk" stroke="transparent" points="702.5,-277 702.5,-301 757.5,-301 757.5,-277 702.5,-277"/>
<polygon fill="none" stroke="black" points="702.5,-277 702.5,-301 757.5,-301 757.5,-277 702.5,-277"/>
<text text-anchor="start" x="705.5" y="-285.2" font-family="Times,serif" font-size="16.00">▯▯▯▯▯</text>
<polygon fill="cornsilk" stroke="transparent" points="759.5,-277 759.5,-301 1114.5,-301 1114.5,-277 759.5,-277"/>
<polygon fill="none" stroke="black" points="759.5,-277 759.5,-301 1114.5,-301 1114.5,-277 759.5,-277"/>
<text text-anchor="start" x="762.5" y="-285.2" font-family="Times,serif" font-size="16.00">Access to Rust type information and type check results</text>
<polygon fill="cornsilk" stroke="transparent" points="702.5,-251 702.5,-275 757.5,-275 757.5,-251 702.5,-251"/>
<polygon fill="none" stroke="black" points="702.5,-251 702.5,-275 757.5,-275 757.5,-251 702.5,-251"/>
<text text-anchor="start" x="705.5" y="-259.2" font-family="Times,serif" font-size="16.00">▯▯▯▯▯</text>
<polygon fill="cornsilk" stroke="transparent" points="759.5,-251 759.5,-275 1114.5,-275 1114.5,-251 759.5,-251"/>
<polygon fill="none" stroke="black" points="759.5,-251 759.5,-275 1114.5,-275 1114.5,-251 759.5,-251"/>
<text text-anchor="start" x="845.5" y="-259.2" font-family="Times,serif" font-size="16.00">Ability to ask &#39;hypotheticals&#39;</text>
<polygon fill="cornsilk" stroke="transparent" points="702.5,-225 702.5,-249 757.5,-249 757.5,-225 702.5,-225"/>
<polygon fill="none" stroke="black" points="702.5,-225 702.5,-249 757.5,-249 757.5,-225 702.5,-225"/>
<text text-anchor="start" x="705.5" y="-233.2" font-family="Times,serif" font-size="16.00">▯▯▯▯▯</text>
<polygon fill="cornsilk" stroke="transparent" points="759.5,-225 759.5,-249 1114.5,-249 1114.5,-225 759.5,-225"/>
<polygon fill="none" stroke="black" points="759.5,-225 759.5,-249 1114.5,-249 1114.5,-225 759.5,-225"/>
<text text-anchor="start" x="813" y="-233.2" font-family="Times,serif" font-size="16.00">Access to the MIR for a given function</text>
<polygon fill="none" stroke="black" points="699.5,-222 699.5,-356 1117.5,-356 1117.5,-222 699.5,-222"/>
</g>
<!-- formal&#45;methods&#45;tooling&#45;&gt;semi&#45;stable&#45;apis -->
<g id="edge5" class="edge">
<title>formal&#45;methods&#45;tooling&#45;&gt;semi&#45;stable&#45;apis</title>
<path fill="none" stroke="black" d="M908.5,-404.83C908.5,-391.89 908.5,-378.85 908.5,-366.44"/>
<polygon fill="black" stroke="black" points="912,-366.19 908.5,-356.19 905,-366.19 912,-366.19"/>
</g>
<!-- fundamentals -->
<g id="node5" class="node">
<title>fundamentals</title>
<polygon fill="darkgoldenrod" stroke="transparent" points="701.5,-159 701.5,-183 1116.5,-183 1116.5,-159 701.5,-159"/>
<polygon fill="none" stroke="black" points="701.5,-159 701.5,-183 1116.5,-183 1116.5,-159 701.5,-159"/>
<text text-anchor="start" x="749.5" y="-167.2" font-family="Times,serif" font-size="16.00">Compiler architecture is flexible and maintainable</text>
<polygon fill="#ffb90f" stroke="transparent" points="701.5,-133 701.5,-157 1116.5,-157 1116.5,-133 701.5,-133"/>
<polygon fill="none" stroke="black" points="701.5,-133 701.5,-157 1116.5,-157 1116.5,-133 701.5,-133"/>
<text text-anchor="start" x="800.5" y="-141.2" font-family="Times,serif" font-size="16.00">Easy to contribute to the compiler</text>
<polygon fill="#ffb90f" stroke="transparent" points="701.5,-107 701.5,-131 1116.5,-131 1116.5,-107 701.5,-107"/>
<polygon fill="none" stroke="black" points="701.5,-107 701.5,-131 1116.5,-131 1116.5,-107 701.5,-107"/>
<text text-anchor="start" x="791" y="-115.2" font-family="Times,serif" font-size="16.00">Language semantics well understood</text>
<polygon fill="#ffb90f" stroke="transparent" points="701.5,-81 701.5,-105 1116.5,-105 1116.5,-81 701.5,-81"/>
<polygon fill="none" stroke="black" points="701.5,-81 701.5,-105 1116.5,-105 1116.5,-81 701.5,-81"/>
<text text-anchor="start" x="761.5" y="-89.2" font-family="Times,serif" font-size="16.00">Extending language possible by mere humans</text>
<polygon fill="cornsilk" stroke="transparent" points="701.5,-55 701.5,-79 756.5,-79 756.5,-55 701.5,-55"/>
<polygon fill="none" stroke="black" points="701.5,-55 701.5,-79 756.5,-79 756.5,-55 701.5,-55"/>
<text text-anchor="start" x="704.5" y="-63.2" font-family="Times,serif" font-size="16.00">▮▮▮▯▯</text>
<polygon fill="cornsilk" stroke="transparent" points="758.5,-55 758.5,-79 1116.5,-79 1116.5,-55 758.5,-55"/>
<polygon fill="none" stroke="black" points="758.5,-55 758.5,-79 1116.5,-79 1116.5,-55 758.5,-55"/>
<text text-anchor="start" x="761.5" y="-63.2" font-family="Times,serif" font-size="16.00">Rearchitect traits/borrow&#45;checking as logical predicates</text>
<polygon fill="cornsilk" stroke="transparent" points="701.5,-29 701.5,-53 756.5,-53 756.5,-29 701.5,-29"/>
<polygon fill="none" stroke="black" points="701.5,-29 701.5,-53 756.5,-53 756.5,-29 701.5,-29"/>
<text text-anchor="start" x="704.5" y="-37.2" font-family="Times,serif" font-size="16.00">▮▯▯▯▯</text>
<polygon fill="cornsilk" stroke="transparent" points="758.5,-29 758.5,-53 1116.5,-53 1116.5,-29 758.5,-29"/>
<polygon fill="none" stroke="black" points="758.5,-29 758.5,-53 1116.5,-53 1116.5,-29 758.5,-29"/>
<text text-anchor="start" x="831" y="-37.2" font-family="Times,serif" font-size="16.00">Core Rust semantics documented</text>
<polygon fill="cornsilk" stroke="transparent" points="701.5,-3 701.5,-27 756.5,-27 756.5,-3 701.5,-3"/>
<polygon fill="none" stroke="black" points="701.5,-3 701.5,-27 756.5,-27 756.5,-3 701.5,-3"/>
<text text-anchor="start" x="704.5" y="-11.2" font-family="Times,serif" font-size="16.00">▮▮▯▯▯</text>
<polygon fill="cornsilk" stroke="transparent" points="758.5,-3 758.5,-27 1116.5,-27 1116.5,-3 758.5,-3"/>
<polygon fill="none" stroke="black" points="758.5,-3 758.5,-27 1116.5,-27 1116.5,-3 758.5,-3"/>
<text text-anchor="start" x="839.5" y="-11.2" font-family="Times,serif" font-size="16.00">Known soundness bugs closed</text>
<polygon fill="none" stroke="black" points="698,0 698,-186 1119,-186 1119,0 698,0"/>
</g>
<!-- semi&#45;stable&#45;apis&#45;&gt;fundamentals -->
<g id="edge6" class="edge">
<title>semi&#45;stable&#45;apis&#45;&gt;fundamentals</title>
<path fill="none" stroke="black" d="M908.5,-221.78C908.5,-213.49 908.5,-204.88 908.5,-196.2"/>
<polygon fill="black" stroke="black" points="912,-196.01 908.5,-186.01 905,-196.01 912,-196.01"/>
</g>
</g>
</svg>
