<?xml version="1.0" encoding="UTF-8" standalone="no"?>
<!DOCTYPE svg PUBLIC "-//W3C//DTD SVG 1.1//EN"
 "http://www.w3.org/Graphics/SVG/1.1/DTD/svg11.dtd">
<!-- Generated by graphviz version 2.43.0 (0)
 -->
<!-- Title: g Pages: 1 -->
<svg width="3034pt" height="626pt"
 viewBox="0.00 0.00 3033.50 626.00" xmlns="http://www.w3.org/2000/svg" xmlns:xlink="http://www.w3.org/1999/xlink">
<g id="graph0" class="graph" transform="scale(1 1) rotate(0) translate(4 622)">
<title>g</title>
<polygon fill="white" stroke="transparent" points="-4,4 -4,-622 3029.5,-622 3029.5,4 -4,4"/>
<!-- goal&#45;security -->
<g id="node1" class="node">
<title>goal&#45;security</title>
<polygon fill="darkgoldenrod" stroke="transparent" points="985,-591 985,-615 1958,-615 1958,-591 985,-591"/>
<polygon fill="none" stroke="black" points="985,-591 985,-615 1958,-615 1958,-591 985,-591"/>
<text text-anchor="start" x="1372.5" y="-599.2" font-family="Times,serif" font-size="16.00">🎯 Rust is highly secure</text>
<polygon fill="#ffb90f" stroke="transparent" points="985,-565 985,-589 1958,-589 1958,-565 985,-565"/>
<polygon fill="none" stroke="black" points="985,-565 985,-589 1958,-589 1958,-565 985,-565"/>
<text text-anchor="start" x="1141" y="-573.2" font-family="Times,serif" font-size="16.00">People using Rust rarely &#45;&#45; if ever &#45;&#45; experience security vulnerabilities or issues</text>
<polygon fill="#ffb90f" stroke="transparent" points="985,-539 985,-563 1958,-563 1958,-539 985,-539"/>
<polygon fill="none" stroke="black" points="985,-539 985,-563 1958,-563 1958,-539 985,-539"/>
<text text-anchor="start" x="989" y="-547.2" font-family="Times,serif" font-size="16.00">In companies using Rust widely, security engineers are able to refocus their attention on higher&#45;level security issues</text>
<polygon fill="none" stroke="black" points="981.5,-536 981.5,-618 1960.5,-618 1960.5,-536 981.5,-536"/>
</g>
<!-- security&#45;response -->
<g id="node2" class="node">
<title>security&#45;response</title>
<polygon fill="darkgoldenrod" stroke="transparent" points="3,-473 3,-497 1001,-497 1001,-473 3,-473"/>
<polygon fill="none" stroke="black" points="3,-473 3,-497 1001,-497 1001,-473 3,-473"/>
<text text-anchor="start" x="390" y="-481.2" font-family="Times,serif" font-size="16.00">Effective security response</text>
<polygon fill="#ffb90f" stroke="transparent" points="3,-447 3,-471 1001,-471 1001,-447 3,-447"/>
<polygon fill="none" stroke="black" points="3,-447 3,-471 1001,-471 1001,-447 3,-447"/>
<text text-anchor="start" x="7" y="-455.2" font-family="Times,serif" font-size="16.00">When issues do arise with a Rust crate, people know how to report them, and crate authors effectively respond to them</text>
<polygon fill="cornsilk" stroke="transparent" points="3,-421 3,-445 202,-445 202,-421 3,-421"/>
<polygon fill="none" stroke="black" points="3,-421 3,-445 202,-445 202,-421 3,-421"/>
<text text-anchor="start" x="79.5" y="-429.2" font-family="Times,serif" font-size="16.00">▯▯▯▯▯</text>
<polygon fill="cornsilk" stroke="transparent" points="204,-421 204,-445 1001,-445 1001,-421 204,-421"/>
<polygon fill="none" stroke="black" points="204,-421 204,-445 1001,-445 1001,-421 204,-421"/>
<text text-anchor="start" x="280.5" y="-429.2" font-family="Times,serif" font-size="16.00">Support program for crate authors who have security issues reported to them</text>
<polygon fill="cornsilk" stroke="transparent" points="3,-395 3,-419 202,-419 202,-395 3,-395"/>
<polygon fill="none" stroke="black" points="3,-395 3,-419 202,-419 202,-395 3,-395"/>
<text text-anchor="start" x="79.5" y="-403.2" font-family="Times,serif" font-size="16.00">▯▯▯▯▯</text>
<polygon fill="cornsilk" stroke="transparent" points="204,-395 204,-419 1001,-419 1001,-395 204,-395"/>
<polygon fill="none" stroke="black" points="204,-395 204,-419 1001,-419 1001,-395 204,-395"/>
<text text-anchor="start" x="397" y="-403.2" font-family="Times,serif" font-size="16.00">Coordinated disclosure of security issues for Rust</text>
<polygon fill="none" stroke="black" points="0,-392 0,-500 1004,-500 1004,-392 0,-392"/>
</g>
<!-- goal&#45;security&#45;&gt;security&#45;response -->
<g id="edge3" class="edge">
<title>goal&#45;security&#45;&gt;security&#45;response</title>
<path fill="none" stroke="black" d="M1170.38,-535.98C1088.11,-525.03 997.53,-512.97 910.34,-501.36"/>
<polygon fill="black" stroke="black" points="910.64,-497.87 900.27,-500.02 909.72,-504.81 910.64,-497.87"/>
</g>
<!-- crates.io&#45;secure -->
<g id="node3" class="node">
<title>crates.io&#45;secure</title>
<polygon fill="darkgoldenrod" stroke="transparent" points="1026,-473 1026,-497 1917,-497 1917,-473 1026,-473"/>
<polygon fill="none" stroke="black" points="1026,-473 1026,-497 1917,-497 1917,-473 1026,-473"/>
<text text-anchor="start" x="1344" y="-481.2" font-family="Times,serif" font-size="16.00">Security of cargo and crates.io</text>
<polygon fill="#ffb90f" stroke="transparent" points="1026,-447 1026,-471 1917,-471 1917,-447 1026,-447"/>
<polygon fill="none" stroke="black" points="1026,-447 1026,-471 1917,-471 1917,-447 1026,-447"/>
<text text-anchor="start" x="1139" y="-455.2" font-family="Times,serif" font-size="16.00">People can choose crates from crates.io without fear of vulnerabilities or trojans</text>
<polygon fill="#ffb90f" stroke="transparent" points="1026,-421 1026,-445 1917,-445 1917,-421 1026,-421"/>
<polygon fill="none" stroke="black" points="1026,-421 1026,-445 1917,-445 1917,-421 1026,-421"/>
<text text-anchor="start" x="1030" y="-429.2" font-family="Times,serif" font-size="16.00">Authors can publish code in crates on crates.io with confidence that their users will receive the same code</text>
<polygon fill="cornsilk" stroke="transparent" points="1026,-395 1026,-419 1287,-419 1287,-395 1026,-395"/>
<polygon fill="none" stroke="black" points="1026,-395 1026,-419 1287,-419 1287,-395 1026,-395"/>
<text text-anchor="start" x="1133.5" y="-403.2" font-family="Times,serif" font-size="16.00">▯▯▯▯▯</text>
<polygon fill="cornsilk" stroke="transparent" points="1289,-395 1289,-419 1917,-419 1917,-395 1289,-395"/>
<polygon fill="none" stroke="black" points="1289,-395 1289,-419 1917,-419 1917,-395 1289,-395"/>
<text text-anchor="start" x="1396.5" y="-403.2" font-family="Times,serif" font-size="16.00">build.rs and procedural macros can be sandboxed</text>
<polygon fill="none" stroke="black" points="1022.5,-392 1022.5,-500 1919.5,-500 1919.5,-392 1022.5,-392"/>
</g>
<!-- goal&#45;security&#45;&gt;crates.io&#45;secure -->
<g id="edge2" class="edge">
<title>goal&#45;security&#45;&gt;crates.io&#45;secure</title>
<path fill="none" stroke="black" d="M1471,-535.89C1471,-527.81 1471,-519.13 1471,-510.48"/>
<polygon fill="black" stroke="black" points="1474.5,-510.37 1471,-500.37 1467.5,-510.37 1474.5,-510.37"/>
</g>
<!-- crates&#45;secure -->
<g id="node4" class="node">
<title>crates&#45;secure</title>
<polygon fill="darkgoldenrod" stroke="transparent" points="1941,-460 1941,-484 2561,-484 2561,-460 1941,-460"/>
<polygon fill="none" stroke="black" points="1941,-460 1941,-484 2561,-484 2561,-460 1941,-460"/>
<text text-anchor="start" x="2156" y="-468.2" font-family="Times,serif" font-size="16.00">Security of Rust crates</text>
<polygon fill="#ffb90f" stroke="transparent" points="1941,-434 1941,-458 2561,-458 2561,-434 1941,-434"/>
<polygon fill="none" stroke="black" points="1941,-434 1941,-458 2561,-458 2561,-434 1941,-434"/>
<text text-anchor="start" x="1945" y="-442.2" font-family="Times,serif" font-size="16.00">Authors of crates on crates.io are able to ensure their own crates security</text>
<polygon fill="#ffb90f" stroke="transparent" points="1941,-408 1941,-432 2561,-432 2561,-408 1941,-408"/>
<polygon fill="none" stroke="black" points="1941,-408 1941,-432 2561,-432 2561,-408 1941,-408"/>
<text text-anchor="start" x="2028.5" y="-416.2" font-family="Times,serif" font-size="16.00">Crates on crates.io maintain strong security practices</text>
<polygon fill="none" stroke="black" points="1938,-405 1938,-487 2564,-487 2564,-405 1938,-405"/>
</g>
<!-- goal&#45;security&#45;&gt;crates&#45;secure -->
<g id="edge1" class="edge">
<title>goal&#45;security&#45;&gt;crates&#45;secure</title>
<path fill="none" stroke="black" d="M1712.99,-535.98C1803.84,-520.95 1907.27,-503.85 1999.01,-488.68"/>
<polygon fill="black" stroke="black" points="1999.69,-492.11 2008.99,-487.03 1998.55,-485.2 1999.69,-492.11"/>
</g>
<!-- core&#45;secure -->
<g id="node5" class="node">
<title>core&#45;secure</title>
<polygon fill="darkgoldenrod" stroke="transparent" points="1903,-329 1903,-353 2599,-353 2599,-329 1903,-329"/>
<polygon fill="none" stroke="black" points="1903,-329 1903,-353 2599,-353 2599,-329 1903,-329"/>
<text text-anchor="start" x="2117" y="-337.2" font-family="Times,serif" font-size="16.00">Security of Rust and Rust crates</text>
<polygon fill="#ffb90f" stroke="transparent" points="1903,-303 1903,-327 2599,-327 2599,-303 1903,-303"/>
<polygon fill="none" stroke="black" points="1903,-303 1903,-327 2599,-327 2599,-303 1903,-303"/>
<text text-anchor="start" x="1958" y="-311.2" font-family="Times,serif" font-size="16.00">Programs written in Rust do not have memory safety issues in practice</text>
<polygon fill="#ffb90f" stroke="transparent" points="1903,-277 1903,-301 2599,-301 2599,-277 1903,-277"/>
<polygon fill="none" stroke="black" points="1903,-277 1903,-301 2599,-301 2599,-277 1903,-277"/>
<text text-anchor="start" x="1907" y="-285.2" font-family="Times,serif" font-size="16.00">People are unable to produce a crash using only safe Rust and the standard library</text>
<polygon fill="none" stroke="black" points="1900,-274 1900,-356 2602,-356 2602,-274 1900,-274"/>
</g>
<!-- crates&#45;secure&#45;&gt;core&#45;secure -->
<g id="edge4" class="edge">
<title>crates&#45;secure&#45;&gt;core&#45;secure</title>
<path fill="none" stroke="black" d="M2251,-404.89C2251,-392.64 2251,-379 2251,-366.17"/>
<polygon fill="black" stroke="black" points="2254.5,-366.08 2251,-356.08 2247.5,-366.08 2254.5,-366.08"/>
</g>
<!-- safe&#45;rust -->
<g id="node6" class="node">
<title>safe&#45;rust</title>
<polygon fill="darkgoldenrod" stroke="transparent" points="1589,-185 1589,-209 2185,-209 2185,-185 1589,-185"/>
<polygon fill="none" stroke="black" points="1589,-185 1589,-209 2185,-209 2185,-185 1589,-185"/>
<text text-anchor="start" x="1811.5" y="-193.2" font-family="Times,serif" font-size="16.00">Safe Rust security</text>
<polygon fill="#ffb90f" stroke="transparent" points="1589,-159 1589,-183 2185,-183 2185,-159 1589,-159"/>
<polygon fill="none" stroke="black" points="1589,-159 1589,-183 2185,-183 2185,-159 1589,-159"/>
<text text-anchor="start" x="1670.5" y="-167.2" font-family="Times,serif" font-size="16.00">MIR has a formal model that has been proven sound</text>
<polygon fill="#ffb90f" stroke="transparent" points="1589,-133 1589,-157 2185,-157 2185,-133 1589,-133"/>
<polygon fill="none" stroke="black" points="1589,-133 1589,-157 2185,-157 2185,-133 1589,-133"/>
<text text-anchor="start" x="1593" y="-141.2" font-family="Times,serif" font-size="16.00">We have high confidence that Rust&#39;s MIR toolchain matches this model</text>
<polygon fill="cornsilk" stroke="transparent" points="1589,-107 1589,-131 1681,-131 1681,-107 1589,-107"/>
<polygon fill="none" stroke="black" points="1589,-107 1589,-131 1681,-131 1681,-107 1589,-107"/>
<text text-anchor="start" x="1612" y="-115.2" font-family="Times,serif" font-size="16.00">▯▯▯▯▯</text>
<polygon fill="cornsilk" stroke="transparent" points="1683,-107 1683,-131 2185,-131 2185,-107 1683,-107"/>
<polygon fill="none" stroke="black" points="1683,-107 1683,-131 2185,-131 2185,-107 1683,-107"/>
<text text-anchor="start" x="1792" y="-115.2" font-family="Times,serif" font-size="16.00">Soundness conformance test suite</text>
<polygon fill="cornsilk" stroke="transparent" points="1589,-81 1589,-105 1681,-105 1681,-81 1589,-81"/>
<polygon fill="none" stroke="black" points="1589,-81 1589,-105 1681,-105 1681,-81 1589,-81"/>
<text text-anchor="start" x="1612" y="-89.2" font-family="Times,serif" font-size="16.00">▯▯▯▯▯</text>
<polygon fill="cornsilk" stroke="transparent" points="1683,-81 1683,-105 2185,-105 2185,-81 1683,-81"/>
<polygon fill="none" stroke="black" points="1683,-81 1683,-105 2185,-105 2185,-81 1683,-81"/>
<text text-anchor="start" x="1843.5" y="-89.2" font-family="Times,serif" font-size="16.00">Develop formal model</text>
<polygon fill="cornsilk" stroke="transparent" points="1589,-55 1589,-79 1681,-79 1681,-55 1589,-55"/>
<polygon fill="none" stroke="black" points="1589,-55 1589,-79 1681,-79 1681,-55 1589,-55"/>
<text text-anchor="start" x="1612" y="-63.2" font-family="Times,serif" font-size="16.00">▯▯▯▯▯</text>
<polygon fill="cornsilk" stroke="transparent" points="1683,-55 1683,-79 2185,-79 2185,-55 1683,-55"/>
<polygon fill="none" stroke="black" points="1683,-55 1683,-79 2185,-79 2185,-55 1683,-55"/>
<text text-anchor="start" x="1706.5" y="-63.2" font-family="Times,serif" font-size="16.00">Rearchitect core parts of compiler for clarity, flexibility</text>
<polygon fill="cornsilk" stroke="transparent" points="1589,-29 1589,-53 1681,-53 1681,-29 1589,-29"/>
<polygon fill="none" stroke="black" points="1589,-29 1589,-53 1681,-53 1681,-29 1589,-29"/>
<text text-anchor="start" x="1612" y="-37.2" font-family="Times,serif" font-size="16.00">▯▯▯▯▯</text>
<polygon fill="cornsilk" stroke="transparent" points="1683,-29 1683,-53 2185,-53 2185,-29 1683,-29"/>
<polygon fill="none" stroke="black" points="1683,-29 1683,-53 2185,-53 2185,-29 1683,-29"/>
<text text-anchor="start" x="1810" y="-37.2" font-family="Times,serif" font-size="16.00">Fixing known soundness bugs</text>
<polygon fill="none" stroke="black" points="1586,-26 1586,-212 2188,-212 2188,-26 1586,-26"/>
</g>
<!-- core&#45;secure&#45;&gt;safe&#45;rust -->
<g id="edge5" class="edge">
<title>core&#45;secure&#45;&gt;safe&#45;rust</title>
<path fill="none" stroke="black" d="M2175.58,-273.8C2144.35,-257.16 2106.65,-237.07 2068.96,-216.98"/>
<polygon fill="black" stroke="black" points="2070.37,-213.76 2059.9,-212.15 2067.08,-219.94 2070.37,-213.76"/>
</g>
<!-- unsafe&#45;rust -->
<g id="node7" class="node">
<title>unsafe&#45;rust</title>
<polygon fill="darkgoldenrod" stroke="transparent" points="2210,-211 2210,-235 3023,-235 3023,-211 2210,-211"/>
<polygon fill="none" stroke="black" points="2210,-211 2210,-235 3023,-235 3023,-211 2210,-211"/>
<text text-anchor="start" x="2530.5" y="-219.2" font-family="Times,serif" font-size="16.00">Unsafe Rust security</text>
<polygon fill="#ffb90f" stroke="transparent" points="2210,-185 2210,-209 3023,-209 3023,-185 2210,-185"/>
<polygon fill="none" stroke="black" points="2210,-185 2210,-209 3023,-209 3023,-185 2210,-185"/>
<text text-anchor="start" x="2214" y="-193.2" font-family="Times,serif" font-size="16.00">The soundness rules for unsafe code are understood and followed by authors of unsafe Rust code</text>
<polygon fill="#ffb90f" stroke="transparent" points="2210,-159 2210,-183 3023,-183 3023,-159 2210,-159"/>
<polygon fill="none" stroke="black" points="2210,-159 2210,-183 3023,-183 3023,-159 2210,-159"/>
<text text-anchor="start" x="2272.5" y="-167.2" font-family="Times,serif" font-size="16.00">Tooling to dynamically test soundness of unsafe code is accessible and widely used</text>
<polygon fill="#ffb90f" stroke="transparent" points="2210,-133 2210,-157 3023,-157 3023,-133 2210,-133"/>
<polygon fill="none" stroke="black" points="2210,-133 2210,-157 3023,-157 3023,-133 2210,-133"/>
<text text-anchor="start" x="2351.5" y="-141.2" font-family="Times,serif" font-size="16.00">Tooling to statically prove soundness of unsafe code is available</text>
<polygon fill="#ffb90f" stroke="transparent" points="2210,-107 2210,-131 3023,-131 3023,-107 2210,-107"/>
<polygon fill="none" stroke="black" points="2210,-107 2210,-131 3023,-131 3023,-107 2210,-107"/>
<text text-anchor="start" x="2431.5" y="-115.2" font-family="Times,serif" font-size="16.00">Core Rust crates that have soundness proofs</text>
<polygon fill="cornsilk" stroke="transparent" points="2210,-81 2210,-105 2456,-105 2456,-81 2210,-81"/>
<polygon fill="none" stroke="black" points="2210,-81 2210,-105 2456,-105 2456,-81 2210,-81"/>
<text text-anchor="start" x="2310" y="-89.2" font-family="Times,serif" font-size="16.00">▯▯▯▯▯</text>
<polygon fill="cornsilk" stroke="transparent" points="2458,-81 2458,-105 3023,-105 3023,-81 2458,-81"/>
<polygon fill="none" stroke="black" points="2458,-81 2458,-105 3023,-105 3023,-81 2458,-81"/>
<text text-anchor="start" x="2644" y="-89.2" font-family="Times,serif" font-size="16.00">Unsafe code guidelines</text>
<polygon fill="cornsilk" stroke="transparent" points="2210,-55 2210,-79 2456,-79 2456,-55 2210,-55"/>
<polygon fill="none" stroke="black" points="2210,-55 2210,-79 2456,-79 2456,-55 2210,-55"/>
<text text-anchor="start" x="2310" y="-63.2" font-family="Times,serif" font-size="16.00">▯▯▯▯▯</text>
<polygon fill="cornsilk" stroke="transparent" points="2458,-55 2458,-79 3023,-79 3023,-55 2458,-55"/>
<polygon fill="none" stroke="black" points="2458,-55 2458,-79 3023,-79 3023,-55 2458,-55"/>
<text text-anchor="start" x="2558.5" y="-63.2" font-family="Times,serif" font-size="16.00">Sanitizers and other dynamic testers for UB</text>
<polygon fill="cornsilk" stroke="transparent" points="2210,-29 2210,-53 2456,-53 2456,-29 2210,-29"/>
<polygon fill="none" stroke="black" points="2210,-29 2210,-53 2456,-53 2456,-29 2210,-29"/>
<text text-anchor="start" x="2310" y="-37.2" font-family="Times,serif" font-size="16.00">▯▯▯▯▯</text>
<polygon fill="cornsilk" stroke="transparent" points="2458,-29 2458,-53 3023,-53 3023,-29 2458,-29"/>
<polygon fill="none" stroke="black" points="2458,-29 2458,-53 3023,-53 3023,-29 2458,-29"/>
<text text-anchor="start" x="2564.5" y="-37.2" font-family="Times,serif" font-size="16.00">Model checkers and Rust theorem provers</text>
<polygon fill="cornsilk" stroke="transparent" points="2210,-3 2210,-27 2456,-27 2456,-3 2210,-3"/>
<polygon fill="none" stroke="black" points="2210,-3 2210,-27 2456,-27 2456,-3 2210,-3"/>
<text text-anchor="start" x="2310" y="-11.2" font-family="Times,serif" font-size="16.00">▯▯▯▯▯</text>
<polygon fill="cornsilk" stroke="transparent" points="2458,-3 2458,-27 3023,-27 3023,-3 2458,-3"/>
<polygon fill="none" stroke="black" points="2458,-3 2458,-27 3023,-27 3023,-3 2458,-3"/>
<text text-anchor="start" x="2570.5" y="-11.2" font-family="Times,serif" font-size="16.00">Standard library specification and proofs</text>
<polygon fill="none" stroke="black" points="2206.5,0 2206.5,-238 3025.5,-238 3025.5,0 2206.5,0"/>
</g>
<!-- core&#45;secure&#45;&gt;unsafe&#45;rust -->
<g id="edge6" class="edge">
<title>core&#45;secure&#45;&gt;unsafe&#45;rust</title>
<path fill="none" stroke="black" d="M2326.63,-273.8C2344.35,-264.38 2364.15,-253.86 2384.85,-242.86"/>
<polygon fill="black" stroke="black" points="2386.59,-245.9 2393.77,-238.12 2383.3,-239.72 2386.59,-245.9"/>
</g>
</g>
</svg>
