<?xml version="1.0" encoding="UTF-8" standalone="no"?>
<!DOCTYPE svg PUBLIC "-//W3C//DTD SVG 1.1//EN"
 "http://www.w3.org/Graphics/SVG/1.1/DTD/svg11.dtd">
<!-- Generated by graphviz version 2.50.0 (20211204.2007)
 -->
<!-- Title: g Pages: 1 -->
<svg width="2451pt" height="1240pt"
 viewBox="0.00 0.00 2450.50 1240.00" xmlns="http://www.w3.org/2000/svg" xmlns:xlink="http://www.w3.org/1999/xlink">
<g id="graph0" class="graph" transform="scale(1 1) rotate(0) translate(4 1236)">
<title>g</title>
<polygon fill="white" stroke="transparent" points="-4,4 -4,-1236 2446.5,-1236 2446.5,4 -4,4"/>
<!-- goal&#45;security -->
<g id="node1" class="node">
<title>goal&#45;security</title>
<polygon fill="darkgoldenrod" stroke="transparent" points="754.5,-1205 754.5,-1229 1498.5,-1229 1498.5,-1205 754.5,-1205"/>
<polygon fill="none" stroke="black" points="754.5,-1205 754.5,-1229 1498.5,-1229 1498.5,-1205 754.5,-1205"/>
<text text-anchor="start" x="1050" y="-1213.2" font-family="Times,serif" font-size="16.00">🎯 Rust is highly secure</text>
<polygon fill="#ffb90f" stroke="transparent" points="754.5,-1179 754.5,-1203 1498.5,-1203 1498.5,-1179 754.5,-1179"/>
<polygon fill="none" stroke="black" points="754.5,-1179 754.5,-1203 1498.5,-1203 1498.5,-1179 754.5,-1179"/>
<text text-anchor="start" x="872" y="-1187.2" font-family="Times,serif" font-size="16.00">People using Rust rarely &#45;&#45; if ever &#45;&#45; experience security vulnerabilities or issues</text>
<polygon fill="#ffb90f" stroke="transparent" points="754.5,-1153 754.5,-1177 1498.5,-1177 1498.5,-1153 754.5,-1153"/>
<polygon fill="none" stroke="black" points="754.5,-1153 754.5,-1177 1498.5,-1177 1498.5,-1153 754.5,-1153"/>
<text text-anchor="start" x="758.5" y="-1161.2" font-family="Times,serif" font-size="16.00">In companies using Rust widely, security engineers are able to refocus their attention on higher&#45;level security issues</text>
<polygon fill="none" stroke="black" points="751.5,-1150 751.5,-1232 1501.5,-1232 1501.5,-1150 751.5,-1150"/>
</g>
<!-- security&#45;response -->
<g id="node2" class="node">
<title>security&#45;response</title>
<polygon fill="darkgoldenrod" stroke="transparent" points="3.5,-1087 3.5,-1111 764.5,-1111 764.5,-1087 3.5,-1087"/>
<polygon fill="none" stroke="black" points="3.5,-1087 3.5,-1111 764.5,-1111 764.5,-1087 3.5,-1087"/>
<text text-anchor="start" x="298" y="-1095.2" font-family="Times,serif" font-size="16.00">Effective security response</text>
<polygon fill="#ffb90f" stroke="transparent" points="3.5,-1061 3.5,-1085 764.5,-1085 764.5,-1061 3.5,-1061"/>
<polygon fill="none" stroke="black" points="3.5,-1061 3.5,-1085 764.5,-1085 764.5,-1061 3.5,-1061"/>
<text text-anchor="start" x="7.5" y="-1069.2" font-family="Times,serif" font-size="16.00">When issues do arise with a Rust crate, people know how to report them, and crate authors effectively respond to them</text>
<polygon fill="cornsilk" stroke="transparent" points="3.5,-1035 3.5,-1059 163.5,-1059 163.5,-1035 3.5,-1035"/>
<polygon fill="none" stroke="black" points="3.5,-1035 3.5,-1059 163.5,-1059 163.5,-1035 3.5,-1035"/>
<text text-anchor="start" x="59" y="-1043.2" font-family="Times,serif" font-size="16.00">▯▯▯▯▯</text>
<polygon fill="cornsilk" stroke="transparent" points="165.5,-1035 165.5,-1059 764.5,-1059 764.5,-1035 165.5,-1035"/>
<polygon fill="none" stroke="black" points="165.5,-1035 165.5,-1059 764.5,-1059 764.5,-1035 165.5,-1035"/>
<text text-anchor="start" x="221" y="-1043.2" font-family="Times,serif" font-size="16.00">Support program for crate authors who have security issues reported to them</text>
<polygon fill="cornsilk" stroke="transparent" points="3.5,-1009 3.5,-1033 163.5,-1033 163.5,-1009 3.5,-1009"/>
<polygon fill="none" stroke="black" points="3.5,-1009 3.5,-1033 163.5,-1033 163.5,-1009 3.5,-1009"/>
<text text-anchor="start" x="59" y="-1017.2" font-family="Times,serif" font-size="16.00">▯▯▯▯▯</text>
<polygon fill="cornsilk" stroke="transparent" points="165.5,-1009 165.5,-1033 764.5,-1033 764.5,-1009 165.5,-1009"/>
<polygon fill="none" stroke="black" points="165.5,-1009 165.5,-1033 764.5,-1033 764.5,-1009 165.5,-1009"/>
<text text-anchor="start" x="307" y="-1017.2" font-family="Times,serif" font-size="16.00">Coordinated disclosure of security issues for Rust</text>
<polygon fill="none" stroke="black" points="0,-1006 0,-1114 767,-1114 767,-1006 0,-1006"/>
</g>
<!-- goal&#45;security&#45;&gt;security&#45;response -->
<g id="edge3" class="edge">
<title>goal&#45;security&#45;&gt;security&#45;response</title>
<path fill="none" stroke="black" d="M895.99,-1149.98C833.68,-1139.16 765.15,-1127.26 699.04,-1115.78"/>
<polygon fill="black" stroke="black" points="699.33,-1112.28 688.88,-1114.02 698.14,-1119.18 699.33,-1112.28"/>
</g>
<!-- crates.io&#45;secure -->
<g id="node3" class="node">
<title>crates.io&#45;secure</title>
<polygon fill="darkgoldenrod" stroke="transparent" points="788.5,-1087 788.5,-1111 1464.5,-1111 1464.5,-1087 788.5,-1087"/>
<polygon fill="none" stroke="black" points="788.5,-1087 788.5,-1111 1464.5,-1111 1464.5,-1087 788.5,-1087"/>
<text text-anchor="start" x="1030" y="-1095.2" font-family="Times,serif" font-size="16.00">Security of cargo and crates.io</text>
<polygon fill="#ffb90f" stroke="transparent" points="788.5,-1061 788.5,-1085 1464.5,-1085 1464.5,-1061 788.5,-1061"/>
<polygon fill="none" stroke="black" points="788.5,-1061 788.5,-1085 1464.5,-1085 1464.5,-1061 788.5,-1061"/>
<text text-anchor="start" x="873" y="-1069.2" font-family="Times,serif" font-size="16.00">People can choose crates from crates.io without fear of vulnerabilities or trojans</text>
<polygon fill="#ffb90f" stroke="transparent" points="788.5,-1035 788.5,-1059 1464.5,-1059 1464.5,-1035 788.5,-1035"/>
<polygon fill="none" stroke="black" points="788.5,-1035 788.5,-1059 1464.5,-1059 1464.5,-1035 788.5,-1035"/>
<text text-anchor="start" x="792.5" y="-1043.2" font-family="Times,serif" font-size="16.00">Authors can publish code in crates on crates.io with confidence that their users will receive the same code</text>
<polygon fill="cornsilk" stroke="transparent" points="788.5,-1009 788.5,-1033 992.5,-1033 992.5,-1009 788.5,-1009"/>
<polygon fill="none" stroke="black" points="788.5,-1009 788.5,-1033 992.5,-1033 992.5,-1009 788.5,-1009"/>
<text text-anchor="start" x="866" y="-1017.2" font-family="Times,serif" font-size="16.00">▯▯▯▯▯</text>
<polygon fill="cornsilk" stroke="transparent" points="994.5,-1009 994.5,-1033 1464.5,-1033 1464.5,-1009 994.5,-1009"/>
<polygon fill="none" stroke="black" points="994.5,-1009 994.5,-1033 1464.5,-1033 1464.5,-1009 994.5,-1009"/>
<text text-anchor="start" x="1072" y="-1017.2" font-family="Times,serif" font-size="16.00">build.rs and procedural macros can be sandboxed</text>
<polygon fill="none" stroke="black" points="785.5,-1006 785.5,-1114 1467.5,-1114 1467.5,-1006 785.5,-1006"/>
</g>
<!-- goal&#45;security&#45;&gt;crates.io&#45;secure -->
<g id="edge2" class="edge">
<title>goal&#45;security&#45;&gt;crates.io&#45;secure</title>
<path fill="none" stroke="black" d="M1126.5,-1149.89C1126.5,-1141.81 1126.5,-1133.13 1126.5,-1124.48"/>
<polygon fill="black" stroke="black" points="1130,-1124.37 1126.5,-1114.37 1123,-1124.37 1130,-1124.37"/>
</g>
<!-- crates&#45;secure -->
<g id="node4" class="node">
<title>crates&#45;secure</title>
<polygon fill="darkgoldenrod" stroke="transparent" points="1488.5,-1074 1488.5,-1098 1954.5,-1098 1954.5,-1074 1488.5,-1074"/>
<polygon fill="none" stroke="black" points="1488.5,-1074 1488.5,-1098 1954.5,-1098 1954.5,-1074 1488.5,-1074"/>
<text text-anchor="start" x="1649.5" y="-1082.2" font-family="Times,serif" font-size="16.00">Security of Rust crates</text>
<polygon fill="#ffb90f" stroke="transparent" points="1488.5,-1048 1488.5,-1072 1954.5,-1072 1954.5,-1048 1488.5,-1048"/>
<polygon fill="none" stroke="black" points="1488.5,-1048 1488.5,-1072 1954.5,-1072 1954.5,-1048 1488.5,-1048"/>
<text text-anchor="start" x="1492.5" y="-1056.2" font-family="Times,serif" font-size="16.00">Authors of crates on crates.io are able to ensure their own crates security</text>
<polygon fill="#ffb90f" stroke="transparent" points="1488.5,-1022 1488.5,-1046 1954.5,-1046 1954.5,-1022 1488.5,-1022"/>
<polygon fill="none" stroke="black" points="1488.5,-1022 1488.5,-1046 1954.5,-1046 1954.5,-1022 1488.5,-1022"/>
<text text-anchor="start" x="1554.5" y="-1030.2" font-family="Times,serif" font-size="16.00">Crates on crates.io maintain strong security practices</text>
<polygon fill="none" stroke="black" points="1485.5,-1019 1485.5,-1101 1957.5,-1101 1957.5,-1019 1485.5,-1019"/>
</g>
<!-- goal&#45;security&#45;&gt;crates&#45;secure -->
<g id="edge1" class="edge">
<title>goal&#45;security&#45;&gt;crates&#45;secure</title>
<path fill="none" stroke="black" d="M1311.09,-1149.98C1379.55,-1135.14 1457.38,-1118.26 1526.72,-1103.23"/>
<polygon fill="black" stroke="black" points="1527.85,-1106.56 1536.89,-1101.03 1526.37,-1099.72 1527.85,-1106.56"/>
</g>
<!-- core&#45;secure -->
<g id="node5" class="node">
<title>core&#45;secure</title>
<polygon fill="darkgoldenrod" stroke="transparent" points="1457.5,-943 1457.5,-967 1985.5,-967 1985.5,-943 1457.5,-943"/>
<polygon fill="none" stroke="black" points="1457.5,-943 1457.5,-967 1985.5,-967 1985.5,-943 1457.5,-943"/>
<text text-anchor="start" x="1619.5" y="-951.2" font-family="Times,serif" font-size="16.00">Security of Rust and Rust crates</text>
<polygon fill="#ffb90f" stroke="transparent" points="1457.5,-917 1457.5,-941 1985.5,-941 1985.5,-917 1457.5,-917"/>
<polygon fill="none" stroke="black" points="1457.5,-917 1457.5,-941 1985.5,-941 1985.5,-917 1457.5,-917"/>
<text text-anchor="start" x="1497" y="-925.2" font-family="Times,serif" font-size="16.00">Programs written in Rust do not have memory safety issues in practice</text>
<polygon fill="#ffb90f" stroke="transparent" points="1457.5,-891 1457.5,-915 1985.5,-915 1985.5,-891 1457.5,-891"/>
<polygon fill="none" stroke="black" points="1457.5,-891 1457.5,-915 1985.5,-915 1985.5,-891 1457.5,-891"/>
<text text-anchor="start" x="1461.5" y="-899.2" font-family="Times,serif" font-size="16.00">People are unable to produce a crash using only safe Rust and the standard library</text>
<polygon fill="none" stroke="black" points="1454.5,-888 1454.5,-970 1988.5,-970 1988.5,-888 1454.5,-888"/>
</g>
<!-- crates&#45;secure&#45;&gt;core&#45;secure -->
<g id="edge4" class="edge">
<title>crates&#45;secure&#45;&gt;core&#45;secure</title>
<path fill="none" stroke="black" d="M1721.5,-1018.89C1721.5,-1006.64 1721.5,-993 1721.5,-980.17"/>
<polygon fill="black" stroke="black" points="1725,-980.08 1721.5,-970.08 1718,-980.08 1725,-980.08"/>
</g>
<!-- safe&#45;rust -->
<g id="node6" class="node">
<title>safe&#45;rust</title>
<polygon fill="darkgoldenrod" stroke="transparent" points="1622.5,-825 1622.5,-849 2085.5,-849 2085.5,-825 1622.5,-825"/>
<polygon fill="none" stroke="black" points="1622.5,-825 1622.5,-849 2085.5,-849 2085.5,-825 1622.5,-825"/>
<text text-anchor="start" x="1796.5" y="-833.2" font-family="Times,serif" font-size="16.00">Safe Rust security</text>
<polygon fill="#ffb90f" stroke="transparent" points="1622.5,-799 1622.5,-823 2085.5,-823 2085.5,-799 1622.5,-799"/>
<polygon fill="none" stroke="black" points="1622.5,-799 1622.5,-823 2085.5,-823 2085.5,-799 1622.5,-799"/>
<text text-anchor="start" x="1687" y="-807.2" font-family="Times,serif" font-size="16.00">MIR has a formal model that has been proven sound</text>
<polygon fill="#ffb90f" stroke="transparent" points="1622.5,-773 1622.5,-797 2085.5,-797 2085.5,-773 1622.5,-773"/>
<polygon fill="none" stroke="black" points="1622.5,-773 1622.5,-797 2085.5,-797 2085.5,-773 1622.5,-773"/>
<text text-anchor="start" x="1626.5" y="-781.2" font-family="Times,serif" font-size="16.00">We have high confidence that Rust&#39;s MIR toolchain matches this model</text>
<polygon fill="cornsilk" stroke="transparent" points="1622.5,-747 1622.5,-771 1701.5,-771 1701.5,-747 1622.5,-747"/>
<polygon fill="none" stroke="black" points="1622.5,-747 1622.5,-771 1701.5,-771 1701.5,-747 1622.5,-747"/>
<text text-anchor="start" x="1637.5" y="-755.2" font-family="Times,serif" font-size="16.00">▯▯▯▯▯</text>
<polygon fill="cornsilk" stroke="transparent" points="1703.5,-747 1703.5,-771 2085.5,-771 2085.5,-747 1703.5,-747"/>
<polygon fill="none" stroke="black" points="1703.5,-747 1703.5,-771 2085.5,-771 2085.5,-747 1703.5,-747"/>
<text text-anchor="start" x="1786.5" y="-755.2" font-family="Times,serif" font-size="16.00">Soundness conformance test suite</text>
<polygon fill="cornsilk" stroke="transparent" points="1622.5,-721 1622.5,-745 1701.5,-745 1701.5,-721 1622.5,-721"/>
<polygon fill="none" stroke="black" points="1622.5,-721 1622.5,-745 1701.5,-745 1701.5,-721 1622.5,-721"/>
<text text-anchor="start" x="1637.5" y="-729.2" font-family="Times,serif" font-size="16.00">▯▯▯▯▯</text>
<polygon fill="cornsilk" stroke="transparent" points="1703.5,-721 1703.5,-745 2085.5,-745 2085.5,-721 1703.5,-721"/>
<polygon fill="none" stroke="black" points="1703.5,-721 1703.5,-745 2085.5,-745 2085.5,-721 1703.5,-721"/>
<text text-anchor="start" x="1822" y="-729.2" font-family="Times,serif" font-size="16.00">Develop formal model</text>
<polygon fill="cornsilk" stroke="transparent" points="1622.5,-695 1622.5,-719 1701.5,-719 1701.5,-695 1622.5,-695"/>
<polygon fill="none" stroke="black" points="1622.5,-695 1622.5,-719 1701.5,-719 1701.5,-695 1622.5,-695"/>
<text text-anchor="start" x="1637.5" y="-703.2" font-family="Times,serif" font-size="16.00">▯▯▯▯▯</text>
<polygon fill="cornsilk" stroke="transparent" points="1703.5,-695 1703.5,-719 2085.5,-719 2085.5,-695 1703.5,-695"/>
<polygon fill="none" stroke="black" points="1703.5,-695 1703.5,-719 2085.5,-719 2085.5,-695 1703.5,-695"/>
<text text-anchor="start" x="1718.5" y="-703.2" font-family="Times,serif" font-size="16.00">Rearchitect core parts of compiler for clarity, flexibility</text>
<polygon fill="cornsilk" stroke="transparent" points="1622.5,-669 1622.5,-693 1701.5,-693 1701.5,-669 1622.5,-669"/>
<polygon fill="none" stroke="black" points="1622.5,-669 1622.5,-693 1701.5,-693 1701.5,-669 1622.5,-669"/>
<text text-anchor="start" x="1637.5" y="-677.2" font-family="Times,serif" font-size="16.00">▯▯▯▯▯</text>
<polygon fill="cornsilk" stroke="transparent" points="1703.5,-669 1703.5,-693 2085.5,-693 2085.5,-669 1703.5,-669"/>
<polygon fill="none" stroke="black" points="1703.5,-669 1703.5,-693 2085.5,-693 2085.5,-669 1703.5,-669"/>
<text text-anchor="start" x="1796.5" y="-677.2" font-family="Times,serif" font-size="16.00">Fixing known soundness bugs</text>
<polygon fill="none" stroke="black" points="1619,-666 1619,-852 2088,-852 2088,-666 1619,-666"/>
</g>
<!-- core&#45;secure&#45;&gt;safe&#45;rust -->
<g id="edge5" class="edge">
<title>core&#45;secure&#45;&gt;safe&#45;rust</title>
<path fill="none" stroke="black" d="M1753.12,-887.76C1759.79,-879.27 1767.12,-869.94 1774.67,-860.32"/>
<polygon fill="black" stroke="black" points="1777.64,-862.21 1781.07,-852.19 1772.14,-857.89 1777.64,-862.21"/>
</g>
<!-- unsafe&#45;rust -->
<g id="node7" class="node">
<title>unsafe&#45;rust</title>
<polygon fill="darkgoldenrod" stroke="transparent" points="1278.5,-603 1278.5,-627 1903.5,-627 1903.5,-603 1278.5,-603"/>
<polygon fill="none" stroke="black" points="1278.5,-603 1278.5,-627 1903.5,-627 1903.5,-603 1278.5,-603"/>
<text text-anchor="start" x="1525" y="-611.2" font-family="Times,serif" font-size="16.00">Unsafe Rust security</text>
<polygon fill="#ffb90f" stroke="transparent" points="1278.5,-577 1278.5,-601 1903.5,-601 1903.5,-577 1278.5,-577"/>
<polygon fill="none" stroke="black" points="1278.5,-577 1278.5,-601 1903.5,-601 1903.5,-577 1278.5,-577"/>
<text text-anchor="start" x="1282.5" y="-585.2" font-family="Times,serif" font-size="16.00">The soundness rules for unsafe code are understood and followed by authors of unsafe Rust code</text>
<polygon fill="#ffb90f" stroke="transparent" points="1278.5,-551 1278.5,-575 1903.5,-575 1903.5,-551 1278.5,-551"/>
<polygon fill="none" stroke="black" points="1278.5,-551 1278.5,-575 1903.5,-575 1903.5,-551 1278.5,-551"/>
<text text-anchor="start" x="1326" y="-559.2" font-family="Times,serif" font-size="16.00">Tooling to dynamically test soundness of unsafe code is accessible and widely used</text>
<polygon fill="#ffb90f" stroke="transparent" points="1278.5,-525 1278.5,-549 1903.5,-549 1903.5,-525 1278.5,-525"/>
<polygon fill="none" stroke="black" points="1278.5,-525 1278.5,-549 1903.5,-549 1903.5,-525 1278.5,-525"/>
<text text-anchor="start" x="1386.5" y="-533.2" font-family="Times,serif" font-size="16.00">Tooling to statically prove soundness of unsafe code is available</text>
<polygon fill="#ffb90f" stroke="transparent" points="1278.5,-499 1278.5,-523 1903.5,-523 1903.5,-499 1278.5,-499"/>
<polygon fill="none" stroke="black" points="1278.5,-499 1278.5,-523 1903.5,-523 1903.5,-499 1278.5,-499"/>
<text text-anchor="start" x="1451" y="-507.2" font-family="Times,serif" font-size="16.00">Core Rust crates that have soundness proofs</text>
<polygon fill="cornsilk" stroke="transparent" points="1278.5,-473 1278.5,-497 1475.5,-497 1475.5,-473 1278.5,-473"/>
<polygon fill="none" stroke="black" points="1278.5,-473 1278.5,-497 1475.5,-497 1475.5,-473 1278.5,-473"/>
<text text-anchor="start" x="1352.5" y="-481.2" font-family="Times,serif" font-size="16.00">▯▯▯▯▯</text>
<polygon fill="cornsilk" stroke="transparent" points="1477.5,-473 1477.5,-497 1903.5,-497 1903.5,-473 1477.5,-473"/>
<polygon fill="none" stroke="black" points="1477.5,-473 1477.5,-497 1903.5,-497 1903.5,-473 1477.5,-473"/>
<text text-anchor="start" x="1616.5" y="-481.2" font-family="Times,serif" font-size="16.00">Unsafe code guidelines</text>
<polygon fill="cornsilk" stroke="transparent" points="1278.5,-447 1278.5,-471 1475.5,-471 1475.5,-447 1278.5,-447"/>
<polygon fill="none" stroke="black" points="1278.5,-447 1278.5,-471 1475.5,-471 1475.5,-447 1278.5,-447"/>
<text text-anchor="start" x="1352.5" y="-455.2" font-family="Times,serif" font-size="16.00">▯▯▯▯▯</text>
<polygon fill="cornsilk" stroke="transparent" points="1477.5,-447 1477.5,-471 1903.5,-471 1903.5,-447 1477.5,-447"/>
<polygon fill="none" stroke="black" points="1477.5,-447 1477.5,-471 1903.5,-471 1903.5,-447 1477.5,-447"/>
<text text-anchor="start" x="1552" y="-455.2" font-family="Times,serif" font-size="16.00">Sanitizers and other dynamic testers for UB</text>
<polygon fill="cornsilk" stroke="transparent" points="1278.5,-421 1278.5,-445 1475.5,-445 1475.5,-421 1278.5,-421"/>
<polygon fill="none" stroke="black" points="1278.5,-421 1278.5,-445 1475.5,-445 1475.5,-421 1278.5,-421"/>
<text text-anchor="start" x="1352.5" y="-429.2" font-family="Times,serif" font-size="16.00">▯▯▯▯▯</text>
<polygon fill="cornsilk" stroke="transparent" points="1477.5,-421 1477.5,-445 1903.5,-445 1903.5,-421 1477.5,-421"/>
<polygon fill="none" stroke="black" points="1477.5,-421 1477.5,-445 1903.5,-445 1903.5,-421 1477.5,-421"/>
<text text-anchor="start" x="1556" y="-429.2" font-family="Times,serif" font-size="16.00">Model checkers and Rust theorem provers</text>
<polygon fill="cornsilk" stroke="transparent" points="1278.5,-395 1278.5,-419 1475.5,-419 1475.5,-395 1278.5,-395"/>
<polygon fill="none" stroke="black" points="1278.5,-395 1278.5,-419 1475.5,-419 1475.5,-395 1278.5,-395"/>
<text text-anchor="start" x="1352.5" y="-403.2" font-family="Times,serif" font-size="16.00">▯▯▯▯▯</text>
<polygon fill="cornsilk" stroke="transparent" points="1477.5,-395 1477.5,-419 1903.5,-419 1903.5,-395 1477.5,-395"/>
<polygon fill="none" stroke="black" points="1477.5,-395 1477.5,-419 1903.5,-419 1903.5,-395 1477.5,-395"/>
<text text-anchor="start" x="1560.5" y="-403.2" font-family="Times,serif" font-size="16.00">Standard library specification and proofs</text>
<polygon fill="none" stroke="black" points="1275,-392 1275,-630 1906,-630 1906,-392 1275,-392"/>
</g>
<!-- core&#45;secure&#45;&gt;unsafe&#45;rust -->
<g id="edge6" class="edge">
<title>core&#45;secure&#45;&gt;unsafe&#45;rust</title>
<path fill="none" stroke="black" d="M1642.76,-887.82C1629.98,-877.84 1618.37,-865.93 1610.5,-852 1574.65,-788.6 1568.67,-707.49 1572.12,-640.4"/>
<polygon fill="black" stroke="black" points="1575.62,-640.37 1572.72,-630.18 1568.63,-639.96 1575.62,-640.37"/>
</g>
<!-- safe&#45;rust&#45;&gt;unsafe&#45;rust -->
<g id="edge7" class="edge">
<title>safe&#45;rust&#45;&gt;unsafe&#45;rust</title>
<path fill="none" stroke="black" d="M1754.82,-665.7C1744.85,-656.37 1734.61,-646.8 1724.35,-637.2"/>
<polygon fill="black" stroke="black" points="1726.58,-634.49 1716.89,-630.22 1721.8,-639.6 1726.58,-634.49"/>
</g>
<!-- formal&#45;methods&#45;tooling -->
<g id="node8" class="node">
<title>formal&#45;methods&#45;tooling</title>
<polygon fill="darkgoldenrod" stroke="transparent" points="1927.5,-590 1927.5,-614 2439.5,-614 2439.5,-590 1927.5,-590"/>
<polygon fill="none" stroke="black" points="1927.5,-590 1927.5,-614 2439.5,-614 2439.5,-590 1927.5,-590"/>
<text text-anchor="start" x="2094.5" y="-598.2" font-family="Times,serif" font-size="16.00">Tooling for formal methods</text>
<polygon fill="#ffb90f" stroke="transparent" points="1927.5,-564 1927.5,-588 2439.5,-588 2439.5,-564 1927.5,-564"/>
<polygon fill="none" stroke="black" points="1927.5,-564 1927.5,-588 2439.5,-588 2439.5,-564 1927.5,-564"/>
<text text-anchor="start" x="1931.5" y="-572.2" font-family="Times,serif" font-size="16.00">Developers extending Rust with unsafe Rust can prove these extensions correct</text>
<polygon fill="#ffb90f" stroke="transparent" points="1927.5,-538 1927.5,-562 2439.5,-562 2439.5,-538 1927.5,-538"/>
<polygon fill="none" stroke="black" points="1927.5,-538 1927.5,-562 2439.5,-562 2439.5,-538 1927.5,-538"/>
<text text-anchor="start" x="1964.5" y="-546.2" font-family="Times,serif" font-size="16.00">Developers can prove their Rust code meets functional specifications</text>
<polygon fill="#ffb90f" stroke="transparent" points="1927.5,-512 1927.5,-536 2439.5,-536 2439.5,-512 1927.5,-512"/>
<polygon fill="none" stroke="black" points="1927.5,-512 1927.5,-536 2439.5,-536 2439.5,-512 1927.5,-512"/>
<text text-anchor="start" x="2002" y="-520.2" font-family="Times,serif" font-size="16.00">Developers can prove their Rust code meets specification</text>
<polygon fill="cornsilk" stroke="transparent" points="1927.5,-486 1927.5,-510 2067.5,-510 2067.5,-486 1927.5,-486"/>
<polygon fill="none" stroke="black" points="1927.5,-486 1927.5,-510 2067.5,-510 2067.5,-486 1927.5,-486"/>
<text text-anchor="start" x="1973" y="-494.2" font-family="Times,serif" font-size="16.00">▮▯▯▯▯</text>
<polygon fill="cornsilk" stroke="transparent" points="2069.5,-486 2069.5,-510 2439.5,-510 2439.5,-486 2069.5,-486"/>
<polygon fill="none" stroke="black" points="2069.5,-486 2069.5,-510 2439.5,-510 2439.5,-486 2069.5,-486"/>
<text text-anchor="start" x="2115.5" y="-494.2" font-family="Times,serif" font-size="16.00">Sanitizer / dynamic checker for unsafe code</text>
<polygon fill="cornsilk" stroke="transparent" points="1927.5,-460 1927.5,-484 2067.5,-484 2067.5,-460 1927.5,-460"/>
<polygon fill="none" stroke="black" points="1927.5,-460 1927.5,-484 2067.5,-484 2067.5,-460 1927.5,-460"/>
<text text-anchor="start" x="1973" y="-468.2" font-family="Times,serif" font-size="16.00">▮▯▯▯▯</text>
<polygon fill="cornsilk" stroke="transparent" points="2069.5,-460 2069.5,-484 2439.5,-484 2439.5,-460 2069.5,-460"/>
<polygon fill="none" stroke="black" points="2069.5,-460 2069.5,-484 2439.5,-484 2439.5,-460 2069.5,-460"/>
<text text-anchor="start" x="2162.5" y="-468.2" font-family="Times,serif" font-size="16.00">Model checker for Rust code</text>
<polygon fill="cornsilk" stroke="transparent" points="1927.5,-434 1927.5,-458 2067.5,-458 2067.5,-434 1927.5,-434"/>
<polygon fill="none" stroke="black" points="1927.5,-434 1927.5,-458 2067.5,-458 2067.5,-434 1927.5,-434"/>
<text text-anchor="start" x="1973" y="-442.2" font-family="Times,serif" font-size="16.00">▯▯▯▯▯</text>
<polygon fill="cornsilk" stroke="transparent" points="2069.5,-434 2069.5,-458 2439.5,-458 2439.5,-434 2069.5,-434"/>
<polygon fill="none" stroke="black" points="2069.5,-434 2069.5,-458 2439.5,-458 2439.5,-434 2069.5,-434"/>
<text text-anchor="start" x="2141.5" y="-442.2" font-family="Times,serif" font-size="16.00">Rust standard library proven sound</text>
<polygon fill="cornsilk" stroke="transparent" points="1927.5,-408 1927.5,-432 2067.5,-432 2067.5,-408 1927.5,-408"/>
<polygon fill="none" stroke="black" points="1927.5,-408 1927.5,-432 2067.5,-432 2067.5,-408 1927.5,-408"/>
<text text-anchor="start" x="1973" y="-416.2" font-family="Times,serif" font-size="16.00">▮▯▯▯▯</text>
<polygon fill="cornsilk" stroke="transparent" points="2069.5,-408 2069.5,-432 2439.5,-432 2439.5,-408 2069.5,-408"/>
<polygon fill="none" stroke="black" points="2069.5,-408 2069.5,-432 2439.5,-432 2439.5,-408 2069.5,-408"/>
<text text-anchor="start" x="2159" y="-416.2" font-family="Times,serif" font-size="16.00">Packages on crates.io checked</text>
<polygon fill="none" stroke="black" points="1924.5,-405 1924.5,-617 2442.5,-617 2442.5,-405 1924.5,-405"/>
</g>
<!-- safe&#45;rust&#45;&gt;formal&#45;methods&#45;tooling -->
<g id="edge8" class="edge">
<title>safe&#45;rust&#45;&gt;formal&#45;methods&#45;tooling</title>
<path fill="none" stroke="black" d="M1977.32,-665.7C1995.96,-651.8 2015.35,-637.34 2034.46,-623.1"/>
<polygon fill="black" stroke="black" points="2036.7,-625.8 2042.63,-617.02 2032.52,-620.19 2036.7,-625.8"/>
</g>
<!-- semi&#45;stable&#45;apis -->
<g id="node10" class="node">
<title>semi&#45;stable&#45;apis</title>
<polygon fill="darkgoldenrod" stroke="transparent" points="1977.5,-329 1977.5,-353 2389.5,-353 2389.5,-329 1977.5,-329"/>
<polygon fill="none" stroke="black" points="1977.5,-329 1977.5,-353 2389.5,-353 2389.5,-329 1977.5,-329"/>
<text text-anchor="start" x="2016.5" y="-337.2" font-family="Times,serif" font-size="16.00">Compiler offers semi&#45;stable APIs that others can use</text>
<polygon fill="cornsilk" stroke="transparent" points="1977.5,-303 1977.5,-327 2032.5,-327 2032.5,-303 1977.5,-303"/>
<polygon fill="none" stroke="black" points="1977.5,-303 1977.5,-327 2032.5,-327 2032.5,-303 1977.5,-303"/>
<text text-anchor="start" x="1980.5" y="-311.2" font-family="Times,serif" font-size="16.00">▯▯▯▯▯</text>
<polygon fill="cornsilk" stroke="transparent" points="2034.5,-303 2034.5,-327 2389.5,-327 2389.5,-303 2034.5,-303"/>
<polygon fill="none" stroke="black" points="2034.5,-303 2034.5,-327 2389.5,-327 2389.5,-303 2034.5,-303"/>
<text text-anchor="start" x="2085" y="-311.2" font-family="Times,serif" font-size="16.00">Shared crate for representing Rust types</text>
<polygon fill="cornsilk" stroke="transparent" points="1977.5,-277 1977.5,-301 2032.5,-301 2032.5,-277 1977.5,-277"/>
<polygon fill="none" stroke="black" points="1977.5,-277 1977.5,-301 2032.5,-301 2032.5,-277 1977.5,-277"/>
<text text-anchor="start" x="1980.5" y="-285.2" font-family="Times,serif" font-size="16.00">▯▯▯▯▯</text>
<polygon fill="cornsilk" stroke="transparent" points="2034.5,-277 2034.5,-301 2389.5,-301 2389.5,-277 2034.5,-277"/>
<polygon fill="none" stroke="black" points="2034.5,-277 2034.5,-301 2389.5,-301 2389.5,-277 2034.5,-277"/>
<text text-anchor="start" x="2037.5" y="-285.2" font-family="Times,serif" font-size="16.00">Access to Rust type information and type check results</text>
<polygon fill="cornsilk" stroke="transparent" points="1977.5,-251 1977.5,-275 2032.5,-275 2032.5,-251 1977.5,-251"/>
<polygon fill="none" stroke="black" points="1977.5,-251 1977.5,-275 2032.5,-275 2032.5,-251 1977.5,-251"/>
<text text-anchor="start" x="1980.5" y="-259.2" font-family="Times,serif" font-size="16.00">▯▯▯▯▯</text>
<polygon fill="cornsilk" stroke="transparent" points="2034.5,-251 2034.5,-275 2389.5,-275 2389.5,-251 2034.5,-251"/>
<polygon fill="none" stroke="black" points="2034.5,-251 2034.5,-275 2389.5,-275 2389.5,-251 2034.5,-251"/>
<text text-anchor="start" x="2120.5" y="-259.2" font-family="Times,serif" font-size="16.00">Ability to ask &#39;hypotheticals&#39;</text>
<polygon fill="cornsilk" stroke="transparent" points="1977.5,-225 1977.5,-249 2032.5,-249 2032.5,-225 1977.5,-225"/>
<polygon fill="none" stroke="black" points="1977.5,-225 1977.5,-249 2032.5,-249 2032.5,-225 1977.5,-225"/>
<text text-anchor="start" x="1980.5" y="-233.2" font-family="Times,serif" font-size="16.00">▯▯▯▯▯</text>
<polygon fill="cornsilk" stroke="transparent" points="2034.5,-225 2034.5,-249 2389.5,-249 2389.5,-225 2034.5,-225"/>
<polygon fill="none" stroke="black" points="2034.5,-225 2034.5,-249 2389.5,-249 2389.5,-225 2034.5,-225"/>
<text text-anchor="start" x="2088" y="-233.2" font-family="Times,serif" font-size="16.00">Access to the MIR for a given function</text>
<polygon fill="none" stroke="black" points="1974.5,-222 1974.5,-356 2392.5,-356 2392.5,-222 1974.5,-222"/>
</g>
<!-- formal&#45;methods&#45;tooling&#45;&gt;semi&#45;stable&#45;apis -->
<g id="edge9" class="edge">
<title>formal&#45;methods&#45;tooling&#45;&gt;semi&#45;stable&#45;apis</title>
<path fill="none" stroke="black" d="M2183.5,-404.83C2183.5,-391.89 2183.5,-378.85 2183.5,-366.44"/>
<polygon fill="black" stroke="black" points="2187,-366.19 2183.5,-356.19 2180,-366.19 2187,-366.19"/>
</g>
<!-- fundamentals -->
<g id="node9" class="node">
<title>fundamentals</title>
<polygon fill="darkgoldenrod" stroke="transparent" points="1976.5,-159 1976.5,-183 2391.5,-183 2391.5,-159 1976.5,-159"/>
<polygon fill="none" stroke="black" points="1976.5,-159 1976.5,-183 2391.5,-183 2391.5,-159 1976.5,-159"/>
<text text-anchor="start" x="2024.5" y="-167.2" font-family="Times,serif" font-size="16.00">Compiler architecture is flexible and maintainable</text>
<polygon fill="#ffb90f" stroke="transparent" points="1976.5,-133 1976.5,-157 2391.5,-157 2391.5,-133 1976.5,-133"/>
<polygon fill="none" stroke="black" points="1976.5,-133 1976.5,-157 2391.5,-157 2391.5,-133 1976.5,-133"/>
<text text-anchor="start" x="2075.5" y="-141.2" font-family="Times,serif" font-size="16.00">Easy to contribute to the compiler</text>
<polygon fill="#ffb90f" stroke="transparent" points="1976.5,-107 1976.5,-131 2391.5,-131 2391.5,-107 1976.5,-107"/>
<polygon fill="none" stroke="black" points="1976.5,-107 1976.5,-131 2391.5,-131 2391.5,-107 1976.5,-107"/>
<text text-anchor="start" x="2066" y="-115.2" font-family="Times,serif" font-size="16.00">Language semantics well understood</text>
<polygon fill="#ffb90f" stroke="transparent" points="1976.5,-81 1976.5,-105 2391.5,-105 2391.5,-81 1976.5,-81"/>
<polygon fill="none" stroke="black" points="1976.5,-81 1976.5,-105 2391.5,-105 2391.5,-81 1976.5,-81"/>
<text text-anchor="start" x="2036.5" y="-89.2" font-family="Times,serif" font-size="16.00">Extending language possible by mere humans</text>
<polygon fill="cornsilk" stroke="transparent" points="1976.5,-55 1976.5,-79 2031.5,-79 2031.5,-55 1976.5,-55"/>
<polygon fill="none" stroke="black" points="1976.5,-55 1976.5,-79 2031.5,-79 2031.5,-55 1976.5,-55"/>
<text text-anchor="start" x="1979.5" y="-63.2" font-family="Times,serif" font-size="16.00">▮▮▮▯▯</text>
<polygon fill="cornsilk" stroke="transparent" points="2033.5,-55 2033.5,-79 2391.5,-79 2391.5,-55 2033.5,-55"/>
<polygon fill="none" stroke="black" points="2033.5,-55 2033.5,-79 2391.5,-79 2391.5,-55 2033.5,-55"/>
<text text-anchor="start" x="2036.5" y="-63.2" font-family="Times,serif" font-size="16.00">Rearchitect traits/borrow&#45;checking as logical predicates</text>
<polygon fill="cornsilk" stroke="transparent" points="1976.5,-29 1976.5,-53 2031.5,-53 2031.5,-29 1976.5,-29"/>
<polygon fill="none" stroke="black" points="1976.5,-29 1976.5,-53 2031.5,-53 2031.5,-29 1976.5,-29"/>
<text text-anchor="start" x="1979.5" y="-37.2" font-family="Times,serif" font-size="16.00">▮▯▯▯▯</text>
<polygon fill="cornsilk" stroke="transparent" points="2033.5,-29 2033.5,-53 2391.5,-53 2391.5,-29 2033.5,-29"/>
<polygon fill="none" stroke="black" points="2033.5,-29 2033.5,-53 2391.5,-53 2391.5,-29 2033.5,-29"/>
<text text-anchor="start" x="2106" y="-37.2" font-family="Times,serif" font-size="16.00">Core Rust semantics documented</text>
<polygon fill="cornsilk" stroke="transparent" points="1976.5,-3 1976.5,-27 2031.5,-27 2031.5,-3 1976.5,-3"/>
<polygon fill="none" stroke="black" points="1976.5,-3 1976.5,-27 2031.5,-27 2031.5,-3 1976.5,-3"/>
<text text-anchor="start" x="1979.5" y="-11.2" font-family="Times,serif" font-size="16.00">▮▮▯▯▯</text>
<polygon fill="cornsilk" stroke="transparent" points="2033.5,-3 2033.5,-27 2391.5,-27 2391.5,-3 2033.5,-3"/>
<polygon fill="none" stroke="black" points="2033.5,-3 2033.5,-27 2391.5,-27 2391.5,-3 2033.5,-3"/>
<text text-anchor="start" x="2114.5" y="-11.2" font-family="Times,serif" font-size="16.00">Known soundness bugs closed</text>
<polygon fill="none" stroke="black" points="1973,0 1973,-186 2394,-186 2394,0 1973,0"/>
</g>
<!-- semi&#45;stable&#45;apis&#45;&gt;fundamentals -->
<g id="edge10" class="edge">
<title>semi&#45;stable&#45;apis&#45;&gt;fundamentals</title>
<path fill="none" stroke="black" d="M2183.5,-221.78C2183.5,-213.49 2183.5,-204.88 2183.5,-196.2"/>
<polygon fill="black" stroke="black" points="2187,-196.01 2183.5,-186.01 2180,-196.01 2187,-196.01"/>
</g>
</g>
</svg>
