<?xml version="1.0" encoding="UTF-8" standalone="no"?>
<!DOCTYPE svg PUBLIC "-//W3C//DTD SVG 1.1//EN"
 "http://www.w3.org/Graphics/SVG/1.1/DTD/svg11.dtd">
<!-- Generated by graphviz version 2.43.0 (0)
 -->
<!-- Title: g Pages: 1 -->
<svg width="1309pt" height="1538pt"
 viewBox="0.00 0.00 1309.00 1538.00" xmlns="http://www.w3.org/2000/svg" xmlns:xlink="http://www.w3.org/1999/xlink">
<g id="graph0" class="graph" transform="scale(1 1) rotate(0) translate(4 1534)">
<title>g</title>
<polygon fill="white" stroke="transparent" points="-4,4 -4,-1534 1305,-1534 1305,4 -4,4"/>
<!-- goal&#45;internet&#45;services -->
<g id="node1" class="node">
<title>goal&#45;internet&#45;services</title>
<polygon fill="darkgoldenrod" stroke="transparent" points="248,-133 248,-157 857,-157 857,-133 248,-133"/>
<polygon fill="none" stroke="black" points="248,-133 248,-157 857,-157 857,-133 248,-133"/>
<text text-anchor="start" x="271" y="-141.2" font-family="Times,serif" font-size="16.00">🎯 Rust a common choice for programs running on internet services</text>
<polygon fill="#ffb90f" stroke="transparent" points="248,-107 248,-131 857,-131 857,-107 248,-107"/>
<polygon fill="none" stroke="black" points="248,-107 248,-131 857,-131 857,-107 248,-107"/>
<text text-anchor="start" x="461.5" y="-115.2" font-family="Times,serif" font-size="16.00">Faster response times</text>
<polygon fill="#ffb90f" stroke="transparent" points="248,-81 248,-105 857,-105 857,-81 248,-81"/>
<polygon fill="none" stroke="black" points="248,-81 248,-105 857,-105 857,-81 248,-81"/>
<text text-anchor="start" x="384" y="-89.2" font-family="Times,serif" font-size="16.00">Ratio of P99.99 to P50 latencies is lower</text>
<polygon fill="#ffb90f" stroke="transparent" points="248,-55 248,-79 857,-79 857,-55 248,-55"/>
<polygon fill="none" stroke="black" points="248,-55 248,-79 857,-79 857,-55 248,-55"/>
<text text-anchor="start" x="270.5" y="-63.2" font-family="Times,serif" font-size="16.00">Data centers require fewer resources to sustain same level of traffic</text>
<polygon fill="#ffb90f" stroke="transparent" points="248,-29 248,-53 857,-53 857,-29 248,-29"/>
<polygon fill="none" stroke="black" points="248,-29 248,-53 857,-53 857,-29 248,-29"/>
<text text-anchor="start" x="252" y="-37.2" font-family="Times,serif" font-size="16.00">Rate of security vulnerabilities and serious bugs is dramatically reduced</text>
<polygon fill="#ffb90f" stroke="transparent" points="248,-3 248,-27 857,-27 857,-3 248,-3"/>
<polygon fill="none" stroke="black" points="248,-3 248,-27 857,-27 857,-3 248,-3"/>
<text text-anchor="start" x="342" y="-11.2" font-family="Times,serif" font-size="16.00">Improved employee retention and ability to recruit</text>
<polygon fill="none" stroke="black" points="244.5,0 244.5,-160 859.5,-160 859.5,0 244.5,0"/>
</g>
<!-- prod&#45;tooling -->
<g id="node2" class="node">
<title>prod&#45;tooling</title>
<polygon fill="darkgoldenrod" stroke="transparent" points="3,-355 3,-379 573,-379 573,-355 3,-355"/>
<polygon fill="none" stroke="black" points="3,-355 3,-379 573,-379 573,-355 3,-355"/>
<text text-anchor="start" x="211" y="-363.2" font-family="Times,serif" font-size="16.00">Production tooling</text>
<polygon fill="#ffb90f" stroke="transparent" points="3,-329 3,-353 573,-353 573,-329 3,-329"/>
<polygon fill="none" stroke="black" points="3,-329 3,-353 573,-353 573,-329 3,-329"/>
<text text-anchor="start" x="11.5" y="-337.2" font-family="Times,serif" font-size="16.00">Able to troubleshoot correctness problems that arise in production</text>
<polygon fill="#ffb90f" stroke="transparent" points="3,-303 3,-327 573,-327 573,-303 3,-303"/>
<polygon fill="none" stroke="black" points="3,-303 3,-327 573,-327 573,-303 3,-303"/>
<text text-anchor="start" x="7" y="-311.2" font-family="Times,serif" font-size="16.00">Able to troubleshoot performance problems that arise in production</text>
<polygon fill="cornsilk" stroke="transparent" points="3,-277 3,-301 100,-301 100,-277 3,-277"/>
<polygon fill="none" stroke="black" points="3,-277 3,-301 100,-301 100,-277 3,-277"/>
<text text-anchor="start" x="7.5" y="-285.2" font-family="Times,serif" font-size="16.00">(not sure!)</text>
<polygon fill="cornsilk" stroke="transparent" points="102,-277 102,-301 573,-301 573,-277 102,-277"/>
<polygon fill="none" stroke="black" points="102,-277 102,-301 573,-301 573,-277 102,-277"/>
<text text-anchor="start" x="222" y="-285.2" font-family="Times,serif" font-size="16.00">Async runtime observability</text>
<polygon fill="cornsilk" stroke="transparent" points="3,-251 3,-275 100,-275 100,-251 3,-251"/>
<polygon fill="none" stroke="black" points="3,-251 3,-275 100,-275 100,-251 3,-251"/>
<text text-anchor="start" x="28.5" y="-259.2" font-family="Times,serif" font-size="16.00">▮▮▯▯▯</text>
<polygon fill="cornsilk" stroke="transparent" points="102,-251 102,-275 573,-275 573,-251 102,-251"/>
<polygon fill="none" stroke="black" points="102,-251 102,-275 573,-275 573,-251 102,-251"/>
<text text-anchor="start" x="190" y="-259.2" font-family="Times,serif" font-size="16.00">Readable stacktraces, esp. in async</text>
<polygon fill="cornsilk" stroke="transparent" points="3,-225 3,-249 100,-249 100,-225 3,-225"/>
<polygon fill="none" stroke="black" points="3,-225 3,-249 100,-249 100,-225 3,-225"/>
<text text-anchor="start" x="28.5" y="-233.2" font-family="Times,serif" font-size="16.00">▯▯▯▯▯</text>
<polygon fill="cornsilk" stroke="transparent" points="102,-225 102,-249 573,-249 573,-225 102,-225"/>
<polygon fill="none" stroke="black" points="102,-225 102,-249 573,-249 573,-225 102,-225"/>
<text text-anchor="start" x="107" y="-233.2" font-family="Times,serif" font-size="16.00">Live, low&#45;overhead profilers for CPU and memory usage</text>
<polygon fill="none" stroke="black" points="0,-222 0,-382 576,-382 576,-222 0,-222"/>
</g>
<!-- prod&#45;tooling&#45;&gt;goal&#45;internet&#45;services -->
<g id="edge2" class="edge">
<title>prod&#45;tooling&#45;&gt;goal&#45;internet&#45;services</title>
<path fill="none" stroke="black" d="M382.94,-221.89C404.4,-204 427.28,-184.93 449.05,-166.79"/>
<polygon fill="black" stroke="black" points="451.58,-169.24 457.02,-160.15 447.1,-163.86 451.58,-169.24"/>
</g>
<!-- dev&#45;tooling -->
<g id="node3" class="node">
<title>dev&#45;tooling</title>
<polygon fill="darkgoldenrod" stroke="transparent" points="45,-642 45,-666 571,-666 571,-642 45,-642"/>
<polygon fill="none" stroke="black" points="45,-642 45,-666 571,-666 571,-642 45,-642"/>
<text text-anchor="start" x="234" y="-650.2" font-family="Times,serif" font-size="16.00">Developer tooling</text>
<polygon fill="#ffb90f" stroke="transparent" points="45,-616 45,-640 571,-640 571,-616 45,-616"/>
<polygon fill="none" stroke="black" points="45,-616 45,-640 571,-640 571,-616 45,-616"/>
<text text-anchor="start" x="75" y="-624.2" font-family="Times,serif" font-size="16.00">Able to understand programs in terms of async behavior</text>
<polygon fill="#ffb90f" stroke="transparent" points="45,-590 45,-614 571,-614 571,-590 45,-590"/>
<polygon fill="none" stroke="black" points="45,-590 45,-614 571,-614 571,-590 45,-590"/>
<text text-anchor="start" x="53.5" y="-598.2" font-family="Times,serif" font-size="16.00">Able to fix correctness problems in development environment</text>
<polygon fill="#ffb90f" stroke="transparent" points="45,-564 45,-588 571,-588 571,-564 45,-564"/>
<polygon fill="none" stroke="black" points="45,-564 45,-588 571,-588 571,-564 45,-564"/>
<text text-anchor="start" x="49" y="-572.2" font-family="Times,serif" font-size="16.00">Able to fix performance problems in development environment</text>
<polygon fill="cornsilk" stroke="transparent" points="45,-538 45,-562 131,-562 131,-538 45,-538"/>
<polygon fill="none" stroke="black" points="45,-538 45,-562 131,-562 131,-538 45,-538"/>
<text text-anchor="start" x="65" y="-546.2" font-family="Times,serif" font-size="16.00">▮▮▯▯▯</text>
<polygon fill="cornsilk" stroke="transparent" points="133,-538 133,-562 571,-562 571,-538 133,-538"/>
<polygon fill="none" stroke="black" points="133,-538 133,-562 571,-562 571,-538 133,-538"/>
<text text-anchor="start" x="258.5" y="-546.2" font-family="Times,serif" font-size="16.00">Quality Rust debugger</text>
<polygon fill="cornsilk" stroke="transparent" points="45,-512 45,-536 131,-536 131,-512 45,-512"/>
<polygon fill="none" stroke="black" points="45,-512 45,-536 131,-536 131,-512 45,-512"/>
<text text-anchor="start" x="65" y="-520.2" font-family="Times,serif" font-size="16.00">▮▮▮▮▯</text>
<polygon fill="cornsilk" stroke="transparent" points="133,-512 133,-536 571,-536 571,-512 133,-512"/>
<polygon fill="none" stroke="black" points="133,-512 133,-536 571,-536 571,-512 133,-512"/>
<text text-anchor="start" x="189.5" y="-520.2" font-family="Times,serif" font-size="16.00">Rust well integrated into common IDEs</text>
<polygon fill="cornsilk" stroke="transparent" points="45,-486 45,-510 131,-510 131,-486 45,-486"/>
<polygon fill="none" stroke="black" points="45,-486 45,-510 131,-510 131,-486 45,-486"/>
<text text-anchor="start" x="65" y="-494.2" font-family="Times,serif" font-size="16.00">▮▮▮▯▯</text>
<polygon fill="cornsilk" stroke="transparent" points="133,-486 133,-510 571,-510 571,-486 133,-486"/>
<polygon fill="none" stroke="black" points="133,-486 133,-510 571,-510 571,-486 133,-486"/>
<text text-anchor="start" x="153" y="-494.2" font-family="Times,serif" font-size="16.00">Async runtime observability (e.g., tokio console)</text>
<polygon fill="cornsilk" stroke="transparent" points="45,-460 45,-484 131,-484 131,-460 45,-460"/>
<polygon fill="none" stroke="black" points="45,-460 45,-484 131,-484 131,-460 45,-460"/>
<text text-anchor="start" x="65" y="-468.2" font-family="Times,serif" font-size="16.00">▮▮▯▯▯</text>
<polygon fill="cornsilk" stroke="transparent" points="133,-460 133,-484 571,-484 571,-460 133,-460"/>
<polygon fill="none" stroke="black" points="133,-460 133,-484 571,-484 571,-460 133,-460"/>
<text text-anchor="start" x="201.5" y="-468.2" font-family="Times,serif" font-size="16.00">Profilers for CPU and memory usage</text>
<polygon fill="none" stroke="black" points="42,-457 42,-669 574,-669 574,-457 42,-457"/>
</g>
<!-- dev&#45;tooling&#45;&gt;prod&#45;tooling -->
<g id="edge3" class="edge">
<title>dev&#45;tooling&#45;&gt;prod&#45;tooling</title>
<path fill="none" stroke="black" d="M299.87,-456.65C298.21,-435.23 296.49,-412.89 294.88,-392.1"/>
<polygon fill="black" stroke="black" points="298.36,-391.73 294.1,-382.03 291.38,-392.27 298.36,-391.73"/>
</g>
<!-- onboarding&#45;time -->
<g id="node6" class="node">
<title>onboarding&#45;time</title>
<polygon fill="darkgoldenrod" stroke="transparent" points="597,-381 597,-405 1035,-405 1035,-381 597,-381"/>
<polygon fill="none" stroke="black" points="597,-381 597,-405 1035,-405 1035,-381 597,-381"/>
<text text-anchor="start" x="659" y="-389.2" font-family="Times,serif" font-size="16.00">Smooth onboarding of Rust engineers</text>
<polygon fill="#ffb90f" stroke="transparent" points="597,-355 597,-379 1035,-379 1035,-355 597,-355"/>
<polygon fill="none" stroke="black" points="597,-355 597,-379 1035,-379 1035,-355 597,-355"/>
<text text-anchor="start" x="601" y="-363.2" font-family="Times,serif" font-size="16.00">Time to be highly productive is measured in months</text>
<polygon fill="#ffb90f" stroke="transparent" points="597,-329 597,-353 1035,-353 1035,-329 597,-329"/>
<polygon fill="none" stroke="black" points="597,-329 597,-353 1035,-353 1035,-329 597,-329"/>
<text text-anchor="start" x="607.5" y="-337.2" font-family="Times,serif" font-size="16.00">Clear transition paths from other major languages</text>
<polygon fill="cornsilk" stroke="transparent" points="597,-303 597,-327 684,-327 684,-303 597,-303"/>
<polygon fill="none" stroke="black" points="597,-303 597,-327 684,-327 684,-303 597,-303"/>
<text text-anchor="start" x="617.5" y="-311.2" font-family="Times,serif" font-size="16.00">▮▮▮▮▮</text>
<polygon fill="cornsilk" stroke="transparent" points="686,-303 686,-327 1035,-327 1035,-303 686,-303"/>
<polygon fill="none" stroke="black" points="686,-303 686,-327 1035,-327 1035,-303 686,-303"/>
<text text-anchor="start" x="723.5" y="-311.2" font-family="Times,serif" font-size="16.00">Rust beginner learning materials</text>
<polygon fill="cornsilk" stroke="transparent" points="597,-277 597,-301 684,-301 684,-277 597,-277"/>
<polygon fill="none" stroke="black" points="597,-277 597,-301 684,-301 684,-277 597,-277"/>
<text text-anchor="start" x="617.5" y="-285.2" font-family="Times,serif" font-size="16.00">▮▮▮▯▯</text>
<polygon fill="cornsilk" stroke="transparent" points="686,-277 686,-301 1035,-301 1035,-277 686,-277"/>
<polygon fill="none" stroke="black" points="686,-277 686,-301 1035,-301 1035,-277 686,-277"/>
<text text-anchor="start" x="707" y="-285.2" font-family="Times,serif" font-size="16.00">Rust intermediate learning materials</text>
<polygon fill="cornsilk" stroke="transparent" points="597,-251 597,-275 684,-275 684,-251 597,-251"/>
<polygon fill="none" stroke="black" points="597,-251 597,-275 684,-275 684,-251 597,-251"/>
<text text-anchor="start" x="617.5" y="-259.2" font-family="Times,serif" font-size="16.00">▯▯▯▯▯</text>
<polygon fill="cornsilk" stroke="transparent" points="686,-251 686,-275 1035,-275 1035,-251 686,-251"/>
<polygon fill="none" stroke="black" points="686,-251 686,-275 1035,-275 1035,-251 686,-251"/>
<text text-anchor="start" x="778.5" y="-259.2" font-family="Times,serif" font-size="16.00">Java transition path</text>
<polygon fill="cornsilk" stroke="transparent" points="597,-225 597,-249 684,-249 684,-225 597,-225"/>
<polygon fill="none" stroke="black" points="597,-225 597,-249 684,-249 684,-225 597,-225"/>
<text text-anchor="start" x="617.5" y="-233.2" font-family="Times,serif" font-size="16.00">▮▮▯▯▯</text>
<polygon fill="cornsilk" stroke="transparent" points="686,-225 686,-249 1035,-249 1035,-225 686,-225"/>
<polygon fill="none" stroke="black" points="686,-225 686,-249 1035,-249 1035,-225 686,-225"/>
<text text-anchor="start" x="776.5" y="-233.2" font-family="Times,serif" font-size="16.00">C++ transition path</text>
<polygon fill="cornsilk" stroke="transparent" points="597,-199 597,-223 684,-223 684,-199 597,-199"/>
<polygon fill="none" stroke="black" points="597,-199 597,-223 684,-223 684,-199 597,-199"/>
<text text-anchor="start" x="617.5" y="-207.2" font-family="Times,serif" font-size="16.00">▮▮▯▯▯</text>
<polygon fill="cornsilk" stroke="transparent" points="686,-199 686,-223 1035,-223 1035,-199 686,-199"/>
<polygon fill="none" stroke="black" points="686,-199 686,-223 1035,-223 1035,-199 686,-199"/>
<text text-anchor="start" x="719.5" y="-207.2" font-family="Times,serif" font-size="16.00">Dynamic language transition path</text>
<polygon fill="none" stroke="black" points="594,-196 594,-408 1038,-408 1038,-196 594,-196"/>
</g>
<!-- dev&#45;tooling&#45;&gt;onboarding&#45;time -->
<g id="edge6" class="edge">
<title>dev&#45;tooling&#45;&gt;onboarding&#45;time</title>
<path fill="none" stroke="black" d="M514.26,-456.84C542.66,-442.36 571.88,-427.46 600.44,-412.9"/>
<polygon fill="black" stroke="black" points="602.37,-415.85 609.69,-408.19 599.19,-409.61 602.37,-415.85"/>
</g>
<!-- fundamentals -->
<g id="node4" class="node">
<title>fundamentals</title>
<polygon fill="darkgoldenrod" stroke="transparent" points="558,-1503 558,-1527 948,-1527 948,-1503 558,-1503"/>
<polygon fill="none" stroke="black" points="558,-1503 558,-1527 948,-1527 948,-1503 558,-1503"/>
<text text-anchor="start" x="675" y="-1511.2" font-family="Times,serif" font-size="16.00">Rust fundamentals</text>
<polygon fill="#ffb90f" stroke="transparent" points="558,-1477 558,-1501 948,-1501 948,-1477 558,-1477"/>
<polygon fill="none" stroke="black" points="558,-1477 558,-1501 948,-1501 948,-1477 558,-1477"/>
<text text-anchor="start" x="611" y="-1485.2" font-family="Times,serif" font-size="16.00">Easy to contribute to the compiler</text>
<polygon fill="#ffb90f" stroke="transparent" points="558,-1451 558,-1475 948,-1475 948,-1451 558,-1451"/>
<polygon fill="none" stroke="black" points="558,-1451 558,-1475 948,-1475 948,-1451 558,-1451"/>
<text text-anchor="start" x="599" y="-1459.2" font-family="Times,serif" font-size="16.00">Language semantics well understood</text>
<polygon fill="#ffb90f" stroke="transparent" points="558,-1425 558,-1449 948,-1449 948,-1425 558,-1425"/>
<polygon fill="none" stroke="black" points="558,-1425 558,-1449 948,-1449 948,-1425 558,-1425"/>
<text text-anchor="start" x="562" y="-1433.2" font-family="Times,serif" font-size="16.00">Extending language possible by mere humans</text>
<polygon fill="cornsilk" stroke="transparent" points="558,-1399 558,-1423 611,-1423 611,-1399 558,-1399"/>
<polygon fill="none" stroke="black" points="558,-1399 558,-1423 611,-1423 611,-1399 558,-1399"/>
<text text-anchor="start" x="561.5" y="-1407.2" font-family="Times,serif" font-size="16.00">▮▮▮▯▯</text>
<polygon fill="cornsilk" stroke="transparent" points="613,-1399 613,-1423 948,-1423 948,-1399 613,-1399"/>
<polygon fill="none" stroke="black" points="613,-1399 613,-1423 948,-1423 948,-1399 613,-1399"/>
<text text-anchor="start" x="616.5" y="-1407.2" font-family="Times,serif" font-size="16.00">Compiler libraries for MIR, types, traits</text>
<polygon fill="cornsilk" stroke="transparent" points="558,-1373 558,-1397 611,-1397 611,-1373 558,-1373"/>
<polygon fill="none" stroke="black" points="558,-1373 558,-1397 611,-1397 611,-1373 558,-1373"/>
<text text-anchor="start" x="561.5" y="-1381.2" font-family="Times,serif" font-size="16.00">▮▯▯▯▯</text>
<polygon fill="cornsilk" stroke="transparent" points="613,-1373 613,-1397 948,-1397 948,-1373 613,-1373"/>
<polygon fill="none" stroke="black" points="613,-1373 613,-1397 948,-1397 948,-1373 613,-1373"/>
<text text-anchor="start" x="642" y="-1381.2" font-family="Times,serif" font-size="16.00">Core Rust semantics documented</text>
<polygon fill="cornsilk" stroke="transparent" points="558,-1347 558,-1371 611,-1371 611,-1347 558,-1347"/>
<polygon fill="none" stroke="black" points="558,-1347 558,-1371 611,-1371 611,-1347 558,-1347"/>
<text text-anchor="start" x="561.5" y="-1355.2" font-family="Times,serif" font-size="16.00">▮▯▯▯▯</text>
<polygon fill="cornsilk" stroke="transparent" points="613,-1347 613,-1371 948,-1371 948,-1347 613,-1347"/>
<polygon fill="none" stroke="black" points="613,-1347 613,-1371 948,-1371 948,-1347 613,-1347"/>
<text text-anchor="start" x="702" y="-1355.2" font-family="Times,serif" font-size="16.00">Proof of soundness</text>
<polygon fill="cornsilk" stroke="transparent" points="558,-1321 558,-1345 611,-1345 611,-1321 558,-1321"/>
<polygon fill="none" stroke="black" points="558,-1321 558,-1345 611,-1345 611,-1321 558,-1321"/>
<text text-anchor="start" x="561.5" y="-1329.2" font-family="Times,serif" font-size="16.00">▮▮▯▯▯</text>
<polygon fill="cornsilk" stroke="transparent" points="613,-1321 613,-1345 948,-1345 948,-1321 613,-1321"/>
<polygon fill="none" stroke="black" points="613,-1321 613,-1345 948,-1345 948,-1321 613,-1321"/>
<text text-anchor="start" x="684" y="-1329.2" font-family="Times,serif" font-size="16.00">Unsafe code guidelines</text>
<polygon fill="cornsilk" stroke="transparent" points="558,-1295 558,-1319 611,-1319 611,-1295 558,-1295"/>
<polygon fill="none" stroke="black" points="558,-1295 558,-1319 611,-1319 611,-1295 558,-1295"/>
<text text-anchor="start" x="561.5" y="-1303.2" font-family="Times,serif" font-size="16.00">▮▮▯▯▯</text>
<polygon fill="cornsilk" stroke="transparent" points="613,-1295 613,-1319 948,-1319 948,-1295 613,-1295"/>
<polygon fill="none" stroke="black" points="613,-1295 613,-1319 948,-1319 948,-1295 613,-1295"/>
<text text-anchor="start" x="655" y="-1303.2" font-family="Times,serif" font-size="16.00">Known soundness bugs closed</text>
<polygon fill="none" stroke="black" points="555,-1292 555,-1530 951,-1530 951,-1292 555,-1292"/>
</g>
<!-- semi&#45;stable&#45;apis -->
<g id="node5" class="node">
<title>semi&#45;stable&#45;apis</title>
<polygon fill="darkgoldenrod" stroke="transparent" points="221,-1164 221,-1188 736,-1188 736,-1164 221,-1164"/>
<polygon fill="none" stroke="black" points="221,-1164 221,-1188 736,-1188 736,-1164 221,-1164"/>
<text text-anchor="start" x="409" y="-1172.2" font-family="Times,serif" font-size="16.00">Semi&#45;stable APIs</text>
<polygon fill="#ffb90f" stroke="transparent" points="221,-1138 221,-1162 736,-1162 736,-1138 221,-1138"/>
<polygon fill="none" stroke="black" points="221,-1138 221,-1162 736,-1162 736,-1138 221,-1138"/>
<text text-anchor="start" x="262" y="-1146.2" font-family="Times,serif" font-size="16.00">Compiler offers semi&#45;stable APIs that others can use</text>
<polygon fill="cornsilk" stroke="transparent" points="221,-1112 221,-1136 273,-1136 273,-1112 221,-1112"/>
<polygon fill="none" stroke="black" points="221,-1112 221,-1136 273,-1136 273,-1112 221,-1112"/>
<text text-anchor="start" x="224" y="-1120.2" font-family="Times,serif" font-size="16.00">▯▯▯▯▯</text>
<polygon fill="cornsilk" stroke="transparent" points="275,-1112 275,-1136 736,-1136 736,-1112 275,-1112"/>
<polygon fill="none" stroke="black" points="275,-1112 275,-1136 736,-1136 736,-1112 275,-1112"/>
<text text-anchor="start" x="335.5" y="-1120.2" font-family="Times,serif" font-size="16.00">Shared crate for representing Rust types</text>
<polygon fill="cornsilk" stroke="transparent" points="221,-1086 221,-1110 273,-1110 273,-1086 221,-1086"/>
<polygon fill="none" stroke="black" points="221,-1086 221,-1110 273,-1110 273,-1086 221,-1086"/>
<text text-anchor="start" x="224" y="-1094.2" font-family="Times,serif" font-size="16.00">▯▯▯▯▯</text>
<polygon fill="cornsilk" stroke="transparent" points="275,-1086 275,-1110 736,-1110 736,-1086 275,-1086"/>
<polygon fill="none" stroke="black" points="275,-1086 275,-1110 736,-1110 736,-1086 275,-1086"/>
<text text-anchor="start" x="278" y="-1094.2" font-family="Times,serif" font-size="16.00">Access to Rust type information and type check results</text>
<polygon fill="cornsilk" stroke="transparent" points="221,-1060 221,-1084 273,-1084 273,-1060 221,-1060"/>
<polygon fill="none" stroke="black" points="221,-1060 221,-1084 273,-1084 273,-1060 221,-1060"/>
<text text-anchor="start" x="224" y="-1068.2" font-family="Times,serif" font-size="16.00">▯▯▯▯▯</text>
<polygon fill="cornsilk" stroke="transparent" points="275,-1060 275,-1084 736,-1084 736,-1060 275,-1060"/>
<polygon fill="none" stroke="black" points="275,-1060 275,-1084 736,-1084 736,-1060 275,-1060"/>
<text text-anchor="start" x="388.5" y="-1068.2" font-family="Times,serif" font-size="16.00">Ability to ask &#39;hypotheticals&#39;</text>
<polygon fill="cornsilk" stroke="transparent" points="221,-1034 221,-1058 273,-1058 273,-1034 221,-1034"/>
<polygon fill="none" stroke="black" points="221,-1034 221,-1058 273,-1058 273,-1034 221,-1034"/>
<text text-anchor="start" x="224" y="-1042.2" font-family="Times,serif" font-size="16.00">▯▯▯▯▯</text>
<polygon fill="cornsilk" stroke="transparent" points="275,-1034 275,-1058 736,-1058 736,-1034 275,-1034"/>
<polygon fill="none" stroke="black" points="275,-1034 275,-1058 736,-1058 736,-1034 275,-1034"/>
<text text-anchor="start" x="347" y="-1042.2" font-family="Times,serif" font-size="16.00">Access to the MIR for a given function</text>
<polygon fill="none" stroke="black" points="217.5,-1031 217.5,-1191 738.5,-1191 738.5,-1031 217.5,-1031"/>
</g>
<!-- fundamentals&#45;&gt;semi&#45;stable&#45;apis -->
<g id="edge5" class="edge">
<title>fundamentals&#45;&gt;semi&#45;stable&#45;apis</title>
<path fill="none" stroke="black" d="M643.92,-1291.79C615.29,-1260.77 584.93,-1227.88 558.13,-1198.83"/>
<polygon fill="black" stroke="black" points="560.38,-1196.11 551.03,-1191.14 555.24,-1200.86 560.38,-1196.11"/>
</g>
<!-- core&#45;lang -->
<g id="node9" class="node">
<title>core&#45;lang</title>
<polygon fill="darkgoldenrod" stroke="transparent" points="760,-1229 760,-1253 1298,-1253 1298,-1229 760,-1229"/>
<polygon fill="none" stroke="black" points="760,-1229 760,-1253 1298,-1253 1298,-1229 760,-1229"/>
<text text-anchor="start" x="907" y="-1237.2" font-family="Times,serif" font-size="16.00">Core language improvements</text>
<polygon fill="#ffb90f" stroke="transparent" points="760,-1203 760,-1227 1298,-1227 1298,-1203 760,-1203"/>
<polygon fill="none" stroke="black" points="760,-1203 760,-1227 1298,-1227 1298,-1203 760,-1203"/>
<text text-anchor="start" x="793.5" y="-1211.2" font-family="Times,serif" font-size="16.00">Rust language scales smoothly without &#39;complexity cliffs&#39;</text>
<polygon fill="cornsilk" stroke="transparent" points="760,-1177 760,-1201 812,-1201 812,-1177 760,-1177"/>
<polygon fill="none" stroke="black" points="760,-1177 760,-1201 812,-1201 812,-1177 760,-1177"/>
<text text-anchor="start" x="763" y="-1185.2" font-family="Times,serif" font-size="16.00">▮▮▯▯▯</text>
<polygon fill="cornsilk" stroke="transparent" points="814,-1177 814,-1201 1298,-1201 1298,-1177 814,-1177"/>
<polygon fill="none" stroke="black" points="814,-1177 814,-1201 1298,-1201 1298,-1177 814,-1177"/>
<text text-anchor="start" x="817" y="-1185.2" font-family="Times,serif" font-size="16.00">Dynamic dispatch (dyn trait) more powerful, easier to use</text>
<polygon fill="cornsilk" stroke="transparent" points="760,-1151 760,-1175 812,-1175 812,-1151 760,-1151"/>
<polygon fill="none" stroke="black" points="760,-1151 760,-1175 812,-1175 812,-1151 760,-1151"/>
<text text-anchor="start" x="763" y="-1159.2" font-family="Times,serif" font-size="16.00">▮▮▯▯▯</text>
<polygon fill="cornsilk" stroke="transparent" points="814,-1151 814,-1175 1298,-1175 1298,-1151 814,-1151"/>
<polygon fill="none" stroke="black" points="814,-1151 814,-1175 1298,-1175 1298,-1151 814,-1151"/>
<text text-anchor="start" x="997.5" y="-1159.2" font-family="Times,serif" font-size="16.00">Specialization</text>
<polygon fill="cornsilk" stroke="transparent" points="760,-1125 760,-1149 812,-1149 812,-1125 760,-1125"/>
<polygon fill="none" stroke="black" points="760,-1125 760,-1149 812,-1149 812,-1125 760,-1125"/>
<text text-anchor="start" x="763" y="-1133.2" font-family="Times,serif" font-size="16.00">▮▮▯▯▯</text>
<polygon fill="cornsilk" stroke="transparent" points="814,-1125 814,-1149 1298,-1149 1298,-1125 814,-1125"/>
<polygon fill="none" stroke="black" points="814,-1125 814,-1149 1298,-1149 1298,-1125 814,-1125"/>
<text text-anchor="start" x="992" y="-1133.2" font-family="Times,serif" font-size="16.00">Implied bounds</text>
<polygon fill="cornsilk" stroke="transparent" points="760,-1099 760,-1123 812,-1123 812,-1099 760,-1099"/>
<polygon fill="none" stroke="black" points="760,-1099 760,-1123 812,-1123 812,-1099 760,-1099"/>
<text text-anchor="start" x="763" y="-1107.2" font-family="Times,serif" font-size="16.00">▮▮▮▯▯</text>
<polygon fill="cornsilk" stroke="transparent" points="814,-1099 814,-1123 1298,-1123 1298,-1099 814,-1099"/>
<polygon fill="none" stroke="black" points="814,-1099 814,-1123 1298,-1123 1298,-1099 814,-1099"/>
<text text-anchor="start" x="923.5" y="-1107.2" font-family="Times,serif" font-size="16.00">Generic associated types (GATs)</text>
<polygon fill="cornsilk" stroke="transparent" points="760,-1073 760,-1097 812,-1097 812,-1073 760,-1073"/>
<polygon fill="none" stroke="black" points="760,-1073 760,-1097 812,-1097 812,-1073 760,-1073"/>
<text text-anchor="start" x="763" y="-1081.2" font-family="Times,serif" font-size="16.00">▮▮▮▮▯</text>
<polygon fill="cornsilk" stroke="transparent" points="814,-1073 814,-1097 1298,-1097 1298,-1073 814,-1073"/>
<polygon fill="none" stroke="black" points="814,-1073 814,-1097 1298,-1097 1298,-1073 814,-1073"/>
<text text-anchor="start" x="1016.5" y="-1081.2" font-family="Times,serif" font-size="16.00">Impl trait</text>
<polygon fill="cornsilk" stroke="transparent" points="760,-1047 760,-1071 812,-1071 812,-1047 760,-1047"/>
<polygon fill="none" stroke="black" points="760,-1047 760,-1071 812,-1071 812,-1047 760,-1047"/>
<text text-anchor="start" x="763" y="-1055.2" font-family="Times,serif" font-size="16.00">▮▯▯▯▯</text>
<polygon fill="cornsilk" stroke="transparent" points="814,-1047 814,-1071 1298,-1071 1298,-1047 814,-1047"/>
<polygon fill="none" stroke="black" points="814,-1047 814,-1071 1298,-1071 1298,-1047 814,-1047"/>
<text text-anchor="start" x="926" y="-1055.2" font-family="Times,serif" font-size="16.00">Threaded contexts, capabilities</text>
<polygon fill="cornsilk" stroke="transparent" points="760,-1021 760,-1045 812,-1045 812,-1021 760,-1021"/>
<polygon fill="none" stroke="black" points="760,-1021 760,-1045 812,-1045 812,-1021 760,-1021"/>
<text text-anchor="start" x="763" y="-1029.2" font-family="Times,serif" font-size="16.00">▮▯▯▯▯</text>
<polygon fill="cornsilk" stroke="transparent" points="814,-1021 814,-1045 1298,-1045 1298,-1021 814,-1021"/>
<polygon fill="none" stroke="black" points="814,-1021 814,-1045 1298,-1045 1298,-1021 814,-1021"/>
<text text-anchor="start" x="1009.5" y="-1029.2" font-family="Times,serif" font-size="16.00">Generators</text>
<polygon fill="cornsilk" stroke="transparent" points="760,-995 760,-1019 812,-1019 812,-995 760,-995"/>
<polygon fill="none" stroke="black" points="760,-995 760,-1019 812,-1019 812,-995 760,-995"/>
<text text-anchor="start" x="763" y="-1003.2" font-family="Times,serif" font-size="16.00">▮▯▯▯▯</text>
<g id="a_node9_0"><a xlink:href="https://github.com/rust-lang/polonius/" xlink:title="&lt;TABLE&gt;">
<polygon fill="cornsilk" stroke="transparent" points="814,-995 814,-1019 1298,-1019 1298,-995 814,-995"/>
<polygon fill="none" stroke="black" points="814,-995 814,-1019 1298,-1019 1298,-995 814,-995"/>
<text text-anchor="start" x="949.5" y="-1004.2" font-family="Times,serif" text-decoration="underline" font-size="16.00">Improved borrow checker</text>
</a>
</g>
<polygon fill="cornsilk" stroke="transparent" points="760,-969 760,-993 812,-993 812,-969 760,-969"/>
<polygon fill="none" stroke="black" points="760,-969 760,-993 812,-993 812,-969 760,-969"/>
<text text-anchor="start" x="763" y="-977.2" font-family="Times,serif" font-size="16.00">▮▯▯▯▯</text>
<g id="a_node9_1"><a xlink:href="https://smallcultfollowing.com/babysteps//blog/2021/11/05/view-types/" xlink:title="&lt;TABLE&gt;">
<polygon fill="cornsilk" stroke="transparent" points="814,-969 814,-993 1298,-993 1298,-969 814,-969"/>
<polygon fill="none" stroke="black" points="814,-969 814,-993 1298,-993 1298,-969 814,-969"/>
<text text-anchor="start" x="1011" y="-978.2" font-family="Times,serif" text-decoration="underline" font-size="16.00">View types</text>
</a>
</g>
<polygon fill="none" stroke="black" points="757,-966 757,-1256 1301,-1256 1301,-966 757,-966"/>
</g>
<!-- fundamentals&#45;&gt;core&#45;lang -->
<g id="edge11" class="edge">
<title>fundamentals&#45;&gt;core&#45;lang</title>
<path fill="none" stroke="black" d="M862.48,-1291.79C871.03,-1282.56 879.73,-1273.17 888.45,-1263.75"/>
<polygon fill="black" stroke="black" points="891.21,-1265.92 895.44,-1256.21 886.08,-1261.16 891.21,-1265.92"/>
</g>
<!-- semi&#45;stable&#45;apis&#45;&gt;dev&#45;tooling -->
<g id="edge4" class="edge">
<title>semi&#45;stable&#45;apis&#45;&gt;dev&#45;tooling</title>
<path fill="none" stroke="black" d="M392.77,-1031C366.94,-1001.94 341.56,-967.01 327,-930 295.68,-850.41 292.01,-753.49 295.59,-679.38"/>
<polygon fill="black" stroke="black" points="299.1,-679.25 296.14,-669.08 292.11,-678.88 299.1,-679.25"/>
</g>
<!-- extensible -->
<g id="node10" class="node">
<title>extensible</title>
<polygon fill="darkgoldenrod" stroke="transparent" points="339,-903 339,-927 775,-927 775,-903 339,-903"/>
<polygon fill="none" stroke="black" points="339,-903 339,-927 775,-927 775,-903 339,-903"/>
<text text-anchor="start" x="492" y="-911.2" font-family="Times,serif" font-size="16.00">Extensible Rust</text>
<polygon fill="#ffb90f" stroke="transparent" points="339,-877 339,-901 775,-901 775,-877 339,-877"/>
<polygon fill="none" stroke="black" points="339,-877 339,-901 775,-901 775,-877 339,-877"/>
<text text-anchor="start" x="494.5" y="-885.2" font-family="Times,serif" font-size="16.00">Rust language </text>
<polygon fill="#ffb90f" stroke="transparent" points="339,-851 339,-875 775,-875 775,-851 339,-851"/>
<polygon fill="none" stroke="black" points="339,-851 339,-875 775,-875 775,-851 339,-851"/>
<text text-anchor="start" x="403" y="-859.2" font-family="Times,serif" font-size="16.00">Language semantics well understood</text>
<polygon fill="#ffb90f" stroke="transparent" points="339,-825 339,-849 775,-849 775,-825 339,-825"/>
<polygon fill="none" stroke="black" points="339,-825 339,-849 775,-849 775,-825 339,-825"/>
<text text-anchor="start" x="366" y="-833.2" font-family="Times,serif" font-size="16.00">Extending language possible by mere humans</text>
<polygon fill="cornsilk" stroke="transparent" points="339,-799 339,-823 391,-823 391,-799 339,-799"/>
<polygon fill="none" stroke="black" points="339,-799 339,-823 391,-823 391,-799 339,-799"/>
<text text-anchor="start" x="342" y="-807.2" font-family="Times,serif" font-size="16.00">▮▮▯▯▯</text>
<polygon fill="cornsilk" stroke="transparent" points="393,-799 393,-823 775,-823 775,-799 393,-799"/>
<polygon fill="none" stroke="black" points="393,-799 393,-823 775,-823 775,-799 393,-799"/>
<text text-anchor="start" x="522" y="-807.2" font-family="Times,serif" font-size="16.00">Macro hygiene</text>
<polygon fill="cornsilk" stroke="transparent" points="339,-773 339,-797 391,-797 391,-773 339,-773"/>
<polygon fill="none" stroke="black" points="339,-773 339,-797 391,-797 391,-773 339,-773"/>
<text text-anchor="start" x="342" y="-781.2" font-family="Times,serif" font-size="16.00">▯▯▯▯▯</text>
<polygon fill="cornsilk" stroke="transparent" points="393,-773 393,-797 775,-797 775,-773 393,-773"/>
<polygon fill="none" stroke="black" points="393,-773 393,-797 775,-797 775,-773 393,-773"/>
<text text-anchor="start" x="433.5" y="-781.2" font-family="Times,serif" font-size="16.00">Libraries supply custom lints, errors</text>
<polygon fill="cornsilk" stroke="transparent" points="339,-747 339,-771 391,-771 391,-747 339,-747"/>
<polygon fill="none" stroke="black" points="339,-747 339,-771 391,-771 391,-747 339,-747"/>
<text text-anchor="start" x="342" y="-755.2" font-family="Times,serif" font-size="16.00">▮▯▯▯▯</text>
<polygon fill="cornsilk" stroke="transparent" points="393,-747 393,-771 775,-771 775,-747 393,-747"/>
<polygon fill="none" stroke="black" points="393,-747 393,-771 775,-771 775,-747 393,-747"/>
<polygon fill="cornsilk" stroke="transparent" points="339,-721 339,-745 391,-745 391,-721 339,-721"/>
<polygon fill="none" stroke="black" points="339,-721 339,-745 391,-745 391,-721 339,-721"/>
<text text-anchor="start" x="342" y="-729.2" font-family="Times,serif" font-size="16.00">▮▯▯▯▯</text>
<polygon fill="cornsilk" stroke="transparent" points="393,-721 393,-745 775,-745 775,-721 393,-721"/>
<polygon fill="none" stroke="black" points="393,-721 393,-745 775,-745 775,-721 393,-721"/>
<text text-anchor="start" x="396" y="-729.2" font-family="Times,serif" font-size="16.00">Macros, lints have access to type information</text>
<polygon fill="none" stroke="black" points="336,-718 336,-930 778,-930 778,-718 336,-718"/>
</g>
<!-- semi&#45;stable&#45;apis&#45;&gt;extensible -->
<g id="edge12" class="edge">
<title>semi&#45;stable&#45;apis&#45;&gt;extensible</title>
<path fill="none" stroke="black" d="M499.9,-1030.99C507.71,-1002.82 516.67,-970.49 525.14,-939.92"/>
<polygon fill="black" stroke="black" points="528.58,-940.64 527.88,-930.07 521.83,-938.77 528.58,-940.64"/>
</g>
<!-- onboarding&#45;time&#45;&gt;goal&#45;internet&#45;services -->
<g id="edge1" class="edge">
<title>onboarding&#45;time&#45;&gt;goal&#45;internet&#45;services</title>
<path fill="none" stroke="black" d="M689.8,-195.83C678.06,-186.05 666.26,-176.21 654.77,-166.64"/>
<polygon fill="black" stroke="black" points="656.79,-163.77 646.86,-160.05 652.31,-169.14 656.79,-163.77"/>
</g>
<!-- async&#45;lang -->
<g id="node7" class="node">
<title>async&#45;lang</title>
<polygon fill="darkgoldenrod" stroke="transparent" points="799,-903 799,-927 1259,-927 1259,-903 799,-903"/>
<polygon fill="none" stroke="black" points="799,-903 799,-927 1259,-927 1259,-903 799,-903"/>
<text text-anchor="start" x="928.5" y="-911.2" font-family="Times,serif" font-size="16.00">Async I/O Fundamentals</text>
<polygon fill="#ffb90f" stroke="transparent" points="799,-877 799,-901 1259,-901 1259,-877 799,-877"/>
<polygon fill="none" stroke="black" points="799,-877 799,-901 1259,-901 1259,-877 799,-877"/>
<text text-anchor="start" x="806.5" y="-885.2" font-family="Times,serif" font-size="16.00">Using Async I/O comparable in complexity to Sync I/O</text>
<polygon fill="#ffb90f" stroke="transparent" points="799,-851 799,-875 1259,-875 1259,-851 799,-851"/>
<polygon fill="none" stroke="black" points="799,-851 799,-875 1259,-875 1259,-851 799,-851"/>
<text text-anchor="start" x="803" y="-859.2" font-family="Times,serif" font-size="16.00">Access to a wide variety of useful libraries on crates.io</text>
<polygon fill="#ffb90f" stroke="transparent" points="799,-825 799,-849 1259,-849 1259,-825 799,-825"/>
<polygon fill="none" stroke="black" points="799,-825 799,-849 1259,-849 1259,-825 799,-825"/>
<text text-anchor="start" x="843" y="-833.2" font-family="Times,serif" font-size="16.00">Easy access to high performance networking</text>
<polygon fill="cornsilk" stroke="transparent" points="799,-799 799,-823 852,-823 852,-799 799,-799"/>
<polygon fill="none" stroke="black" points="799,-799 799,-823 852,-823 852,-799 799,-799"/>
<text text-anchor="start" x="802.5" y="-807.2" font-family="Times,serif" font-size="16.00">▮▮▮▯▯</text>
<polygon fill="cornsilk" stroke="transparent" points="854,-799 854,-823 1259,-823 1259,-799 854,-799"/>
<polygon fill="none" stroke="black" points="854,-799 854,-823 1259,-823 1259,-799 854,-799"/>
<text text-anchor="start" x="936" y="-807.2" font-family="Times,serif" font-size="16.00">Can use async fn everywhere</text>
<polygon fill="cornsilk" stroke="transparent" points="799,-773 799,-797 852,-797 852,-773 799,-773"/>
<polygon fill="none" stroke="black" points="799,-773 799,-797 852,-797 852,-773 799,-773"/>
<text text-anchor="start" x="802.5" y="-781.2" font-family="Times,serif" font-size="16.00">▮▮▯▯▯</text>
<polygon fill="cornsilk" stroke="transparent" points="854,-773 854,-797 1259,-797 1259,-773 854,-773"/>
<polygon fill="none" stroke="black" points="854,-773 854,-797 1259,-797 1259,-773 854,-773"/>
<text text-anchor="start" x="858" y="-781.2" font-family="Times,serif" font-size="16.00">Async resource cleanup works well (async drop)</text>
<polygon fill="cornsilk" stroke="transparent" points="799,-747 799,-771 852,-771 852,-747 799,-747"/>
<polygon fill="none" stroke="black" points="799,-747 799,-771 852,-771 852,-747 799,-747"/>
<text text-anchor="start" x="802.5" y="-755.2" font-family="Times,serif" font-size="16.00">▮▯▯▯▯</text>
<polygon fill="cornsilk" stroke="transparent" points="854,-747 854,-771 1259,-771 1259,-747 854,-747"/>
<polygon fill="none" stroke="black" points="854,-747 854,-771 1259,-771 1259,-747 854,-747"/>
<text text-anchor="start" x="892.5" y="-755.2" font-family="Times,serif" font-size="16.00">Easy interoperability between runtimes</text>
<polygon fill="cornsilk" stroke="transparent" points="799,-721 799,-745 852,-745 852,-721 799,-721"/>
<polygon fill="none" stroke="black" points="799,-721 799,-745 852,-745 852,-721 799,-721"/>
<text text-anchor="start" x="802.5" y="-729.2" font-family="Times,serif" font-size="16.00">▮▯▯▯▯</text>
<polygon fill="cornsilk" stroke="transparent" points="854,-721 854,-745 1259,-745 1259,-721 854,-721"/>
<polygon fill="none" stroke="black" points="854,-721 854,-745 1259,-745 1259,-721 854,-721"/>
<text text-anchor="start" x="984.5" y="-729.2" font-family="Times,serif" font-size="16.00">Async generators</text>
<polygon fill="none" stroke="black" points="796,-718 796,-930 1262,-930 1262,-718 796,-718"/>
</g>
<!-- async&#45;stack -->
<g id="node8" class="node">
<title>async&#45;stack</title>
<polygon fill="darkgoldenrod" stroke="transparent" points="614,-655 614,-679 1018,-679 1018,-655 614,-655"/>
<polygon fill="none" stroke="black" points="614,-655 614,-679 1018,-679 1018,-655 614,-655"/>
<text text-anchor="start" x="767.5" y="-663.2" font-family="Times,serif" font-size="16.00">Async stack</text>
<polygon fill="#ffb90f" stroke="transparent" points="614,-629 614,-653 1018,-653 1018,-629 614,-629"/>
<polygon fill="none" stroke="black" points="614,-629 614,-653 1018,-653 1018,-629 614,-629"/>
<text text-anchor="start" x="641.5" y="-637.2" font-family="Times,serif" font-size="16.00">Can quickly stand up an async application</text>
<polygon fill="#ffb90f" stroke="transparent" points="614,-603 614,-627 1018,-627 1018,-603 614,-603"/>
<polygon fill="none" stroke="black" points="614,-603 614,-627 1018,-627 1018,-603 614,-603"/>
<text text-anchor="start" x="662.5" y="-611.2" font-family="Times,serif" font-size="16.00">Devs able to focus on &#39;business logic&#39;</text>
<polygon fill="cornsilk" stroke="transparent" points="614,-577 614,-601 666,-601 666,-577 614,-577"/>
<polygon fill="none" stroke="black" points="614,-577 614,-601 666,-601 666,-577 614,-577"/>
<text text-anchor="start" x="617" y="-585.2" font-family="Times,serif" font-size="16.00">▮▮▮▯▯</text>
<polygon fill="cornsilk" stroke="transparent" points="668,-577 668,-601 1018,-601 1018,-577 668,-577"/>
<polygon fill="none" stroke="black" points="668,-577 668,-601 1018,-601 1018,-577 668,-577"/>
<text text-anchor="start" x="722" y="-585.2" font-family="Times,serif" font-size="16.00">High&#45;performance runtime(s)</text>
<polygon fill="cornsilk" stroke="transparent" points="614,-551 614,-575 666,-575 666,-551 614,-551"/>
<polygon fill="none" stroke="black" points="614,-551 614,-575 666,-575 666,-551 614,-551"/>
<text text-anchor="start" x="617" y="-559.2" font-family="Times,serif" font-size="16.00">▮▮▮▯▯</text>
<polygon fill="cornsilk" stroke="transparent" points="668,-551 668,-575 1018,-575 1018,-551 668,-551"/>
<polygon fill="none" stroke="black" points="668,-551 668,-575 1018,-575 1018,-551 668,-551"/>
<text text-anchor="start" x="809" y="-559.2" font-family="Times,serif" font-size="16.00">Logging</text>
<polygon fill="cornsilk" stroke="transparent" points="614,-525 614,-549 666,-549 666,-525 614,-525"/>
<polygon fill="none" stroke="black" points="614,-525 614,-549 666,-549 666,-525 614,-525"/>
<text text-anchor="start" x="617" y="-533.2" font-family="Times,serif" font-size="16.00">▮▯▯▯▯</text>
<polygon fill="cornsilk" stroke="transparent" points="668,-525 668,-549 1018,-549 1018,-525 668,-525"/>
<polygon fill="none" stroke="black" points="668,-525 668,-549 1018,-549 1018,-525 668,-525"/>
<text text-anchor="start" x="812.5" y="-533.2" font-family="Times,serif" font-size="16.00">Testing</text>
<polygon fill="cornsilk" stroke="transparent" points="614,-499 614,-523 666,-523 666,-499 614,-499"/>
<polygon fill="none" stroke="black" points="614,-499 614,-523 666,-523 666,-499 614,-499"/>
<text text-anchor="start" x="617" y="-507.2" font-family="Times,serif" font-size="16.00">▮▮▯▯▯</text>
<polygon fill="cornsilk" stroke="transparent" points="668,-499 668,-523 1018,-523 1018,-499 668,-499"/>
<polygon fill="none" stroke="black" points="668,-499 668,-523 1018,-523 1018,-499 668,-499"/>
<text text-anchor="start" x="750" y="-507.2" font-family="Times,serif" font-size="16.00">Persistence / database</text>
<polygon fill="cornsilk" stroke="transparent" points="614,-473 614,-497 666,-497 666,-473 614,-473"/>
<polygon fill="none" stroke="black" points="614,-473 614,-497 666,-497 666,-473 614,-473"/>
<text text-anchor="start" x="617" y="-481.2" font-family="Times,serif" font-size="16.00">▮▮▯▯▯</text>
<polygon fill="cornsilk" stroke="transparent" points="668,-473 668,-497 1018,-497 1018,-473 668,-473"/>
<polygon fill="none" stroke="black" points="668,-473 668,-497 1018,-497 1018,-473 668,-473"/>
<text text-anchor="start" x="793.5" y="-481.2" font-family="Times,serif" font-size="16.00">Middleware</text>
<polygon fill="cornsilk" stroke="transparent" points="614,-447 614,-471 666,-471 666,-447 614,-447"/>
<polygon fill="none" stroke="black" points="614,-447 614,-471 666,-471 666,-447 614,-447"/>
<text text-anchor="start" x="617" y="-455.2" font-family="Times,serif" font-size="16.00">▮▮▮▯▯</text>
<polygon fill="cornsilk" stroke="transparent" points="668,-447 668,-471 1018,-471 1018,-447 668,-447"/>
<polygon fill="none" stroke="black" points="668,-447 668,-471 1018,-471 1018,-447 668,-447"/>
<text text-anchor="start" x="671" y="-455.2" font-family="Times,serif" font-size="16.00">I/O uring support in tokio, other runtimes</text>
<polygon fill="none" stroke="black" points="611,-444 611,-682 1021,-682 1021,-444 611,-444"/>
</g>
<!-- async&#45;lang&#45;&gt;async&#45;stack -->
<g id="edge9" class="edge">
<title>async&#45;lang&#45;&gt;async&#45;stack</title>
<path fill="none" stroke="black" d="M942.36,-717.65C934.9,-708.57 927.29,-699.33 919.71,-690.11"/>
<polygon fill="black" stroke="black" points="922.4,-687.87 913.34,-682.37 916.99,-692.31 922.4,-687.87"/>
</g>
<!-- async&#45;stack&#45;&gt;onboarding&#45;time -->
<g id="edge7" class="edge">
<title>async&#45;stack&#45;&gt;onboarding&#45;time</title>
<path fill="none" stroke="black" d="M816,-443.87C816,-435.43 816,-426.92 816,-418.49"/>
<polygon fill="black" stroke="black" points="819.5,-418.26 816,-408.26 812.5,-418.27 819.5,-418.26"/>
</g>
<!-- core&#45;lang&#45;&gt;async&#45;lang -->
<g id="edge8" class="edge">
<title>core&#45;lang&#45;&gt;async&#45;lang</title>
<path fill="none" stroke="black" d="M1029,-965.83C1029,-957.29 1029,-948.76 1029,-940.36"/>
<polygon fill="black" stroke="black" points="1032.5,-940.18 1029,-930.18 1025.5,-940.18 1032.5,-940.18"/>
</g>
<!-- extensible&#45;&gt;async&#45;stack -->
<g id="edge10" class="edge">
<title>extensible&#45;&gt;async&#45;stack</title>
<path fill="none" stroke="black" d="M662.35,-717.65C671.61,-708.39 681.04,-698.96 690.45,-689.55"/>
<polygon fill="black" stroke="black" points="693.04,-691.91 697.63,-682.37 688.09,-686.96 693.04,-691.91"/>
</g>
</g>
</svg>
