<?xml version="1.0" encoding="UTF-8" standalone="no"?>
<!DOCTYPE svg PUBLIC "-//W3C//DTD SVG 1.1//EN"
 "http://www.w3.org/Graphics/SVG/1.1/DTD/svg11.dtd">
<!-- Generated by graphviz version 2.43.0 (0)
 -->
<!-- Title: g Pages: 1 -->
<svg width="1553pt" height="1538pt"
 viewBox="0.00 0.00 1553.00 1538.00" xmlns="http://www.w3.org/2000/svg" xmlns:xlink="http://www.w3.org/1999/xlink">
<g id="graph0" class="graph" transform="scale(1 1) rotate(0) translate(4 1534)">
<title>g</title>
<polygon fill="white" stroke="transparent" points="-4,4 -4,-1534 1549,-1534 1549,4 -4,4"/>
<!-- goal&#45;internet&#45;services -->
<g id="node1" class="node">
<title>goal&#45;internet&#45;services</title>
<polygon fill="darkgoldenrod" stroke="transparent" points="248,-133 248,-157 857,-157 857,-133 248,-133"/>
<polygon fill="none" stroke="black" points="248,-133 248,-157 857,-157 857,-133 248,-133"/>
<text text-anchor="start" x="324" y="-141.2" font-family="Times,serif" font-size="16.00">🎯 Rust a common choice for building internet services</text>
<polygon fill="#ffb90f" stroke="transparent" points="248,-107 248,-131 857,-131 857,-107 248,-107"/>
<polygon fill="none" stroke="black" points="248,-107 248,-131 857,-131 857,-107 248,-107"/>
<text text-anchor="start" x="461.5" y="-115.2" font-family="Times,serif" font-size="16.00">Faster response times</text>
<polygon fill="#ffb90f" stroke="transparent" points="248,-81 248,-105 857,-105 857,-81 248,-81"/>
<polygon fill="none" stroke="black" points="248,-81 248,-105 857,-105 857,-81 248,-81"/>
<text text-anchor="start" x="384" y="-89.2" font-family="Times,serif" font-size="16.00">Ratio of P99.99 to P50 latencies is lower</text>
<polygon fill="#ffb90f" stroke="transparent" points="248,-55 248,-79 857,-79 857,-55 248,-55"/>
<polygon fill="none" stroke="black" points="248,-55 248,-79 857,-79 857,-55 248,-55"/>
<text text-anchor="start" x="270.5" y="-63.2" font-family="Times,serif" font-size="16.00">Data centers require fewer resources to sustain same level of traffic</text>
<polygon fill="#ffb90f" stroke="transparent" points="248,-29 248,-53 857,-53 857,-29 248,-29"/>
<polygon fill="none" stroke="black" points="248,-29 248,-53 857,-53 857,-29 248,-29"/>
<text text-anchor="start" x="252" y="-37.2" font-family="Times,serif" font-size="16.00">Rate of security vulnerabilities and serious bugs is dramatically reduced</text>
<polygon fill="#ffb90f" stroke="transparent" points="248,-3 248,-27 857,-27 857,-3 248,-3"/>
<polygon fill="none" stroke="black" points="248,-3 248,-27 857,-27 857,-3 248,-3"/>
<text text-anchor="start" x="342" y="-11.2" font-family="Times,serif" font-size="16.00">Improved employee retention and ability to recruit</text>
<polygon fill="none" stroke="black" points="244.5,0 244.5,-160 859.5,-160 859.5,0 244.5,0"/>
</g>
<!-- prod&#45;tooling -->
<g id="node2" class="node">
<title>prod&#45;tooling</title>
<polygon fill="darkgoldenrod" stroke="transparent" points="3,-355 3,-379 573,-379 573,-355 3,-355"/>
<polygon fill="none" stroke="black" points="3,-355 3,-379 573,-379 573,-355 3,-355"/>
<text text-anchor="start" x="211" y="-363.2" font-family="Times,serif" font-size="16.00">Production tooling</text>
<polygon fill="#ffb90f" stroke="transparent" points="3,-329 3,-353 573,-353 573,-329 3,-329"/>
<polygon fill="none" stroke="black" points="3,-329 3,-353 573,-353 573,-329 3,-329"/>
<text text-anchor="start" x="11.5" y="-337.2" font-family="Times,serif" font-size="16.00">Able to troubleshoot correctness problems that arise in production</text>
<polygon fill="#ffb90f" stroke="transparent" points="3,-303 3,-327 573,-327 573,-303 3,-303"/>
<polygon fill="none" stroke="black" points="3,-303 3,-327 573,-327 573,-303 3,-303"/>
<text text-anchor="start" x="7" y="-311.2" font-family="Times,serif" font-size="16.00">Able to troubleshoot performance problems that arise in production</text>
<polygon fill="cornsilk" stroke="transparent" points="3,-277 3,-301 100,-301 100,-277 3,-277"/>
<polygon fill="none" stroke="black" points="3,-277 3,-301 100,-301 100,-277 3,-277"/>
<text text-anchor="start" x="7.5" y="-285.2" font-family="Times,serif" font-size="16.00">(not sure!)</text>
<polygon fill="cornsilk" stroke="transparent" points="102,-277 102,-301 573,-301 573,-277 102,-277"/>
<polygon fill="none" stroke="black" points="102,-277 102,-301 573,-301 573,-277 102,-277"/>
<text text-anchor="start" x="222" y="-285.2" font-family="Times,serif" font-size="16.00">Async runtime observability</text>
<polygon fill="cornsilk" stroke="transparent" points="3,-251 3,-275 100,-275 100,-251 3,-251"/>
<polygon fill="none" stroke="black" points="3,-251 3,-275 100,-275 100,-251 3,-251"/>
<text text-anchor="start" x="28.5" y="-259.2" font-family="Times,serif" font-size="16.00">▮▮▯▯▯</text>
<polygon fill="cornsilk" stroke="transparent" points="102,-251 102,-275 573,-275 573,-251 102,-251"/>
<polygon fill="none" stroke="black" points="102,-251 102,-275 573,-275 573,-251 102,-251"/>
<text text-anchor="start" x="190" y="-259.2" font-family="Times,serif" font-size="16.00">Readable stacktraces, esp. in async</text>
<polygon fill="cornsilk" stroke="transparent" points="3,-225 3,-249 100,-249 100,-225 3,-225"/>
<polygon fill="none" stroke="black" points="3,-225 3,-249 100,-249 100,-225 3,-225"/>
<text text-anchor="start" x="28.5" y="-233.2" font-family="Times,serif" font-size="16.00">▯▯▯▯▯</text>
<polygon fill="cornsilk" stroke="transparent" points="102,-225 102,-249 573,-249 573,-225 102,-225"/>
<polygon fill="none" stroke="black" points="102,-225 102,-249 573,-249 573,-225 102,-225"/>
<text text-anchor="start" x="107" y="-233.2" font-family="Times,serif" font-size="16.00">Live, low&#45;overhead profilers for CPU and memory usage</text>
<polygon fill="none" stroke="black" points="0,-222 0,-382 576,-382 576,-222 0,-222"/>
</g>
<!-- prod&#45;tooling&#45;&gt;goal&#45;internet&#45;services -->
<g id="edge2" class="edge">
<title>prod&#45;tooling&#45;&gt;goal&#45;internet&#45;services</title>
<path fill="none" stroke="black" d="M382.94,-221.89C404.4,-204 427.28,-184.93 449.05,-166.79"/>
<polygon fill="black" stroke="black" points="451.58,-169.24 457.02,-160.15 447.1,-163.86 451.58,-169.24"/>
</g>
<!-- dev&#45;tooling -->
<g id="node3" class="node">
<title>dev&#45;tooling</title>
<polygon fill="darkgoldenrod" stroke="transparent" points="16,-642 16,-666 542,-666 542,-642 16,-642"/>
<polygon fill="none" stroke="black" points="16,-642 16,-666 542,-666 542,-642 16,-642"/>
<text text-anchor="start" x="205" y="-650.2" font-family="Times,serif" font-size="16.00">Developer tooling</text>
<polygon fill="#ffb90f" stroke="transparent" points="16,-616 16,-640 542,-640 542,-616 16,-616"/>
<polygon fill="none" stroke="black" points="16,-616 16,-640 542,-640 542,-616 16,-616"/>
<text text-anchor="start" x="46" y="-624.2" font-family="Times,serif" font-size="16.00">Able to understand programs in terms of async behavior</text>
<polygon fill="#ffb90f" stroke="transparent" points="16,-590 16,-614 542,-614 542,-590 16,-590"/>
<polygon fill="none" stroke="black" points="16,-590 16,-614 542,-614 542,-590 16,-590"/>
<text text-anchor="start" x="24.5" y="-598.2" font-family="Times,serif" font-size="16.00">Able to fix correctness problems in development environment</text>
<polygon fill="#ffb90f" stroke="transparent" points="16,-564 16,-588 542,-588 542,-564 16,-564"/>
<polygon fill="none" stroke="black" points="16,-564 16,-588 542,-588 542,-564 16,-564"/>
<text text-anchor="start" x="20" y="-572.2" font-family="Times,serif" font-size="16.00">Able to fix performance problems in development environment</text>
<polygon fill="cornsilk" stroke="transparent" points="16,-538 16,-562 102,-562 102,-538 16,-538"/>
<polygon fill="none" stroke="black" points="16,-538 16,-562 102,-562 102,-538 16,-538"/>
<text text-anchor="start" x="36" y="-546.2" font-family="Times,serif" font-size="16.00">▮▮▯▯▯</text>
<polygon fill="cornsilk" stroke="transparent" points="104,-538 104,-562 542,-562 542,-538 104,-538"/>
<polygon fill="none" stroke="black" points="104,-538 104,-562 542,-562 542,-538 104,-538"/>
<text text-anchor="start" x="229.5" y="-546.2" font-family="Times,serif" font-size="16.00">Quality Rust debugger</text>
<polygon fill="cornsilk" stroke="transparent" points="16,-512 16,-536 102,-536 102,-512 16,-512"/>
<polygon fill="none" stroke="black" points="16,-512 16,-536 102,-536 102,-512 16,-512"/>
<text text-anchor="start" x="36" y="-520.2" font-family="Times,serif" font-size="16.00">▮▮▮▮▯</text>
<polygon fill="cornsilk" stroke="transparent" points="104,-512 104,-536 542,-536 542,-512 104,-512"/>
<polygon fill="none" stroke="black" points="104,-512 104,-536 542,-536 542,-512 104,-512"/>
<text text-anchor="start" x="160.5" y="-520.2" font-family="Times,serif" font-size="16.00">Rust well integrated into common IDEs</text>
<polygon fill="cornsilk" stroke="transparent" points="16,-486 16,-510 102,-510 102,-486 16,-486"/>
<polygon fill="none" stroke="black" points="16,-486 16,-510 102,-510 102,-486 16,-486"/>
<text text-anchor="start" x="36" y="-494.2" font-family="Times,serif" font-size="16.00">▮▮▮▯▯</text>
<polygon fill="cornsilk" stroke="transparent" points="104,-486 104,-510 542,-510 542,-486 104,-486"/>
<polygon fill="none" stroke="black" points="104,-486 104,-510 542,-510 542,-486 104,-486"/>
<text text-anchor="start" x="124" y="-494.2" font-family="Times,serif" font-size="16.00">Async runtime observability (e.g., tokio console)</text>
<polygon fill="cornsilk" stroke="transparent" points="16,-460 16,-484 102,-484 102,-460 16,-460"/>
<polygon fill="none" stroke="black" points="16,-460 16,-484 102,-484 102,-460 16,-460"/>
<text text-anchor="start" x="36" y="-468.2" font-family="Times,serif" font-size="16.00">▮▮▯▯▯</text>
<polygon fill="cornsilk" stroke="transparent" points="104,-460 104,-484 542,-484 542,-460 104,-460"/>
<polygon fill="none" stroke="black" points="104,-460 104,-484 542,-484 542,-460 104,-460"/>
<text text-anchor="start" x="172.5" y="-468.2" font-family="Times,serif" font-size="16.00">Profilers for CPU and memory usage</text>
<polygon fill="none" stroke="black" points="13,-457 13,-669 545,-669 545,-457 13,-457"/>
</g>
<!-- dev&#45;tooling&#45;&gt;prod&#45;tooling -->
<g id="edge3" class="edge">
<title>dev&#45;tooling&#45;&gt;prod&#45;tooling</title>
<path fill="none" stroke="black" d="M282.66,-456.65C283.41,-435.23 284.18,-412.89 284.9,-392.1"/>
<polygon fill="black" stroke="black" points="288.4,-392.14 285.25,-382.03 281.41,-391.9 288.4,-392.14"/>
</g>
<!-- onboarding&#45;time -->
<g id="node6" class="node">
<title>onboarding&#45;time</title>
<polygon fill="darkgoldenrod" stroke="transparent" points="602,-381 602,-405 1040,-405 1040,-381 602,-381"/>
<polygon fill="none" stroke="black" points="602,-381 602,-405 1040,-405 1040,-381 602,-381"/>
<text text-anchor="start" x="664" y="-389.2" font-family="Times,serif" font-size="16.00">Smooth onboarding of Rust engineers</text>
<polygon fill="#ffb90f" stroke="transparent" points="602,-355 602,-379 1040,-379 1040,-355 602,-355"/>
<polygon fill="none" stroke="black" points="602,-355 602,-379 1040,-379 1040,-355 602,-355"/>
<text text-anchor="start" x="606" y="-363.2" font-family="Times,serif" font-size="16.00">Time to be highly productive is measured in months</text>
<polygon fill="#ffb90f" stroke="transparent" points="602,-329 602,-353 1040,-353 1040,-329 602,-329"/>
<polygon fill="none" stroke="black" points="602,-329 602,-353 1040,-353 1040,-329 602,-329"/>
<text text-anchor="start" x="612.5" y="-337.2" font-family="Times,serif" font-size="16.00">Clear transition paths from other major languages</text>
<polygon fill="cornsilk" stroke="transparent" points="602,-303 602,-327 689,-327 689,-303 602,-303"/>
<polygon fill="none" stroke="black" points="602,-303 602,-327 689,-327 689,-303 602,-303"/>
<text text-anchor="start" x="622.5" y="-311.2" font-family="Times,serif" font-size="16.00">▮▮▮▮▮</text>
<polygon fill="cornsilk" stroke="transparent" points="691,-303 691,-327 1040,-327 1040,-303 691,-303"/>
<polygon fill="none" stroke="black" points="691,-303 691,-327 1040,-327 1040,-303 691,-303"/>
<text text-anchor="start" x="728.5" y="-311.2" font-family="Times,serif" font-size="16.00">Rust beginner learning materials</text>
<polygon fill="cornsilk" stroke="transparent" points="602,-277 602,-301 689,-301 689,-277 602,-277"/>
<polygon fill="none" stroke="black" points="602,-277 602,-301 689,-301 689,-277 602,-277"/>
<text text-anchor="start" x="622.5" y="-285.2" font-family="Times,serif" font-size="16.00">▮▮▮▯▯</text>
<polygon fill="cornsilk" stroke="transparent" points="691,-277 691,-301 1040,-301 1040,-277 691,-277"/>
<polygon fill="none" stroke="black" points="691,-277 691,-301 1040,-301 1040,-277 691,-277"/>
<text text-anchor="start" x="712" y="-285.2" font-family="Times,serif" font-size="16.00">Rust intermediate learning materials</text>
<polygon fill="cornsilk" stroke="transparent" points="602,-251 602,-275 689,-275 689,-251 602,-251"/>
<polygon fill="none" stroke="black" points="602,-251 602,-275 689,-275 689,-251 602,-251"/>
<text text-anchor="start" x="622.5" y="-259.2" font-family="Times,serif" font-size="16.00">▯▯▯▯▯</text>
<polygon fill="cornsilk" stroke="transparent" points="691,-251 691,-275 1040,-275 1040,-251 691,-251"/>
<polygon fill="none" stroke="black" points="691,-251 691,-275 1040,-275 1040,-251 691,-251"/>
<text text-anchor="start" x="783.5" y="-259.2" font-family="Times,serif" font-size="16.00">Java transition path</text>
<polygon fill="cornsilk" stroke="transparent" points="602,-225 602,-249 689,-249 689,-225 602,-225"/>
<polygon fill="none" stroke="black" points="602,-225 602,-249 689,-249 689,-225 602,-225"/>
<text text-anchor="start" x="622.5" y="-233.2" font-family="Times,serif" font-size="16.00">▮▮▯▯▯</text>
<polygon fill="cornsilk" stroke="transparent" points="691,-225 691,-249 1040,-249 1040,-225 691,-225"/>
<polygon fill="none" stroke="black" points="691,-225 691,-249 1040,-249 1040,-225 691,-225"/>
<text text-anchor="start" x="781.5" y="-233.2" font-family="Times,serif" font-size="16.00">C++ transition path</text>
<polygon fill="cornsilk" stroke="transparent" points="602,-199 602,-223 689,-223 689,-199 602,-199"/>
<polygon fill="none" stroke="black" points="602,-199 602,-223 689,-223 689,-199 602,-199"/>
<text text-anchor="start" x="622.5" y="-207.2" font-family="Times,serif" font-size="16.00">▮▮▯▯▯</text>
<polygon fill="cornsilk" stroke="transparent" points="691,-199 691,-223 1040,-223 1040,-199 691,-199"/>
<polygon fill="none" stroke="black" points="691,-199 691,-223 1040,-223 1040,-199 691,-199"/>
<text text-anchor="start" x="724.5" y="-207.2" font-family="Times,serif" font-size="16.00">Dynamic language transition path</text>
<polygon fill="none" stroke="black" points="599,-196 599,-408 1043,-408 1043,-196 599,-196"/>
</g>
<!-- dev&#45;tooling&#45;&gt;onboarding&#45;time -->
<g id="edge6" class="edge">
<title>dev&#45;tooling&#45;&gt;onboarding&#45;time</title>
<path fill="none" stroke="black" d="M499.06,-456.84C529.62,-442.24 561.08,-427.2 591.8,-412.52"/>
<polygon fill="black" stroke="black" points="593.37,-415.66 600.88,-408.19 590.35,-409.34 593.37,-415.66"/>
</g>
<!-- fundamentals -->
<g id="node4" class="node">
<title>fundamentals</title>
<polygon fill="darkgoldenrod" stroke="transparent" points="861,-1503 861,-1527 1251,-1527 1251,-1503 861,-1503"/>
<polygon fill="none" stroke="black" points="861,-1503 861,-1527 1251,-1527 1251,-1503 861,-1503"/>
<text text-anchor="start" x="978" y="-1511.2" font-family="Times,serif" font-size="16.00">Rust fundamentals</text>
<polygon fill="#ffb90f" stroke="transparent" points="861,-1477 861,-1501 1251,-1501 1251,-1477 861,-1477"/>
<polygon fill="none" stroke="black" points="861,-1477 861,-1501 1251,-1501 1251,-1477 861,-1477"/>
<text text-anchor="start" x="914" y="-1485.2" font-family="Times,serif" font-size="16.00">Easy to contribute to the compiler</text>
<polygon fill="#ffb90f" stroke="transparent" points="861,-1451 861,-1475 1251,-1475 1251,-1451 861,-1451"/>
<polygon fill="none" stroke="black" points="861,-1451 861,-1475 1251,-1475 1251,-1451 861,-1451"/>
<text text-anchor="start" x="902" y="-1459.2" font-family="Times,serif" font-size="16.00">Language semantics well understood</text>
<polygon fill="#ffb90f" stroke="transparent" points="861,-1425 861,-1449 1251,-1449 1251,-1425 861,-1425"/>
<polygon fill="none" stroke="black" points="861,-1425 861,-1449 1251,-1449 1251,-1425 861,-1425"/>
<text text-anchor="start" x="865" y="-1433.2" font-family="Times,serif" font-size="16.00">Extending language possible by mere humans</text>
<polygon fill="cornsilk" stroke="transparent" points="861,-1399 861,-1423 914,-1423 914,-1399 861,-1399"/>
<polygon fill="none" stroke="black" points="861,-1399 861,-1423 914,-1423 914,-1399 861,-1399"/>
<text text-anchor="start" x="864.5" y="-1407.2" font-family="Times,serif" font-size="16.00">▮▮▮▯▯</text>
<polygon fill="cornsilk" stroke="transparent" points="916,-1399 916,-1423 1251,-1423 1251,-1399 916,-1399"/>
<polygon fill="none" stroke="black" points="916,-1399 916,-1423 1251,-1423 1251,-1399 916,-1399"/>
<text text-anchor="start" x="919.5" y="-1407.2" font-family="Times,serif" font-size="16.00">Compiler libraries for MIR, types, traits</text>
<polygon fill="cornsilk" stroke="transparent" points="861,-1373 861,-1397 914,-1397 914,-1373 861,-1373"/>
<polygon fill="none" stroke="black" points="861,-1373 861,-1397 914,-1397 914,-1373 861,-1373"/>
<text text-anchor="start" x="864.5" y="-1381.2" font-family="Times,serif" font-size="16.00">▮▯▯▯▯</text>
<polygon fill="cornsilk" stroke="transparent" points="916,-1373 916,-1397 1251,-1397 1251,-1373 916,-1373"/>
<polygon fill="none" stroke="black" points="916,-1373 916,-1397 1251,-1397 1251,-1373 916,-1373"/>
<text text-anchor="start" x="945" y="-1381.2" font-family="Times,serif" font-size="16.00">Core Rust semantics documented</text>
<polygon fill="cornsilk" stroke="transparent" points="861,-1347 861,-1371 914,-1371 914,-1347 861,-1347"/>
<polygon fill="none" stroke="black" points="861,-1347 861,-1371 914,-1371 914,-1347 861,-1347"/>
<text text-anchor="start" x="864.5" y="-1355.2" font-family="Times,serif" font-size="16.00">▮▯▯▯▯</text>
<polygon fill="cornsilk" stroke="transparent" points="916,-1347 916,-1371 1251,-1371 1251,-1347 916,-1347"/>
<polygon fill="none" stroke="black" points="916,-1347 916,-1371 1251,-1371 1251,-1347 916,-1347"/>
<text text-anchor="start" x="1005" y="-1355.2" font-family="Times,serif" font-size="16.00">Proof of soundness</text>
<polygon fill="cornsilk" stroke="transparent" points="861,-1321 861,-1345 914,-1345 914,-1321 861,-1321"/>
<polygon fill="none" stroke="black" points="861,-1321 861,-1345 914,-1345 914,-1321 861,-1321"/>
<text text-anchor="start" x="864.5" y="-1329.2" font-family="Times,serif" font-size="16.00">▮▮▯▯▯</text>
<polygon fill="cornsilk" stroke="transparent" points="916,-1321 916,-1345 1251,-1345 1251,-1321 916,-1321"/>
<polygon fill="none" stroke="black" points="916,-1321 916,-1345 1251,-1345 1251,-1321 916,-1321"/>
<text text-anchor="start" x="987" y="-1329.2" font-family="Times,serif" font-size="16.00">Unsafe code guidelines</text>
<polygon fill="cornsilk" stroke="transparent" points="861,-1295 861,-1319 914,-1319 914,-1295 861,-1295"/>
<polygon fill="none" stroke="black" points="861,-1295 861,-1319 914,-1319 914,-1295 861,-1295"/>
<text text-anchor="start" x="864.5" y="-1303.2" font-family="Times,serif" font-size="16.00">▮▮▯▯▯</text>
<polygon fill="cornsilk" stroke="transparent" points="916,-1295 916,-1319 1251,-1319 1251,-1295 916,-1295"/>
<polygon fill="none" stroke="black" points="916,-1295 916,-1319 1251,-1319 1251,-1295 916,-1295"/>
<text text-anchor="start" x="958" y="-1303.2" font-family="Times,serif" font-size="16.00">Known soundness bugs closed</text>
<polygon fill="none" stroke="black" points="858,-1292 858,-1530 1254,-1530 1254,-1292 858,-1292"/>
</g>
<!-- semi&#45;stable&#45;apis -->
<g id="node5" class="node">
<title>semi&#45;stable&#45;apis</title>
<polygon fill="darkgoldenrod" stroke="transparent" points="543,-877 543,-901 1058,-901 1058,-877 543,-877"/>
<polygon fill="none" stroke="black" points="543,-877 543,-901 1058,-901 1058,-877 543,-877"/>
<text text-anchor="start" x="731" y="-885.2" font-family="Times,serif" font-size="16.00">Semi&#45;stable APIs</text>
<polygon fill="#ffb90f" stroke="transparent" points="543,-851 543,-875 1058,-875 1058,-851 543,-851"/>
<polygon fill="none" stroke="black" points="543,-851 543,-875 1058,-875 1058,-851 543,-851"/>
<text text-anchor="start" x="584" y="-859.2" font-family="Times,serif" font-size="16.00">Compiler offers semi&#45;stable APIs that others can use</text>
<polygon fill="cornsilk" stroke="transparent" points="543,-825 543,-849 595,-849 595,-825 543,-825"/>
<polygon fill="none" stroke="black" points="543,-825 543,-849 595,-849 595,-825 543,-825"/>
<text text-anchor="start" x="546" y="-833.2" font-family="Times,serif" font-size="16.00">▯▯▯▯▯</text>
<polygon fill="cornsilk" stroke="transparent" points="597,-825 597,-849 1058,-849 1058,-825 597,-825"/>
<polygon fill="none" stroke="black" points="597,-825 597,-849 1058,-849 1058,-825 597,-825"/>
<text text-anchor="start" x="657.5" y="-833.2" font-family="Times,serif" font-size="16.00">Shared crate for representing Rust types</text>
<polygon fill="cornsilk" stroke="transparent" points="543,-799 543,-823 595,-823 595,-799 543,-799"/>
<polygon fill="none" stroke="black" points="543,-799 543,-823 595,-823 595,-799 543,-799"/>
<text text-anchor="start" x="546" y="-807.2" font-family="Times,serif" font-size="16.00">▯▯▯▯▯</text>
<polygon fill="cornsilk" stroke="transparent" points="597,-799 597,-823 1058,-823 1058,-799 597,-799"/>
<polygon fill="none" stroke="black" points="597,-799 597,-823 1058,-823 1058,-799 597,-799"/>
<text text-anchor="start" x="600" y="-807.2" font-family="Times,serif" font-size="16.00">Access to Rust type information and type check results</text>
<polygon fill="cornsilk" stroke="transparent" points="543,-773 543,-797 595,-797 595,-773 543,-773"/>
<polygon fill="none" stroke="black" points="543,-773 543,-797 595,-797 595,-773 543,-773"/>
<text text-anchor="start" x="546" y="-781.2" font-family="Times,serif" font-size="16.00">▯▯▯▯▯</text>
<polygon fill="cornsilk" stroke="transparent" points="597,-773 597,-797 1058,-797 1058,-773 597,-773"/>
<polygon fill="none" stroke="black" points="597,-773 597,-797 1058,-797 1058,-773 597,-773"/>
<text text-anchor="start" x="710.5" y="-781.2" font-family="Times,serif" font-size="16.00">Ability to ask &#39;hypotheticals&#39;</text>
<polygon fill="cornsilk" stroke="transparent" points="543,-747 543,-771 595,-771 595,-747 543,-747"/>
<polygon fill="none" stroke="black" points="543,-747 543,-771 595,-771 595,-747 543,-747"/>
<text text-anchor="start" x="546" y="-755.2" font-family="Times,serif" font-size="16.00">▯▯▯▯▯</text>
<polygon fill="cornsilk" stroke="transparent" points="597,-747 597,-771 1058,-771 1058,-747 597,-747"/>
<polygon fill="none" stroke="black" points="597,-747 597,-771 1058,-771 1058,-747 597,-747"/>
<text text-anchor="start" x="669" y="-755.2" font-family="Times,serif" font-size="16.00">Access to the MIR for a given function</text>
<polygon fill="none" stroke="black" points="539.5,-744 539.5,-904 1060.5,-904 1060.5,-744 539.5,-744"/>
</g>
<!-- fundamentals&#45;&gt;semi&#45;stable&#45;apis -->
<g id="edge5" class="edge">
<title>fundamentals&#45;&gt;semi&#45;stable&#45;apis</title>
<path fill="none" stroke="black" d="M995.03,-1291.9C989.15,-1279.84 983.38,-1267.71 978,-1256 924.33,-1139.04 868.68,-1001.15 834.2,-913.42"/>
<polygon fill="black" stroke="black" points="837.43,-912.07 830.52,-904.04 830.91,-914.63 837.43,-912.07"/>
</g>
<!-- core&#45;lang -->
<g id="node9" class="node">
<title>core&#45;lang</title>
<polygon fill="darkgoldenrod" stroke="transparent" points="990,-1229 990,-1253 1528,-1253 1528,-1229 990,-1229"/>
<polygon fill="none" stroke="black" points="990,-1229 990,-1253 1528,-1253 1528,-1229 990,-1229"/>
<text text-anchor="start" x="1137" y="-1237.2" font-family="Times,serif" font-size="16.00">Core language improvements</text>
<polygon fill="#ffb90f" stroke="transparent" points="990,-1203 990,-1227 1528,-1227 1528,-1203 990,-1203"/>
<polygon fill="none" stroke="black" points="990,-1203 990,-1227 1528,-1227 1528,-1203 990,-1203"/>
<text text-anchor="start" x="1023.5" y="-1211.2" font-family="Times,serif" font-size="16.00">Rust language scales smoothly without &#39;complexity cliffs&#39;</text>
<polygon fill="cornsilk" stroke="transparent" points="990,-1177 990,-1201 1042,-1201 1042,-1177 990,-1177"/>
<polygon fill="none" stroke="black" points="990,-1177 990,-1201 1042,-1201 1042,-1177 990,-1177"/>
<text text-anchor="start" x="993" y="-1185.2" font-family="Times,serif" font-size="16.00">▮▮▯▯▯</text>
<polygon fill="cornsilk" stroke="transparent" points="1044,-1177 1044,-1201 1528,-1201 1528,-1177 1044,-1177"/>
<polygon fill="none" stroke="black" points="1044,-1177 1044,-1201 1528,-1201 1528,-1177 1044,-1177"/>
<text text-anchor="start" x="1047" y="-1185.2" font-family="Times,serif" font-size="16.00">Dynamic dispatch (dyn trait) more powerful, easier to use</text>
<polygon fill="cornsilk" stroke="transparent" points="990,-1151 990,-1175 1042,-1175 1042,-1151 990,-1151"/>
<polygon fill="none" stroke="black" points="990,-1151 990,-1175 1042,-1175 1042,-1151 990,-1151"/>
<text text-anchor="start" x="993" y="-1159.2" font-family="Times,serif" font-size="16.00">▮▮▯▯▯</text>
<polygon fill="cornsilk" stroke="transparent" points="1044,-1151 1044,-1175 1528,-1175 1528,-1151 1044,-1151"/>
<polygon fill="none" stroke="black" points="1044,-1151 1044,-1175 1528,-1175 1528,-1151 1044,-1151"/>
<text text-anchor="start" x="1227.5" y="-1159.2" font-family="Times,serif" font-size="16.00">Specialization</text>
<polygon fill="cornsilk" stroke="transparent" points="990,-1125 990,-1149 1042,-1149 1042,-1125 990,-1125"/>
<polygon fill="none" stroke="black" points="990,-1125 990,-1149 1042,-1149 1042,-1125 990,-1125"/>
<text text-anchor="start" x="993" y="-1133.2" font-family="Times,serif" font-size="16.00">▮▮▯▯▯</text>
<polygon fill="cornsilk" stroke="transparent" points="1044,-1125 1044,-1149 1528,-1149 1528,-1125 1044,-1125"/>
<polygon fill="none" stroke="black" points="1044,-1125 1044,-1149 1528,-1149 1528,-1125 1044,-1125"/>
<text text-anchor="start" x="1222" y="-1133.2" font-family="Times,serif" font-size="16.00">Implied bounds</text>
<polygon fill="cornsilk" stroke="transparent" points="990,-1099 990,-1123 1042,-1123 1042,-1099 990,-1099"/>
<polygon fill="none" stroke="black" points="990,-1099 990,-1123 1042,-1123 1042,-1099 990,-1099"/>
<text text-anchor="start" x="993" y="-1107.2" font-family="Times,serif" font-size="16.00">▮▮▮▯▯</text>
<polygon fill="cornsilk" stroke="transparent" points="1044,-1099 1044,-1123 1528,-1123 1528,-1099 1044,-1099"/>
<polygon fill="none" stroke="black" points="1044,-1099 1044,-1123 1528,-1123 1528,-1099 1044,-1099"/>
<text text-anchor="start" x="1153.5" y="-1107.2" font-family="Times,serif" font-size="16.00">Generic associated types (GATs)</text>
<polygon fill="cornsilk" stroke="transparent" points="990,-1073 990,-1097 1042,-1097 1042,-1073 990,-1073"/>
<polygon fill="none" stroke="black" points="990,-1073 990,-1097 1042,-1097 1042,-1073 990,-1073"/>
<text text-anchor="start" x="993" y="-1081.2" font-family="Times,serif" font-size="16.00">▮▮▮▮▯</text>
<polygon fill="cornsilk" stroke="transparent" points="1044,-1073 1044,-1097 1528,-1097 1528,-1073 1044,-1073"/>
<polygon fill="none" stroke="black" points="1044,-1073 1044,-1097 1528,-1097 1528,-1073 1044,-1073"/>
<text text-anchor="start" x="1246.5" y="-1081.2" font-family="Times,serif" font-size="16.00">Impl trait</text>
<polygon fill="cornsilk" stroke="transparent" points="990,-1047 990,-1071 1042,-1071 1042,-1047 990,-1047"/>
<polygon fill="none" stroke="black" points="990,-1047 990,-1071 1042,-1071 1042,-1047 990,-1047"/>
<text text-anchor="start" x="993" y="-1055.2" font-family="Times,serif" font-size="16.00">▮▯▯▯▯</text>
<polygon fill="cornsilk" stroke="transparent" points="1044,-1047 1044,-1071 1528,-1071 1528,-1047 1044,-1047"/>
<polygon fill="none" stroke="black" points="1044,-1047 1044,-1071 1528,-1071 1528,-1047 1044,-1047"/>
<text text-anchor="start" x="1156" y="-1055.2" font-family="Times,serif" font-size="16.00">Threaded contexts, capabilities</text>
<polygon fill="cornsilk" stroke="transparent" points="990,-1021 990,-1045 1042,-1045 1042,-1021 990,-1021"/>
<polygon fill="none" stroke="black" points="990,-1021 990,-1045 1042,-1045 1042,-1021 990,-1021"/>
<text text-anchor="start" x="993" y="-1029.2" font-family="Times,serif" font-size="16.00">▮▯▯▯▯</text>
<polygon fill="cornsilk" stroke="transparent" points="1044,-1021 1044,-1045 1528,-1045 1528,-1021 1044,-1021"/>
<polygon fill="none" stroke="black" points="1044,-1021 1044,-1045 1528,-1045 1528,-1021 1044,-1021"/>
<text text-anchor="start" x="1239.5" y="-1029.2" font-family="Times,serif" font-size="16.00">Generators</text>
<polygon fill="cornsilk" stroke="transparent" points="990,-995 990,-1019 1042,-1019 1042,-995 990,-995"/>
<polygon fill="none" stroke="black" points="990,-995 990,-1019 1042,-1019 1042,-995 990,-995"/>
<text text-anchor="start" x="993" y="-1003.2" font-family="Times,serif" font-size="16.00">▮▯▯▯▯</text>
<g id="a_node9_0"><a xlink:href="https://github.com/rust-lang/polonius/" xlink:title="&lt;TABLE&gt;">
<polygon fill="cornsilk" stroke="transparent" points="1044,-995 1044,-1019 1528,-1019 1528,-995 1044,-995"/>
<polygon fill="none" stroke="black" points="1044,-995 1044,-1019 1528,-1019 1528,-995 1044,-995"/>
<text text-anchor="start" x="1179.5" y="-1004.2" font-family="Times,serif" text-decoration="underline" font-size="16.00">Improved borrow checker</text>
</a>
</g>
<polygon fill="cornsilk" stroke="transparent" points="990,-969 990,-993 1042,-993 1042,-969 990,-969"/>
<polygon fill="none" stroke="black" points="990,-969 990,-993 1042,-993 1042,-969 990,-969"/>
<text text-anchor="start" x="993" y="-977.2" font-family="Times,serif" font-size="16.00">▮▯▯▯▯</text>
<g id="a_node9_1"><a xlink:href="https://smallcultfollowing.com/babysteps//blog/2021/11/05/view-types/" xlink:title="&lt;TABLE&gt;">
<polygon fill="cornsilk" stroke="transparent" points="1044,-969 1044,-993 1528,-993 1528,-969 1044,-969"/>
<polygon fill="none" stroke="black" points="1044,-969 1044,-993 1528,-993 1528,-969 1044,-969"/>
<text text-anchor="start" x="1241" y="-978.2" font-family="Times,serif" text-decoration="underline" font-size="16.00">View types</text>
</a>
</g>
<polygon fill="none" stroke="black" points="987,-966 987,-1256 1531,-1256 1531,-966 987,-966"/>
</g>
<!-- fundamentals&#45;&gt;core&#45;lang -->
<g id="edge11" class="edge">
<title>fundamentals&#45;&gt;core&#45;lang</title>
<path fill="none" stroke="black" d="M1136.52,-1291.79C1142.62,-1282.84 1148.83,-1273.72 1155.05,-1264.59"/>
<polygon fill="black" stroke="black" points="1158.03,-1266.44 1160.77,-1256.21 1152.24,-1262.5 1158.03,-1266.44"/>
</g>
<!-- semi&#45;stable&#45;apis&#45;&gt;dev&#45;tooling -->
<g id="edge4" class="edge">
<title>semi&#45;stable&#45;apis&#45;&gt;dev&#45;tooling</title>
<path fill="none" stroke="black" d="M640.85,-743.88C596.29,-721.73 547.05,-697.25 499.61,-673.67"/>
<polygon fill="black" stroke="black" points="500.97,-670.44 490.46,-669.12 497.86,-676.71 500.97,-670.44"/>
</g>
<!-- extensible -->
<g id="node10" class="node">
<title>extensible</title>
<polygon fill="darkgoldenrod" stroke="transparent" points="566,-616 566,-640 1086,-640 1086,-616 566,-616"/>
<polygon fill="none" stroke="black" points="566,-616 566,-640 1086,-640 1086,-616 566,-616"/>
<text text-anchor="start" x="761" y="-624.2" font-family="Times,serif" font-size="16.00">Extensible Rust</text>
<polygon fill="#ffb90f" stroke="transparent" points="566,-590 566,-614 1086,-614 1086,-590 566,-590"/>
<polygon fill="none" stroke="black" points="566,-590 566,-614 1086,-614 1086,-590 566,-590"/>
<text text-anchor="start" x="582" y="-598.2" font-family="Times,serif" font-size="16.00">Rust libraries can take control of the developer experience</text>
<polygon fill="cornsilk" stroke="transparent" points="566,-564 566,-588 618,-588 618,-564 566,-564"/>
<polygon fill="none" stroke="black" points="566,-564 566,-588 618,-588 618,-564 566,-564"/>
<text text-anchor="start" x="569" y="-572.2" font-family="Times,serif" font-size="16.00">▮▮▯▯▯</text>
<polygon fill="cornsilk" stroke="transparent" points="620,-564 620,-588 1086,-588 1086,-564 620,-564"/>
<polygon fill="none" stroke="black" points="620,-564 620,-588 1086,-588 1086,-564 620,-564"/>
<text text-anchor="start" x="791" y="-572.2" font-family="Times,serif" font-size="16.00">Macro hygiene</text>
<polygon fill="cornsilk" stroke="transparent" points="566,-538 566,-562 618,-562 618,-538 566,-538"/>
<polygon fill="none" stroke="black" points="566,-538 566,-562 618,-562 618,-538 566,-538"/>
<text text-anchor="start" x="569" y="-546.2" font-family="Times,serif" font-size="16.00">▯▯▯▯▯</text>
<polygon fill="cornsilk" stroke="transparent" points="620,-538 620,-562 1086,-562 1086,-538 620,-538"/>
<polygon fill="none" stroke="black" points="620,-538 620,-562 1086,-562 1086,-538 620,-538"/>
<text text-anchor="start" x="702.5" y="-546.2" font-family="Times,serif" font-size="16.00">Libraries supply custom lints, errors</text>
<polygon fill="cornsilk" stroke="transparent" points="566,-512 566,-536 618,-536 618,-512 566,-512"/>
<polygon fill="none" stroke="black" points="566,-512 566,-536 618,-536 618,-512 566,-512"/>
<text text-anchor="start" x="569" y="-520.2" font-family="Times,serif" font-size="16.00">▮▯▯▯▯</text>
<polygon fill="cornsilk" stroke="transparent" points="620,-512 620,-536 1086,-536 1086,-512 620,-512"/>
<polygon fill="none" stroke="black" points="620,-512 620,-536 1086,-536 1086,-512 620,-512"/>
<text text-anchor="start" x="623" y="-520.2" font-family="Times,serif" font-size="16.00">Libraries offering custom IDE integration (refactorings)</text>
<polygon fill="cornsilk" stroke="transparent" points="566,-486 566,-510 618,-510 618,-486 566,-486"/>
<polygon fill="none" stroke="black" points="566,-486 566,-510 618,-510 618,-486 566,-486"/>
<text text-anchor="start" x="569" y="-494.2" font-family="Times,serif" font-size="16.00">▮▯▯▯▯</text>
<polygon fill="cornsilk" stroke="transparent" points="620,-486 620,-510 1086,-510 1086,-486 620,-486"/>
<polygon fill="none" stroke="black" points="620,-486 620,-510 1086,-510 1086,-486 620,-486"/>
<text text-anchor="start" x="665" y="-494.2" font-family="Times,serif" font-size="16.00">Macros, lints have access to type information</text>
<polygon fill="none" stroke="black" points="563,-483 563,-643 1089,-643 1089,-483 563,-483"/>
</g>
<!-- semi&#45;stable&#45;apis&#45;&gt;extensible -->
<g id="edge12" class="edge">
<title>semi&#45;stable&#45;apis&#45;&gt;extensible</title>
<path fill="none" stroke="black" d="M807.94,-743.88C810.81,-715.27 814.08,-682.78 817.03,-653.35"/>
<polygon fill="black" stroke="black" points="820.55,-653.38 818.06,-643.08 813.58,-652.68 820.55,-653.38"/>
</g>
<!-- onboarding&#45;time&#45;&gt;goal&#45;internet&#45;services -->
<g id="edge1" class="edge">
<title>onboarding&#45;time&#45;&gt;goal&#45;internet&#45;services</title>
<path fill="none" stroke="black" d="M692.41,-195.83C680.45,-186.05 668.42,-176.21 656.71,-166.64"/>
<polygon fill="black" stroke="black" points="658.62,-163.68 648.66,-160.05 654.19,-169.09 658.62,-163.68"/>
</g>
<!-- async&#45;lang -->
<g id="node7" class="node">
<title>async&#45;lang</title>
<polygon fill="darkgoldenrod" stroke="transparent" points="1082,-903 1082,-927 1542,-927 1542,-903 1082,-903"/>
<polygon fill="none" stroke="black" points="1082,-903 1082,-927 1542,-927 1542,-903 1082,-903"/>
<text text-anchor="start" x="1211.5" y="-911.2" font-family="Times,serif" font-size="16.00">Async I/O Fundamentals</text>
<polygon fill="#ffb90f" stroke="transparent" points="1082,-877 1082,-901 1542,-901 1542,-877 1082,-877"/>
<polygon fill="none" stroke="black" points="1082,-877 1082,-901 1542,-901 1542,-877 1082,-877"/>
<text text-anchor="start" x="1089.5" y="-885.2" font-family="Times,serif" font-size="16.00">Using Async I/O comparable in complexity to Sync I/O</text>
<polygon fill="#ffb90f" stroke="transparent" points="1082,-851 1082,-875 1542,-875 1542,-851 1082,-851"/>
<polygon fill="none" stroke="black" points="1082,-851 1082,-875 1542,-875 1542,-851 1082,-851"/>
<text text-anchor="start" x="1086" y="-859.2" font-family="Times,serif" font-size="16.00">Access to a wide variety of useful libraries on crates.io</text>
<polygon fill="#ffb90f" stroke="transparent" points="1082,-825 1082,-849 1542,-849 1542,-825 1082,-825"/>
<polygon fill="none" stroke="black" points="1082,-825 1082,-849 1542,-849 1542,-825 1082,-825"/>
<text text-anchor="start" x="1126" y="-833.2" font-family="Times,serif" font-size="16.00">Easy access to high performance networking</text>
<polygon fill="cornsilk" stroke="transparent" points="1082,-799 1082,-823 1135,-823 1135,-799 1082,-799"/>
<polygon fill="none" stroke="black" points="1082,-799 1082,-823 1135,-823 1135,-799 1082,-799"/>
<text text-anchor="start" x="1085.5" y="-807.2" font-family="Times,serif" font-size="16.00">▮▮▮▯▯</text>
<polygon fill="cornsilk" stroke="transparent" points="1137,-799 1137,-823 1542,-823 1542,-799 1137,-799"/>
<polygon fill="none" stroke="black" points="1137,-799 1137,-823 1542,-823 1542,-799 1137,-799"/>
<text text-anchor="start" x="1219" y="-807.2" font-family="Times,serif" font-size="16.00">Can use async fn everywhere</text>
<polygon fill="cornsilk" stroke="transparent" points="1082,-773 1082,-797 1135,-797 1135,-773 1082,-773"/>
<polygon fill="none" stroke="black" points="1082,-773 1082,-797 1135,-797 1135,-773 1082,-773"/>
<text text-anchor="start" x="1085.5" y="-781.2" font-family="Times,serif" font-size="16.00">▮▮▯▯▯</text>
<polygon fill="cornsilk" stroke="transparent" points="1137,-773 1137,-797 1542,-797 1542,-773 1137,-773"/>
<polygon fill="none" stroke="black" points="1137,-773 1137,-797 1542,-797 1542,-773 1137,-773"/>
<text text-anchor="start" x="1141" y="-781.2" font-family="Times,serif" font-size="16.00">Async resource cleanup works well (async drop)</text>
<polygon fill="cornsilk" stroke="transparent" points="1082,-747 1082,-771 1135,-771 1135,-747 1082,-747"/>
<polygon fill="none" stroke="black" points="1082,-747 1082,-771 1135,-771 1135,-747 1082,-747"/>
<text text-anchor="start" x="1085.5" y="-755.2" font-family="Times,serif" font-size="16.00">▮▯▯▯▯</text>
<polygon fill="cornsilk" stroke="transparent" points="1137,-747 1137,-771 1542,-771 1542,-747 1137,-747"/>
<polygon fill="none" stroke="black" points="1137,-747 1137,-771 1542,-771 1542,-747 1137,-747"/>
<text text-anchor="start" x="1175.5" y="-755.2" font-family="Times,serif" font-size="16.00">Easy interoperability between runtimes</text>
<polygon fill="cornsilk" stroke="transparent" points="1082,-721 1082,-745 1135,-745 1135,-721 1082,-721"/>
<polygon fill="none" stroke="black" points="1082,-721 1082,-745 1135,-745 1135,-721 1082,-721"/>
<text text-anchor="start" x="1085.5" y="-729.2" font-family="Times,serif" font-size="16.00">▮▯▯▯▯</text>
<polygon fill="cornsilk" stroke="transparent" points="1137,-721 1137,-745 1542,-745 1542,-721 1137,-721"/>
<polygon fill="none" stroke="black" points="1137,-721 1137,-745 1542,-745 1542,-721 1137,-721"/>
<text text-anchor="start" x="1267.5" y="-729.2" font-family="Times,serif" font-size="16.00">Async generators</text>
<polygon fill="none" stroke="black" points="1079,-718 1079,-930 1545,-930 1545,-718 1079,-718"/>
</g>
<!-- async&#45;stack -->
<g id="node8" class="node">
<title>async&#45;stack</title>
<polygon fill="darkgoldenrod" stroke="transparent" points="1110,-655 1110,-679 1514,-679 1514,-655 1110,-655"/>
<polygon fill="none" stroke="black" points="1110,-655 1110,-679 1514,-679 1514,-655 1110,-655"/>
<text text-anchor="start" x="1263.5" y="-663.2" font-family="Times,serif" font-size="16.00">Async stack</text>
<polygon fill="#ffb90f" stroke="transparent" points="1110,-629 1110,-653 1514,-653 1514,-629 1110,-629"/>
<polygon fill="none" stroke="black" points="1110,-629 1110,-653 1514,-653 1514,-629 1110,-629"/>
<text text-anchor="start" x="1137.5" y="-637.2" font-family="Times,serif" font-size="16.00">Can quickly stand up an async application</text>
<polygon fill="#ffb90f" stroke="transparent" points="1110,-603 1110,-627 1514,-627 1514,-603 1110,-603"/>
<polygon fill="none" stroke="black" points="1110,-603 1110,-627 1514,-627 1514,-603 1110,-603"/>
<text text-anchor="start" x="1158.5" y="-611.2" font-family="Times,serif" font-size="16.00">Devs able to focus on &#39;business logic&#39;</text>
<polygon fill="cornsilk" stroke="transparent" points="1110,-577 1110,-601 1162,-601 1162,-577 1110,-577"/>
<polygon fill="none" stroke="black" points="1110,-577 1110,-601 1162,-601 1162,-577 1110,-577"/>
<text text-anchor="start" x="1113" y="-585.2" font-family="Times,serif" font-size="16.00">▮▮▮▯▯</text>
<polygon fill="cornsilk" stroke="transparent" points="1164,-577 1164,-601 1514,-601 1514,-577 1164,-577"/>
<polygon fill="none" stroke="black" points="1164,-577 1164,-601 1514,-601 1514,-577 1164,-577"/>
<text text-anchor="start" x="1218" y="-585.2" font-family="Times,serif" font-size="16.00">High&#45;performance runtime(s)</text>
<polygon fill="cornsilk" stroke="transparent" points="1110,-551 1110,-575 1162,-575 1162,-551 1110,-551"/>
<polygon fill="none" stroke="black" points="1110,-551 1110,-575 1162,-575 1162,-551 1110,-551"/>
<text text-anchor="start" x="1113" y="-559.2" font-family="Times,serif" font-size="16.00">▮▮▮▯▯</text>
<polygon fill="cornsilk" stroke="transparent" points="1164,-551 1164,-575 1514,-575 1514,-551 1164,-551"/>
<polygon fill="none" stroke="black" points="1164,-551 1164,-575 1514,-575 1514,-551 1164,-551"/>
<text text-anchor="start" x="1305" y="-559.2" font-family="Times,serif" font-size="16.00">Logging</text>
<polygon fill="cornsilk" stroke="transparent" points="1110,-525 1110,-549 1162,-549 1162,-525 1110,-525"/>
<polygon fill="none" stroke="black" points="1110,-525 1110,-549 1162,-549 1162,-525 1110,-525"/>
<text text-anchor="start" x="1113" y="-533.2" font-family="Times,serif" font-size="16.00">▮▯▯▯▯</text>
<polygon fill="cornsilk" stroke="transparent" points="1164,-525 1164,-549 1514,-549 1514,-525 1164,-525"/>
<polygon fill="none" stroke="black" points="1164,-525 1164,-549 1514,-549 1514,-525 1164,-525"/>
<text text-anchor="start" x="1308.5" y="-533.2" font-family="Times,serif" font-size="16.00">Testing</text>
<polygon fill="cornsilk" stroke="transparent" points="1110,-499 1110,-523 1162,-523 1162,-499 1110,-499"/>
<polygon fill="none" stroke="black" points="1110,-499 1110,-523 1162,-523 1162,-499 1110,-499"/>
<text text-anchor="start" x="1113" y="-507.2" font-family="Times,serif" font-size="16.00">▮▮▯▯▯</text>
<polygon fill="cornsilk" stroke="transparent" points="1164,-499 1164,-523 1514,-523 1514,-499 1164,-499"/>
<polygon fill="none" stroke="black" points="1164,-499 1164,-523 1514,-523 1514,-499 1164,-499"/>
<text text-anchor="start" x="1246" y="-507.2" font-family="Times,serif" font-size="16.00">Persistence / database</text>
<polygon fill="cornsilk" stroke="transparent" points="1110,-473 1110,-497 1162,-497 1162,-473 1110,-473"/>
<polygon fill="none" stroke="black" points="1110,-473 1110,-497 1162,-497 1162,-473 1110,-473"/>
<text text-anchor="start" x="1113" y="-481.2" font-family="Times,serif" font-size="16.00">▮▮▯▯▯</text>
<polygon fill="cornsilk" stroke="transparent" points="1164,-473 1164,-497 1514,-497 1514,-473 1164,-473"/>
<polygon fill="none" stroke="black" points="1164,-473 1164,-497 1514,-497 1514,-473 1164,-473"/>
<text text-anchor="start" x="1289.5" y="-481.2" font-family="Times,serif" font-size="16.00">Middleware</text>
<polygon fill="cornsilk" stroke="transparent" points="1110,-447 1110,-471 1162,-471 1162,-447 1110,-447"/>
<polygon fill="none" stroke="black" points="1110,-447 1110,-471 1162,-471 1162,-447 1110,-447"/>
<text text-anchor="start" x="1113" y="-455.2" font-family="Times,serif" font-size="16.00">▮▮▮▯▯</text>
<polygon fill="cornsilk" stroke="transparent" points="1164,-447 1164,-471 1514,-471 1514,-447 1164,-447"/>
<polygon fill="none" stroke="black" points="1164,-447 1164,-471 1514,-471 1514,-447 1164,-447"/>
<text text-anchor="start" x="1167" y="-455.2" font-family="Times,serif" font-size="16.00">I/O uring support in tokio, other runtimes</text>
<polygon fill="none" stroke="black" points="1107,-444 1107,-682 1517,-682 1517,-444 1107,-444"/>
</g>
<!-- async&#45;lang&#45;&gt;async&#45;stack -->
<g id="edge10" class="edge">
<title>async&#45;lang&#45;&gt;async&#45;stack</title>
<path fill="none" stroke="black" d="M1312,-717.65C1312,-709.39 1312,-700.99 1312,-692.6"/>
<polygon fill="black" stroke="black" points="1315.5,-692.37 1312,-682.37 1308.5,-692.37 1315.5,-692.37"/>
</g>
<!-- async&#45;stack&#45;&gt;onboarding&#45;time -->
<g id="edge7" class="edge">
<title>async&#45;stack&#45;&gt;onboarding&#45;time</title>
<path fill="none" stroke="black" d="M1106.77,-448.66C1103.83,-447.09 1100.91,-445.54 1098,-444 1078.69,-433.76 1058.55,-423.24 1038.34,-412.77"/>
<polygon fill="black" stroke="black" points="1039.85,-409.61 1029.36,-408.12 1036.63,-415.83 1039.85,-409.61"/>
</g>
<!-- core&#45;lang&#45;&gt;async&#45;lang -->
<g id="edge9" class="edge">
<title>core&#45;lang&#45;&gt;async&#45;lang</title>
<path fill="none" stroke="black" d="M1285.81,-965.83C1287.42,-957.2 1289.02,-948.57 1290.6,-940.08"/>
<polygon fill="black" stroke="black" points="1294.05,-940.66 1292.44,-930.18 1287.17,-939.38 1294.05,-940.66"/>
</g>
<!-- extensible&#45;&gt;onboarding&#45;time -->
<g id="edge8" class="edge">
<title>extensible&#45;&gt;onboarding&#45;time</title>
<path fill="none" stroke="black" d="M824.47,-482.88C824.08,-462.59 823.65,-440.35 823.23,-418.63"/>
<polygon fill="black" stroke="black" points="826.73,-418.29 823.03,-408.36 819.73,-418.42 826.73,-418.29"/>
</g>
</g>
</svg>
