<?xml version="1.0" encoding="UTF-8" standalone="no"?>
<!DOCTYPE svg PUBLIC "-//W3C//DTD SVG 1.1//EN"
 "http://www.w3.org/Graphics/SVG/1.1/DTD/svg11.dtd">
<!-- Generated by graphviz version 2.50.0 (20211204.2007)
 -->
<!-- Title: g Pages: 1 -->
<svg width="1176pt" height="1056pt"
 viewBox="0.00 0.00 1175.50 1056.00" xmlns="http://www.w3.org/2000/svg" xmlns:xlink="http://www.w3.org/1999/xlink">
<g id="graph0" class="graph" transform="scale(1 1) rotate(0) translate(4 1052)">
<title>g</title>
<polygon fill="white" stroke="transparent" points="-4,4 -4,-1052 1171.5,-1052 1171.5,4 -4,4"/>
<!-- goal&#45;high&#45;assurance -->
<g id="node1" class="node">
<title>goal&#45;high&#45;assurance</title>
<polygon fill="darkgoldenrod" stroke="transparent" points="553.5,-1021 553.5,-1045 999.5,-1045 999.5,-1021 553.5,-1021"/>
<polygon fill="none" stroke="black" points="553.5,-1021 553.5,-1045 999.5,-1045 999.5,-1021 553.5,-1021"/>
<text text-anchor="start" x="602" y="-1029.2" font-family="Times,serif" font-size="16.00">🎯 Rust has strong support for formal methods tooling</text>
<polygon fill="#ffb90f" stroke="transparent" points="553.5,-995 553.5,-1019 999.5,-1019 999.5,-995 553.5,-995"/>
<polygon fill="none" stroke="black" points="553.5,-995 553.5,-1019 999.5,-1019 999.5,-995 553.5,-995"/>
<text text-anchor="start" x="573" y="-1003.2" font-family="Times,serif" font-size="16.00">Able to detect many more bugs during development (&#39;shift left&#39;)</text>
<polygon fill="#ffb90f" stroke="transparent" points="553.5,-969 553.5,-993 999.5,-993 999.5,-969 553.5,-969"/>
<polygon fill="none" stroke="black" points="553.5,-969 553.5,-993 999.5,-993 999.5,-969 553.5,-969"/>
<text text-anchor="start" x="557.5" y="-977.2" font-family="Times,serif" font-size="16.00">Able to evolve services while retaining strong correctness guarantees</text>
<polygon fill="none" stroke="black" points="550.5,-966 550.5,-1048 1002.5,-1048 1002.5,-966 550.5,-966"/>
</g>
<!-- safe&#45;rust -->
<g id="node2" class="node">
<title>safe&#45;rust</title>
<polygon fill="darkgoldenrod" stroke="transparent" points="414.5,-903 414.5,-927 877.5,-927 877.5,-903 414.5,-903"/>
<polygon fill="none" stroke="black" points="414.5,-903 414.5,-927 877.5,-927 877.5,-903 414.5,-903"/>
<text text-anchor="start" x="588.5" y="-911.2" font-family="Times,serif" font-size="16.00">Safe Rust security</text>
<polygon fill="#ffb90f" stroke="transparent" points="414.5,-877 414.5,-901 877.5,-901 877.5,-877 414.5,-877"/>
<polygon fill="none" stroke="black" points="414.5,-877 414.5,-901 877.5,-901 877.5,-877 414.5,-877"/>
<text text-anchor="start" x="479" y="-885.2" font-family="Times,serif" font-size="16.00">MIR has a formal model that has been proven sound</text>
<polygon fill="#ffb90f" stroke="transparent" points="414.5,-851 414.5,-875 877.5,-875 877.5,-851 414.5,-851"/>
<polygon fill="none" stroke="black" points="414.5,-851 414.5,-875 877.5,-875 877.5,-851 414.5,-851"/>
<text text-anchor="start" x="418.5" y="-859.2" font-family="Times,serif" font-size="16.00">We have high confidence that Rust&#39;s MIR toolchain matches this model</text>
<polygon fill="cornsilk" stroke="transparent" points="414.5,-825 414.5,-849 493.5,-849 493.5,-825 414.5,-825"/>
<polygon fill="none" stroke="black" points="414.5,-825 414.5,-849 493.5,-849 493.5,-825 414.5,-825"/>
<text text-anchor="start" x="429.5" y="-833.2" font-family="Times,serif" font-size="16.00">▯▯▯▯▯</text>
<polygon fill="cornsilk" stroke="transparent" points="495.5,-825 495.5,-849 877.5,-849 877.5,-825 495.5,-825"/>
<polygon fill="none" stroke="black" points="495.5,-825 495.5,-849 877.5,-849 877.5,-825 495.5,-825"/>
<text text-anchor="start" x="578.5" y="-833.2" font-family="Times,serif" font-size="16.00">Soundness conformance test suite</text>
<polygon fill="cornsilk" stroke="transparent" points="414.5,-799 414.5,-823 493.5,-823 493.5,-799 414.5,-799"/>
<polygon fill="none" stroke="black" points="414.5,-799 414.5,-823 493.5,-823 493.5,-799 414.5,-799"/>
<text text-anchor="start" x="429.5" y="-807.2" font-family="Times,serif" font-size="16.00">▯▯▯▯▯</text>
<polygon fill="cornsilk" stroke="transparent" points="495.5,-799 495.5,-823 877.5,-823 877.5,-799 495.5,-799"/>
<polygon fill="none" stroke="black" points="495.5,-799 495.5,-823 877.5,-823 877.5,-799 495.5,-799"/>
<text text-anchor="start" x="614" y="-807.2" font-family="Times,serif" font-size="16.00">Develop formal model</text>
<polygon fill="cornsilk" stroke="transparent" points="414.5,-773 414.5,-797 493.5,-797 493.5,-773 414.5,-773"/>
<polygon fill="none" stroke="black" points="414.5,-773 414.5,-797 493.5,-797 493.5,-773 414.5,-773"/>
<text text-anchor="start" x="429.5" y="-781.2" font-family="Times,serif" font-size="16.00">▯▯▯▯▯</text>
<polygon fill="cornsilk" stroke="transparent" points="495.5,-773 495.5,-797 877.5,-797 877.5,-773 495.5,-773"/>
<polygon fill="none" stroke="black" points="495.5,-773 495.5,-797 877.5,-797 877.5,-773 495.5,-773"/>
<text text-anchor="start" x="510.5" y="-781.2" font-family="Times,serif" font-size="16.00">Rearchitect core parts of compiler for clarity, flexibility</text>
<polygon fill="cornsilk" stroke="transparent" points="414.5,-747 414.5,-771 493.5,-771 493.5,-747 414.5,-747"/>
<polygon fill="none" stroke="black" points="414.5,-747 414.5,-771 493.5,-771 493.5,-747 414.5,-747"/>
<text text-anchor="start" x="429.5" y="-755.2" font-family="Times,serif" font-size="16.00">▯▯▯▯▯</text>
<polygon fill="cornsilk" stroke="transparent" points="495.5,-747 495.5,-771 877.5,-771 877.5,-747 495.5,-747"/>
<polygon fill="none" stroke="black" points="495.5,-747 495.5,-771 877.5,-771 877.5,-747 495.5,-747"/>
<text text-anchor="start" x="588.5" y="-755.2" font-family="Times,serif" font-size="16.00">Fixing known soundness bugs</text>
<polygon fill="none" stroke="black" points="411,-744 411,-930 880,-930 880,-744 411,-744"/>
</g>
<!-- goal&#45;high&#45;assurance&#45;&gt;safe&#45;rust -->
<g id="edge1" class="edge">
<title>goal&#45;high&#45;assurance&#45;&gt;safe&#45;rust</title>
<path fill="none" stroke="black" d="M745.12,-965.76C738.5,-957.27 731.23,-947.94 723.73,-938.32"/>
<polygon fill="black" stroke="black" points="726.29,-935.92 717.38,-930.19 720.77,-940.22 726.29,-935.92"/>
</g>
<!-- formal&#45;methods&#45;tooling -->
<g id="node4" class="node">
<title>formal&#45;methods&#45;tooling</title>
<polygon fill="darkgoldenrod" stroke="transparent" points="652.5,-668 652.5,-692 1164.5,-692 1164.5,-668 652.5,-668"/>
<polygon fill="none" stroke="black" points="652.5,-668 652.5,-692 1164.5,-692 1164.5,-668 652.5,-668"/>
<text text-anchor="start" x="819.5" y="-676.2" font-family="Times,serif" font-size="16.00">Tooling for formal methods</text>
<polygon fill="#ffb90f" stroke="transparent" points="652.5,-642 652.5,-666 1164.5,-666 1164.5,-642 652.5,-642"/>
<polygon fill="none" stroke="black" points="652.5,-642 652.5,-666 1164.5,-666 1164.5,-642 652.5,-642"/>
<text text-anchor="start" x="656.5" y="-650.2" font-family="Times,serif" font-size="16.00">Developers extending Rust with unsafe Rust can prove these extensions correct</text>
<polygon fill="#ffb90f" stroke="transparent" points="652.5,-616 652.5,-640 1164.5,-640 1164.5,-616 652.5,-616"/>
<polygon fill="none" stroke="black" points="652.5,-616 652.5,-640 1164.5,-640 1164.5,-616 652.5,-616"/>
<text text-anchor="start" x="689.5" y="-624.2" font-family="Times,serif" font-size="16.00">Developers can prove their Rust code meets functional specifications</text>
<polygon fill="#ffb90f" stroke="transparent" points="652.5,-590 652.5,-614 1164.5,-614 1164.5,-590 652.5,-590"/>
<polygon fill="none" stroke="black" points="652.5,-590 652.5,-614 1164.5,-614 1164.5,-590 652.5,-590"/>
<text text-anchor="start" x="727" y="-598.2" font-family="Times,serif" font-size="16.00">Developers can prove their Rust code meets specification</text>
<polygon fill="cornsilk" stroke="transparent" points="652.5,-564 652.5,-588 792.5,-588 792.5,-564 652.5,-564"/>
<polygon fill="none" stroke="black" points="652.5,-564 652.5,-588 792.5,-588 792.5,-564 652.5,-564"/>
<text text-anchor="start" x="698" y="-572.2" font-family="Times,serif" font-size="16.00">▮▯▯▯▯</text>
<polygon fill="cornsilk" stroke="transparent" points="794.5,-564 794.5,-588 1164.5,-588 1164.5,-564 794.5,-564"/>
<polygon fill="none" stroke="black" points="794.5,-564 794.5,-588 1164.5,-588 1164.5,-564 794.5,-564"/>
<text text-anchor="start" x="840.5" y="-572.2" font-family="Times,serif" font-size="16.00">Sanitizer / dynamic checker for unsafe code</text>
<polygon fill="cornsilk" stroke="transparent" points="652.5,-538 652.5,-562 792.5,-562 792.5,-538 652.5,-538"/>
<polygon fill="none" stroke="black" points="652.5,-538 652.5,-562 792.5,-562 792.5,-538 652.5,-538"/>
<text text-anchor="start" x="698" y="-546.2" font-family="Times,serif" font-size="16.00">▮▯▯▯▯</text>
<polygon fill="cornsilk" stroke="transparent" points="794.5,-538 794.5,-562 1164.5,-562 1164.5,-538 794.5,-538"/>
<polygon fill="none" stroke="black" points="794.5,-538 794.5,-562 1164.5,-562 1164.5,-538 794.5,-538"/>
<text text-anchor="start" x="887.5" y="-546.2" font-family="Times,serif" font-size="16.00">Model checker for Rust code</text>
<polygon fill="cornsilk" stroke="transparent" points="652.5,-512 652.5,-536 792.5,-536 792.5,-512 652.5,-512"/>
<polygon fill="none" stroke="black" points="652.5,-512 652.5,-536 792.5,-536 792.5,-512 652.5,-512"/>
<text text-anchor="start" x="698" y="-520.2" font-family="Times,serif" font-size="16.00">▯▯▯▯▯</text>
<polygon fill="cornsilk" stroke="transparent" points="794.5,-512 794.5,-536 1164.5,-536 1164.5,-512 794.5,-512"/>
<polygon fill="none" stroke="black" points="794.5,-512 794.5,-536 1164.5,-536 1164.5,-512 794.5,-512"/>
<text text-anchor="start" x="866.5" y="-520.2" font-family="Times,serif" font-size="16.00">Rust standard library proven sound</text>
<polygon fill="cornsilk" stroke="transparent" points="652.5,-486 652.5,-510 792.5,-510 792.5,-486 652.5,-486"/>
<polygon fill="none" stroke="black" points="652.5,-486 652.5,-510 792.5,-510 792.5,-486 652.5,-486"/>
<text text-anchor="start" x="698" y="-494.2" font-family="Times,serif" font-size="16.00">▮▯▯▯▯</text>
<polygon fill="cornsilk" stroke="transparent" points="794.5,-486 794.5,-510 1164.5,-510 1164.5,-486 794.5,-486"/>
<polygon fill="none" stroke="black" points="794.5,-486 794.5,-510 1164.5,-510 1164.5,-486 794.5,-486"/>
<text text-anchor="start" x="884" y="-494.2" font-family="Times,serif" font-size="16.00">Packages on crates.io checked</text>
<polygon fill="none" stroke="black" points="649.5,-483 649.5,-695 1167.5,-695 1167.5,-483 649.5,-483"/>
</g>
<!-- goal&#45;high&#45;assurance&#45;&gt;formal&#45;methods&#45;tooling -->
<g id="edge2" class="edge">
<title>goal&#45;high&#45;assurance&#45;&gt;formal&#45;methods&#45;tooling</title>
<path fill="none" stroke="black" d="M855.94,-965.94C868.83,-955.94 880.55,-944 888.5,-930 926.85,-862.5 931.12,-774.81 926.19,-705.39"/>
<polygon fill="black" stroke="black" points="929.67,-704.98 925.4,-695.28 922.69,-705.53 929.67,-704.98"/>
</g>
<!-- unsafe&#45;rust -->
<g id="node3" class="node">
<title>unsafe&#45;rust</title>
<polygon fill="darkgoldenrod" stroke="transparent" points="3.5,-681 3.5,-705 628.5,-705 628.5,-681 3.5,-681"/>
<polygon fill="none" stroke="black" points="3.5,-681 3.5,-705 628.5,-705 628.5,-681 3.5,-681"/>
<text text-anchor="start" x="250" y="-689.2" font-family="Times,serif" font-size="16.00">Unsafe Rust security</text>
<polygon fill="#ffb90f" stroke="transparent" points="3.5,-655 3.5,-679 628.5,-679 628.5,-655 3.5,-655"/>
<polygon fill="none" stroke="black" points="3.5,-655 3.5,-679 628.5,-679 628.5,-655 3.5,-655"/>
<text text-anchor="start" x="7.5" y="-663.2" font-family="Times,serif" font-size="16.00">The soundness rules for unsafe code are understood and followed by authors of unsafe Rust code</text>
<polygon fill="#ffb90f" stroke="transparent" points="3.5,-629 3.5,-653 628.5,-653 628.5,-629 3.5,-629"/>
<polygon fill="none" stroke="black" points="3.5,-629 3.5,-653 628.5,-653 628.5,-629 3.5,-629"/>
<text text-anchor="start" x="51" y="-637.2" font-family="Times,serif" font-size="16.00">Tooling to dynamically test soundness of unsafe code is accessible and widely used</text>
<polygon fill="#ffb90f" stroke="transparent" points="3.5,-603 3.5,-627 628.5,-627 628.5,-603 3.5,-603"/>
<polygon fill="none" stroke="black" points="3.5,-603 3.5,-627 628.5,-627 628.5,-603 3.5,-603"/>
<text text-anchor="start" x="111.5" y="-611.2" font-family="Times,serif" font-size="16.00">Tooling to statically prove soundness of unsafe code is available</text>
<polygon fill="#ffb90f" stroke="transparent" points="3.5,-577 3.5,-601 628.5,-601 628.5,-577 3.5,-577"/>
<polygon fill="none" stroke="black" points="3.5,-577 3.5,-601 628.5,-601 628.5,-577 3.5,-577"/>
<text text-anchor="start" x="176" y="-585.2" font-family="Times,serif" font-size="16.00">Core Rust crates that have soundness proofs</text>
<polygon fill="cornsilk" stroke="transparent" points="3.5,-551 3.5,-575 200.5,-575 200.5,-551 3.5,-551"/>
<polygon fill="none" stroke="black" points="3.5,-551 3.5,-575 200.5,-575 200.5,-551 3.5,-551"/>
<text text-anchor="start" x="77.5" y="-559.2" font-family="Times,serif" font-size="16.00">▯▯▯▯▯</text>
<polygon fill="cornsilk" stroke="transparent" points="202.5,-551 202.5,-575 628.5,-575 628.5,-551 202.5,-551"/>
<polygon fill="none" stroke="black" points="202.5,-551 202.5,-575 628.5,-575 628.5,-551 202.5,-551"/>
<text text-anchor="start" x="341.5" y="-559.2" font-family="Times,serif" font-size="16.00">Unsafe code guidelines</text>
<polygon fill="cornsilk" stroke="transparent" points="3.5,-525 3.5,-549 200.5,-549 200.5,-525 3.5,-525"/>
<polygon fill="none" stroke="black" points="3.5,-525 3.5,-549 200.5,-549 200.5,-525 3.5,-525"/>
<text text-anchor="start" x="77.5" y="-533.2" font-family="Times,serif" font-size="16.00">▯▯▯▯▯</text>
<polygon fill="cornsilk" stroke="transparent" points="202.5,-525 202.5,-549 628.5,-549 628.5,-525 202.5,-525"/>
<polygon fill="none" stroke="black" points="202.5,-525 202.5,-549 628.5,-549 628.5,-525 202.5,-525"/>
<text text-anchor="start" x="277" y="-533.2" font-family="Times,serif" font-size="16.00">Sanitizers and other dynamic testers for UB</text>
<polygon fill="cornsilk" stroke="transparent" points="3.5,-499 3.5,-523 200.5,-523 200.5,-499 3.5,-499"/>
<polygon fill="none" stroke="black" points="3.5,-499 3.5,-523 200.5,-523 200.5,-499 3.5,-499"/>
<text text-anchor="start" x="77.5" y="-507.2" font-family="Times,serif" font-size="16.00">▯▯▯▯▯</text>
<polygon fill="cornsilk" stroke="transparent" points="202.5,-499 202.5,-523 628.5,-523 628.5,-499 202.5,-499"/>
<polygon fill="none" stroke="black" points="202.5,-499 202.5,-523 628.5,-523 628.5,-499 202.5,-499"/>
<text text-anchor="start" x="281" y="-507.2" font-family="Times,serif" font-size="16.00">Model checkers and Rust theorem provers</text>
<polygon fill="cornsilk" stroke="transparent" points="3.5,-473 3.5,-497 200.5,-497 200.5,-473 3.5,-473"/>
<polygon fill="none" stroke="black" points="3.5,-473 3.5,-497 200.5,-497 200.5,-473 3.5,-473"/>
<text text-anchor="start" x="77.5" y="-481.2" font-family="Times,serif" font-size="16.00">▯▯▯▯▯</text>
<polygon fill="cornsilk" stroke="transparent" points="202.5,-473 202.5,-497 628.5,-497 628.5,-473 202.5,-473"/>
<polygon fill="none" stroke="black" points="202.5,-473 202.5,-497 628.5,-497 628.5,-473 202.5,-473"/>
<text text-anchor="start" x="285.5" y="-481.2" font-family="Times,serif" font-size="16.00">Standard library specification and proofs</text>
<polygon fill="none" stroke="black" points="0,-470 0,-708 631,-708 631,-470 0,-470"/>
</g>
<!-- safe&#45;rust&#45;&gt;unsafe&#45;rust -->
<g id="edge3" class="edge">
<title>safe&#45;rust&#45;&gt;unsafe&#45;rust</title>
<path fill="none" stroke="black" d="M521.68,-743.7C508.73,-734.05 495.42,-724.12 482.1,-714.19"/>
<polygon fill="black" stroke="black" points="483.91,-711.18 473.8,-708.01 479.73,-716.79 483.91,-711.18"/>
</g>
<!-- safe&#45;rust&#45;&gt;formal&#45;methods&#45;tooling -->
<g id="edge4" class="edge">
<title>safe&#45;rust&#45;&gt;formal&#45;methods&#45;tooling</title>
<path fill="none" stroke="black" d="M744.18,-743.7C758.58,-730.23 773.54,-716.24 788.3,-702.43"/>
<polygon fill="black" stroke="black" points="791.09,-704.61 796,-695.22 786.31,-699.5 791.09,-704.61"/>
</g>
<!-- semi&#45;stable&#45;apis -->
<g id="node6" class="node">
<title>semi&#45;stable&#45;apis</title>
<polygon fill="darkgoldenrod" stroke="transparent" points="702.5,-407 702.5,-431 1114.5,-431 1114.5,-407 702.5,-407"/>
<polygon fill="none" stroke="black" points="702.5,-407 702.5,-431 1114.5,-431 1114.5,-407 702.5,-407"/>
<text text-anchor="start" x="853" y="-415.2" font-family="Times,serif" font-size="16.00">Semi&#45;stable APIs</text>
<polygon fill="#ffb90f" stroke="transparent" points="702.5,-381 702.5,-405 1114.5,-405 1114.5,-381 702.5,-381"/>
<polygon fill="none" stroke="black" points="702.5,-381 702.5,-405 1114.5,-405 1114.5,-381 702.5,-381"/>
<text text-anchor="start" x="741.5" y="-389.2" font-family="Times,serif" font-size="16.00">Compiler offers semi&#45;stable APIs that others can use</text>
<polygon fill="cornsilk" stroke="transparent" points="702.5,-355 702.5,-379 757.5,-379 757.5,-355 702.5,-355"/>
<polygon fill="none" stroke="black" points="702.5,-355 702.5,-379 757.5,-379 757.5,-355 702.5,-355"/>
<text text-anchor="start" x="705.5" y="-363.2" font-family="Times,serif" font-size="16.00">▯▯▯▯▯</text>
<polygon fill="cornsilk" stroke="transparent" points="759.5,-355 759.5,-379 1114.5,-379 1114.5,-355 759.5,-355"/>
<polygon fill="none" stroke="black" points="759.5,-355 759.5,-379 1114.5,-379 1114.5,-355 759.5,-355"/>
<text text-anchor="start" x="810" y="-363.2" font-family="Times,serif" font-size="16.00">Shared crate for representing Rust types</text>
<polygon fill="cornsilk" stroke="transparent" points="702.5,-329 702.5,-353 757.5,-353 757.5,-329 702.5,-329"/>
<polygon fill="none" stroke="black" points="702.5,-329 702.5,-353 757.5,-353 757.5,-329 702.5,-329"/>
<text text-anchor="start" x="705.5" y="-337.2" font-family="Times,serif" font-size="16.00">▯▯▯▯▯</text>
<polygon fill="cornsilk" stroke="transparent" points="759.5,-329 759.5,-353 1114.5,-353 1114.5,-329 759.5,-329"/>
<polygon fill="none" stroke="black" points="759.5,-329 759.5,-353 1114.5,-353 1114.5,-329 759.5,-329"/>
<text text-anchor="start" x="762.5" y="-337.2" font-family="Times,serif" font-size="16.00">Access to Rust type information and type check results</text>
<polygon fill="cornsilk" stroke="transparent" points="702.5,-303 702.5,-327 757.5,-327 757.5,-303 702.5,-303"/>
<polygon fill="none" stroke="black" points="702.5,-303 702.5,-327 757.5,-327 757.5,-303 702.5,-303"/>
<text text-anchor="start" x="705.5" y="-311.2" font-family="Times,serif" font-size="16.00">▯▯▯▯▯</text>
<polygon fill="cornsilk" stroke="transparent" points="759.5,-303 759.5,-327 1114.5,-327 1114.5,-303 759.5,-303"/>
<polygon fill="none" stroke="black" points="759.5,-303 759.5,-327 1114.5,-327 1114.5,-303 759.5,-303"/>
<text text-anchor="start" x="845.5" y="-311.2" font-family="Times,serif" font-size="16.00">Ability to ask &#39;hypotheticals&#39;</text>
<polygon fill="cornsilk" stroke="transparent" points="702.5,-277 702.5,-301 757.5,-301 757.5,-277 702.5,-277"/>
<polygon fill="none" stroke="black" points="702.5,-277 702.5,-301 757.5,-301 757.5,-277 702.5,-277"/>
<text text-anchor="start" x="705.5" y="-285.2" font-family="Times,serif" font-size="16.00">▯▯▯▯▯</text>
<polygon fill="cornsilk" stroke="transparent" points="759.5,-277 759.5,-301 1114.5,-301 1114.5,-277 759.5,-277"/>
<polygon fill="none" stroke="black" points="759.5,-277 759.5,-301 1114.5,-301 1114.5,-277 759.5,-277"/>
<text text-anchor="start" x="813" y="-285.2" font-family="Times,serif" font-size="16.00">Access to the MIR for a given function</text>
<polygon fill="none" stroke="black" points="699.5,-274 699.5,-434 1117.5,-434 1117.5,-274 699.5,-274"/>
</g>
<!-- formal&#45;methods&#45;tooling&#45;&gt;semi&#45;stable&#45;apis -->
<g id="edge5" class="edge">
<title>formal&#45;methods&#45;tooling&#45;&gt;semi&#45;stable&#45;apis</title>
<path fill="none" stroke="black" d="M901.78,-482.75C901.71,-470.03 901.76,-457.13 901.91,-444.66"/>
<polygon fill="black" stroke="black" points="905.42,-444.36 902.07,-434.31 898.42,-444.25 905.42,-444.36"/>
</g>
<!-- formal&#45;methods&#45;tooling&#45;&gt;semi&#45;stable&#45;apis -->
<g id="edge7" class="edge">
<title>formal&#45;methods&#45;tooling&#45;&gt;semi&#45;stable&#45;apis</title>
<path fill="none" stroke="black" d="M915.22,-482.75C915.29,-470.03 915.24,-457.13 915.09,-444.66"/>
<polygon fill="black" stroke="black" points="918.58,-444.25 914.93,-434.31 911.58,-444.36 918.58,-444.25"/>
</g>
<!-- fundamentals -->
<g id="node5" class="node">
<title>fundamentals</title>
<polygon fill="darkgoldenrod" stroke="transparent" points="701.5,-211 701.5,-235 1116.5,-235 1116.5,-211 701.5,-211"/>
<polygon fill="none" stroke="black" points="701.5,-211 701.5,-235 1116.5,-235 1116.5,-211 701.5,-211"/>
<text text-anchor="start" x="849" y="-219.2" font-family="Times,serif" font-size="16.00">Rust fundamentals</text>
<polygon fill="#ffb90f" stroke="transparent" points="701.5,-185 701.5,-209 1116.5,-209 1116.5,-185 701.5,-185"/>
<polygon fill="none" stroke="black" points="701.5,-185 701.5,-209 1116.5,-209 1116.5,-185 701.5,-185"/>
<text text-anchor="start" x="800.5" y="-193.2" font-family="Times,serif" font-size="16.00">Easy to contribute to the compiler</text>
<polygon fill="#ffb90f" stroke="transparent" points="701.5,-159 701.5,-183 1116.5,-183 1116.5,-159 701.5,-159"/>
<polygon fill="none" stroke="black" points="701.5,-159 701.5,-183 1116.5,-183 1116.5,-159 701.5,-159"/>
<text text-anchor="start" x="791" y="-167.2" font-family="Times,serif" font-size="16.00">Language semantics well understood</text>
<polygon fill="#ffb90f" stroke="transparent" points="701.5,-133 701.5,-157 1116.5,-157 1116.5,-133 701.5,-133"/>
<polygon fill="none" stroke="black" points="701.5,-133 701.5,-157 1116.5,-157 1116.5,-133 701.5,-133"/>
<text text-anchor="start" x="761.5" y="-141.2" font-family="Times,serif" font-size="16.00">Extending language possible by mere humans</text>
<polygon fill="cornsilk" stroke="transparent" points="701.5,-107 701.5,-131 756.5,-131 756.5,-107 701.5,-107"/>
<polygon fill="none" stroke="black" points="701.5,-107 701.5,-131 756.5,-131 756.5,-107 701.5,-107"/>
<text text-anchor="start" x="704.5" y="-115.2" font-family="Times,serif" font-size="16.00">▮▮▮▯▯</text>
<polygon fill="cornsilk" stroke="transparent" points="758.5,-107 758.5,-131 1116.5,-131 1116.5,-107 758.5,-107"/>
<polygon fill="none" stroke="black" points="758.5,-107 758.5,-131 1116.5,-131 1116.5,-107 758.5,-107"/>
<text text-anchor="start" x="761.5" y="-115.2" font-family="Times,serif" font-size="16.00">Rearchitect traits/borrow&#45;checking as logical predicates</text>
<polygon fill="cornsilk" stroke="transparent" points="701.5,-81 701.5,-105 756.5,-105 756.5,-81 701.5,-81"/>
<polygon fill="none" stroke="black" points="701.5,-81 701.5,-105 756.5,-105 756.5,-81 701.5,-81"/>
<text text-anchor="start" x="704.5" y="-89.2" font-family="Times,serif" font-size="16.00">▮▯▯▯▯</text>
<polygon fill="cornsilk" stroke="transparent" points="758.5,-81 758.5,-105 1116.5,-105 1116.5,-81 758.5,-81"/>
<polygon fill="none" stroke="black" points="758.5,-81 758.5,-105 1116.5,-105 1116.5,-81 758.5,-81"/>
<text text-anchor="start" x="831" y="-89.2" font-family="Times,serif" font-size="16.00">Core Rust semantics documented</text>
<polygon fill="cornsilk" stroke="transparent" points="701.5,-55 701.5,-79 756.5,-79 756.5,-55 701.5,-55"/>
<polygon fill="none" stroke="black" points="701.5,-55 701.5,-79 756.5,-79 756.5,-55 701.5,-55"/>
<text text-anchor="start" x="704.5" y="-63.2" font-family="Times,serif" font-size="16.00">▮▯▯▯▯</text>
<polygon fill="cornsilk" stroke="transparent" points="758.5,-55 758.5,-79 1116.5,-79 1116.5,-55 758.5,-55"/>
<polygon fill="none" stroke="black" points="758.5,-55 758.5,-79 1116.5,-79 1116.5,-55 758.5,-55"/>
<text text-anchor="start" x="875.5" y="-63.2" font-family="Times,serif" font-size="16.00">Proof of soundness</text>
<polygon fill="cornsilk" stroke="transparent" points="701.5,-29 701.5,-53 756.5,-53 756.5,-29 701.5,-29"/>
<polygon fill="none" stroke="black" points="701.5,-29 701.5,-53 756.5,-53 756.5,-29 701.5,-29"/>
<text text-anchor="start" x="704.5" y="-37.2" font-family="Times,serif" font-size="16.00">▮▮▯▯▯</text>
<polygon fill="cornsilk" stroke="transparent" points="758.5,-29 758.5,-53 1116.5,-53 1116.5,-29 758.5,-29"/>
<polygon fill="none" stroke="black" points="758.5,-29 758.5,-53 1116.5,-53 1116.5,-29 758.5,-29"/>
<text text-anchor="start" x="863.5" y="-37.2" font-family="Times,serif" font-size="16.00">Unsafe code guidelines</text>
<polygon fill="cornsilk" stroke="transparent" points="701.5,-3 701.5,-27 756.5,-27 756.5,-3 701.5,-3"/>
<polygon fill="none" stroke="black" points="701.5,-3 701.5,-27 756.5,-27 756.5,-3 701.5,-3"/>
<text text-anchor="start" x="704.5" y="-11.2" font-family="Times,serif" font-size="16.00">▮▮▯▯▯</text>
<polygon fill="cornsilk" stroke="transparent" points="758.5,-3 758.5,-27 1116.5,-27 1116.5,-3 758.5,-3"/>
<polygon fill="none" stroke="black" points="758.5,-3 758.5,-27 1116.5,-27 1116.5,-3 758.5,-3"/>
<text text-anchor="start" x="839.5" y="-11.2" font-family="Times,serif" font-size="16.00">Known soundness bugs closed</text>
<polygon fill="none" stroke="black" points="698,0 698,-238 1119,-238 1119,0 698,0"/>
</g>
<!-- semi&#45;stable&#45;apis&#45;&gt;fundamentals -->
<g id="edge6" class="edge">
<title>semi&#45;stable&#45;apis&#45;&gt;fundamentals</title>
<path fill="none" stroke="black" d="M908.5,-273.79C908.5,-265.54 908.5,-257.01 908.5,-248.4"/>
<polygon fill="black" stroke="black" points="912,-248.25 908.5,-238.25 905,-248.25 912,-248.25"/>
</g>
</g>
</svg>
