<?xml version="1.0" encoding="UTF-8" standalone="no"?>
<!DOCTYPE svg PUBLIC "-//W3C//DTD SVG 1.1//EN"
 "http://www.w3.org/Graphics/SVG/1.1/DTD/svg11.dtd">
<!-- Generated by graphviz version 2.43.0 (0)
 -->
<!-- Title: g Pages: 1 -->
<svg width="4030pt" height="364pt"
 viewBox="0.00 0.00 4029.50 364.00" xmlns="http://www.w3.org/2000/svg" xmlns:xlink="http://www.w3.org/1999/xlink">
<g id="graph0" class="graph" transform="scale(1 1) rotate(0) translate(4 360)">
<title>g</title>
<polygon fill="white" stroke="transparent" points="-4,4 -4,-360 4025.5,-360 4025.5,4 -4,4"/>
<!-- goal&#45;security -->
<g id="node1" class="node">
<title>goal&#45;security</title>
<polygon fill="darkgoldenrod" stroke="transparent" points="985,-329 985,-353 1958,-353 1958,-329 985,-329"/>
<polygon fill="none" stroke="black" points="985,-329 985,-353 1958,-353 1958,-329 985,-329"/>
<text text-anchor="start" x="1372.5" y="-337.2" font-family="Times,serif" font-size="16.00">🎯 Rust is highly secure</text>
<polygon fill="#ffb90f" stroke="transparent" points="985,-303 985,-327 1958,-327 1958,-303 985,-303"/>
<polygon fill="none" stroke="black" points="985,-303 985,-327 1958,-327 1958,-303 985,-303"/>
<text text-anchor="start" x="1141" y="-311.2" font-family="Times,serif" font-size="16.00">People using Rust rarely &#45;&#45; if ever &#45;&#45; experience security vulnerabilities or issues</text>
<polygon fill="#ffb90f" stroke="transparent" points="985,-277 985,-301 1958,-301 1958,-277 985,-277"/>
<polygon fill="none" stroke="black" points="985,-277 985,-301 1958,-301 1958,-277 985,-277"/>
<text text-anchor="start" x="989" y="-285.2" font-family="Times,serif" font-size="16.00">In companies using Rust widely, security engineers are able to refocus their attention on higher&#45;level security issues</text>
<polygon fill="none" stroke="black" points="981.5,-274 981.5,-356 1960.5,-356 1960.5,-274 981.5,-274"/>
</g>
<!-- security&#45;response -->
<g id="node2" class="node">
<title>security&#45;response</title>
<polygon fill="darkgoldenrod" stroke="transparent" points="3,-146 3,-170 1001,-170 1001,-146 3,-146"/>
<polygon fill="none" stroke="black" points="3,-146 3,-170 1001,-170 1001,-146 3,-146"/>
<text text-anchor="start" x="390" y="-154.2" font-family="Times,serif" font-size="16.00">Effective security response</text>
<polygon fill="#ffb90f" stroke="transparent" points="3,-120 3,-144 1001,-144 1001,-120 3,-120"/>
<polygon fill="none" stroke="black" points="3,-120 3,-144 1001,-144 1001,-120 3,-120"/>
<text text-anchor="start" x="7" y="-128.2" font-family="Times,serif" font-size="16.00">When issues do arise with a Rust crate, people know how to report them, and crate authors effectively respond to them</text>
<polygon fill="cornsilk" stroke="transparent" points="3,-94 3,-118 202,-118 202,-94 3,-94"/>
<polygon fill="none" stroke="black" points="3,-94 3,-118 202,-118 202,-94 3,-94"/>
<text text-anchor="start" x="79.5" y="-102.2" font-family="Times,serif" font-size="16.00">▯▯▯▯▯</text>
<polygon fill="cornsilk" stroke="transparent" points="204,-94 204,-118 1001,-118 1001,-94 204,-94"/>
<polygon fill="none" stroke="black" points="204,-94 204,-118 1001,-118 1001,-94 204,-94"/>
<text text-anchor="start" x="280.5" y="-102.2" font-family="Times,serif" font-size="16.00">Support program for crate authors who have security issues reported to them</text>
<polygon fill="cornsilk" stroke="transparent" points="3,-68 3,-92 202,-92 202,-68 3,-68"/>
<polygon fill="none" stroke="black" points="3,-68 3,-92 202,-92 202,-68 3,-68"/>
<text text-anchor="start" x="79.5" y="-76.2" font-family="Times,serif" font-size="16.00">▯▯▯▯▯</text>
<polygon fill="cornsilk" stroke="transparent" points="204,-68 204,-92 1001,-92 1001,-68 204,-68"/>
<polygon fill="none" stroke="black" points="204,-68 204,-92 1001,-92 1001,-68 204,-68"/>
<text text-anchor="start" x="397" y="-76.2" font-family="Times,serif" font-size="16.00">Coordinated disclosure of security issues for Rust</text>
<polygon fill="none" stroke="black" points="0,-65 0,-173 1004,-173 1004,-65 0,-65"/>
</g>
<!-- goal&#45;security&#45;&gt;security&#45;response -->
<g id="edge3" class="edge">
<title>goal&#45;security&#45;&gt;security&#45;response</title>
<path fill="none" stroke="black" d="M1212.22,-273.96C1147.05,-263.08 1077.34,-250.75 1013,-238 919.27,-219.42 816.52,-196.25 727.89,-175.36"/>
<polygon fill="black" stroke="black" points="728.52,-171.92 717.99,-173.03 726.92,-178.73 728.52,-171.92"/>
</g>
<!-- crates.io&#45;secure -->
<g id="node3" class="node">
<title>crates.io&#45;secure</title>
<polygon fill="darkgoldenrod" stroke="transparent" points="1026,-146 1026,-170 1917,-170 1917,-146 1026,-146"/>
<polygon fill="none" stroke="black" points="1026,-146 1026,-170 1917,-170 1917,-146 1026,-146"/>
<text text-anchor="start" x="1344" y="-154.2" font-family="Times,serif" font-size="16.00">Security of cargo and crates.io</text>
<polygon fill="#ffb90f" stroke="transparent" points="1026,-120 1026,-144 1917,-144 1917,-120 1026,-120"/>
<polygon fill="none" stroke="black" points="1026,-120 1026,-144 1917,-144 1917,-120 1026,-120"/>
<text text-anchor="start" x="1139" y="-128.2" font-family="Times,serif" font-size="16.00">People can choose crates from crates.io without fear of vulnerabilities or trojans</text>
<polygon fill="#ffb90f" stroke="transparent" points="1026,-94 1026,-118 1917,-118 1917,-94 1026,-94"/>
<polygon fill="none" stroke="black" points="1026,-94 1026,-118 1917,-118 1917,-94 1026,-94"/>
<text text-anchor="start" x="1030" y="-102.2" font-family="Times,serif" font-size="16.00">Authors can publish code in crates on crates.io with confidence that their users will receive the same code</text>
<polygon fill="cornsilk" stroke="transparent" points="1026,-68 1026,-92 1287,-92 1287,-68 1026,-68"/>
<polygon fill="none" stroke="black" points="1026,-68 1026,-92 1287,-92 1287,-68 1026,-68"/>
<text text-anchor="start" x="1133.5" y="-76.2" font-family="Times,serif" font-size="16.00">▯▯▯▯▯</text>
<polygon fill="cornsilk" stroke="transparent" points="1289,-68 1289,-92 1917,-92 1917,-68 1289,-68"/>
<polygon fill="none" stroke="black" points="1289,-68 1289,-92 1917,-92 1917,-68 1289,-68"/>
<text text-anchor="start" x="1396.5" y="-76.2" font-family="Times,serif" font-size="16.00">build.rs and procedural macros can be sandboxed</text>
<polygon fill="none" stroke="black" points="1022.5,-65 1022.5,-173 1919.5,-173 1919.5,-65 1022.5,-65"/>
</g>
<!-- goal&#45;security&#45;&gt;crates.io&#45;secure -->
<g id="edge2" class="edge">
<title>goal&#45;security&#45;&gt;crates.io&#45;secure</title>
<path fill="none" stroke="black" d="M1471,-273.8C1471,-247.69 1471,-213.1 1471,-183.34"/>
<polygon fill="black" stroke="black" points="1474.5,-183.04 1471,-173.04 1467.5,-183.04 1474.5,-183.04"/>
</g>
<!-- crates&#45;secure -->
<g id="node4" class="node">
<title>crates&#45;secure</title>
<polygon fill="darkgoldenrod" stroke="transparent" points="1941,-133 1941,-157 2561,-157 2561,-133 1941,-133"/>
<polygon fill="none" stroke="black" points="1941,-133 1941,-157 2561,-157 2561,-133 1941,-133"/>
<text text-anchor="start" x="2156" y="-141.2" font-family="Times,serif" font-size="16.00">Security of Rust crates</text>
<polygon fill="#ffb90f" stroke="transparent" points="1941,-107 1941,-131 2561,-131 2561,-107 1941,-107"/>
<polygon fill="none" stroke="black" points="1941,-107 1941,-131 2561,-131 2561,-107 1941,-107"/>
<text text-anchor="start" x="1945" y="-115.2" font-family="Times,serif" font-size="16.00">Authors of crates on crates.io are able to ensure their own crates security</text>
<polygon fill="#ffb90f" stroke="transparent" points="1941,-81 1941,-105 2561,-105 2561,-81 1941,-81"/>
<polygon fill="none" stroke="black" points="1941,-81 1941,-105 2561,-105 2561,-81 1941,-81"/>
<text text-anchor="start" x="2028.5" y="-89.2" font-family="Times,serif" font-size="16.00">Crates on crates.io maintain strong security practices</text>
<polygon fill="none" stroke="black" points="1938,-78 1938,-160 2564,-160 2564,-78 1938,-78"/>
</g>
<!-- goal&#45;security&#45;&gt;crates&#45;secure -->
<g id="edge1" class="edge">
<title>goal&#45;security&#45;&gt;crates&#45;secure</title>
<path fill="none" stroke="black" d="M1761.61,-273.99C1817.24,-264 1874.72,-252.03 1928,-238 2002.41,-218.4 2083.76,-188.63 2146.21,-163.89"/>
<polygon fill="black" stroke="black" points="2147.68,-167.08 2155.67,-160.13 2145.09,-160.57 2147.68,-167.08"/>
</g>
<!-- core&#45;secure -->
<g id="node5" class="node">
<title>core&#45;secure</title>
<polygon fill="darkgoldenrod" stroke="transparent" points="2899,-329 2899,-353 3595,-353 3595,-329 2899,-329"/>
<polygon fill="none" stroke="black" points="2899,-329 2899,-353 3595,-353 3595,-329 2899,-329"/>
<text text-anchor="start" x="3113" y="-337.2" font-family="Times,serif" font-size="16.00">Security of Rust and Rust crates</text>
<polygon fill="#ffb90f" stroke="transparent" points="2899,-303 2899,-327 3595,-327 3595,-303 2899,-303"/>
<polygon fill="none" stroke="black" points="2899,-303 2899,-327 3595,-327 3595,-303 2899,-303"/>
<text text-anchor="start" x="2954" y="-311.2" font-family="Times,serif" font-size="16.00">Programs written in Rust do not have memory safety issues in practice</text>
<polygon fill="#ffb90f" stroke="transparent" points="2899,-277 2899,-301 3595,-301 3595,-277 2899,-277"/>
<polygon fill="none" stroke="black" points="2899,-277 2899,-301 3595,-301 3595,-277 2899,-277"/>
<text text-anchor="start" x="2903" y="-285.2" font-family="Times,serif" font-size="16.00">People are unable to produce a crash using only safe Rust and the standard library</text>
<polygon fill="none" stroke="black" points="2896,-274 2896,-356 3598,-356 3598,-274 2896,-274"/>
</g>
<!-- safe&#45;rust -->
<g id="node6" class="node">
<title>safe&#45;rust</title>
<polygon fill="darkgoldenrod" stroke="transparent" points="2585,-185 2585,-209 3181,-209 3181,-185 2585,-185"/>
<polygon fill="none" stroke="black" points="2585,-185 2585,-209 3181,-209 3181,-185 2585,-185"/>
<text text-anchor="start" x="2807.5" y="-193.2" font-family="Times,serif" font-size="16.00">Safe Rust security</text>
<polygon fill="#ffb90f" stroke="transparent" points="2585,-159 2585,-183 3181,-183 3181,-159 2585,-159"/>
<polygon fill="none" stroke="black" points="2585,-159 2585,-183 3181,-183 3181,-159 2585,-159"/>
<text text-anchor="start" x="2666.5" y="-167.2" font-family="Times,serif" font-size="16.00">MIR has a formal model that has been proven sound</text>
<polygon fill="#ffb90f" stroke="transparent" points="2585,-133 2585,-157 3181,-157 3181,-133 2585,-133"/>
<polygon fill="none" stroke="black" points="2585,-133 2585,-157 3181,-157 3181,-133 2585,-133"/>
<text text-anchor="start" x="2589" y="-141.2" font-family="Times,serif" font-size="16.00">We have high confidence that Rust&#39;s MIR toolchain matches this model</text>
<polygon fill="cornsilk" stroke="transparent" points="2585,-107 2585,-131 2677,-131 2677,-107 2585,-107"/>
<polygon fill="none" stroke="black" points="2585,-107 2585,-131 2677,-131 2677,-107 2585,-107"/>
<text text-anchor="start" x="2608" y="-115.2" font-family="Times,serif" font-size="16.00">▯▯▯▯▯</text>
<polygon fill="cornsilk" stroke="transparent" points="2679,-107 2679,-131 3181,-131 3181,-107 2679,-107"/>
<polygon fill="none" stroke="black" points="2679,-107 2679,-131 3181,-131 3181,-107 2679,-107"/>
<text text-anchor="start" x="2788" y="-115.2" font-family="Times,serif" font-size="16.00">Soundness conformance test suite</text>
<polygon fill="cornsilk" stroke="transparent" points="2585,-81 2585,-105 2677,-105 2677,-81 2585,-81"/>
<polygon fill="none" stroke="black" points="2585,-81 2585,-105 2677,-105 2677,-81 2585,-81"/>
<text text-anchor="start" x="2608" y="-89.2" font-family="Times,serif" font-size="16.00">▯▯▯▯▯</text>
<polygon fill="cornsilk" stroke="transparent" points="2679,-81 2679,-105 3181,-105 3181,-81 2679,-81"/>
<polygon fill="none" stroke="black" points="2679,-81 2679,-105 3181,-105 3181,-81 2679,-81"/>
<text text-anchor="start" x="2839.5" y="-89.2" font-family="Times,serif" font-size="16.00">Develop formal model</text>
<polygon fill="cornsilk" stroke="transparent" points="2585,-55 2585,-79 2677,-79 2677,-55 2585,-55"/>
<polygon fill="none" stroke="black" points="2585,-55 2585,-79 2677,-79 2677,-55 2585,-55"/>
<text text-anchor="start" x="2608" y="-63.2" font-family="Times,serif" font-size="16.00">▯▯▯▯▯</text>
<polygon fill="cornsilk" stroke="transparent" points="2679,-55 2679,-79 3181,-79 3181,-55 2679,-55"/>
<polygon fill="none" stroke="black" points="2679,-55 2679,-79 3181,-79 3181,-55 2679,-55"/>
<text text-anchor="start" x="2702.5" y="-63.2" font-family="Times,serif" font-size="16.00">Rearchitect core parts of compiler for clarity, flexibility</text>
<polygon fill="cornsilk" stroke="transparent" points="2585,-29 2585,-53 2677,-53 2677,-29 2585,-29"/>
<polygon fill="none" stroke="black" points="2585,-29 2585,-53 2677,-53 2677,-29 2585,-29"/>
<text text-anchor="start" x="2608" y="-37.2" font-family="Times,serif" font-size="16.00">▯▯▯▯▯</text>
<polygon fill="cornsilk" stroke="transparent" points="2679,-29 2679,-53 3181,-53 3181,-29 2679,-29"/>
<polygon fill="none" stroke="black" points="2679,-29 2679,-53 3181,-53 3181,-29 2679,-29"/>
<text text-anchor="start" x="2806" y="-37.2" font-family="Times,serif" font-size="16.00">Fixing known soundness bugs</text>
<polygon fill="none" stroke="black" points="2582,-26 2582,-212 3184,-212 3184,-26 2582,-26"/>
</g>
<!-- core&#45;secure&#45;&gt;safe&#45;rust -->
<g id="edge4" class="edge">
<title>core&#45;secure&#45;&gt;safe&#45;rust</title>
<path fill="none" stroke="black" d="M3171.58,-273.8C3140.35,-257.16 3102.65,-237.07 3064.96,-216.98"/>
<polygon fill="black" stroke="black" points="3066.37,-213.76 3055.9,-212.15 3063.08,-219.94 3066.37,-213.76"/>
</g>
<!-- unsafe&#45;rust -->
<g id="node7" class="node">
<title>unsafe&#45;rust</title>
<polygon fill="darkgoldenrod" stroke="transparent" points="3206,-211 3206,-235 4019,-235 4019,-211 3206,-211"/>
<polygon fill="none" stroke="black" points="3206,-211 3206,-235 4019,-235 4019,-211 3206,-211"/>
<text text-anchor="start" x="3526.5" y="-219.2" font-family="Times,serif" font-size="16.00">Unsafe Rust security</text>
<polygon fill="#ffb90f" stroke="transparent" points="3206,-185 3206,-209 4019,-209 4019,-185 3206,-185"/>
<polygon fill="none" stroke="black" points="3206,-185 3206,-209 4019,-209 4019,-185 3206,-185"/>
<text text-anchor="start" x="3210" y="-193.2" font-family="Times,serif" font-size="16.00">The soundness rules for unsafe code are understood and followed by authors of unsafe Rust code</text>
<polygon fill="#ffb90f" stroke="transparent" points="3206,-159 3206,-183 4019,-183 4019,-159 3206,-159"/>
<polygon fill="none" stroke="black" points="3206,-159 3206,-183 4019,-183 4019,-159 3206,-159"/>
<text text-anchor="start" x="3268.5" y="-167.2" font-family="Times,serif" font-size="16.00">Tooling to dynamically test soundness of unsafe code is accessible and widely used</text>
<polygon fill="#ffb90f" stroke="transparent" points="3206,-133 3206,-157 4019,-157 4019,-133 3206,-133"/>
<polygon fill="none" stroke="black" points="3206,-133 3206,-157 4019,-157 4019,-133 3206,-133"/>
<text text-anchor="start" x="3347.5" y="-141.2" font-family="Times,serif" font-size="16.00">Tooling to statically prove soundness of unsafe code is available</text>
<polygon fill="#ffb90f" stroke="transparent" points="3206,-107 3206,-131 4019,-131 4019,-107 3206,-107"/>
<polygon fill="none" stroke="black" points="3206,-107 3206,-131 4019,-131 4019,-107 3206,-107"/>
<text text-anchor="start" x="3427.5" y="-115.2" font-family="Times,serif" font-size="16.00">Core Rust crates that have soundness proofs</text>
<polygon fill="cornsilk" stroke="transparent" points="3206,-81 3206,-105 3452,-105 3452,-81 3206,-81"/>
<polygon fill="none" stroke="black" points="3206,-81 3206,-105 3452,-105 3452,-81 3206,-81"/>
<text text-anchor="start" x="3306" y="-89.2" font-family="Times,serif" font-size="16.00">▯▯▯▯▯</text>
<polygon fill="cornsilk" stroke="transparent" points="3454,-81 3454,-105 4019,-105 4019,-81 3454,-81"/>
<polygon fill="none" stroke="black" points="3454,-81 3454,-105 4019,-105 4019,-81 3454,-81"/>
<text text-anchor="start" x="3640" y="-89.2" font-family="Times,serif" font-size="16.00">Unsafe code guidelines</text>
<polygon fill="cornsilk" stroke="transparent" points="3206,-55 3206,-79 3452,-79 3452,-55 3206,-55"/>
<polygon fill="none" stroke="black" points="3206,-55 3206,-79 3452,-79 3452,-55 3206,-55"/>
<text text-anchor="start" x="3306" y="-63.2" font-family="Times,serif" font-size="16.00">▯▯▯▯▯</text>
<polygon fill="cornsilk" stroke="transparent" points="3454,-55 3454,-79 4019,-79 4019,-55 3454,-55"/>
<polygon fill="none" stroke="black" points="3454,-55 3454,-79 4019,-79 4019,-55 3454,-55"/>
<text text-anchor="start" x="3554.5" y="-63.2" font-family="Times,serif" font-size="16.00">Sanitizers and other dynamic testers for UB</text>
<polygon fill="cornsilk" stroke="transparent" points="3206,-29 3206,-53 3452,-53 3452,-29 3206,-29"/>
<polygon fill="none" stroke="black" points="3206,-29 3206,-53 3452,-53 3452,-29 3206,-29"/>
<text text-anchor="start" x="3306" y="-37.2" font-family="Times,serif" font-size="16.00">▯▯▯▯▯</text>
<polygon fill="cornsilk" stroke="transparent" points="3454,-29 3454,-53 4019,-53 4019,-29 3454,-29"/>
<polygon fill="none" stroke="black" points="3454,-29 3454,-53 4019,-53 4019,-29 3454,-29"/>
<text text-anchor="start" x="3560.5" y="-37.2" font-family="Times,serif" font-size="16.00">Model checkers and Rust theorem provers</text>
<polygon fill="cornsilk" stroke="transparent" points="3206,-3 3206,-27 3452,-27 3452,-3 3206,-3"/>
<polygon fill="none" stroke="black" points="3206,-3 3206,-27 3452,-27 3452,-3 3206,-3"/>
<text text-anchor="start" x="3306" y="-11.2" font-family="Times,serif" font-size="16.00">▯▯▯▯▯</text>
<polygon fill="cornsilk" stroke="transparent" points="3454,-3 3454,-27 4019,-27 4019,-3 3454,-3"/>
<polygon fill="none" stroke="black" points="3454,-3 3454,-27 4019,-27 4019,-3 3454,-3"/>
<text text-anchor="start" x="3566.5" y="-11.2" font-family="Times,serif" font-size="16.00">Standard library specification and proofs</text>
<polygon fill="none" stroke="black" points="3202.5,0 3202.5,-238 4021.5,-238 4021.5,0 3202.5,0"/>
</g>
<!-- core&#45;secure&#45;&gt;unsafe&#45;rust -->
<g id="edge5" class="edge">
<title>core&#45;secure&#45;&gt;unsafe&#45;rust</title>
<path fill="none" stroke="black" d="M3322.63,-273.8C3340.35,-264.38 3360.15,-253.86 3380.85,-242.86"/>
<polygon fill="black" stroke="black" points="3382.59,-245.9 3389.77,-238.12 3379.3,-239.72 3382.59,-245.9"/>
</g>
</g>
</svg>
