<?xml version="1.0" encoding="UTF-8" standalone="no"?>
<!DOCTYPE svg PUBLIC "-//W3C//DTD SVG 1.1//EN"
 "http://www.w3.org/Graphics/SVG/1.1/DTD/svg11.dtd">
<!-- Generated by graphviz version 2.50.0 (20211204.2007)
 -->
<!-- Title: g Pages: 1 -->
<svg width="2451pt" height="1318pt"
 viewBox="0.00 0.00 2450.50 1318.00" xmlns="http://www.w3.org/2000/svg" xmlns:xlink="http://www.w3.org/1999/xlink">
<g id="graph0" class="graph" transform="scale(1 1) rotate(0) translate(4 1314)">
<title>g</title>
<polygon fill="white" stroke="transparent" points="-4,4 -4,-1314 2446.5,-1314 2446.5,4 -4,4"/>
<!-- goal&#45;security -->
<g id="node1" class="node">
<title>goal&#45;security</title>
<polygon fill="darkgoldenrod" stroke="transparent" points="754.5,-1283 754.5,-1307 1498.5,-1307 1498.5,-1283 754.5,-1283"/>
<polygon fill="none" stroke="black" points="754.5,-1283 754.5,-1307 1498.5,-1307 1498.5,-1283 754.5,-1283"/>
<text text-anchor="start" x="1050" y="-1291.2" font-family="Times,serif" font-size="16.00">🎯 Rust is highly secure</text>
<polygon fill="#ffb90f" stroke="transparent" points="754.5,-1257 754.5,-1281 1498.5,-1281 1498.5,-1257 754.5,-1257"/>
<polygon fill="none" stroke="black" points="754.5,-1257 754.5,-1281 1498.5,-1281 1498.5,-1257 754.5,-1257"/>
<text text-anchor="start" x="872" y="-1265.2" font-family="Times,serif" font-size="16.00">People using Rust rarely &#45;&#45; if ever &#45;&#45; experience security vulnerabilities or issues</text>
<polygon fill="#ffb90f" stroke="transparent" points="754.5,-1231 754.5,-1255 1498.5,-1255 1498.5,-1231 754.5,-1231"/>
<polygon fill="none" stroke="black" points="754.5,-1231 754.5,-1255 1498.5,-1255 1498.5,-1231 754.5,-1231"/>
<text text-anchor="start" x="758.5" y="-1239.2" font-family="Times,serif" font-size="16.00">In companies using Rust widely, security engineers are able to refocus their attention on higher&#45;level security issues</text>
<polygon fill="none" stroke="black" points="751.5,-1228 751.5,-1310 1501.5,-1310 1501.5,-1228 751.5,-1228"/>
</g>
<!-- security&#45;response -->
<g id="node2" class="node">
<title>security&#45;response</title>
<polygon fill="darkgoldenrod" stroke="transparent" points="3.5,-1165 3.5,-1189 764.5,-1189 764.5,-1165 3.5,-1165"/>
<polygon fill="none" stroke="black" points="3.5,-1165 3.5,-1189 764.5,-1189 764.5,-1165 3.5,-1165"/>
<text text-anchor="start" x="298" y="-1173.2" font-family="Times,serif" font-size="16.00">Effective security response</text>
<polygon fill="#ffb90f" stroke="transparent" points="3.5,-1139 3.5,-1163 764.5,-1163 764.5,-1139 3.5,-1139"/>
<polygon fill="none" stroke="black" points="3.5,-1139 3.5,-1163 764.5,-1163 764.5,-1139 3.5,-1139"/>
<text text-anchor="start" x="7.5" y="-1147.2" font-family="Times,serif" font-size="16.00">When issues do arise with a Rust crate, people know how to report them, and crate authors effectively respond to them</text>
<polygon fill="cornsilk" stroke="transparent" points="3.5,-1113 3.5,-1137 163.5,-1137 163.5,-1113 3.5,-1113"/>
<polygon fill="none" stroke="black" points="3.5,-1113 3.5,-1137 163.5,-1137 163.5,-1113 3.5,-1113"/>
<text text-anchor="start" x="59" y="-1121.2" font-family="Times,serif" font-size="16.00">▯▯▯▯▯</text>
<polygon fill="cornsilk" stroke="transparent" points="165.5,-1113 165.5,-1137 764.5,-1137 764.5,-1113 165.5,-1113"/>
<polygon fill="none" stroke="black" points="165.5,-1113 165.5,-1137 764.5,-1137 764.5,-1113 165.5,-1113"/>
<text text-anchor="start" x="221" y="-1121.2" font-family="Times,serif" font-size="16.00">Support program for crate authors who have security issues reported to them</text>
<polygon fill="cornsilk" stroke="transparent" points="3.5,-1087 3.5,-1111 163.5,-1111 163.5,-1087 3.5,-1087"/>
<polygon fill="none" stroke="black" points="3.5,-1087 3.5,-1111 163.5,-1111 163.5,-1087 3.5,-1087"/>
<text text-anchor="start" x="59" y="-1095.2" font-family="Times,serif" font-size="16.00">▯▯▯▯▯</text>
<polygon fill="cornsilk" stroke="transparent" points="165.5,-1087 165.5,-1111 764.5,-1111 764.5,-1087 165.5,-1087"/>
<polygon fill="none" stroke="black" points="165.5,-1087 165.5,-1111 764.5,-1111 764.5,-1087 165.5,-1087"/>
<text text-anchor="start" x="307" y="-1095.2" font-family="Times,serif" font-size="16.00">Coordinated disclosure of security issues for Rust</text>
<polygon fill="none" stroke="black" points="0,-1084 0,-1192 767,-1192 767,-1084 0,-1084"/>
</g>
<!-- goal&#45;security&#45;&gt;security&#45;response -->
<g id="edge3" class="edge">
<title>goal&#45;security&#45;&gt;security&#45;response</title>
<path fill="none" stroke="black" d="M895.99,-1227.98C833.68,-1217.16 765.15,-1205.26 699.04,-1193.78"/>
<polygon fill="black" stroke="black" points="699.33,-1190.28 688.88,-1192.02 698.14,-1197.18 699.33,-1190.28"/>
</g>
<!-- crates.io&#45;secure -->
<g id="node3" class="node">
<title>crates.io&#45;secure</title>
<polygon fill="darkgoldenrod" stroke="transparent" points="788.5,-1165 788.5,-1189 1464.5,-1189 1464.5,-1165 788.5,-1165"/>
<polygon fill="none" stroke="black" points="788.5,-1165 788.5,-1189 1464.5,-1189 1464.5,-1165 788.5,-1165"/>
<text text-anchor="start" x="1030" y="-1173.2" font-family="Times,serif" font-size="16.00">Security of cargo and crates.io</text>
<polygon fill="#ffb90f" stroke="transparent" points="788.5,-1139 788.5,-1163 1464.5,-1163 1464.5,-1139 788.5,-1139"/>
<polygon fill="none" stroke="black" points="788.5,-1139 788.5,-1163 1464.5,-1163 1464.5,-1139 788.5,-1139"/>
<text text-anchor="start" x="873" y="-1147.2" font-family="Times,serif" font-size="16.00">People can choose crates from crates.io without fear of vulnerabilities or trojans</text>
<polygon fill="#ffb90f" stroke="transparent" points="788.5,-1113 788.5,-1137 1464.5,-1137 1464.5,-1113 788.5,-1113"/>
<polygon fill="none" stroke="black" points="788.5,-1113 788.5,-1137 1464.5,-1137 1464.5,-1113 788.5,-1113"/>
<text text-anchor="start" x="792.5" y="-1121.2" font-family="Times,serif" font-size="16.00">Authors can publish code in crates on crates.io with confidence that their users will receive the same code</text>
<polygon fill="cornsilk" stroke="transparent" points="788.5,-1087 788.5,-1111 992.5,-1111 992.5,-1087 788.5,-1087"/>
<polygon fill="none" stroke="black" points="788.5,-1087 788.5,-1111 992.5,-1111 992.5,-1087 788.5,-1087"/>
<text text-anchor="start" x="866" y="-1095.2" font-family="Times,serif" font-size="16.00">▯▯▯▯▯</text>
<polygon fill="cornsilk" stroke="transparent" points="994.5,-1087 994.5,-1111 1464.5,-1111 1464.5,-1087 994.5,-1087"/>
<polygon fill="none" stroke="black" points="994.5,-1087 994.5,-1111 1464.5,-1111 1464.5,-1087 994.5,-1087"/>
<text text-anchor="start" x="1072" y="-1095.2" font-family="Times,serif" font-size="16.00">build.rs and procedural macros can be sandboxed</text>
<polygon fill="none" stroke="black" points="785.5,-1084 785.5,-1192 1467.5,-1192 1467.5,-1084 785.5,-1084"/>
</g>
<!-- goal&#45;security&#45;&gt;crates.io&#45;secure -->
<g id="edge2" class="edge">
<title>goal&#45;security&#45;&gt;crates.io&#45;secure</title>
<path fill="none" stroke="black" d="M1126.5,-1227.89C1126.5,-1219.81 1126.5,-1211.13 1126.5,-1202.48"/>
<polygon fill="black" stroke="black" points="1130,-1202.37 1126.5,-1192.37 1123,-1202.37 1130,-1202.37"/>
</g>
<!-- crates&#45;secure -->
<g id="node4" class="node">
<title>crates&#45;secure</title>
<polygon fill="darkgoldenrod" stroke="transparent" points="1488.5,-1152 1488.5,-1176 1954.5,-1176 1954.5,-1152 1488.5,-1152"/>
<polygon fill="none" stroke="black" points="1488.5,-1152 1488.5,-1176 1954.5,-1176 1954.5,-1152 1488.5,-1152"/>
<text text-anchor="start" x="1649.5" y="-1160.2" font-family="Times,serif" font-size="16.00">Security of Rust crates</text>
<polygon fill="#ffb90f" stroke="transparent" points="1488.5,-1126 1488.5,-1150 1954.5,-1150 1954.5,-1126 1488.5,-1126"/>
<polygon fill="none" stroke="black" points="1488.5,-1126 1488.5,-1150 1954.5,-1150 1954.5,-1126 1488.5,-1126"/>
<text text-anchor="start" x="1492.5" y="-1134.2" font-family="Times,serif" font-size="16.00">Authors of crates on crates.io are able to ensure their own crates security</text>
<polygon fill="#ffb90f" stroke="transparent" points="1488.5,-1100 1488.5,-1124 1954.5,-1124 1954.5,-1100 1488.5,-1100"/>
<polygon fill="none" stroke="black" points="1488.5,-1100 1488.5,-1124 1954.5,-1124 1954.5,-1100 1488.5,-1100"/>
<text text-anchor="start" x="1554.5" y="-1108.2" font-family="Times,serif" font-size="16.00">Crates on crates.io maintain strong security practices</text>
<polygon fill="none" stroke="black" points="1485.5,-1097 1485.5,-1179 1957.5,-1179 1957.5,-1097 1485.5,-1097"/>
</g>
<!-- goal&#45;security&#45;&gt;crates&#45;secure -->
<g id="edge1" class="edge">
<title>goal&#45;security&#45;&gt;crates&#45;secure</title>
<path fill="none" stroke="black" d="M1311.09,-1227.98C1379.55,-1213.14 1457.38,-1196.26 1526.72,-1181.23"/>
<polygon fill="black" stroke="black" points="1527.85,-1184.56 1536.89,-1179.03 1526.37,-1177.72 1527.85,-1184.56"/>
</g>
<!-- core&#45;secure -->
<g id="node5" class="node">
<title>core&#45;secure</title>
<polygon fill="darkgoldenrod" stroke="transparent" points="1457.5,-1021 1457.5,-1045 1985.5,-1045 1985.5,-1021 1457.5,-1021"/>
<polygon fill="none" stroke="black" points="1457.5,-1021 1457.5,-1045 1985.5,-1045 1985.5,-1021 1457.5,-1021"/>
<text text-anchor="start" x="1619.5" y="-1029.2" font-family="Times,serif" font-size="16.00">Security of Rust and Rust crates</text>
<polygon fill="#ffb90f" stroke="transparent" points="1457.5,-995 1457.5,-1019 1985.5,-1019 1985.5,-995 1457.5,-995"/>
<polygon fill="none" stroke="black" points="1457.5,-995 1457.5,-1019 1985.5,-1019 1985.5,-995 1457.5,-995"/>
<text text-anchor="start" x="1497" y="-1003.2" font-family="Times,serif" font-size="16.00">Programs written in Rust do not have memory safety issues in practice</text>
<polygon fill="#ffb90f" stroke="transparent" points="1457.5,-969 1457.5,-993 1985.5,-993 1985.5,-969 1457.5,-969"/>
<polygon fill="none" stroke="black" points="1457.5,-969 1457.5,-993 1985.5,-993 1985.5,-969 1457.5,-969"/>
<text text-anchor="start" x="1461.5" y="-977.2" font-family="Times,serif" font-size="16.00">People are unable to produce a crash using only safe Rust and the standard library</text>
<polygon fill="none" stroke="black" points="1454.5,-966 1454.5,-1048 1988.5,-1048 1988.5,-966 1454.5,-966"/>
</g>
<!-- crates&#45;secure&#45;&gt;core&#45;secure -->
<g id="edge4" class="edge">
<title>crates&#45;secure&#45;&gt;core&#45;secure</title>
<path fill="none" stroke="black" d="M1721.5,-1096.89C1721.5,-1084.64 1721.5,-1071 1721.5,-1058.17"/>
<polygon fill="black" stroke="black" points="1725,-1058.08 1721.5,-1048.08 1718,-1058.08 1725,-1058.08"/>
</g>
<!-- safe&#45;rust -->
<g id="node6" class="node">
<title>safe&#45;rust</title>
<polygon fill="darkgoldenrod" stroke="transparent" points="1622.5,-903 1622.5,-927 2085.5,-927 2085.5,-903 1622.5,-903"/>
<polygon fill="none" stroke="black" points="1622.5,-903 1622.5,-927 2085.5,-927 2085.5,-903 1622.5,-903"/>
<text text-anchor="start" x="1796.5" y="-911.2" font-family="Times,serif" font-size="16.00">Safe Rust security</text>
<polygon fill="#ffb90f" stroke="transparent" points="1622.5,-877 1622.5,-901 2085.5,-901 2085.5,-877 1622.5,-877"/>
<polygon fill="none" stroke="black" points="1622.5,-877 1622.5,-901 2085.5,-901 2085.5,-877 1622.5,-877"/>
<text text-anchor="start" x="1687" y="-885.2" font-family="Times,serif" font-size="16.00">MIR has a formal model that has been proven sound</text>
<polygon fill="#ffb90f" stroke="transparent" points="1622.5,-851 1622.5,-875 2085.5,-875 2085.5,-851 1622.5,-851"/>
<polygon fill="none" stroke="black" points="1622.5,-851 1622.5,-875 2085.5,-875 2085.5,-851 1622.5,-851"/>
<text text-anchor="start" x="1626.5" y="-859.2" font-family="Times,serif" font-size="16.00">We have high confidence that Rust&#39;s MIR toolchain matches this model</text>
<polygon fill="cornsilk" stroke="transparent" points="1622.5,-825 1622.5,-849 1701.5,-849 1701.5,-825 1622.5,-825"/>
<polygon fill="none" stroke="black" points="1622.5,-825 1622.5,-849 1701.5,-849 1701.5,-825 1622.5,-825"/>
<text text-anchor="start" x="1637.5" y="-833.2" font-family="Times,serif" font-size="16.00">▯▯▯▯▯</text>
<polygon fill="cornsilk" stroke="transparent" points="1703.5,-825 1703.5,-849 2085.5,-849 2085.5,-825 1703.5,-825"/>
<polygon fill="none" stroke="black" points="1703.5,-825 1703.5,-849 2085.5,-849 2085.5,-825 1703.5,-825"/>
<text text-anchor="start" x="1786.5" y="-833.2" font-family="Times,serif" font-size="16.00">Soundness conformance test suite</text>
<polygon fill="cornsilk" stroke="transparent" points="1622.5,-799 1622.5,-823 1701.5,-823 1701.5,-799 1622.5,-799"/>
<polygon fill="none" stroke="black" points="1622.5,-799 1622.5,-823 1701.5,-823 1701.5,-799 1622.5,-799"/>
<text text-anchor="start" x="1637.5" y="-807.2" font-family="Times,serif" font-size="16.00">▯▯▯▯▯</text>
<polygon fill="cornsilk" stroke="transparent" points="1703.5,-799 1703.5,-823 2085.5,-823 2085.5,-799 1703.5,-799"/>
<polygon fill="none" stroke="black" points="1703.5,-799 1703.5,-823 2085.5,-823 2085.5,-799 1703.5,-799"/>
<text text-anchor="start" x="1822" y="-807.2" font-family="Times,serif" font-size="16.00">Develop formal model</text>
<polygon fill="cornsilk" stroke="transparent" points="1622.5,-773 1622.5,-797 1701.5,-797 1701.5,-773 1622.5,-773"/>
<polygon fill="none" stroke="black" points="1622.5,-773 1622.5,-797 1701.5,-797 1701.5,-773 1622.5,-773"/>
<text text-anchor="start" x="1637.5" y="-781.2" font-family="Times,serif" font-size="16.00">▯▯▯▯▯</text>
<polygon fill="cornsilk" stroke="transparent" points="1703.5,-773 1703.5,-797 2085.5,-797 2085.5,-773 1703.5,-773"/>
<polygon fill="none" stroke="black" points="1703.5,-773 1703.5,-797 2085.5,-797 2085.5,-773 1703.5,-773"/>
<text text-anchor="start" x="1718.5" y="-781.2" font-family="Times,serif" font-size="16.00">Rearchitect core parts of compiler for clarity, flexibility</text>
<polygon fill="cornsilk" stroke="transparent" points="1622.5,-747 1622.5,-771 1701.5,-771 1701.5,-747 1622.5,-747"/>
<polygon fill="none" stroke="black" points="1622.5,-747 1622.5,-771 1701.5,-771 1701.5,-747 1622.5,-747"/>
<text text-anchor="start" x="1637.5" y="-755.2" font-family="Times,serif" font-size="16.00">▯▯▯▯▯</text>
<polygon fill="cornsilk" stroke="transparent" points="1703.5,-747 1703.5,-771 2085.5,-771 2085.5,-747 1703.5,-747"/>
<polygon fill="none" stroke="black" points="1703.5,-747 1703.5,-771 2085.5,-771 2085.5,-747 1703.5,-747"/>
<text text-anchor="start" x="1796.5" y="-755.2" font-family="Times,serif" font-size="16.00">Fixing known soundness bugs</text>
<polygon fill="none" stroke="black" points="1619,-744 1619,-930 2088,-930 2088,-744 1619,-744"/>
</g>
<!-- core&#45;secure&#45;&gt;safe&#45;rust -->
<g id="edge5" class="edge">
<title>core&#45;secure&#45;&gt;safe&#45;rust</title>
<path fill="none" stroke="black" d="M1753.12,-965.76C1759.79,-957.27 1767.12,-947.94 1774.67,-938.32"/>
<polygon fill="black" stroke="black" points="1777.64,-940.21 1781.07,-930.19 1772.14,-935.89 1777.64,-940.21"/>
</g>
<!-- unsafe&#45;rust -->
<g id="node7" class="node">
<title>unsafe&#45;rust</title>
<polygon fill="darkgoldenrod" stroke="transparent" points="1278.5,-681 1278.5,-705 1903.5,-705 1903.5,-681 1278.5,-681"/>
<polygon fill="none" stroke="black" points="1278.5,-681 1278.5,-705 1903.5,-705 1903.5,-681 1278.5,-681"/>
<text text-anchor="start" x="1525" y="-689.2" font-family="Times,serif" font-size="16.00">Unsafe Rust security</text>
<polygon fill="#ffb90f" stroke="transparent" points="1278.5,-655 1278.5,-679 1903.5,-679 1903.5,-655 1278.5,-655"/>
<polygon fill="none" stroke="black" points="1278.5,-655 1278.5,-679 1903.5,-679 1903.5,-655 1278.5,-655"/>
<text text-anchor="start" x="1282.5" y="-663.2" font-family="Times,serif" font-size="16.00">The soundness rules for unsafe code are understood and followed by authors of unsafe Rust code</text>
<polygon fill="#ffb90f" stroke="transparent" points="1278.5,-629 1278.5,-653 1903.5,-653 1903.5,-629 1278.5,-629"/>
<polygon fill="none" stroke="black" points="1278.5,-629 1278.5,-653 1903.5,-653 1903.5,-629 1278.5,-629"/>
<text text-anchor="start" x="1326" y="-637.2" font-family="Times,serif" font-size="16.00">Tooling to dynamically test soundness of unsafe code is accessible and widely used</text>
<polygon fill="#ffb90f" stroke="transparent" points="1278.5,-603 1278.5,-627 1903.5,-627 1903.5,-603 1278.5,-603"/>
<polygon fill="none" stroke="black" points="1278.5,-603 1278.5,-627 1903.5,-627 1903.5,-603 1278.5,-603"/>
<text text-anchor="start" x="1386.5" y="-611.2" font-family="Times,serif" font-size="16.00">Tooling to statically prove soundness of unsafe code is available</text>
<polygon fill="#ffb90f" stroke="transparent" points="1278.5,-577 1278.5,-601 1903.5,-601 1903.5,-577 1278.5,-577"/>
<polygon fill="none" stroke="black" points="1278.5,-577 1278.5,-601 1903.5,-601 1903.5,-577 1278.5,-577"/>
<text text-anchor="start" x="1451" y="-585.2" font-family="Times,serif" font-size="16.00">Core Rust crates that have soundness proofs</text>
<polygon fill="cornsilk" stroke="transparent" points="1278.5,-551 1278.5,-575 1475.5,-575 1475.5,-551 1278.5,-551"/>
<polygon fill="none" stroke="black" points="1278.5,-551 1278.5,-575 1475.5,-575 1475.5,-551 1278.5,-551"/>
<text text-anchor="start" x="1352.5" y="-559.2" font-family="Times,serif" font-size="16.00">▯▯▯▯▯</text>
<polygon fill="cornsilk" stroke="transparent" points="1477.5,-551 1477.5,-575 1903.5,-575 1903.5,-551 1477.5,-551"/>
<polygon fill="none" stroke="black" points="1477.5,-551 1477.5,-575 1903.5,-575 1903.5,-551 1477.5,-551"/>
<text text-anchor="start" x="1616.5" y="-559.2" font-family="Times,serif" font-size="16.00">Unsafe code guidelines</text>
<polygon fill="cornsilk" stroke="transparent" points="1278.5,-525 1278.5,-549 1475.5,-549 1475.5,-525 1278.5,-525"/>
<polygon fill="none" stroke="black" points="1278.5,-525 1278.5,-549 1475.5,-549 1475.5,-525 1278.5,-525"/>
<text text-anchor="start" x="1352.5" y="-533.2" font-family="Times,serif" font-size="16.00">▯▯▯▯▯</text>
<polygon fill="cornsilk" stroke="transparent" points="1477.5,-525 1477.5,-549 1903.5,-549 1903.5,-525 1477.5,-525"/>
<polygon fill="none" stroke="black" points="1477.5,-525 1477.5,-549 1903.5,-549 1903.5,-525 1477.5,-525"/>
<text text-anchor="start" x="1552" y="-533.2" font-family="Times,serif" font-size="16.00">Sanitizers and other dynamic testers for UB</text>
<polygon fill="cornsilk" stroke="transparent" points="1278.5,-499 1278.5,-523 1475.5,-523 1475.5,-499 1278.5,-499"/>
<polygon fill="none" stroke="black" points="1278.5,-499 1278.5,-523 1475.5,-523 1475.5,-499 1278.5,-499"/>
<text text-anchor="start" x="1352.5" y="-507.2" font-family="Times,serif" font-size="16.00">▯▯▯▯▯</text>
<polygon fill="cornsilk" stroke="transparent" points="1477.5,-499 1477.5,-523 1903.5,-523 1903.5,-499 1477.5,-499"/>
<polygon fill="none" stroke="black" points="1477.5,-499 1477.5,-523 1903.5,-523 1903.5,-499 1477.5,-499"/>
<text text-anchor="start" x="1556" y="-507.2" font-family="Times,serif" font-size="16.00">Model checkers and Rust theorem provers</text>
<polygon fill="cornsilk" stroke="transparent" points="1278.5,-473 1278.5,-497 1475.5,-497 1475.5,-473 1278.5,-473"/>
<polygon fill="none" stroke="black" points="1278.5,-473 1278.5,-497 1475.5,-497 1475.5,-473 1278.5,-473"/>
<text text-anchor="start" x="1352.5" y="-481.2" font-family="Times,serif" font-size="16.00">▯▯▯▯▯</text>
<polygon fill="cornsilk" stroke="transparent" points="1477.5,-473 1477.5,-497 1903.5,-497 1903.5,-473 1477.5,-473"/>
<polygon fill="none" stroke="black" points="1477.5,-473 1477.5,-497 1903.5,-497 1903.5,-473 1477.5,-473"/>
<text text-anchor="start" x="1560.5" y="-481.2" font-family="Times,serif" font-size="16.00">Standard library specification and proofs</text>
<polygon fill="none" stroke="black" points="1275,-470 1275,-708 1906,-708 1906,-470 1275,-470"/>
</g>
<!-- core&#45;secure&#45;&gt;unsafe&#45;rust -->
<g id="edge6" class="edge">
<title>core&#45;secure&#45;&gt;unsafe&#45;rust</title>
<path fill="none" stroke="black" d="M1642.76,-965.82C1629.98,-955.84 1618.37,-943.93 1610.5,-930 1574.65,-866.6 1568.67,-785.49 1572.12,-718.4"/>
<polygon fill="black" stroke="black" points="1575.62,-718.37 1572.72,-708.18 1568.63,-717.96 1575.62,-718.37"/>
</g>
<!-- safe&#45;rust&#45;&gt;unsafe&#45;rust -->
<g id="edge7" class="edge">
<title>safe&#45;rust&#45;&gt;unsafe&#45;rust</title>
<path fill="none" stroke="black" d="M1754.82,-743.7C1744.85,-734.37 1734.61,-724.8 1724.35,-715.2"/>
<polygon fill="black" stroke="black" points="1726.58,-712.49 1716.89,-708.22 1721.8,-717.6 1726.58,-712.49"/>
</g>
<!-- formal&#45;methods&#45;tooling -->
<g id="node8" class="node">
<title>formal&#45;methods&#45;tooling</title>
<polygon fill="darkgoldenrod" stroke="transparent" points="1927.5,-668 1927.5,-692 2439.5,-692 2439.5,-668 1927.5,-668"/>
<polygon fill="none" stroke="black" points="1927.5,-668 1927.5,-692 2439.5,-692 2439.5,-668 1927.5,-668"/>
<text text-anchor="start" x="2094.5" y="-676.2" font-family="Times,serif" font-size="16.00">Tooling for formal methods</text>
<polygon fill="#ffb90f" stroke="transparent" points="1927.5,-642 1927.5,-666 2439.5,-666 2439.5,-642 1927.5,-642"/>
<polygon fill="none" stroke="black" points="1927.5,-642 1927.5,-666 2439.5,-666 2439.5,-642 1927.5,-642"/>
<text text-anchor="start" x="1931.5" y="-650.2" font-family="Times,serif" font-size="16.00">Developers extending Rust with unsafe Rust can prove these extensions correct</text>
<polygon fill="#ffb90f" stroke="transparent" points="1927.5,-616 1927.5,-640 2439.5,-640 2439.5,-616 1927.5,-616"/>
<polygon fill="none" stroke="black" points="1927.5,-616 1927.5,-640 2439.5,-640 2439.5,-616 1927.5,-616"/>
<text text-anchor="start" x="1964.5" y="-624.2" font-family="Times,serif" font-size="16.00">Developers can prove their Rust code meets functional specifications</text>
<polygon fill="#ffb90f" stroke="transparent" points="1927.5,-590 1927.5,-614 2439.5,-614 2439.5,-590 1927.5,-590"/>
<polygon fill="none" stroke="black" points="1927.5,-590 1927.5,-614 2439.5,-614 2439.5,-590 1927.5,-590"/>
<text text-anchor="start" x="2002" y="-598.2" font-family="Times,serif" font-size="16.00">Developers can prove their Rust code meets specification</text>
<polygon fill="cornsilk" stroke="transparent" points="1927.5,-564 1927.5,-588 2067.5,-588 2067.5,-564 1927.5,-564"/>
<polygon fill="none" stroke="black" points="1927.5,-564 1927.5,-588 2067.5,-588 2067.5,-564 1927.5,-564"/>
<text text-anchor="start" x="1973" y="-572.2" font-family="Times,serif" font-size="16.00">▮▯▯▯▯</text>
<polygon fill="cornsilk" stroke="transparent" points="2069.5,-564 2069.5,-588 2439.5,-588 2439.5,-564 2069.5,-564"/>
<polygon fill="none" stroke="black" points="2069.5,-564 2069.5,-588 2439.5,-588 2439.5,-564 2069.5,-564"/>
<text text-anchor="start" x="2115.5" y="-572.2" font-family="Times,serif" font-size="16.00">Sanitizer / dynamic checker for unsafe code</text>
<polygon fill="cornsilk" stroke="transparent" points="1927.5,-538 1927.5,-562 2067.5,-562 2067.5,-538 1927.5,-538"/>
<polygon fill="none" stroke="black" points="1927.5,-538 1927.5,-562 2067.5,-562 2067.5,-538 1927.5,-538"/>
<text text-anchor="start" x="1973" y="-546.2" font-family="Times,serif" font-size="16.00">▮▯▯▯▯</text>
<polygon fill="cornsilk" stroke="transparent" points="2069.5,-538 2069.5,-562 2439.5,-562 2439.5,-538 2069.5,-538"/>
<polygon fill="none" stroke="black" points="2069.5,-538 2069.5,-562 2439.5,-562 2439.5,-538 2069.5,-538"/>
<text text-anchor="start" x="2162.5" y="-546.2" font-family="Times,serif" font-size="16.00">Model checker for Rust code</text>
<polygon fill="cornsilk" stroke="transparent" points="1927.5,-512 1927.5,-536 2067.5,-536 2067.5,-512 1927.5,-512"/>
<polygon fill="none" stroke="black" points="1927.5,-512 1927.5,-536 2067.5,-536 2067.5,-512 1927.5,-512"/>
<text text-anchor="start" x="1973" y="-520.2" font-family="Times,serif" font-size="16.00">▯▯▯▯▯</text>
<polygon fill="cornsilk" stroke="transparent" points="2069.5,-512 2069.5,-536 2439.5,-536 2439.5,-512 2069.5,-512"/>
<polygon fill="none" stroke="black" points="2069.5,-512 2069.5,-536 2439.5,-536 2439.5,-512 2069.5,-512"/>
<text text-anchor="start" x="2141.5" y="-520.2" font-family="Times,serif" font-size="16.00">Rust standard library proven sound</text>
<polygon fill="cornsilk" stroke="transparent" points="1927.5,-486 1927.5,-510 2067.5,-510 2067.5,-486 1927.5,-486"/>
<polygon fill="none" stroke="black" points="1927.5,-486 1927.5,-510 2067.5,-510 2067.5,-486 1927.5,-486"/>
<text text-anchor="start" x="1973" y="-494.2" font-family="Times,serif" font-size="16.00">▮▯▯▯▯</text>
<polygon fill="cornsilk" stroke="transparent" points="2069.5,-486 2069.5,-510 2439.5,-510 2439.5,-486 2069.5,-486"/>
<polygon fill="none" stroke="black" points="2069.5,-486 2069.5,-510 2439.5,-510 2439.5,-486 2069.5,-486"/>
<text text-anchor="start" x="2159" y="-494.2" font-family="Times,serif" font-size="16.00">Packages on crates.io checked</text>
<polygon fill="none" stroke="black" points="1924.5,-483 1924.5,-695 2442.5,-695 2442.5,-483 1924.5,-483"/>
</g>
<!-- safe&#45;rust&#45;&gt;formal&#45;methods&#45;tooling -->
<g id="edge8" class="edge">
<title>safe&#45;rust&#45;&gt;formal&#45;methods&#45;tooling</title>
<path fill="none" stroke="black" d="M1977.32,-743.7C1995.96,-729.8 2015.35,-715.34 2034.46,-701.1"/>
<polygon fill="black" stroke="black" points="2036.7,-703.8 2042.63,-695.02 2032.52,-698.19 2036.7,-703.8"/>
</g>
<!-- semi&#45;stable&#45;apis -->
<g id="node10" class="node">
<title>semi&#45;stable&#45;apis</title>
<polygon fill="darkgoldenrod" stroke="transparent" points="1977.5,-407 1977.5,-431 2389.5,-431 2389.5,-407 1977.5,-407"/>
<polygon fill="none" stroke="black" points="1977.5,-407 1977.5,-431 2389.5,-431 2389.5,-407 1977.5,-407"/>
<text text-anchor="start" x="2128" y="-415.2" font-family="Times,serif" font-size="16.00">Semi&#45;stable APIs</text>
<polygon fill="#ffb90f" stroke="transparent" points="1977.5,-381 1977.5,-405 2389.5,-405 2389.5,-381 1977.5,-381"/>
<polygon fill="none" stroke="black" points="1977.5,-381 1977.5,-405 2389.5,-405 2389.5,-381 1977.5,-381"/>
<text text-anchor="start" x="2016.5" y="-389.2" font-family="Times,serif" font-size="16.00">Compiler offers semi&#45;stable APIs that others can use</text>
<polygon fill="cornsilk" stroke="transparent" points="1977.5,-355 1977.5,-379 2032.5,-379 2032.5,-355 1977.5,-355"/>
<polygon fill="none" stroke="black" points="1977.5,-355 1977.5,-379 2032.5,-379 2032.5,-355 1977.5,-355"/>
<text text-anchor="start" x="1980.5" y="-363.2" font-family="Times,serif" font-size="16.00">▯▯▯▯▯</text>
<polygon fill="cornsilk" stroke="transparent" points="2034.5,-355 2034.5,-379 2389.5,-379 2389.5,-355 2034.5,-355"/>
<polygon fill="none" stroke="black" points="2034.5,-355 2034.5,-379 2389.5,-379 2389.5,-355 2034.5,-355"/>
<text text-anchor="start" x="2085" y="-363.2" font-family="Times,serif" font-size="16.00">Shared crate for representing Rust types</text>
<polygon fill="cornsilk" stroke="transparent" points="1977.5,-329 1977.5,-353 2032.5,-353 2032.5,-329 1977.5,-329"/>
<polygon fill="none" stroke="black" points="1977.5,-329 1977.5,-353 2032.5,-353 2032.5,-329 1977.5,-329"/>
<text text-anchor="start" x="1980.5" y="-337.2" font-family="Times,serif" font-size="16.00">▯▯▯▯▯</text>
<polygon fill="cornsilk" stroke="transparent" points="2034.5,-329 2034.5,-353 2389.5,-353 2389.5,-329 2034.5,-329"/>
<polygon fill="none" stroke="black" points="2034.5,-329 2034.5,-353 2389.5,-353 2389.5,-329 2034.5,-329"/>
<text text-anchor="start" x="2037.5" y="-337.2" font-family="Times,serif" font-size="16.00">Access to Rust type information and type check results</text>
<polygon fill="cornsilk" stroke="transparent" points="1977.5,-303 1977.5,-327 2032.5,-327 2032.5,-303 1977.5,-303"/>
<polygon fill="none" stroke="black" points="1977.5,-303 1977.5,-327 2032.5,-327 2032.5,-303 1977.5,-303"/>
<text text-anchor="start" x="1980.5" y="-311.2" font-family="Times,serif" font-size="16.00">▯▯▯▯▯</text>
<polygon fill="cornsilk" stroke="transparent" points="2034.5,-303 2034.5,-327 2389.5,-327 2389.5,-303 2034.5,-303"/>
<polygon fill="none" stroke="black" points="2034.5,-303 2034.5,-327 2389.5,-327 2389.5,-303 2034.5,-303"/>
<text text-anchor="start" x="2120.5" y="-311.2" font-family="Times,serif" font-size="16.00">Ability to ask &#39;hypotheticals&#39;</text>
<polygon fill="cornsilk" stroke="transparent" points="1977.5,-277 1977.5,-301 2032.5,-301 2032.5,-277 1977.5,-277"/>
<polygon fill="none" stroke="black" points="1977.5,-277 1977.5,-301 2032.5,-301 2032.5,-277 1977.5,-277"/>
<text text-anchor="start" x="1980.5" y="-285.2" font-family="Times,serif" font-size="16.00">▯▯▯▯▯</text>
<polygon fill="cornsilk" stroke="transparent" points="2034.5,-277 2034.5,-301 2389.5,-301 2389.5,-277 2034.5,-277"/>
<polygon fill="none" stroke="black" points="2034.5,-277 2034.5,-301 2389.5,-301 2389.5,-277 2034.5,-277"/>
<text text-anchor="start" x="2088" y="-285.2" font-family="Times,serif" font-size="16.00">Access to the MIR for a given function</text>
<polygon fill="none" stroke="black" points="1974.5,-274 1974.5,-434 2392.5,-434 2392.5,-274 1974.5,-274"/>
</g>
<!-- formal&#45;methods&#45;tooling&#45;&gt;semi&#45;stable&#45;apis -->
<g id="edge9" class="edge">
<title>formal&#45;methods&#45;tooling&#45;&gt;semi&#45;stable&#45;apis</title>
<path fill="none" stroke="black" d="M2183.5,-482.75C2183.5,-470.03 2183.5,-457.13 2183.5,-444.66"/>
<polygon fill="black" stroke="black" points="2187,-444.31 2183.5,-434.31 2180,-444.31 2187,-444.31"/>
</g>
<!-- fundamentals -->
<g id="node9" class="node">
<title>fundamentals</title>
<polygon fill="darkgoldenrod" stroke="transparent" points="1976.5,-211 1976.5,-235 2391.5,-235 2391.5,-211 1976.5,-211"/>
<polygon fill="none" stroke="black" points="1976.5,-211 1976.5,-235 2391.5,-235 2391.5,-211 1976.5,-211"/>
<text text-anchor="start" x="2124" y="-219.2" font-family="Times,serif" font-size="16.00">Rust fundamentals</text>
<polygon fill="#ffb90f" stroke="transparent" points="1976.5,-185 1976.5,-209 2391.5,-209 2391.5,-185 1976.5,-185"/>
<polygon fill="none" stroke="black" points="1976.5,-185 1976.5,-209 2391.5,-209 2391.5,-185 1976.5,-185"/>
<text text-anchor="start" x="2075.5" y="-193.2" font-family="Times,serif" font-size="16.00">Easy to contribute to the compiler</text>
<polygon fill="#ffb90f" stroke="transparent" points="1976.5,-159 1976.5,-183 2391.5,-183 2391.5,-159 1976.5,-159"/>
<polygon fill="none" stroke="black" points="1976.5,-159 1976.5,-183 2391.5,-183 2391.5,-159 1976.5,-159"/>
<text text-anchor="start" x="2066" y="-167.2" font-family="Times,serif" font-size="16.00">Language semantics well understood</text>
<polygon fill="#ffb90f" stroke="transparent" points="1976.5,-133 1976.5,-157 2391.5,-157 2391.5,-133 1976.5,-133"/>
<polygon fill="none" stroke="black" points="1976.5,-133 1976.5,-157 2391.5,-157 2391.5,-133 1976.5,-133"/>
<text text-anchor="start" x="2036.5" y="-141.2" font-family="Times,serif" font-size="16.00">Extending language possible by mere humans</text>
<polygon fill="cornsilk" stroke="transparent" points="1976.5,-107 1976.5,-131 2031.5,-131 2031.5,-107 1976.5,-107"/>
<polygon fill="none" stroke="black" points="1976.5,-107 1976.5,-131 2031.5,-131 2031.5,-107 1976.5,-107"/>
<text text-anchor="start" x="1979.5" y="-115.2" font-family="Times,serif" font-size="16.00">▮▮▮▯▯</text>
<polygon fill="cornsilk" stroke="transparent" points="2033.5,-107 2033.5,-131 2391.5,-131 2391.5,-107 2033.5,-107"/>
<polygon fill="none" stroke="black" points="2033.5,-107 2033.5,-131 2391.5,-131 2391.5,-107 2033.5,-107"/>
<text text-anchor="start" x="2036.5" y="-115.2" font-family="Times,serif" font-size="16.00">Rearchitect traits/borrow&#45;checking as logical predicates</text>
<polygon fill="cornsilk" stroke="transparent" points="1976.5,-81 1976.5,-105 2031.5,-105 2031.5,-81 1976.5,-81"/>
<polygon fill="none" stroke="black" points="1976.5,-81 1976.5,-105 2031.5,-105 2031.5,-81 1976.5,-81"/>
<text text-anchor="start" x="1979.5" y="-89.2" font-family="Times,serif" font-size="16.00">▮▯▯▯▯</text>
<polygon fill="cornsilk" stroke="transparent" points="2033.5,-81 2033.5,-105 2391.5,-105 2391.5,-81 2033.5,-81"/>
<polygon fill="none" stroke="black" points="2033.5,-81 2033.5,-105 2391.5,-105 2391.5,-81 2033.5,-81"/>
<text text-anchor="start" x="2106" y="-89.2" font-family="Times,serif" font-size="16.00">Core Rust semantics documented</text>
<polygon fill="cornsilk" stroke="transparent" points="1976.5,-55 1976.5,-79 2031.5,-79 2031.5,-55 1976.5,-55"/>
<polygon fill="none" stroke="black" points="1976.5,-55 1976.5,-79 2031.5,-79 2031.5,-55 1976.5,-55"/>
<text text-anchor="start" x="1979.5" y="-63.2" font-family="Times,serif" font-size="16.00">▮▯▯▯▯</text>
<polygon fill="cornsilk" stroke="transparent" points="2033.5,-55 2033.5,-79 2391.5,-79 2391.5,-55 2033.5,-55"/>
<polygon fill="none" stroke="black" points="2033.5,-55 2033.5,-79 2391.5,-79 2391.5,-55 2033.5,-55"/>
<text text-anchor="start" x="2150.5" y="-63.2" font-family="Times,serif" font-size="16.00">Proof of soundness</text>
<polygon fill="cornsilk" stroke="transparent" points="1976.5,-29 1976.5,-53 2031.5,-53 2031.5,-29 1976.5,-29"/>
<polygon fill="none" stroke="black" points="1976.5,-29 1976.5,-53 2031.5,-53 2031.5,-29 1976.5,-29"/>
<text text-anchor="start" x="1979.5" y="-37.2" font-family="Times,serif" font-size="16.00">▮▮▯▯▯</text>
<polygon fill="cornsilk" stroke="transparent" points="2033.5,-29 2033.5,-53 2391.5,-53 2391.5,-29 2033.5,-29"/>
<polygon fill="none" stroke="black" points="2033.5,-29 2033.5,-53 2391.5,-53 2391.5,-29 2033.5,-29"/>
<text text-anchor="start" x="2138.5" y="-37.2" font-family="Times,serif" font-size="16.00">Unsafe code guidelines</text>
<polygon fill="cornsilk" stroke="transparent" points="1976.5,-3 1976.5,-27 2031.5,-27 2031.5,-3 1976.5,-3"/>
<polygon fill="none" stroke="black" points="1976.5,-3 1976.5,-27 2031.5,-27 2031.5,-3 1976.5,-3"/>
<text text-anchor="start" x="1979.5" y="-11.2" font-family="Times,serif" font-size="16.00">▮▮▯▯▯</text>
<polygon fill="cornsilk" stroke="transparent" points="2033.5,-3 2033.5,-27 2391.5,-27 2391.5,-3 2033.5,-3"/>
<polygon fill="none" stroke="black" points="2033.5,-3 2033.5,-27 2391.5,-27 2391.5,-3 2033.5,-3"/>
<text text-anchor="start" x="2114.5" y="-11.2" font-family="Times,serif" font-size="16.00">Known soundness bugs closed</text>
<polygon fill="none" stroke="black" points="1973,0 1973,-238 2394,-238 2394,0 1973,0"/>
</g>
<!-- semi&#45;stable&#45;apis&#45;&gt;fundamentals -->
<g id="edge10" class="edge">
<title>semi&#45;stable&#45;apis&#45;&gt;fundamentals</title>
<path fill="none" stroke="black" d="M2183.5,-273.79C2183.5,-265.54 2183.5,-257.01 2183.5,-248.4"/>
<polygon fill="black" stroke="black" points="2187,-248.25 2183.5,-238.25 2180,-248.25 2187,-248.25"/>
</g>
</g>
</svg>
