<?xml version="1.0" encoding="UTF-8" standalone="no"?>
<!DOCTYPE svg PUBLIC "-//W3C//DTD SVG 1.1//EN"
 "http://www.w3.org/Graphics/SVG/1.1/DTD/svg11.dtd">
<!-- Generated by graphviz version 2.43.0 (0)
 -->
<!-- Title: g Pages: 1 -->
<svg width="2060pt" height="1460pt"
 viewBox="0.00 0.00 2060.00 1460.00" xmlns="http://www.w3.org/2000/svg" xmlns:xlink="http://www.w3.org/1999/xlink">
<g id="graph0" class="graph" transform="scale(1 1) rotate(0) translate(4 1456)">
<title>g</title>
<polygon fill="white" stroke="transparent" points="-4,4 -4,-1456 2056,-1456 2056,4 -4,4"/>
<!-- goal&#45;internet&#45;services -->
<g id="node1" class="node">
<title>goal&#45;internet&#45;services</title>
<polygon fill="darkgoldenrod" stroke="transparent" points="261,-1425 261,-1449 948,-1449 948,-1425 261,-1425"/>
<polygon fill="none" stroke="black" points="261,-1425 261,-1449 948,-1449 948,-1425 261,-1425"/>
<text text-anchor="start" x="376" y="-1433.2" font-family="Times,serif" font-size="16.00">🎯 Rust a common choice for building internet services</text>
<polygon fill="#ffb90f" stroke="transparent" points="261,-1399 261,-1423 948,-1423 948,-1399 261,-1399"/>
<polygon fill="none" stroke="black" points="261,-1399 261,-1423 948,-1423 948,-1399 261,-1399"/>
<text text-anchor="start" x="513.5" y="-1407.2" font-family="Times,serif" font-size="16.00">Faster response times</text>
<polygon fill="#ffb90f" stroke="transparent" points="261,-1373 261,-1397 948,-1397 948,-1373 261,-1373"/>
<polygon fill="none" stroke="black" points="261,-1373 261,-1397 948,-1397 948,-1373 261,-1373"/>
<text text-anchor="start" x="436" y="-1381.2" font-family="Times,serif" font-size="16.00">Ratio of P99.99 to P50 latencies is lower</text>
<polygon fill="#ffb90f" stroke="transparent" points="261,-1347 261,-1371 948,-1371 948,-1347 261,-1347"/>
<polygon fill="none" stroke="black" points="261,-1347 261,-1371 948,-1371 948,-1347 261,-1347"/>
<text text-anchor="start" x="322.5" y="-1355.2" font-family="Times,serif" font-size="16.00">Data centers require fewer resources to sustain same level of traffic</text>
<polygon fill="#ffb90f" stroke="transparent" points="261,-1321 261,-1345 948,-1345 948,-1321 261,-1321"/>
<polygon fill="none" stroke="black" points="261,-1321 261,-1345 948,-1345 948,-1321 261,-1321"/>
<text text-anchor="start" x="265" y="-1329.2" font-family="Times,serif" font-size="16.00">Common classes of security vulnerabilities are eliminated or significantly reduced</text>
<polygon fill="#ffb90f" stroke="transparent" points="261,-1295 261,-1319 948,-1319 948,-1295 261,-1295"/>
<polygon fill="none" stroke="black" points="261,-1295 261,-1319 948,-1319 948,-1295 261,-1295"/>
<text text-anchor="start" x="495" y="-1303.2" font-family="Times,serif" font-size="16.00">Improved ability to recruit</text>
<polygon fill="none" stroke="black" points="257.5,-1292 257.5,-1452 950.5,-1452 950.5,-1292 257.5,-1292"/>
</g>
<!-- prod&#45;tooling -->
<g id="node2" class="node">
<title>prod&#45;tooling</title>
<polygon fill="darkgoldenrod" stroke="transparent" points="3,-1203 3,-1227 573,-1227 573,-1203 3,-1203"/>
<polygon fill="none" stroke="black" points="3,-1203 3,-1227 573,-1227 573,-1203 3,-1203"/>
<text text-anchor="start" x="211" y="-1211.2" font-family="Times,serif" font-size="16.00">Production tooling</text>
<polygon fill="#ffb90f" stroke="transparent" points="3,-1177 3,-1201 573,-1201 573,-1177 3,-1177"/>
<polygon fill="none" stroke="black" points="3,-1177 3,-1201 573,-1201 573,-1177 3,-1177"/>
<text text-anchor="start" x="11.5" y="-1185.2" font-family="Times,serif" font-size="16.00">Able to troubleshoot correctness problems that arise in production</text>
<polygon fill="#ffb90f" stroke="transparent" points="3,-1151 3,-1175 573,-1175 573,-1151 3,-1151"/>
<polygon fill="none" stroke="black" points="3,-1151 3,-1175 573,-1175 573,-1151 3,-1151"/>
<text text-anchor="start" x="7" y="-1159.2" font-family="Times,serif" font-size="16.00">Able to troubleshoot performance problems that arise in production</text>
<polygon fill="cornsilk" stroke="transparent" points="3,-1125 3,-1149 100,-1149 100,-1125 3,-1125"/>
<polygon fill="none" stroke="black" points="3,-1125 3,-1149 100,-1149 100,-1125 3,-1125"/>
<text text-anchor="start" x="7.5" y="-1133.2" font-family="Times,serif" font-size="16.00">(not sure!)</text>
<polygon fill="cornsilk" stroke="transparent" points="102,-1125 102,-1149 573,-1149 573,-1125 102,-1125"/>
<polygon fill="none" stroke="black" points="102,-1125 102,-1149 573,-1149 573,-1125 102,-1125"/>
<text text-anchor="start" x="222" y="-1133.2" font-family="Times,serif" font-size="16.00">Async runtime observability</text>
<polygon fill="cornsilk" stroke="transparent" points="3,-1099 3,-1123 100,-1123 100,-1099 3,-1099"/>
<polygon fill="none" stroke="black" points="3,-1099 3,-1123 100,-1123 100,-1099 3,-1099"/>
<text text-anchor="start" x="28.5" y="-1107.2" font-family="Times,serif" font-size="16.00">▮▮▯▯▯</text>
<polygon fill="cornsilk" stroke="transparent" points="102,-1099 102,-1123 573,-1123 573,-1099 102,-1099"/>
<polygon fill="none" stroke="black" points="102,-1099 102,-1123 573,-1123 573,-1099 102,-1099"/>
<text text-anchor="start" x="190" y="-1107.2" font-family="Times,serif" font-size="16.00">Readable stacktraces, esp. in async</text>
<polygon fill="cornsilk" stroke="transparent" points="3,-1073 3,-1097 100,-1097 100,-1073 3,-1073"/>
<polygon fill="none" stroke="black" points="3,-1073 3,-1097 100,-1097 100,-1073 3,-1073"/>
<text text-anchor="start" x="28.5" y="-1081.2" font-family="Times,serif" font-size="16.00">▯▯▯▯▯</text>
<polygon fill="cornsilk" stroke="transparent" points="102,-1073 102,-1097 573,-1097 573,-1073 102,-1073"/>
<polygon fill="none" stroke="black" points="102,-1073 102,-1097 573,-1097 573,-1073 102,-1073"/>
<text text-anchor="start" x="107" y="-1081.2" font-family="Times,serif" font-size="16.00">Live, low&#45;overhead profilers for CPU and memory usage</text>
<polygon fill="none" stroke="black" points="0,-1070 0,-1230 576,-1230 576,-1070 0,-1070"/>
</g>
<!-- goal&#45;internet&#45;services&#45;&gt;prod&#45;tooling -->
<g id="edge2" class="edge">
<title>goal&#45;internet&#45;services&#45;&gt;prod&#45;tooling</title>
<path fill="none" stroke="black" d="M490.36,-1291.89C464.34,-1273.77 436.57,-1254.43 410.2,-1236.07"/>
<polygon fill="black" stroke="black" points="411.9,-1232.99 401.69,-1230.15 407.9,-1238.74 411.9,-1232.99"/>
</g>
<!-- dev&#45;tooling -->
<g id="node3" class="node">
<title>dev&#45;tooling</title>
<polygon fill="darkgoldenrod" stroke="transparent" points="34,-968 34,-992 560,-992 560,-968 34,-968"/>
<polygon fill="none" stroke="black" points="34,-968 34,-992 560,-992 560,-968 34,-968"/>
<text text-anchor="start" x="223" y="-976.2" font-family="Times,serif" font-size="16.00">Developer tooling</text>
<polygon fill="#ffb90f" stroke="transparent" points="34,-942 34,-966 560,-966 560,-942 34,-942"/>
<polygon fill="none" stroke="black" points="34,-942 34,-966 560,-966 560,-942 34,-942"/>
<text text-anchor="start" x="64" y="-950.2" font-family="Times,serif" font-size="16.00">Able to understand programs in terms of async behavior</text>
<polygon fill="#ffb90f" stroke="transparent" points="34,-916 34,-940 560,-940 560,-916 34,-916"/>
<polygon fill="none" stroke="black" points="34,-916 34,-940 560,-940 560,-916 34,-916"/>
<text text-anchor="start" x="42.5" y="-924.2" font-family="Times,serif" font-size="16.00">Able to fix correctness problems in development environment</text>
<polygon fill="#ffb90f" stroke="transparent" points="34,-890 34,-914 560,-914 560,-890 34,-890"/>
<polygon fill="none" stroke="black" points="34,-890 34,-914 560,-914 560,-890 34,-890"/>
<text text-anchor="start" x="38" y="-898.2" font-family="Times,serif" font-size="16.00">Able to fix performance problems in development environment</text>
<polygon fill="cornsilk" stroke="transparent" points="34,-864 34,-888 120,-888 120,-864 34,-864"/>
<polygon fill="none" stroke="black" points="34,-864 34,-888 120,-888 120,-864 34,-864"/>
<text text-anchor="start" x="54" y="-872.2" font-family="Times,serif" font-size="16.00">▮▮▯▯▯</text>
<polygon fill="cornsilk" stroke="transparent" points="122,-864 122,-888 560,-888 560,-864 122,-864"/>
<polygon fill="none" stroke="black" points="122,-864 122,-888 560,-888 560,-864 122,-864"/>
<text text-anchor="start" x="247.5" y="-872.2" font-family="Times,serif" font-size="16.00">Quality Rust debugger</text>
<polygon fill="cornsilk" stroke="transparent" points="34,-838 34,-862 120,-862 120,-838 34,-838"/>
<polygon fill="none" stroke="black" points="34,-838 34,-862 120,-862 120,-838 34,-838"/>
<text text-anchor="start" x="54" y="-846.2" font-family="Times,serif" font-size="16.00">▮▮▮▮▯</text>
<polygon fill="cornsilk" stroke="transparent" points="122,-838 122,-862 560,-862 560,-838 122,-838"/>
<polygon fill="none" stroke="black" points="122,-838 122,-862 560,-862 560,-838 122,-838"/>
<text text-anchor="start" x="178.5" y="-846.2" font-family="Times,serif" font-size="16.00">Rust well integrated into common IDEs</text>
<polygon fill="cornsilk" stroke="transparent" points="34,-812 34,-836 120,-836 120,-812 34,-812"/>
<polygon fill="none" stroke="black" points="34,-812 34,-836 120,-836 120,-812 34,-812"/>
<text text-anchor="start" x="54" y="-820.2" font-family="Times,serif" font-size="16.00">▮▮▮▯▯</text>
<polygon fill="cornsilk" stroke="transparent" points="122,-812 122,-836 560,-836 560,-812 122,-812"/>
<polygon fill="none" stroke="black" points="122,-812 122,-836 560,-836 560,-812 122,-812"/>
<text text-anchor="start" x="142" y="-820.2" font-family="Times,serif" font-size="16.00">Async runtime observability (e.g., tokio console)</text>
<polygon fill="cornsilk" stroke="transparent" points="34,-786 34,-810 120,-810 120,-786 34,-786"/>
<polygon fill="none" stroke="black" points="34,-786 34,-810 120,-810 120,-786 34,-786"/>
<text text-anchor="start" x="54" y="-794.2" font-family="Times,serif" font-size="16.00">▮▮▯▯▯</text>
<polygon fill="cornsilk" stroke="transparent" points="122,-786 122,-810 560,-810 560,-786 122,-786"/>
<polygon fill="none" stroke="black" points="122,-786 122,-810 560,-810 560,-786 122,-786"/>
<text text-anchor="start" x="190.5" y="-794.2" font-family="Times,serif" font-size="16.00">Profilers for CPU and memory usage</text>
<polygon fill="none" stroke="black" points="31,-783 31,-995 563,-995 563,-783 31,-783"/>
</g>
<!-- goal&#45;internet&#45;services&#45;&gt;dev&#45;tooling -->
<g id="edge3" class="edge">
<title>goal&#45;internet&#45;services&#45;&gt;dev&#45;tooling</title>
<path fill="none" stroke="black" d="M608.07,-1291.78C610.86,-1208.32 610.31,-1083.59 585,-1044 575.14,-1028.58 563.19,-1014.61 549.84,-1001.95"/>
<polygon fill="black" stroke="black" points="552.02,-999.21 542.27,-995.06 547.31,-1004.38 552.02,-999.21"/>
</g>
<!-- onboarding&#45;time -->
<g id="node6" class="node">
<title>onboarding&#45;time</title>
<polygon fill="darkgoldenrod" stroke="transparent" points="635,-1229 635,-1253 1073,-1253 1073,-1229 635,-1229"/>
<polygon fill="none" stroke="black" points="635,-1229 635,-1253 1073,-1253 1073,-1229 635,-1229"/>
<text text-anchor="start" x="697" y="-1237.2" font-family="Times,serif" font-size="16.00">Smooth onboarding of Rust engineers</text>
<polygon fill="#ffb90f" stroke="transparent" points="635,-1203 635,-1227 1073,-1227 1073,-1203 635,-1203"/>
<polygon fill="none" stroke="black" points="635,-1203 635,-1227 1073,-1227 1073,-1203 635,-1203"/>
<text text-anchor="start" x="639" y="-1211.2" font-family="Times,serif" font-size="16.00">Time to be highly productive is measured in months</text>
<polygon fill="#ffb90f" stroke="transparent" points="635,-1177 635,-1201 1073,-1201 1073,-1177 635,-1177"/>
<polygon fill="none" stroke="black" points="635,-1177 635,-1201 1073,-1201 1073,-1177 635,-1177"/>
<text text-anchor="start" x="645.5" y="-1185.2" font-family="Times,serif" font-size="16.00">Clear transition paths from other major languages</text>
<polygon fill="cornsilk" stroke="transparent" points="635,-1151 635,-1175 722,-1175 722,-1151 635,-1151"/>
<polygon fill="none" stroke="black" points="635,-1151 635,-1175 722,-1175 722,-1151 635,-1151"/>
<text text-anchor="start" x="655.5" y="-1159.2" font-family="Times,serif" font-size="16.00">▮▮▮▮▮</text>
<polygon fill="cornsilk" stroke="transparent" points="724,-1151 724,-1175 1073,-1175 1073,-1151 724,-1151"/>
<polygon fill="none" stroke="black" points="724,-1151 724,-1175 1073,-1175 1073,-1151 724,-1151"/>
<text text-anchor="start" x="761.5" y="-1159.2" font-family="Times,serif" font-size="16.00">Rust beginner learning materials</text>
<polygon fill="cornsilk" stroke="transparent" points="635,-1125 635,-1149 722,-1149 722,-1125 635,-1125"/>
<polygon fill="none" stroke="black" points="635,-1125 635,-1149 722,-1149 722,-1125 635,-1125"/>
<text text-anchor="start" x="655.5" y="-1133.2" font-family="Times,serif" font-size="16.00">▮▮▮▯▯</text>
<polygon fill="cornsilk" stroke="transparent" points="724,-1125 724,-1149 1073,-1149 1073,-1125 724,-1125"/>
<polygon fill="none" stroke="black" points="724,-1125 724,-1149 1073,-1149 1073,-1125 724,-1125"/>
<text text-anchor="start" x="745" y="-1133.2" font-family="Times,serif" font-size="16.00">Rust intermediate learning materials</text>
<polygon fill="cornsilk" stroke="transparent" points="635,-1099 635,-1123 722,-1123 722,-1099 635,-1099"/>
<polygon fill="none" stroke="black" points="635,-1099 635,-1123 722,-1123 722,-1099 635,-1099"/>
<text text-anchor="start" x="655.5" y="-1107.2" font-family="Times,serif" font-size="16.00">▯▯▯▯▯</text>
<polygon fill="cornsilk" stroke="transparent" points="724,-1099 724,-1123 1073,-1123 1073,-1099 724,-1099"/>
<polygon fill="none" stroke="black" points="724,-1099 724,-1123 1073,-1123 1073,-1099 724,-1099"/>
<text text-anchor="start" x="816.5" y="-1107.2" font-family="Times,serif" font-size="16.00">Java transition path</text>
<polygon fill="cornsilk" stroke="transparent" points="635,-1073 635,-1097 722,-1097 722,-1073 635,-1073"/>
<polygon fill="none" stroke="black" points="635,-1073 635,-1097 722,-1097 722,-1073 635,-1073"/>
<text text-anchor="start" x="655.5" y="-1081.2" font-family="Times,serif" font-size="16.00">▮▮▯▯▯</text>
<polygon fill="cornsilk" stroke="transparent" points="724,-1073 724,-1097 1073,-1097 1073,-1073 724,-1073"/>
<polygon fill="none" stroke="black" points="724,-1073 724,-1097 1073,-1097 1073,-1073 724,-1073"/>
<text text-anchor="start" x="814.5" y="-1081.2" font-family="Times,serif" font-size="16.00">C++ transition path</text>
<polygon fill="cornsilk" stroke="transparent" points="635,-1047 635,-1071 722,-1071 722,-1047 635,-1047"/>
<polygon fill="none" stroke="black" points="635,-1047 635,-1071 722,-1071 722,-1047 635,-1047"/>
<text text-anchor="start" x="655.5" y="-1055.2" font-family="Times,serif" font-size="16.00">▮▮▯▯▯</text>
<polygon fill="cornsilk" stroke="transparent" points="724,-1047 724,-1071 1073,-1071 1073,-1047 724,-1047"/>
<polygon fill="none" stroke="black" points="724,-1047 724,-1071 1073,-1071 1073,-1047 724,-1047"/>
<text text-anchor="start" x="757.5" y="-1055.2" font-family="Times,serif" font-size="16.00">Dynamic language transition path</text>
<polygon fill="none" stroke="black" points="632,-1044 632,-1256 1076,-1256 1076,-1044 632,-1044"/>
</g>
<!-- goal&#45;internet&#45;services&#45;&gt;onboarding&#45;time -->
<g id="edge1" class="edge">
<title>goal&#45;internet&#45;services&#45;&gt;onboarding&#45;time</title>
<path fill="none" stroke="black" d="M693.9,-1291.89C704.59,-1282.48 715.66,-1272.74 726.75,-1262.98"/>
<polygon fill="black" stroke="black" points="729.23,-1265.46 734.42,-1256.23 724.6,-1260.21 729.23,-1265.46"/>
</g>
<!-- prod&#45;tooling&#45;&gt;dev&#45;tooling -->
<g id="edge4" class="edge">
<title>prod&#45;tooling&#45;&gt;dev&#45;tooling</title>
<path fill="none" stroke="black" d="M290.75,-1069.88C291.45,-1049.59 292.23,-1027.35 292.98,-1005.63"/>
<polygon fill="black" stroke="black" points="296.49,-1005.47 293.34,-995.36 289.49,-1005.23 296.49,-1005.47"/>
</g>
<!-- semi&#45;stable&#45;apis -->
<g id="node5" class="node">
<title>semi&#45;stable&#45;apis</title>
<polygon fill="darkgoldenrod" stroke="transparent" points="488,-681 488,-705 1003,-705 1003,-681 488,-681"/>
<polygon fill="none" stroke="black" points="488,-681 488,-705 1003,-705 1003,-681 488,-681"/>
<text text-anchor="start" x="676" y="-689.2" font-family="Times,serif" font-size="16.00">Semi&#45;stable APIs</text>
<polygon fill="#ffb90f" stroke="transparent" points="488,-655 488,-679 1003,-679 1003,-655 488,-655"/>
<polygon fill="none" stroke="black" points="488,-655 488,-679 1003,-679 1003,-655 488,-655"/>
<text text-anchor="start" x="529" y="-663.2" font-family="Times,serif" font-size="16.00">Compiler offers semi&#45;stable APIs that others can use</text>
<polygon fill="cornsilk" stroke="transparent" points="488,-629 488,-653 540,-653 540,-629 488,-629"/>
<polygon fill="none" stroke="black" points="488,-629 488,-653 540,-653 540,-629 488,-629"/>
<text text-anchor="start" x="491" y="-637.2" font-family="Times,serif" font-size="16.00">▯▯▯▯▯</text>
<polygon fill="cornsilk" stroke="transparent" points="542,-629 542,-653 1003,-653 1003,-629 542,-629"/>
<polygon fill="none" stroke="black" points="542,-629 542,-653 1003,-653 1003,-629 542,-629"/>
<text text-anchor="start" x="602.5" y="-637.2" font-family="Times,serif" font-size="16.00">Shared crate for representing Rust types</text>
<polygon fill="cornsilk" stroke="transparent" points="488,-603 488,-627 540,-627 540,-603 488,-603"/>
<polygon fill="none" stroke="black" points="488,-603 488,-627 540,-627 540,-603 488,-603"/>
<text text-anchor="start" x="491" y="-611.2" font-family="Times,serif" font-size="16.00">▯▯▯▯▯</text>
<polygon fill="cornsilk" stroke="transparent" points="542,-603 542,-627 1003,-627 1003,-603 542,-603"/>
<polygon fill="none" stroke="black" points="542,-603 542,-627 1003,-627 1003,-603 542,-603"/>
<text text-anchor="start" x="545" y="-611.2" font-family="Times,serif" font-size="16.00">Access to Rust type information and type check results</text>
<polygon fill="cornsilk" stroke="transparent" points="488,-577 488,-601 540,-601 540,-577 488,-577"/>
<polygon fill="none" stroke="black" points="488,-577 488,-601 540,-601 540,-577 488,-577"/>
<text text-anchor="start" x="491" y="-585.2" font-family="Times,serif" font-size="16.00">▯▯▯▯▯</text>
<polygon fill="cornsilk" stroke="transparent" points="542,-577 542,-601 1003,-601 1003,-577 542,-577"/>
<polygon fill="none" stroke="black" points="542,-577 542,-601 1003,-601 1003,-577 542,-577"/>
<text text-anchor="start" x="655.5" y="-585.2" font-family="Times,serif" font-size="16.00">Ability to ask &#39;hypotheticals&#39;</text>
<polygon fill="cornsilk" stroke="transparent" points="488,-551 488,-575 540,-575 540,-551 488,-551"/>
<polygon fill="none" stroke="black" points="488,-551 488,-575 540,-575 540,-551 488,-551"/>
<text text-anchor="start" x="491" y="-559.2" font-family="Times,serif" font-size="16.00">▯▯▯▯▯</text>
<polygon fill="cornsilk" stroke="transparent" points="542,-551 542,-575 1003,-575 1003,-551 542,-551"/>
<polygon fill="none" stroke="black" points="542,-551 542,-575 1003,-575 1003,-551 542,-551"/>
<text text-anchor="start" x="614" y="-559.2" font-family="Times,serif" font-size="16.00">Access to the MIR for a given function</text>
<polygon fill="none" stroke="black" points="484.5,-548 484.5,-708 1005.5,-708 1005.5,-548 484.5,-548"/>
</g>
<!-- dev&#45;tooling&#45;&gt;semi&#45;stable&#45;apis -->
<g id="edge5" class="edge">
<title>dev&#45;tooling&#45;&gt;semi&#45;stable&#45;apis</title>
<path fill="none" stroke="black" d="M478.9,-782.84C519.01,-759.65 560.99,-735.38 599.44,-713.15"/>
<polygon fill="black" stroke="black" points="601.2,-716.18 608.1,-708.14 597.7,-710.12 601.2,-716.18"/>
</g>
<!-- fundamentals -->
<g id="node4" class="node">
<title>fundamentals</title>
<polygon fill="darkgoldenrod" stroke="transparent" points="739,-211 739,-235 1264,-235 1264,-211 739,-211"/>
<polygon fill="none" stroke="black" points="739,-211 739,-235 1264,-235 1264,-211 739,-211"/>
<text text-anchor="start" x="923.5" y="-219.2" font-family="Times,serif" font-size="16.00">Rust fundamentals</text>
<polygon fill="#ffb90f" stroke="transparent" points="739,-185 739,-209 1264,-209 1264,-185 739,-185"/>
<polygon fill="none" stroke="black" points="739,-185 739,-209 1264,-209 1264,-185 739,-185"/>
<text text-anchor="start" x="859.5" y="-193.2" font-family="Times,serif" font-size="16.00">Easy to contribute to the compiler</text>
<polygon fill="#ffb90f" stroke="transparent" points="739,-159 739,-183 1264,-183 1264,-159 739,-159"/>
<polygon fill="none" stroke="black" points="739,-159 739,-183 1264,-183 1264,-159 739,-159"/>
<text text-anchor="start" x="847.5" y="-167.2" font-family="Times,serif" font-size="16.00">Language semantics well understood</text>
<polygon fill="#ffb90f" stroke="transparent" points="739,-133 739,-157 1264,-157 1264,-133 739,-133"/>
<polygon fill="none" stroke="black" points="739,-133 739,-157 1264,-157 1264,-133 739,-133"/>
<text text-anchor="start" x="810.5" y="-141.2" font-family="Times,serif" font-size="16.00">Extending language possible by mere humans</text>
<polygon fill="cornsilk" stroke="transparent" points="739,-107 739,-131 791,-131 791,-107 739,-107"/>
<polygon fill="none" stroke="black" points="739,-107 739,-131 791,-131 791,-107 739,-107"/>
<text text-anchor="start" x="742" y="-115.2" font-family="Times,serif" font-size="16.00">▮▮▮▯▯</text>
<polygon fill="cornsilk" stroke="transparent" points="793,-107 793,-131 1264,-131 1264,-107 793,-107"/>
<polygon fill="none" stroke="black" points="793,-107 793,-131 1264,-131 1264,-107 793,-107"/>
<text text-anchor="start" x="796" y="-115.2" font-family="Times,serif" font-size="16.00">Rearchitect traits/borrow&#45;checking as logical predicates</text>
<polygon fill="cornsilk" stroke="transparent" points="739,-81 739,-105 791,-105 791,-81 739,-81"/>
<polygon fill="none" stroke="black" points="739,-81 739,-105 791,-105 791,-81 739,-81"/>
<text text-anchor="start" x="742" y="-89.2" font-family="Times,serif" font-size="16.00">▮▯▯▯▯</text>
<polygon fill="cornsilk" stroke="transparent" points="793,-81 793,-105 1264,-105 1264,-81 793,-81"/>
<polygon fill="none" stroke="black" points="793,-81 793,-105 1264,-105 1264,-81 793,-81"/>
<text text-anchor="start" x="890" y="-89.2" font-family="Times,serif" font-size="16.00">Core Rust semantics documented</text>
<polygon fill="cornsilk" stroke="transparent" points="739,-55 739,-79 791,-79 791,-55 739,-55"/>
<polygon fill="none" stroke="black" points="739,-55 739,-79 791,-79 791,-55 739,-55"/>
<text text-anchor="start" x="742" y="-63.2" font-family="Times,serif" font-size="16.00">▮▯▯▯▯</text>
<polygon fill="cornsilk" stroke="transparent" points="793,-55 793,-79 1264,-79 1264,-55 793,-55"/>
<polygon fill="none" stroke="black" points="793,-55 793,-79 1264,-79 1264,-55 793,-55"/>
<text text-anchor="start" x="950" y="-63.2" font-family="Times,serif" font-size="16.00">Proof of soundness</text>
<polygon fill="cornsilk" stroke="transparent" points="739,-29 739,-53 791,-53 791,-29 739,-29"/>
<polygon fill="none" stroke="black" points="739,-29 739,-53 791,-53 791,-29 739,-29"/>
<text text-anchor="start" x="742" y="-37.2" font-family="Times,serif" font-size="16.00">▮▮▯▯▯</text>
<polygon fill="cornsilk" stroke="transparent" points="793,-29 793,-53 1264,-53 1264,-29 793,-29"/>
<polygon fill="none" stroke="black" points="793,-29 793,-53 1264,-53 1264,-29 793,-29"/>
<text text-anchor="start" x="932" y="-37.2" font-family="Times,serif" font-size="16.00">Unsafe code guidelines</text>
<polygon fill="cornsilk" stroke="transparent" points="739,-3 739,-27 791,-27 791,-3 739,-3"/>
<polygon fill="none" stroke="black" points="739,-3 739,-27 791,-27 791,-3 739,-3"/>
<text text-anchor="start" x="742" y="-11.2" font-family="Times,serif" font-size="16.00">▮▮▯▯▯</text>
<polygon fill="cornsilk" stroke="transparent" points="793,-3 793,-27 1264,-27 1264,-3 793,-3"/>
<polygon fill="none" stroke="black" points="793,-3 793,-27 1264,-27 1264,-3 793,-3"/>
<text text-anchor="start" x="903" y="-11.2" font-family="Times,serif" font-size="16.00">Known soundness bugs closed</text>
<polygon fill="none" stroke="black" points="735.5,0 735.5,-238 1266.5,-238 1266.5,0 735.5,0"/>
</g>
<!-- semi&#45;stable&#45;apis&#45;&gt;fundamentals -->
<g id="edge6" class="edge">
<title>semi&#45;stable&#45;apis&#45;&gt;fundamentals</title>
<path fill="none" stroke="black" d="M785,-547.78C825.6,-467.38 889.08,-341.65 936.74,-247.26"/>
<polygon fill="black" stroke="black" points="939.92,-248.73 941.3,-238.23 933.67,-245.58 939.92,-248.73"/>
</g>
<!-- onboarding&#45;time&#45;&gt;dev&#45;tooling -->
<g id="edge7" class="edge">
<title>onboarding&#45;time&#45;&gt;dev&#45;tooling</title>
<path fill="none" stroke="black" d="M631.86,-1045.71C599.16,-1030.5 565.37,-1014.79 532.41,-999.46"/>
<polygon fill="black" stroke="black" points="533.68,-996.19 523.14,-995.15 530.73,-1002.54 533.68,-996.19"/>
</g>
<!-- async&#45;stack -->
<g id="node8" class="node">
<title>async&#45;stack</title>
<polygon fill="darkgoldenrod" stroke="transparent" points="1128,-981 1128,-1005 1532,-1005 1532,-981 1128,-981"/>
<polygon fill="none" stroke="black" points="1128,-981 1128,-1005 1532,-1005 1532,-981 1128,-981"/>
<text text-anchor="start" x="1281.5" y="-989.2" font-family="Times,serif" font-size="16.00">Async stack</text>
<polygon fill="#ffb90f" stroke="transparent" points="1128,-955 1128,-979 1532,-979 1532,-955 1128,-955"/>
<polygon fill="none" stroke="black" points="1128,-955 1128,-979 1532,-979 1532,-955 1128,-955"/>
<text text-anchor="start" x="1155.5" y="-963.2" font-family="Times,serif" font-size="16.00">Can quickly stand up an async application</text>
<polygon fill="#ffb90f" stroke="transparent" points="1128,-929 1128,-953 1532,-953 1532,-929 1128,-929"/>
<polygon fill="none" stroke="black" points="1128,-929 1128,-953 1532,-953 1532,-929 1128,-929"/>
<text text-anchor="start" x="1176.5" y="-937.2" font-family="Times,serif" font-size="16.00">Devs able to focus on &#39;business logic&#39;</text>
<polygon fill="cornsilk" stroke="transparent" points="1128,-903 1128,-927 1180,-927 1180,-903 1128,-903"/>
<polygon fill="none" stroke="black" points="1128,-903 1128,-927 1180,-927 1180,-903 1128,-903"/>
<text text-anchor="start" x="1131" y="-911.2" font-family="Times,serif" font-size="16.00">▮▮▮▯▯</text>
<polygon fill="cornsilk" stroke="transparent" points="1182,-903 1182,-927 1532,-927 1532,-903 1182,-903"/>
<polygon fill="none" stroke="black" points="1182,-903 1182,-927 1532,-927 1532,-903 1182,-903"/>
<text text-anchor="start" x="1236" y="-911.2" font-family="Times,serif" font-size="16.00">High&#45;performance runtime(s)</text>
<polygon fill="cornsilk" stroke="transparent" points="1128,-877 1128,-901 1180,-901 1180,-877 1128,-877"/>
<polygon fill="none" stroke="black" points="1128,-877 1128,-901 1180,-901 1180,-877 1128,-877"/>
<text text-anchor="start" x="1131" y="-885.2" font-family="Times,serif" font-size="16.00">▮▮▮▯▯</text>
<polygon fill="cornsilk" stroke="transparent" points="1182,-877 1182,-901 1532,-901 1532,-877 1182,-877"/>
<polygon fill="none" stroke="black" points="1182,-877 1182,-901 1532,-901 1532,-877 1182,-877"/>
<text text-anchor="start" x="1323" y="-885.2" font-family="Times,serif" font-size="16.00">Logging</text>
<polygon fill="cornsilk" stroke="transparent" points="1128,-851 1128,-875 1180,-875 1180,-851 1128,-851"/>
<polygon fill="none" stroke="black" points="1128,-851 1128,-875 1180,-875 1180,-851 1128,-851"/>
<text text-anchor="start" x="1131" y="-859.2" font-family="Times,serif" font-size="16.00">▮▯▯▯▯</text>
<polygon fill="cornsilk" stroke="transparent" points="1182,-851 1182,-875 1532,-875 1532,-851 1182,-851"/>
<polygon fill="none" stroke="black" points="1182,-851 1182,-875 1532,-875 1532,-851 1182,-851"/>
<text text-anchor="start" x="1326.5" y="-859.2" font-family="Times,serif" font-size="16.00">Testing</text>
<polygon fill="cornsilk" stroke="transparent" points="1128,-825 1128,-849 1180,-849 1180,-825 1128,-825"/>
<polygon fill="none" stroke="black" points="1128,-825 1128,-849 1180,-849 1180,-825 1128,-825"/>
<text text-anchor="start" x="1131" y="-833.2" font-family="Times,serif" font-size="16.00">▮▮▯▯▯</text>
<polygon fill="cornsilk" stroke="transparent" points="1182,-825 1182,-849 1532,-849 1532,-825 1182,-825"/>
<polygon fill="none" stroke="black" points="1182,-825 1182,-849 1532,-849 1532,-825 1182,-825"/>
<text text-anchor="start" x="1264" y="-833.2" font-family="Times,serif" font-size="16.00">Persistence / database</text>
<polygon fill="cornsilk" stroke="transparent" points="1128,-799 1128,-823 1180,-823 1180,-799 1128,-799"/>
<polygon fill="none" stroke="black" points="1128,-799 1128,-823 1180,-823 1180,-799 1128,-799"/>
<text text-anchor="start" x="1131" y="-807.2" font-family="Times,serif" font-size="16.00">▮▮▯▯▯</text>
<polygon fill="cornsilk" stroke="transparent" points="1182,-799 1182,-823 1532,-823 1532,-799 1182,-799"/>
<polygon fill="none" stroke="black" points="1182,-799 1182,-823 1532,-823 1532,-799 1182,-799"/>
<text text-anchor="start" x="1307.5" y="-807.2" font-family="Times,serif" font-size="16.00">Middleware</text>
<polygon fill="cornsilk" stroke="transparent" points="1128,-773 1128,-797 1180,-797 1180,-773 1128,-773"/>
<polygon fill="none" stroke="black" points="1128,-773 1128,-797 1180,-797 1180,-773 1128,-773"/>
<text text-anchor="start" x="1131" y="-781.2" font-family="Times,serif" font-size="16.00">▮▮▮▯▯</text>
<polygon fill="cornsilk" stroke="transparent" points="1182,-773 1182,-797 1532,-797 1532,-773 1182,-773"/>
<polygon fill="none" stroke="black" points="1182,-773 1182,-797 1532,-797 1532,-773 1182,-773"/>
<text text-anchor="start" x="1185" y="-781.2" font-family="Times,serif" font-size="16.00">I/O uring support in tokio, other runtimes</text>
<polygon fill="none" stroke="black" points="1125,-770 1125,-1008 1535,-1008 1535,-770 1125,-770"/>
</g>
<!-- onboarding&#45;time&#45;&gt;async&#45;stack -->
<g id="edge8" class="edge">
<title>onboarding&#45;time&#45;&gt;async&#45;stack</title>
<path fill="none" stroke="black" d="M1049.76,-1043.93C1069.85,-1033.07 1090.01,-1022.15 1115.76,-1008.12"/>
<polygon fill="black" stroke="black" points="1117.61,-1011.1 1124.72,-1003.24 1114.27,-1004.95 1117.61,-1011.1"/>
</g>
<!-- easy&#45;lang -->
<g id="node10" class="node">
<title>easy&#45;lang</title>
<polygon fill="darkgoldenrod" stroke="transparent" points="1511,-694 1511,-718 2049,-718 2049,-694 1511,-694"/>
<polygon fill="none" stroke="black" points="1511,-694 1511,-718 2049,-718 2049,-694 1511,-694"/>
<text text-anchor="start" x="1633" y="-702.2" font-family="Times,serif" font-size="16.00">Ergonomic language improvements</text>
<polygon fill="#ffb90f" stroke="transparent" points="1511,-668 1511,-692 2049,-692 2049,-668 1511,-668"/>
<polygon fill="none" stroke="black" points="1511,-668 1511,-692 2049,-692 2049,-668 1511,-668"/>
<text text-anchor="start" x="1613.5" y="-676.2" font-family="Times,serif" font-size="16.00">Using Rust feels smooth and convenient</text>
<polygon fill="cornsilk" stroke="transparent" points="1511,-642 1511,-666 1563,-666 1563,-642 1511,-642"/>
<polygon fill="none" stroke="black" points="1511,-642 1511,-666 1563,-666 1563,-642 1511,-642"/>
<text text-anchor="start" x="1514" y="-650.2" font-family="Times,serif" font-size="16.00">▮▮▯▯▯</text>
<polygon fill="cornsilk" stroke="transparent" points="1565,-642 1565,-666 2049,-666 2049,-642 1565,-642"/>
<polygon fill="none" stroke="black" points="1565,-642 1565,-666 2049,-666 2049,-642 1565,-642"/>
<text text-anchor="start" x="1568" y="-650.2" font-family="Times,serif" font-size="16.00">Dynamic dispatch (dyn trait) more powerful, easier to use</text>
<polygon fill="cornsilk" stroke="transparent" points="1511,-616 1511,-640 1563,-640 1563,-616 1511,-616"/>
<polygon fill="none" stroke="black" points="1511,-616 1511,-640 1563,-640 1563,-616 1511,-616"/>
<text text-anchor="start" x="1514" y="-624.2" font-family="Times,serif" font-size="16.00">▮▮▯▯▯</text>
<polygon fill="cornsilk" stroke="transparent" points="1565,-616 1565,-640 2049,-640 2049,-616 1565,-616"/>
<polygon fill="none" stroke="black" points="1565,-616 1565,-640 2049,-640 2049,-616 1565,-616"/>
<text text-anchor="start" x="1743" y="-624.2" font-family="Times,serif" font-size="16.00">Implied bounds</text>
<polygon fill="cornsilk" stroke="transparent" points="1511,-590 1511,-614 1563,-614 1563,-590 1511,-590"/>
<polygon fill="none" stroke="black" points="1511,-590 1511,-614 1563,-614 1563,-590 1511,-590"/>
<text text-anchor="start" x="1514" y="-598.2" font-family="Times,serif" font-size="16.00">▮▯▯▯▯</text>
<polygon fill="cornsilk" stroke="transparent" points="1565,-590 1565,-614 2049,-614 2049,-590 1565,-590"/>
<polygon fill="none" stroke="black" points="1565,-590 1565,-614 2049,-614 2049,-590 1565,-590"/>
<text text-anchor="start" x="1760.5" y="-598.2" font-family="Times,serif" font-size="16.00">Generators</text>
<polygon fill="cornsilk" stroke="transparent" points="1511,-564 1511,-588 1563,-588 1563,-564 1511,-564"/>
<polygon fill="none" stroke="black" points="1511,-564 1511,-588 1563,-588 1563,-564 1511,-564"/>
<text text-anchor="start" x="1514" y="-572.2" font-family="Times,serif" font-size="16.00">▮▯▯▯▯</text>
<g id="a_node10_0"><a xlink:href="https://github.com/rust-lang/polonius/" xlink:title="&lt;TABLE&gt;">
<polygon fill="cornsilk" stroke="transparent" points="1565,-564 1565,-588 2049,-588 2049,-564 1565,-564"/>
<polygon fill="none" stroke="black" points="1565,-564 1565,-588 2049,-588 2049,-564 1565,-564"/>
<text text-anchor="start" x="1700.5" y="-573.2" font-family="Times,serif" text-decoration="underline" font-size="16.00">Improved borrow checker</text>
</a>
</g>
<polygon fill="cornsilk" stroke="transparent" points="1511,-538 1511,-562 1563,-562 1563,-538 1511,-538"/>
<polygon fill="none" stroke="black" points="1511,-538 1511,-562 1563,-562 1563,-538 1511,-538"/>
<text text-anchor="start" x="1514" y="-546.2" font-family="Times,serif" font-size="16.00">▮▯▯▯▯</text>
<g id="a_node10_1"><a xlink:href="https://smallcultfollowing.com/babysteps//blog/2021/11/05/view-types/" xlink:title="&lt;TABLE&gt;">
<polygon fill="cornsilk" stroke="transparent" points="1565,-538 1565,-562 2049,-562 2049,-538 1565,-538"/>
<polygon fill="none" stroke="black" points="1565,-538 1565,-562 2049,-562 2049,-538 1565,-538"/>
<text text-anchor="start" x="1762" y="-547.2" font-family="Times,serif" text-decoration="underline" font-size="16.00">View types</text>
</a>
</g>
<polygon fill="none" stroke="black" points="1508,-535 1508,-721 2052,-721 2052,-535 1508,-535"/>
</g>
<!-- onboarding&#45;time&#45;&gt;easy&#45;lang -->
<g id="edge10" class="edge">
<title>onboarding&#45;time&#45;&gt;easy&#45;lang</title>
<path fill="none" stroke="black" d="M1076.1,-1122.89C1248.12,-1099.18 1469.28,-1059.97 1544,-1008 1641.47,-940.21 1706.79,-817.86 1743.53,-730.51"/>
<polygon fill="black" stroke="black" points="1746.84,-731.69 1747.44,-721.11 1740.37,-729 1746.84,-731.69"/>
</g>
<!-- extensible -->
<g id="node11" class="node">
<title>extensible</title>
<polygon fill="darkgoldenrod" stroke="transparent" points="584,-942 584,-966 1104,-966 1104,-942 584,-942"/>
<polygon fill="none" stroke="black" points="584,-942 584,-966 1104,-966 1104,-942 584,-942"/>
<text text-anchor="start" x="779" y="-950.2" font-family="Times,serif" font-size="16.00">Extensible Rust</text>
<polygon fill="#ffb90f" stroke="transparent" points="584,-916 584,-940 1104,-940 1104,-916 584,-916"/>
<polygon fill="none" stroke="black" points="584,-916 584,-940 1104,-940 1104,-916 584,-916"/>
<text text-anchor="start" x="600" y="-924.2" font-family="Times,serif" font-size="16.00">Rust libraries can take control of the developer experience</text>
<polygon fill="cornsilk" stroke="transparent" points="584,-890 584,-914 636,-914 636,-890 584,-890"/>
<polygon fill="none" stroke="black" points="584,-890 584,-914 636,-914 636,-890 584,-890"/>
<text text-anchor="start" x="587" y="-898.2" font-family="Times,serif" font-size="16.00">▮▮▯▯▯</text>
<polygon fill="cornsilk" stroke="transparent" points="638,-890 638,-914 1104,-914 1104,-890 638,-890"/>
<polygon fill="none" stroke="black" points="638,-890 638,-914 1104,-914 1104,-890 638,-890"/>
<text text-anchor="start" x="809" y="-898.2" font-family="Times,serif" font-size="16.00">Macro hygiene</text>
<polygon fill="cornsilk" stroke="transparent" points="584,-864 584,-888 636,-888 636,-864 584,-864"/>
<polygon fill="none" stroke="black" points="584,-864 584,-888 636,-888 636,-864 584,-864"/>
<text text-anchor="start" x="587" y="-872.2" font-family="Times,serif" font-size="16.00">▯▯▯▯▯</text>
<polygon fill="cornsilk" stroke="transparent" points="638,-864 638,-888 1104,-888 1104,-864 638,-864"/>
<polygon fill="none" stroke="black" points="638,-864 638,-888 1104,-888 1104,-864 638,-864"/>
<text text-anchor="start" x="720.5" y="-872.2" font-family="Times,serif" font-size="16.00">Libraries supply custom lints, errors</text>
<polygon fill="cornsilk" stroke="transparent" points="584,-838 584,-862 636,-862 636,-838 584,-838"/>
<polygon fill="none" stroke="black" points="584,-838 584,-862 636,-862 636,-838 584,-838"/>
<text text-anchor="start" x="587" y="-846.2" font-family="Times,serif" font-size="16.00">▮▯▯▯▯</text>
<polygon fill="cornsilk" stroke="transparent" points="638,-838 638,-862 1104,-862 1104,-838 638,-838"/>
<polygon fill="none" stroke="black" points="638,-838 638,-862 1104,-862 1104,-838 638,-838"/>
<text text-anchor="start" x="641" y="-846.2" font-family="Times,serif" font-size="16.00">Libraries offering custom IDE integration (refactorings)</text>
<polygon fill="cornsilk" stroke="transparent" points="584,-812 584,-836 636,-836 636,-812 584,-812"/>
<polygon fill="none" stroke="black" points="584,-812 584,-836 636,-836 636,-812 584,-812"/>
<text text-anchor="start" x="587" y="-820.2" font-family="Times,serif" font-size="16.00">▮▯▯▯▯</text>
<polygon fill="cornsilk" stroke="transparent" points="638,-812 638,-836 1104,-836 1104,-812 638,-812"/>
<polygon fill="none" stroke="black" points="638,-812 638,-836 1104,-836 1104,-812 638,-812"/>
<text text-anchor="start" x="683" y="-820.2" font-family="Times,serif" font-size="16.00">Macros, lints have access to type information</text>
<polygon fill="none" stroke="black" points="581,-809 581,-969 1107,-969 1107,-809 581,-809"/>
</g>
<!-- onboarding&#45;time&#45;&gt;extensible -->
<g id="edge9" class="edge">
<title>onboarding&#45;time&#45;&gt;extensible</title>
<path fill="none" stroke="black" d="M849.93,-1043.65C849.11,-1022.23 848.24,-999.89 847.44,-979.1"/>
<polygon fill="black" stroke="black" points="850.93,-978.89 847.05,-969.03 843.94,-979.16 850.93,-978.89"/>
</g>
<!-- async&#45;lang -->
<g id="node7" class="node">
<title>async&#45;lang</title>
<polygon fill="darkgoldenrod" stroke="transparent" points="1027,-707 1027,-731 1487,-731 1487,-707 1027,-707"/>
<polygon fill="none" stroke="black" points="1027,-707 1027,-731 1487,-731 1487,-707 1027,-707"/>
<text text-anchor="start" x="1156.5" y="-715.2" font-family="Times,serif" font-size="16.00">Async I/O Fundamentals</text>
<polygon fill="#ffb90f" stroke="transparent" points="1027,-681 1027,-705 1487,-705 1487,-681 1027,-681"/>
<polygon fill="none" stroke="black" points="1027,-681 1027,-705 1487,-705 1487,-681 1027,-681"/>
<text text-anchor="start" x="1034.5" y="-689.2" font-family="Times,serif" font-size="16.00">Using Async I/O comparable in complexity to Sync I/O</text>
<polygon fill="#ffb90f" stroke="transparent" points="1027,-655 1027,-679 1487,-679 1487,-655 1027,-655"/>
<polygon fill="none" stroke="black" points="1027,-655 1027,-679 1487,-679 1487,-655 1027,-655"/>
<text text-anchor="start" x="1031" y="-663.2" font-family="Times,serif" font-size="16.00">Access to a wide variety of useful libraries on crates.io</text>
<polygon fill="#ffb90f" stroke="transparent" points="1027,-629 1027,-653 1487,-653 1487,-629 1027,-629"/>
<polygon fill="none" stroke="black" points="1027,-629 1027,-653 1487,-653 1487,-629 1027,-629"/>
<text text-anchor="start" x="1071" y="-637.2" font-family="Times,serif" font-size="16.00">Easy access to high performance networking</text>
<polygon fill="cornsilk" stroke="transparent" points="1027,-603 1027,-627 1080,-627 1080,-603 1027,-603"/>
<polygon fill="none" stroke="black" points="1027,-603 1027,-627 1080,-627 1080,-603 1027,-603"/>
<text text-anchor="start" x="1030.5" y="-611.2" font-family="Times,serif" font-size="16.00">▮▮▮▯▯</text>
<polygon fill="cornsilk" stroke="transparent" points="1082,-603 1082,-627 1487,-627 1487,-603 1082,-603"/>
<polygon fill="none" stroke="black" points="1082,-603 1082,-627 1487,-627 1487,-603 1082,-603"/>
<text text-anchor="start" x="1164" y="-611.2" font-family="Times,serif" font-size="16.00">Can use async fn everywhere</text>
<polygon fill="cornsilk" stroke="transparent" points="1027,-577 1027,-601 1080,-601 1080,-577 1027,-577"/>
<polygon fill="none" stroke="black" points="1027,-577 1027,-601 1080,-601 1080,-577 1027,-577"/>
<text text-anchor="start" x="1030.5" y="-585.2" font-family="Times,serif" font-size="16.00">▮▮▯▯▯</text>
<polygon fill="cornsilk" stroke="transparent" points="1082,-577 1082,-601 1487,-601 1487,-577 1082,-577"/>
<polygon fill="none" stroke="black" points="1082,-577 1082,-601 1487,-601 1487,-577 1082,-577"/>
<text text-anchor="start" x="1086" y="-585.2" font-family="Times,serif" font-size="16.00">Async resource cleanup works well (async drop)</text>
<polygon fill="cornsilk" stroke="transparent" points="1027,-551 1027,-575 1080,-575 1080,-551 1027,-551"/>
<polygon fill="none" stroke="black" points="1027,-551 1027,-575 1080,-575 1080,-551 1027,-551"/>
<text text-anchor="start" x="1030.5" y="-559.2" font-family="Times,serif" font-size="16.00">▮▯▯▯▯</text>
<polygon fill="cornsilk" stroke="transparent" points="1082,-551 1082,-575 1487,-575 1487,-551 1082,-551"/>
<polygon fill="none" stroke="black" points="1082,-551 1082,-575 1487,-575 1487,-551 1082,-551"/>
<text text-anchor="start" x="1120.5" y="-559.2" font-family="Times,serif" font-size="16.00">Easy interoperability between runtimes</text>
<polygon fill="cornsilk" stroke="transparent" points="1027,-525 1027,-549 1080,-549 1080,-525 1027,-525"/>
<polygon fill="none" stroke="black" points="1027,-525 1027,-549 1080,-549 1080,-525 1027,-525"/>
<text text-anchor="start" x="1030.5" y="-533.2" font-family="Times,serif" font-size="16.00">▮▯▯▯▯</text>
<polygon fill="cornsilk" stroke="transparent" points="1082,-525 1082,-549 1487,-549 1487,-525 1082,-525"/>
<polygon fill="none" stroke="black" points="1082,-525 1082,-549 1487,-549 1487,-525 1082,-525"/>
<text text-anchor="start" x="1212.5" y="-533.2" font-family="Times,serif" font-size="16.00">Async generators</text>
<polygon fill="none" stroke="black" points="1024,-522 1024,-734 1490,-734 1490,-522 1024,-522"/>
</g>
<!-- core&#45;lang -->
<g id="node9" class="node">
<title>core&#45;lang</title>
<polygon fill="darkgoldenrod" stroke="transparent" points="988,-459 988,-483 1526,-483 1526,-459 988,-459"/>
<polygon fill="none" stroke="black" points="988,-459 988,-483 1526,-483 1526,-459 988,-459"/>
<text text-anchor="start" x="1135" y="-467.2" font-family="Times,serif" font-size="16.00">Core language improvements</text>
<polygon fill="#ffb90f" stroke="transparent" points="988,-433 988,-457 1526,-457 1526,-433 988,-433"/>
<polygon fill="none" stroke="black" points="988,-433 988,-457 1526,-457 1526,-433 988,-433"/>
<text text-anchor="start" x="1021.5" y="-441.2" font-family="Times,serif" font-size="16.00">Rust language scales smoothly without &#39;complexity cliffs&#39;</text>
<polygon fill="#ffb90f" stroke="transparent" points="988,-407 988,-431 1526,-431 1526,-407 988,-407"/>
<polygon fill="none" stroke="black" points="988,-407 988,-431 1526,-431 1526,-407 988,-407"/>
<text text-anchor="start" x="1009.5" y="-415.2" font-family="Times,serif" font-size="16.00">Rust able to express the patterns more complex code needs</text>
<polygon fill="cornsilk" stroke="transparent" points="988,-381 988,-405 1040,-405 1040,-381 988,-381"/>
<polygon fill="none" stroke="black" points="988,-381 988,-405 1040,-405 1040,-381 988,-381"/>
<text text-anchor="start" x="991" y="-389.2" font-family="Times,serif" font-size="16.00">▮▮▯▯▯</text>
<polygon fill="cornsilk" stroke="transparent" points="1042,-381 1042,-405 1526,-405 1526,-381 1042,-381"/>
<polygon fill="none" stroke="black" points="1042,-381 1042,-405 1526,-405 1526,-381 1042,-381"/>
<text text-anchor="start" x="1045" y="-389.2" font-family="Times,serif" font-size="16.00">Dynamic dispatch (dyn trait) more powerful, easier to use</text>
<polygon fill="cornsilk" stroke="transparent" points="988,-355 988,-379 1040,-379 1040,-355 988,-355"/>
<polygon fill="none" stroke="black" points="988,-355 988,-379 1040,-379 1040,-355 988,-355"/>
<text text-anchor="start" x="991" y="-363.2" font-family="Times,serif" font-size="16.00">▮▮▯▯▯</text>
<polygon fill="cornsilk" stroke="transparent" points="1042,-355 1042,-379 1526,-379 1526,-355 1042,-355"/>
<polygon fill="none" stroke="black" points="1042,-355 1042,-379 1526,-379 1526,-355 1042,-355"/>
<text text-anchor="start" x="1225.5" y="-363.2" font-family="Times,serif" font-size="16.00">Specialization</text>
<polygon fill="cornsilk" stroke="transparent" points="988,-329 988,-353 1040,-353 1040,-329 988,-329"/>
<polygon fill="none" stroke="black" points="988,-329 988,-353 1040,-353 1040,-329 988,-329"/>
<text text-anchor="start" x="991" y="-337.2" font-family="Times,serif" font-size="16.00">▮▮▮▯▯</text>
<polygon fill="cornsilk" stroke="transparent" points="1042,-329 1042,-353 1526,-353 1526,-329 1042,-329"/>
<polygon fill="none" stroke="black" points="1042,-329 1042,-353 1526,-353 1526,-329 1042,-329"/>
<text text-anchor="start" x="1151.5" y="-337.2" font-family="Times,serif" font-size="16.00">Generic associated types (GATs)</text>
<polygon fill="cornsilk" stroke="transparent" points="988,-303 988,-327 1040,-327 1040,-303 988,-303"/>
<polygon fill="none" stroke="black" points="988,-303 988,-327 1040,-327 1040,-303 988,-303"/>
<text text-anchor="start" x="991" y="-311.2" font-family="Times,serif" font-size="16.00">▮▮▮▮▯</text>
<polygon fill="cornsilk" stroke="transparent" points="1042,-303 1042,-327 1526,-327 1526,-303 1042,-303"/>
<polygon fill="none" stroke="black" points="1042,-303 1042,-327 1526,-327 1526,-303 1042,-303"/>
<text text-anchor="start" x="1244.5" y="-311.2" font-family="Times,serif" font-size="16.00">Impl trait</text>
<polygon fill="cornsilk" stroke="transparent" points="988,-277 988,-301 1040,-301 1040,-277 988,-277"/>
<polygon fill="none" stroke="black" points="988,-277 988,-301 1040,-301 1040,-277 988,-277"/>
<text text-anchor="start" x="991" y="-285.2" font-family="Times,serif" font-size="16.00">▮▯▯▯▯</text>
<polygon fill="cornsilk" stroke="transparent" points="1042,-277 1042,-301 1526,-301 1526,-277 1042,-277"/>
<polygon fill="none" stroke="black" points="1042,-277 1042,-301 1526,-301 1526,-277 1042,-277"/>
<text text-anchor="start" x="1154" y="-285.2" font-family="Times,serif" font-size="16.00">Threaded contexts, capabilities</text>
<polygon fill="none" stroke="black" points="985,-274 985,-486 1529,-486 1529,-274 985,-274"/>
</g>
<!-- async&#45;lang&#45;&gt;core&#45;lang -->
<g id="edge11" class="edge">
<title>async&#45;lang&#45;&gt;core&#45;lang</title>
<path fill="none" stroke="black" d="M1257,-521.96C1257,-513.42 1257,-504.76 1257,-496.15"/>
<polygon fill="black" stroke="black" points="1260.5,-496.08 1257,-486.08 1253.5,-496.08 1260.5,-496.08"/>
</g>
<!-- async&#45;stack&#45;&gt;async&#45;lang -->
<g id="edge12" class="edge">
<title>async&#45;stack&#45;&gt;async&#45;lang</title>
<path fill="none" stroke="black" d="M1296.7,-769.87C1294.27,-761.24 1291.82,-752.55 1289.4,-743.94"/>
<polygon fill="black" stroke="black" points="1292.75,-742.94 1286.67,-734.26 1286.01,-744.84 1292.75,-742.94"/>
</g>
<!-- core&#45;lang&#45;&gt;fundamentals -->
<g id="edge13" class="edge">
<title>core&#45;lang&#45;&gt;fundamentals</title>
<path fill="none" stroke="black" d="M1152.88,-273.65C1143.72,-264.39 1134.39,-254.96 1125.1,-245.55"/>
<polygon fill="black" stroke="black" points="1127.52,-243.02 1118,-238.37 1122.54,-247.94 1127.52,-243.02"/>
</g>
<!-- easy&#45;lang&#45;&gt;core&#45;lang -->
<g id="edge14" class="edge">
<title>easy&#45;lang&#45;&gt;core&#45;lang</title>
<path fill="none" stroke="black" d="M1584.14,-534.87C1553.39,-520.41 1521.35,-505.34 1489.86,-490.53"/>
<polygon fill="black" stroke="black" points="1491.1,-487.24 1480.56,-486.15 1488.12,-493.58 1491.1,-487.24"/>
</g>
<!-- extensible&#45;&gt;semi&#45;stable&#45;apis -->
<g id="edge15" class="edge">
<title>extensible&#45;&gt;semi&#45;stable&#45;apis</title>
<path fill="none" stroke="black" d="M813.76,-808.88C802.73,-780.02 790.18,-747.21 778.86,-717.58"/>
<polygon fill="black" stroke="black" points="782.07,-716.17 775.23,-708.08 775.53,-718.67 782.07,-716.17"/>
</g>
</g>
</svg>
