<?xml version="1.0" encoding="UTF-8" standalone="no"?>
<!DOCTYPE svg PUBLIC "-//W3C//DTD SVG 1.1//EN"
 "http://www.w3.org/Graphics/SVG/1.1/DTD/svg11.dtd">
<!-- Generated by graphviz version 2.50.0 (20211204.2007)
 -->
<!-- Title: g Pages: 1 -->
<svg width="1696pt" height="1336pt"
 viewBox="0.00 0.00 1696.00 1336.00" xmlns="http://www.w3.org/2000/svg" xmlns:xlink="http://www.w3.org/1999/xlink">
<g id="graph0" class="graph" transform="scale(1 1) rotate(0) translate(4 1332)">
<title>g</title>
<polygon fill="white" stroke="transparent" points="-4,4 -4,-1332 1692,-1332 1692,4 -4,4"/>
<!-- goal&#45;internet&#45;services -->
<g id="node1" class="node">
<title>goal&#45;internet&#45;services</title>
<polygon fill="darkgoldenrod" stroke="transparent" points="228,-1298 228,-1322 668,-1322 668,-1298 228,-1298"/>
<polygon fill="none" stroke="black" points="228,-1298 228,-1322 668,-1322 668,-1298 228,-1298"/>
<text text-anchor="start" x="231" y="-1306.2" font-family="Times,serif" font-size="16.00">🎯 Rust a common choice for programs running on internet services</text>
<polygon fill="none" stroke="black" points="225,-1295 225,-1325 671,-1325 671,-1295 225,-1295"/>
</g>
<!-- onboarding -->
<g id="node2" class="node">
<title>onboarding</title>
<polygon fill="darkgoldenrod" stroke="transparent" points="728,-1203 728,-1227 1022,-1227 1022,-1203 728,-1203"/>
<polygon fill="none" stroke="black" points="728,-1203 728,-1227 1022,-1227 1022,-1203 728,-1203"/>
<text text-anchor="start" x="764" y="-1211.2" font-family="Times,serif" font-size="16.00">Able to onboard engineers quickly</text>
<polygon fill="cornsilk" stroke="transparent" points="728,-1177 728,-1201 783,-1201 783,-1177 728,-1177"/>
<polygon fill="none" stroke="black" points="728,-1177 728,-1201 783,-1201 783,-1177 728,-1177"/>
<text text-anchor="start" x="731" y="-1185.2" font-family="Times,serif" font-size="16.00">▮▮▮▮▮</text>
<polygon fill="cornsilk" stroke="transparent" points="785,-1177 785,-1201 1022,-1201 1022,-1177 785,-1177"/>
<polygon fill="none" stroke="black" points="785,-1177 785,-1201 1022,-1201 1022,-1177 785,-1177"/>
<text text-anchor="start" x="799.5" y="-1185.2" font-family="Times,serif" font-size="16.00">Rust beginner learning materials</text>
<polygon fill="cornsilk" stroke="transparent" points="728,-1151 728,-1175 783,-1175 783,-1151 728,-1151"/>
<polygon fill="none" stroke="black" points="728,-1151 728,-1175 783,-1175 783,-1151 728,-1151"/>
<text text-anchor="start" x="731" y="-1159.2" font-family="Times,serif" font-size="16.00">▮▮▮▯▯</text>
<polygon fill="cornsilk" stroke="transparent" points="785,-1151 785,-1175 1022,-1175 1022,-1151 785,-1151"/>
<polygon fill="none" stroke="black" points="785,-1151 785,-1175 1022,-1175 1022,-1151 785,-1151"/>
<text text-anchor="start" x="788" y="-1159.2" font-family="Times,serif" font-size="16.00">Rust intermediate learning materials</text>
<polygon fill="cornsilk" stroke="transparent" points="728,-1125 728,-1149 783,-1149 783,-1125 728,-1125"/>
<polygon fill="none" stroke="black" points="728,-1125 728,-1149 783,-1149 783,-1125 728,-1125"/>
<text text-anchor="start" x="731" y="-1133.2" font-family="Times,serif" font-size="16.00">▯▯▯▯▯</text>
<polygon fill="cornsilk" stroke="transparent" points="785,-1125 785,-1149 1022,-1149 1022,-1125 785,-1125"/>
<polygon fill="none" stroke="black" points="785,-1125 785,-1149 1022,-1149 1022,-1125 785,-1125"/>
<text text-anchor="start" x="841.5" y="-1133.2" font-family="Times,serif" font-size="16.00">Java transition path</text>
<polygon fill="cornsilk" stroke="transparent" points="728,-1099 728,-1123 783,-1123 783,-1099 728,-1099"/>
<polygon fill="none" stroke="black" points="728,-1099 728,-1123 783,-1123 783,-1099 728,-1099"/>
<text text-anchor="start" x="731" y="-1107.2" font-family="Times,serif" font-size="16.00">▮▮▯▯▯</text>
<polygon fill="cornsilk" stroke="transparent" points="785,-1099 785,-1123 1022,-1123 1022,-1099 785,-1099"/>
<polygon fill="none" stroke="black" points="785,-1099 785,-1123 1022,-1123 1022,-1099 785,-1099"/>
<text text-anchor="start" x="841" y="-1107.2" font-family="Times,serif" font-size="16.00">C++ transition path</text>
<polygon fill="cornsilk" stroke="transparent" points="728,-1073 728,-1097 783,-1097 783,-1073 728,-1073"/>
<polygon fill="none" stroke="black" points="728,-1073 728,-1097 783,-1097 783,-1073 728,-1073"/>
<text text-anchor="start" x="731" y="-1081.2" font-family="Times,serif" font-size="16.00">▮▮▯▯▯</text>
<polygon fill="cornsilk" stroke="transparent" points="785,-1073 785,-1097 1022,-1097 1022,-1073 785,-1073"/>
<polygon fill="none" stroke="black" points="785,-1073 785,-1097 1022,-1097 1022,-1073 785,-1073"/>
<text text-anchor="start" x="795" y="-1081.2" font-family="Times,serif" font-size="16.00">Dynamic language transition path</text>
<polygon fill="none" stroke="black" points="725,-1070 725,-1230 1025,-1230 1025,-1070 725,-1070"/>
</g>
<!-- goal&#45;internet&#45;services&#45;&gt;onboarding -->
<g id="edge2" class="edge">
<title>goal&#45;internet&#45;services&#45;&gt;onboarding</title>
<path fill="none" stroke="black" d="M494.1,-1291.94C546.84,-1272.43 636.1,-1239.4 714.96,-1210.22"/>
<polygon fill="black" stroke="black" points="716.36,-1213.43 724.52,-1206.68 713.93,-1206.87 716.36,-1213.43"/>
</g>
<!-- development -->
<g id="node3" class="node">
<title>development</title>
<polygon fill="darkgoldenrod" stroke="transparent" points="241,-929 241,-953 641,-953 641,-929 241,-929"/>
<polygon fill="none" stroke="black" points="241,-929 241,-953 641,-953 641,-929 241,-929"/>
<text text-anchor="start" x="245" y="-937.2" font-family="Times,serif" font-size="16.00">Able to to fix (logic) bugs that are found during development</text>
<polygon fill="cornsilk" stroke="transparent" points="241,-903 241,-927 308,-927 308,-903 241,-903"/>
<polygon fill="none" stroke="black" points="241,-903 241,-927 308,-927 308,-903 241,-903"/>
<text text-anchor="start" x="250" y="-911.2" font-family="Times,serif" font-size="16.00">▮▮▯▯▯</text>
<polygon fill="cornsilk" stroke="transparent" points="310,-903 310,-927 641,-927 641,-903 310,-903"/>
<polygon fill="none" stroke="black" points="310,-903 310,-927 641,-927 641,-903 310,-903"/>
<text text-anchor="start" x="403" y="-911.2" font-family="Times,serif" font-size="16.00">Quality Rust debugger</text>
<polygon fill="cornsilk" stroke="transparent" points="241,-877 241,-901 308,-901 308,-877 241,-877"/>
<polygon fill="none" stroke="black" points="241,-877 241,-901 308,-901 308,-877 241,-877"/>
<text text-anchor="start" x="250" y="-885.2" font-family="Times,serif" font-size="16.00">▮▮▮▮▯</text>
<polygon fill="cornsilk" stroke="transparent" points="310,-877 310,-901 641,-901 641,-877 310,-877"/>
<polygon fill="none" stroke="black" points="310,-877 310,-901 641,-901 641,-877 310,-877"/>
<text text-anchor="start" x="348.5" y="-885.2" font-family="Times,serif" font-size="16.00">Rust well integrated into common IDEs</text>
<polygon fill="cornsilk" stroke="transparent" points="241,-851 241,-875 308,-875 308,-851 241,-851"/>
<polygon fill="none" stroke="black" points="241,-851 241,-875 308,-875 308,-851 241,-851"/>
<text text-anchor="start" x="250" y="-859.2" font-family="Times,serif" font-size="16.00">▮▮▮▯▯</text>
<polygon fill="cornsilk" stroke="transparent" points="310,-851 310,-875 641,-875 641,-851 310,-851"/>
<polygon fill="none" stroke="black" points="310,-851 310,-875 641,-875 641,-851 310,-851"/>
<text text-anchor="start" x="319" y="-859.2" font-family="Times,serif" font-size="16.00">Async runtime observability (e.g., tokio console)</text>
<polygon fill="cornsilk" stroke="transparent" points="241,-825 241,-849 308,-849 308,-825 241,-825"/>
<polygon fill="none" stroke="black" points="241,-825 241,-849 308,-849 308,-825 241,-825"/>
<text text-anchor="start" x="250" y="-833.2" font-family="Times,serif" font-size="16.00">▮▮▯▯▯</text>
<polygon fill="cornsilk" stroke="transparent" points="310,-825 310,-849 641,-849 641,-825 310,-825"/>
<polygon fill="none" stroke="black" points="310,-825 310,-849 641,-849 641,-825 310,-825"/>
<text text-anchor="start" x="357.5" y="-833.2" font-family="Times,serif" font-size="16.00">Profilers for CPU and memory usage</text>
<polygon fill="none" stroke="black" points="238,-822 238,-956 644,-956 644,-822 238,-822"/>
</g>
<!-- goal&#45;internet&#45;services&#45;&gt;development -->
<g id="edge1" class="edge">
<title>goal&#45;internet&#45;services&#45;&gt;development</title>
<path fill="none" stroke="black" d="M447.71,-1291.79C446.8,-1237.38 443.95,-1066.69 442.27,-966.14"/>
<polygon fill="black" stroke="black" points="445.77,-965.98 442.1,-956.04 438.77,-966.09 445.77,-965.98"/>
</g>
<!-- debugging -->
<g id="node11" class="node">
<title>debugging</title>
<polygon fill="darkgoldenrod" stroke="transparent" points="3,-1229 3,-1253 417,-1253 417,-1229 3,-1229"/>
<polygon fill="none" stroke="black" points="3,-1229 3,-1253 417,-1253 417,-1229 3,-1229"/>
<text text-anchor="start" x="14" y="-1237.2" font-family="Times,serif" font-size="16.00">Able to to fix (logic) bugs that are found during development</text>
<polygon fill="#ffb90f" stroke="transparent" points="3,-1203 3,-1227 417,-1227 417,-1203 3,-1203"/>
<polygon fill="none" stroke="black" points="3,-1203 3,-1227 417,-1227 417,-1203 3,-1203"/>
<text text-anchor="start" x="30.5" y="-1211.2" font-family="Times,serif" font-size="16.00">Able to understand programs in terms of async behavior</text>
<polygon fill="#ffb90f" stroke="transparent" points="3,-1177 3,-1201 417,-1201 417,-1177 3,-1177"/>
<polygon fill="none" stroke="black" points="3,-1177 3,-1201 417,-1201 417,-1177 3,-1177"/>
<text text-anchor="start" x="12" y="-1185.2" font-family="Times,serif" font-size="16.00">Able to fix correctness problems in development environment</text>
<polygon fill="#ffb90f" stroke="transparent" points="3,-1151 3,-1175 417,-1175 417,-1151 3,-1151"/>
<polygon fill="none" stroke="black" points="3,-1151 3,-1175 417,-1175 417,-1151 3,-1151"/>
<text text-anchor="start" x="7" y="-1159.2" font-family="Times,serif" font-size="16.00">Able to fix performance problems in development environment</text>
<polygon fill="cornsilk" stroke="transparent" points="3,-1125 3,-1149 77,-1149 77,-1125 3,-1125"/>
<polygon fill="none" stroke="black" points="3,-1125 3,-1149 77,-1149 77,-1125 3,-1125"/>
<text text-anchor="start" x="15.5" y="-1133.2" font-family="Times,serif" font-size="16.00">▮▮▯▯▯</text>
<polygon fill="cornsilk" stroke="transparent" points="79,-1125 79,-1149 417,-1149 417,-1125 79,-1125"/>
<polygon fill="none" stroke="black" points="79,-1125 79,-1149 417,-1149 417,-1125 79,-1125"/>
<text text-anchor="start" x="175.5" y="-1133.2" font-family="Times,serif" font-size="16.00">Quality Rust debugger</text>
<polygon fill="cornsilk" stroke="transparent" points="3,-1099 3,-1123 77,-1123 77,-1099 3,-1099"/>
<polygon fill="none" stroke="black" points="3,-1099 3,-1123 77,-1123 77,-1099 3,-1099"/>
<text text-anchor="start" x="15.5" y="-1107.2" font-family="Times,serif" font-size="16.00">▮▮▮▮▯</text>
<polygon fill="cornsilk" stroke="transparent" points="79,-1099 79,-1123 417,-1123 417,-1099 79,-1099"/>
<polygon fill="none" stroke="black" points="79,-1099 79,-1123 417,-1123 417,-1099 79,-1099"/>
<text text-anchor="start" x="121" y="-1107.2" font-family="Times,serif" font-size="16.00">Rust well integrated into common IDEs</text>
<polygon fill="cornsilk" stroke="transparent" points="3,-1073 3,-1097 77,-1097 77,-1073 3,-1073"/>
<polygon fill="none" stroke="black" points="3,-1073 3,-1097 77,-1097 77,-1073 3,-1073"/>
<text text-anchor="start" x="15.5" y="-1081.2" font-family="Times,serif" font-size="16.00">▮▮▮▯▯</text>
<polygon fill="cornsilk" stroke="transparent" points="79,-1073 79,-1097 417,-1097 417,-1073 79,-1073"/>
<polygon fill="none" stroke="black" points="79,-1073 79,-1097 417,-1097 417,-1073 79,-1073"/>
<text text-anchor="start" x="91.5" y="-1081.2" font-family="Times,serif" font-size="16.00">Async runtime observability (e.g., tokio console)</text>
<polygon fill="cornsilk" stroke="transparent" points="3,-1047 3,-1071 77,-1071 77,-1047 3,-1047"/>
<polygon fill="none" stroke="black" points="3,-1047 3,-1071 77,-1071 77,-1047 3,-1047"/>
<text text-anchor="start" x="15.5" y="-1055.2" font-family="Times,serif" font-size="16.00">▮▮▯▯▯</text>
<polygon fill="cornsilk" stroke="transparent" points="79,-1047 79,-1071 417,-1071 417,-1047 79,-1047"/>
<polygon fill="none" stroke="black" points="79,-1047 79,-1071 417,-1071 417,-1047 79,-1047"/>
<text text-anchor="start" x="130" y="-1055.2" font-family="Times,serif" font-size="16.00">Profilers for CPU and memory usage</text>
<polygon fill="none" stroke="black" points="0,-1044 0,-1256 420,-1256 420,-1044 0,-1044"/>
</g>
<!-- goal&#45;internet&#45;services&#45;&gt;debugging -->
<g id="edge3" class="edge">
<title>goal&#45;internet&#45;services&#45;&gt;debugging</title>
<path fill="none" stroke="black" d="M422.08,-1291.79C409.86,-1283.68 394.16,-1273.26 376.84,-1261.76"/>
<polygon fill="black" stroke="black" points="378.49,-1258.65 368.22,-1256.04 374.61,-1264.48 378.49,-1258.65"/>
</g>
<!-- onboarding&#45;&gt;development -->
<g id="edge4" class="edge">
<title>onboarding&#45;&gt;development</title>
<path fill="none" stroke="black" d="M742.43,-1069.88C684.34,-1035.22 616.68,-994.84 560.2,-961.14"/>
<polygon fill="black" stroke="black" points="561.98,-958.12 551.6,-956 558.39,-964.13 561.98,-958.12"/>
</g>
<!-- async&#45;stack -->
<g id="node7" class="node">
<title>async&#45;stack</title>
<polygon fill="darkgoldenrod" stroke="transparent" points="1109,-981 1109,-1005 1439,-1005 1439,-981 1109,-981"/>
<polygon fill="none" stroke="black" points="1109,-981 1109,-1005 1439,-1005 1439,-981 1109,-981"/>
<text text-anchor="start" x="1235.5" y="-989.2" font-family="Times,serif" font-size="16.00">Async stack</text>
<polygon fill="#ffb90f" stroke="transparent" points="1109,-955 1109,-979 1439,-979 1439,-955 1109,-955"/>
<polygon fill="none" stroke="black" points="1109,-955 1109,-979 1439,-979 1439,-955 1109,-955"/>
<text text-anchor="start" x="1139" y="-963.2" font-family="Times,serif" font-size="16.00">Can quickly stand up an async application</text>
<polygon fill="#ffb90f" stroke="transparent" points="1109,-929 1109,-953 1439,-953 1439,-929 1109,-929"/>
<polygon fill="none" stroke="black" points="1109,-929 1109,-953 1439,-953 1439,-929 1109,-929"/>
<text text-anchor="start" x="1155" y="-937.2" font-family="Times,serif" font-size="16.00">Devs able to focus on &#39;business logic&#39;</text>
<polygon fill="cornsilk" stroke="transparent" points="1109,-903 1109,-927 1164,-927 1164,-903 1109,-903"/>
<polygon fill="none" stroke="black" points="1109,-903 1109,-927 1164,-927 1164,-903 1109,-903"/>
<text text-anchor="start" x="1112" y="-911.2" font-family="Times,serif" font-size="16.00">▮▮▮▯▯</text>
<polygon fill="cornsilk" stroke="transparent" points="1166,-903 1166,-927 1439,-927 1439,-903 1166,-903"/>
<polygon fill="none" stroke="black" points="1166,-903 1166,-927 1439,-927 1439,-903 1166,-903"/>
<text text-anchor="start" x="1208" y="-911.2" font-family="Times,serif" font-size="16.00">High&#45;performance runtime(s)</text>
<polygon fill="cornsilk" stroke="transparent" points="1109,-877 1109,-901 1164,-901 1164,-877 1109,-877"/>
<polygon fill="none" stroke="black" points="1109,-877 1109,-901 1164,-901 1164,-877 1109,-877"/>
<text text-anchor="start" x="1112" y="-885.2" font-family="Times,serif" font-size="16.00">▮▮▮▯▯</text>
<polygon fill="cornsilk" stroke="transparent" points="1166,-877 1166,-901 1439,-901 1439,-877 1166,-877"/>
<polygon fill="none" stroke="black" points="1166,-877 1166,-901 1439,-901 1439,-877 1166,-877"/>
<text text-anchor="start" x="1274.5" y="-885.2" font-family="Times,serif" font-size="16.00">Logging</text>
<polygon fill="cornsilk" stroke="transparent" points="1109,-851 1109,-875 1164,-875 1164,-851 1109,-851"/>
<polygon fill="none" stroke="black" points="1109,-851 1109,-875 1164,-875 1164,-851 1109,-851"/>
<text text-anchor="start" x="1112" y="-859.2" font-family="Times,serif" font-size="16.00">▮▯▯▯▯</text>
<polygon fill="cornsilk" stroke="transparent" points="1166,-851 1166,-875 1439,-875 1439,-851 1166,-851"/>
<polygon fill="none" stroke="black" points="1166,-851 1166,-875 1439,-875 1439,-851 1166,-851"/>
<text text-anchor="start" x="1278.5" y="-859.2" font-family="Times,serif" font-size="16.00">Testing</text>
<polygon fill="cornsilk" stroke="transparent" points="1109,-825 1109,-849 1164,-849 1164,-825 1109,-825"/>
<polygon fill="none" stroke="black" points="1109,-825 1109,-849 1164,-849 1164,-825 1109,-825"/>
<text text-anchor="start" x="1112" y="-833.2" font-family="Times,serif" font-size="16.00">▮▮▯▯▯</text>
<polygon fill="cornsilk" stroke="transparent" points="1166,-825 1166,-849 1439,-849 1439,-825 1166,-825"/>
<polygon fill="none" stroke="black" points="1166,-825 1166,-849 1439,-849 1439,-825 1166,-825"/>
<text text-anchor="start" x="1234" y="-833.2" font-family="Times,serif" font-size="16.00">Persistence / database</text>
<polygon fill="cornsilk" stroke="transparent" points="1109,-799 1109,-823 1164,-823 1164,-799 1109,-799"/>
<polygon fill="none" stroke="black" points="1109,-799 1109,-823 1164,-823 1164,-799 1109,-799"/>
<text text-anchor="start" x="1112" y="-807.2" font-family="Times,serif" font-size="16.00">▮▮▯▯▯</text>
<polygon fill="cornsilk" stroke="transparent" points="1166,-799 1166,-823 1439,-823 1439,-799 1166,-799"/>
<polygon fill="none" stroke="black" points="1166,-799 1166,-823 1439,-823 1439,-799 1166,-799"/>
<text text-anchor="start" x="1264" y="-807.2" font-family="Times,serif" font-size="16.00">Middleware</text>
<polygon fill="cornsilk" stroke="transparent" points="1109,-773 1109,-797 1164,-797 1164,-773 1109,-773"/>
<polygon fill="none" stroke="black" points="1109,-773 1109,-797 1164,-797 1164,-773 1109,-773"/>
<text text-anchor="start" x="1112" y="-781.2" font-family="Times,serif" font-size="16.00">▮▮▮▯▯</text>
<polygon fill="cornsilk" stroke="transparent" points="1166,-773 1166,-797 1439,-797 1439,-773 1166,-773"/>
<polygon fill="none" stroke="black" points="1166,-773 1166,-797 1439,-797 1439,-773 1166,-773"/>
<text text-anchor="start" x="1169" y="-781.2" font-family="Times,serif" font-size="16.00">I/O uring support in tokio, other runtimes</text>
<polygon fill="none" stroke="black" points="1106,-770 1106,-1008 1442,-1008 1442,-770 1106,-770"/>
</g>
<!-- onboarding&#45;&gt;async&#45;stack -->
<g id="edge5" class="edge">
<title>onboarding&#45;&gt;async&#45;stack</title>
<path fill="none" stroke="black" d="M1000.64,-1069.88C1032.19,-1049.83 1065.91,-1028.23 1097,-1008 1097.09,-1007.94 1097.18,-1007.88 1097.28,-1007.82"/>
<polygon fill="black" stroke="black" points="1099.43,-1010.6 1105.89,-1002.2 1095.6,-1004.73 1099.43,-1010.6"/>
</g>
<!-- easy&#45;lang -->
<g id="node9" class="node">
<title>easy&#45;lang</title>
<polygon fill="darkgoldenrod" stroke="transparent" points="1255,-694 1255,-718 1685,-718 1685,-694 1255,-694"/>
<polygon fill="none" stroke="black" points="1255,-694 1255,-718 1685,-718 1685,-694 1255,-694"/>
<text text-anchor="start" x="1355.5" y="-702.2" font-family="Times,serif" font-size="16.00">Ergonomic language improvements</text>
<polygon fill="#ffb90f" stroke="transparent" points="1255,-668 1255,-692 1685,-692 1685,-668 1255,-668"/>
<polygon fill="none" stroke="black" points="1255,-668 1255,-692 1685,-692 1685,-668 1255,-668"/>
<text text-anchor="start" x="1341" y="-676.2" font-family="Times,serif" font-size="16.00">Using Rust feels smooth and convenient</text>
<polygon fill="cornsilk" stroke="transparent" points="1255,-642 1255,-666 1310,-666 1310,-642 1255,-642"/>
<polygon fill="none" stroke="black" points="1255,-642 1255,-666 1310,-666 1310,-642 1255,-642"/>
<text text-anchor="start" x="1258" y="-650.2" font-family="Times,serif" font-size="16.00">▮▮▯▯▯</text>
<polygon fill="cornsilk" stroke="transparent" points="1312,-642 1312,-666 1685,-666 1685,-642 1312,-642"/>
<polygon fill="none" stroke="black" points="1312,-642 1312,-666 1685,-666 1685,-642 1312,-642"/>
<text text-anchor="start" x="1315" y="-650.2" font-family="Times,serif" font-size="16.00">Dynamic dispatch (dyn trait) more powerful, easier to use</text>
<polygon fill="cornsilk" stroke="transparent" points="1255,-616 1255,-640 1310,-640 1310,-616 1255,-616"/>
<polygon fill="none" stroke="black" points="1255,-616 1255,-640 1310,-640 1310,-616 1255,-616"/>
<text text-anchor="start" x="1258" y="-624.2" font-family="Times,serif" font-size="16.00">▮▮▯▯▯</text>
<polygon fill="cornsilk" stroke="transparent" points="1312,-616 1312,-640 1685,-640 1685,-616 1312,-616"/>
<polygon fill="none" stroke="black" points="1312,-616 1312,-640 1685,-640 1685,-616 1312,-616"/>
<text text-anchor="start" x="1447.5" y="-624.2" font-family="Times,serif" font-size="16.00">Implied bounds</text>
<polygon fill="cornsilk" stroke="transparent" points="1255,-590 1255,-614 1310,-614 1310,-590 1255,-590"/>
<polygon fill="none" stroke="black" points="1255,-590 1255,-614 1310,-614 1310,-590 1255,-590"/>
<text text-anchor="start" x="1258" y="-598.2" font-family="Times,serif" font-size="16.00">▮▯▯▯▯</text>
<polygon fill="cornsilk" stroke="transparent" points="1312,-590 1312,-614 1685,-614 1685,-590 1312,-590"/>
<polygon fill="none" stroke="black" points="1312,-590 1312,-614 1685,-614 1685,-590 1312,-590"/>
<text text-anchor="start" x="1463.5" y="-598.2" font-family="Times,serif" font-size="16.00">Generators</text>
<polygon fill="cornsilk" stroke="transparent" points="1255,-564 1255,-588 1310,-588 1310,-564 1255,-564"/>
<polygon fill="none" stroke="black" points="1255,-564 1255,-588 1310,-588 1310,-564 1255,-564"/>
<text text-anchor="start" x="1258" y="-572.2" font-family="Times,serif" font-size="16.00">▮▯▯▯▯</text>
<g id="a_node9_0"><a xlink:href="https://github.com/rust-lang/polonius/" xlink:title="&lt;TABLE&gt;">
<polygon fill="cornsilk" stroke="transparent" points="1312,-564 1312,-588 1685,-588 1685,-564 1312,-564"/>
<polygon fill="none" stroke="black" points="1312,-564 1312,-588 1685,-588 1685,-564 1312,-564"/>
<text text-anchor="start" x="1415.5" y="-573.2" font-family="Times,serif" text-decoration="underline" font-size="16.00">Improved borrow checker</text>
</a>
</g>
<polygon fill="cornsilk" stroke="transparent" points="1255,-538 1255,-562 1310,-562 1310,-538 1255,-538"/>
<polygon fill="none" stroke="black" points="1255,-538 1255,-562 1310,-562 1310,-538 1255,-538"/>
<text text-anchor="start" x="1258" y="-546.2" font-family="Times,serif" font-size="16.00">▮▯▯▯▯</text>
<g id="a_node9_1"><a xlink:href="https://smallcultfollowing.com/babysteps//blog/2021/11/05/view-types/" xlink:title="&lt;TABLE&gt;">
<polygon fill="cornsilk" stroke="transparent" points="1312,-538 1312,-562 1685,-562 1685,-538 1312,-538"/>
<polygon fill="none" stroke="black" points="1312,-538 1312,-562 1685,-562 1685,-538 1312,-538"/>
<text text-anchor="start" x="1463" y="-547.2" font-family="Times,serif" text-decoration="underline" font-size="16.00">View types</text>
</a>
</g>
<polygon fill="none" stroke="black" points="1252,-535 1252,-721 1688,-721 1688,-535 1252,-535"/>
</g>
<!-- onboarding&#45;&gt;easy&#45;lang -->
<g id="edge7" class="edge">
<title>onboarding&#45;&gt;easy&#45;lang</title>
<path fill="none" stroke="black" d="M1025.27,-1132.49C1177.31,-1112.41 1397.4,-1072.89 1451,-1008 1513.9,-931.86 1509.65,-814.93 1495.32,-731.09"/>
<polygon fill="black" stroke="black" points="1498.73,-730.27 1493.53,-721.04 1491.84,-731.5 1498.73,-730.27"/>
</g>
<!-- extensible -->
<g id="node10" class="node">
<title>extensible</title>
<polygon fill="darkgoldenrod" stroke="transparent" points="665,-942 665,-966 1085,-966 1085,-942 665,-942"/>
<polygon fill="none" stroke="black" points="665,-942 665,-966 1085,-966 1085,-942 665,-942"/>
<text text-anchor="start" x="824.5" y="-950.2" font-family="Times,serif" font-size="16.00">Extensible Rust</text>
<polygon fill="#ffb90f" stroke="transparent" points="665,-916 665,-940 1085,-940 1085,-916 665,-916"/>
<polygon fill="none" stroke="black" points="665,-916 665,-940 1085,-940 1085,-916 665,-916"/>
<text text-anchor="start" x="690" y="-924.2" font-family="Times,serif" font-size="16.00">Rust libraries can take control of the developer experience</text>
<polygon fill="cornsilk" stroke="transparent" points="665,-890 665,-914 720,-914 720,-890 665,-890"/>
<polygon fill="none" stroke="black" points="665,-890 665,-914 720,-914 720,-890 665,-890"/>
<text text-anchor="start" x="668" y="-898.2" font-family="Times,serif" font-size="16.00">▮▮▯▯▯</text>
<polygon fill="cornsilk" stroke="transparent" points="722,-890 722,-914 1085,-914 1085,-890 722,-890"/>
<polygon fill="none" stroke="black" points="722,-890 722,-914 1085,-914 1085,-890 722,-890"/>
<text text-anchor="start" x="855" y="-898.2" font-family="Times,serif" font-size="16.00">Macro hygiene</text>
<polygon fill="cornsilk" stroke="transparent" points="665,-864 665,-888 720,-888 720,-864 665,-864"/>
<polygon fill="none" stroke="black" points="665,-864 665,-888 720,-888 720,-864 665,-864"/>
<text text-anchor="start" x="668" y="-872.2" font-family="Times,serif" font-size="16.00">▯▯▯▯▯</text>
<polygon fill="cornsilk" stroke="transparent" points="722,-864 722,-888 1085,-888 1085,-864 722,-864"/>
<polygon fill="none" stroke="black" points="722,-864 722,-888 1085,-888 1085,-864 722,-864"/>
<text text-anchor="start" x="788" y="-872.2" font-family="Times,serif" font-size="16.00">Libraries supply custom lints, errors</text>
<polygon fill="cornsilk" stroke="transparent" points="665,-838 665,-862 720,-862 720,-838 665,-838"/>
<polygon fill="none" stroke="black" points="665,-838 665,-862 720,-862 720,-838 665,-838"/>
<text text-anchor="start" x="668" y="-846.2" font-family="Times,serif" font-size="16.00">▮▯▯▯▯</text>
<polygon fill="cornsilk" stroke="transparent" points="722,-838 722,-862 1085,-862 1085,-838 722,-838"/>
<polygon fill="none" stroke="black" points="722,-838 722,-862 1085,-862 1085,-838 722,-838"/>
<text text-anchor="start" x="725" y="-846.2" font-family="Times,serif" font-size="16.00">Libraries offering custom IDE integration (refactorings)</text>
<polygon fill="cornsilk" stroke="transparent" points="665,-812 665,-836 720,-836 720,-812 665,-812"/>
<polygon fill="none" stroke="black" points="665,-812 665,-836 720,-836 720,-812 665,-812"/>
<text text-anchor="start" x="668" y="-820.2" font-family="Times,serif" font-size="16.00">▮▯▯▯▯</text>
<polygon fill="cornsilk" stroke="transparent" points="722,-812 722,-836 1085,-836 1085,-812 722,-812"/>
<polygon fill="none" stroke="black" points="722,-812 722,-836 1085,-836 1085,-812 722,-812"/>
<text text-anchor="start" x="759.5" y="-820.2" font-family="Times,serif" font-size="16.00">Macros, lints have access to type information</text>
<polygon fill="none" stroke="black" points="662,-809 662,-969 1088,-969 1088,-809 662,-809"/>
</g>
<!-- onboarding&#45;&gt;extensible -->
<g id="edge6" class="edge">
<title>onboarding&#45;&gt;extensible</title>
<path fill="none" stroke="black" d="M875,-1069.88C875,-1041.27 875,-1008.78 875,-979.35"/>
<polygon fill="black" stroke="black" points="878.5,-979.08 875,-969.08 871.5,-979.08 878.5,-979.08"/>
</g>
<!-- semi&#45;stable&#45;apis -->
<g id="node5" class="node">
<title>semi&#45;stable&#45;apis</title>
<polygon fill="darkgoldenrod" stroke="transparent" points="329,-681 329,-705 741,-705 741,-681 329,-681"/>
<polygon fill="none" stroke="black" points="329,-681 329,-705 741,-705 741,-681 329,-681"/>
<text text-anchor="start" x="479.5" y="-689.2" font-family="Times,serif" font-size="16.00">Semi&#45;stable APIs</text>
<polygon fill="#ffb90f" stroke="transparent" points="329,-655 329,-679 741,-679 741,-655 329,-655"/>
<polygon fill="none" stroke="black" points="329,-655 329,-679 741,-679 741,-655 329,-655"/>
<text text-anchor="start" x="368" y="-663.2" font-family="Times,serif" font-size="16.00">Compiler offers semi&#45;stable APIs that others can use</text>
<polygon fill="cornsilk" stroke="transparent" points="329,-629 329,-653 384,-653 384,-629 329,-629"/>
<polygon fill="none" stroke="black" points="329,-629 329,-653 384,-653 384,-629 329,-629"/>
<text text-anchor="start" x="332" y="-637.2" font-family="Times,serif" font-size="16.00">▯▯▯▯▯</text>
<polygon fill="cornsilk" stroke="transparent" points="386,-629 386,-653 741,-653 741,-629 386,-629"/>
<polygon fill="none" stroke="black" points="386,-629 386,-653 741,-653 741,-629 386,-629"/>
<text text-anchor="start" x="436.5" y="-637.2" font-family="Times,serif" font-size="16.00">Shared crate for representing Rust types</text>
<polygon fill="cornsilk" stroke="transparent" points="329,-603 329,-627 384,-627 384,-603 329,-603"/>
<polygon fill="none" stroke="black" points="329,-603 329,-627 384,-627 384,-603 329,-603"/>
<text text-anchor="start" x="332" y="-611.2" font-family="Times,serif" font-size="16.00">▯▯▯▯▯</text>
<polygon fill="cornsilk" stroke="transparent" points="386,-603 386,-627 741,-627 741,-603 386,-603"/>
<polygon fill="none" stroke="black" points="386,-603 386,-627 741,-627 741,-603 386,-603"/>
<text text-anchor="start" x="389" y="-611.2" font-family="Times,serif" font-size="16.00">Access to Rust type information and type check results</text>
<polygon fill="cornsilk" stroke="transparent" points="329,-577 329,-601 384,-601 384,-577 329,-577"/>
<polygon fill="none" stroke="black" points="329,-577 329,-601 384,-601 384,-577 329,-577"/>
<text text-anchor="start" x="332" y="-585.2" font-family="Times,serif" font-size="16.00">▯▯▯▯▯</text>
<polygon fill="cornsilk" stroke="transparent" points="386,-577 386,-601 741,-601 741,-577 386,-577"/>
<polygon fill="none" stroke="black" points="386,-577 386,-601 741,-601 741,-577 386,-577"/>
<text text-anchor="start" x="472" y="-585.2" font-family="Times,serif" font-size="16.00">Ability to ask &#39;hypotheticals&#39;</text>
<polygon fill="cornsilk" stroke="transparent" points="329,-551 329,-575 384,-575 384,-551 329,-551"/>
<polygon fill="none" stroke="black" points="329,-551 329,-575 384,-575 384,-551 329,-551"/>
<text text-anchor="start" x="332" y="-559.2" font-family="Times,serif" font-size="16.00">▯▯▯▯▯</text>
<polygon fill="cornsilk" stroke="transparent" points="386,-551 386,-575 741,-575 741,-551 386,-551"/>
<polygon fill="none" stroke="black" points="386,-551 386,-575 741,-575 741,-551 386,-551"/>
<text text-anchor="start" x="439.5" y="-559.2" font-family="Times,serif" font-size="16.00">Access to the MIR for a given function</text>
<polygon fill="none" stroke="black" points="326,-548 326,-708 744,-708 744,-548 326,-548"/>
</g>
<!-- development&#45;&gt;semi&#45;stable&#45;apis -->
<g id="edge8" class="edge">
<title>development&#45;&gt;semi&#45;stable&#45;apis</title>
<path fill="none" stroke="black" d="M464.96,-821.97C476.45,-790.33 490.37,-751.96 502.77,-717.8"/>
<polygon fill="black" stroke="black" points="506.1,-718.88 506.22,-708.29 499.52,-716.5 506.1,-718.88"/>
</g>
<!-- fundamentals -->
<g id="node4" class="node">
<title>fundamentals</title>
<polygon fill="darkgoldenrod" stroke="transparent" points="630,-211 630,-235 1045,-235 1045,-211 630,-211"/>
<polygon fill="none" stroke="black" points="630,-211 630,-235 1045,-235 1045,-211 630,-211"/>
<text text-anchor="start" x="777.5" y="-219.2" font-family="Times,serif" font-size="16.00">Rust fundamentals</text>
<polygon fill="#ffb90f" stroke="transparent" points="630,-185 630,-209 1045,-209 1045,-185 630,-185"/>
<polygon fill="none" stroke="black" points="630,-185 630,-209 1045,-209 1045,-185 630,-185"/>
<text text-anchor="start" x="729" y="-193.2" font-family="Times,serif" font-size="16.00">Easy to contribute to the compiler</text>
<polygon fill="#ffb90f" stroke="transparent" points="630,-159 630,-183 1045,-183 1045,-159 630,-159"/>
<polygon fill="none" stroke="black" points="630,-159 630,-183 1045,-183 1045,-159 630,-159"/>
<text text-anchor="start" x="719.5" y="-167.2" font-family="Times,serif" font-size="16.00">Language semantics well understood</text>
<polygon fill="#ffb90f" stroke="transparent" points="630,-133 630,-157 1045,-157 1045,-133 630,-133"/>
<polygon fill="none" stroke="black" points="630,-133 630,-157 1045,-157 1045,-133 630,-133"/>
<text text-anchor="start" x="690" y="-141.2" font-family="Times,serif" font-size="16.00">Extending language possible by mere humans</text>
<polygon fill="cornsilk" stroke="transparent" points="630,-107 630,-131 685,-131 685,-107 630,-107"/>
<polygon fill="none" stroke="black" points="630,-107 630,-131 685,-131 685,-107 630,-107"/>
<text text-anchor="start" x="633" y="-115.2" font-family="Times,serif" font-size="16.00">▮▮▮▯▯</text>
<polygon fill="cornsilk" stroke="transparent" points="687,-107 687,-131 1045,-131 1045,-107 687,-107"/>
<polygon fill="none" stroke="black" points="687,-107 687,-131 1045,-131 1045,-107 687,-107"/>
<text text-anchor="start" x="690" y="-115.2" font-family="Times,serif" font-size="16.00">Rearchitect traits/borrow&#45;checking as logical predicates</text>
<polygon fill="cornsilk" stroke="transparent" points="630,-81 630,-105 685,-105 685,-81 630,-81"/>
<polygon fill="none" stroke="black" points="630,-81 630,-105 685,-105 685,-81 630,-81"/>
<text text-anchor="start" x="633" y="-89.2" font-family="Times,serif" font-size="16.00">▮▯▯▯▯</text>
<polygon fill="cornsilk" stroke="transparent" points="687,-81 687,-105 1045,-105 1045,-81 687,-81"/>
<polygon fill="none" stroke="black" points="687,-81 687,-105 1045,-105 1045,-81 687,-81"/>
<text text-anchor="start" x="759.5" y="-89.2" font-family="Times,serif" font-size="16.00">Core Rust semantics documented</text>
<polygon fill="cornsilk" stroke="transparent" points="630,-55 630,-79 685,-79 685,-55 630,-55"/>
<polygon fill="none" stroke="black" points="630,-55 630,-79 685,-79 685,-55 630,-55"/>
<text text-anchor="start" x="633" y="-63.2" font-family="Times,serif" font-size="16.00">▮▯▯▯▯</text>
<polygon fill="cornsilk" stroke="transparent" points="687,-55 687,-79 1045,-79 1045,-55 687,-55"/>
<polygon fill="none" stroke="black" points="687,-55 687,-79 1045,-79 1045,-55 687,-55"/>
<text text-anchor="start" x="804" y="-63.2" font-family="Times,serif" font-size="16.00">Proof of soundness</text>
<polygon fill="cornsilk" stroke="transparent" points="630,-29 630,-53 685,-53 685,-29 630,-29"/>
<polygon fill="none" stroke="black" points="630,-29 630,-53 685,-53 685,-29 630,-29"/>
<text text-anchor="start" x="633" y="-37.2" font-family="Times,serif" font-size="16.00">▮▮▯▯▯</text>
<polygon fill="cornsilk" stroke="transparent" points="687,-29 687,-53 1045,-53 1045,-29 687,-29"/>
<polygon fill="none" stroke="black" points="687,-29 687,-53 1045,-53 1045,-29 687,-29"/>
<text text-anchor="start" x="792" y="-37.2" font-family="Times,serif" font-size="16.00">Unsafe code guidelines</text>
<polygon fill="cornsilk" stroke="transparent" points="630,-3 630,-27 685,-27 685,-3 630,-3"/>
<polygon fill="none" stroke="black" points="630,-3 630,-27 685,-27 685,-3 630,-3"/>
<text text-anchor="start" x="633" y="-11.2" font-family="Times,serif" font-size="16.00">▮▮▯▯▯</text>
<polygon fill="cornsilk" stroke="transparent" points="687,-3 687,-27 1045,-27 1045,-3 687,-3"/>
<polygon fill="none" stroke="black" points="687,-3 687,-27 1045,-27 1045,-3 687,-3"/>
<text text-anchor="start" x="768" y="-11.2" font-family="Times,serif" font-size="16.00">Known soundness bugs closed</text>
<polygon fill="none" stroke="black" points="626.5,0 626.5,-238 1047.5,-238 1047.5,0 626.5,0"/>
</g>
<!-- semi&#45;stable&#45;apis&#45;&gt;fundamentals -->
<g id="edge9" class="edge">
<title>semi&#45;stable&#45;apis&#45;&gt;fundamentals</title>
<path fill="none" stroke="black" d="M582.19,-547.78C630.13,-467.3 705.12,-341.39 761.36,-246.98"/>
<polygon fill="black" stroke="black" points="764.46,-248.61 766.58,-238.23 758.45,-245.03 764.46,-248.61"/>
</g>
<!-- async&#45;lang -->
<g id="node6" class="node">
<title>async&#45;lang</title>
<polygon fill="darkgoldenrod" stroke="transparent" points="859,-707 859,-731 1231,-731 1231,-707 859,-707"/>
<polygon fill="none" stroke="black" points="859,-707 859,-731 1231,-731 1231,-707 859,-707"/>
<text text-anchor="start" x="965" y="-715.2" font-family="Times,serif" font-size="16.00">Async I/O Fundamentals</text>
<polygon fill="#ffb90f" stroke="transparent" points="859,-681 859,-705 1231,-705 1231,-681 859,-681"/>
<polygon fill="none" stroke="black" points="859,-681 859,-705 1231,-705 1231,-681 859,-681"/>
<text text-anchor="start" x="867" y="-689.2" font-family="Times,serif" font-size="16.00">Using Async I/O comparable in complexity to Sync I/O</text>
<polygon fill="#ffb90f" stroke="transparent" points="859,-655 859,-679 1231,-679 1231,-655 859,-655"/>
<polygon fill="none" stroke="black" points="859,-655 859,-679 1231,-679 1231,-655 859,-655"/>
<text text-anchor="start" x="872" y="-663.2" font-family="Times,serif" font-size="16.00">Access to a wide variety of useful libraries on crates.io</text>
<polygon fill="#ffb90f" stroke="transparent" points="859,-629 859,-653 1231,-653 1231,-629 859,-629"/>
<polygon fill="none" stroke="black" points="859,-629 859,-653 1231,-653 1231,-629 859,-629"/>
<text text-anchor="start" x="902.5" y="-637.2" font-family="Times,serif" font-size="16.00">Easy access to high performance networking</text>
<polygon fill="cornsilk" stroke="transparent" points="859,-603 859,-627 914,-627 914,-603 859,-603"/>
<polygon fill="none" stroke="black" points="859,-603 859,-627 914,-627 914,-603 859,-603"/>
<text text-anchor="start" x="862" y="-611.2" font-family="Times,serif" font-size="16.00">▮▮▮▯▯</text>
<polygon fill="cornsilk" stroke="transparent" points="916,-603 916,-627 1231,-627 1231,-603 916,-603"/>
<polygon fill="none" stroke="black" points="916,-603 916,-627 1231,-627 1231,-603 916,-603"/>
<text text-anchor="start" x="981" y="-611.2" font-family="Times,serif" font-size="16.00">Can use async fn everywhere</text>
<polygon fill="cornsilk" stroke="transparent" points="859,-577 859,-601 914,-601 914,-577 859,-577"/>
<polygon fill="none" stroke="black" points="859,-577 859,-601 914,-601 914,-577 859,-577"/>
<text text-anchor="start" x="862" y="-585.2" font-family="Times,serif" font-size="16.00">▮▮▯▯▯</text>
<polygon fill="cornsilk" stroke="transparent" points="916,-577 916,-601 1231,-601 1231,-577 916,-577"/>
<polygon fill="none" stroke="black" points="916,-577 916,-601 1231,-601 1231,-577 916,-577"/>
<text text-anchor="start" x="919" y="-585.2" font-family="Times,serif" font-size="16.00">Async resource cleanup works well (async drop)</text>
<polygon fill="cornsilk" stroke="transparent" points="859,-551 859,-575 914,-575 914,-551 859,-551"/>
<polygon fill="none" stroke="black" points="859,-551 859,-575 914,-575 914,-551 859,-551"/>
<text text-anchor="start" x="862" y="-559.2" font-family="Times,serif" font-size="16.00">▮▯▯▯▯</text>
<polygon fill="cornsilk" stroke="transparent" points="916,-551 916,-575 1231,-575 1231,-551 916,-551"/>
<polygon fill="none" stroke="black" points="916,-551 916,-575 1231,-575 1231,-551 916,-551"/>
<text text-anchor="start" x="948.5" y="-559.2" font-family="Times,serif" font-size="16.00">Easy interoperability between runtimes</text>
<polygon fill="cornsilk" stroke="transparent" points="859,-525 859,-549 914,-549 914,-525 859,-525"/>
<polygon fill="none" stroke="black" points="859,-525 859,-549 914,-549 914,-525 859,-525"/>
<text text-anchor="start" x="862" y="-533.2" font-family="Times,serif" font-size="16.00">▮▯▯▯▯</text>
<polygon fill="cornsilk" stroke="transparent" points="916,-525 916,-549 1231,-549 1231,-525 916,-525"/>
<polygon fill="none" stroke="black" points="916,-525 916,-549 1231,-549 1231,-525 916,-525"/>
<text text-anchor="start" x="1018" y="-533.2" font-family="Times,serif" font-size="16.00">Async generators</text>
<polygon fill="none" stroke="black" points="856,-522 856,-734 1234,-734 1234,-522 856,-522"/>
</g>
<!-- core&#45;lang -->
<g id="node8" class="node">
<title>core&#45;lang</title>
<polygon fill="darkgoldenrod" stroke="transparent" points="830,-459 830,-483 1260,-483 1260,-459 830,-459"/>
<polygon fill="none" stroke="black" points="830,-459 830,-483 1260,-483 1260,-459 830,-459"/>
<text text-anchor="start" x="950.5" y="-467.2" font-family="Times,serif" font-size="16.00">Core language improvements</text>
<polygon fill="#ffb90f" stroke="transparent" points="830,-433 830,-457 1260,-457 1260,-433 830,-433"/>
<polygon fill="none" stroke="black" points="830,-433 830,-457 1260,-457 1260,-433 830,-433"/>
<text text-anchor="start" x="861" y="-441.2" font-family="Times,serif" font-size="16.00">Rust language scales smoothly without &#39;complexity cliffs&#39;</text>
<polygon fill="#ffb90f" stroke="transparent" points="830,-407 830,-431 1260,-431 1260,-407 830,-407"/>
<polygon fill="none" stroke="black" points="830,-407 830,-431 1260,-431 1260,-407 830,-407"/>
<text text-anchor="start" x="858" y="-415.2" font-family="Times,serif" font-size="16.00">Rust able to express the patterns more complex code needs</text>
<polygon fill="cornsilk" stroke="transparent" points="830,-381 830,-405 885,-405 885,-381 830,-381"/>
<polygon fill="none" stroke="black" points="830,-381 830,-405 885,-405 885,-381 830,-381"/>
<text text-anchor="start" x="833" y="-389.2" font-family="Times,serif" font-size="16.00">▮▮▯▯▯</text>
<polygon fill="cornsilk" stroke="transparent" points="887,-381 887,-405 1260,-405 1260,-381 887,-381"/>
<polygon fill="none" stroke="black" points="887,-381 887,-405 1260,-405 1260,-381 887,-381"/>
<text text-anchor="start" x="890" y="-389.2" font-family="Times,serif" font-size="16.00">Dynamic dispatch (dyn trait) more powerful, easier to use</text>
<polygon fill="cornsilk" stroke="transparent" points="830,-355 830,-379 885,-379 885,-355 830,-355"/>
<polygon fill="none" stroke="black" points="830,-355 830,-379 885,-379 885,-355 830,-355"/>
<text text-anchor="start" x="833" y="-363.2" font-family="Times,serif" font-size="16.00">▮▮▯▯▯</text>
<polygon fill="cornsilk" stroke="transparent" points="887,-355 887,-379 1260,-379 1260,-355 887,-355"/>
<polygon fill="none" stroke="black" points="887,-355 887,-379 1260,-379 1260,-355 887,-355"/>
<text text-anchor="start" x="1028" y="-363.2" font-family="Times,serif" font-size="16.00">Specialization</text>
<polygon fill="cornsilk" stroke="transparent" points="830,-329 830,-353 885,-353 885,-329 830,-329"/>
<polygon fill="none" stroke="black" points="830,-329 830,-353 885,-353 885,-329 830,-329"/>
<text text-anchor="start" x="833" y="-337.2" font-family="Times,serif" font-size="16.00">▮▮▮▯▯</text>
<polygon fill="cornsilk" stroke="transparent" points="887,-329 887,-353 1260,-353 1260,-329 887,-329"/>
<polygon fill="none" stroke="black" points="887,-329 887,-353 1260,-353 1260,-329 887,-329"/>
<text text-anchor="start" x="970.5" y="-337.2" font-family="Times,serif" font-size="16.00">Generic associated types (GATs)</text>
<polygon fill="cornsilk" stroke="transparent" points="830,-303 830,-327 885,-327 885,-303 830,-303"/>
<polygon fill="none" stroke="black" points="830,-303 830,-327 885,-327 885,-303 830,-303"/>
<text text-anchor="start" x="833" y="-311.2" font-family="Times,serif" font-size="16.00">▮▮▮▮▯</text>
<polygon fill="cornsilk" stroke="transparent" points="887,-303 887,-327 1260,-327 1260,-303 887,-303"/>
<polygon fill="none" stroke="black" points="887,-303 887,-327 1260,-327 1260,-303 887,-303"/>
<text text-anchor="start" x="1043" y="-311.2" font-family="Times,serif" font-size="16.00">Impl trait</text>
<polygon fill="cornsilk" stroke="transparent" points="830,-277 830,-301 885,-301 885,-277 830,-277"/>
<polygon fill="none" stroke="black" points="830,-277 830,-301 885,-301 885,-277 830,-277"/>
<text text-anchor="start" x="833" y="-285.2" font-family="Times,serif" font-size="16.00">▮▯▯▯▯</text>
<polygon fill="cornsilk" stroke="transparent" points="887,-277 887,-301 1260,-301 1260,-277 887,-277"/>
<polygon fill="none" stroke="black" points="887,-277 887,-301 1260,-301 1260,-277 887,-277"/>
<text text-anchor="start" x="975" y="-285.2" font-family="Times,serif" font-size="16.00">Threaded contexts, capabilities</text>
<polygon fill="none" stroke="black" points="827,-274 827,-486 1263,-486 1263,-274 827,-274"/>
</g>
<!-- async&#45;lang&#45;&gt;core&#45;lang -->
<g id="edge10" class="edge">
<title>async&#45;lang&#45;&gt;core&#45;lang</title>
<path fill="none" stroke="black" d="M1045,-521.96C1045,-513.42 1045,-504.76 1045,-496.15"/>
<polygon fill="black" stroke="black" points="1048.5,-496.08 1045,-486.08 1041.5,-496.08 1048.5,-496.08"/>
</g>
<!-- async&#45;stack&#45;&gt;async&#45;lang -->
<g id="edge11" class="edge">
<title>async&#45;stack&#45;&gt;async&#45;lang</title>
<path fill="none" stroke="black" d="M1169.55,-769.87C1161.35,-760.59 1153.08,-751.24 1144.91,-742"/>
<polygon fill="black" stroke="black" points="1147.32,-739.44 1138.07,-734.26 1142.07,-744.07 1147.32,-739.44"/>
</g>
<!-- core&#45;lang&#45;&gt;fundamentals -->
<g id="edge12" class="edge">
<title>core&#45;lang&#45;&gt;fundamentals</title>
<path fill="none" stroke="black" d="M960.4,-273.65C953.18,-264.66 945.83,-255.51 938.5,-246.38"/>
<polygon fill="black" stroke="black" points="941.05,-243.97 932.06,-238.37 935.59,-248.36 941.05,-243.97"/>
</g>
<!-- easy&#45;lang&#45;&gt;core&#45;lang -->
<g id="edge13" class="edge">
<title>easy&#45;lang&#45;&gt;core&#45;lang</title>
<path fill="none" stroke="black" d="M1310.84,-534.87C1286.28,-520.66 1260.71,-505.86 1235.55,-491.29"/>
<polygon fill="black" stroke="black" points="1237.08,-488.13 1226.67,-486.15 1233.57,-494.19 1237.08,-488.13"/>
</g>
<!-- extensible&#45;&gt;semi&#45;stable&#45;apis -->
<g id="edge14" class="edge">
<title>extensible&#45;&gt;semi&#45;stable&#45;apis</title>
<path fill="none" stroke="black" d="M771.14,-808.88C731.86,-778.96 687,-744.79 647,-714.32"/>
<polygon fill="black" stroke="black" points="648.88,-711.35 638.81,-708.08 644.64,-716.92 648.88,-711.35"/>
</g>
<!-- debugging&#45;&gt;semi&#45;stable&#45;apis -->
<g id="edge15" class="edge">
<title>debugging&#45;&gt;semi&#45;stable&#45;apis</title>
<path fill="none" stroke="black" d="M187.72,-1043.76C176.52,-962.13 175.03,-849.82 229,-770 250.97,-737.5 282.44,-712.35 316.91,-692.94"/>
<polygon fill="black" stroke="black" points="318.63,-695.98 325.73,-688.12 315.28,-689.84 318.63,-695.98"/>
</g>
</g>
</svg>
