<?xml version="1.0" encoding="UTF-8" standalone="no"?>
<!DOCTYPE svg PUBLIC "-//W3C//DTD SVG 1.1//EN"
 "http://www.w3.org/Graphics/SVG/1.1/DTD/svg11.dtd">
<!-- Generated by graphviz version 2.50.0 (20211204.2007)
 -->
<!-- Title: g Pages: 1 -->
<svg width="1437pt" height="1552pt"
 viewBox="0.00 0.00 1437.00 1552.00" xmlns="http://www.w3.org/2000/svg" xmlns:xlink="http://www.w3.org/1999/xlink">
<g id="graph0" class="graph" transform="scale(1 1) rotate(0) translate(4 1548)">
<title>g</title>
<polygon fill="white" stroke="transparent" points="-4,4 -4,-1548 1433,-1548 1433,4 -4,4"/>
<!-- goal&#45;internet&#45;services -->
<g id="node1" class="node">
<title>goal&#45;internet&#45;services</title>
<polygon fill="darkgoldenrod" stroke="transparent" points="297,-1517 297,-1541 727,-1541 727,-1517 297,-1517"/>
<polygon fill="none" stroke="black" points="297,-1517 297,-1541 727,-1541 727,-1517 297,-1517"/>
<text text-anchor="start" x="335.5" y="-1525.2" font-family="Times,serif" font-size="16.00">🎯 Rust a common choice for building internet services</text>
<polygon fill="#ffb90f" stroke="transparent" points="297,-1491 297,-1515 727,-1515 727,-1491 297,-1491"/>
<polygon fill="none" stroke="black" points="297,-1491 297,-1515 727,-1515 727,-1491 297,-1491"/>
<text text-anchor="start" x="444" y="-1499.2" font-family="Times,serif" font-size="16.00">Faster response times</text>
<polygon fill="#ffb90f" stroke="transparent" points="297,-1465 297,-1489 727,-1489 727,-1465 297,-1465"/>
<polygon fill="none" stroke="black" points="297,-1465 297,-1489 727,-1489 727,-1465 297,-1465"/>
<text text-anchor="start" x="382" y="-1473.2" font-family="Times,serif" font-size="16.00">Ratio of P99.99 to P50 latencies is lower</text>
<polygon fill="#ffb90f" stroke="transparent" points="297,-1439 297,-1463 727,-1463 727,-1439 297,-1439"/>
<polygon fill="none" stroke="black" points="297,-1439 297,-1463 727,-1463 727,-1439 297,-1439"/>
<text text-anchor="start" x="301" y="-1447.2" font-family="Times,serif" font-size="16.00">Data centers require fewer resources to sustain same level of traffic</text>
<polygon fill="#ffb90f" stroke="transparent" points="297,-1413 297,-1437 727,-1437 727,-1413 297,-1413"/>
<polygon fill="none" stroke="black" points="297,-1413 297,-1437 727,-1437 727,-1413 297,-1413"/>
<text text-anchor="start" x="309.5" y="-1421.2" font-family="Times,serif" font-size="16.00">Memory safety bugs, null pointer exceptions largely eliminated</text>
<polygon fill="#ffb90f" stroke="transparent" points="297,-1387 297,-1411 727,-1411 727,-1387 297,-1387"/>
<polygon fill="none" stroke="black" points="297,-1387 297,-1411 727,-1411 727,-1387 297,-1387"/>
<text text-anchor="start" x="324.5" y="-1395.2" font-family="Times,serif" font-size="16.00">Concurrency bugs and resource leaks significantly reduced</text>
<polygon fill="#ffb90f" stroke="transparent" points="297,-1361 297,-1385 727,-1385 727,-1361 297,-1361"/>
<polygon fill="none" stroke="black" points="297,-1361 297,-1385 727,-1385 727,-1361 297,-1361"/>
<text text-anchor="start" x="353" y="-1369.2" font-family="Times,serif" font-size="16.00">Able to evolve and grow services with fewer bugs</text>
<polygon fill="#ffb90f" stroke="transparent" points="297,-1335 297,-1359 727,-1359 727,-1335 297,-1335"/>
<polygon fill="none" stroke="black" points="297,-1335 297,-1359 727,-1359 727,-1335 297,-1335"/>
<text text-anchor="start" x="427" y="-1343.2" font-family="Times,serif" font-size="16.00">Improved ability to recruit</text>
<polygon fill="none" stroke="black" points="294,-1332 294,-1544 730,-1544 730,-1332 294,-1332"/>
</g>
<!-- production -->
<g id="node2" class="node">
<title>production</title>
<polygon fill="darkgoldenrod" stroke="transparent" points="3,-1269 3,-1293 481,-1293 481,-1269 3,-1269"/>
<polygon fill="none" stroke="black" points="3,-1269 3,-1293 481,-1293 481,-1269 3,-1269"/>
<text text-anchor="start" x="7" y="-1277.2" font-family="Times,serif" font-size="16.00">Able to obtain metrics and logs and inspect state of services in production</text>
<polygon fill="cornsilk" stroke="transparent" points="3,-1243 3,-1267 92,-1267 92,-1243 3,-1243"/>
<polygon fill="none" stroke="black" points="3,-1243 3,-1267 92,-1267 92,-1243 3,-1243"/>
<text text-anchor="start" x="14" y="-1251.2" font-family="Times,serif" font-size="16.00">(not sure!)</text>
<polygon fill="cornsilk" stroke="transparent" points="94,-1243 94,-1267 481,-1267 481,-1243 94,-1243"/>
<polygon fill="none" stroke="black" points="94,-1243 94,-1267 481,-1267 481,-1243 94,-1243"/>
<text text-anchor="start" x="196" y="-1251.2" font-family="Times,serif" font-size="16.00">Async runtime observability</text>
<polygon fill="cornsilk" stroke="transparent" points="3,-1217 3,-1241 92,-1241 92,-1217 3,-1217"/>
<polygon fill="none" stroke="black" points="3,-1217 3,-1241 92,-1241 92,-1217 3,-1217"/>
<text text-anchor="start" x="23" y="-1225.2" font-family="Times,serif" font-size="16.00">▮▮▯▯▯</text>
<polygon fill="cornsilk" stroke="transparent" points="94,-1217 94,-1241 481,-1241 481,-1217 94,-1217"/>
<polygon fill="none" stroke="black" points="94,-1217 94,-1241 481,-1241 481,-1217 94,-1217"/>
<text text-anchor="start" x="177.5" y="-1225.2" font-family="Times,serif" font-size="16.00">Readable stacktraces, esp. in async</text>
<polygon fill="cornsilk" stroke="transparent" points="3,-1191 3,-1215 92,-1215 92,-1191 3,-1191"/>
<polygon fill="none" stroke="black" points="3,-1191 3,-1215 92,-1215 92,-1191 3,-1191"/>
<text text-anchor="start" x="23" y="-1199.2" font-family="Times,serif" font-size="16.00">▯▯▯▯▯</text>
<polygon fill="cornsilk" stroke="transparent" points="94,-1191 94,-1215 481,-1215 481,-1191 94,-1191"/>
<polygon fill="none" stroke="black" points="94,-1191 94,-1215 481,-1215 481,-1191 94,-1191"/>
<text text-anchor="start" x="105.5" y="-1199.2" font-family="Times,serif" font-size="16.00">Live, low&#45;overhead profilers for CPU and memory usage</text>
<polygon fill="none" stroke="black" points="0,-1188 0,-1296 484,-1296 484,-1188 0,-1188"/>
</g>
<!-- goal&#45;internet&#45;services&#45;&gt;production -->
<g id="edge2" class="edge">
<title>goal&#45;internet&#45;services&#45;&gt;production</title>
<path fill="none" stroke="black" d="M365.54,-1331.77C351.51,-1321.68 337.64,-1311.72 324.55,-1302.32"/>
<polygon fill="black" stroke="black" points="326.23,-1299.21 316.07,-1296.22 322.15,-1304.9 326.23,-1299.21"/>
</g>
<!-- debugging -->
<g id="node3" class="node">
<title>debugging</title>
<polygon fill="darkgoldenrod" stroke="transparent" points="182,-1099 182,-1123 566,-1123 566,-1099 182,-1099"/>
<polygon fill="none" stroke="black" points="182,-1099 182,-1123 566,-1123 566,-1099 182,-1099"/>
<text text-anchor="start" x="186" y="-1107.2" font-family="Times,serif" font-size="16.00">Able to fix (logic) bugs that are found during development</text>
<polygon fill="cornsilk" stroke="transparent" points="182,-1073 182,-1097 241,-1097 241,-1073 182,-1073"/>
<polygon fill="none" stroke="black" points="182,-1073 182,-1097 241,-1097 241,-1073 182,-1073"/>
<text text-anchor="start" x="187" y="-1081.2" font-family="Times,serif" font-size="16.00">▮▮▯▯▯</text>
<polygon fill="cornsilk" stroke="transparent" points="243,-1073 243,-1097 566,-1097 566,-1073 243,-1073"/>
<polygon fill="none" stroke="black" points="243,-1073 243,-1097 566,-1097 566,-1073 243,-1073"/>
<text text-anchor="start" x="332" y="-1081.2" font-family="Times,serif" font-size="16.00">Quality Rust debugger</text>
<polygon fill="cornsilk" stroke="transparent" points="182,-1047 182,-1071 241,-1071 241,-1047 182,-1047"/>
<polygon fill="none" stroke="black" points="182,-1047 182,-1071 241,-1071 241,-1047 182,-1047"/>
<text text-anchor="start" x="187" y="-1055.2" font-family="Times,serif" font-size="16.00">▮▮▮▯▯</text>
<polygon fill="cornsilk" stroke="transparent" points="243,-1047 243,-1071 566,-1071 566,-1047 243,-1047"/>
<polygon fill="none" stroke="black" points="243,-1047 243,-1071 566,-1071 566,-1047 243,-1047"/>
<text text-anchor="start" x="248" y="-1055.2" font-family="Times,serif" font-size="16.00">Async runtime observability (e.g., tokio console)</text>
<polygon fill="cornsilk" stroke="transparent" points="182,-1021 182,-1045 241,-1045 241,-1021 182,-1021"/>
<polygon fill="none" stroke="black" points="182,-1021 182,-1045 241,-1045 241,-1021 182,-1021"/>
<text text-anchor="start" x="187" y="-1029.2" font-family="Times,serif" font-size="16.00">▮▮▯▯▯</text>
<polygon fill="cornsilk" stroke="transparent" points="243,-1021 243,-1045 566,-1045 566,-1021 243,-1021"/>
<polygon fill="none" stroke="black" points="243,-1021 243,-1045 566,-1045 566,-1021 243,-1021"/>
<text text-anchor="start" x="286.5" y="-1029.2" font-family="Times,serif" font-size="16.00">Profilers for CPU and memory usage</text>
<polygon fill="none" stroke="black" points="179,-1018 179,-1126 569,-1126 569,-1018 179,-1018"/>
</g>
<!-- goal&#45;internet&#45;services&#45;&gt;debugging -->
<g id="edge3" class="edge">
<title>goal&#45;internet&#45;services&#45;&gt;debugging</title>
<path fill="none" stroke="black" d="M520.34,-1331.91C519.95,-1285.81 513.79,-1232.24 493,-1188 483.52,-1167.82 468.84,-1149.3 453,-1133.3"/>
<polygon fill="black" stroke="black" points="455.26,-1130.61 445.66,-1126.13 450.37,-1135.62 455.26,-1130.61"/>
</g>
<!-- development -->
<g id="node12" class="node">
<title>development</title>
<polygon fill="darkgoldenrod" stroke="transparent" points="543,-1230 543,-1254 869,-1254 869,-1230 543,-1230"/>
<polygon fill="none" stroke="black" points="543,-1230 543,-1254 869,-1254 869,-1230 543,-1230"/>
<text text-anchor="start" x="546.5" y="-1238.2" font-family="Times,serif" font-size="16.00">Able to develop code and implement new features</text>
<polygon fill="none" stroke="black" points="540,-1227 540,-1257 872,-1257 872,-1227 540,-1227"/>
</g>
<!-- goal&#45;internet&#45;services&#45;&gt;development -->
<g id="edge1" class="edge">
<title>goal&#45;internet&#45;services&#45;&gt;development</title>
<path fill="none" stroke="black" d="M617.23,-1331.77C641.49,-1307.51 665.05,-1283.95 681.8,-1267.2"/>
<polygon fill="black" stroke="black" points="684.39,-1269.56 688.99,-1260.01 679.44,-1264.61 684.39,-1269.56"/>
</g>
<!-- production&#45;&gt;debugging -->
<g id="edge4" class="edge">
<title>production&#45;&gt;debugging</title>
<path fill="none" stroke="black" d="M283.77,-1187.84C297.19,-1170.75 312.17,-1151.69 326.01,-1134.08"/>
<polygon fill="black" stroke="black" points="328.85,-1136.12 332.28,-1126.1 323.35,-1131.8 328.85,-1136.12"/>
</g>
<!-- semi&#45;stable&#45;apis -->
<g id="node5" class="node">
<title>semi&#45;stable&#45;apis</title>
<polygon fill="darkgoldenrod" stroke="transparent" points="305,-616 305,-640 717,-640 717,-616 305,-616"/>
<polygon fill="none" stroke="black" points="305,-616 305,-640 717,-640 717,-616 305,-616"/>
<text text-anchor="start" x="344" y="-624.2" font-family="Times,serif" font-size="16.00">Compiler offers semi&#45;stable APIs that others can use</text>
<polygon fill="cornsilk" stroke="transparent" points="305,-590 305,-614 360,-614 360,-590 305,-590"/>
<polygon fill="none" stroke="black" points="305,-590 305,-614 360,-614 360,-590 305,-590"/>
<text text-anchor="start" x="308" y="-598.2" font-family="Times,serif" font-size="16.00">▯▯▯▯▯</text>
<polygon fill="cornsilk" stroke="transparent" points="362,-590 362,-614 717,-614 717,-590 362,-590"/>
<polygon fill="none" stroke="black" points="362,-590 362,-614 717,-614 717,-590 362,-590"/>
<text text-anchor="start" x="412.5" y="-598.2" font-family="Times,serif" font-size="16.00">Shared crate for representing Rust types</text>
<polygon fill="cornsilk" stroke="transparent" points="305,-564 305,-588 360,-588 360,-564 305,-564"/>
<polygon fill="none" stroke="black" points="305,-564 305,-588 360,-588 360,-564 305,-564"/>
<text text-anchor="start" x="308" y="-572.2" font-family="Times,serif" font-size="16.00">▯▯▯▯▯</text>
<polygon fill="cornsilk" stroke="transparent" points="362,-564 362,-588 717,-588 717,-564 362,-564"/>
<polygon fill="none" stroke="black" points="362,-564 362,-588 717,-588 717,-564 362,-564"/>
<text text-anchor="start" x="365" y="-572.2" font-family="Times,serif" font-size="16.00">Access to Rust type information and type check results</text>
<polygon fill="cornsilk" stroke="transparent" points="305,-538 305,-562 360,-562 360,-538 305,-538"/>
<polygon fill="none" stroke="black" points="305,-538 305,-562 360,-562 360,-538 305,-538"/>
<text text-anchor="start" x="308" y="-546.2" font-family="Times,serif" font-size="16.00">▯▯▯▯▯</text>
<polygon fill="cornsilk" stroke="transparent" points="362,-538 362,-562 717,-562 717,-538 362,-538"/>
<polygon fill="none" stroke="black" points="362,-538 362,-562 717,-562 717,-538 362,-538"/>
<text text-anchor="start" x="448" y="-546.2" font-family="Times,serif" font-size="16.00">Ability to ask &#39;hypotheticals&#39;</text>
<polygon fill="cornsilk" stroke="transparent" points="305,-512 305,-536 360,-536 360,-512 305,-512"/>
<polygon fill="none" stroke="black" points="305,-512 305,-536 360,-536 360,-512 305,-512"/>
<text text-anchor="start" x="308" y="-520.2" font-family="Times,serif" font-size="16.00">▯▯▯▯▯</text>
<polygon fill="cornsilk" stroke="transparent" points="362,-512 362,-536 717,-536 717,-512 362,-512"/>
<polygon fill="none" stroke="black" points="362,-512 362,-536 717,-536 717,-512 362,-512"/>
<text text-anchor="start" x="415.5" y="-520.2" font-family="Times,serif" font-size="16.00">Access to the MIR for a given function</text>
<polygon fill="none" stroke="black" points="302,-509 302,-643 720,-643 720,-509 302,-509"/>
</g>
<!-- debugging&#45;&gt;semi&#45;stable&#45;apis -->
<g id="edge5" class="edge">
<title>debugging&#45;&gt;semi&#45;stable&#45;apis</title>
<path fill="none" stroke="black" d="M388.79,-1017.66C413.2,-929.66 461.98,-753.74 489.97,-652.83"/>
<polygon fill="black" stroke="black" points="493.4,-653.57 492.7,-643 486.65,-651.7 493.4,-653.57"/>
</g>
<!-- fundamentals -->
<g id="node4" class="node">
<title>fundamentals</title>
<polygon fill="darkgoldenrod" stroke="transparent" points="550,-159 550,-183 965,-183 965,-159 550,-159"/>
<polygon fill="none" stroke="black" points="550,-159 550,-183 965,-183 965,-159 550,-159"/>
<text text-anchor="start" x="598" y="-167.2" font-family="Times,serif" font-size="16.00">Compiler architecture is flexible and maintainable</text>
<polygon fill="#ffb90f" stroke="transparent" points="550,-133 550,-157 965,-157 965,-133 550,-133"/>
<polygon fill="none" stroke="black" points="550,-133 550,-157 965,-157 965,-133 550,-133"/>
<text text-anchor="start" x="649" y="-141.2" font-family="Times,serif" font-size="16.00">Easy to contribute to the compiler</text>
<polygon fill="#ffb90f" stroke="transparent" points="550,-107 550,-131 965,-131 965,-107 550,-107"/>
<polygon fill="none" stroke="black" points="550,-107 550,-131 965,-131 965,-107 550,-107"/>
<text text-anchor="start" x="639.5" y="-115.2" font-family="Times,serif" font-size="16.00">Language semantics well understood</text>
<polygon fill="#ffb90f" stroke="transparent" points="550,-81 550,-105 965,-105 965,-81 550,-81"/>
<polygon fill="none" stroke="black" points="550,-81 550,-105 965,-105 965,-81 550,-81"/>
<text text-anchor="start" x="610" y="-89.2" font-family="Times,serif" font-size="16.00">Extending language possible by mere humans</text>
<polygon fill="cornsilk" stroke="transparent" points="550,-55 550,-79 605,-79 605,-55 550,-55"/>
<polygon fill="none" stroke="black" points="550,-55 550,-79 605,-79 605,-55 550,-55"/>
<text text-anchor="start" x="553" y="-63.2" font-family="Times,serif" font-size="16.00">▮▮▮▯▯</text>
<polygon fill="cornsilk" stroke="transparent" points="607,-55 607,-79 965,-79 965,-55 607,-55"/>
<polygon fill="none" stroke="black" points="607,-55 607,-79 965,-79 965,-55 607,-55"/>
<text text-anchor="start" x="610" y="-63.2" font-family="Times,serif" font-size="16.00">Rearchitect traits/borrow&#45;checking as logical predicates</text>
<polygon fill="cornsilk" stroke="transparent" points="550,-29 550,-53 605,-53 605,-29 550,-29"/>
<polygon fill="none" stroke="black" points="550,-29 550,-53 605,-53 605,-29 550,-29"/>
<text text-anchor="start" x="553" y="-37.2" font-family="Times,serif" font-size="16.00">▮▯▯▯▯</text>
<polygon fill="cornsilk" stroke="transparent" points="607,-29 607,-53 965,-53 965,-29 607,-29"/>
<polygon fill="none" stroke="black" points="607,-29 607,-53 965,-53 965,-29 607,-29"/>
<text text-anchor="start" x="679.5" y="-37.2" font-family="Times,serif" font-size="16.00">Core Rust semantics documented</text>
<polygon fill="cornsilk" stroke="transparent" points="550,-3 550,-27 605,-27 605,-3 550,-3"/>
<polygon fill="none" stroke="black" points="550,-3 550,-27 605,-27 605,-3 550,-3"/>
<text text-anchor="start" x="553" y="-11.2" font-family="Times,serif" font-size="16.00">▮▮▯▯▯</text>
<polygon fill="cornsilk" stroke="transparent" points="607,-3 607,-27 965,-27 965,-3 607,-3"/>
<polygon fill="none" stroke="black" points="607,-3 607,-27 965,-27 965,-3 607,-3"/>
<text text-anchor="start" x="688" y="-11.2" font-family="Times,serif" font-size="16.00">Known soundness bugs closed</text>
<polygon fill="none" stroke="black" points="546.5,0 546.5,-186 967.5,-186 967.5,0 546.5,0"/>
</g>
<!-- semi&#45;stable&#45;apis&#45;&gt;fundamentals -->
<g id="edge6" class="edge">
<title>semi&#45;stable&#45;apis&#45;&gt;fundamentals</title>
<path fill="none" stroke="black" d="M496.8,-508.92C484.38,-433.51 475.78,-309.34 530,-222 536.34,-211.79 543.81,-202.32 552.1,-193.55"/>
<polygon fill="black" stroke="black" points="554.69,-195.9 559.25,-186.34 549.72,-190.97 554.69,-195.9"/>
</g>
<!-- onboarding -->
<g id="node6" class="node">
<title>onboarding</title>
<polygon fill="darkgoldenrod" stroke="transparent" points="846,-1125 846,-1149 1140,-1149 1140,-1125 846,-1125"/>
<polygon fill="none" stroke="black" points="846,-1125 846,-1149 1140,-1149 1140,-1125 846,-1125"/>
<text text-anchor="start" x="882" y="-1133.2" font-family="Times,serif" font-size="16.00">Able to onboard engineers quickly</text>
<polygon fill="cornsilk" stroke="transparent" points="846,-1099 846,-1123 901,-1123 901,-1099 846,-1099"/>
<polygon fill="none" stroke="black" points="846,-1099 846,-1123 901,-1123 901,-1099 846,-1099"/>
<text text-anchor="start" x="849" y="-1107.2" font-family="Times,serif" font-size="16.00">▮▮▮▮▮</text>
<polygon fill="cornsilk" stroke="transparent" points="903,-1099 903,-1123 1140,-1123 1140,-1099 903,-1099"/>
<polygon fill="none" stroke="black" points="903,-1099 903,-1123 1140,-1123 1140,-1099 903,-1099"/>
<text text-anchor="start" x="917.5" y="-1107.2" font-family="Times,serif" font-size="16.00">Rust beginner learning materials</text>
<polygon fill="cornsilk" stroke="transparent" points="846,-1073 846,-1097 901,-1097 901,-1073 846,-1073"/>
<polygon fill="none" stroke="black" points="846,-1073 846,-1097 901,-1097 901,-1073 846,-1073"/>
<text text-anchor="start" x="849" y="-1081.2" font-family="Times,serif" font-size="16.00">▮▮▮▯▯</text>
<polygon fill="cornsilk" stroke="transparent" points="903,-1073 903,-1097 1140,-1097 1140,-1073 903,-1073"/>
<polygon fill="none" stroke="black" points="903,-1073 903,-1097 1140,-1097 1140,-1073 903,-1073"/>
<text text-anchor="start" x="906" y="-1081.2" font-family="Times,serif" font-size="16.00">Rust intermediate learning materials</text>
<polygon fill="cornsilk" stroke="transparent" points="846,-1047 846,-1071 901,-1071 901,-1047 846,-1047"/>
<polygon fill="none" stroke="black" points="846,-1047 846,-1071 901,-1071 901,-1047 846,-1047"/>
<text text-anchor="start" x="849" y="-1055.2" font-family="Times,serif" font-size="16.00">▯▯▯▯▯</text>
<polygon fill="cornsilk" stroke="transparent" points="903,-1047 903,-1071 1140,-1071 1140,-1047 903,-1047"/>
<polygon fill="none" stroke="black" points="903,-1047 903,-1071 1140,-1071 1140,-1047 903,-1047"/>
<text text-anchor="start" x="959.5" y="-1055.2" font-family="Times,serif" font-size="16.00">Java transition path</text>
<polygon fill="cornsilk" stroke="transparent" points="846,-1021 846,-1045 901,-1045 901,-1021 846,-1021"/>
<polygon fill="none" stroke="black" points="846,-1021 846,-1045 901,-1045 901,-1021 846,-1021"/>
<text text-anchor="start" x="849" y="-1029.2" font-family="Times,serif" font-size="16.00">▮▮▯▯▯</text>
<polygon fill="cornsilk" stroke="transparent" points="903,-1021 903,-1045 1140,-1045 1140,-1021 903,-1021"/>
<polygon fill="none" stroke="black" points="903,-1021 903,-1045 1140,-1045 1140,-1021 903,-1021"/>
<text text-anchor="start" x="959" y="-1029.2" font-family="Times,serif" font-size="16.00">C++ transition path</text>
<polygon fill="cornsilk" stroke="transparent" points="846,-995 846,-1019 901,-1019 901,-995 846,-995"/>
<polygon fill="none" stroke="black" points="846,-995 846,-1019 901,-1019 901,-995 846,-995"/>
<text text-anchor="start" x="849" y="-1003.2" font-family="Times,serif" font-size="16.00">▮▮▯▯▯</text>
<polygon fill="cornsilk" stroke="transparent" points="903,-995 903,-1019 1140,-1019 1140,-995 903,-995"/>
<polygon fill="none" stroke="black" points="903,-995 903,-1019 1140,-1019 1140,-995 903,-995"/>
<text text-anchor="start" x="913" y="-1003.2" font-family="Times,serif" font-size="16.00">Dynamic language transition path</text>
<polygon fill="none" stroke="black" points="843,-992 843,-1152 1143,-1152 1143,-992 843,-992"/>
</g>
<!-- async&#45;stack -->
<g id="node8" class="node">
<title>async&#45;stack</title>
<polygon fill="darkgoldenrod" stroke="transparent" points="1034,-929 1034,-953 1364,-953 1364,-929 1034,-929"/>
<polygon fill="none" stroke="black" points="1034,-929 1034,-953 1364,-953 1364,-929 1034,-929"/>
<text text-anchor="start" x="1079" y="-937.2" font-family="Times,serif" font-size="16.00">Rust offers a full&#45;featured async stack</text>
<polygon fill="#ffb90f" stroke="transparent" points="1034,-903 1034,-927 1364,-927 1364,-903 1034,-903"/>
<polygon fill="none" stroke="black" points="1034,-903 1034,-927 1364,-927 1364,-903 1034,-903"/>
<text text-anchor="start" x="1064" y="-911.2" font-family="Times,serif" font-size="16.00">Can quickly stand up an async application</text>
<polygon fill="#ffb90f" stroke="transparent" points="1034,-877 1034,-901 1364,-901 1364,-877 1034,-877"/>
<polygon fill="none" stroke="black" points="1034,-877 1034,-901 1364,-901 1364,-877 1034,-877"/>
<text text-anchor="start" x="1080" y="-885.2" font-family="Times,serif" font-size="16.00">Devs able to focus on &#39;business logic&#39;</text>
<polygon fill="cornsilk" stroke="transparent" points="1034,-851 1034,-875 1089,-875 1089,-851 1034,-851"/>
<polygon fill="none" stroke="black" points="1034,-851 1034,-875 1089,-875 1089,-851 1034,-851"/>
<text text-anchor="start" x="1037" y="-859.2" font-family="Times,serif" font-size="16.00">▮▮▮▯▯</text>
<polygon fill="cornsilk" stroke="transparent" points="1091,-851 1091,-875 1364,-875 1364,-851 1091,-851"/>
<polygon fill="none" stroke="black" points="1091,-851 1091,-875 1364,-875 1364,-851 1091,-851"/>
<text text-anchor="start" x="1133" y="-859.2" font-family="Times,serif" font-size="16.00">High&#45;performance runtime(s)</text>
<polygon fill="cornsilk" stroke="transparent" points="1034,-825 1034,-849 1089,-849 1089,-825 1034,-825"/>
<polygon fill="none" stroke="black" points="1034,-825 1034,-849 1089,-849 1089,-825 1034,-825"/>
<text text-anchor="start" x="1037" y="-833.2" font-family="Times,serif" font-size="16.00">▮▮▮▯▯</text>
<polygon fill="cornsilk" stroke="transparent" points="1091,-825 1091,-849 1364,-849 1364,-825 1091,-825"/>
<polygon fill="none" stroke="black" points="1091,-825 1091,-849 1364,-849 1364,-825 1091,-825"/>
<text text-anchor="start" x="1199.5" y="-833.2" font-family="Times,serif" font-size="16.00">Logging</text>
<polygon fill="cornsilk" stroke="transparent" points="1034,-799 1034,-823 1089,-823 1089,-799 1034,-799"/>
<polygon fill="none" stroke="black" points="1034,-799 1034,-823 1089,-823 1089,-799 1034,-799"/>
<text text-anchor="start" x="1037" y="-807.2" font-family="Times,serif" font-size="16.00">▮▯▯▯▯</text>
<polygon fill="cornsilk" stroke="transparent" points="1091,-799 1091,-823 1364,-823 1364,-799 1091,-799"/>
<polygon fill="none" stroke="black" points="1091,-799 1091,-823 1364,-823 1364,-799 1091,-799"/>
<text text-anchor="start" x="1203.5" y="-807.2" font-family="Times,serif" font-size="16.00">Testing</text>
<polygon fill="cornsilk" stroke="transparent" points="1034,-773 1034,-797 1089,-797 1089,-773 1034,-773"/>
<polygon fill="none" stroke="black" points="1034,-773 1034,-797 1089,-797 1089,-773 1034,-773"/>
<text text-anchor="start" x="1037" y="-781.2" font-family="Times,serif" font-size="16.00">▮▮▯▯▯</text>
<polygon fill="cornsilk" stroke="transparent" points="1091,-773 1091,-797 1364,-797 1364,-773 1091,-773"/>
<polygon fill="none" stroke="black" points="1091,-773 1091,-797 1364,-797 1364,-773 1091,-773"/>
<text text-anchor="start" x="1159" y="-781.2" font-family="Times,serif" font-size="16.00">Persistence / database</text>
<polygon fill="cornsilk" stroke="transparent" points="1034,-747 1034,-771 1089,-771 1089,-747 1034,-747"/>
<polygon fill="none" stroke="black" points="1034,-747 1034,-771 1089,-771 1089,-747 1034,-747"/>
<text text-anchor="start" x="1037" y="-755.2" font-family="Times,serif" font-size="16.00">▮▮▯▯▯</text>
<polygon fill="cornsilk" stroke="transparent" points="1091,-747 1091,-771 1364,-771 1364,-747 1091,-747"/>
<polygon fill="none" stroke="black" points="1091,-747 1091,-771 1364,-771 1364,-747 1091,-747"/>
<text text-anchor="start" x="1189" y="-755.2" font-family="Times,serif" font-size="16.00">Middleware</text>
<polygon fill="cornsilk" stroke="transparent" points="1034,-721 1034,-745 1089,-745 1089,-721 1034,-721"/>
<polygon fill="none" stroke="black" points="1034,-721 1034,-745 1089,-745 1089,-721 1034,-721"/>
<text text-anchor="start" x="1037" y="-729.2" font-family="Times,serif" font-size="16.00">▮▮▮▯▯</text>
<polygon fill="cornsilk" stroke="transparent" points="1091,-721 1091,-745 1364,-745 1364,-721 1091,-721"/>
<polygon fill="none" stroke="black" points="1091,-721 1091,-745 1364,-745 1364,-721 1091,-721"/>
<text text-anchor="start" x="1094" y="-729.2" font-family="Times,serif" font-size="16.00">I/O uring support in tokio, other runtimes</text>
<polygon fill="none" stroke="black" points="1031,-718 1031,-956 1367,-956 1367,-718 1031,-718"/>
</g>
<!-- onboarding&#45;&gt;async&#45;stack -->
<g id="edge7" class="edge">
<title>onboarding&#45;&gt;async&#45;stack</title>
<path fill="none" stroke="black" d="M1063.03,-991.79C1071.04,-982.74 1079.34,-973.34 1087.72,-963.87"/>
<polygon fill="black" stroke="black" points="1090.45,-966.06 1094.45,-956.25 1085.2,-961.43 1090.45,-966.06"/>
</g>
<!-- extensible -->
<g id="node10" class="node">
<title>extensible</title>
<polygon fill="darkgoldenrod" stroke="transparent" points="542,-890 542,-914 962,-914 962,-890 542,-890"/>
<polygon fill="none" stroke="black" points="542,-890 542,-914 962,-914 962,-890 542,-890"/>
<text text-anchor="start" x="701.5" y="-898.2" font-family="Times,serif" font-size="16.00">Extensible Rust</text>
<polygon fill="#ffb90f" stroke="transparent" points="542,-864 542,-888 962,-888 962,-864 542,-864"/>
<polygon fill="none" stroke="black" points="542,-864 542,-888 962,-888 962,-864 542,-864"/>
<text text-anchor="start" x="567" y="-872.2" font-family="Times,serif" font-size="16.00">Rust libraries can take control of the developer experience</text>
<polygon fill="cornsilk" stroke="transparent" points="542,-838 542,-862 597,-862 597,-838 542,-838"/>
<polygon fill="none" stroke="black" points="542,-838 542,-862 597,-862 597,-838 542,-838"/>
<text text-anchor="start" x="545" y="-846.2" font-family="Times,serif" font-size="16.00">▮▮▯▯▯</text>
<polygon fill="cornsilk" stroke="transparent" points="599,-838 599,-862 962,-862 962,-838 599,-838"/>
<polygon fill="none" stroke="black" points="599,-838 599,-862 962,-862 962,-838 599,-838"/>
<text text-anchor="start" x="732" y="-846.2" font-family="Times,serif" font-size="16.00">Macro hygiene</text>
<polygon fill="cornsilk" stroke="transparent" points="542,-812 542,-836 597,-836 597,-812 542,-812"/>
<polygon fill="none" stroke="black" points="542,-812 542,-836 597,-836 597,-812 542,-812"/>
<text text-anchor="start" x="545" y="-820.2" font-family="Times,serif" font-size="16.00">▯▯▯▯▯</text>
<polygon fill="cornsilk" stroke="transparent" points="599,-812 599,-836 962,-836 962,-812 599,-812"/>
<polygon fill="none" stroke="black" points="599,-812 599,-836 962,-836 962,-812 599,-812"/>
<text text-anchor="start" x="665" y="-820.2" font-family="Times,serif" font-size="16.00">Libraries supply custom lints, errors</text>
<polygon fill="cornsilk" stroke="transparent" points="542,-786 542,-810 597,-810 597,-786 542,-786"/>
<polygon fill="none" stroke="black" points="542,-786 542,-810 597,-810 597,-786 542,-786"/>
<text text-anchor="start" x="545" y="-794.2" font-family="Times,serif" font-size="16.00">▮▯▯▯▯</text>
<polygon fill="cornsilk" stroke="transparent" points="599,-786 599,-810 962,-810 962,-786 599,-786"/>
<polygon fill="none" stroke="black" points="599,-786 599,-810 962,-810 962,-786 599,-786"/>
<text text-anchor="start" x="602" y="-794.2" font-family="Times,serif" font-size="16.00">Libraries offering custom IDE integration (refactorings)</text>
<polygon fill="cornsilk" stroke="transparent" points="542,-760 542,-784 597,-784 597,-760 542,-760"/>
<polygon fill="none" stroke="black" points="542,-760 542,-784 597,-784 597,-760 542,-760"/>
<text text-anchor="start" x="545" y="-768.2" font-family="Times,serif" font-size="16.00">▮▯▯▯▯</text>
<polygon fill="cornsilk" stroke="transparent" points="599,-760 599,-784 962,-784 962,-760 599,-760"/>
<polygon fill="none" stroke="black" points="599,-760 599,-784 962,-784 962,-760 599,-760"/>
<text text-anchor="start" x="636.5" y="-768.2" font-family="Times,serif" font-size="16.00">Macros, lints have access to type information</text>
<polygon fill="none" stroke="black" points="539,-757 539,-917 965,-917 965,-757 539,-757"/>
</g>
<!-- onboarding&#45;&gt;extensible -->
<g id="edge8" class="edge">
<title>onboarding&#45;&gt;extensible</title>
<path fill="none" stroke="black" d="M911.07,-991.79C888.66,-970.13 864.26,-946.54 841.46,-924.49"/>
<polygon fill="black" stroke="black" points="843.73,-921.82 834.11,-917.38 838.87,-926.85 843.73,-921.82"/>
</g>
<!-- easy&#45;lang -->
<g id="node11" class="node">
<title>easy&#45;lang</title>
<polygon fill="darkgoldenrod" stroke="transparent" points="542,-394 542,-418 972,-418 972,-394 542,-394"/>
<polygon fill="none" stroke="black" points="542,-394 542,-418 972,-418 972,-394 542,-394"/>
<text text-anchor="start" x="675.5" y="-402.2" font-family="Times,serif" font-size="16.00">Rust is (more) ergonomic</text>
<polygon fill="#ffb90f" stroke="transparent" points="542,-368 542,-392 972,-392 972,-368 542,-368"/>
<polygon fill="none" stroke="black" points="542,-368 542,-392 972,-392 972,-368 542,-368"/>
<text text-anchor="start" x="628" y="-376.2" font-family="Times,serif" font-size="16.00">Using Rust feels smooth and convenient</text>
<polygon fill="cornsilk" stroke="transparent" points="542,-342 542,-366 597,-366 597,-342 542,-342"/>
<polygon fill="none" stroke="black" points="542,-342 542,-366 597,-366 597,-342 542,-342"/>
<text text-anchor="start" x="545" y="-350.2" font-family="Times,serif" font-size="16.00">▮▮▯▯▯</text>
<polygon fill="cornsilk" stroke="transparent" points="599,-342 599,-366 972,-366 972,-342 599,-342"/>
<polygon fill="none" stroke="black" points="599,-342 599,-366 972,-366 972,-342 599,-342"/>
<text text-anchor="start" x="602" y="-350.2" font-family="Times,serif" font-size="16.00">Dynamic dispatch (dyn trait) more powerful, easier to use</text>
<polygon fill="cornsilk" stroke="transparent" points="542,-316 542,-340 597,-340 597,-316 542,-316"/>
<polygon fill="none" stroke="black" points="542,-316 542,-340 597,-340 597,-316 542,-316"/>
<text text-anchor="start" x="545" y="-324.2" font-family="Times,serif" font-size="16.00">▮▮▯▯▯</text>
<polygon fill="cornsilk" stroke="transparent" points="599,-316 599,-340 972,-340 972,-316 599,-316"/>
<polygon fill="none" stroke="black" points="599,-316 599,-340 972,-340 972,-316 599,-316"/>
<text text-anchor="start" x="734.5" y="-324.2" font-family="Times,serif" font-size="16.00">Implied bounds</text>
<polygon fill="cornsilk" stroke="transparent" points="542,-290 542,-314 597,-314 597,-290 542,-290"/>
<polygon fill="none" stroke="black" points="542,-290 542,-314 597,-314 597,-290 542,-290"/>
<text text-anchor="start" x="545" y="-298.2" font-family="Times,serif" font-size="16.00">▮▯▯▯▯</text>
<polygon fill="cornsilk" stroke="transparent" points="599,-290 599,-314 972,-314 972,-290 599,-290"/>
<polygon fill="none" stroke="black" points="599,-290 599,-314 972,-314 972,-290 599,-290"/>
<text text-anchor="start" x="750.5" y="-298.2" font-family="Times,serif" font-size="16.00">Generators</text>
<polygon fill="cornsilk" stroke="transparent" points="542,-264 542,-288 597,-288 597,-264 542,-264"/>
<polygon fill="none" stroke="black" points="542,-264 542,-288 597,-288 597,-264 542,-264"/>
<text text-anchor="start" x="545" y="-272.2" font-family="Times,serif" font-size="16.00">▮▯▯▯▯</text>
<g id="a_node11_0"><a xlink:href="https://github.com/rust-lang/polonius/" xlink:title="&lt;TABLE&gt;">
<polygon fill="cornsilk" stroke="transparent" points="599,-264 599,-288 972,-288 972,-264 599,-264"/>
<polygon fill="none" stroke="black" points="599,-264 599,-288 972,-288 972,-264 599,-264"/>
<text text-anchor="start" x="702.5" y="-273.2" font-family="Times,serif" text-decoration="underline" font-size="16.00">Improved borrow checker</text>
</a>
</g>
<polygon fill="cornsilk" stroke="transparent" points="542,-238 542,-262 597,-262 597,-238 542,-238"/>
<polygon fill="none" stroke="black" points="542,-238 542,-262 597,-262 597,-238 542,-238"/>
<text text-anchor="start" x="545" y="-246.2" font-family="Times,serif" font-size="16.00">▮▯▯▯▯</text>
<g id="a_node11_1"><a xlink:href="https://smallcultfollowing.com/babysteps//blog/2021/11/05/view-types/" xlink:title="&lt;TABLE&gt;">
<polygon fill="cornsilk" stroke="transparent" points="599,-238 599,-262 972,-262 972,-238 599,-238"/>
<polygon fill="none" stroke="black" points="599,-238 599,-262 972,-262 972,-238 599,-238"/>
<text text-anchor="start" x="750" y="-247.2" font-family="Times,serif" text-decoration="underline" font-size="16.00">View types</text>
</a>
</g>
<polygon fill="none" stroke="black" points="539,-235 539,-421 975,-421 975,-235 539,-235"/>
</g>
<!-- onboarding&#45;&gt;easy&#45;lang -->
<g id="edge9" class="edge">
<title>onboarding&#45;&gt;easy&#45;lang</title>
<path fill="none" stroke="black" d="M998.81,-991.84C1001.8,-919.16 1000.37,-809.24 974,-718 943.61,-612.84 880.49,-505.05 830.12,-429.68"/>
<polygon fill="black" stroke="black" points="832.84,-427.46 824.36,-421.12 827.03,-431.37 832.84,-427.46"/>
</g>
<!-- async&#45;lang -->
<g id="node7" class="node">
<title>async&#45;lang</title>
<polygon fill="darkgoldenrod" stroke="transparent" points="1024,-655 1024,-679 1396,-679 1396,-655 1024,-655"/>
<polygon fill="none" stroke="black" points="1024,-655 1024,-679 1396,-679 1396,-655 1024,-655"/>
<text text-anchor="start" x="1099" y="-663.2" font-family="Times,serif" font-size="16.00">Rust supports Async I/O smoothly</text>
<polygon fill="#ffb90f" stroke="transparent" points="1024,-629 1024,-653 1396,-653 1396,-629 1024,-629"/>
<polygon fill="none" stroke="black" points="1024,-629 1024,-653 1396,-653 1396,-629 1024,-629"/>
<text text-anchor="start" x="1032" y="-637.2" font-family="Times,serif" font-size="16.00">Using Async I/O comparable in complexity to Sync I/O</text>
<polygon fill="#ffb90f" stroke="transparent" points="1024,-603 1024,-627 1396,-627 1396,-603 1024,-603"/>
<polygon fill="none" stroke="black" points="1024,-603 1024,-627 1396,-627 1396,-603 1024,-603"/>
<text text-anchor="start" x="1037" y="-611.2" font-family="Times,serif" font-size="16.00">Access to a wide variety of useful libraries on crates.io</text>
<polygon fill="#ffb90f" stroke="transparent" points="1024,-577 1024,-601 1396,-601 1396,-577 1024,-577"/>
<polygon fill="none" stroke="black" points="1024,-577 1024,-601 1396,-601 1396,-577 1024,-577"/>
<text text-anchor="start" x="1067.5" y="-585.2" font-family="Times,serif" font-size="16.00">Easy access to high performance networking</text>
<polygon fill="cornsilk" stroke="transparent" points="1024,-551 1024,-575 1079,-575 1079,-551 1024,-551"/>
<polygon fill="none" stroke="black" points="1024,-551 1024,-575 1079,-575 1079,-551 1024,-551"/>
<text text-anchor="start" x="1027" y="-559.2" font-family="Times,serif" font-size="16.00">▮▮▮▯▯</text>
<polygon fill="cornsilk" stroke="transparent" points="1081,-551 1081,-575 1396,-575 1396,-551 1081,-551"/>
<polygon fill="none" stroke="black" points="1081,-551 1081,-575 1396,-575 1396,-551 1081,-551"/>
<text text-anchor="start" x="1146" y="-559.2" font-family="Times,serif" font-size="16.00">Can use async fn everywhere</text>
<polygon fill="cornsilk" stroke="transparent" points="1024,-525 1024,-549 1079,-549 1079,-525 1024,-525"/>
<polygon fill="none" stroke="black" points="1024,-525 1024,-549 1079,-549 1079,-525 1024,-525"/>
<text text-anchor="start" x="1027" y="-533.2" font-family="Times,serif" font-size="16.00">▮▮▯▯▯</text>
<polygon fill="cornsilk" stroke="transparent" points="1081,-525 1081,-549 1396,-549 1396,-525 1081,-525"/>
<polygon fill="none" stroke="black" points="1081,-525 1081,-549 1396,-549 1396,-525 1081,-525"/>
<text text-anchor="start" x="1084" y="-533.2" font-family="Times,serif" font-size="16.00">Async resource cleanup works well (async drop)</text>
<polygon fill="cornsilk" stroke="transparent" points="1024,-499 1024,-523 1079,-523 1079,-499 1024,-499"/>
<polygon fill="none" stroke="black" points="1024,-499 1024,-523 1079,-523 1079,-499 1024,-499"/>
<text text-anchor="start" x="1027" y="-507.2" font-family="Times,serif" font-size="16.00">▮▯▯▯▯</text>
<polygon fill="cornsilk" stroke="transparent" points="1081,-499 1081,-523 1396,-523 1396,-499 1081,-499"/>
<polygon fill="none" stroke="black" points="1081,-499 1081,-523 1396,-523 1396,-499 1081,-499"/>
<text text-anchor="start" x="1113.5" y="-507.2" font-family="Times,serif" font-size="16.00">Easy interoperability between runtimes</text>
<polygon fill="cornsilk" stroke="transparent" points="1024,-473 1024,-497 1079,-497 1079,-473 1024,-473"/>
<polygon fill="none" stroke="black" points="1024,-473 1024,-497 1079,-497 1079,-473 1024,-473"/>
<text text-anchor="start" x="1027" y="-481.2" font-family="Times,serif" font-size="16.00">▮▯▯▯▯</text>
<polygon fill="cornsilk" stroke="transparent" points="1081,-473 1081,-497 1396,-497 1396,-473 1081,-473"/>
<polygon fill="none" stroke="black" points="1081,-473 1081,-497 1396,-497 1396,-473 1081,-473"/>
<text text-anchor="start" x="1183" y="-481.2" font-family="Times,serif" font-size="16.00">Async generators</text>
<polygon fill="none" stroke="black" points="1021,-470 1021,-682 1399,-682 1399,-470 1021,-470"/>
</g>
<!-- expressive&#45;lang -->
<g id="node9" class="node">
<title>expressive&#45;lang</title>
<polygon fill="darkgoldenrod" stroke="transparent" points="996,-407 996,-431 1426,-431 1426,-407 996,-407"/>
<polygon fill="none" stroke="black" points="996,-407 996,-431 1426,-431 1426,-407 996,-407"/>
<text text-anchor="start" x="1153.5" y="-415.2" font-family="Times,serif" font-size="16.00">Rust is expressive</text>
<polygon fill="#ffb90f" stroke="transparent" points="996,-381 996,-405 1426,-405 1426,-381 996,-381"/>
<polygon fill="none" stroke="black" points="996,-381 996,-405 1426,-405 1426,-381 996,-381"/>
<text text-anchor="start" x="1027" y="-389.2" font-family="Times,serif" font-size="16.00">Rust language scales smoothly without &#39;complexity cliffs&#39;</text>
<polygon fill="#ffb90f" stroke="transparent" points="996,-355 996,-379 1426,-379 1426,-355 996,-355"/>
<polygon fill="none" stroke="black" points="996,-355 996,-379 1426,-379 1426,-355 996,-355"/>
<text text-anchor="start" x="1024" y="-363.2" font-family="Times,serif" font-size="16.00">Rust able to express the patterns more complex code needs</text>
<polygon fill="cornsilk" stroke="transparent" points="996,-329 996,-353 1051,-353 1051,-329 996,-329"/>
<polygon fill="none" stroke="black" points="996,-329 996,-353 1051,-353 1051,-329 996,-329"/>
<text text-anchor="start" x="999" y="-337.2" font-family="Times,serif" font-size="16.00">▮▮▯▯▯</text>
<polygon fill="cornsilk" stroke="transparent" points="1053,-329 1053,-353 1426,-353 1426,-329 1053,-329"/>
<polygon fill="none" stroke="black" points="1053,-329 1053,-353 1426,-353 1426,-329 1053,-329"/>
<text text-anchor="start" x="1056" y="-337.2" font-family="Times,serif" font-size="16.00">Dynamic dispatch (dyn trait) more powerful, easier to use</text>
<polygon fill="cornsilk" stroke="transparent" points="996,-303 996,-327 1051,-327 1051,-303 996,-303"/>
<polygon fill="none" stroke="black" points="996,-303 996,-327 1051,-327 1051,-303 996,-303"/>
<text text-anchor="start" x="999" y="-311.2" font-family="Times,serif" font-size="16.00">▮▮▯▯▯</text>
<polygon fill="cornsilk" stroke="transparent" points="1053,-303 1053,-327 1426,-327 1426,-303 1053,-303"/>
<polygon fill="none" stroke="black" points="1053,-303 1053,-327 1426,-327 1426,-303 1053,-303"/>
<text text-anchor="start" x="1194" y="-311.2" font-family="Times,serif" font-size="16.00">Specialization</text>
<polygon fill="cornsilk" stroke="transparent" points="996,-277 996,-301 1051,-301 1051,-277 996,-277"/>
<polygon fill="none" stroke="black" points="996,-277 996,-301 1051,-301 1051,-277 996,-277"/>
<text text-anchor="start" x="999" y="-285.2" font-family="Times,serif" font-size="16.00">▮▮▮▯▯</text>
<polygon fill="cornsilk" stroke="transparent" points="1053,-277 1053,-301 1426,-301 1426,-277 1053,-277"/>
<polygon fill="none" stroke="black" points="1053,-277 1053,-301 1426,-301 1426,-277 1053,-277"/>
<text text-anchor="start" x="1136.5" y="-285.2" font-family="Times,serif" font-size="16.00">Generic associated types (GATs)</text>
<polygon fill="cornsilk" stroke="transparent" points="996,-251 996,-275 1051,-275 1051,-251 996,-251"/>
<polygon fill="none" stroke="black" points="996,-251 996,-275 1051,-275 1051,-251 996,-251"/>
<text text-anchor="start" x="999" y="-259.2" font-family="Times,serif" font-size="16.00">▮▮▮▮▯</text>
<polygon fill="cornsilk" stroke="transparent" points="1053,-251 1053,-275 1426,-275 1426,-251 1053,-251"/>
<polygon fill="none" stroke="black" points="1053,-251 1053,-275 1426,-275 1426,-251 1053,-251"/>
<text text-anchor="start" x="1209" y="-259.2" font-family="Times,serif" font-size="16.00">Impl trait</text>
<polygon fill="cornsilk" stroke="transparent" points="996,-225 996,-249 1051,-249 1051,-225 996,-225"/>
<polygon fill="none" stroke="black" points="996,-225 996,-249 1051,-249 1051,-225 996,-225"/>
<text text-anchor="start" x="999" y="-233.2" font-family="Times,serif" font-size="16.00">▮▯▯▯▯</text>
<polygon fill="cornsilk" stroke="transparent" points="1053,-225 1053,-249 1426,-249 1426,-225 1053,-225"/>
<polygon fill="none" stroke="black" points="1053,-225 1053,-249 1426,-249 1426,-225 1053,-225"/>
<text text-anchor="start" x="1141" y="-233.2" font-family="Times,serif" font-size="16.00">Threaded contexts, capabilities</text>
<polygon fill="none" stroke="black" points="993,-222 993,-434 1429,-434 1429,-222 993,-222"/>
</g>
<!-- async&#45;lang&#45;&gt;expressive&#45;lang -->
<g id="edge10" class="edge">
<title>async&#45;lang&#45;&gt;expressive&#45;lang</title>
<path fill="none" stroke="black" d="M1210.43,-469.96C1210.46,-461.42 1210.5,-452.76 1210.53,-444.15"/>
<polygon fill="black" stroke="black" points="1214.03,-444.09 1210.57,-434.08 1207.03,-444.07 1214.03,-444.09"/>
</g>
<!-- async&#45;stack&#45;&gt;async&#45;lang -->
<g id="edge11" class="edge">
<title>async&#45;stack&#45;&gt;async&#45;lang</title>
<path fill="none" stroke="black" d="M1204.02,-717.87C1204.38,-709.43 1204.74,-700.92 1205.09,-692.49"/>
<polygon fill="black" stroke="black" points="1208.6,-692.4 1205.53,-682.26 1201.61,-692.11 1208.6,-692.4"/>
</g>
<!-- expressive&#45;lang&#45;&gt;fundamentals -->
<g id="edge12" class="edge">
<title>expressive&#45;lang&#45;&gt;fundamentals</title>
<path fill="none" stroke="black" d="M1006.25,-221.92C986.06,-211.56 965.63,-201.07 945.61,-190.8"/>
<polygon fill="black" stroke="black" points="946.94,-187.55 936.45,-186.1 943.75,-193.78 946.94,-187.55"/>
</g>
<!-- extensible&#45;&gt;semi&#45;stable&#45;apis -->
<g id="edge13" class="edge">
<title>extensible&#45;&gt;semi&#45;stable&#45;apis</title>
<path fill="none" stroke="black" d="M678.38,-756.88C646.85,-723 610.25,-683.66 579.33,-650.43"/>
<polygon fill="black" stroke="black" points="581.79,-647.94 572.41,-643 576.66,-652.71 581.79,-647.94"/>
</g>
<!-- easy&#45;lang&#45;&gt;fundamentals -->
<g id="edge14" class="edge">
<title>easy&#45;lang&#45;&gt;fundamentals</title>
<path fill="none" stroke="black" d="M757,-234.91C757,-222.27 757,-209.22 757,-196.4"/>
<polygon fill="black" stroke="black" points="760.5,-196.18 757,-186.18 753.5,-196.18 760.5,-196.18"/>
</g>
<!-- development&#45;&gt;debugging -->
<g id="edge16" class="edge">
<title>development&#45;&gt;debugging</title>
<path fill="none" stroke="black" d="M672.34,-1223.97C629.36,-1202.22 552.78,-1163.47 487.97,-1130.67"/>
<polygon fill="black" stroke="black" points="489.42,-1127.48 478.91,-1126.09 486.26,-1133.73 489.42,-1127.48"/>
</g>
<!-- development&#45;&gt;onboarding -->
<g id="edge15" class="edge">
<title>development&#45;&gt;onboarding</title>
<path fill="none" stroke="black" d="M735.1,-1223.97C762.55,-1207.9 805.86,-1182.54 849.21,-1157.17"/>
<polygon fill="black" stroke="black" points="851.01,-1160.17 857.87,-1152.1 847.47,-1154.13 851.01,-1160.17"/>
</g>
<!-- ide -->
<g id="node13" class="node">
<title>ide</title>
<polygon fill="darkgoldenrod" stroke="transparent" points="590,-1099 590,-1123 822,-1123 822,-1099 590,-1099"/>
<polygon fill="none" stroke="black" points="590,-1099 590,-1123 822,-1123 822,-1099 590,-1099"/>
<text text-anchor="start" x="631.5" y="-1107.2" font-family="Times,serif" font-size="16.00">Top&#45;notch IDE support</text>
<polygon fill="cornsilk" stroke="transparent" points="590,-1073 590,-1097 645,-1097 645,-1073 590,-1073"/>
<polygon fill="none" stroke="black" points="590,-1073 590,-1097 645,-1097 645,-1073 590,-1073"/>
<text text-anchor="start" x="593" y="-1081.2" font-family="Times,serif" font-size="16.00">▮▮▮▮▮</text>
<polygon fill="cornsilk" stroke="transparent" points="647,-1073 647,-1097 822,-1097 822,-1073 647,-1073"/>
<polygon fill="none" stroke="black" points="647,-1073 647,-1097 822,-1097 822,-1073 647,-1073"/>
<text text-anchor="start" x="668" y="-1081.2" font-family="Times,serif" font-size="16.00">LSP implementation</text>
<polygon fill="cornsilk" stroke="transparent" points="590,-1047 590,-1071 645,-1071 645,-1047 590,-1047"/>
<polygon fill="none" stroke="black" points="590,-1047 590,-1071 645,-1071 645,-1047 590,-1047"/>
<text text-anchor="start" x="593" y="-1055.2" font-family="Times,serif" font-size="16.00">▮▯▯▯▯</text>
<polygon fill="cornsilk" stroke="transparent" points="647,-1047 647,-1071 822,-1071 822,-1047 647,-1047"/>
<polygon fill="none" stroke="black" points="647,-1047 647,-1071 822,-1071 822,-1047 647,-1047"/>
<text text-anchor="start" x="650" y="-1055.2" font-family="Times,serif" font-size="16.00">Shares code with compiler</text>
<polygon fill="cornsilk" stroke="transparent" points="590,-1021 590,-1045 645,-1045 645,-1021 590,-1021"/>
<polygon fill="none" stroke="black" points="590,-1021 590,-1045 645,-1045 645,-1021 590,-1021"/>
<text text-anchor="start" x="593" y="-1029.2" font-family="Times,serif" font-size="16.00">▮▮▮▯▯</text>
<polygon fill="cornsilk" stroke="transparent" points="647,-1021 647,-1045 822,-1045 822,-1021 647,-1021"/>
<polygon fill="none" stroke="black" points="647,-1021 647,-1045 822,-1045 822,-1021 647,-1021"/>
<text text-anchor="start" x="659" y="-1029.2" font-family="Times,serif" font-size="16.00">Plethora of refactorings</text>
<polygon fill="none" stroke="black" points="587,-1018 587,-1126 825,-1126 825,-1018 587,-1018"/>
</g>
<!-- development&#45;&gt;ide -->
<g id="edge17" class="edge">
<title>development&#45;&gt;ide</title>
<path fill="none" stroke="black" d="M706,-1223.97C706,-1203.42 706,-1167.69 706,-1136.16"/>
<polygon fill="black" stroke="black" points="709.5,-1136.09 706,-1126.09 702.5,-1136.09 709.5,-1136.09"/>
</g>
<!-- ide&#45;&gt;semi&#45;stable&#45;apis -->
<g id="edge18" class="edge">
<title>ide&#45;&gt;semi&#45;stable&#45;apis</title>
<path fill="none" stroke="black" d="M621.19,-1017.94C577.6,-990.27 532.93,-961.1 530,-956 476.46,-862.71 483.48,-734.26 495.6,-653.44"/>
<polygon fill="black" stroke="black" points="499.09,-653.76 497.17,-643.34 492.17,-652.68 499.09,-653.76"/>
</g>
</g>
</svg>
