<?xml version="1.0" encoding="UTF-8" standalone="no"?>
<!DOCTYPE svg PUBLIC "-//W3C//DTD SVG 1.1//EN"
 "http://www.w3.org/Graphics/SVG/1.1/DTD/svg11.dtd">
<!-- Generated by graphviz version 2.43.0 (0)
 -->
<!-- Title: g Pages: 1 -->
<svg width="2041pt" height="1460pt"
 viewBox="0.00 0.00 2041.00 1460.00" xmlns="http://www.w3.org/2000/svg" xmlns:xlink="http://www.w3.org/1999/xlink">
<g id="graph0" class="graph" transform="scale(1 1) rotate(0) translate(4 1456)">
<title>g</title>
<polygon fill="white" stroke="transparent" points="-4,4 -4,-1456 2037,-1456 2037,4 -4,4"/>
<!-- goal&#45;internet&#45;services -->
<g id="node1" class="node">
<title>goal&#45;internet&#45;services</title>
<polygon fill="darkgoldenrod" stroke="transparent" points="248,-1425 248,-1449 857,-1449 857,-1425 248,-1425"/>
<polygon fill="none" stroke="black" points="248,-1425 248,-1449 857,-1449 857,-1425 248,-1425"/>
<text text-anchor="start" x="271" y="-1433.2" font-family="Times,serif" font-size="16.00">🎯 Rust a common choice for programs running on internet services</text>
<polygon fill="#ffb90f" stroke="transparent" points="248,-1399 248,-1423 857,-1423 857,-1399 248,-1399"/>
<polygon fill="none" stroke="black" points="248,-1399 248,-1423 857,-1423 857,-1399 248,-1399"/>
<text text-anchor="start" x="461.5" y="-1407.2" font-family="Times,serif" font-size="16.00">Faster response times</text>
<polygon fill="#ffb90f" stroke="transparent" points="248,-1373 248,-1397 857,-1397 857,-1373 248,-1373"/>
<polygon fill="none" stroke="black" points="248,-1373 248,-1397 857,-1397 857,-1373 248,-1373"/>
<text text-anchor="start" x="384" y="-1381.2" font-family="Times,serif" font-size="16.00">Ratio of P99.99 to P50 latencies is lower</text>
<polygon fill="#ffb90f" stroke="transparent" points="248,-1347 248,-1371 857,-1371 857,-1347 248,-1347"/>
<polygon fill="none" stroke="black" points="248,-1347 248,-1371 857,-1371 857,-1347 248,-1347"/>
<text text-anchor="start" x="270.5" y="-1355.2" font-family="Times,serif" font-size="16.00">Data centers require fewer resources to sustain same level of traffic</text>
<polygon fill="#ffb90f" stroke="transparent" points="248,-1321 248,-1345 857,-1345 857,-1321 248,-1321"/>
<polygon fill="none" stroke="black" points="248,-1321 248,-1345 857,-1345 857,-1321 248,-1321"/>
<text text-anchor="start" x="252" y="-1329.2" font-family="Times,serif" font-size="16.00">Rate of security vulnerabilities and serious bugs is dramatically reduced</text>
<polygon fill="#ffb90f" stroke="transparent" points="248,-1295 248,-1319 857,-1319 857,-1295 248,-1295"/>
<polygon fill="none" stroke="black" points="248,-1295 248,-1319 857,-1319 857,-1295 248,-1295"/>
<text text-anchor="start" x="342" y="-1303.2" font-family="Times,serif" font-size="16.00">Improved employee retention and ability to recruit</text>
<polygon fill="none" stroke="black" points="244.5,-1292 244.5,-1452 859.5,-1452 859.5,-1292 244.5,-1292"/>
</g>
<!-- prod&#45;tooling -->
<g id="node2" class="node">
<title>prod&#45;tooling</title>
<polygon fill="darkgoldenrod" stroke="transparent" points="3,-1203 3,-1227 573,-1227 573,-1203 3,-1203"/>
<polygon fill="none" stroke="black" points="3,-1203 3,-1227 573,-1227 573,-1203 3,-1203"/>
<text text-anchor="start" x="211" y="-1211.2" font-family="Times,serif" font-size="16.00">Production tooling</text>
<polygon fill="#ffb90f" stroke="transparent" points="3,-1177 3,-1201 573,-1201 573,-1177 3,-1177"/>
<polygon fill="none" stroke="black" points="3,-1177 3,-1201 573,-1201 573,-1177 3,-1177"/>
<text text-anchor="start" x="11.5" y="-1185.2" font-family="Times,serif" font-size="16.00">Able to troubleshoot correctness problems that arise in production</text>
<polygon fill="#ffb90f" stroke="transparent" points="3,-1151 3,-1175 573,-1175 573,-1151 3,-1151"/>
<polygon fill="none" stroke="black" points="3,-1151 3,-1175 573,-1175 573,-1151 3,-1151"/>
<text text-anchor="start" x="7" y="-1159.2" font-family="Times,serif" font-size="16.00">Able to troubleshoot performance problems that arise in production</text>
<polygon fill="cornsilk" stroke="transparent" points="3,-1125 3,-1149 100,-1149 100,-1125 3,-1125"/>
<polygon fill="none" stroke="black" points="3,-1125 3,-1149 100,-1149 100,-1125 3,-1125"/>
<text text-anchor="start" x="7.5" y="-1133.2" font-family="Times,serif" font-size="16.00">(not sure!)</text>
<polygon fill="cornsilk" stroke="transparent" points="102,-1125 102,-1149 573,-1149 573,-1125 102,-1125"/>
<polygon fill="none" stroke="black" points="102,-1125 102,-1149 573,-1149 573,-1125 102,-1125"/>
<text text-anchor="start" x="222" y="-1133.2" font-family="Times,serif" font-size="16.00">Async runtime observability</text>
<polygon fill="cornsilk" stroke="transparent" points="3,-1099 3,-1123 100,-1123 100,-1099 3,-1099"/>
<polygon fill="none" stroke="black" points="3,-1099 3,-1123 100,-1123 100,-1099 3,-1099"/>
<text text-anchor="start" x="28.5" y="-1107.2" font-family="Times,serif" font-size="16.00">▮▮▯▯▯</text>
<polygon fill="cornsilk" stroke="transparent" points="102,-1099 102,-1123 573,-1123 573,-1099 102,-1099"/>
<polygon fill="none" stroke="black" points="102,-1099 102,-1123 573,-1123 573,-1099 102,-1099"/>
<text text-anchor="start" x="190" y="-1107.2" font-family="Times,serif" font-size="16.00">Readable stacktraces, esp. in async</text>
<polygon fill="cornsilk" stroke="transparent" points="3,-1073 3,-1097 100,-1097 100,-1073 3,-1073"/>
<polygon fill="none" stroke="black" points="3,-1073 3,-1097 100,-1097 100,-1073 3,-1073"/>
<text text-anchor="start" x="28.5" y="-1081.2" font-family="Times,serif" font-size="16.00">▯▯▯▯▯</text>
<polygon fill="cornsilk" stroke="transparent" points="102,-1073 102,-1097 573,-1097 573,-1073 102,-1073"/>
<polygon fill="none" stroke="black" points="102,-1073 102,-1097 573,-1097 573,-1073 102,-1073"/>
<text text-anchor="start" x="107" y="-1081.2" font-family="Times,serif" font-size="16.00">Live, low&#45;overhead profilers for CPU and memory usage</text>
<polygon fill="none" stroke="black" points="0,-1070 0,-1230 576,-1230 576,-1070 0,-1070"/>
</g>
<!-- goal&#45;internet&#45;services&#45;&gt;prod&#45;tooling -->
<g id="edge2" class="edge">
<title>goal&#45;internet&#45;services&#45;&gt;prod&#45;tooling</title>
<path fill="none" stroke="black" d="M457.06,-1291.89C435.6,-1274 412.72,-1254.93 390.95,-1236.79"/>
<polygon fill="black" stroke="black" points="392.9,-1233.86 382.98,-1230.15 388.42,-1239.24 392.9,-1233.86"/>
</g>
<!-- onboarding&#45;time -->
<g id="node6" class="node">
<title>onboarding&#45;time</title>
<polygon fill="darkgoldenrod" stroke="transparent" points="606,-1229 606,-1253 1044,-1253 1044,-1229 606,-1229"/>
<polygon fill="none" stroke="black" points="606,-1229 606,-1253 1044,-1253 1044,-1229 606,-1229"/>
<text text-anchor="start" x="668" y="-1237.2" font-family="Times,serif" font-size="16.00">Smooth onboarding of Rust engineers</text>
<polygon fill="#ffb90f" stroke="transparent" points="606,-1203 606,-1227 1044,-1227 1044,-1203 606,-1203"/>
<polygon fill="none" stroke="black" points="606,-1203 606,-1227 1044,-1227 1044,-1203 606,-1203"/>
<text text-anchor="start" x="610" y="-1211.2" font-family="Times,serif" font-size="16.00">Time to be highly productive is measured in months</text>
<polygon fill="#ffb90f" stroke="transparent" points="606,-1177 606,-1201 1044,-1201 1044,-1177 606,-1177"/>
<polygon fill="none" stroke="black" points="606,-1177 606,-1201 1044,-1201 1044,-1177 606,-1177"/>
<text text-anchor="start" x="616.5" y="-1185.2" font-family="Times,serif" font-size="16.00">Clear transition paths from other major languages</text>
<polygon fill="cornsilk" stroke="transparent" points="606,-1151 606,-1175 693,-1175 693,-1151 606,-1151"/>
<polygon fill="none" stroke="black" points="606,-1151 606,-1175 693,-1175 693,-1151 606,-1151"/>
<text text-anchor="start" x="626.5" y="-1159.2" font-family="Times,serif" font-size="16.00">▮▮▮▮▮</text>
<polygon fill="cornsilk" stroke="transparent" points="695,-1151 695,-1175 1044,-1175 1044,-1151 695,-1151"/>
<polygon fill="none" stroke="black" points="695,-1151 695,-1175 1044,-1175 1044,-1151 695,-1151"/>
<text text-anchor="start" x="732.5" y="-1159.2" font-family="Times,serif" font-size="16.00">Rust beginner learning materials</text>
<polygon fill="cornsilk" stroke="transparent" points="606,-1125 606,-1149 693,-1149 693,-1125 606,-1125"/>
<polygon fill="none" stroke="black" points="606,-1125 606,-1149 693,-1149 693,-1125 606,-1125"/>
<text text-anchor="start" x="626.5" y="-1133.2" font-family="Times,serif" font-size="16.00">▮▮▮▯▯</text>
<polygon fill="cornsilk" stroke="transparent" points="695,-1125 695,-1149 1044,-1149 1044,-1125 695,-1125"/>
<polygon fill="none" stroke="black" points="695,-1125 695,-1149 1044,-1149 1044,-1125 695,-1125"/>
<text text-anchor="start" x="716" y="-1133.2" font-family="Times,serif" font-size="16.00">Rust intermediate learning materials</text>
<polygon fill="cornsilk" stroke="transparent" points="606,-1099 606,-1123 693,-1123 693,-1099 606,-1099"/>
<polygon fill="none" stroke="black" points="606,-1099 606,-1123 693,-1123 693,-1099 606,-1099"/>
<text text-anchor="start" x="626.5" y="-1107.2" font-family="Times,serif" font-size="16.00">▯▯▯▯▯</text>
<polygon fill="cornsilk" stroke="transparent" points="695,-1099 695,-1123 1044,-1123 1044,-1099 695,-1099"/>
<polygon fill="none" stroke="black" points="695,-1099 695,-1123 1044,-1123 1044,-1099 695,-1099"/>
<text text-anchor="start" x="787.5" y="-1107.2" font-family="Times,serif" font-size="16.00">Java transition path</text>
<polygon fill="cornsilk" stroke="transparent" points="606,-1073 606,-1097 693,-1097 693,-1073 606,-1073"/>
<polygon fill="none" stroke="black" points="606,-1073 606,-1097 693,-1097 693,-1073 606,-1073"/>
<text text-anchor="start" x="626.5" y="-1081.2" font-family="Times,serif" font-size="16.00">▮▮▯▯▯</text>
<polygon fill="cornsilk" stroke="transparent" points="695,-1073 695,-1097 1044,-1097 1044,-1073 695,-1073"/>
<polygon fill="none" stroke="black" points="695,-1073 695,-1097 1044,-1097 1044,-1073 695,-1073"/>
<text text-anchor="start" x="785.5" y="-1081.2" font-family="Times,serif" font-size="16.00">C++ transition path</text>
<polygon fill="cornsilk" stroke="transparent" points="606,-1047 606,-1071 693,-1071 693,-1047 606,-1047"/>
<polygon fill="none" stroke="black" points="606,-1047 606,-1071 693,-1071 693,-1047 606,-1047"/>
<text text-anchor="start" x="626.5" y="-1055.2" font-family="Times,serif" font-size="16.00">▮▮▯▯▯</text>
<polygon fill="cornsilk" stroke="transparent" points="695,-1047 695,-1071 1044,-1071 1044,-1047 695,-1047"/>
<polygon fill="none" stroke="black" points="695,-1047 695,-1071 1044,-1071 1044,-1047 695,-1047"/>
<text text-anchor="start" x="728.5" y="-1055.2" font-family="Times,serif" font-size="16.00">Dynamic language transition path</text>
<polygon fill="none" stroke="black" points="603,-1044 603,-1256 1047,-1256 1047,-1044 603,-1044"/>
</g>
<!-- goal&#45;internet&#45;services&#45;&gt;onboarding&#45;time -->
<g id="edge1" class="edge">
<title>goal&#45;internet&#45;services&#45;&gt;onboarding&#45;time</title>
<path fill="none" stroke="black" d="M650.17,-1291.89C661.96,-1282.39 674.16,-1272.55 686.39,-1262.7"/>
<polygon fill="black" stroke="black" points="688.83,-1265.23 694.42,-1256.23 684.44,-1259.78 688.83,-1265.23"/>
</g>
<!-- dev&#45;tooling -->
<g id="node3" class="node">
<title>dev&#45;tooling</title>
<polygon fill="darkgoldenrod" stroke="transparent" points="15,-968 15,-992 541,-992 541,-968 15,-968"/>
<polygon fill="none" stroke="black" points="15,-968 15,-992 541,-992 541,-968 15,-968"/>
<text text-anchor="start" x="204" y="-976.2" font-family="Times,serif" font-size="16.00">Developer tooling</text>
<polygon fill="#ffb90f" stroke="transparent" points="15,-942 15,-966 541,-966 541,-942 15,-942"/>
<polygon fill="none" stroke="black" points="15,-942 15,-966 541,-966 541,-942 15,-942"/>
<text text-anchor="start" x="45" y="-950.2" font-family="Times,serif" font-size="16.00">Able to understand programs in terms of async behavior</text>
<polygon fill="#ffb90f" stroke="transparent" points="15,-916 15,-940 541,-940 541,-916 15,-916"/>
<polygon fill="none" stroke="black" points="15,-916 15,-940 541,-940 541,-916 15,-916"/>
<text text-anchor="start" x="23.5" y="-924.2" font-family="Times,serif" font-size="16.00">Able to fix correctness problems in development environment</text>
<polygon fill="#ffb90f" stroke="transparent" points="15,-890 15,-914 541,-914 541,-890 15,-890"/>
<polygon fill="none" stroke="black" points="15,-890 15,-914 541,-914 541,-890 15,-890"/>
<text text-anchor="start" x="19" y="-898.2" font-family="Times,serif" font-size="16.00">Able to fix performance problems in development environment</text>
<polygon fill="cornsilk" stroke="transparent" points="15,-864 15,-888 101,-888 101,-864 15,-864"/>
<polygon fill="none" stroke="black" points="15,-864 15,-888 101,-888 101,-864 15,-864"/>
<text text-anchor="start" x="35" y="-872.2" font-family="Times,serif" font-size="16.00">▮▮▯▯▯</text>
<polygon fill="cornsilk" stroke="transparent" points="103,-864 103,-888 541,-888 541,-864 103,-864"/>
<polygon fill="none" stroke="black" points="103,-864 103,-888 541,-888 541,-864 103,-864"/>
<text text-anchor="start" x="228.5" y="-872.2" font-family="Times,serif" font-size="16.00">Quality Rust debugger</text>
<polygon fill="cornsilk" stroke="transparent" points="15,-838 15,-862 101,-862 101,-838 15,-838"/>
<polygon fill="none" stroke="black" points="15,-838 15,-862 101,-862 101,-838 15,-838"/>
<text text-anchor="start" x="35" y="-846.2" font-family="Times,serif" font-size="16.00">▮▮▮▮▯</text>
<polygon fill="cornsilk" stroke="transparent" points="103,-838 103,-862 541,-862 541,-838 103,-838"/>
<polygon fill="none" stroke="black" points="103,-838 103,-862 541,-862 541,-838 103,-838"/>
<text text-anchor="start" x="159.5" y="-846.2" font-family="Times,serif" font-size="16.00">Rust well integrated into common IDEs</text>
<polygon fill="cornsilk" stroke="transparent" points="15,-812 15,-836 101,-836 101,-812 15,-812"/>
<polygon fill="none" stroke="black" points="15,-812 15,-836 101,-836 101,-812 15,-812"/>
<text text-anchor="start" x="35" y="-820.2" font-family="Times,serif" font-size="16.00">▮▮▮▯▯</text>
<polygon fill="cornsilk" stroke="transparent" points="103,-812 103,-836 541,-836 541,-812 103,-812"/>
<polygon fill="none" stroke="black" points="103,-812 103,-836 541,-836 541,-812 103,-812"/>
<text text-anchor="start" x="123" y="-820.2" font-family="Times,serif" font-size="16.00">Async runtime observability (e.g., tokio console)</text>
<polygon fill="cornsilk" stroke="transparent" points="15,-786 15,-810 101,-810 101,-786 15,-786"/>
<polygon fill="none" stroke="black" points="15,-786 15,-810 101,-810 101,-786 15,-786"/>
<text text-anchor="start" x="35" y="-794.2" font-family="Times,serif" font-size="16.00">▮▮▯▯▯</text>
<polygon fill="cornsilk" stroke="transparent" points="103,-786 103,-810 541,-810 541,-786 103,-786"/>
<polygon fill="none" stroke="black" points="103,-786 103,-810 541,-810 541,-786 103,-786"/>
<text text-anchor="start" x="171.5" y="-794.2" font-family="Times,serif" font-size="16.00">Profilers for CPU and memory usage</text>
<polygon fill="none" stroke="black" points="12,-783 12,-995 544,-995 544,-783 12,-783"/>
</g>
<!-- prod&#45;tooling&#45;&gt;dev&#45;tooling -->
<g id="edge3" class="edge">
<title>prod&#45;tooling&#45;&gt;dev&#45;tooling</title>
<path fill="none" stroke="black" d="M284.95,-1069.88C284.16,-1049.59 283.3,-1027.35 282.46,-1005.63"/>
<polygon fill="black" stroke="black" points="285.95,-1005.21 282.07,-995.36 278.96,-1005.48 285.95,-1005.21"/>
</g>
<!-- semi&#45;stable&#45;apis -->
<g id="node5" class="node">
<title>semi&#45;stable&#45;apis</title>
<polygon fill="darkgoldenrod" stroke="transparent" points="469,-681 469,-705 984,-705 984,-681 469,-681"/>
<polygon fill="none" stroke="black" points="469,-681 469,-705 984,-705 984,-681 469,-681"/>
<text text-anchor="start" x="657" y="-689.2" font-family="Times,serif" font-size="16.00">Semi&#45;stable APIs</text>
<polygon fill="#ffb90f" stroke="transparent" points="469,-655 469,-679 984,-679 984,-655 469,-655"/>
<polygon fill="none" stroke="black" points="469,-655 469,-679 984,-679 984,-655 469,-655"/>
<text text-anchor="start" x="510" y="-663.2" font-family="Times,serif" font-size="16.00">Compiler offers semi&#45;stable APIs that others can use</text>
<polygon fill="cornsilk" stroke="transparent" points="469,-629 469,-653 521,-653 521,-629 469,-629"/>
<polygon fill="none" stroke="black" points="469,-629 469,-653 521,-653 521,-629 469,-629"/>
<text text-anchor="start" x="472" y="-637.2" font-family="Times,serif" font-size="16.00">▯▯▯▯▯</text>
<polygon fill="cornsilk" stroke="transparent" points="523,-629 523,-653 984,-653 984,-629 523,-629"/>
<polygon fill="none" stroke="black" points="523,-629 523,-653 984,-653 984,-629 523,-629"/>
<text text-anchor="start" x="583.5" y="-637.2" font-family="Times,serif" font-size="16.00">Shared crate for representing Rust types</text>
<polygon fill="cornsilk" stroke="transparent" points="469,-603 469,-627 521,-627 521,-603 469,-603"/>
<polygon fill="none" stroke="black" points="469,-603 469,-627 521,-627 521,-603 469,-603"/>
<text text-anchor="start" x="472" y="-611.2" font-family="Times,serif" font-size="16.00">▯▯▯▯▯</text>
<polygon fill="cornsilk" stroke="transparent" points="523,-603 523,-627 984,-627 984,-603 523,-603"/>
<polygon fill="none" stroke="black" points="523,-603 523,-627 984,-627 984,-603 523,-603"/>
<text text-anchor="start" x="526" y="-611.2" font-family="Times,serif" font-size="16.00">Access to Rust type information and type check results</text>
<polygon fill="cornsilk" stroke="transparent" points="469,-577 469,-601 521,-601 521,-577 469,-577"/>
<polygon fill="none" stroke="black" points="469,-577 469,-601 521,-601 521,-577 469,-577"/>
<text text-anchor="start" x="472" y="-585.2" font-family="Times,serif" font-size="16.00">▯▯▯▯▯</text>
<polygon fill="cornsilk" stroke="transparent" points="523,-577 523,-601 984,-601 984,-577 523,-577"/>
<polygon fill="none" stroke="black" points="523,-577 523,-601 984,-601 984,-577 523,-577"/>
<text text-anchor="start" x="636.5" y="-585.2" font-family="Times,serif" font-size="16.00">Ability to ask &#39;hypotheticals&#39;</text>
<polygon fill="cornsilk" stroke="transparent" points="469,-551 469,-575 521,-575 521,-551 469,-551"/>
<polygon fill="none" stroke="black" points="469,-551 469,-575 521,-575 521,-551 469,-551"/>
<text text-anchor="start" x="472" y="-559.2" font-family="Times,serif" font-size="16.00">▯▯▯▯▯</text>
<polygon fill="cornsilk" stroke="transparent" points="523,-551 523,-575 984,-575 984,-551 523,-551"/>
<polygon fill="none" stroke="black" points="523,-551 523,-575 984,-575 984,-551 523,-551"/>
<text text-anchor="start" x="595" y="-559.2" font-family="Times,serif" font-size="16.00">Access to the MIR for a given function</text>
<polygon fill="none" stroke="black" points="465.5,-548 465.5,-708 986.5,-708 986.5,-548 465.5,-548"/>
</g>
<!-- dev&#45;tooling&#45;&gt;semi&#45;stable&#45;apis -->
<g id="edge4" class="edge">
<title>dev&#45;tooling&#45;&gt;semi&#45;stable&#45;apis</title>
<path fill="none" stroke="black" d="M459.9,-782.84C500.01,-759.65 541.99,-735.38 580.44,-713.15"/>
<polygon fill="black" stroke="black" points="582.2,-716.18 589.1,-708.14 578.7,-710.12 582.2,-716.18"/>
</g>
<!-- fundamentals -->
<g id="node4" class="node">
<title>fundamentals</title>
<polygon fill="darkgoldenrod" stroke="transparent" points="720,-211 720,-235 1245,-235 1245,-211 720,-211"/>
<polygon fill="none" stroke="black" points="720,-211 720,-235 1245,-235 1245,-211 720,-211"/>
<text text-anchor="start" x="904.5" y="-219.2" font-family="Times,serif" font-size="16.00">Rust fundamentals</text>
<polygon fill="#ffb90f" stroke="transparent" points="720,-185 720,-209 1245,-209 1245,-185 720,-185"/>
<polygon fill="none" stroke="black" points="720,-185 720,-209 1245,-209 1245,-185 720,-185"/>
<text text-anchor="start" x="840.5" y="-193.2" font-family="Times,serif" font-size="16.00">Easy to contribute to the compiler</text>
<polygon fill="#ffb90f" stroke="transparent" points="720,-159 720,-183 1245,-183 1245,-159 720,-159"/>
<polygon fill="none" stroke="black" points="720,-159 720,-183 1245,-183 1245,-159 720,-159"/>
<text text-anchor="start" x="828.5" y="-167.2" font-family="Times,serif" font-size="16.00">Language semantics well understood</text>
<polygon fill="#ffb90f" stroke="transparent" points="720,-133 720,-157 1245,-157 1245,-133 720,-133"/>
<polygon fill="none" stroke="black" points="720,-133 720,-157 1245,-157 1245,-133 720,-133"/>
<text text-anchor="start" x="791.5" y="-141.2" font-family="Times,serif" font-size="16.00">Extending language possible by mere humans</text>
<polygon fill="cornsilk" stroke="transparent" points="720,-107 720,-131 772,-131 772,-107 720,-107"/>
<polygon fill="none" stroke="black" points="720,-107 720,-131 772,-131 772,-107 720,-107"/>
<text text-anchor="start" x="723" y="-115.2" font-family="Times,serif" font-size="16.00">▮▮▮▯▯</text>
<polygon fill="cornsilk" stroke="transparent" points="774,-107 774,-131 1245,-131 1245,-107 774,-107"/>
<polygon fill="none" stroke="black" points="774,-107 774,-131 1245,-131 1245,-107 774,-107"/>
<text text-anchor="start" x="777" y="-115.2" font-family="Times,serif" font-size="16.00">Rearchitect traits/borrow&#45;checking as logical predicates</text>
<polygon fill="cornsilk" stroke="transparent" points="720,-81 720,-105 772,-105 772,-81 720,-81"/>
<polygon fill="none" stroke="black" points="720,-81 720,-105 772,-105 772,-81 720,-81"/>
<text text-anchor="start" x="723" y="-89.2" font-family="Times,serif" font-size="16.00">▮▯▯▯▯</text>
<polygon fill="cornsilk" stroke="transparent" points="774,-81 774,-105 1245,-105 1245,-81 774,-81"/>
<polygon fill="none" stroke="black" points="774,-81 774,-105 1245,-105 1245,-81 774,-81"/>
<text text-anchor="start" x="871" y="-89.2" font-family="Times,serif" font-size="16.00">Core Rust semantics documented</text>
<polygon fill="cornsilk" stroke="transparent" points="720,-55 720,-79 772,-79 772,-55 720,-55"/>
<polygon fill="none" stroke="black" points="720,-55 720,-79 772,-79 772,-55 720,-55"/>
<text text-anchor="start" x="723" y="-63.2" font-family="Times,serif" font-size="16.00">▮▯▯▯▯</text>
<polygon fill="cornsilk" stroke="transparent" points="774,-55 774,-79 1245,-79 1245,-55 774,-55"/>
<polygon fill="none" stroke="black" points="774,-55 774,-79 1245,-79 1245,-55 774,-55"/>
<text text-anchor="start" x="931" y="-63.2" font-family="Times,serif" font-size="16.00">Proof of soundness</text>
<polygon fill="cornsilk" stroke="transparent" points="720,-29 720,-53 772,-53 772,-29 720,-29"/>
<polygon fill="none" stroke="black" points="720,-29 720,-53 772,-53 772,-29 720,-29"/>
<text text-anchor="start" x="723" y="-37.2" font-family="Times,serif" font-size="16.00">▮▮▯▯▯</text>
<polygon fill="cornsilk" stroke="transparent" points="774,-29 774,-53 1245,-53 1245,-29 774,-29"/>
<polygon fill="none" stroke="black" points="774,-29 774,-53 1245,-53 1245,-29 774,-29"/>
<text text-anchor="start" x="913" y="-37.2" font-family="Times,serif" font-size="16.00">Unsafe code guidelines</text>
<polygon fill="cornsilk" stroke="transparent" points="720,-3 720,-27 772,-27 772,-3 720,-3"/>
<polygon fill="none" stroke="black" points="720,-3 720,-27 772,-27 772,-3 720,-3"/>
<text text-anchor="start" x="723" y="-11.2" font-family="Times,serif" font-size="16.00">▮▮▯▯▯</text>
<polygon fill="cornsilk" stroke="transparent" points="774,-3 774,-27 1245,-27 1245,-3 774,-3"/>
<polygon fill="none" stroke="black" points="774,-3 774,-27 1245,-27 1245,-3 774,-3"/>
<text text-anchor="start" x="884" y="-11.2" font-family="Times,serif" font-size="16.00">Known soundness bugs closed</text>
<polygon fill="none" stroke="black" points="716.5,0 716.5,-238 1247.5,-238 1247.5,0 716.5,0"/>
</g>
<!-- semi&#45;stable&#45;apis&#45;&gt;fundamentals -->
<g id="edge5" class="edge">
<title>semi&#45;stable&#45;apis&#45;&gt;fundamentals</title>
<path fill="none" stroke="black" d="M766,-547.78C806.6,-467.38 870.08,-341.65 917.74,-247.26"/>
<polygon fill="black" stroke="black" points="920.92,-248.73 922.3,-238.23 914.67,-245.58 920.92,-248.73"/>
</g>
<!-- onboarding&#45;time&#45;&gt;dev&#45;tooling -->
<g id="edge6" class="edge">
<title>onboarding&#45;time&#45;&gt;dev&#45;tooling</title>
<path fill="none" stroke="black" d="M602.91,-1043.84C572.07,-1029.24 540.32,-1014.2 509.31,-999.52"/>
<polygon fill="black" stroke="black" points="510.69,-996.3 500.15,-995.19 507.69,-1002.63 510.69,-996.3"/>
</g>
<!-- async&#45;stack -->
<g id="node8" class="node">
<title>async&#45;stack</title>
<polygon fill="darkgoldenrod" stroke="transparent" points="1109,-981 1109,-1005 1513,-1005 1513,-981 1109,-981"/>
<polygon fill="none" stroke="black" points="1109,-981 1109,-1005 1513,-1005 1513,-981 1109,-981"/>
<text text-anchor="start" x="1262.5" y="-989.2" font-family="Times,serif" font-size="16.00">Async stack</text>
<polygon fill="#ffb90f" stroke="transparent" points="1109,-955 1109,-979 1513,-979 1513,-955 1109,-955"/>
<polygon fill="none" stroke="black" points="1109,-955 1109,-979 1513,-979 1513,-955 1109,-955"/>
<text text-anchor="start" x="1136.5" y="-963.2" font-family="Times,serif" font-size="16.00">Can quickly stand up an async application</text>
<polygon fill="#ffb90f" stroke="transparent" points="1109,-929 1109,-953 1513,-953 1513,-929 1109,-929"/>
<polygon fill="none" stroke="black" points="1109,-929 1109,-953 1513,-953 1513,-929 1109,-929"/>
<text text-anchor="start" x="1157.5" y="-937.2" font-family="Times,serif" font-size="16.00">Devs able to focus on &#39;business logic&#39;</text>
<polygon fill="cornsilk" stroke="transparent" points="1109,-903 1109,-927 1161,-927 1161,-903 1109,-903"/>
<polygon fill="none" stroke="black" points="1109,-903 1109,-927 1161,-927 1161,-903 1109,-903"/>
<text text-anchor="start" x="1112" y="-911.2" font-family="Times,serif" font-size="16.00">▮▮▮▯▯</text>
<polygon fill="cornsilk" stroke="transparent" points="1163,-903 1163,-927 1513,-927 1513,-903 1163,-903"/>
<polygon fill="none" stroke="black" points="1163,-903 1163,-927 1513,-927 1513,-903 1163,-903"/>
<text text-anchor="start" x="1217" y="-911.2" font-family="Times,serif" font-size="16.00">High&#45;performance runtime(s)</text>
<polygon fill="cornsilk" stroke="transparent" points="1109,-877 1109,-901 1161,-901 1161,-877 1109,-877"/>
<polygon fill="none" stroke="black" points="1109,-877 1109,-901 1161,-901 1161,-877 1109,-877"/>
<text text-anchor="start" x="1112" y="-885.2" font-family="Times,serif" font-size="16.00">▮▮▮▯▯</text>
<polygon fill="cornsilk" stroke="transparent" points="1163,-877 1163,-901 1513,-901 1513,-877 1163,-877"/>
<polygon fill="none" stroke="black" points="1163,-877 1163,-901 1513,-901 1513,-877 1163,-877"/>
<text text-anchor="start" x="1304" y="-885.2" font-family="Times,serif" font-size="16.00">Logging</text>
<polygon fill="cornsilk" stroke="transparent" points="1109,-851 1109,-875 1161,-875 1161,-851 1109,-851"/>
<polygon fill="none" stroke="black" points="1109,-851 1109,-875 1161,-875 1161,-851 1109,-851"/>
<text text-anchor="start" x="1112" y="-859.2" font-family="Times,serif" font-size="16.00">▮▯▯▯▯</text>
<polygon fill="cornsilk" stroke="transparent" points="1163,-851 1163,-875 1513,-875 1513,-851 1163,-851"/>
<polygon fill="none" stroke="black" points="1163,-851 1163,-875 1513,-875 1513,-851 1163,-851"/>
<text text-anchor="start" x="1307.5" y="-859.2" font-family="Times,serif" font-size="16.00">Testing</text>
<polygon fill="cornsilk" stroke="transparent" points="1109,-825 1109,-849 1161,-849 1161,-825 1109,-825"/>
<polygon fill="none" stroke="black" points="1109,-825 1109,-849 1161,-849 1161,-825 1109,-825"/>
<text text-anchor="start" x="1112" y="-833.2" font-family="Times,serif" font-size="16.00">▮▮▯▯▯</text>
<polygon fill="cornsilk" stroke="transparent" points="1163,-825 1163,-849 1513,-849 1513,-825 1163,-825"/>
<polygon fill="none" stroke="black" points="1163,-825 1163,-849 1513,-849 1513,-825 1163,-825"/>
<text text-anchor="start" x="1245" y="-833.2" font-family="Times,serif" font-size="16.00">Persistence / database</text>
<polygon fill="cornsilk" stroke="transparent" points="1109,-799 1109,-823 1161,-823 1161,-799 1109,-799"/>
<polygon fill="none" stroke="black" points="1109,-799 1109,-823 1161,-823 1161,-799 1109,-799"/>
<text text-anchor="start" x="1112" y="-807.2" font-family="Times,serif" font-size="16.00">▮▮▯▯▯</text>
<polygon fill="cornsilk" stroke="transparent" points="1163,-799 1163,-823 1513,-823 1513,-799 1163,-799"/>
<polygon fill="none" stroke="black" points="1163,-799 1163,-823 1513,-823 1513,-799 1163,-799"/>
<text text-anchor="start" x="1288.5" y="-807.2" font-family="Times,serif" font-size="16.00">Middleware</text>
<polygon fill="cornsilk" stroke="transparent" points="1109,-773 1109,-797 1161,-797 1161,-773 1109,-773"/>
<polygon fill="none" stroke="black" points="1109,-773 1109,-797 1161,-797 1161,-773 1109,-773"/>
<text text-anchor="start" x="1112" y="-781.2" font-family="Times,serif" font-size="16.00">▮▮▮▯▯</text>
<polygon fill="cornsilk" stroke="transparent" points="1163,-773 1163,-797 1513,-797 1513,-773 1163,-773"/>
<polygon fill="none" stroke="black" points="1163,-773 1163,-797 1513,-797 1513,-773 1163,-773"/>
<text text-anchor="start" x="1166" y="-781.2" font-family="Times,serif" font-size="16.00">I/O uring support in tokio, other runtimes</text>
<polygon fill="none" stroke="black" points="1106,-770 1106,-1008 1516,-1008 1516,-770 1106,-770"/>
</g>
<!-- onboarding&#45;time&#45;&gt;async&#45;stack -->
<g id="edge7" class="edge">
<title>onboarding&#45;time&#45;&gt;async&#45;stack</title>
<path fill="none" stroke="black" d="M1029.15,-1043.89C1049.75,-1033.09 1070.4,-1022.19 1096.64,-1008.18"/>
<polygon fill="black" stroke="black" points="1098.59,-1011.11 1105.76,-1003.31 1095.29,-1004.94 1098.59,-1011.11"/>
</g>
<!-- easy&#45;lang -->
<g id="node10" class="node">
<title>easy&#45;lang</title>
<polygon fill="darkgoldenrod" stroke="transparent" points="1492,-694 1492,-718 2030,-718 2030,-694 1492,-694"/>
<polygon fill="none" stroke="black" points="1492,-694 1492,-718 2030,-718 2030,-694 1492,-694"/>
<text text-anchor="start" x="1614" y="-702.2" font-family="Times,serif" font-size="16.00">Ergonomic language improvements</text>
<polygon fill="#ffb90f" stroke="transparent" points="1492,-668 1492,-692 2030,-692 2030,-668 1492,-668"/>
<polygon fill="none" stroke="black" points="1492,-668 1492,-692 2030,-692 2030,-668 1492,-668"/>
<text text-anchor="start" x="1594.5" y="-676.2" font-family="Times,serif" font-size="16.00">Using Rust feels smooth and convenient</text>
<polygon fill="cornsilk" stroke="transparent" points="1492,-642 1492,-666 1544,-666 1544,-642 1492,-642"/>
<polygon fill="none" stroke="black" points="1492,-642 1492,-666 1544,-666 1544,-642 1492,-642"/>
<text text-anchor="start" x="1495" y="-650.2" font-family="Times,serif" font-size="16.00">▮▮▯▯▯</text>
<polygon fill="cornsilk" stroke="transparent" points="1546,-642 1546,-666 2030,-666 2030,-642 1546,-642"/>
<polygon fill="none" stroke="black" points="1546,-642 1546,-666 2030,-666 2030,-642 1546,-642"/>
<text text-anchor="start" x="1549" y="-650.2" font-family="Times,serif" font-size="16.00">Dynamic dispatch (dyn trait) more powerful, easier to use</text>
<polygon fill="cornsilk" stroke="transparent" points="1492,-616 1492,-640 1544,-640 1544,-616 1492,-616"/>
<polygon fill="none" stroke="black" points="1492,-616 1492,-640 1544,-640 1544,-616 1492,-616"/>
<text text-anchor="start" x="1495" y="-624.2" font-family="Times,serif" font-size="16.00">▮▮▯▯▯</text>
<polygon fill="cornsilk" stroke="transparent" points="1546,-616 1546,-640 2030,-640 2030,-616 1546,-616"/>
<polygon fill="none" stroke="black" points="1546,-616 1546,-640 2030,-640 2030,-616 1546,-616"/>
<text text-anchor="start" x="1724" y="-624.2" font-family="Times,serif" font-size="16.00">Implied bounds</text>
<polygon fill="cornsilk" stroke="transparent" points="1492,-590 1492,-614 1544,-614 1544,-590 1492,-590"/>
<polygon fill="none" stroke="black" points="1492,-590 1492,-614 1544,-614 1544,-590 1492,-590"/>
<text text-anchor="start" x="1495" y="-598.2" font-family="Times,serif" font-size="16.00">▮▯▯▯▯</text>
<polygon fill="cornsilk" stroke="transparent" points="1546,-590 1546,-614 2030,-614 2030,-590 1546,-590"/>
<polygon fill="none" stroke="black" points="1546,-590 1546,-614 2030,-614 2030,-590 1546,-590"/>
<text text-anchor="start" x="1741.5" y="-598.2" font-family="Times,serif" font-size="16.00">Generators</text>
<polygon fill="cornsilk" stroke="transparent" points="1492,-564 1492,-588 1544,-588 1544,-564 1492,-564"/>
<polygon fill="none" stroke="black" points="1492,-564 1492,-588 1544,-588 1544,-564 1492,-564"/>
<text text-anchor="start" x="1495" y="-572.2" font-family="Times,serif" font-size="16.00">▮▯▯▯▯</text>
<g id="a_node10_0"><a xlink:href="https://github.com/rust-lang/polonius/" xlink:title="&lt;TABLE&gt;">
<polygon fill="cornsilk" stroke="transparent" points="1546,-564 1546,-588 2030,-588 2030,-564 1546,-564"/>
<polygon fill="none" stroke="black" points="1546,-564 1546,-588 2030,-588 2030,-564 1546,-564"/>
<text text-anchor="start" x="1681.5" y="-573.2" font-family="Times,serif" text-decoration="underline" font-size="16.00">Improved borrow checker</text>
</a>
</g>
<polygon fill="cornsilk" stroke="transparent" points="1492,-538 1492,-562 1544,-562 1544,-538 1492,-538"/>
<polygon fill="none" stroke="black" points="1492,-538 1492,-562 1544,-562 1544,-538 1492,-538"/>
<text text-anchor="start" x="1495" y="-546.2" font-family="Times,serif" font-size="16.00">▮▯▯▯▯</text>
<g id="a_node10_1"><a xlink:href="https://smallcultfollowing.com/babysteps//blog/2021/11/05/view-types/" xlink:title="&lt;TABLE&gt;">
<polygon fill="cornsilk" stroke="transparent" points="1546,-538 1546,-562 2030,-562 2030,-538 1546,-538"/>
<polygon fill="none" stroke="black" points="1546,-538 1546,-562 2030,-562 2030,-538 1546,-538"/>
<text text-anchor="start" x="1743" y="-547.2" font-family="Times,serif" text-decoration="underline" font-size="16.00">View types</text>
</a>
</g>
<polygon fill="none" stroke="black" points="1489,-535 1489,-721 2033,-721 2033,-535 1489,-535"/>
</g>
<!-- onboarding&#45;time&#45;&gt;easy&#45;lang -->
<g id="edge9" class="edge">
<title>onboarding&#45;time&#45;&gt;easy&#45;lang</title>
<path fill="none" stroke="black" d="M1047.23,-1123.63C1222.16,-1100.15 1448.72,-1060.89 1525,-1008 1622.56,-940.35 1687.86,-817.97 1724.58,-730.58"/>
<polygon fill="black" stroke="black" points="1727.88,-731.75 1728.48,-721.17 1721.42,-729.07 1727.88,-731.75"/>
</g>
<!-- extensible -->
<g id="node11" class="node">
<title>extensible</title>
<polygon fill="darkgoldenrod" stroke="transparent" points="565,-942 565,-966 1085,-966 1085,-942 565,-942"/>
<polygon fill="none" stroke="black" points="565,-942 565,-966 1085,-966 1085,-942 565,-942"/>
<text text-anchor="start" x="760" y="-950.2" font-family="Times,serif" font-size="16.00">Extensible Rust</text>
<polygon fill="#ffb90f" stroke="transparent" points="565,-916 565,-940 1085,-940 1085,-916 565,-916"/>
<polygon fill="none" stroke="black" points="565,-916 565,-940 1085,-940 1085,-916 565,-916"/>
<text text-anchor="start" x="581" y="-924.2" font-family="Times,serif" font-size="16.00">Rust libraries can take control of the developer experience</text>
<polygon fill="cornsilk" stroke="transparent" points="565,-890 565,-914 617,-914 617,-890 565,-890"/>
<polygon fill="none" stroke="black" points="565,-890 565,-914 617,-914 617,-890 565,-890"/>
<text text-anchor="start" x="568" y="-898.2" font-family="Times,serif" font-size="16.00">▮▮▯▯▯</text>
<polygon fill="cornsilk" stroke="transparent" points="619,-890 619,-914 1085,-914 1085,-890 619,-890"/>
<polygon fill="none" stroke="black" points="619,-890 619,-914 1085,-914 1085,-890 619,-890"/>
<text text-anchor="start" x="790" y="-898.2" font-family="Times,serif" font-size="16.00">Macro hygiene</text>
<polygon fill="cornsilk" stroke="transparent" points="565,-864 565,-888 617,-888 617,-864 565,-864"/>
<polygon fill="none" stroke="black" points="565,-864 565,-888 617,-888 617,-864 565,-864"/>
<text text-anchor="start" x="568" y="-872.2" font-family="Times,serif" font-size="16.00">▯▯▯▯▯</text>
<polygon fill="cornsilk" stroke="transparent" points="619,-864 619,-888 1085,-888 1085,-864 619,-864"/>
<polygon fill="none" stroke="black" points="619,-864 619,-888 1085,-888 1085,-864 619,-864"/>
<text text-anchor="start" x="701.5" y="-872.2" font-family="Times,serif" font-size="16.00">Libraries supply custom lints, errors</text>
<polygon fill="cornsilk" stroke="transparent" points="565,-838 565,-862 617,-862 617,-838 565,-838"/>
<polygon fill="none" stroke="black" points="565,-838 565,-862 617,-862 617,-838 565,-838"/>
<text text-anchor="start" x="568" y="-846.2" font-family="Times,serif" font-size="16.00">▮▯▯▯▯</text>
<polygon fill="cornsilk" stroke="transparent" points="619,-838 619,-862 1085,-862 1085,-838 619,-838"/>
<polygon fill="none" stroke="black" points="619,-838 619,-862 1085,-862 1085,-838 619,-838"/>
<text text-anchor="start" x="622" y="-846.2" font-family="Times,serif" font-size="16.00">Libraries offering custom IDE integration (refactorings)</text>
<polygon fill="cornsilk" stroke="transparent" points="565,-812 565,-836 617,-836 617,-812 565,-812"/>
<polygon fill="none" stroke="black" points="565,-812 565,-836 617,-836 617,-812 565,-812"/>
<text text-anchor="start" x="568" y="-820.2" font-family="Times,serif" font-size="16.00">▮▯▯▯▯</text>
<polygon fill="cornsilk" stroke="transparent" points="619,-812 619,-836 1085,-836 1085,-812 619,-812"/>
<polygon fill="none" stroke="black" points="619,-812 619,-836 1085,-836 1085,-812 619,-812"/>
<text text-anchor="start" x="664" y="-820.2" font-family="Times,serif" font-size="16.00">Macros, lints have access to type information</text>
<polygon fill="none" stroke="black" points="562,-809 562,-969 1088,-969 1088,-809 562,-809"/>
</g>
<!-- onboarding&#45;time&#45;&gt;extensible -->
<g id="edge8" class="edge">
<title>onboarding&#45;time&#45;&gt;extensible</title>
<path fill="none" stroke="black" d="M825,-1043.65C825,-1022.23 825,-999.89 825,-979.1"/>
<polygon fill="black" stroke="black" points="828.5,-979.03 825,-969.03 821.5,-979.03 828.5,-979.03"/>
</g>
<!-- async&#45;lang -->
<g id="node7" class="node">
<title>async&#45;lang</title>
<polygon fill="darkgoldenrod" stroke="transparent" points="1008,-707 1008,-731 1468,-731 1468,-707 1008,-707"/>
<polygon fill="none" stroke="black" points="1008,-707 1008,-731 1468,-731 1468,-707 1008,-707"/>
<text text-anchor="start" x="1137.5" y="-715.2" font-family="Times,serif" font-size="16.00">Async I/O Fundamentals</text>
<polygon fill="#ffb90f" stroke="transparent" points="1008,-681 1008,-705 1468,-705 1468,-681 1008,-681"/>
<polygon fill="none" stroke="black" points="1008,-681 1008,-705 1468,-705 1468,-681 1008,-681"/>
<text text-anchor="start" x="1015.5" y="-689.2" font-family="Times,serif" font-size="16.00">Using Async I/O comparable in complexity to Sync I/O</text>
<polygon fill="#ffb90f" stroke="transparent" points="1008,-655 1008,-679 1468,-679 1468,-655 1008,-655"/>
<polygon fill="none" stroke="black" points="1008,-655 1008,-679 1468,-679 1468,-655 1008,-655"/>
<text text-anchor="start" x="1012" y="-663.2" font-family="Times,serif" font-size="16.00">Access to a wide variety of useful libraries on crates.io</text>
<polygon fill="#ffb90f" stroke="transparent" points="1008,-629 1008,-653 1468,-653 1468,-629 1008,-629"/>
<polygon fill="none" stroke="black" points="1008,-629 1008,-653 1468,-653 1468,-629 1008,-629"/>
<text text-anchor="start" x="1052" y="-637.2" font-family="Times,serif" font-size="16.00">Easy access to high performance networking</text>
<polygon fill="cornsilk" stroke="transparent" points="1008,-603 1008,-627 1061,-627 1061,-603 1008,-603"/>
<polygon fill="none" stroke="black" points="1008,-603 1008,-627 1061,-627 1061,-603 1008,-603"/>
<text text-anchor="start" x="1011.5" y="-611.2" font-family="Times,serif" font-size="16.00">▮▮▮▯▯</text>
<polygon fill="cornsilk" stroke="transparent" points="1063,-603 1063,-627 1468,-627 1468,-603 1063,-603"/>
<polygon fill="none" stroke="black" points="1063,-603 1063,-627 1468,-627 1468,-603 1063,-603"/>
<text text-anchor="start" x="1145" y="-611.2" font-family="Times,serif" font-size="16.00">Can use async fn everywhere</text>
<polygon fill="cornsilk" stroke="transparent" points="1008,-577 1008,-601 1061,-601 1061,-577 1008,-577"/>
<polygon fill="none" stroke="black" points="1008,-577 1008,-601 1061,-601 1061,-577 1008,-577"/>
<text text-anchor="start" x="1011.5" y="-585.2" font-family="Times,serif" font-size="16.00">▮▮▯▯▯</text>
<polygon fill="cornsilk" stroke="transparent" points="1063,-577 1063,-601 1468,-601 1468,-577 1063,-577"/>
<polygon fill="none" stroke="black" points="1063,-577 1063,-601 1468,-601 1468,-577 1063,-577"/>
<text text-anchor="start" x="1067" y="-585.2" font-family="Times,serif" font-size="16.00">Async resource cleanup works well (async drop)</text>
<polygon fill="cornsilk" stroke="transparent" points="1008,-551 1008,-575 1061,-575 1061,-551 1008,-551"/>
<polygon fill="none" stroke="black" points="1008,-551 1008,-575 1061,-575 1061,-551 1008,-551"/>
<text text-anchor="start" x="1011.5" y="-559.2" font-family="Times,serif" font-size="16.00">▮▯▯▯▯</text>
<polygon fill="cornsilk" stroke="transparent" points="1063,-551 1063,-575 1468,-575 1468,-551 1063,-551"/>
<polygon fill="none" stroke="black" points="1063,-551 1063,-575 1468,-575 1468,-551 1063,-551"/>
<text text-anchor="start" x="1101.5" y="-559.2" font-family="Times,serif" font-size="16.00">Easy interoperability between runtimes</text>
<polygon fill="cornsilk" stroke="transparent" points="1008,-525 1008,-549 1061,-549 1061,-525 1008,-525"/>
<polygon fill="none" stroke="black" points="1008,-525 1008,-549 1061,-549 1061,-525 1008,-525"/>
<text text-anchor="start" x="1011.5" y="-533.2" font-family="Times,serif" font-size="16.00">▮▯▯▯▯</text>
<polygon fill="cornsilk" stroke="transparent" points="1063,-525 1063,-549 1468,-549 1468,-525 1063,-525"/>
<polygon fill="none" stroke="black" points="1063,-525 1063,-549 1468,-549 1468,-525 1063,-525"/>
<text text-anchor="start" x="1193.5" y="-533.2" font-family="Times,serif" font-size="16.00">Async generators</text>
<polygon fill="none" stroke="black" points="1005,-522 1005,-734 1471,-734 1471,-522 1005,-522"/>
</g>
<!-- core&#45;lang -->
<g id="node9" class="node">
<title>core&#45;lang</title>
<polygon fill="darkgoldenrod" stroke="transparent" points="969,-459 969,-483 1507,-483 1507,-459 969,-459"/>
<polygon fill="none" stroke="black" points="969,-459 969,-483 1507,-483 1507,-459 969,-459"/>
<text text-anchor="start" x="1116" y="-467.2" font-family="Times,serif" font-size="16.00">Core language improvements</text>
<polygon fill="#ffb90f" stroke="transparent" points="969,-433 969,-457 1507,-457 1507,-433 969,-433"/>
<polygon fill="none" stroke="black" points="969,-433 969,-457 1507,-457 1507,-433 969,-433"/>
<text text-anchor="start" x="1002.5" y="-441.2" font-family="Times,serif" font-size="16.00">Rust language scales smoothly without &#39;complexity cliffs&#39;</text>
<polygon fill="#ffb90f" stroke="transparent" points="969,-407 969,-431 1507,-431 1507,-407 969,-407"/>
<polygon fill="none" stroke="black" points="969,-407 969,-431 1507,-431 1507,-407 969,-407"/>
<text text-anchor="start" x="990.5" y="-415.2" font-family="Times,serif" font-size="16.00">Rust able to express the patterns more complex code needs</text>
<polygon fill="cornsilk" stroke="transparent" points="969,-381 969,-405 1021,-405 1021,-381 969,-381"/>
<polygon fill="none" stroke="black" points="969,-381 969,-405 1021,-405 1021,-381 969,-381"/>
<text text-anchor="start" x="972" y="-389.2" font-family="Times,serif" font-size="16.00">▮▮▯▯▯</text>
<polygon fill="cornsilk" stroke="transparent" points="1023,-381 1023,-405 1507,-405 1507,-381 1023,-381"/>
<polygon fill="none" stroke="black" points="1023,-381 1023,-405 1507,-405 1507,-381 1023,-381"/>
<text text-anchor="start" x="1026" y="-389.2" font-family="Times,serif" font-size="16.00">Dynamic dispatch (dyn trait) more powerful, easier to use</text>
<polygon fill="cornsilk" stroke="transparent" points="969,-355 969,-379 1021,-379 1021,-355 969,-355"/>
<polygon fill="none" stroke="black" points="969,-355 969,-379 1021,-379 1021,-355 969,-355"/>
<text text-anchor="start" x="972" y="-363.2" font-family="Times,serif" font-size="16.00">▮▮▯▯▯</text>
<polygon fill="cornsilk" stroke="transparent" points="1023,-355 1023,-379 1507,-379 1507,-355 1023,-355"/>
<polygon fill="none" stroke="black" points="1023,-355 1023,-379 1507,-379 1507,-355 1023,-355"/>
<text text-anchor="start" x="1206.5" y="-363.2" font-family="Times,serif" font-size="16.00">Specialization</text>
<polygon fill="cornsilk" stroke="transparent" points="969,-329 969,-353 1021,-353 1021,-329 969,-329"/>
<polygon fill="none" stroke="black" points="969,-329 969,-353 1021,-353 1021,-329 969,-329"/>
<text text-anchor="start" x="972" y="-337.2" font-family="Times,serif" font-size="16.00">▮▮▮▯▯</text>
<polygon fill="cornsilk" stroke="transparent" points="1023,-329 1023,-353 1507,-353 1507,-329 1023,-329"/>
<polygon fill="none" stroke="black" points="1023,-329 1023,-353 1507,-353 1507,-329 1023,-329"/>
<text text-anchor="start" x="1132.5" y="-337.2" font-family="Times,serif" font-size="16.00">Generic associated types (GATs)</text>
<polygon fill="cornsilk" stroke="transparent" points="969,-303 969,-327 1021,-327 1021,-303 969,-303"/>
<polygon fill="none" stroke="black" points="969,-303 969,-327 1021,-327 1021,-303 969,-303"/>
<text text-anchor="start" x="972" y="-311.2" font-family="Times,serif" font-size="16.00">▮▮▮▮▯</text>
<polygon fill="cornsilk" stroke="transparent" points="1023,-303 1023,-327 1507,-327 1507,-303 1023,-303"/>
<polygon fill="none" stroke="black" points="1023,-303 1023,-327 1507,-327 1507,-303 1023,-303"/>
<text text-anchor="start" x="1225.5" y="-311.2" font-family="Times,serif" font-size="16.00">Impl trait</text>
<polygon fill="cornsilk" stroke="transparent" points="969,-277 969,-301 1021,-301 1021,-277 969,-277"/>
<polygon fill="none" stroke="black" points="969,-277 969,-301 1021,-301 1021,-277 969,-277"/>
<text text-anchor="start" x="972" y="-285.2" font-family="Times,serif" font-size="16.00">▮▯▯▯▯</text>
<polygon fill="cornsilk" stroke="transparent" points="1023,-277 1023,-301 1507,-301 1507,-277 1023,-277"/>
<polygon fill="none" stroke="black" points="1023,-277 1023,-301 1507,-301 1507,-277 1023,-277"/>
<text text-anchor="start" x="1135" y="-285.2" font-family="Times,serif" font-size="16.00">Threaded contexts, capabilities</text>
<polygon fill="none" stroke="black" points="966,-274 966,-486 1510,-486 1510,-274 966,-274"/>
</g>
<!-- async&#45;lang&#45;&gt;core&#45;lang -->
<g id="edge10" class="edge">
<title>async&#45;lang&#45;&gt;core&#45;lang</title>
<path fill="none" stroke="black" d="M1238,-521.96C1238,-513.42 1238,-504.76 1238,-496.15"/>
<polygon fill="black" stroke="black" points="1241.5,-496.08 1238,-486.08 1234.5,-496.08 1241.5,-496.08"/>
</g>
<!-- async&#45;stack&#45;&gt;async&#45;lang -->
<g id="edge11" class="edge">
<title>async&#45;stack&#45;&gt;async&#45;lang</title>
<path fill="none" stroke="black" d="M1277.7,-769.87C1275.27,-761.24 1272.82,-752.55 1270.4,-743.94"/>
<polygon fill="black" stroke="black" points="1273.75,-742.94 1267.67,-734.26 1267.01,-744.84 1273.75,-742.94"/>
</g>
<!-- core&#45;lang&#45;&gt;fundamentals -->
<g id="edge12" class="edge">
<title>core&#45;lang&#45;&gt;fundamentals</title>
<path fill="none" stroke="black" d="M1133.88,-273.65C1124.72,-264.39 1115.39,-254.96 1106.1,-245.55"/>
<polygon fill="black" stroke="black" points="1108.52,-243.02 1099,-238.37 1103.54,-247.94 1108.52,-243.02"/>
</g>
<!-- easy&#45;lang&#45;&gt;core&#45;lang -->
<g id="edge13" class="edge">
<title>easy&#45;lang&#45;&gt;core&#45;lang</title>
<path fill="none" stroke="black" d="M1565.14,-534.87C1534.39,-520.41 1502.35,-505.34 1470.86,-490.53"/>
<polygon fill="black" stroke="black" points="1472.1,-487.24 1461.56,-486.15 1469.12,-493.58 1472.1,-487.24"/>
</g>
<!-- extensible&#45;&gt;semi&#45;stable&#45;apis -->
<g id="edge14" class="edge">
<title>extensible&#45;&gt;semi&#45;stable&#45;apis</title>
<path fill="none" stroke="black" d="M794.76,-808.88C783.73,-780.02 771.18,-747.21 759.86,-717.58"/>
<polygon fill="black" stroke="black" points="763.07,-716.17 756.23,-708.08 756.53,-718.67 763.07,-716.17"/>
</g>
</g>
</svg>
