<?xml version="1.0" encoding="UTF-8" standalone="no"?>
<!DOCTYPE svg PUBLIC "-//W3C//DTD SVG 1.1//EN"
 "http://www.w3.org/Graphics/SVG/1.1/DTD/svg11.dtd">
<!-- Generated by graphviz version 2.50.0 (20211204.2007)
 -->
<!-- Title: g Pages: 1 -->
<svg width="1295pt" height="1304pt"
 viewBox="0.00 0.00 1295.00 1304.00" xmlns="http://www.w3.org/2000/svg" xmlns:xlink="http://www.w3.org/1999/xlink">
<g id="graph0" class="graph" transform="scale(1 1) rotate(0) translate(4 1300)">
<title>g</title>
<polygon fill="white" stroke="transparent" points="-4,4 -4,-1300 1291,-1300 1291,4 -4,4"/>
<!-- goal&#45;internet&#45;services -->
<g id="node1" class="node">
<title>goal&#45;internet&#45;services</title>
<polygon fill="darkgoldenrod" stroke="transparent" points="540,-1266 540,-1290 980,-1290 980,-1266 540,-1266"/>
<polygon fill="none" stroke="black" points="540,-1266 540,-1290 980,-1290 980,-1266 540,-1266"/>
<text text-anchor="start" x="543" y="-1274.2" font-family="Times,serif" font-size="16.00">🎯 Rust a common choice for programs running on internet services</text>
<polygon fill="none" stroke="black" points="537,-1263 537,-1293 983,-1293 983,-1263 537,-1263"/>
</g>
<!-- onboarding -->
<g id="node2" class="node">
<title>onboarding</title>
<polygon fill="darkgoldenrod" stroke="transparent" points="326,-1125 326,-1149 620,-1149 620,-1125 326,-1125"/>
<polygon fill="none" stroke="black" points="326,-1125 326,-1149 620,-1149 620,-1125 326,-1125"/>
<text text-anchor="start" x="362" y="-1133.2" font-family="Times,serif" font-size="16.00">Able to onboard engineers quickly</text>
<polygon fill="cornsilk" stroke="transparent" points="326,-1099 326,-1123 381,-1123 381,-1099 326,-1099"/>
<polygon fill="none" stroke="black" points="326,-1099 326,-1123 381,-1123 381,-1099 326,-1099"/>
<text text-anchor="start" x="329" y="-1107.2" font-family="Times,serif" font-size="16.00">▮▮▮▮▮</text>
<polygon fill="cornsilk" stroke="transparent" points="383,-1099 383,-1123 620,-1123 620,-1099 383,-1099"/>
<polygon fill="none" stroke="black" points="383,-1099 383,-1123 620,-1123 620,-1099 383,-1099"/>
<text text-anchor="start" x="397.5" y="-1107.2" font-family="Times,serif" font-size="16.00">Rust beginner learning materials</text>
<polygon fill="cornsilk" stroke="transparent" points="326,-1073 326,-1097 381,-1097 381,-1073 326,-1073"/>
<polygon fill="none" stroke="black" points="326,-1073 326,-1097 381,-1097 381,-1073 326,-1073"/>
<text text-anchor="start" x="329" y="-1081.2" font-family="Times,serif" font-size="16.00">▮▮▮▯▯</text>
<polygon fill="cornsilk" stroke="transparent" points="383,-1073 383,-1097 620,-1097 620,-1073 383,-1073"/>
<polygon fill="none" stroke="black" points="383,-1073 383,-1097 620,-1097 620,-1073 383,-1073"/>
<text text-anchor="start" x="386" y="-1081.2" font-family="Times,serif" font-size="16.00">Rust intermediate learning materials</text>
<polygon fill="cornsilk" stroke="transparent" points="326,-1047 326,-1071 381,-1071 381,-1047 326,-1047"/>
<polygon fill="none" stroke="black" points="326,-1047 326,-1071 381,-1071 381,-1047 326,-1047"/>
<text text-anchor="start" x="329" y="-1055.2" font-family="Times,serif" font-size="16.00">▯▯▯▯▯</text>
<polygon fill="cornsilk" stroke="transparent" points="383,-1047 383,-1071 620,-1071 620,-1047 383,-1047"/>
<polygon fill="none" stroke="black" points="383,-1047 383,-1071 620,-1071 620,-1047 383,-1047"/>
<text text-anchor="start" x="439.5" y="-1055.2" font-family="Times,serif" font-size="16.00">Java transition path</text>
<polygon fill="cornsilk" stroke="transparent" points="326,-1021 326,-1045 381,-1045 381,-1021 326,-1021"/>
<polygon fill="none" stroke="black" points="326,-1021 326,-1045 381,-1045 381,-1021 326,-1021"/>
<text text-anchor="start" x="329" y="-1029.2" font-family="Times,serif" font-size="16.00">▮▮▯▯▯</text>
<polygon fill="cornsilk" stroke="transparent" points="383,-1021 383,-1045 620,-1045 620,-1021 383,-1021"/>
<polygon fill="none" stroke="black" points="383,-1021 383,-1045 620,-1045 620,-1021 383,-1021"/>
<text text-anchor="start" x="439" y="-1029.2" font-family="Times,serif" font-size="16.00">C++ transition path</text>
<polygon fill="cornsilk" stroke="transparent" points="326,-995 326,-1019 381,-1019 381,-995 326,-995"/>
<polygon fill="none" stroke="black" points="326,-995 326,-1019 381,-1019 381,-995 326,-995"/>
<text text-anchor="start" x="329" y="-1003.2" font-family="Times,serif" font-size="16.00">▮▮▯▯▯</text>
<polygon fill="cornsilk" stroke="transparent" points="383,-995 383,-1019 620,-1019 620,-995 383,-995"/>
<polygon fill="none" stroke="black" points="383,-995 383,-1019 620,-1019 620,-995 383,-995"/>
<text text-anchor="start" x="393" y="-1003.2" font-family="Times,serif" font-size="16.00">Dynamic language transition path</text>
<polygon fill="none" stroke="black" points="323,-992 323,-1152 623,-1152 623,-992 323,-992"/>
</g>
<!-- goal&#45;internet&#45;services&#45;&gt;onboarding -->
<g id="edge2" class="edge">
<title>goal&#45;internet&#45;services&#45;&gt;onboarding</title>
<path fill="none" stroke="black" d="M664.6,-1259.92C637.25,-1252 608.49,-1240.54 585,-1224 561.24,-1207.28 540.47,-1183.93 523.47,-1160.59"/>
<polygon fill="black" stroke="black" points="526.26,-1158.47 517.62,-1152.34 520.55,-1162.52 526.26,-1158.47"/>
</g>
<!-- debugging -->
<g id="node10" class="node">
<title>debugging</title>
<polygon fill="darkgoldenrod" stroke="transparent" points="900,-1099 900,-1123 1284,-1123 1284,-1099 900,-1099"/>
<polygon fill="none" stroke="black" points="900,-1099 900,-1123 1284,-1123 1284,-1099 900,-1099"/>
<text text-anchor="start" x="904" y="-1107.2" font-family="Times,serif" font-size="16.00">Able to fix (logic) bugs that are found during development</text>
<polygon fill="cornsilk" stroke="transparent" points="900,-1073 900,-1097 959,-1097 959,-1073 900,-1073"/>
<polygon fill="none" stroke="black" points="900,-1073 900,-1097 959,-1097 959,-1073 900,-1073"/>
<text text-anchor="start" x="905" y="-1081.2" font-family="Times,serif" font-size="16.00">▮▮▯▯▯</text>
<polygon fill="cornsilk" stroke="transparent" points="961,-1073 961,-1097 1284,-1097 1284,-1073 961,-1073"/>
<polygon fill="none" stroke="black" points="961,-1073 961,-1097 1284,-1097 1284,-1073 961,-1073"/>
<text text-anchor="start" x="1050" y="-1081.2" font-family="Times,serif" font-size="16.00">Quality Rust debugger</text>
<polygon fill="cornsilk" stroke="transparent" points="900,-1047 900,-1071 959,-1071 959,-1047 900,-1047"/>
<polygon fill="none" stroke="black" points="900,-1047 900,-1071 959,-1071 959,-1047 900,-1047"/>
<text text-anchor="start" x="905" y="-1055.2" font-family="Times,serif" font-size="16.00">▮▮▮▯▯</text>
<polygon fill="cornsilk" stroke="transparent" points="961,-1047 961,-1071 1284,-1071 1284,-1047 961,-1047"/>
<polygon fill="none" stroke="black" points="961,-1047 961,-1071 1284,-1071 1284,-1047 961,-1047"/>
<text text-anchor="start" x="966" y="-1055.2" font-family="Times,serif" font-size="16.00">Async runtime observability (e.g., tokio console)</text>
<polygon fill="cornsilk" stroke="transparent" points="900,-1021 900,-1045 959,-1045 959,-1021 900,-1021"/>
<polygon fill="none" stroke="black" points="900,-1021 900,-1045 959,-1045 959,-1021 900,-1021"/>
<text text-anchor="start" x="905" y="-1029.2" font-family="Times,serif" font-size="16.00">▮▮▯▯▯</text>
<polygon fill="cornsilk" stroke="transparent" points="961,-1021 961,-1045 1284,-1045 1284,-1021 961,-1021"/>
<polygon fill="none" stroke="black" points="961,-1021 961,-1045 1284,-1045 1284,-1021 961,-1021"/>
<text text-anchor="start" x="1004.5" y="-1029.2" font-family="Times,serif" font-size="16.00">Profilers for CPU and memory usage</text>
<polygon fill="none" stroke="black" points="897,-1018 897,-1126 1287,-1126 1287,-1018 897,-1018"/>
</g>
<!-- goal&#45;internet&#45;services&#45;&gt;debugging -->
<g id="edge3" class="edge">
<title>goal&#45;internet&#45;services&#45;&gt;debugging</title>
<path fill="none" stroke="black" d="M844.8,-1259.94C874.59,-1251.76 907.47,-1240.13 935,-1224 975.16,-1200.47 1012.99,-1164.67 1041.45,-1133.83"/>
<polygon fill="black" stroke="black" points="1044.34,-1135.86 1048.48,-1126.1 1039.16,-1131.14 1044.34,-1135.86"/>
</g>
<!-- development -->
<g id="node11" class="node">
<title>development</title>
<polygon fill="darkgoldenrod" stroke="transparent" points="597,-1194 597,-1218 923,-1218 923,-1194 597,-1194"/>
<polygon fill="none" stroke="black" points="597,-1194 597,-1218 923,-1218 923,-1194 597,-1194"/>
<text text-anchor="start" x="600.5" y="-1202.2" font-family="Times,serif" font-size="16.00">Able to develop code and implement new features</text>
<polygon fill="none" stroke="black" points="594,-1191 594,-1221 926,-1221 926,-1191 594,-1191"/>
</g>
<!-- goal&#45;internet&#45;services&#45;&gt;development -->
<g id="edge1" class="edge">
<title>goal&#45;internet&#45;services&#45;&gt;development</title>
<path fill="none" stroke="black" d="M760,-1259.7C760,-1251.98 760,-1242.71 760,-1234.11"/>
<polygon fill="black" stroke="black" points="763.5,-1234.1 760,-1224.1 756.5,-1234.1 763.5,-1234.1"/>
</g>
<!-- async&#45;stack -->
<g id="node4" class="node">
<title>async&#45;stack</title>
<polygon fill="darkgoldenrod" stroke="transparent" points="249,-929 249,-953 579,-953 579,-929 249,-929"/>
<polygon fill="none" stroke="black" points="249,-929 249,-953 579,-953 579,-929 249,-929"/>
<text text-anchor="start" x="294" y="-937.2" font-family="Times,serif" font-size="16.00">Rust offers a full&#45;featured async stack</text>
<polygon fill="#ffb90f" stroke="transparent" points="249,-903 249,-927 579,-927 579,-903 249,-903"/>
<polygon fill="none" stroke="black" points="249,-903 249,-927 579,-927 579,-903 249,-903"/>
<text text-anchor="start" x="279" y="-911.2" font-family="Times,serif" font-size="16.00">Can quickly stand up an async application</text>
<polygon fill="#ffb90f" stroke="transparent" points="249,-877 249,-901 579,-901 579,-877 249,-877"/>
<polygon fill="none" stroke="black" points="249,-877 249,-901 579,-901 579,-877 249,-877"/>
<text text-anchor="start" x="295" y="-885.2" font-family="Times,serif" font-size="16.00">Devs able to focus on &#39;business logic&#39;</text>
<polygon fill="cornsilk" stroke="transparent" points="249,-851 249,-875 304,-875 304,-851 249,-851"/>
<polygon fill="none" stroke="black" points="249,-851 249,-875 304,-875 304,-851 249,-851"/>
<text text-anchor="start" x="252" y="-859.2" font-family="Times,serif" font-size="16.00">▮▮▮▯▯</text>
<polygon fill="cornsilk" stroke="transparent" points="306,-851 306,-875 579,-875 579,-851 306,-851"/>
<polygon fill="none" stroke="black" points="306,-851 306,-875 579,-875 579,-851 306,-851"/>
<text text-anchor="start" x="348" y="-859.2" font-family="Times,serif" font-size="16.00">High&#45;performance runtime(s)</text>
<polygon fill="cornsilk" stroke="transparent" points="249,-825 249,-849 304,-849 304,-825 249,-825"/>
<polygon fill="none" stroke="black" points="249,-825 249,-849 304,-849 304,-825 249,-825"/>
<text text-anchor="start" x="252" y="-833.2" font-family="Times,serif" font-size="16.00">▮▮▮▯▯</text>
<polygon fill="cornsilk" stroke="transparent" points="306,-825 306,-849 579,-849 579,-825 306,-825"/>
<polygon fill="none" stroke="black" points="306,-825 306,-849 579,-849 579,-825 306,-825"/>
<text text-anchor="start" x="414.5" y="-833.2" font-family="Times,serif" font-size="16.00">Logging</text>
<polygon fill="cornsilk" stroke="transparent" points="249,-799 249,-823 304,-823 304,-799 249,-799"/>
<polygon fill="none" stroke="black" points="249,-799 249,-823 304,-823 304,-799 249,-799"/>
<text text-anchor="start" x="252" y="-807.2" font-family="Times,serif" font-size="16.00">▮▯▯▯▯</text>
<polygon fill="cornsilk" stroke="transparent" points="306,-799 306,-823 579,-823 579,-799 306,-799"/>
<polygon fill="none" stroke="black" points="306,-799 306,-823 579,-823 579,-799 306,-799"/>
<text text-anchor="start" x="418.5" y="-807.2" font-family="Times,serif" font-size="16.00">Testing</text>
<polygon fill="cornsilk" stroke="transparent" points="249,-773 249,-797 304,-797 304,-773 249,-773"/>
<polygon fill="none" stroke="black" points="249,-773 249,-797 304,-797 304,-773 249,-773"/>
<text text-anchor="start" x="252" y="-781.2" font-family="Times,serif" font-size="16.00">▮▮▯▯▯</text>
<polygon fill="cornsilk" stroke="transparent" points="306,-773 306,-797 579,-797 579,-773 306,-773"/>
<polygon fill="none" stroke="black" points="306,-773 306,-797 579,-797 579,-773 306,-773"/>
<text text-anchor="start" x="374" y="-781.2" font-family="Times,serif" font-size="16.00">Persistence / database</text>
<polygon fill="cornsilk" stroke="transparent" points="249,-747 249,-771 304,-771 304,-747 249,-747"/>
<polygon fill="none" stroke="black" points="249,-747 249,-771 304,-771 304,-747 249,-747"/>
<text text-anchor="start" x="252" y="-755.2" font-family="Times,serif" font-size="16.00">▮▮▯▯▯</text>
<polygon fill="cornsilk" stroke="transparent" points="306,-747 306,-771 579,-771 579,-747 306,-747"/>
<polygon fill="none" stroke="black" points="306,-747 306,-771 579,-771 579,-747 306,-747"/>
<text text-anchor="start" x="404" y="-755.2" font-family="Times,serif" font-size="16.00">Middleware</text>
<polygon fill="cornsilk" stroke="transparent" points="249,-721 249,-745 304,-745 304,-721 249,-721"/>
<polygon fill="none" stroke="black" points="249,-721 249,-745 304,-745 304,-721 249,-721"/>
<text text-anchor="start" x="252" y="-729.2" font-family="Times,serif" font-size="16.00">▮▮▮▯▯</text>
<polygon fill="cornsilk" stroke="transparent" points="306,-721 306,-745 579,-745 579,-721 306,-721"/>
<polygon fill="none" stroke="black" points="306,-721 306,-745 579,-745 579,-721 306,-721"/>
<text text-anchor="start" x="309" y="-729.2" font-family="Times,serif" font-size="16.00">I/O uring support in tokio, other runtimes</text>
<polygon fill="none" stroke="black" points="246,-718 246,-956 582,-956 582,-718 246,-718"/>
</g>
<!-- onboarding&#45;&gt;async&#45;stack -->
<g id="edge4" class="edge">
<title>onboarding&#45;&gt;async&#45;stack</title>
<path fill="none" stroke="black" d="M452.94,-991.79C450.83,-983.45 448.65,-974.83 446.44,-966.12"/>
<polygon fill="black" stroke="black" points="449.79,-965.09 443.94,-956.25 443.01,-966.81 449.79,-965.09"/>
</g>
<!-- extensible -->
<g id="node8" class="node">
<title>extensible</title>
<polygon fill="darkgoldenrod" stroke="transparent" points="603,-890 603,-914 1023,-914 1023,-890 603,-890"/>
<polygon fill="none" stroke="black" points="603,-890 603,-914 1023,-914 1023,-890 603,-890"/>
<text text-anchor="start" x="762.5" y="-898.2" font-family="Times,serif" font-size="16.00">Extensible Rust</text>
<polygon fill="#ffb90f" stroke="transparent" points="603,-864 603,-888 1023,-888 1023,-864 603,-864"/>
<polygon fill="none" stroke="black" points="603,-864 603,-888 1023,-888 1023,-864 603,-864"/>
<text text-anchor="start" x="628" y="-872.2" font-family="Times,serif" font-size="16.00">Rust libraries can take control of the developer experience</text>
<polygon fill="cornsilk" stroke="transparent" points="603,-838 603,-862 658,-862 658,-838 603,-838"/>
<polygon fill="none" stroke="black" points="603,-838 603,-862 658,-862 658,-838 603,-838"/>
<text text-anchor="start" x="606" y="-846.2" font-family="Times,serif" font-size="16.00">▮▮▯▯▯</text>
<polygon fill="cornsilk" stroke="transparent" points="660,-838 660,-862 1023,-862 1023,-838 660,-838"/>
<polygon fill="none" stroke="black" points="660,-838 660,-862 1023,-862 1023,-838 660,-838"/>
<text text-anchor="start" x="793" y="-846.2" font-family="Times,serif" font-size="16.00">Macro hygiene</text>
<polygon fill="cornsilk" stroke="transparent" points="603,-812 603,-836 658,-836 658,-812 603,-812"/>
<polygon fill="none" stroke="black" points="603,-812 603,-836 658,-836 658,-812 603,-812"/>
<text text-anchor="start" x="606" y="-820.2" font-family="Times,serif" font-size="16.00">▯▯▯▯▯</text>
<polygon fill="cornsilk" stroke="transparent" points="660,-812 660,-836 1023,-836 1023,-812 660,-812"/>
<polygon fill="none" stroke="black" points="660,-812 660,-836 1023,-836 1023,-812 660,-812"/>
<text text-anchor="start" x="726" y="-820.2" font-family="Times,serif" font-size="16.00">Libraries supply custom lints, errors</text>
<polygon fill="cornsilk" stroke="transparent" points="603,-786 603,-810 658,-810 658,-786 603,-786"/>
<polygon fill="none" stroke="black" points="603,-786 603,-810 658,-810 658,-786 603,-786"/>
<text text-anchor="start" x="606" y="-794.2" font-family="Times,serif" font-size="16.00">▮▯▯▯▯</text>
<polygon fill="cornsilk" stroke="transparent" points="660,-786 660,-810 1023,-810 1023,-786 660,-786"/>
<polygon fill="none" stroke="black" points="660,-786 660,-810 1023,-810 1023,-786 660,-786"/>
<text text-anchor="start" x="663" y="-794.2" font-family="Times,serif" font-size="16.00">Libraries offering custom IDE integration (refactorings)</text>
<polygon fill="cornsilk" stroke="transparent" points="603,-760 603,-784 658,-784 658,-760 603,-760"/>
<polygon fill="none" stroke="black" points="603,-760 603,-784 658,-784 658,-760 603,-760"/>
<text text-anchor="start" x="606" y="-768.2" font-family="Times,serif" font-size="16.00">▮▯▯▯▯</text>
<polygon fill="cornsilk" stroke="transparent" points="660,-760 660,-784 1023,-784 1023,-760 660,-760"/>
<polygon fill="none" stroke="black" points="660,-760 660,-784 1023,-784 1023,-760 660,-760"/>
<text text-anchor="start" x="697.5" y="-768.2" font-family="Times,serif" font-size="16.00">Macros, lints have access to type information</text>
<polygon fill="none" stroke="black" points="600,-757 600,-917 1026,-917 1026,-757 600,-757"/>
</g>
<!-- onboarding&#45;&gt;extensible -->
<g id="edge5" class="edge">
<title>onboarding&#45;&gt;extensible</title>
<path fill="none" stroke="black" d="M588.58,-991.79C620.97,-969.6 656.31,-945.38 689.15,-922.87"/>
<polygon fill="black" stroke="black" points="691.18,-925.73 697.45,-917.19 687.22,-919.95 691.18,-925.73"/>
</g>
<!-- easy&#45;lang -->
<g id="node9" class="node">
<title>easy&#45;lang</title>
<polygon fill="darkgoldenrod" stroke="transparent" points="3,-394 3,-418 433,-418 433,-394 3,-394"/>
<polygon fill="none" stroke="black" points="3,-394 3,-418 433,-418 433,-394 3,-394"/>
<text text-anchor="start" x="136.5" y="-402.2" font-family="Times,serif" font-size="16.00">Rust is (more) ergonomic</text>
<polygon fill="#ffb90f" stroke="transparent" points="3,-368 3,-392 433,-392 433,-368 3,-368"/>
<polygon fill="none" stroke="black" points="3,-368 3,-392 433,-392 433,-368 3,-368"/>
<text text-anchor="start" x="89" y="-376.2" font-family="Times,serif" font-size="16.00">Using Rust feels smooth and convenient</text>
<polygon fill="cornsilk" stroke="transparent" points="3,-342 3,-366 58,-366 58,-342 3,-342"/>
<polygon fill="none" stroke="black" points="3,-342 3,-366 58,-366 58,-342 3,-342"/>
<text text-anchor="start" x="6" y="-350.2" font-family="Times,serif" font-size="16.00">▮▮▯▯▯</text>
<polygon fill="cornsilk" stroke="transparent" points="60,-342 60,-366 433,-366 433,-342 60,-342"/>
<polygon fill="none" stroke="black" points="60,-342 60,-366 433,-366 433,-342 60,-342"/>
<text text-anchor="start" x="63" y="-350.2" font-family="Times,serif" font-size="16.00">Dynamic dispatch (dyn trait) more powerful, easier to use</text>
<polygon fill="cornsilk" stroke="transparent" points="3,-316 3,-340 58,-340 58,-316 3,-316"/>
<polygon fill="none" stroke="black" points="3,-316 3,-340 58,-340 58,-316 3,-316"/>
<text text-anchor="start" x="6" y="-324.2" font-family="Times,serif" font-size="16.00">▮▮▯▯▯</text>
<polygon fill="cornsilk" stroke="transparent" points="60,-316 60,-340 433,-340 433,-316 60,-316"/>
<polygon fill="none" stroke="black" points="60,-316 60,-340 433,-340 433,-316 60,-316"/>
<text text-anchor="start" x="195.5" y="-324.2" font-family="Times,serif" font-size="16.00">Implied bounds</text>
<polygon fill="cornsilk" stroke="transparent" points="3,-290 3,-314 58,-314 58,-290 3,-290"/>
<polygon fill="none" stroke="black" points="3,-290 3,-314 58,-314 58,-290 3,-290"/>
<text text-anchor="start" x="6" y="-298.2" font-family="Times,serif" font-size="16.00">▮▯▯▯▯</text>
<polygon fill="cornsilk" stroke="transparent" points="60,-290 60,-314 433,-314 433,-290 60,-290"/>
<polygon fill="none" stroke="black" points="60,-290 60,-314 433,-314 433,-290 60,-290"/>
<text text-anchor="start" x="211.5" y="-298.2" font-family="Times,serif" font-size="16.00">Generators</text>
<polygon fill="cornsilk" stroke="transparent" points="3,-264 3,-288 58,-288 58,-264 3,-264"/>
<polygon fill="none" stroke="black" points="3,-264 3,-288 58,-288 58,-264 3,-264"/>
<text text-anchor="start" x="6" y="-272.2" font-family="Times,serif" font-size="16.00">▮▯▯▯▯</text>
<g id="a_node9_0"><a xlink:href="https://github.com/rust-lang/polonius/" xlink:title="&lt;TABLE&gt;">
<polygon fill="cornsilk" stroke="transparent" points="60,-264 60,-288 433,-288 433,-264 60,-264"/>
<polygon fill="none" stroke="black" points="60,-264 60,-288 433,-288 433,-264 60,-264"/>
<text text-anchor="start" x="163.5" y="-273.2" font-family="Times,serif" text-decoration="underline" font-size="16.00">Improved borrow checker</text>
</a>
</g>
<polygon fill="cornsilk" stroke="transparent" points="3,-238 3,-262 58,-262 58,-238 3,-238"/>
<polygon fill="none" stroke="black" points="3,-238 3,-262 58,-262 58,-238 3,-238"/>
<text text-anchor="start" x="6" y="-246.2" font-family="Times,serif" font-size="16.00">▮▯▯▯▯</text>
<g id="a_node9_1"><a xlink:href="https://smallcultfollowing.com/babysteps//blog/2021/11/05/view-types/" xlink:title="&lt;TABLE&gt;">
<polygon fill="cornsilk" stroke="transparent" points="60,-238 60,-262 433,-262 433,-238 60,-238"/>
<polygon fill="none" stroke="black" points="60,-238 60,-262 433,-262 433,-238 60,-238"/>
<text text-anchor="start" x="211" y="-247.2" font-family="Times,serif" text-decoration="underline" font-size="16.00">View types</text>
</a>
</g>
<polygon fill="none" stroke="black" points="0,-235 0,-421 436,-421 436,-235 0,-235"/>
</g>
<!-- onboarding&#45;&gt;easy&#45;lang -->
<g id="edge6" class="edge">
<title>onboarding&#45;&gt;easy&#45;lang</title>
<path fill="none" stroke="black" d="M322.86,-1027.65C289.18,-1010.75 257.41,-987.58 237,-956 134.01,-796.67 162.39,-563.83 191.04,-431.31"/>
<polygon fill="black" stroke="black" points="194.54,-431.68 193.28,-421.16 187.71,-430.18 194.54,-431.68"/>
</g>
<!-- async&#45;lang -->
<g id="node3" class="node">
<title>async&#45;lang</title>
<polygon fill="darkgoldenrod" stroke="transparent" points="351,-655 351,-679 723,-679 723,-655 351,-655"/>
<polygon fill="none" stroke="black" points="351,-655 351,-679 723,-679 723,-655 351,-655"/>
<text text-anchor="start" x="426" y="-663.2" font-family="Times,serif" font-size="16.00">Rust supports Async I/O smoothly</text>
<polygon fill="#ffb90f" stroke="transparent" points="351,-629 351,-653 723,-653 723,-629 351,-629"/>
<polygon fill="none" stroke="black" points="351,-629 351,-653 723,-653 723,-629 351,-629"/>
<text text-anchor="start" x="359" y="-637.2" font-family="Times,serif" font-size="16.00">Using Async I/O comparable in complexity to Sync I/O</text>
<polygon fill="#ffb90f" stroke="transparent" points="351,-603 351,-627 723,-627 723,-603 351,-603"/>
<polygon fill="none" stroke="black" points="351,-603 351,-627 723,-627 723,-603 351,-603"/>
<text text-anchor="start" x="364" y="-611.2" font-family="Times,serif" font-size="16.00">Access to a wide variety of useful libraries on crates.io</text>
<polygon fill="#ffb90f" stroke="transparent" points="351,-577 351,-601 723,-601 723,-577 351,-577"/>
<polygon fill="none" stroke="black" points="351,-577 351,-601 723,-601 723,-577 351,-577"/>
<text text-anchor="start" x="394.5" y="-585.2" font-family="Times,serif" font-size="16.00">Easy access to high performance networking</text>
<polygon fill="cornsilk" stroke="transparent" points="351,-551 351,-575 406,-575 406,-551 351,-551"/>
<polygon fill="none" stroke="black" points="351,-551 351,-575 406,-575 406,-551 351,-551"/>
<text text-anchor="start" x="354" y="-559.2" font-family="Times,serif" font-size="16.00">▮▮▮▯▯</text>
<polygon fill="cornsilk" stroke="transparent" points="408,-551 408,-575 723,-575 723,-551 408,-551"/>
<polygon fill="none" stroke="black" points="408,-551 408,-575 723,-575 723,-551 408,-551"/>
<text text-anchor="start" x="473" y="-559.2" font-family="Times,serif" font-size="16.00">Can use async fn everywhere</text>
<polygon fill="cornsilk" stroke="transparent" points="351,-525 351,-549 406,-549 406,-525 351,-525"/>
<polygon fill="none" stroke="black" points="351,-525 351,-549 406,-549 406,-525 351,-525"/>
<text text-anchor="start" x="354" y="-533.2" font-family="Times,serif" font-size="16.00">▮▮▯▯▯</text>
<polygon fill="cornsilk" stroke="transparent" points="408,-525 408,-549 723,-549 723,-525 408,-525"/>
<polygon fill="none" stroke="black" points="408,-525 408,-549 723,-549 723,-525 408,-525"/>
<text text-anchor="start" x="411" y="-533.2" font-family="Times,serif" font-size="16.00">Async resource cleanup works well (async drop)</text>
<polygon fill="cornsilk" stroke="transparent" points="351,-499 351,-523 406,-523 406,-499 351,-499"/>
<polygon fill="none" stroke="black" points="351,-499 351,-523 406,-523 406,-499 351,-499"/>
<text text-anchor="start" x="354" y="-507.2" font-family="Times,serif" font-size="16.00">▮▯▯▯▯</text>
<polygon fill="cornsilk" stroke="transparent" points="408,-499 408,-523 723,-523 723,-499 408,-499"/>
<polygon fill="none" stroke="black" points="408,-499 408,-523 723,-523 723,-499 408,-499"/>
<text text-anchor="start" x="440.5" y="-507.2" font-family="Times,serif" font-size="16.00">Easy interoperability between runtimes</text>
<polygon fill="cornsilk" stroke="transparent" points="351,-473 351,-497 406,-497 406,-473 351,-473"/>
<polygon fill="none" stroke="black" points="351,-473 351,-497 406,-497 406,-473 351,-473"/>
<text text-anchor="start" x="354" y="-481.2" font-family="Times,serif" font-size="16.00">▮▯▯▯▯</text>
<polygon fill="cornsilk" stroke="transparent" points="408,-473 408,-497 723,-497 723,-473 408,-473"/>
<polygon fill="none" stroke="black" points="408,-473 408,-497 723,-497 723,-473 408,-473"/>
<text text-anchor="start" x="510" y="-481.2" font-family="Times,serif" font-size="16.00">Async generators</text>
<polygon fill="none" stroke="black" points="348,-470 348,-682 726,-682 726,-470 348,-470"/>
</g>
<!-- expressive&#45;lang -->
<g id="node5" class="node">
<title>expressive&#45;lang</title>
<polygon fill="darkgoldenrod" stroke="transparent" points="457,-407 457,-431 887,-431 887,-407 457,-407"/>
<polygon fill="none" stroke="black" points="457,-407 457,-431 887,-431 887,-407 457,-407"/>
<text text-anchor="start" x="614.5" y="-415.2" font-family="Times,serif" font-size="16.00">Rust is expressive</text>
<polygon fill="#ffb90f" stroke="transparent" points="457,-381 457,-405 887,-405 887,-381 457,-381"/>
<polygon fill="none" stroke="black" points="457,-381 457,-405 887,-405 887,-381 457,-381"/>
<text text-anchor="start" x="488" y="-389.2" font-family="Times,serif" font-size="16.00">Rust language scales smoothly without &#39;complexity cliffs&#39;</text>
<polygon fill="#ffb90f" stroke="transparent" points="457,-355 457,-379 887,-379 887,-355 457,-355"/>
<polygon fill="none" stroke="black" points="457,-355 457,-379 887,-379 887,-355 457,-355"/>
<text text-anchor="start" x="485" y="-363.2" font-family="Times,serif" font-size="16.00">Rust able to express the patterns more complex code needs</text>
<polygon fill="cornsilk" stroke="transparent" points="457,-329 457,-353 512,-353 512,-329 457,-329"/>
<polygon fill="none" stroke="black" points="457,-329 457,-353 512,-353 512,-329 457,-329"/>
<text text-anchor="start" x="460" y="-337.2" font-family="Times,serif" font-size="16.00">▮▮▯▯▯</text>
<polygon fill="cornsilk" stroke="transparent" points="514,-329 514,-353 887,-353 887,-329 514,-329"/>
<polygon fill="none" stroke="black" points="514,-329 514,-353 887,-353 887,-329 514,-329"/>
<text text-anchor="start" x="517" y="-337.2" font-family="Times,serif" font-size="16.00">Dynamic dispatch (dyn trait) more powerful, easier to use</text>
<polygon fill="cornsilk" stroke="transparent" points="457,-303 457,-327 512,-327 512,-303 457,-303"/>
<polygon fill="none" stroke="black" points="457,-303 457,-327 512,-327 512,-303 457,-303"/>
<text text-anchor="start" x="460" y="-311.2" font-family="Times,serif" font-size="16.00">▮▮▯▯▯</text>
<polygon fill="cornsilk" stroke="transparent" points="514,-303 514,-327 887,-327 887,-303 514,-303"/>
<polygon fill="none" stroke="black" points="514,-303 514,-327 887,-327 887,-303 514,-303"/>
<text text-anchor="start" x="655" y="-311.2" font-family="Times,serif" font-size="16.00">Specialization</text>
<polygon fill="cornsilk" stroke="transparent" points="457,-277 457,-301 512,-301 512,-277 457,-277"/>
<polygon fill="none" stroke="black" points="457,-277 457,-301 512,-301 512,-277 457,-277"/>
<text text-anchor="start" x="460" y="-285.2" font-family="Times,serif" font-size="16.00">▮▮▮▯▯</text>
<polygon fill="cornsilk" stroke="transparent" points="514,-277 514,-301 887,-301 887,-277 514,-277"/>
<polygon fill="none" stroke="black" points="514,-277 514,-301 887,-301 887,-277 514,-277"/>
<text text-anchor="start" x="597.5" y="-285.2" font-family="Times,serif" font-size="16.00">Generic associated types (GATs)</text>
<polygon fill="cornsilk" stroke="transparent" points="457,-251 457,-275 512,-275 512,-251 457,-251"/>
<polygon fill="none" stroke="black" points="457,-251 457,-275 512,-275 512,-251 457,-251"/>
<text text-anchor="start" x="460" y="-259.2" font-family="Times,serif" font-size="16.00">▮▮▮▮▯</text>
<polygon fill="cornsilk" stroke="transparent" points="514,-251 514,-275 887,-275 887,-251 514,-251"/>
<polygon fill="none" stroke="black" points="514,-251 514,-275 887,-275 887,-251 514,-251"/>
<text text-anchor="start" x="670" y="-259.2" font-family="Times,serif" font-size="16.00">Impl trait</text>
<polygon fill="cornsilk" stroke="transparent" points="457,-225 457,-249 512,-249 512,-225 457,-225"/>
<polygon fill="none" stroke="black" points="457,-225 457,-249 512,-249 512,-225 457,-225"/>
<text text-anchor="start" x="460" y="-233.2" font-family="Times,serif" font-size="16.00">▮▯▯▯▯</text>
<polygon fill="cornsilk" stroke="transparent" points="514,-225 514,-249 887,-249 887,-225 514,-225"/>
<polygon fill="none" stroke="black" points="514,-225 514,-249 887,-249 887,-225 514,-225"/>
<text text-anchor="start" x="602" y="-233.2" font-family="Times,serif" font-size="16.00">Threaded contexts, capabilities</text>
<polygon fill="none" stroke="black" points="454,-222 454,-434 890,-434 890,-222 454,-222"/>
</g>
<!-- async&#45;lang&#45;&gt;expressive&#45;lang -->
<g id="edge7" class="edge">
<title>async&#45;lang&#45;&gt;expressive&#45;lang</title>
<path fill="none" stroke="black" d="M594.64,-469.96C599.53,-461.05 604.5,-452.01 609.42,-443.03"/>
<polygon fill="black" stroke="black" points="612.59,-444.53 614.33,-434.08 606.45,-441.16 612.59,-444.53"/>
</g>
<!-- async&#45;stack&#45;&gt;async&#45;lang -->
<g id="edge8" class="edge">
<title>async&#45;stack&#45;&gt;async&#45;lang</title>
<path fill="none" stroke="black" d="M470.1,-717.87C474.29,-709.06 478.5,-700.17 482.68,-691.38"/>
<polygon fill="black" stroke="black" points="485.88,-692.8 487.01,-682.26 479.56,-689.8 485.88,-692.8"/>
</g>
<!-- fundamentals -->
<g id="node6" class="node">
<title>fundamentals</title>
<polygon fill="darkgoldenrod" stroke="transparent" points="465,-159 465,-183 880,-183 880,-159 465,-159"/>
<polygon fill="none" stroke="black" points="465,-159 465,-183 880,-183 880,-159 465,-159"/>
<text text-anchor="start" x="513" y="-167.2" font-family="Times,serif" font-size="16.00">Compiler architecture is flexible and maintainable</text>
<polygon fill="#ffb90f" stroke="transparent" points="465,-133 465,-157 880,-157 880,-133 465,-133"/>
<polygon fill="none" stroke="black" points="465,-133 465,-157 880,-157 880,-133 465,-133"/>
<text text-anchor="start" x="564" y="-141.2" font-family="Times,serif" font-size="16.00">Easy to contribute to the compiler</text>
<polygon fill="#ffb90f" stroke="transparent" points="465,-107 465,-131 880,-131 880,-107 465,-107"/>
<polygon fill="none" stroke="black" points="465,-107 465,-131 880,-131 880,-107 465,-107"/>
<text text-anchor="start" x="554.5" y="-115.2" font-family="Times,serif" font-size="16.00">Language semantics well understood</text>
<polygon fill="#ffb90f" stroke="transparent" points="465,-81 465,-105 880,-105 880,-81 465,-81"/>
<polygon fill="none" stroke="black" points="465,-81 465,-105 880,-105 880,-81 465,-81"/>
<text text-anchor="start" x="525" y="-89.2" font-family="Times,serif" font-size="16.00">Extending language possible by mere humans</text>
<polygon fill="cornsilk" stroke="transparent" points="465,-55 465,-79 520,-79 520,-55 465,-55"/>
<polygon fill="none" stroke="black" points="465,-55 465,-79 520,-79 520,-55 465,-55"/>
<text text-anchor="start" x="468" y="-63.2" font-family="Times,serif" font-size="16.00">▮▮▮▯▯</text>
<polygon fill="cornsilk" stroke="transparent" points="522,-55 522,-79 880,-79 880,-55 522,-55"/>
<polygon fill="none" stroke="black" points="522,-55 522,-79 880,-79 880,-55 522,-55"/>
<text text-anchor="start" x="525" y="-63.2" font-family="Times,serif" font-size="16.00">Rearchitect traits/borrow&#45;checking as logical predicates</text>
<polygon fill="cornsilk" stroke="transparent" points="465,-29 465,-53 520,-53 520,-29 465,-29"/>
<polygon fill="none" stroke="black" points="465,-29 465,-53 520,-53 520,-29 465,-29"/>
<text text-anchor="start" x="468" y="-37.2" font-family="Times,serif" font-size="16.00">▮▯▯▯▯</text>
<polygon fill="cornsilk" stroke="transparent" points="522,-29 522,-53 880,-53 880,-29 522,-29"/>
<polygon fill="none" stroke="black" points="522,-29 522,-53 880,-53 880,-29 522,-29"/>
<text text-anchor="start" x="594.5" y="-37.2" font-family="Times,serif" font-size="16.00">Core Rust semantics documented</text>
<polygon fill="cornsilk" stroke="transparent" points="465,-3 465,-27 520,-27 520,-3 465,-3"/>
<polygon fill="none" stroke="black" points="465,-3 465,-27 520,-27 520,-3 465,-3"/>
<text text-anchor="start" x="468" y="-11.2" font-family="Times,serif" font-size="16.00">▮▮▯▯▯</text>
<polygon fill="cornsilk" stroke="transparent" points="522,-3 522,-27 880,-27 880,-3 522,-3"/>
<polygon fill="none" stroke="black" points="522,-3 522,-27 880,-27 880,-3 522,-3"/>
<text text-anchor="start" x="603" y="-11.2" font-family="Times,serif" font-size="16.00">Known soundness bugs closed</text>
<polygon fill="none" stroke="black" points="461.5,0 461.5,-186 882.5,-186 882.5,0 461.5,0"/>
</g>
<!-- expressive&#45;lang&#45;&gt;fundamentals -->
<g id="edge9" class="edge">
<title>expressive&#45;lang&#45;&gt;fundamentals</title>
<path fill="none" stroke="black" d="M672,-221.75C672,-213.35 672,-204.86 672,-196.48"/>
<polygon fill="black" stroke="black" points="675.5,-196.32 672,-186.32 668.5,-196.32 675.5,-196.32"/>
</g>
<!-- semi&#45;stable&#45;apis -->
<g id="node7" class="node">
<title>semi&#45;stable&#45;apis</title>
<polygon fill="darkgoldenrod" stroke="transparent" points="814,-616 814,-640 1226,-640 1226,-616 814,-616"/>
<polygon fill="none" stroke="black" points="814,-616 814,-640 1226,-640 1226,-616 814,-616"/>
<text text-anchor="start" x="853" y="-624.2" font-family="Times,serif" font-size="16.00">Compiler offers semi&#45;stable APIs that others can use</text>
<polygon fill="cornsilk" stroke="transparent" points="814,-590 814,-614 869,-614 869,-590 814,-590"/>
<polygon fill="none" stroke="black" points="814,-590 814,-614 869,-614 869,-590 814,-590"/>
<text text-anchor="start" x="817" y="-598.2" font-family="Times,serif" font-size="16.00">▯▯▯▯▯</text>
<polygon fill="cornsilk" stroke="transparent" points="871,-590 871,-614 1226,-614 1226,-590 871,-590"/>
<polygon fill="none" stroke="black" points="871,-590 871,-614 1226,-614 1226,-590 871,-590"/>
<text text-anchor="start" x="921.5" y="-598.2" font-family="Times,serif" font-size="16.00">Shared crate for representing Rust types</text>
<polygon fill="cornsilk" stroke="transparent" points="814,-564 814,-588 869,-588 869,-564 814,-564"/>
<polygon fill="none" stroke="black" points="814,-564 814,-588 869,-588 869,-564 814,-564"/>
<text text-anchor="start" x="817" y="-572.2" font-family="Times,serif" font-size="16.00">▯▯▯▯▯</text>
<polygon fill="cornsilk" stroke="transparent" points="871,-564 871,-588 1226,-588 1226,-564 871,-564"/>
<polygon fill="none" stroke="black" points="871,-564 871,-588 1226,-588 1226,-564 871,-564"/>
<text text-anchor="start" x="874" y="-572.2" font-family="Times,serif" font-size="16.00">Access to Rust type information and type check results</text>
<polygon fill="cornsilk" stroke="transparent" points="814,-538 814,-562 869,-562 869,-538 814,-538"/>
<polygon fill="none" stroke="black" points="814,-538 814,-562 869,-562 869,-538 814,-538"/>
<text text-anchor="start" x="817" y="-546.2" font-family="Times,serif" font-size="16.00">▯▯▯▯▯</text>
<polygon fill="cornsilk" stroke="transparent" points="871,-538 871,-562 1226,-562 1226,-538 871,-538"/>
<polygon fill="none" stroke="black" points="871,-538 871,-562 1226,-562 1226,-538 871,-538"/>
<text text-anchor="start" x="957" y="-546.2" font-family="Times,serif" font-size="16.00">Ability to ask &#39;hypotheticals&#39;</text>
<polygon fill="cornsilk" stroke="transparent" points="814,-512 814,-536 869,-536 869,-512 814,-512"/>
<polygon fill="none" stroke="black" points="814,-512 814,-536 869,-536 869,-512 814,-512"/>
<text text-anchor="start" x="817" y="-520.2" font-family="Times,serif" font-size="16.00">▯▯▯▯▯</text>
<polygon fill="cornsilk" stroke="transparent" points="871,-512 871,-536 1226,-536 1226,-512 871,-512"/>
<polygon fill="none" stroke="black" points="871,-512 871,-536 1226,-536 1226,-512 871,-512"/>
<text text-anchor="start" x="924.5" y="-520.2" font-family="Times,serif" font-size="16.00">Access to the MIR for a given function</text>
<polygon fill="none" stroke="black" points="811,-509 811,-643 1229,-643 1229,-509 811,-509"/>
</g>
<!-- semi&#45;stable&#45;apis&#45;&gt;fundamentals -->
<g id="edge10" class="edge">
<title>semi&#45;stable&#45;apis&#45;&gt;fundamentals</title>
<path fill="none" stroke="black" d="M1011.72,-508.89C999.14,-432.3 968.81,-305.93 899,-222 890.27,-211.5 880.44,-201.7 869.9,-192.58"/>
<polygon fill="black" stroke="black" points="872.02,-189.79 862.1,-186.06 867.53,-195.16 872.02,-189.79"/>
</g>
<!-- extensible&#45;&gt;semi&#45;stable&#45;apis -->
<g id="edge11" class="edge">
<title>extensible&#45;&gt;semi&#45;stable&#45;apis</title>
<path fill="none" stroke="black" d="M876.23,-756.88C903.2,-723.14 934.49,-683.99 960.98,-650.85"/>
<polygon fill="black" stroke="black" points="963.74,-653 967.25,-643 958.27,-648.63 963.74,-653"/>
</g>
<!-- easy&#45;lang&#45;&gt;fundamentals -->
<g id="edge12" class="edge">
<title>easy&#45;lang&#45;&gt;fundamentals</title>
<path fill="none" stroke="black" d="M397.43,-234.91C425.61,-220.45 454.82,-205.46 483.2,-190.9"/>
<polygon fill="black" stroke="black" points="485.09,-193.86 492.38,-186.18 481.89,-187.63 485.09,-193.86"/>
</g>
<!-- debugging&#45;&gt;semi&#45;stable&#45;apis -->
<g id="edge13" class="edge">
<title>debugging&#45;&gt;semi&#45;stable&#45;apis</title>
<path fill="none" stroke="black" d="M1092.66,-1017.8C1092.56,-948.21 1089.02,-822.79 1068,-718 1063.66,-696.34 1056.87,-673.44 1049.75,-652.54"/>
<polygon fill="black" stroke="black" points="1053.05,-651.38 1046.46,-643.08 1046.44,-653.68 1053.05,-651.38"/>
</g>
<!-- development&#45;&gt;onboarding -->
<g id="edge14" class="edge">
<title>development&#45;&gt;onboarding</title>
<path fill="none" stroke="black" d="M716.72,-1187.94C693.92,-1178.76 665.34,-1166.94 632.47,-1152.16"/>
<polygon fill="black" stroke="black" points="633.64,-1148.85 623.09,-1147.92 630.76,-1155.23 633.64,-1148.85"/>
</g>
<!-- development&#45;&gt;debugging -->
<g id="edge15" class="edge">
<title>development&#45;&gt;debugging</title>
<path fill="none" stroke="black" d="M803.06,-1187.88C840.3,-1173.07 896.32,-1150.8 949.15,-1129.79"/>
<polygon fill="black" stroke="black" points="950.63,-1132.97 958.63,-1126.03 948.04,-1126.47 950.63,-1132.97"/>
</g>
<!-- ide -->
<g id="node12" class="node">
<title>ide</title>
<polygon fill="darkgoldenrod" stroke="transparent" points="644,-1099 644,-1123 876,-1123 876,-1099 644,-1099"/>
<polygon fill="none" stroke="black" points="644,-1099 644,-1123 876,-1123 876,-1099 644,-1099"/>
<text text-anchor="start" x="685.5" y="-1107.2" font-family="Times,serif" font-size="16.00">Top&#45;notch IDE support</text>
<polygon fill="cornsilk" stroke="transparent" points="644,-1073 644,-1097 699,-1097 699,-1073 644,-1073"/>
<polygon fill="none" stroke="black" points="644,-1073 644,-1097 699,-1097 699,-1073 644,-1073"/>
<text text-anchor="start" x="647" y="-1081.2" font-family="Times,serif" font-size="16.00">▮▮▮▮▮</text>
<polygon fill="cornsilk" stroke="transparent" points="701,-1073 701,-1097 876,-1097 876,-1073 701,-1073"/>
<polygon fill="none" stroke="black" points="701,-1073 701,-1097 876,-1097 876,-1073 701,-1073"/>
<text text-anchor="start" x="722" y="-1081.2" font-family="Times,serif" font-size="16.00">LSP implementation</text>
<polygon fill="cornsilk" stroke="transparent" points="644,-1047 644,-1071 699,-1071 699,-1047 644,-1047"/>
<polygon fill="none" stroke="black" points="644,-1047 644,-1071 699,-1071 699,-1047 644,-1047"/>
<text text-anchor="start" x="647" y="-1055.2" font-family="Times,serif" font-size="16.00">▮▯▯▯▯</text>
<polygon fill="cornsilk" stroke="transparent" points="701,-1047 701,-1071 876,-1071 876,-1047 701,-1047"/>
<polygon fill="none" stroke="black" points="701,-1047 701,-1071 876,-1071 876,-1047 701,-1047"/>
<text text-anchor="start" x="704" y="-1055.2" font-family="Times,serif" font-size="16.00">Shares code with compiler</text>
<polygon fill="cornsilk" stroke="transparent" points="644,-1021 644,-1045 699,-1045 699,-1021 644,-1021"/>
<polygon fill="none" stroke="black" points="644,-1021 644,-1045 699,-1045 699,-1021 644,-1021"/>
<text text-anchor="start" x="647" y="-1029.2" font-family="Times,serif" font-size="16.00">▮▮▮▯▯</text>
<polygon fill="cornsilk" stroke="transparent" points="701,-1021 701,-1045 876,-1045 876,-1021 701,-1021"/>
<polygon fill="none" stroke="black" points="701,-1021 701,-1045 876,-1045 876,-1021 701,-1021"/>
<text text-anchor="start" x="713" y="-1029.2" font-family="Times,serif" font-size="16.00">Plethora of refactorings</text>
<polygon fill="none" stroke="black" points="641,-1018 641,-1126 879,-1126 879,-1018 641,-1018"/>
</g>
<!-- development&#45;&gt;ide -->
<g id="edge16" class="edge">
<title>development&#45;&gt;ide</title>
<path fill="none" stroke="black" d="M760,-1187.74C760,-1174.47 760,-1155.27 760,-1136.35"/>
<polygon fill="black" stroke="black" points="763.5,-1136.21 760,-1126.21 756.5,-1136.21 763.5,-1136.21"/>
</g>
<!-- ide&#45;&gt;semi&#45;stable&#45;apis -->
<g id="edge17" class="edge">
<title>ide&#45;&gt;semi&#45;stable&#45;apis</title>
<path fill="none" stroke="black" d="M837.48,-1017.88C853.68,-1008.3 871.02,-999.11 888,-992 950.04,-966.02 993.48,-1008.92 1035,-956 1070.58,-910.66 1050.49,-750.11 1034.22,-653.11"/>
<polygon fill="black" stroke="black" points="1037.64,-652.33 1032.51,-643.06 1030.74,-653.51 1037.64,-652.33"/>
</g>
</g>
</svg>
