<?xml version="1.0" encoding="UTF-8" standalone="no"?>
<!DOCTYPE svg PUBLIC "-//W3C//DTD SVG 1.1//EN"
 "http://www.w3.org/Graphics/SVG/1.1/DTD/svg11.dtd">
<!-- Generated by graphviz version 2.43.0 (0)
 -->
<!-- Title: g Pages: 1 -->
<svg width="2041pt" height="1434pt"
 viewBox="0.00 0.00 2041.00 1434.00" xmlns="http://www.w3.org/2000/svg" xmlns:xlink="http://www.w3.org/1999/xlink">
<g id="graph0" class="graph" transform="scale(1 1) rotate(0) translate(4 1430)">
<title>g</title>
<polygon fill="white" stroke="transparent" points="-4,4 -4,-1430 2037,-1430 2037,4 -4,4"/>
<!-- goal&#45;internet&#45;services -->
<g id="node1" class="node">
<title>goal&#45;internet&#45;services</title>
<polygon fill="darkgoldenrod" stroke="transparent" points="248,-133 248,-157 857,-157 857,-133 248,-133"/>
<polygon fill="none" stroke="black" points="248,-133 248,-157 857,-157 857,-133 248,-133"/>
<text text-anchor="start" x="271" y="-141.2" font-family="Times,serif" font-size="16.00">🎯 Rust a common choice for programs running on internet services</text>
<polygon fill="#ffb90f" stroke="transparent" points="248,-107 248,-131 857,-131 857,-107 248,-107"/>
<polygon fill="none" stroke="black" points="248,-107 248,-131 857,-131 857,-107 248,-107"/>
<text text-anchor="start" x="461.5" y="-115.2" font-family="Times,serif" font-size="16.00">Faster response times</text>
<polygon fill="#ffb90f" stroke="transparent" points="248,-81 248,-105 857,-105 857,-81 248,-81"/>
<polygon fill="none" stroke="black" points="248,-81 248,-105 857,-105 857,-81 248,-81"/>
<text text-anchor="start" x="384" y="-89.2" font-family="Times,serif" font-size="16.00">Ratio of P99.99 to P50 latencies is lower</text>
<polygon fill="#ffb90f" stroke="transparent" points="248,-55 248,-79 857,-79 857,-55 248,-55"/>
<polygon fill="none" stroke="black" points="248,-55 248,-79 857,-79 857,-55 248,-55"/>
<text text-anchor="start" x="270.5" y="-63.2" font-family="Times,serif" font-size="16.00">Data centers require fewer resources to sustain same level of traffic</text>
<polygon fill="#ffb90f" stroke="transparent" points="248,-29 248,-53 857,-53 857,-29 248,-29"/>
<polygon fill="none" stroke="black" points="248,-29 248,-53 857,-53 857,-29 248,-29"/>
<text text-anchor="start" x="252" y="-37.2" font-family="Times,serif" font-size="16.00">Rate of security vulnerabilities and serious bugs is dramatically reduced</text>
<polygon fill="#ffb90f" stroke="transparent" points="248,-3 248,-27 857,-27 857,-3 248,-3"/>
<polygon fill="none" stroke="black" points="248,-3 248,-27 857,-27 857,-3 248,-3"/>
<text text-anchor="start" x="342" y="-11.2" font-family="Times,serif" font-size="16.00">Improved employee retention and ability to recruit</text>
<polygon fill="none" stroke="black" points="244.5,0 244.5,-160 859.5,-160 859.5,0 244.5,0"/>
</g>
<!-- prod&#45;tooling -->
<g id="node2" class="node">
<title>prod&#45;tooling</title>
<polygon fill="darkgoldenrod" stroke="transparent" points="3,-355 3,-379 573,-379 573,-355 3,-355"/>
<polygon fill="none" stroke="black" points="3,-355 3,-379 573,-379 573,-355 3,-355"/>
<text text-anchor="start" x="211" y="-363.2" font-family="Times,serif" font-size="16.00">Production tooling</text>
<polygon fill="#ffb90f" stroke="transparent" points="3,-329 3,-353 573,-353 573,-329 3,-329"/>
<polygon fill="none" stroke="black" points="3,-329 3,-353 573,-353 573,-329 3,-329"/>
<text text-anchor="start" x="11.5" y="-337.2" font-family="Times,serif" font-size="16.00">Able to troubleshoot correctness problems that arise in production</text>
<polygon fill="#ffb90f" stroke="transparent" points="3,-303 3,-327 573,-327 573,-303 3,-303"/>
<polygon fill="none" stroke="black" points="3,-303 3,-327 573,-327 573,-303 3,-303"/>
<text text-anchor="start" x="7" y="-311.2" font-family="Times,serif" font-size="16.00">Able to troubleshoot performance problems that arise in production</text>
<polygon fill="cornsilk" stroke="transparent" points="3,-277 3,-301 100,-301 100,-277 3,-277"/>
<polygon fill="none" stroke="black" points="3,-277 3,-301 100,-301 100,-277 3,-277"/>
<text text-anchor="start" x="7.5" y="-285.2" font-family="Times,serif" font-size="16.00">(not sure!)</text>
<polygon fill="cornsilk" stroke="transparent" points="102,-277 102,-301 573,-301 573,-277 102,-277"/>
<polygon fill="none" stroke="black" points="102,-277 102,-301 573,-301 573,-277 102,-277"/>
<text text-anchor="start" x="222" y="-285.2" font-family="Times,serif" font-size="16.00">Async runtime observability</text>
<polygon fill="cornsilk" stroke="transparent" points="3,-251 3,-275 100,-275 100,-251 3,-251"/>
<polygon fill="none" stroke="black" points="3,-251 3,-275 100,-275 100,-251 3,-251"/>
<text text-anchor="start" x="28.5" y="-259.2" font-family="Times,serif" font-size="16.00">▮▮▯▯▯</text>
<polygon fill="cornsilk" stroke="transparent" points="102,-251 102,-275 573,-275 573,-251 102,-251"/>
<polygon fill="none" stroke="black" points="102,-251 102,-275 573,-275 573,-251 102,-251"/>
<text text-anchor="start" x="190" y="-259.2" font-family="Times,serif" font-size="16.00">Readable stacktraces, esp. in async</text>
<polygon fill="cornsilk" stroke="transparent" points="3,-225 3,-249 100,-249 100,-225 3,-225"/>
<polygon fill="none" stroke="black" points="3,-225 3,-249 100,-249 100,-225 3,-225"/>
<text text-anchor="start" x="28.5" y="-233.2" font-family="Times,serif" font-size="16.00">▯▯▯▯▯</text>
<polygon fill="cornsilk" stroke="transparent" points="102,-225 102,-249 573,-249 573,-225 102,-225"/>
<polygon fill="none" stroke="black" points="102,-225 102,-249 573,-249 573,-225 102,-225"/>
<text text-anchor="start" x="107" y="-233.2" font-family="Times,serif" font-size="16.00">Live, low&#45;overhead profilers for CPU and memory usage</text>
<polygon fill="none" stroke="black" points="0,-222 0,-382 576,-382 576,-222 0,-222"/>
</g>
<!-- prod&#45;tooling&#45;&gt;goal&#45;internet&#45;services -->
<g id="edge2" class="edge">
<title>prod&#45;tooling&#45;&gt;goal&#45;internet&#45;services</title>
<path fill="none" stroke="black" d="M382.94,-221.89C404.4,-204 427.28,-184.93 449.05,-166.79"/>
<polygon fill="black" stroke="black" points="451.58,-169.24 457.02,-160.15 447.1,-163.86 451.58,-169.24"/>
</g>
<!-- dev&#45;tooling -->
<g id="node3" class="node">
<title>dev&#45;tooling</title>
<polygon fill="darkgoldenrod" stroke="transparent" points="15,-642 15,-666 541,-666 541,-642 15,-642"/>
<polygon fill="none" stroke="black" points="15,-642 15,-666 541,-666 541,-642 15,-642"/>
<text text-anchor="start" x="204" y="-650.2" font-family="Times,serif" font-size="16.00">Developer tooling</text>
<polygon fill="#ffb90f" stroke="transparent" points="15,-616 15,-640 541,-640 541,-616 15,-616"/>
<polygon fill="none" stroke="black" points="15,-616 15,-640 541,-640 541,-616 15,-616"/>
<text text-anchor="start" x="45" y="-624.2" font-family="Times,serif" font-size="16.00">Able to understand programs in terms of async behavior</text>
<polygon fill="#ffb90f" stroke="transparent" points="15,-590 15,-614 541,-614 541,-590 15,-590"/>
<polygon fill="none" stroke="black" points="15,-590 15,-614 541,-614 541,-590 15,-590"/>
<text text-anchor="start" x="23.5" y="-598.2" font-family="Times,serif" font-size="16.00">Able to fix correctness problems in development environment</text>
<polygon fill="#ffb90f" stroke="transparent" points="15,-564 15,-588 541,-588 541,-564 15,-564"/>
<polygon fill="none" stroke="black" points="15,-564 15,-588 541,-588 541,-564 15,-564"/>
<text text-anchor="start" x="19" y="-572.2" font-family="Times,serif" font-size="16.00">Able to fix performance problems in development environment</text>
<polygon fill="cornsilk" stroke="transparent" points="15,-538 15,-562 101,-562 101,-538 15,-538"/>
<polygon fill="none" stroke="black" points="15,-538 15,-562 101,-562 101,-538 15,-538"/>
<text text-anchor="start" x="35" y="-546.2" font-family="Times,serif" font-size="16.00">▮▮▯▯▯</text>
<polygon fill="cornsilk" stroke="transparent" points="103,-538 103,-562 541,-562 541,-538 103,-538"/>
<polygon fill="none" stroke="black" points="103,-538 103,-562 541,-562 541,-538 103,-538"/>
<text text-anchor="start" x="228.5" y="-546.2" font-family="Times,serif" font-size="16.00">Quality Rust debugger</text>
<polygon fill="cornsilk" stroke="transparent" points="15,-512 15,-536 101,-536 101,-512 15,-512"/>
<polygon fill="none" stroke="black" points="15,-512 15,-536 101,-536 101,-512 15,-512"/>
<text text-anchor="start" x="35" y="-520.2" font-family="Times,serif" font-size="16.00">▮▮▮▮▯</text>
<polygon fill="cornsilk" stroke="transparent" points="103,-512 103,-536 541,-536 541,-512 103,-512"/>
<polygon fill="none" stroke="black" points="103,-512 103,-536 541,-536 541,-512 103,-512"/>
<text text-anchor="start" x="159.5" y="-520.2" font-family="Times,serif" font-size="16.00">Rust well integrated into common IDEs</text>
<polygon fill="cornsilk" stroke="transparent" points="15,-486 15,-510 101,-510 101,-486 15,-486"/>
<polygon fill="none" stroke="black" points="15,-486 15,-510 101,-510 101,-486 15,-486"/>
<text text-anchor="start" x="35" y="-494.2" font-family="Times,serif" font-size="16.00">▮▮▮▯▯</text>
<polygon fill="cornsilk" stroke="transparent" points="103,-486 103,-510 541,-510 541,-486 103,-486"/>
<polygon fill="none" stroke="black" points="103,-486 103,-510 541,-510 541,-486 103,-486"/>
<text text-anchor="start" x="123" y="-494.2" font-family="Times,serif" font-size="16.00">Async runtime observability (e.g., tokio console)</text>
<polygon fill="cornsilk" stroke="transparent" points="15,-460 15,-484 101,-484 101,-460 15,-460"/>
<polygon fill="none" stroke="black" points="15,-460 15,-484 101,-484 101,-460 15,-460"/>
<text text-anchor="start" x="35" y="-468.2" font-family="Times,serif" font-size="16.00">▮▮▯▯▯</text>
<polygon fill="cornsilk" stroke="transparent" points="103,-460 103,-484 541,-484 541,-460 103,-460"/>
<polygon fill="none" stroke="black" points="103,-460 103,-484 541,-484 541,-460 103,-460"/>
<text text-anchor="start" x="171.5" y="-468.2" font-family="Times,serif" font-size="16.00">Profilers for CPU and memory usage</text>
<polygon fill="none" stroke="black" points="12,-457 12,-669 544,-669 544,-457 12,-457"/>
</g>
<!-- dev&#45;tooling&#45;&gt;prod&#45;tooling -->
<g id="edge3" class="edge">
<title>dev&#45;tooling&#45;&gt;prod&#45;tooling</title>
<path fill="none" stroke="black" d="M282.07,-456.65C282.89,-435.23 283.76,-412.89 284.56,-392.1"/>
<polygon fill="black" stroke="black" points="288.06,-392.16 284.95,-382.03 281.07,-391.89 288.06,-392.16"/>
</g>
<!-- onboarding&#45;time -->
<g id="node6" class="node">
<title>onboarding&#45;time</title>
<polygon fill="darkgoldenrod" stroke="transparent" points="606,-381 606,-405 1044,-405 1044,-381 606,-381"/>
<polygon fill="none" stroke="black" points="606,-381 606,-405 1044,-405 1044,-381 606,-381"/>
<text text-anchor="start" x="668" y="-389.2" font-family="Times,serif" font-size="16.00">Smooth onboarding of Rust engineers</text>
<polygon fill="#ffb90f" stroke="transparent" points="606,-355 606,-379 1044,-379 1044,-355 606,-355"/>
<polygon fill="none" stroke="black" points="606,-355 606,-379 1044,-379 1044,-355 606,-355"/>
<text text-anchor="start" x="610" y="-363.2" font-family="Times,serif" font-size="16.00">Time to be highly productive is measured in months</text>
<polygon fill="#ffb90f" stroke="transparent" points="606,-329 606,-353 1044,-353 1044,-329 606,-329"/>
<polygon fill="none" stroke="black" points="606,-329 606,-353 1044,-353 1044,-329 606,-329"/>
<text text-anchor="start" x="616.5" y="-337.2" font-family="Times,serif" font-size="16.00">Clear transition paths from other major languages</text>
<polygon fill="cornsilk" stroke="transparent" points="606,-303 606,-327 693,-327 693,-303 606,-303"/>
<polygon fill="none" stroke="black" points="606,-303 606,-327 693,-327 693,-303 606,-303"/>
<text text-anchor="start" x="626.5" y="-311.2" font-family="Times,serif" font-size="16.00">▮▮▮▮▮</text>
<polygon fill="cornsilk" stroke="transparent" points="695,-303 695,-327 1044,-327 1044,-303 695,-303"/>
<polygon fill="none" stroke="black" points="695,-303 695,-327 1044,-327 1044,-303 695,-303"/>
<text text-anchor="start" x="732.5" y="-311.2" font-family="Times,serif" font-size="16.00">Rust beginner learning materials</text>
<polygon fill="cornsilk" stroke="transparent" points="606,-277 606,-301 693,-301 693,-277 606,-277"/>
<polygon fill="none" stroke="black" points="606,-277 606,-301 693,-301 693,-277 606,-277"/>
<text text-anchor="start" x="626.5" y="-285.2" font-family="Times,serif" font-size="16.00">▮▮▮▯▯</text>
<polygon fill="cornsilk" stroke="transparent" points="695,-277 695,-301 1044,-301 1044,-277 695,-277"/>
<polygon fill="none" stroke="black" points="695,-277 695,-301 1044,-301 1044,-277 695,-277"/>
<text text-anchor="start" x="716" y="-285.2" font-family="Times,serif" font-size="16.00">Rust intermediate learning materials</text>
<polygon fill="cornsilk" stroke="transparent" points="606,-251 606,-275 693,-275 693,-251 606,-251"/>
<polygon fill="none" stroke="black" points="606,-251 606,-275 693,-275 693,-251 606,-251"/>
<text text-anchor="start" x="626.5" y="-259.2" font-family="Times,serif" font-size="16.00">▯▯▯▯▯</text>
<polygon fill="cornsilk" stroke="transparent" points="695,-251 695,-275 1044,-275 1044,-251 695,-251"/>
<polygon fill="none" stroke="black" points="695,-251 695,-275 1044,-275 1044,-251 695,-251"/>
<text text-anchor="start" x="787.5" y="-259.2" font-family="Times,serif" font-size="16.00">Java transition path</text>
<polygon fill="cornsilk" stroke="transparent" points="606,-225 606,-249 693,-249 693,-225 606,-225"/>
<polygon fill="none" stroke="black" points="606,-225 606,-249 693,-249 693,-225 606,-225"/>
<text text-anchor="start" x="626.5" y="-233.2" font-family="Times,serif" font-size="16.00">▮▮▯▯▯</text>
<polygon fill="cornsilk" stroke="transparent" points="695,-225 695,-249 1044,-249 1044,-225 695,-225"/>
<polygon fill="none" stroke="black" points="695,-225 695,-249 1044,-249 1044,-225 695,-225"/>
<text text-anchor="start" x="785.5" y="-233.2" font-family="Times,serif" font-size="16.00">C++ transition path</text>
<polygon fill="cornsilk" stroke="transparent" points="606,-199 606,-223 693,-223 693,-199 606,-199"/>
<polygon fill="none" stroke="black" points="606,-199 606,-223 693,-223 693,-199 606,-199"/>
<text text-anchor="start" x="626.5" y="-207.2" font-family="Times,serif" font-size="16.00">▮▮▯▯▯</text>
<polygon fill="cornsilk" stroke="transparent" points="695,-199 695,-223 1044,-223 1044,-199 695,-199"/>
<polygon fill="none" stroke="black" points="695,-199 695,-223 1044,-223 1044,-199 695,-199"/>
<text text-anchor="start" x="728.5" y="-207.2" font-family="Times,serif" font-size="16.00">Dynamic language transition path</text>
<polygon fill="none" stroke="black" points="603,-196 603,-408 1047,-408 1047,-196 603,-196"/>
</g>
<!-- dev&#45;tooling&#45;&gt;onboarding&#45;time -->
<g id="edge6" class="edge">
<title>dev&#45;tooling&#45;&gt;onboarding&#45;time</title>
<path fill="none" stroke="black" d="M500.09,-456.84C530.93,-442.24 562.68,-427.2 593.69,-412.52"/>
<polygon fill="black" stroke="black" points="595.31,-415.63 602.85,-408.19 592.31,-409.3 595.31,-415.63"/>
</g>
<!-- fundamentals -->
<g id="node4" class="node">
<title>fundamentals</title>
<polygon fill="darkgoldenrod" stroke="transparent" points="720,-1399 720,-1423 1245,-1423 1245,-1399 720,-1399"/>
<polygon fill="none" stroke="black" points="720,-1399 720,-1423 1245,-1423 1245,-1399 720,-1399"/>
<text text-anchor="start" x="904.5" y="-1407.2" font-family="Times,serif" font-size="16.00">Rust fundamentals</text>
<polygon fill="#ffb90f" stroke="transparent" points="720,-1373 720,-1397 1245,-1397 1245,-1373 720,-1373"/>
<polygon fill="none" stroke="black" points="720,-1373 720,-1397 1245,-1397 1245,-1373 720,-1373"/>
<text text-anchor="start" x="840.5" y="-1381.2" font-family="Times,serif" font-size="16.00">Easy to contribute to the compiler</text>
<polygon fill="#ffb90f" stroke="transparent" points="720,-1347 720,-1371 1245,-1371 1245,-1347 720,-1347"/>
<polygon fill="none" stroke="black" points="720,-1347 720,-1371 1245,-1371 1245,-1347 720,-1347"/>
<text text-anchor="start" x="828.5" y="-1355.2" font-family="Times,serif" font-size="16.00">Language semantics well understood</text>
<polygon fill="#ffb90f" stroke="transparent" points="720,-1321 720,-1345 1245,-1345 1245,-1321 720,-1321"/>
<polygon fill="none" stroke="black" points="720,-1321 720,-1345 1245,-1345 1245,-1321 720,-1321"/>
<text text-anchor="start" x="791.5" y="-1329.2" font-family="Times,serif" font-size="16.00">Extending language possible by mere humans</text>
<polygon fill="cornsilk" stroke="transparent" points="720,-1295 720,-1319 772,-1319 772,-1295 720,-1295"/>
<polygon fill="none" stroke="black" points="720,-1295 720,-1319 772,-1319 772,-1295 720,-1295"/>
<text text-anchor="start" x="723" y="-1303.2" font-family="Times,serif" font-size="16.00">▮▮▮▯▯</text>
<polygon fill="cornsilk" stroke="transparent" points="774,-1295 774,-1319 1245,-1319 1245,-1295 774,-1295"/>
<polygon fill="none" stroke="black" points="774,-1295 774,-1319 1245,-1319 1245,-1295 774,-1295"/>
<text text-anchor="start" x="777" y="-1303.2" font-family="Times,serif" font-size="16.00">Rearchitect traits/borrow&#45;checking as logical predicates</text>
<polygon fill="cornsilk" stroke="transparent" points="720,-1269 720,-1293 772,-1293 772,-1269 720,-1269"/>
<polygon fill="none" stroke="black" points="720,-1269 720,-1293 772,-1293 772,-1269 720,-1269"/>
<text text-anchor="start" x="723" y="-1277.2" font-family="Times,serif" font-size="16.00">▮▯▯▯▯</text>
<polygon fill="cornsilk" stroke="transparent" points="774,-1269 774,-1293 1245,-1293 1245,-1269 774,-1269"/>
<polygon fill="none" stroke="black" points="774,-1269 774,-1293 1245,-1293 1245,-1269 774,-1269"/>
<text text-anchor="start" x="871" y="-1277.2" font-family="Times,serif" font-size="16.00">Core Rust semantics documented</text>
<polygon fill="cornsilk" stroke="transparent" points="720,-1243 720,-1267 772,-1267 772,-1243 720,-1243"/>
<polygon fill="none" stroke="black" points="720,-1243 720,-1267 772,-1267 772,-1243 720,-1243"/>
<text text-anchor="start" x="723" y="-1251.2" font-family="Times,serif" font-size="16.00">▮▯▯▯▯</text>
<polygon fill="cornsilk" stroke="transparent" points="774,-1243 774,-1267 1245,-1267 1245,-1243 774,-1243"/>
<polygon fill="none" stroke="black" points="774,-1243 774,-1267 1245,-1267 1245,-1243 774,-1243"/>
<text text-anchor="start" x="931" y="-1251.2" font-family="Times,serif" font-size="16.00">Proof of soundness</text>
<polygon fill="cornsilk" stroke="transparent" points="720,-1217 720,-1241 772,-1241 772,-1217 720,-1217"/>
<polygon fill="none" stroke="black" points="720,-1217 720,-1241 772,-1241 772,-1217 720,-1217"/>
<text text-anchor="start" x="723" y="-1225.2" font-family="Times,serif" font-size="16.00">▮▮▯▯▯</text>
<polygon fill="cornsilk" stroke="transparent" points="774,-1217 774,-1241 1245,-1241 1245,-1217 774,-1217"/>
<polygon fill="none" stroke="black" points="774,-1217 774,-1241 1245,-1241 1245,-1217 774,-1217"/>
<text text-anchor="start" x="913" y="-1225.2" font-family="Times,serif" font-size="16.00">Unsafe code guidelines</text>
<polygon fill="cornsilk" stroke="transparent" points="720,-1191 720,-1215 772,-1215 772,-1191 720,-1191"/>
<polygon fill="none" stroke="black" points="720,-1191 720,-1215 772,-1215 772,-1191 720,-1191"/>
<text text-anchor="start" x="723" y="-1199.2" font-family="Times,serif" font-size="16.00">▮▮▯▯▯</text>
<polygon fill="cornsilk" stroke="transparent" points="774,-1191 774,-1215 1245,-1215 1245,-1191 774,-1191"/>
<polygon fill="none" stroke="black" points="774,-1191 774,-1215 1245,-1215 1245,-1191 774,-1191"/>
<text text-anchor="start" x="884" y="-1199.2" font-family="Times,serif" font-size="16.00">Known soundness bugs closed</text>
<polygon fill="none" stroke="black" points="716.5,-1188 716.5,-1426 1247.5,-1426 1247.5,-1188 716.5,-1188"/>
</g>
<!-- semi&#45;stable&#45;apis -->
<g id="node5" class="node">
<title>semi&#45;stable&#45;apis</title>
<polygon fill="darkgoldenrod" stroke="transparent" points="469,-877 469,-901 984,-901 984,-877 469,-877"/>
<polygon fill="none" stroke="black" points="469,-877 469,-901 984,-901 984,-877 469,-877"/>
<text text-anchor="start" x="657" y="-885.2" font-family="Times,serif" font-size="16.00">Semi&#45;stable APIs</text>
<polygon fill="#ffb90f" stroke="transparent" points="469,-851 469,-875 984,-875 984,-851 469,-851"/>
<polygon fill="none" stroke="black" points="469,-851 469,-875 984,-875 984,-851 469,-851"/>
<text text-anchor="start" x="510" y="-859.2" font-family="Times,serif" font-size="16.00">Compiler offers semi&#45;stable APIs that others can use</text>
<polygon fill="cornsilk" stroke="transparent" points="469,-825 469,-849 521,-849 521,-825 469,-825"/>
<polygon fill="none" stroke="black" points="469,-825 469,-849 521,-849 521,-825 469,-825"/>
<text text-anchor="start" x="472" y="-833.2" font-family="Times,serif" font-size="16.00">▯▯▯▯▯</text>
<polygon fill="cornsilk" stroke="transparent" points="523,-825 523,-849 984,-849 984,-825 523,-825"/>
<polygon fill="none" stroke="black" points="523,-825 523,-849 984,-849 984,-825 523,-825"/>
<text text-anchor="start" x="583.5" y="-833.2" font-family="Times,serif" font-size="16.00">Shared crate for representing Rust types</text>
<polygon fill="cornsilk" stroke="transparent" points="469,-799 469,-823 521,-823 521,-799 469,-799"/>
<polygon fill="none" stroke="black" points="469,-799 469,-823 521,-823 521,-799 469,-799"/>
<text text-anchor="start" x="472" y="-807.2" font-family="Times,serif" font-size="16.00">▯▯▯▯▯</text>
<polygon fill="cornsilk" stroke="transparent" points="523,-799 523,-823 984,-823 984,-799 523,-799"/>
<polygon fill="none" stroke="black" points="523,-799 523,-823 984,-823 984,-799 523,-799"/>
<text text-anchor="start" x="526" y="-807.2" font-family="Times,serif" font-size="16.00">Access to Rust type information and type check results</text>
<polygon fill="cornsilk" stroke="transparent" points="469,-773 469,-797 521,-797 521,-773 469,-773"/>
<polygon fill="none" stroke="black" points="469,-773 469,-797 521,-797 521,-773 469,-773"/>
<text text-anchor="start" x="472" y="-781.2" font-family="Times,serif" font-size="16.00">▯▯▯▯▯</text>
<polygon fill="cornsilk" stroke="transparent" points="523,-773 523,-797 984,-797 984,-773 523,-773"/>
<polygon fill="none" stroke="black" points="523,-773 523,-797 984,-797 984,-773 523,-773"/>
<text text-anchor="start" x="636.5" y="-781.2" font-family="Times,serif" font-size="16.00">Ability to ask &#39;hypotheticals&#39;</text>
<polygon fill="cornsilk" stroke="transparent" points="469,-747 469,-771 521,-771 521,-747 469,-747"/>
<polygon fill="none" stroke="black" points="469,-747 469,-771 521,-771 521,-747 469,-747"/>
<text text-anchor="start" x="472" y="-755.2" font-family="Times,serif" font-size="16.00">▯▯▯▯▯</text>
<polygon fill="cornsilk" stroke="transparent" points="523,-747 523,-771 984,-771 984,-747 523,-747"/>
<polygon fill="none" stroke="black" points="523,-747 523,-771 984,-771 984,-747 523,-747"/>
<text text-anchor="start" x="595" y="-755.2" font-family="Times,serif" font-size="16.00">Access to the MIR for a given function</text>
<polygon fill="none" stroke="black" points="465.5,-744 465.5,-904 986.5,-904 986.5,-744 465.5,-744"/>
</g>
<!-- fundamentals&#45;&gt;semi&#45;stable&#45;apis -->
<g id="edge5" class="edge">
<title>fundamentals&#45;&gt;semi&#45;stable&#45;apis</title>
<path fill="none" stroke="black" d="M919.05,-1187.72C873.88,-1102.85 813.99,-990.33 772.97,-913.25"/>
<polygon fill="black" stroke="black" points="775.85,-911.21 768.06,-904.03 769.67,-914.5 775.85,-911.21"/>
</g>
<!-- core&#45;lang -->
<g id="node9" class="node">
<title>core&#45;lang</title>
<polygon fill="darkgoldenrod" stroke="transparent" points="969,-1125 969,-1149 1507,-1149 1507,-1125 969,-1125"/>
<polygon fill="none" stroke="black" points="969,-1125 969,-1149 1507,-1149 1507,-1125 969,-1125"/>
<text text-anchor="start" x="1116" y="-1133.2" font-family="Times,serif" font-size="16.00">Core language improvements</text>
<polygon fill="#ffb90f" stroke="transparent" points="969,-1099 969,-1123 1507,-1123 1507,-1099 969,-1099"/>
<polygon fill="none" stroke="black" points="969,-1099 969,-1123 1507,-1123 1507,-1099 969,-1099"/>
<text text-anchor="start" x="1002.5" y="-1107.2" font-family="Times,serif" font-size="16.00">Rust language scales smoothly without &#39;complexity cliffs&#39;</text>
<polygon fill="cornsilk" stroke="transparent" points="969,-1073 969,-1097 1021,-1097 1021,-1073 969,-1073"/>
<polygon fill="none" stroke="black" points="969,-1073 969,-1097 1021,-1097 1021,-1073 969,-1073"/>
<text text-anchor="start" x="972" y="-1081.2" font-family="Times,serif" font-size="16.00">▮▮▯▯▯</text>
<polygon fill="cornsilk" stroke="transparent" points="1023,-1073 1023,-1097 1507,-1097 1507,-1073 1023,-1073"/>
<polygon fill="none" stroke="black" points="1023,-1073 1023,-1097 1507,-1097 1507,-1073 1023,-1073"/>
<text text-anchor="start" x="1026" y="-1081.2" font-family="Times,serif" font-size="16.00">Dynamic dispatch (dyn trait) more powerful, easier to use</text>
<polygon fill="cornsilk" stroke="transparent" points="969,-1047 969,-1071 1021,-1071 1021,-1047 969,-1047"/>
<polygon fill="none" stroke="black" points="969,-1047 969,-1071 1021,-1071 1021,-1047 969,-1047"/>
<text text-anchor="start" x="972" y="-1055.2" font-family="Times,serif" font-size="16.00">▮▮▯▯▯</text>
<polygon fill="cornsilk" stroke="transparent" points="1023,-1047 1023,-1071 1507,-1071 1507,-1047 1023,-1047"/>
<polygon fill="none" stroke="black" points="1023,-1047 1023,-1071 1507,-1071 1507,-1047 1023,-1047"/>
<text text-anchor="start" x="1206.5" y="-1055.2" font-family="Times,serif" font-size="16.00">Specialization</text>
<polygon fill="cornsilk" stroke="transparent" points="969,-1021 969,-1045 1021,-1045 1021,-1021 969,-1021"/>
<polygon fill="none" stroke="black" points="969,-1021 969,-1045 1021,-1045 1021,-1021 969,-1021"/>
<text text-anchor="start" x="972" y="-1029.2" font-family="Times,serif" font-size="16.00">▮▮▮▯▯</text>
<polygon fill="cornsilk" stroke="transparent" points="1023,-1021 1023,-1045 1507,-1045 1507,-1021 1023,-1021"/>
<polygon fill="none" stroke="black" points="1023,-1021 1023,-1045 1507,-1045 1507,-1021 1023,-1021"/>
<text text-anchor="start" x="1132.5" y="-1029.2" font-family="Times,serif" font-size="16.00">Generic associated types (GATs)</text>
<polygon fill="cornsilk" stroke="transparent" points="969,-995 969,-1019 1021,-1019 1021,-995 969,-995"/>
<polygon fill="none" stroke="black" points="969,-995 969,-1019 1021,-1019 1021,-995 969,-995"/>
<text text-anchor="start" x="972" y="-1003.2" font-family="Times,serif" font-size="16.00">▮▮▮▮▯</text>
<polygon fill="cornsilk" stroke="transparent" points="1023,-995 1023,-1019 1507,-1019 1507,-995 1023,-995"/>
<polygon fill="none" stroke="black" points="1023,-995 1023,-1019 1507,-1019 1507,-995 1023,-995"/>
<text text-anchor="start" x="1225.5" y="-1003.2" font-family="Times,serif" font-size="16.00">Impl trait</text>
<polygon fill="cornsilk" stroke="transparent" points="969,-969 969,-993 1021,-993 1021,-969 969,-969"/>
<polygon fill="none" stroke="black" points="969,-969 969,-993 1021,-993 1021,-969 969,-969"/>
<text text-anchor="start" x="972" y="-977.2" font-family="Times,serif" font-size="16.00">▮▯▯▯▯</text>
<polygon fill="cornsilk" stroke="transparent" points="1023,-969 1023,-993 1507,-993 1507,-969 1023,-969"/>
<polygon fill="none" stroke="black" points="1023,-969 1023,-993 1507,-993 1507,-969 1023,-969"/>
<text text-anchor="start" x="1135" y="-977.2" font-family="Times,serif" font-size="16.00">Threaded contexts, capabilities</text>
<polygon fill="none" stroke="black" points="966,-966 966,-1152 1510,-1152 1510,-966 966,-966"/>
</g>
<!-- fundamentals&#45;&gt;core&#45;lang -->
<g id="edge12" class="edge">
<title>fundamentals&#45;&gt;core&#45;lang</title>
<path fill="none" stroke="black" d="M1105.13,-1187.68C1115.03,-1178.17 1124.97,-1168.62 1134.71,-1159.26"/>
<polygon fill="black" stroke="black" points="1137.33,-1161.59 1142.12,-1152.14 1132.48,-1156.54 1137.33,-1161.59"/>
</g>
<!-- semi&#45;stable&#45;apis&#45;&gt;dev&#45;tooling -->
<g id="edge4" class="edge">
<title>semi&#45;stable&#45;apis&#45;&gt;dev&#45;tooling</title>
<path fill="none" stroke="black" d="M589.15,-743.88C551.15,-721.92 509.19,-697.66 468.71,-674.26"/>
<polygon fill="black" stroke="black" points="470.24,-671.1 459.83,-669.12 466.74,-677.16 470.24,-671.1"/>
</g>
<!-- extensible -->
<g id="node11" class="node">
<title>extensible</title>
<polygon fill="darkgoldenrod" stroke="transparent" points="565,-616 565,-640 1085,-640 1085,-616 565,-616"/>
<polygon fill="none" stroke="black" points="565,-616 565,-640 1085,-640 1085,-616 565,-616"/>
<text text-anchor="start" x="760" y="-624.2" font-family="Times,serif" font-size="16.00">Extensible Rust</text>
<polygon fill="#ffb90f" stroke="transparent" points="565,-590 565,-614 1085,-614 1085,-590 565,-590"/>
<polygon fill="none" stroke="black" points="565,-590 565,-614 1085,-614 1085,-590 565,-590"/>
<text text-anchor="start" x="581" y="-598.2" font-family="Times,serif" font-size="16.00">Rust libraries can take control of the developer experience</text>
<polygon fill="cornsilk" stroke="transparent" points="565,-564 565,-588 617,-588 617,-564 565,-564"/>
<polygon fill="none" stroke="black" points="565,-564 565,-588 617,-588 617,-564 565,-564"/>
<text text-anchor="start" x="568" y="-572.2" font-family="Times,serif" font-size="16.00">▮▮▯▯▯</text>
<polygon fill="cornsilk" stroke="transparent" points="619,-564 619,-588 1085,-588 1085,-564 619,-564"/>
<polygon fill="none" stroke="black" points="619,-564 619,-588 1085,-588 1085,-564 619,-564"/>
<text text-anchor="start" x="790" y="-572.2" font-family="Times,serif" font-size="16.00">Macro hygiene</text>
<polygon fill="cornsilk" stroke="transparent" points="565,-538 565,-562 617,-562 617,-538 565,-538"/>
<polygon fill="none" stroke="black" points="565,-538 565,-562 617,-562 617,-538 565,-538"/>
<text text-anchor="start" x="568" y="-546.2" font-family="Times,serif" font-size="16.00">▯▯▯▯▯</text>
<polygon fill="cornsilk" stroke="transparent" points="619,-538 619,-562 1085,-562 1085,-538 619,-538"/>
<polygon fill="none" stroke="black" points="619,-538 619,-562 1085,-562 1085,-538 619,-538"/>
<text text-anchor="start" x="701.5" y="-546.2" font-family="Times,serif" font-size="16.00">Libraries supply custom lints, errors</text>
<polygon fill="cornsilk" stroke="transparent" points="565,-512 565,-536 617,-536 617,-512 565,-512"/>
<polygon fill="none" stroke="black" points="565,-512 565,-536 617,-536 617,-512 565,-512"/>
<text text-anchor="start" x="568" y="-520.2" font-family="Times,serif" font-size="16.00">▮▯▯▯▯</text>
<polygon fill="cornsilk" stroke="transparent" points="619,-512 619,-536 1085,-536 1085,-512 619,-512"/>
<polygon fill="none" stroke="black" points="619,-512 619,-536 1085,-536 1085,-512 619,-512"/>
<text text-anchor="start" x="622" y="-520.2" font-family="Times,serif" font-size="16.00">Libraries offering custom IDE integration (refactorings)</text>
<polygon fill="cornsilk" stroke="transparent" points="565,-486 565,-510 617,-510 617,-486 565,-486"/>
<polygon fill="none" stroke="black" points="565,-486 565,-510 617,-510 617,-486 565,-486"/>
<text text-anchor="start" x="568" y="-494.2" font-family="Times,serif" font-size="16.00">▮▯▯▯▯</text>
<polygon fill="cornsilk" stroke="transparent" points="619,-486 619,-510 1085,-510 1085,-486 619,-486"/>
<polygon fill="none" stroke="black" points="619,-486 619,-510 1085,-510 1085,-486 619,-486"/>
<text text-anchor="start" x="664" y="-494.2" font-family="Times,serif" font-size="16.00">Macros, lints have access to type information</text>
<polygon fill="none" stroke="black" points="562,-483 562,-643 1088,-643 1088,-483 562,-483"/>
</g>
<!-- semi&#45;stable&#45;apis&#45;&gt;extensible -->
<g id="edge14" class="edge">
<title>semi&#45;stable&#45;apis&#45;&gt;extensible</title>
<path fill="none" stroke="black" d="M756.24,-743.88C767.27,-715.02 779.82,-682.21 791.14,-652.58"/>
<polygon fill="black" stroke="black" points="794.47,-653.67 794.77,-643.08 787.93,-651.17 794.47,-653.67"/>
</g>
<!-- onboarding&#45;time&#45;&gt;goal&#45;internet&#45;services -->
<g id="edge1" class="edge">
<title>onboarding&#45;time&#45;&gt;goal&#45;internet&#45;services</title>
<path fill="none" stroke="black" d="M694.5,-195.83C682.24,-185.95 669.92,-176.02 657.93,-166.36"/>
<polygon fill="black" stroke="black" points="660.08,-163.6 650.1,-160.05 655.69,-169.05 660.08,-163.6"/>
</g>
<!-- async&#45;lang -->
<g id="node7" class="node">
<title>async&#45;lang</title>
<polygon fill="darkgoldenrod" stroke="transparent" points="1008,-903 1008,-927 1468,-927 1468,-903 1008,-903"/>
<polygon fill="none" stroke="black" points="1008,-903 1008,-927 1468,-927 1468,-903 1008,-903"/>
<text text-anchor="start" x="1137.5" y="-911.2" font-family="Times,serif" font-size="16.00">Async I/O Fundamentals</text>
<polygon fill="#ffb90f" stroke="transparent" points="1008,-877 1008,-901 1468,-901 1468,-877 1008,-877"/>
<polygon fill="none" stroke="black" points="1008,-877 1008,-901 1468,-901 1468,-877 1008,-877"/>
<text text-anchor="start" x="1015.5" y="-885.2" font-family="Times,serif" font-size="16.00">Using Async I/O comparable in complexity to Sync I/O</text>
<polygon fill="#ffb90f" stroke="transparent" points="1008,-851 1008,-875 1468,-875 1468,-851 1008,-851"/>
<polygon fill="none" stroke="black" points="1008,-851 1008,-875 1468,-875 1468,-851 1008,-851"/>
<text text-anchor="start" x="1012" y="-859.2" font-family="Times,serif" font-size="16.00">Access to a wide variety of useful libraries on crates.io</text>
<polygon fill="#ffb90f" stroke="transparent" points="1008,-825 1008,-849 1468,-849 1468,-825 1008,-825"/>
<polygon fill="none" stroke="black" points="1008,-825 1008,-849 1468,-849 1468,-825 1008,-825"/>
<text text-anchor="start" x="1052" y="-833.2" font-family="Times,serif" font-size="16.00">Easy access to high performance networking</text>
<polygon fill="cornsilk" stroke="transparent" points="1008,-799 1008,-823 1061,-823 1061,-799 1008,-799"/>
<polygon fill="none" stroke="black" points="1008,-799 1008,-823 1061,-823 1061,-799 1008,-799"/>
<text text-anchor="start" x="1011.5" y="-807.2" font-family="Times,serif" font-size="16.00">▮▮▮▯▯</text>
<polygon fill="cornsilk" stroke="transparent" points="1063,-799 1063,-823 1468,-823 1468,-799 1063,-799"/>
<polygon fill="none" stroke="black" points="1063,-799 1063,-823 1468,-823 1468,-799 1063,-799"/>
<text text-anchor="start" x="1145" y="-807.2" font-family="Times,serif" font-size="16.00">Can use async fn everywhere</text>
<polygon fill="cornsilk" stroke="transparent" points="1008,-773 1008,-797 1061,-797 1061,-773 1008,-773"/>
<polygon fill="none" stroke="black" points="1008,-773 1008,-797 1061,-797 1061,-773 1008,-773"/>
<text text-anchor="start" x="1011.5" y="-781.2" font-family="Times,serif" font-size="16.00">▮▮▯▯▯</text>
<polygon fill="cornsilk" stroke="transparent" points="1063,-773 1063,-797 1468,-797 1468,-773 1063,-773"/>
<polygon fill="none" stroke="black" points="1063,-773 1063,-797 1468,-797 1468,-773 1063,-773"/>
<text text-anchor="start" x="1067" y="-781.2" font-family="Times,serif" font-size="16.00">Async resource cleanup works well (async drop)</text>
<polygon fill="cornsilk" stroke="transparent" points="1008,-747 1008,-771 1061,-771 1061,-747 1008,-747"/>
<polygon fill="none" stroke="black" points="1008,-747 1008,-771 1061,-771 1061,-747 1008,-747"/>
<text text-anchor="start" x="1011.5" y="-755.2" font-family="Times,serif" font-size="16.00">▮▯▯▯▯</text>
<polygon fill="cornsilk" stroke="transparent" points="1063,-747 1063,-771 1468,-771 1468,-747 1063,-747"/>
<polygon fill="none" stroke="black" points="1063,-747 1063,-771 1468,-771 1468,-747 1063,-747"/>
<text text-anchor="start" x="1101.5" y="-755.2" font-family="Times,serif" font-size="16.00">Easy interoperability between runtimes</text>
<polygon fill="cornsilk" stroke="transparent" points="1008,-721 1008,-745 1061,-745 1061,-721 1008,-721"/>
<polygon fill="none" stroke="black" points="1008,-721 1008,-745 1061,-745 1061,-721 1008,-721"/>
<text text-anchor="start" x="1011.5" y="-729.2" font-family="Times,serif" font-size="16.00">▮▯▯▯▯</text>
<polygon fill="cornsilk" stroke="transparent" points="1063,-721 1063,-745 1468,-745 1468,-721 1063,-721"/>
<polygon fill="none" stroke="black" points="1063,-721 1063,-745 1468,-745 1468,-721 1063,-721"/>
<text text-anchor="start" x="1193.5" y="-729.2" font-family="Times,serif" font-size="16.00">Async generators</text>
<polygon fill="none" stroke="black" points="1005,-718 1005,-930 1471,-930 1471,-718 1005,-718"/>
</g>
<!-- async&#45;stack -->
<g id="node8" class="node">
<title>async&#45;stack</title>
<polygon fill="darkgoldenrod" stroke="transparent" points="1109,-655 1109,-679 1513,-679 1513,-655 1109,-655"/>
<polygon fill="none" stroke="black" points="1109,-655 1109,-679 1513,-679 1513,-655 1109,-655"/>
<text text-anchor="start" x="1262.5" y="-663.2" font-family="Times,serif" font-size="16.00">Async stack</text>
<polygon fill="#ffb90f" stroke="transparent" points="1109,-629 1109,-653 1513,-653 1513,-629 1109,-629"/>
<polygon fill="none" stroke="black" points="1109,-629 1109,-653 1513,-653 1513,-629 1109,-629"/>
<text text-anchor="start" x="1136.5" y="-637.2" font-family="Times,serif" font-size="16.00">Can quickly stand up an async application</text>
<polygon fill="#ffb90f" stroke="transparent" points="1109,-603 1109,-627 1513,-627 1513,-603 1109,-603"/>
<polygon fill="none" stroke="black" points="1109,-603 1109,-627 1513,-627 1513,-603 1109,-603"/>
<text text-anchor="start" x="1157.5" y="-611.2" font-family="Times,serif" font-size="16.00">Devs able to focus on &#39;business logic&#39;</text>
<polygon fill="cornsilk" stroke="transparent" points="1109,-577 1109,-601 1161,-601 1161,-577 1109,-577"/>
<polygon fill="none" stroke="black" points="1109,-577 1109,-601 1161,-601 1161,-577 1109,-577"/>
<text text-anchor="start" x="1112" y="-585.2" font-family="Times,serif" font-size="16.00">▮▮▮▯▯</text>
<polygon fill="cornsilk" stroke="transparent" points="1163,-577 1163,-601 1513,-601 1513,-577 1163,-577"/>
<polygon fill="none" stroke="black" points="1163,-577 1163,-601 1513,-601 1513,-577 1163,-577"/>
<text text-anchor="start" x="1217" y="-585.2" font-family="Times,serif" font-size="16.00">High&#45;performance runtime(s)</text>
<polygon fill="cornsilk" stroke="transparent" points="1109,-551 1109,-575 1161,-575 1161,-551 1109,-551"/>
<polygon fill="none" stroke="black" points="1109,-551 1109,-575 1161,-575 1161,-551 1109,-551"/>
<text text-anchor="start" x="1112" y="-559.2" font-family="Times,serif" font-size="16.00">▮▮▮▯▯</text>
<polygon fill="cornsilk" stroke="transparent" points="1163,-551 1163,-575 1513,-575 1513,-551 1163,-551"/>
<polygon fill="none" stroke="black" points="1163,-551 1163,-575 1513,-575 1513,-551 1163,-551"/>
<text text-anchor="start" x="1304" y="-559.2" font-family="Times,serif" font-size="16.00">Logging</text>
<polygon fill="cornsilk" stroke="transparent" points="1109,-525 1109,-549 1161,-549 1161,-525 1109,-525"/>
<polygon fill="none" stroke="black" points="1109,-525 1109,-549 1161,-549 1161,-525 1109,-525"/>
<text text-anchor="start" x="1112" y="-533.2" font-family="Times,serif" font-size="16.00">▮▯▯▯▯</text>
<polygon fill="cornsilk" stroke="transparent" points="1163,-525 1163,-549 1513,-549 1513,-525 1163,-525"/>
<polygon fill="none" stroke="black" points="1163,-525 1163,-549 1513,-549 1513,-525 1163,-525"/>
<text text-anchor="start" x="1307.5" y="-533.2" font-family="Times,serif" font-size="16.00">Testing</text>
<polygon fill="cornsilk" stroke="transparent" points="1109,-499 1109,-523 1161,-523 1161,-499 1109,-499"/>
<polygon fill="none" stroke="black" points="1109,-499 1109,-523 1161,-523 1161,-499 1109,-499"/>
<text text-anchor="start" x="1112" y="-507.2" font-family="Times,serif" font-size="16.00">▮▮▯▯▯</text>
<polygon fill="cornsilk" stroke="transparent" points="1163,-499 1163,-523 1513,-523 1513,-499 1163,-499"/>
<polygon fill="none" stroke="black" points="1163,-499 1163,-523 1513,-523 1513,-499 1163,-499"/>
<text text-anchor="start" x="1245" y="-507.2" font-family="Times,serif" font-size="16.00">Persistence / database</text>
<polygon fill="cornsilk" stroke="transparent" points="1109,-473 1109,-497 1161,-497 1161,-473 1109,-473"/>
<polygon fill="none" stroke="black" points="1109,-473 1109,-497 1161,-497 1161,-473 1109,-473"/>
<text text-anchor="start" x="1112" y="-481.2" font-family="Times,serif" font-size="16.00">▮▮▯▯▯</text>
<polygon fill="cornsilk" stroke="transparent" points="1163,-473 1163,-497 1513,-497 1513,-473 1163,-473"/>
<polygon fill="none" stroke="black" points="1163,-473 1163,-497 1513,-497 1513,-473 1163,-473"/>
<text text-anchor="start" x="1288.5" y="-481.2" font-family="Times,serif" font-size="16.00">Middleware</text>
<polygon fill="cornsilk" stroke="transparent" points="1109,-447 1109,-471 1161,-471 1161,-447 1109,-447"/>
<polygon fill="none" stroke="black" points="1109,-447 1109,-471 1161,-471 1161,-447 1109,-447"/>
<text text-anchor="start" x="1112" y="-455.2" font-family="Times,serif" font-size="16.00">▮▮▮▯▯</text>
<polygon fill="cornsilk" stroke="transparent" points="1163,-447 1163,-471 1513,-471 1513,-447 1163,-447"/>
<polygon fill="none" stroke="black" points="1163,-447 1163,-471 1513,-471 1513,-447 1163,-447"/>
<text text-anchor="start" x="1166" y="-455.2" font-family="Times,serif" font-size="16.00">I/O uring support in tokio, other runtimes</text>
<polygon fill="none" stroke="black" points="1106,-444 1106,-682 1516,-682 1516,-444 1106,-444"/>
</g>
<!-- async&#45;lang&#45;&gt;async&#45;stack -->
<g id="edge11" class="edge">
<title>async&#45;lang&#45;&gt;async&#45;stack</title>
<path fill="none" stroke="black" d="M1267.69,-717.65C1270.07,-709.21 1272.49,-700.62 1274.91,-692.04"/>
<polygon fill="black" stroke="black" points="1278.29,-692.94 1277.64,-682.37 1271.56,-691.04 1278.29,-692.94"/>
</g>
<!-- async&#45;stack&#45;&gt;onboarding&#45;time -->
<g id="edge7" class="edge">
<title>async&#45;stack&#45;&gt;onboarding&#45;time</title>
<path fill="none" stroke="black" d="M1105.76,-448.69C1102.82,-447.12 1099.9,-445.55 1097,-444 1077.9,-433.79 1057.99,-423.25 1038.02,-412.76"/>
<polygon fill="black" stroke="black" points="1039.63,-409.65 1029.15,-408.11 1036.38,-415.85 1039.63,-409.65"/>
</g>
<!-- core&#45;lang&#45;&gt;async&#45;lang -->
<g id="edge10" class="edge">
<title>core&#45;lang&#45;&gt;async&#45;lang</title>
<path fill="none" stroke="black" d="M1238,-965.91C1238,-957.5 1238,-948.91 1238,-940.33"/>
<polygon fill="black" stroke="black" points="1241.5,-940.27 1238,-930.27 1234.5,-940.27 1241.5,-940.27"/>
</g>
<!-- easy&#45;lang -->
<g id="node10" class="node">
<title>easy&#45;lang</title>
<polygon fill="darkgoldenrod" stroke="transparent" points="1492,-890 1492,-914 2030,-914 2030,-890 1492,-890"/>
<polygon fill="none" stroke="black" points="1492,-890 1492,-914 2030,-914 2030,-890 1492,-890"/>
<text text-anchor="start" x="1614" y="-898.2" font-family="Times,serif" font-size="16.00">Ergonomic language improvements</text>
<polygon fill="#ffb90f" stroke="transparent" points="1492,-864 1492,-888 2030,-888 2030,-864 1492,-864"/>
<polygon fill="none" stroke="black" points="1492,-864 1492,-888 2030,-888 2030,-864 1492,-864"/>
<text text-anchor="start" x="1525.5" y="-872.2" font-family="Times,serif" font-size="16.00">Rust language scales smoothly without &#39;complexity cliffs&#39;</text>
<polygon fill="cornsilk" stroke="transparent" points="1492,-838 1492,-862 1544,-862 1544,-838 1492,-838"/>
<polygon fill="none" stroke="black" points="1492,-838 1492,-862 1544,-862 1544,-838 1492,-838"/>
<text text-anchor="start" x="1495" y="-846.2" font-family="Times,serif" font-size="16.00">▮▮▯▯▯</text>
<polygon fill="cornsilk" stroke="transparent" points="1546,-838 1546,-862 2030,-862 2030,-838 1546,-838"/>
<polygon fill="none" stroke="black" points="1546,-838 1546,-862 2030,-862 2030,-838 1546,-838"/>
<text text-anchor="start" x="1549" y="-846.2" font-family="Times,serif" font-size="16.00">Dynamic dispatch (dyn trait) more powerful, easier to use</text>
<polygon fill="cornsilk" stroke="transparent" points="1492,-812 1492,-836 1544,-836 1544,-812 1492,-812"/>
<polygon fill="none" stroke="black" points="1492,-812 1492,-836 1544,-836 1544,-812 1492,-812"/>
<text text-anchor="start" x="1495" y="-820.2" font-family="Times,serif" font-size="16.00">▮▮▯▯▯</text>
<polygon fill="cornsilk" stroke="transparent" points="1546,-812 1546,-836 2030,-836 2030,-812 1546,-812"/>
<polygon fill="none" stroke="black" points="1546,-812 1546,-836 2030,-836 2030,-812 1546,-812"/>
<text text-anchor="start" x="1724" y="-820.2" font-family="Times,serif" font-size="16.00">Implied bounds</text>
<polygon fill="cornsilk" stroke="transparent" points="1492,-786 1492,-810 1544,-810 1544,-786 1492,-786"/>
<polygon fill="none" stroke="black" points="1492,-786 1492,-810 1544,-810 1544,-786 1492,-786"/>
<text text-anchor="start" x="1495" y="-794.2" font-family="Times,serif" font-size="16.00">▮▯▯▯▯</text>
<polygon fill="cornsilk" stroke="transparent" points="1546,-786 1546,-810 2030,-810 2030,-786 1546,-786"/>
<polygon fill="none" stroke="black" points="1546,-786 1546,-810 2030,-810 2030,-786 1546,-786"/>
<text text-anchor="start" x="1741.5" y="-794.2" font-family="Times,serif" font-size="16.00">Generators</text>
<polygon fill="cornsilk" stroke="transparent" points="1492,-760 1492,-784 1544,-784 1544,-760 1492,-760"/>
<polygon fill="none" stroke="black" points="1492,-760 1492,-784 1544,-784 1544,-760 1492,-760"/>
<text text-anchor="start" x="1495" y="-768.2" font-family="Times,serif" font-size="16.00">▮▯▯▯▯</text>
<g id="a_node10_0"><a xlink:href="https://github.com/rust-lang/polonius/" xlink:title="&lt;TABLE&gt;">
<polygon fill="cornsilk" stroke="transparent" points="1546,-760 1546,-784 2030,-784 2030,-760 1546,-760"/>
<polygon fill="none" stroke="black" points="1546,-760 1546,-784 2030,-784 2030,-760 1546,-760"/>
<text text-anchor="start" x="1681.5" y="-769.2" font-family="Times,serif" text-decoration="underline" font-size="16.00">Improved borrow checker</text>
</a>
</g>
<polygon fill="cornsilk" stroke="transparent" points="1492,-734 1492,-758 1544,-758 1544,-734 1492,-734"/>
<polygon fill="none" stroke="black" points="1492,-734 1492,-758 1544,-758 1544,-734 1492,-734"/>
<text text-anchor="start" x="1495" y="-742.2" font-family="Times,serif" font-size="16.00">▮▯▯▯▯</text>
<g id="a_node10_1"><a xlink:href="https://smallcultfollowing.com/babysteps//blog/2021/11/05/view-types/" xlink:title="&lt;TABLE&gt;">
<polygon fill="cornsilk" stroke="transparent" points="1546,-734 1546,-758 2030,-758 2030,-734 1546,-734"/>
<polygon fill="none" stroke="black" points="1546,-734 1546,-758 2030,-758 2030,-734 1546,-734"/>
<text text-anchor="start" x="1743" y="-743.2" font-family="Times,serif" text-decoration="underline" font-size="16.00">View types</text>
</a>
</g>
<polygon fill="none" stroke="black" points="1489,-731 1489,-917 2033,-917 2033,-731 1489,-731"/>
</g>
<!-- core&#45;lang&#45;&gt;easy&#45;lang -->
<g id="edge13" class="edge">
<title>core&#45;lang&#45;&gt;easy&#45;lang</title>
<path fill="none" stroke="black" d="M1444.7,-965.91C1477.59,-951.26 1511.68,-936.07 1544.78,-921.33"/>
<polygon fill="black" stroke="black" points="1546.38,-924.45 1554.09,-917.18 1543.53,-918.05 1546.38,-924.45"/>
</g>
<!-- easy&#45;lang&#45;&gt;onboarding&#45;time -->
<g id="edge9" class="edge">
<title>easy&#45;lang&#45;&gt;onboarding&#45;time</title>
<path fill="none" stroke="black" d="M1728.48,-730.83C1692.58,-643.02 1626.12,-514.12 1525,-444 1450.18,-392.11 1230.73,-353.35 1057.28,-329.73"/>
<polygon fill="black" stroke="black" points="1057.61,-326.24 1047.23,-328.37 1056.67,-333.18 1057.61,-326.24"/>
</g>
<!-- extensible&#45;&gt;onboarding&#45;time -->
<g id="edge8" class="edge">
<title>extensible&#45;&gt;onboarding&#45;time</title>
<path fill="none" stroke="black" d="M825,-482.88C825,-462.59 825,-440.35 825,-418.63"/>
<polygon fill="black" stroke="black" points="828.5,-418.36 825,-408.36 821.5,-418.36 828.5,-418.36"/>
</g>
</g>
</svg>
